<?xml version="1.0" encoding="UTF-8" standalone="no"?>
<svg xmlns:ffdec="https://www.free-decompiler.com/flash" xmlns:xlink="http://www.w3.org/1999/xlink" ffdec:objectType="morphshape" height="36.85px" width="38.15px" xmlns="http://www.w3.org/2000/svg">
  <g transform="matrix(1.0, 0.0, 0.0, 1.0, 33.2, 17.4)">
    <path d="M-23.2 1.0 Q-13.5 10.75 -7.7 15.55 -1.9 20.3 4.9 19.25 L1.8 17.25 Q-7.35 10.5 -7.6 1.1 L-7.55 1.1 Q-7.4 -8.45 1.85 -15.2 L4.95 -17.2 Q-1.85 -18.3 -7.65 -13.5 -13.5 -8.75 -23.2 1.0" fill="#ffff00" fill-rule="evenodd" stroke="none">
      <animate attributeName="fill" dur="2s" repeatCount="indefinite" values="#ffff00;#ffff01"/>
      <animate attributeName="fill-opacity" dur="2s" repeatCount="indefinite" values="1.0;1.0"/>
      <animate attributeName="d" dur="2s" repeatCount="indefinite" values="M-23.2 1.0 Q-13.5 10.75 -7.7 15.55 -1.9 20.3 4.9 19.25 L1.8 17.25 Q-7.35 10.5 -7.6 1.1 L-7.55 1.1 Q-7.4 -8.45 1.85 -15.2 L4.95 -17.2 Q-1.85 -18.3 -7.65 -13.5 -13.5 -8.75 -23.2 1.0;M-33.2 1.0 Q-23.5 10.75 -17.7 15.55 -11.9 20.3 -5.1 19.25 L-8.2 17.25 Q-17.35 10.5 -17.6 1.1 L-17.55 1.1 Q-17.4 -8.45 -8.15 -15.2 L-5.05 -17.2 Q-11.85 -18.3 -17.65 -13.5 -23.5 -8.75 -33.2 1.0"/>
    </path>
    <path d="M-23.2 1.0 Q-13.5 -8.75 -7.65 -13.5 -1.85 -18.3 4.95 -17.2 L1.85 -15.2 Q-7.4 -8.45 -7.55 1.1 L-7.6 1.1 Q-7.35 10.5 1.8 17.25 L4.9 19.25 Q-1.9 20.3 -7.7 15.55 -13.5 10.75 -23.2 1.0 Z" fill="none" stroke="#000000" stroke-linecap="round" stroke-linejoin="round" stroke-opacity="0.0" stroke-width="0.0">
      <animate attributeName="stroke" dur="2s" repeatCount="indefinite" values="#000000;#000001"/>
      <animate attributeName="stroke-width" dur="2s" repeatCount="indefinite" values="0.0;0.0"/>
      <animate attributeName="fill-opacity" dur="2s" repeatCount="indefinite" values="0.0;0.0"/>
      <animate attributeName="d" dur="2s" repeatCount="indefinite" values="M-23.2 1.0 Q-13.5 -8.75 -7.65 -13.5 -1.85 -18.3 4.95 -17.2 L1.85 -15.2 Q-7.4 -8.45 -7.55 1.1 L-7.6 1.1 Q-7.35 10.5 1.8 17.25 L4.9 19.25 Q-1.9 20.3 -7.7 15.55 -13.5 10.75 -23.2 1.0 Z;M-33.2 1.0 Q-23.5 -8.75 -17.65 -13.5 -11.85 -18.3 -5.05 -17.2 L-8.15 -15.2 Q-17.4 -8.45 -17.55 1.1 L-17.6 1.1 Q-17.35 10.5 -8.2 17.25 L-5.1 19.25 Q-11.9 20.3 -17.7 15.55 -23.5 10.75 -33.2 1.0 Z"/>
    </path>
  </g>
</svg>
