<?xml version="1.0" encoding="UTF-8" standalone="no"?>
<svg xmlns:ffdec="https://www.free-decompiler.com/flash" xmlns:xlink="http://www.w3.org/1999/xlink" ffdec:objectType="shape" height="14.25px" width="9.4px" xmlns="http://www.w3.org/2000/svg">
  <g transform="matrix(1.0, 0.0, 0.0, 1.0, 0.0, 0.0)">
    <path d="M3.9 2.65 L5.95 2.8 6.05 2.25 Q7.0 2.4 7.9 2.95 8.65 3.45 9.3 4.3 9.3 5.5 8.6 6.4 8.15 7.0 6.35 7.6 L6.1 14.05 1.1 14.15 0.8 13.45 5.45 13.15 5.45 7.85 3.5 8.65 3.5 7.65 2.45 7.4 2.6 5.3 1.95 4.3 2.25 3.5 Q3.15 2.5 3.9 2.65 M6.4 4.25 Q6.35 3.2 5.5 2.9 4.3 2.5 3.4 3.25 2.85 4.05 3.1 4.7 3.45 5.55 4.55 5.7 L4.75 6.6 6.15 6.6 7.55 5.3 7.35 4.35 6.4 4.25" fill="#d88701" fill-rule="evenodd" stroke="none"/>
    <path d="M3.4 0.9 Q5.95 0.55 7.7 1.65 9.4 2.7 9.3 4.3 8.65 3.45 7.9 2.95 7.0 2.4 6.05 2.25 L5.95 2.8 3.9 2.65 Q6.35 1.3 3.4 0.9 M0.8 13.45 L1.05 12.5 3.5 12.4 3.5 11.05 1.25 11.0 1.25 9.35 3.5 9.2 3.5 8.65 5.45 7.85 5.45 13.15 0.8 13.45 M2.45 7.4 L0.85 6.3 Q0.0 5.55 0.2 4.35 L0.6 2.75 1.55 3.1 1.7 3.1 2.25 3.5 1.95 4.3 2.6 5.3 2.45 7.4 M4.55 5.65 Q5.3 5.65 5.85 5.25 6.4 4.85 6.4 4.25 L7.35 4.35 7.55 5.3 6.15 6.6 4.75 6.6 4.55 5.7 4.55 5.65" fill="#ffc02f" fill-rule="evenodd" stroke="none"/>
    <path d="M0.6 2.75 L0.45 2.65 Q0.0 2.2 0.0 1.55 0.0 0.9 0.45 0.45 0.9 0.0 1.55 0.0 2.2 0.0 2.65 0.45 L3.0 0.95 3.1 1.55 Q3.1 2.2 2.65 2.65 2.25 3.05 1.7 3.1 L1.55 3.1 0.6 2.75" fill="#fcffde" fill-opacity="0.83137256" fill-rule="evenodd" stroke="none"/>
    <path d="M3.4 0.9 Q6.35 1.3 3.9 2.65 3.15 2.5 2.25 3.5 L1.7 3.1 Q2.25 3.05 2.65 2.65 3.1 2.2 3.1 1.55 L3.0 0.95 3.4 0.9" fill="#fcffdf" fill-rule="evenodd" stroke="none"/>
    <path d="M9.3 4.3 Q9.4 2.7 7.7 1.65 5.95 0.55 3.4 0.9 L3.0 0.95 M9.3 4.3 Q9.3 5.5 8.6 6.4 8.15 7.0 6.35 7.6 L6.1 14.05 1.1 14.15 0.8 13.45 1.05 12.5 3.5 12.4 3.5 11.05 1.25 11.0 1.25 9.35 3.5 9.2 3.5 8.65 3.5 7.65 2.45 7.4 0.85 6.3 Q0.0 5.55 0.2 4.35 L0.6 2.75 M4.55 5.65 Q5.3 5.65 5.85 5.25 6.4 4.85 6.4 4.25 6.35 3.2 5.5 2.9 4.3 2.5 3.4 3.25 2.85 4.05 3.1 4.7 3.45 5.55 4.55 5.7" ffdec:has-small-stroke="true" ffdec:original-stroke-width="0.25" fill="none" stroke="#582c01" stroke-linecap="round" stroke-linejoin="bevel" stroke-width="1.0"/>
  </g>
</svg>
