<?xml version="1.0" encoding="UTF-8" standalone="no"?>
<svg xmlns:ffdec="https://www.free-decompiler.com/flash" xmlns:xlink="http://www.w3.org/1999/xlink" ffdec:objectType="shape" height="8.15px" width="13.8px" xmlns="http://www.w3.org/2000/svg">
  <g transform="matrix(1.0, 0.0, 0.0, 1.0, 1.0, -2.5)">
    <path d="M11.85 9.6 Q10.9 10.6 9.3 10.65 8.25 10.65 7.45 10.05 6.55 9.45 6.05 8.35 5.45 9.5 4.65 10.1 L2.75 10.65 Q1.25 10.6 0.4 9.6 -0.5 8.55 -0.5 6.95 -0.5 5.1 0.5 4.1 1.45 3.05 3.0 3.05 4.0 3.05 4.9 3.65 5.7 4.25 6.25 5.35 6.85 4.2 7.7 3.6 8.5 3.05 9.55 3.05 11.0 3.05 11.9 4.1 12.8 5.15 12.8 6.8 12.75 8.6 11.85 9.6 M11.5 6.8 Q11.5 5.7 11.0 5.1 10.5 4.45 9.6 4.5 L8.45 4.75 Q7.9 5.0 7.35 5.95 L6.95 6.7 6.6 7.45 Q7.05 8.3 7.75 8.8 8.45 9.2 9.2 9.25 10.25 9.25 10.85 8.6 11.5 7.95 11.5 6.8 M3.1 4.5 Q2.0 4.45 1.45 5.1 0.8 5.75 0.8 6.95 0.8 7.95 1.3 8.6 1.8 9.25 2.75 9.25 L4.05 8.9 4.95 7.8 5.35 7.05 5.7 6.3 4.55 4.9 Q3.8 4.45 3.1 4.5" fill="#000000" fill-rule="evenodd" stroke="none"/>
    <path d="M11.0 6.25 Q11.0 5.15 10.5 4.55 10.0 3.9 9.1 3.95 L7.95 4.2 Q7.4 4.45 6.85 5.4 L6.45 6.15 6.1 6.9 7.25 8.25 8.7 8.7 Q9.75 8.7 10.35 8.05 11.0 7.4 11.0 6.25 M11.35 9.05 Q10.4 10.05 8.8 10.1 7.75 10.1 6.95 9.5 6.05 8.9 5.55 7.8 4.95 8.95 4.15 9.55 L2.25 10.1 Q0.75 10.05 -0.1 9.05 -1.0 8.0 -1.0 6.4 -1.0 4.55 0.0 3.55 0.95 2.5 2.5 2.5 3.5 2.5 4.4 3.1 5.2 3.7 5.75 4.8 6.35 3.65 7.2 3.05 8.0 2.5 9.05 2.5 10.5 2.5 11.4 3.55 12.3 4.6 12.3 6.25 12.25 8.05 11.35 9.05 M2.6 3.95 Q1.5 3.9 0.95 4.55 0.3 5.2 0.3 6.4 0.3 7.4 0.8 8.05 1.3 8.7 2.25 8.7 3.05 8.7 3.55 8.35 L4.45 7.25 4.85 6.5 5.2 5.75 Q4.75 4.8 4.05 4.35 3.3 3.9 2.6 3.95" fill="#ffffff" fill-rule="evenodd" stroke="none"/>
  </g>
</svg>
