<?xml version="1.0" encoding="UTF-8" standalone="no"?>
<svg xmlns:ffdec="https://www.free-decompiler.com/flash" xmlns:xlink="http://www.w3.org/1999/xlink" ffdec:objectType="shape" height="52.0px" width="52.0px" xmlns="http://www.w3.org/2000/svg">
  <g transform="matrix(1.0, 0.0, 0.0, 1.0, 0.0, 0.0)">
    <path d="M52.0 52.0 L0.0 52.0 0.0 0.0 52.0 0.0 52.0 52.0" fill="#795fa9" fill-opacity="0.0" fill-rule="evenodd" stroke="none"/>
    <path d="M42.95 12.95 L43.15 12.85 43.45 12.8 44.1 15.95 Q41.05 16.6 38.15 18.25 37.65 18.5 37.2 18.85 L36.9 19.0 36.1 20.6 34.7 18.65 34.5 18.65 35.4 16.95 35.75 14.0 35.75 13.6 35.8 13.5 36.0 4.85 38.0 5.35 38.0 7.95 37.9 12.05 38.2 11.4 38.3 11.35 39.7 8.45 42.9 3.05 44.2 4.85 39.7 13.6 39.4 14.15 39.9 13.9 42.95 12.95" fill="#b44b07" fill-rule="evenodd" stroke="none"/>
    <path d="M34.5 18.65 L34.1 18.7 35.4 16.95 34.5 18.65 M35.55 4.95 L36.0 4.85 35.8 13.5 35.55 4.95 M42.2 2.75 L42.9 3.05 39.7 8.45 42.2 2.75" fill="#ffc747" fill-rule="evenodd" stroke="none"/>
    <path d="M39.7 13.6 L40.15 13.55 40.15 13.5 41.25 13.2 42.95 12.95 39.9 13.9 39.4 14.15 39.7 13.6 M33.2 17.35 L33.6 13.9 Q33.95 9.6 33.8 5.3 L35.55 4.95 35.8 13.5 35.75 13.6 35.75 14.0 35.4 16.95 33.2 17.35 M38.0 7.95 L38.3 7.4 38.4 7.3 40.4 3.3 42.2 2.75 39.7 8.45 38.3 11.35 38.2 11.4 37.9 12.05 38.0 7.95" fill="#c78404" fill-rule="evenodd" stroke="none"/>
    <path d="M34.1 18.7 L32.5 18.8 33.2 17.35 35.4 16.95 34.1 18.7" fill="#fab42d" fill-rule="evenodd" stroke="none"/>
    <path d="M39.7 13.6 L40.15 13.55 40.15 13.5 41.25 13.2 42.95 12.95 43.15 12.85 43.45 12.8 44.1 15.95 Q41.05 16.6 38.15 18.25 37.65 18.5 37.2 18.85 L36.9 19.0 36.1 20.6 34.7 18.65 M34.5 18.65 L34.1 18.7 32.5 18.8 33.2 17.35 33.6 13.9 Q33.95 9.6 33.8 5.3 L35.55 4.95 36.0 4.85 38.0 5.35 38.0 7.95 38.3 7.4 38.4 7.3 40.4 3.3 42.2 2.75 42.9 3.05 44.2 4.85 39.7 13.6 39.4 14.15 M38.0 7.95 L37.9 12.05" fill="none" stroke="#000000" stroke-linecap="butt" stroke-linejoin="miter-clip" stroke-miterlimit="3.0" stroke-opacity="0.2" stroke-width="1.0"/>
    <path d="M39.5 22.1 L43.6 18.15 44.25 21.3 44.2 21.35 44.2 21.4 40.7 24.9 47.15 26.55 48.2 29.1 40.35 28.3 40.95 29.4 41.3 30.0 42.7 33.05 42.8 33.15 42.8 33.3 41.4 35.9 37.95 29.2 37.6 28.65 37.55 28.7 36.7 27.45 36.65 27.35 36.65 27.3 36.3 27.25 36.7 23.95 37.0 24.0 37.15 23.95 37.3 23.85 37.45 23.7 38.8 22.8 38.9 22.65 39.5 22.1" fill="#b44b07" fill-rule="evenodd" stroke="none"/>
    <path d="M43.05 18.25 L43.6 18.15 39.5 22.1 43.05 18.25 M48.2 29.1 L47.55 29.75 40.35 28.3 48.2 29.1 M41.4 35.9 L41.0 36.0 37.95 29.2 41.4 35.9 M36.7 23.95 L36.75 23.8 38.9 22.65 38.8 22.8 37.45 23.7 37.3 23.85 37.15 23.95 37.0 24.0 36.7 23.95" fill="#ffc747" fill-rule="evenodd" stroke="none"/>
    <path d="M43.05 18.25 L39.5 22.1 38.9 22.65 36.75 23.8 36.85 23.0 41.45 18.6 43.05 18.25 M41.0 36.0 L39.2 36.35 35.85 29.8 35.7 29.6 36.05 29.4 36.0 29.35 36.3 27.4 36.65 27.35 36.7 27.45 37.55 28.7 37.6 28.65 37.95 29.2 41.0 36.0" fill="#fab42d" fill-rule="evenodd" stroke="none"/>
    <path d="M47.55 29.75 L45.2 30.45 40.95 29.4 40.35 28.3 47.55 29.75" fill="#c78404" fill-rule="evenodd" stroke="none"/>
    <path d="M43.6 18.15 L43.05 18.25 41.45 18.6 36.85 23.0 36.75 23.8 M43.6 18.15 L44.25 21.3 44.2 21.35 44.2 21.4 40.7 24.9 47.15 26.55 48.2 29.1 47.55 29.75 45.2 30.45 40.95 29.4 41.3 30.0 42.7 33.05 42.8 33.15 42.8 33.3 41.4 35.9 41.0 36.0 39.2 36.35 35.85 29.8 35.7 29.6 36.05 29.4 36.0 29.35 36.3 27.4 M36.65 27.35 L36.65 27.3 36.3 27.25 36.7 23.95 M40.95 29.4 L40.35 28.3" fill="none" stroke="#000000" stroke-linecap="butt" stroke-linejoin="miter-clip" stroke-miterlimit="3.0" stroke-opacity="0.2" stroke-width="1.0"/>
    <path d="M35.55 10.15 L35.75 10.15 41.05 17.4 40.55 21.85 40.45 22.35 40.45 22.6 40.35 23.4 40.35 23.55 39.9 26.9 39.9 26.85 39.85 27.0 39.65 28.95 39.6 29.0 35.45 31.7 35.45 31.75 32.9 33.4 31.3 31.2 31.05 30.85 27.6 26.15 28.35 20.15 28.65 17.65 29.0 14.55 34.1 11.25 35.75 10.15 35.5 10.2 35.55 10.15" fill="#b44b07" fill-rule="evenodd" stroke="none"/>
    <path d="M39.9 26.9 L39.95 27.05 39.85 27.0 39.9 26.85 39.9 26.9 M21.85 15.15 L29.0 10.7 28.95 10.65 29.1 10.6 35.55 10.15 35.5 10.2 35.75 10.15 34.1 11.25 Q31.0 13.0 27.9 14.8 L27.7 14.85 21.85 15.15 M29.1 10.6 L29.0 10.7 29.1 10.6" fill="#c78404" fill-rule="evenodd" stroke="none"/>
    <path d="M32.9 33.4 L32.5 33.45 32.5 33.4 32.9 33.4 32.5 33.4 31.3 31.2 32.9 33.4 M18.7 27.45 L18.1 26.65 23.3 26.3 18.7 27.45 M19.3 17.15 L19.3 17.1 19.35 16.75 19.35 16.7 21.85 15.15 27.7 14.85 27.9 14.8 Q31.0 13.0 34.1 11.25 L29.0 14.55 28.65 17.65 28.45 15.0 22.8 15.95 19.45 17.3 19.35 17.15 19.35 16.75 19.3 17.15 M28.35 20.15 L27.6 26.15 31.05 30.85 27.1 26.7 23.3 26.3 26.95 25.55 28.35 20.15" fill="#ffc747" fill-rule="evenodd" stroke="none"/>
    <path d="M39.95 27.05 L39.65 28.95 39.85 27.0 39.95 27.05 M18.1 26.65 L19.3 17.15 19.35 16.75 19.35 17.15 19.45 17.3 22.8 15.95 28.45 15.0 28.65 17.65 28.35 20.15 26.95 25.55 23.3 26.3 18.1 26.65" fill="#fab42d" fill-rule="evenodd" stroke="none"/>
    <path d="M32.5 33.4 L23.75 34.3 18.7 27.45 23.3 26.3 27.1 26.7 31.05 30.85 31.3 31.2 32.5 33.4" fill="#fabf4c" fill-rule="evenodd" stroke="none"/>
    <path d="M35.55 10.15 L35.75 10.15 41.05 17.4 40.55 21.85 40.45 22.35 40.45 22.6 40.35 23.55 39.9 26.9 39.95 27.05 M39.65 28.95 L39.6 29.0 35.45 31.7 35.45 31.75 32.9 33.4 32.5 33.4 23.75 34.3 18.7 27.45 18.1 26.65 19.3 17.15 19.35 16.75 19.35 16.7 21.85 15.15 29.0 10.7 29.1 10.6 35.55 10.15 M19.3 17.1 L19.35 16.75 M35.5 10.2 L35.75 10.15 M40.35 23.4 L40.35 23.55 M39.65 28.95 L39.85 27.0 39.9 26.85" fill="none" stroke="#000000" stroke-linecap="butt" stroke-linejoin="miter-clip" stroke-miterlimit="3.0" stroke-opacity="0.2" stroke-width="1.0"/>
    <path d="M33.6 30.1 L29.85 24.95 30.6 16.4 35.2 13.85 35.65 13.6 39.55 18.95 38.7 27.45 33.7 30.25 33.6 30.1" fill="#fab42d" fill-rule="evenodd" stroke="none"/>
    <path d="M35.2 13.85 L30.6 16.4 29.85 24.95 33.6 30.1 33.15 30.3 29.3 25.0 30.1 16.45 35.1 13.7 35.2 13.85" fill="#ffc747" fill-rule="evenodd" stroke="none"/>
    <path d="M33.6 30.1 L33.7 30.25 38.7 27.45 39.55 18.95 35.65 13.6 35.2 13.85" fill="none" stroke="#000000" stroke-linecap="butt" stroke-linejoin="miter-clip" stroke-miterlimit="3.0" stroke-opacity="0.2" stroke-width="1.0"/>
    <path d="M23.4 19.35 Q22.55 19.5 21.8 20.2 21.1 20.9 20.95 21.7 20.75 22.5 21.25 22.95 21.75 23.4 22.6 23.25 L24.1 22.35 Q24.8 21.65 25.0 20.85 25.15 20.05 24.65 19.6 24.2 19.15 23.4 19.35 Z" fill="none" stroke="#000000" stroke-linecap="butt" stroke-linejoin="miter-clip" stroke-miterlimit="3.0" stroke-opacity="0.2" stroke-width="1.0"/>
    <path d="M28.15 11.9 Q28.85 11.5 29.45 11.45 L30.35 11.65 Q30.5 11.9 30.1 12.35 L29.1 13.2 27.75 13.7 26.9 13.55 Q26.7 13.25 27.05 12.8 L28.15 11.9 Z" fill="none" stroke="#000000" stroke-linecap="butt" stroke-linejoin="miter-clip" stroke-miterlimit="3.0" stroke-opacity="0.2" stroke-width="1.0"/>
    <path d="M31.45 21.55 L31.35 20.65 31.55 20.6 31.5 20.85 31.45 21.55" fill="#b44b07" fill-rule="evenodd" stroke="none"/>
    <path d="M36.6 23.25 L36.5 23.55 35.0 22.45 31.5 20.85 31.55 20.6 36.6 23.25" fill="#8f6f48" fill-rule="evenodd" stroke="none"/>
    <path d="M31.35 20.65 L31.75 18.6 Q32.55 17.05 33.9 16.7 35.15 16.3 36.25 17.45 37.45 18.65 37.8 20.6 L37.9 22.75 37.4 24.25 Q36.85 25.75 35.5 26.25 L34.65 26.3 34.7 25.9 Q35.8 25.5 36.25 24.25 L36.5 23.55 36.6 23.25 Q36.7 22.35 36.4 21.45 36.25 20.0 35.25 19.0 34.35 18.15 33.5 18.35 32.4 18.6 31.8 19.85 L31.55 20.6 31.35 20.65" fill="url(#gradient0)" fill-rule="evenodd" stroke="none"/>
    <path d="M31.55 20.6 L31.8 19.85 Q32.4 18.6 33.5 18.35 34.35 18.15 35.25 19.0 36.25 20.0 36.4 21.45 36.7 22.35 36.6 23.25 L31.55 20.6" fill="#6c5537" fill-rule="evenodd" stroke="none"/>
    <path d="M34.7 25.9 L33.3 25.7 33.1 25.55 32.8 25.25 Q31.85 24.3 31.6 22.8 L31.45 21.55 31.5 20.85 31.55 20.6 36.6 23.25 36.5 23.55 36.25 24.25 Q35.8 25.5 34.7 25.9 M31.55 20.6 L31.8 19.85 Q32.4 18.6 33.5 18.35 34.35 18.15 35.25 19.0 36.25 20.0 36.4 21.45 36.7 22.35 36.6 23.25" ffdec:has-small-stroke="true" ffdec:original-stroke-width="0.05" fill="none" stroke="#000000" stroke-linecap="butt" stroke-linejoin="miter-clip" stroke-miterlimit="3.0" stroke-opacity="0.3019608" stroke-width="1.0"/>
    <path d="M22.55 28.35 Q22.25 27.5 23.05 27.4 23.75 27.3 24.95 27.9 27.95 29.25 28.55 31.35 28.95 32.6 27.6 32.9 26.9 33.1 26.3 32.5 L25.85 31.85 Q25.6 31.0 26.8 30.95 26.5 30.3 25.25 29.4 24.5 28.9 23.45 28.8 22.65 28.8 22.55 28.35" fill="#22231b" fill-opacity="0.21960784" fill-rule="evenodd" stroke="none"/>
    <path d="M9.1 43.95 L9.15 43.75 9.4 43.6 10.65 43.65 11.3 43.85 24.6 28.45 25.0 28.7 11.7 44.1 Q12.25 44.4 12.9 44.85 L14.6 46.65 14.85 47.2 14.85 47.9 14.8 48.0 14.8 48.05 14.65 48.2 14.6 47.5 14.35 47.05 Q13.8 46.1 12.6 45.2 L11.4 44.4 10.35 43.95 Q9.55 43.75 9.1 43.95" fill="#ffffff" fill-rule="evenodd" stroke="none"/>
    <path d="M25.0 28.7 L25.85 29.25 27.6 31.1 27.75 31.5 14.85 47.2 14.6 46.65 12.9 44.85 Q12.25 44.4 11.7 44.1 L25.0 28.7 M14.65 48.2 L14.55 48.25 13.35 48.15 11.1 46.95 9.35 45.15 Q8.9 44.35 9.1 43.95 9.55 43.75 10.35 43.95 L11.4 44.4 12.6 45.2 Q13.8 46.1 14.35 47.05 L14.6 47.5 14.65 48.2" fill="#bfbfbf" fill-rule="evenodd" stroke="none"/>
    <path d="M9.4 43.6 L22.45 28.0 23.6 28.05 24.6 28.45 11.3 43.85 10.65 43.65 9.4 43.6 M27.75 31.5 L27.9 32.35 27.85 32.45 14.85 47.9 14.85 47.2 27.75 31.5" fill="#f2f2f2" fill-rule="evenodd" stroke="none"/>
    <path d="M9.1 43.95 L9.15 43.75 9.4 43.6 22.45 28.0 23.6 28.05 24.6 28.45 25.0 28.7 25.85 29.25 27.6 31.1 27.75 31.5 27.9 32.35 27.85 32.45 14.85 47.9 14.8 48.0 14.8 48.05 14.65 48.2 M14.55 48.25 L13.35 48.15 11.1 46.95 9.35 45.15 Q8.9 44.35 9.1 43.95" ffdec:has-small-stroke="true" ffdec:original-stroke-width="0.3" fill="none" stroke="#000000" stroke-linecap="butt" stroke-linejoin="miter-clip" stroke-miterlimit="3.0" stroke-opacity="0.3019608" stroke-width="1.0"/>
    <path d="M12.6 32.8 L12.9 32.45 13.6 32.3 12.6 32.8 M16.65 38.35 L16.25 38.2 15.3 36.25 14.65 35.25 14.35 34.85 Q13.85 34.4 13.0 34.25 L14.65 33.5 Q14.4 33.85 14.45 34.45 L15.0 35.5 16.65 38.35 M14.25 38.0 L14.45 38.3 14.65 38.85 14.25 38.35 12.35 35.8 12.75 36.3 13.95 37.75 14.25 38.0 M11.45 34.65 L11.35 34.15 11.75 34.3 11.45 34.65" fill="#ffffff" fill-rule="evenodd" stroke="none"/>
    <path d="M13.6 32.3 L15.8 32.2 14.65 33.5 13.0 34.25 11.75 34.3 11.35 34.15 12.6 32.75 12.6 32.8 13.6 32.3 M12.75 36.3 L13.75 35.95 14.65 35.25 15.3 36.25 Q14.65 36.25 14.35 36.8 14.1 37.15 13.95 37.75 L12.75 36.3" fill="#f2f2f2" fill-rule="evenodd" stroke="none"/>
    <path d="M16.4 33.2 L16.7 34.05 17.6 35.3 Q16.85 34.75 16.35 35.5 16.0 36.0 16.8 38.4 L16.65 38.35 15.0 35.5 15.75 34.55 16.4 33.2 M16.25 38.2 Q14.65 37.0 14.25 38.0 L13.95 37.75 Q14.1 37.15 14.35 36.8 14.65 36.25 15.3 36.25 L16.25 38.2 M12.35 35.8 L11.45 34.65 11.75 34.3 13.0 34.25 Q13.85 34.4 14.35 34.85 L14.65 35.25 13.75 35.95 12.75 36.3 12.35 35.8" fill="#d8d8d8" fill-rule="evenodd" stroke="none"/>
    <path d="M15.8 32.2 L16.4 33.2 15.75 34.55 15.0 35.5 14.45 34.45 Q14.4 33.85 14.65 33.5 L15.8 32.2 M17.6 35.3 L18.45 36.45 16.8 38.4 Q16.0 36.0 16.35 35.5 16.85 34.75 17.6 35.3" fill="#bfbfbf" fill-rule="evenodd" stroke="none"/>
    <path d="M12.6 32.8 L12.9 32.45 13.6 32.3 15.8 32.2 16.4 33.2 16.7 34.05 17.6 35.3 18.45 36.45 M14.25 38.35 L12.35 35.8 11.45 34.65 11.35 34.15 12.6 32.75" ffdec:has-small-stroke="true" ffdec:original-stroke-width="0.3" fill="none" stroke="#000000" stroke-linecap="butt" stroke-linejoin="miter-clip" stroke-miterlimit="3.0" stroke-opacity="0.3019608" stroke-width="1.0"/>
    <path d="M12.6 32.75 L12.6 32.8" ffdec:has-small-stroke="true" ffdec:original-stroke-width="0.05" fill="none" stroke="#ff0000" stroke-linecap="butt" stroke-linejoin="miter-clip" stroke-miterlimit="3.0" stroke-width="1.0"/>
    <path d="M12.7 35.0 L13.2 36.6 14.85 38.8 Q13.45 37.85 12.55 39.2 12.0 40.2 11.85 41.95 L10.2 39.15 11.65 37.55 12.7 35.0 M13.5 45.9 L13.55 46.0 9.5 45.25 8.25 43.3 Q8.5 42.15 8.95 41.5 9.55 40.5 10.65 40.5 L13.5 45.9 M5.3 39.75 L3.65 37.65 4.15 37.0 6.5 36.95 Q8.05 37.2 9.0 38.0 L9.45 38.75 7.85 40.0 6.05 40.7 5.3 39.75" fill="#d8d8d8" fill-rule="evenodd" stroke="none"/>
    <path d="M11.6 33.2 L12.7 35.0 11.65 37.55 10.2 39.15 9.1 37.25 Q9.0 36.2 9.5 35.5 L11.6 33.2 M14.85 38.8 L16.45 40.9 13.55 45.45 11.85 41.95 Q12.0 40.2 12.55 39.2 13.45 37.85 14.85 38.8" fill="#bfbfbf" fill-rule="evenodd" stroke="none"/>
    <path d="M3.5 36.75 L5.75 34.2 5.8 34.2 7.55 33.4 11.6 33.2 9.5 35.5 Q8.2 36.45 6.5 36.95 L4.15 37.0 3.5 36.75 M9.45 38.75 L10.65 40.5 Q9.55 40.5 8.95 41.5 8.5 42.15 8.25 43.3 L6.05 40.7 7.85 40.0 9.45 38.75" fill="#f2f2f2" fill-rule="evenodd" stroke="none"/>
    <path d="M13.55 45.45 L13.5 45.9 10.65 40.5 9.45 38.75 9.0 38.0 Q8.05 37.2 6.5 36.95 8.2 36.45 9.5 35.5 9.0 36.2 9.1 37.25 L10.2 39.15 11.85 41.95 13.55 45.45 M9.5 45.25 L9.35 45.15 5.3 39.75 6.05 40.7 8.25 43.3 9.5 45.25 M3.65 37.65 L3.5 36.75 4.15 37.0 3.65 37.65 M5.8 34.2 L6.35 33.6 7.55 33.4 5.8 34.2" fill="#ffffff" fill-rule="evenodd" stroke="none"/>
    <path d="M11.6 33.2 L12.7 35.0 13.2 36.6 14.85 38.8 16.45 40.9 M9.35 45.15 L5.3 39.75 3.65 37.65 3.5 36.75 5.75 34.2 M5.8 34.2 L6.35 33.6 7.55 33.4 11.6 33.2" ffdec:has-small-stroke="true" ffdec:original-stroke-width="0.3" fill="none" stroke="#000000" stroke-linecap="butt" stroke-linejoin="miter-clip" stroke-miterlimit="3.0" stroke-opacity="0.3019608" stroke-width="1.0"/>
    <path d="M5.75 34.2 L5.8 34.2" ffdec:has-small-stroke="true" ffdec:original-stroke-width="0.05" fill="none" stroke="#ff0000" stroke-linecap="butt" stroke-linejoin="miter-clip" stroke-miterlimit="3.0" stroke-width="1.0"/>
  </g>
  <defs>
    <linearGradient gradientTransform="matrix(0.0, -0.0039, -0.0043, 7.0E-4, 34.3, 19.55)" gradientUnits="userSpaceOnUse" id="gradient0" spreadMethod="pad" x1="-819.2" x2="819.2">
      <stop offset="0.0" stop-color="#b44b07" stop-opacity="0.0"/>
      <stop offset="1.0" stop-color="#000000" stop-opacity="0.7019608"/>
    </linearGradient>
  </defs>
</svg>
