<?xml version="1.0" encoding="UTF-8" standalone="no"?>
<svg xmlns:ffdec="https://www.free-decompiler.com/flash" xmlns:xlink="http://www.w3.org/1999/xlink" ffdec:objectType="shape" height="10.0px" width="15.0px" xmlns="http://www.w3.org/2000/svg">
  <g transform="matrix(1.0, 0.0, 0.0, 1.0, 0.0, 0.0)">
    <path d="M0.0 10.0 L0.0 0.15 15.0 0.15 15.0 10.0 0.0 10.0" fill="#0000ff" fill-rule="evenodd" stroke="none"/>
    <path d="M15.0 3.55 L15.0 6.5 0.0 6.5 0.0 3.55 15.0 3.55" fill="#ffffff" fill-rule="evenodd" stroke="none"/>
    <path d="M15.0 9.95 L12.0 9.95 0.2 0.1 3.2 0.1 15.0 9.95" fill="#ffffff" fill-rule="evenodd" stroke="none"/>
    <path d="M9.0 9.95 L6.0 9.95 6.0 0.1 9.0 0.1 9.0 9.95" fill="#ffffff" fill-rule="evenodd" stroke="none"/>
    <path d="M0.2 9.95 L12.0 0.1 15.0 0.1 3.2 9.95 0.2 9.95" fill="#ffffff" fill-rule="evenodd" stroke="none"/>
    <path d="M15.0 4.55 L15.0 5.55 0.0 5.55 0.0 4.55 15.0 4.55" fill="#ff0000" fill-rule="evenodd" stroke="none"/>
    <path d="M8.0 0.0 L8.0 9.85 7.0 9.85 7.0 0.0 8.0 0.0" fill="#ff0000" fill-rule="evenodd" stroke="none"/>
    <path d="M2.1 0.0 L13.85 9.85 12.85 9.85 1.1 0.0 2.1 0.0" fill="#ff0000" fill-rule="evenodd" stroke="none"/>
    <path d="M13.1 0.0 L14.1 0.0 2.35 9.85 1.35 9.85 13.1 0.0" fill="#ff0000" fill-rule="evenodd" stroke="none"/>
  </g>
</svg>
