<?xml version="1.0" encoding="UTF-8" standalone="no"?>
<svg xmlns:ffdec="https://www.free-decompiler.com/flash" xmlns:xlink="http://www.w3.org/1999/xlink" ffdec:objectType="shape" height="15.4px" width="15.4px" xmlns="http://www.w3.org/2000/svg">
  <g transform="matrix(1.0, 0.0, 0.0, 1.0, 0.25, 0.25)">
    <path d="M13.1 4.55 L13.2 4.7 11.95 3.0 11.6 2.7 Q10.4 1.65 8.5 1.1 L6.25 1.25 Q4.45 1.6 3.05 2.8 2.95 2.8 2.9 2.9 1.4 4.1 1.2 5.8 1.0 7.45 1.35 8.95 L1.45 9.45 Q1.65 10.35 2.1 10.9 L2.25 11.0 3.05 11.65 Q4.7 12.85 5.8 12.65 9.0 11.5 9.4 8.0 9.75 4.45 11.15 4.1 12.4 3.7 13.1 4.55 M12.2 7.15 L11.9 6.5 11.25 6.2 Q10.8 6.2 10.55 6.5 10.25 6.75 10.25 7.15 10.25 7.5 10.55 7.75 L11.25 8.0 Q11.6 7.9 11.9 7.75 L12.2 7.15 M14.9 7.45 Q14.9 10.5 12.7 12.7 10.5 14.85 7.45 14.9 4.95 14.85 3.05 13.45 L2.2 12.7 Q0.25 10.75 0.05 8.1 L0.0 7.45 0.05 6.75 Q0.25 4.1 2.2 2.2 L3.05 1.45 Q4.95 0.0 7.45 0.0 10.5 0.0 12.7 2.2 14.9 4.35 14.9 7.45 M4.45 6.75 L4.3 6.5 Q4.25 6.2 4.5 5.9 4.75 5.55 5.1 5.6 L5.45 5.95 5.45 6.0 5.45 6.1 5.45 6.15 5.25 6.6 4.7 6.8 4.65 6.8 4.45 6.75" fill="#000000" fill-rule="evenodd" stroke="none"/>
    <path d="M2.25 11.0 L2.1 10.9 Q1.65 10.35 1.45 9.45 L1.35 8.95 Q1.0 7.45 1.2 5.8 1.4 4.1 2.9 2.9 2.95 2.8 3.05 2.8 4.45 1.6 6.25 1.25 L8.5 1.1 Q10.4 1.65 11.6 2.7 L11.95 3.0 13.2 4.7 13.1 4.55 Q11.45 2.4 9.0 3.9 7.55 4.9 7.45 7.9 7.8 9.4 6.25 11.15 4.75 12.55 3.05 11.55 L2.25 11.0 M12.2 7.15 L11.9 7.75 Q11.6 7.9 11.25 8.0 L10.55 7.75 Q10.25 7.5 10.25 7.15 10.25 6.75 10.55 6.5 10.8 6.2 11.25 6.2 L11.9 6.5 12.2 7.15 M5.45 5.95 L5.2 5.45 4.65 5.2 Q4.3 5.2 4.05 5.45 L3.85 6.0 4.05 6.6 4.45 6.75 4.65 6.8 4.7 6.8 5.25 6.6 5.45 6.15 5.45 6.1 5.45 6.0 5.45 5.95" fill="#e3e3e3" fill-rule="evenodd" stroke="none"/>
    <path d="M13.1 4.55 Q12.4 3.7 11.15 4.1 9.75 4.45 9.4 8.0 9.0 11.5 5.8 12.65 4.7 12.85 3.05 11.65 L2.25 11.0 3.05 11.55 Q4.75 12.55 6.25 11.15 7.8 9.4 7.45 7.9 7.55 4.9 9.0 3.9 11.45 2.4 13.1 4.55 M4.45 6.75 L4.05 6.6 3.85 6.0 4.05 5.45 Q4.3 5.2 4.65 5.2 L5.2 5.45 5.45 5.95 5.1 5.6 Q4.75 5.55 4.5 5.9 4.25 6.2 4.3 6.5 L4.45 6.75" fill="#404040" fill-rule="evenodd" stroke="none"/>
    <path d="M14.9 7.45 Q14.9 10.5 12.7 12.7 10.5 14.85 7.45 14.9 4.95 14.85 3.05 13.45 L2.2 12.7 Q0.25 10.75 0.05 8.1 L0.0 7.45 0.05 6.75 Q0.25 4.1 2.2 2.2 L3.05 1.45 Q4.95 0.0 7.45 0.0 10.5 0.0 12.7 2.2 14.9 4.35 14.9 7.45 Z" ffdec:has-small-stroke="true" ffdec:original-stroke-width="0.5" fill="none" stroke="#555555" stroke-linecap="round" stroke-linejoin="bevel" stroke-width="1.0"/>
  </g>
</svg>
