<?xml version="1.0" encoding="UTF-8" standalone="no"?>
<svg xmlns:ffdec="https://www.free-decompiler.com/flash" xmlns:xlink="http://www.w3.org/1999/xlink" ffdec:objectType="shape" height="12.5px" width="12.1px" xmlns="http://www.w3.org/2000/svg">
  <g transform="matrix(1.0, 0.0, 0.0, 1.0, -0.45, -0.3)">
    <path d="M11.65 0.5 L12.0 0.3 12.35 0.4 12.55 0.75 12.45 1.1 7.05 7.95 7.0 12.3 6.85 12.65 6.5 12.8 6.15 12.65 6.0 12.3 6.0 8.0 0.55 1.1 0.45 0.75 0.65 0.4 1.0 0.3 Q1.2 0.35 1.35 0.5 L6.0 6.4 6.0 0.8 6.15 0.45 Q6.3 0.3 6.5 0.3 L6.85 0.45 7.0 0.8 7.0 6.1 7.05 6.3 11.65 0.5" fill="#514a3c" fill-rule="evenodd" stroke="none"/>
  </g>
</svg>
