<?xml version="1.0" encoding="UTF-8" standalone="no"?>
<svg xmlns:ffdec="https://www.free-decompiler.com/flash" xmlns:xlink="http://www.w3.org/1999/xlink" ffdec:objectType="shape" height="14.4px" width="11.0px" xmlns="http://www.w3.org/2000/svg">
  <g transform="matrix(1.0, 0.0, 0.0, 1.0, 0.1, 0.1)">
    <path d="M9.0 0.85 L8.7 1.55 7.0 3.05 5.35 4.1 5.15 3.9 Q8.0 1.15 9.0 0.85" fill="#e9f2f3" fill-rule="evenodd" stroke="none"/>
    <path d="M5.15 3.9 L5.35 4.1 7.0 3.05 8.7 1.55 9.0 0.85 10.8 0.0 4.9 7.9 4.05 8.05 Q3.4 8.2 3.4 8.35 L2.6 7.7 Q3.75 5.65 5.15 3.9" fill="#c4dcdf" fill-rule="evenodd" stroke="none"/>
    <path d="M2.6 7.7 L3.4 8.35 4.9 9.5 4.95 9.5 5.9 10.3 5.85 10.35 8.2 12.0 7.6 12.5 7.55 12.55 4.6 10.25 2.85 8.85 0.5 6.65 0.85 6.1 2.6 7.7" fill="#2d1c15" fill-rule="evenodd" stroke="none"/>
    <path d="M3.4 8.35 Q3.4 8.2 4.05 8.05 L4.9 7.9 Q5.15 8.1 5.1 8.8 L4.95 9.5 4.9 9.5 3.4 8.35" fill="#58382b" fill-rule="evenodd" stroke="none"/>
    <path d="M1.35 11.75 L1.65 11.9 1.7 12.2 1.55 12.5 1.25 12.6 0.95 12.45 0.8 12.1 Q0.85 11.9 1.0 11.85 L1.35 11.75" fill="#cae0e3" fill-rule="evenodd" stroke="none"/>
    <path d="M1.35 11.75 L1.0 11.85 Q0.85 11.9 0.8 12.1 L0.95 12.45 1.25 12.6 1.55 12.5 1.7 12.2 1.65 11.9 1.35 11.75 M2.75 12.75 L2.8 13.1 2.45 13.7 1.7 14.2 0.8 13.75 0.05 12.85 Q-0.05 12.7 0.2 12.2 L0.55 11.6 1.15 11.4 2.75 12.75" fill="#7baaad" fill-rule="evenodd" stroke="none"/>
    <path d="M2.75 12.75 L1.15 11.4 2.85 8.85 4.6 10.25 Q3.45 11.05 2.75 12.75" fill="#3e2717" fill-rule="evenodd" stroke="none"/>
    <path d="M4.9 7.9 L10.8 0.0 9.3 5.3 Q7.95 8.05 5.9 10.3 L4.95 9.5 5.1 8.8 Q5.15 8.1 4.9 7.9" fill="#7eaaaf" fill-rule="evenodd" stroke="none"/>
    <path d="M5.15 3.9 Q3.75 5.65 2.6 7.7 M10.8 0.0 L9.0 0.85 Q8.0 1.15 5.15 3.9 M1.15 11.4 L0.55 11.6 0.2 12.2 Q-0.05 12.7 0.05 12.85 L0.8 13.75 1.7 14.2 2.45 13.7 2.8 13.1 2.75 12.75 M5.85 10.35 L5.9 10.3 Q7.95 8.05 9.3 5.3 L10.8 0.0" ffdec:has-small-stroke="true" ffdec:original-stroke-width="0.25" fill="none" stroke="#213434" stroke-linecap="round" stroke-linejoin="bevel" stroke-opacity="0.6901961" stroke-width="1.0"/>
    <path d="M2.85 8.85 L0.5 6.65 M4.6 10.25 L7.55 12.55 7.6 12.5" ffdec:has-small-stroke="true" ffdec:original-stroke-width="0.1" fill="none" stroke="#000000" stroke-linecap="round" stroke-linejoin="bevel" stroke-opacity="0.6901961" stroke-width="1.0"/>
  </g>
</svg>
