<?xml version="1.0" encoding="UTF-8" standalone="no"?>
<svg xmlns:ffdec="https://www.free-decompiler.com/flash" xmlns:xlink="http://www.w3.org/1999/xlink" ffdec:objectType="shape" height="16.45px" width="16.95px" xmlns="http://www.w3.org/2000/svg">
  <g transform="matrix(1.0, 0.0, 0.0, 1.0, -2.5, -2.45)">
    <path d="M17.2 6.05 L17.35 7.05 Q17.35 8.95 15.5 10.3 L15.35 10.4 19.45 18.9 2.5 18.9 2.9 18.05 2.9 17.95 2.95 17.95 6.55 10.35 6.5 10.3 Q4.6 8.95 4.65 7.05 4.6 6.3 4.9 5.65 5.35 4.65 6.5 3.8 L6.55 3.75 Q8.35 2.45 11.0 2.45 13.6 2.45 15.5 3.8 16.8 4.75 17.2 6.05 M14.55 4.65 Q13.1 3.6 11.05 3.6 9.0 3.6 7.6 4.6 L7.55 4.65 Q6.1 5.7 6.1 7.2 L6.15 7.85 Q6.4 8.9 7.55 9.7 L8.05 10.1 4.55 17.8 17.0 17.8 13.75 10.35 14.55 9.7 Q15.65 8.9 15.9 7.85 L16.0 7.2 Q16.0 5.7 14.55 4.65" fill="#000000" fill-rule="evenodd" stroke="none"/>
    <path d="M14.55 4.65 Q16.0 5.7 16.0 7.2 L15.9 7.85 Q15.65 8.9 14.55 9.7 L13.75 10.35 17.0 17.8 4.55 17.8 8.05 10.1 7.55 9.7 Q6.4 8.9 6.15 7.85 L6.1 7.2 Q6.1 5.7 7.55 4.65 L7.6 4.6 Q9.0 3.6 11.05 3.6 13.1 3.6 14.55 4.65" fill="#993300" fill-rule="evenodd" stroke="none"/>
  </g>
</svg>
