<?xml version="1.0" encoding="UTF-8" standalone="no"?>
<svg xmlns:ffdec="https://www.free-decompiler.com/flash" xmlns:xlink="http://www.w3.org/1999/xlink" ffdec:objectType="shape" height="10.9px" width="10.95px" xmlns="http://www.w3.org/2000/svg">
  <g transform="matrix(1.0, 0.0, 0.0, 1.0, 0.6, 0.6)">
    <path d="M3.4 8.75 L4.95 9.0 5.5 9.0" ffdec:has-small-stroke="true" ffdec:original-stroke-width="0.75" fill="none" stroke="#533c20" stroke-linecap="round" stroke-linejoin="bevel" stroke-width="1.0"/>
    <path d="M8.25 2.15 Q9.0 3.15 9.15 4.4 M1.6 2.2 Q1.05 2.9 0.9 3.75 M5.5 9.0 L7.1 8.4 M2.4 8.15 L3.4 8.75" ffdec:has-small-stroke="true" ffdec:original-stroke-width="0.75" fill="none" stroke="#150f09" stroke-linecap="round" stroke-linejoin="bevel" stroke-width="1.0"/>
    <path d="M4.6 0.6 L4.15 0.65 M3.35 0.9 L2.75 1.2" ffdec:has-small-stroke="true" ffdec:original-stroke-width="0.75" fill="none" stroke="#8f6438" stroke-linecap="round" stroke-linejoin="bevel" stroke-width="1.0"/>
    <path d="M4.15 0.65 L3.35 0.9" ffdec:has-small-stroke="true" ffdec:original-stroke-width="0.75" fill="none" stroke="#ecaa5b" stroke-linecap="round" stroke-linejoin="bevel" stroke-width="1.0"/>
    <path d="M4.85 4.8 L5.1 4.8" fill="none" stroke="#533c20" stroke-linecap="round" stroke-linejoin="bevel" stroke-width="1.75"/>
    <path d="M7.8 7.85 L9.6 9.65 M1.85 1.9 L0.0 0.05" fill="none" stroke="#533c20" stroke-linecap="round" stroke-linejoin="bevel" stroke-width="1.25"/>
    <path d="M7.95 1.85 L7.9 1.8 Q6.7 0.6 4.95 0.6 L4.6 0.6" ffdec:has-small-stroke="true" ffdec:original-stroke-width="0.75" fill="none" stroke="#533c20" stroke-linecap="round" stroke-linejoin="bevel" stroke-width="1.0"/>
    <path d="M7.95 1.85 L9.75 0.0 M1.85 1.9 L3.35 3.4 M2.0 7.8 L3.5 6.3 M2.0 7.8 L0.05 9.7 M7.8 7.85 L6.35 6.4" fill="none" stroke="#533c20" stroke-linecap="round" stroke-linejoin="bevel" stroke-width="1.25"/>
    <path d="M7.95 1.85 L8.25 2.15 M1.85 1.9 L1.6 2.2 M2.0 7.8 L2.4 8.15" ffdec:has-small-stroke="true" ffdec:original-stroke-width="0.75" fill="none" stroke="#533c20" stroke-linecap="round" stroke-linejoin="bevel" stroke-width="1.0"/>
    <path d="M9.15 4.4 L9.15 4.8 Q9.15 6.55 7.9 7.75 L7.8 7.85 7.1 8.4 M2.75 1.2 L1.95 1.8 1.85 1.9 M0.9 3.75 Q0.75 4.25 0.75 4.8 0.75 6.55 1.95 7.75 L2.0 7.8" ffdec:has-small-stroke="true" ffdec:original-stroke-width="0.75" fill="none" stroke="#533c20" stroke-linecap="butt" stroke-linejoin="bevel" stroke-width="1.0"/>
    <path d="M6.45 3.35 L7.95 1.85" fill="none" stroke="#533c20" stroke-linecap="butt" stroke-linejoin="bevel" stroke-width="1.25"/>
  </g>
</svg>
