<?xml version="1.0" encoding="UTF-8" standalone="no"?>
<svg xmlns:ffdec="https://www.free-decompiler.com/flash" xmlns:xlink="http://www.w3.org/1999/xlink" ffdec:objectType="shape" height="13.0px" width="13.0px" xmlns="http://www.w3.org/2000/svg">
  <g transform="matrix(1.0, 0.0, 0.0, 1.0, 0.0, 0.1)">
    <path d="M11.2 2.9 L11.15 2.4 Q10.8 1.95 9.95 2.7 L6.55 5.7 6.1 5.1 8.2 1.7 Q8.65 0.9 8.45 0.6 8.3 0.4 8.2 0.45 L7.8 0.6 7.2 1.3 4.75 4.8 3.75 5.4 3.7 7.35 3.25 7.25 Q3.55 5.6 3.05 4.05 L3.25 3.05 3.0 2.25 Q2.7 1.9 2.2 1.8 L2.1 4.05 1.5 6.45 Q1.35 7.45 1.35 9.0 L0.5 9.75 Q0.8 10.65 1.25 11.25 L2.45 12.35 3.05 11.85 4.25 11.9 Q5.55 11.6 7.1 10.7 L7.9 9.85 11.25 9.35 12.05 9.0 12.25 8.8 12.2 8.55 11.35 8.4 7.85 8.9 7.7 8.2 11.6 6.4 12.3 6.05 12.55 5.7 12.4 5.3 11.15 5.45 7.45 7.1 7.1 6.5 10.85 3.35 11.2 2.9 M11.45 2.1 Q11.75 2.5 11.65 2.95 L11.05 3.8 7.85 6.5 11.25 4.95 Q12.3 4.5 12.75 5.1 L13.0 5.75 12.55 6.35 11.75 6.8 8.5 8.35 11.3 7.95 Q12.15 7.8 12.45 8.2 L12.65 8.85 12.35 9.4 11.35 9.75 8.1 10.25 7.35 11.0 Q5.75 12.05 4.35 12.3 L3.25 12.3 2.5 12.9 Q1.55 12.45 0.9 11.6 0.3 10.8 0.0 9.6 L0.95 8.8 0.95 6.55 1.7 3.95 1.9 1.25 2.1 1.35 Q2.95 1.5 3.3 1.9 L3.65 2.9 3.45 4.1 3.7 4.9 4.45 4.45 6.95 0.9 7.7 0.2 8.25 -0.1 Q8.55 -0.05 8.75 0.25 9.2 0.8 8.4 2.1 L6.55 5.05 9.7 2.35 Q10.85 1.35 11.45 2.1" fill="#3e2d17" fill-rule="evenodd" stroke="none"/>
    <path d="M11.2 2.9 L10.85 3.35 7.1 6.5 7.45 7.1 11.15 5.45 12.4 5.3 12.55 5.7 12.3 6.05 11.6 6.4 7.7 8.2 7.85 8.9 11.35 8.4 12.2 8.55 12.25 8.8 12.05 9.0 11.25 9.35 7.9 9.85 7.1 10.7 Q5.55 11.6 4.25 11.9 L3.05 11.85 2.45 12.35 1.25 11.25 Q0.8 10.65 0.5 9.75 L1.35 9.0 Q1.35 7.45 1.5 6.45 L2.1 4.05 2.2 1.8 Q2.7 1.9 3.0 2.25 L3.25 3.05 3.05 4.05 Q3.55 5.6 3.25 7.25 L3.7 7.35 3.75 5.4 4.75 4.8 7.2 1.3 7.8 0.6 8.2 0.45 Q8.3 0.4 8.45 0.6 8.65 0.9 8.2 1.7 L6.1 5.1 6.55 5.7 9.95 2.7 Q10.8 1.95 11.15 2.4 L11.2 2.9" fill="url(#gradient0)" fill-rule="evenodd" stroke="none"/>
  </g>
  <defs>
    <radialGradient cx="0" cy="0" gradientTransform="matrix(0.0117, 0.0, 0.0, 0.0122, 3.45, 5.6)" gradientUnits="userSpaceOnUse" id="gradient0" r="819.2" spreadMethod="pad">
      <stop offset="0.0" stop-color="#ffcc99"/>
      <stop offset="1.0" stop-color="#c0925f"/>
    </radialGradient>
  </defs>
</svg>
