<?xml version="1.0" encoding="UTF-8" standalone="no"?>
<svg xmlns:ffdec="https://www.free-decompiler.com/flash" xmlns:xlink="http://www.w3.org/1999/xlink" ffdec:objectType="shape" height="6.0px" width="12.0px" xmlns="http://www.w3.org/2000/svg">
  <g transform="matrix(1.0, 0.0, 0.0, 1.0, 1.0, 1.0)">
    <path d="M7.3 -0.7 Q7.6 -1.0 8.0 -1.0 L8.7 -0.7 10.7 1.3 11.0 2.0 10.7 2.7 8.7 4.7 8.0 5.0 Q7.6 5.0 7.3 4.7 7.0 4.4 7.0 4.0 7.0 3.6 7.3 3.3 L7.6 3.0 0.0 3.0 -0.7 2.7 -1.0 2.0 -0.7 1.3 Q-0.4 1.0 0.0 1.0 L7.6 1.0 7.3 0.7 Q7.0 0.4 7.0 0.0 7.0 -0.4 7.3 -0.7" fill="#514a3c" fill-rule="evenodd" stroke="none"/>
  </g>
</svg>
