<?xml version="1.0" encoding="UTF-8" standalone="no"?>
<svg xmlns:ffdec="https://www.free-decompiler.com/flash" xmlns:xlink="http://www.w3.org/1999/xlink" ffdec:objectType="shape" height="10.4px" width="10.35px" xmlns="http://www.w3.org/2000/svg">
  <g transform="matrix(1.0, 0.0, 0.0, 1.0, 5.2, 5.15)">
    <path d="M3.8 -3.5 Q4.4 -2.9 3.8 -2.25 L3.55 -2.0 Q2.9 -1.35 2.3 -2.0 L2.05 -2.25 Q1.4 -2.9 2.05 -3.5 L2.25 -3.75 Q2.9 -4.4 3.55 -3.75 L3.8 -3.5 M1.05 -4.25 L1.05 -3.9 Q1.05 -3.0 0.2 -3.05 L-0.15 -3.05 Q-1.05 -3.05 -1.05 -3.9 L-1.05 -4.25 Q-1.1 -5.15 -0.15 -5.15 L0.2 -5.15 Q1.05 -5.15 1.05 -4.25 M-2.05 -3.5 Q-1.45 -2.9 -2.05 -2.25 L-2.3 -2.0 Q-2.95 -1.4 -3.55 -2.0 L-3.8 -2.25 Q-4.45 -2.9 -3.8 -3.5 L-3.55 -3.8 -2.3 -3.75 -2.05 -3.5 M-3.1 -0.15 L-3.1 0.2 Q-3.1 1.05 -4.0 1.1 L-4.3 1.1 Q-5.2 1.1 -5.2 0.2 L-5.2 -0.15 Q-5.2 -1.05 -4.3 -1.05 L-4.0 -1.05 Q-3.1 -1.05 -3.1 -0.15" fill="#ffffff" fill-opacity="0.15294118" fill-rule="evenodd" stroke="none"/>
    <path d="M3.95 -1.0 L4.25 -1.0 Q5.15 -1.05 5.15 -0.1 L5.15 0.25 Q5.15 1.1 4.25 1.1 L3.95 1.1 Q3.0 1.1 3.05 0.25 L3.05 -0.1 Q3.05 -1.0 3.95 -1.0" fill="#ffffff" fill-opacity="0.2" fill-rule="evenodd" stroke="none"/>
    <path d="M3.75 2.35 Q4.35 2.95 3.75 3.6 L3.5 3.85 Q2.85 4.5 2.25 3.85 L2.0 3.6 Q1.35 2.95 2.0 2.35 L2.25 2.1 Q2.85 1.45 3.5 2.1 L3.75 2.35" fill="#ffffff" fill-opacity="0.3529412" fill-rule="evenodd" stroke="none"/>
    <path d="M0.15 5.2 L-0.2 5.25 Q-1.1 5.2 -1.1 4.35 L-1.1 4.0 Q-1.1 3.1 -0.2 3.1 L0.15 3.1 Q1.0 3.1 1.0 4.0 L1.0 4.35 Q1.05 5.2 0.15 5.2" fill="#ffffff" fill-opacity="0.6" fill-rule="evenodd" stroke="none"/>
    <path d="M-2.1 2.3 Q-1.45 2.95 -2.1 3.6 L-2.3 3.8 Q-2.95 4.45 -3.6 3.8 L-3.85 3.55 Q-4.5 2.95 -3.85 2.3 L-3.6 2.1 -2.35 2.05 -2.1 2.3" fill="#ffffff" fill-opacity="0.8" fill-rule="evenodd" stroke="none"/>
  </g>
</svg>
