<?xml version="1.0" encoding="UTF-8" standalone="no"?>
<svg xmlns:ffdec="https://www.free-decompiler.com/flash" xmlns:xlink="http://www.w3.org/1999/xlink" ffdec:objectType="shape" height="25.0px" width="27.4px" xmlns="http://www.w3.org/2000/svg">
  <g transform="matrix(1.0, 0.0, 0.0, 1.0, 9.75, -2.5)">
    <path d="M1.35 24.35 L1.35 24.25 1.5 23.6 1.35 24.35 M1.6 11.35 L1.55 10.95 1.6 10.6 1.6 11.35" fill="#f2bb00" fill-rule="evenodd" stroke="none"/>
    <path d="M11.15 16.65 L11.15 17.5 10.15 16.5 11.15 16.65 M1.55 17.5 L1.6 13.4 Q1.95 12.8 2.8 12.3 4.3 11.5 6.35 11.5 L7.35 11.55 7.3 13.3 7.15 14.05 Q7.2 15.0 8.3 15.7 L6.35 15.5 Q4.3 15.5 2.8 16.3 1.9 16.85 1.55 17.5" fill="#f2b017" fill-rule="evenodd" stroke="none"/>
    <path d="M16.95 13.2 L17.15 13.95 Q17.15 15.1 15.65 15.9 14.2 16.7 12.15 16.7 L11.15 16.65 10.15 16.5 9.15 16.15 8.6 15.9 8.3 15.7 Q7.2 15.0 7.15 14.05 L7.3 13.3 7.6 12.85 8.6 12.0 8.9 11.9 9.2 11.75 9.3 11.7 9.55 11.6 12.15 11.2 Q14.2 11.2 15.65 12.0 16.6 12.55 16.95 13.2" fill="#fcd963" fill-rule="evenodd" stroke="none"/>
    <path d="M7.35 10.2 L7.85 9.55 Q8.15 9.25 8.6 9.0 L9.35 8.7 Q10.55 8.2 12.15 8.2 14.2 8.2 15.65 9.0 16.6 9.55 16.95 10.2 L16.95 13.2 Q16.6 12.55 15.65 12.0 14.2 11.2 12.15 11.2 L9.55 11.6 9.3 11.7 9.2 11.75 8.9 11.9 8.6 12.0 7.6 12.85 7.3 13.3 7.35 11.55 7.35 10.2 M11.15 20.5 L11.15 23.5 Q10.8 22.85 9.85 22.3 8.4 21.5 6.35 21.5 4.3 21.5 2.8 22.3 1.8 22.9 1.5 23.6 L1.55 20.5 Q1.9 19.85 2.8 19.3 4.3 18.5 6.35 18.5 8.4 18.5 9.85 19.3 10.8 19.85 11.15 20.5 M-9.1 8.1 L-9.05 5.0 Q-8.7 4.35 -7.8 3.8 -6.3 3.0 -4.25 3.0 -2.2 3.0 -0.75 3.8 0.2 4.35 0.55 5.0 L0.55 8.0 Q0.2 7.35 -0.75 6.8 -2.2 6.0 -4.25 6.0 -6.3 6.0 -7.8 6.8 -8.8 7.4 -9.1 8.1" fill="#f4b54d" fill-rule="evenodd" stroke="none"/>
    <path d="M7.35 8.25 L7.35 7.2 Q7.7 6.55 8.6 6.0 10.1 5.2 12.15 5.2 14.2 5.2 15.65 6.0 16.6 6.55 16.95 7.2 L16.95 10.2 Q16.6 9.55 15.65 9.0 14.2 8.2 12.15 8.2 10.55 8.2 9.35 8.7 L8.6 9.0 Q8.15 9.25 7.85 9.55 L7.35 10.2 7.35 8.25 7.35 10.2 7.35 11.55 6.35 11.5 Q4.3 11.5 2.8 12.3 1.95 12.8 1.6 13.4 L1.6 11.35 1.6 10.6 Q1.8 9.7 3.0 9.0 4.5 8.2 6.55 8.2 L7.35 8.25 M11.15 17.5 L11.15 20.5 Q10.8 19.85 9.85 19.3 8.4 18.5 6.35 18.5 4.3 18.5 2.8 19.3 1.9 19.85 1.55 20.5 L1.55 17.5 Q1.9 16.85 2.8 16.3 4.3 15.5 6.35 15.5 L8.3 15.7 8.6 15.9 9.15 16.15 10.15 16.5 11.15 17.5" fill="#f29f17" fill-rule="evenodd" stroke="none"/>
    <path d="M0.55 8.0 L0.75 8.75 Q0.75 9.9 -0.75 10.7 -2.2 11.5 -4.25 11.5 -6.3 11.5 -7.8 10.7 -9.2 9.95 -9.25 8.85 L-9.1 8.1 Q-8.8 7.4 -7.8 6.8 -6.3 6.0 -4.25 6.0 -2.2 6.0 -0.75 6.8 0.2 7.35 0.55 8.0" fill="#fbc853" fill-rule="evenodd" stroke="none"/>
    <path d="M11.15 23.5 L11.35 24.25 Q11.35 25.4 9.85 26.2 8.4 27.0 6.35 27.0 4.3 27.0 2.8 26.2 1.4 25.45 1.35 24.35 L1.5 23.6 Q1.8 22.9 2.8 22.3 4.3 21.5 6.35 21.5 8.4 21.5 9.85 22.3 10.8 22.85 11.15 23.5" fill="#ffecaa" fill-rule="evenodd" stroke="none"/>
    <path d="M11.15 23.5 Q10.8 22.85 9.85 22.3 8.4 21.5 6.35 21.5 4.3 21.5 2.8 22.3 1.8 22.9 1.5 23.6" ffdec:has-small-stroke="true" ffdec:original-stroke-width="0.25" fill="none" stroke="#fdeabd" stroke-linecap="butt" stroke-linejoin="miter-clip" stroke-miterlimit="3.0" stroke-width="1.0"/>
    <path d="M0.55 8.0 L0.75 8.75 Q0.75 9.9 -0.75 10.7 -2.2 11.5 -4.25 11.5 -6.3 11.5 -7.8 10.7 -9.2 9.95 -9.25 8.85 L-9.1 8.1 -9.05 5.0 Q-8.7 4.35 -7.8 3.8 -6.3 3.0 -4.25 3.0 -2.2 3.0 -0.75 3.8 0.2 4.35 0.55 5.0 L0.55 8.0" fill="none" stroke="#a0670a" stroke-linecap="butt" stroke-linejoin="miter-clip" stroke-miterlimit="3.0" stroke-width="1.0"/>
    <path d="M16.95 10.2 L16.95 7.2 Q16.6 6.55 15.65 6.0 14.2 5.2 12.15 5.2 10.1 5.2 8.6 6.0 7.7 6.55 7.35 7.2 L7.35 8.25 7.35 10.2 7.35 11.55 7.3 13.3 7.15 14.05 Q7.2 15.0 8.3 15.7 L8.6 15.9 9.15 16.15 10.15 16.5 11.15 16.65 11.15 17.5 11.15 20.5 11.15 23.5 11.35 24.25 Q11.35 25.4 9.85 26.2 8.4 27.0 6.35 27.0 4.3 27.0 2.8 26.2 1.4 25.45 1.35 24.35 L1.35 24.25 1.5 23.6 1.55 20.5 1.55 17.5 1.6 13.4 1.6 11.35 1.55 10.95 1.6 10.6 Q1.8 9.7 3.0 9.0 4.5 8.2 6.55 8.2 L7.35 8.25 M16.95 10.2 L16.95 13.2 17.15 13.95 Q17.15 15.1 15.65 15.9 14.2 16.7 12.15 16.7 L11.15 16.65 M1.6 10.6 L1.6 11.35 M1.5 23.6 L1.35 24.35" fill="none" stroke="#a0670a" stroke-linecap="butt" stroke-linejoin="miter-clip" stroke-miterlimit="3.0" stroke-width="1.0"/>
    <path d="M7.3 13.3 L7.6 12.85 8.6 12.0 8.9 11.9 9.2 11.75 9.3 11.7 9.55 11.6 12.15 11.2 Q14.2 11.2 15.65 12.0 16.6 12.55 16.95 13.2 M0.55 8.0 Q0.2 7.35 -0.75 6.8 -2.2 6.0 -4.25 6.0 -6.3 6.0 -7.8 6.8 -8.8 7.4 -9.1 8.1" ffdec:has-small-stroke="true" ffdec:original-stroke-width="0.25" fill="none" stroke="#fdeabd" stroke-linecap="butt" stroke-linejoin="miter-clip" stroke-miterlimit="3.0" stroke-width="1.0"/>
  </g>
</svg>
