<?xml version="1.0" encoding="UTF-8" standalone="no"?>
<svg xmlns:ffdec="https://www.free-decompiler.com/flash" xmlns:xlink="http://www.w3.org/1999/xlink" ffdec:objectType="shape" height="12.3px" width="15.2px" xmlns="http://www.w3.org/2000/svg">
  <g transform="matrix(1.0, 0.0, 0.0, 1.0, 0.5, 0.45)">
    <path d="M7.3 -0.45 L7.55 -0.25 14.65 11.1 14.7 11.45 14.55 11.75 14.2 11.85 0.0 11.85 -0.3 11.75 -0.5 11.45 -0.4 11.1 6.7 -0.25 6.95 -0.45 7.3 -0.45 M13.3 10.85 L7.1 0.95 0.9 10.85 13.3 10.85" fill="#000000" fill-rule="evenodd" stroke="none"/>
    <path d="M13.3 10.85 L0.9 10.85 7.1 0.95 13.3 10.85" fill="url(#gradient0)" fill-rule="evenodd" stroke="none"/>
    <path d="M8.0 5.15 L7.65 7.95 6.5 7.95 6.2 5.15 6.2 3.8 8.0 3.8 8.0 5.15 M6.25 9.9 L6.25 8.4 7.95 8.4 7.95 9.9 6.25 9.9" fill="#000000" fill-rule="evenodd" stroke="none"/>
  </g>
  <defs>
    <radialGradient cx="0" cy="0" gradientTransform="matrix(0.0111, 0.0, 0.0, 0.0111, 4.8, 6.55)" gradientUnits="userSpaceOnUse" id="gradient0" r="819.2" spreadMethod="pad">
      <stop offset="0.0" stop-color="#ff9900"/>
      <stop offset="1.0" stop-color="#ffff00"/>
    </radialGradient>
  </defs>
</svg>
