<?xml version="1.0" encoding="UTF-8" standalone="no"?>
<svg xmlns:ffdec="https://www.free-decompiler.com/flash" xmlns:xlink="http://www.w3.org/1999/xlink" ffdec:objectType="shape" height="20.75px" width="14.5px" xmlns="http://www.w3.org/2000/svg">
  <g transform="matrix(1.0, 0.0, 0.0, 1.0, 0.0, 0.0)">
    <path d="M12.3 4.5 Q12.3 6.3 10.75 7.65 L9.3 8.5 Q7.55 9.05 9.15 9.4 L12.3 9.7 Q14.5 10.05 14.5 10.6 14.5 11.1 12.3 11.5 L9.1 11.8 Q9.35 13.9 10.35 16.4 13.5 23.9 7.9 18.4 L7.25 18.0 Q6.9 18.05 6.6 18.4 1.0 23.9 4.15 16.4 5.15 13.9 5.4 11.8 L2.2 11.5 Q0.0 11.1 0.0 10.6 0.0 10.05 2.2 9.7 L5.4 9.4 Q6.95 9.05 5.2 8.5 4.4 8.15 3.75 7.65 2.2 6.3 2.2 4.5 2.2 2.65 3.75 1.35 5.2 0.1 7.25 0.0 9.3 0.1 10.75 1.35 12.3 2.65 12.3 4.5" fill="#ebe3cb" fill-rule="evenodd" stroke="none"/>
  </g>
</svg>
