<?xml version="1.0" encoding="UTF-8" standalone="no"?>
<svg xmlns:ffdec="https://www.free-decompiler.com/flash" xmlns:xlink="http://www.w3.org/1999/xlink" ffdec:objectType="shape" height="20.95px" width="24.45px" xmlns="http://www.w3.org/2000/svg">
  <g transform="matrix(1.0, 0.0, 0.0, 1.0, 0.0, 0.0)">
    <path d="M14.85 11.4 Q13.8 11.15 12.9 11.65 12.1 12.2 11.8 13.2 11.6 14.2 12.1 15.1 12.65 15.9 13.65 16.2 14.65 16.4 15.55 15.9 16.4 15.3 16.6 14.35 16.85 13.3 16.25 12.45 15.8 11.6 14.85 11.4 M18.1 11.15 L18.2 11.35 20.15 11.25 18.75 12.55 Q19.05 13.8 18.8 15.05 18.5 16.35 17.65 17.3 L19.1 20.95 16.55 18.25 Q14.8 19.3 12.8 18.85 10.8 18.35 9.75 16.65 9.05 15.5 8.95 14.3 7.75 12.4 4.95 11.55 L9.7 11.4 Q10.3 10.4 11.35 9.75 13.1 8.75 15.1 9.15 16.95 9.5 18.1 11.15" fill="#ffffff" fill-opacity="0.3019608" fill-rule="evenodd" stroke="none"/>
    <path d="M14.85 11.4 Q15.8 11.6 16.25 12.45 16.85 13.3 16.6 14.35 16.4 15.3 15.55 15.9 14.65 16.4 13.65 16.2 12.65 15.9 12.1 15.1 11.6 14.2 11.8 13.2 12.1 12.2 12.9 11.65 13.8 11.15 14.85 11.4" fill="#ffffff" fill-rule="evenodd" stroke="none"/>
    <path d="M0.0 0.0 L14.25 12.25 24.45 5.95 15.4 13.55 18.1 17.55 13.35 14.65 7.05 18.5 12.75 13.55 0.0 0.0" fill="#ffffff" fill-rule="evenodd" stroke="none"/>
  </g>
</svg>
