<?xml version="1.0" encoding="UTF-8" standalone="no"?>
<svg xmlns:ffdec="https://www.free-decompiler.com/flash" xmlns:xlink="http://www.w3.org/1999/xlink" ffdec:objectType="shape" height="25.45px" width="19.7px" xmlns="http://www.w3.org/2000/svg">
  <g transform="matrix(1.0, 0.0, 0.0, 1.0, 6.85, 16.8)">
    <path d="M8.4 -11.25 L7.7 -12.05 9.4 -12.8 11.55 -13.65 12.35 -12.95 12.35 -12.9 8.4 -11.25 M0.85 -3.6 L0.75 -3.9 1.55 -4.25 2.2 -2.8 1.65 -2.6 1.5 -2.65 1.45 -2.6 1.4 -2.5 1.3 -2.45 1.1 -1.85 0.85 -3.6 M2.2 3.3 L2.9 3.05 3.35 4.5 2.6 4.8 2.2 3.3" fill="#cd9332" fill-rule="evenodd" stroke="none"/>
    <path d="M-6.35 -9.65 L-6.35 -9.85 -5.75 -11.5 -4.6 -12.4 -3.1 -12.4 6.2 -16.3 7.0 -15.75 7.15 -14.75 9.4 -12.95 11.55 -13.85 12.35 -13.05 12.35 -12.95 11.55 -13.65 9.4 -12.8 8.85 -13.25 6.65 -15.0 6.55 -15.4 -2.4 -11.35 Q-3.45 -11.6 -4.05 -11.35 L-4.95 -10.25 Q-5.15 -9.5 -4.95 -8.75 L-4.1 -7.3 -4.0 -7.2 Q-2.8 -6.45 -1.25 -6.4 -0.5 -6.55 -0.25 -7.05 -0.25 -7.65 -0.6 -8.2 L-1.0 -8.7 -0.5 -8.7 -0.4 -8.7 0.9 -9.25 0.95 -9.25 7.7 -12.05 8.4 -11.25 Q9.45 -7.2 12.1 -7.25 L11.8 -0.7 Q9.2 1.1 9.4 4.1 L4.2 5.75 9.4 4.1 11.6 3.4 11.65 3.05 11.6 3.6 4.2 5.9 4.2 5.75 4.15 5.55 4.1 5.5 4.3 5.4 5.6 5.1 6.9 2.05 7.35 1.3 3.9 1.3 4.25 2.5 3.45 2.8 2.5 -2.0 Q2.85 -2.1 3.2 -2.3 L3.25 -2.3 3.65 -1.9 Q4.5 -2.3 4.95 -3.25 L5.8 -5.05 5.95 -5.45 6.45 -6.2 2.75 -6.2 3.1 -4.9 1.9 -4.4 1.85 -4.5 Q1.7 -5.35 1.8 -6.3 L1.95 -8.3 1.95 -8.45 1.8 -8.5 0.45 -7.95 0.4 -7.85 0.7 -7.3 0.7 -6.95 0.75 -6.75 0.7 -6.7 Q0.5 -6.2 -0.1 -5.8 L-0.4 -5.65 -2.95 -5.7 -5.5 -7.55 -5.5 -7.75 Q-6.2 -8.7 -6.35 -9.65 -6.2 -8.7 -5.5 -7.75 L-5.5 -7.55 Q-6.25 -8.65 -6.35 -9.65 M-4.15 -3.5 Q-3.1 -2.6 -1.6 -2.6 L-0.25 -2.9 0.85 -3.6 1.1 -1.85 1.3 -2.45 1.3 -2.35 Q1.05 -1.85 1.15 -1.25 L1.2 -1.25 Q1.55 -0.45 1.4 0.4 L1.9 3.15 1.0 3.7 -0.6 4.3 -0.95 4.3 -2.35 4.15 -2.35 4.0 -3.05 1.5 -3.0 1.5 -2.55 1.55 -2.45 1.6 -2.75 1.4 -2.95 1.2 -2.8 0.45 -3.35 0.25 -3.4 0.05 -4.05 -1.1 -4.3 -1.8 -4.4 -2.45 -4.3 -1.8 -4.05 -1.1 -3.4 0.05 -3.35 0.25 -3.4 0.2 -4.05 -0.95 -4.3 -1.8 -4.4 -2.25 -4.4 -2.45 -4.15 -3.5 M-1.25 7.4 L-0.6 7.45 0.8 7.05 2.15 6.25 2.75 5.65 2.8 5.55 3.0 6.35 3.05 6.45 2.5 7.45 1.75 8.15 Q0.4 8.6 -0.7 8.15 L-1.4 7.35 -1.25 7.4 -0.7 7.95 Q0.4 8.4 1.75 7.95 L2.45 7.3 3.0 6.35 2.45 7.3 1.75 7.95 Q0.4 8.4 -0.7 7.95 L-1.25 7.4 M-2.35 4.0 L-2.35 3.95 -3.0 1.5 -2.35 3.95 -2.35 4.0" fill="#784b01" fill-rule="evenodd" stroke="none"/>
    <path d="M7.7 -12.05 L0.95 -9.25 0.9 -9.25 -0.4 -8.7 -0.5 -8.7 -0.5 -8.75 -0.6 -9.2 Q-1.15 -9.35 -1.25 -9.75 L-1.4 -10.0 Q-0.7 -10.3 0.1 -10.75 L-1.05 -9.95 Q2.15 -11.05 5.15 -12.55 L6.55 -13.2 2.9 -10.75 5.2 -11.45 8.85 -13.25 9.4 -12.8 7.7 -12.05 M-0.6 -8.2 Q-0.25 -7.65 -0.25 -7.05 -0.5 -6.55 -1.25 -6.4 -2.8 -6.45 -4.0 -7.2 L-4.1 -7.3 -4.55 -8.45 Q-4.8 -9.15 -4.65 -9.85 L-4.3 -10.4 -2.35 -10.95 -2.3 -10.95 -2.3 -10.9 -2.35 -10.9 Q-4.45 -9.75 -3.1 -7.8 -2.75 -7.25 -2.15 -7.2 -1.55 -7.15 -0.95 -7.6 L-0.6 -8.2" fill="#ffc88a" fill-rule="evenodd" stroke="none"/>
    <path d="M-0.5 -8.7 L-1.0 -8.7 -0.6 -8.2 -0.95 -7.6 Q-1.55 -7.15 -2.15 -7.2 -2.75 -7.25 -3.1 -7.8 -4.45 -9.75 -2.35 -10.9 L-2.3 -10.9 -2.1 -10.85 6.65 -15.0 8.85 -13.25 5.2 -11.45 2.9 -10.75 6.55 -13.2 5.15 -12.55 Q2.15 -11.05 -1.05 -9.95 L0.1 -10.75 Q-0.7 -10.3 -1.4 -10.0 L-1.25 -9.75 Q-1.15 -9.35 -0.6 -9.2 L-0.5 -8.75 -0.5 -8.7 M-2.35 -10.95 L-4.3 -10.4 -3.8 -10.9 -2.35 -10.95" fill="#ffeac8" fill-rule="evenodd" stroke="none"/>
    <path d="M0.75 -6.75 L0.7 -6.95 0.7 -7.3 0.4 -7.85 0.45 -7.95 1.8 -8.5 1.95 -8.45 1.95 -8.3 1.8 -6.3 Q1.7 -5.35 1.85 -4.5 L1.9 -4.4 1.55 -4.25 0.75 -3.9 0.85 -3.6 -0.25 -2.9 -1.6 -2.6 Q-3.1 -2.6 -4.15 -3.5 L-4.2 -3.65 -4.35 -4.35 -4.2 -3.65 -4.4 -4.35 -4.35 -4.35 -3.55 -3.75 -1.95 -3.35 -0.3 -3.6 0.3 -3.9 0.65 -4.2 1.0 -4.9 0.75 -6.75 M5.95 -5.45 L5.8 -5.05 4.95 -3.25 Q4.5 -2.3 3.65 -1.9 L3.25 -2.3 3.2 -2.3 Q2.85 -2.1 2.5 -2.0 L3.45 2.8 2.9 3.05 2.2 3.3 2.15 3.05 1.9 3.15 1.4 0.4 Q1.55 -0.45 1.2 -1.25 L1.15 -1.25 Q1.05 -1.85 1.3 -2.35 L1.3 -2.45 1.4 -2.5 1.45 -2.6 1.5 -2.65 1.65 -2.6 2.2 -2.8 3.65 -3.35 4.0 -2.4 5.95 -5.45 M6.9 2.05 L5.6 5.1 4.3 5.4 4.1 5.5 4.15 5.55 4.2 5.75 3.1 6.05 3.05 6.3 3.0 6.35 3.05 6.3 3.1 6.05 4.2 5.75 4.2 5.9 3.1 6.25 3.05 6.45 3.0 6.35 2.8 5.55 2.75 5.65 2.15 6.25 0.8 7.05 -0.6 7.45 -1.25 7.4 -1.4 7.15 -1.7 6.45 -1.4 7.15 -1.25 7.4 -1.4 7.35 -1.75 6.45 -1.7 6.45 0.0 6.65 Q1.05 6.4 2.0 5.8 L2.75 5.3 2.6 4.8 3.35 4.5 4.8 3.9 5.1 4.8 6.9 2.05 M-4.1 -7.3 L-4.95 -8.75 Q-5.15 -9.5 -4.95 -10.25 L-4.05 -11.35 Q-3.45 -11.6 -2.4 -11.35 L6.55 -15.4 6.65 -15.0 -2.1 -10.85 -2.3 -10.9 -2.3 -10.95 -2.35 -10.95 -3.8 -10.9 -4.3 -10.4 -4.65 -9.85 Q-4.8 -9.15 -4.55 -8.45 L-4.1 -7.3 M-3.05 1.5 L-3.4 0.2 -3.35 0.25 -2.8 0.45 -2.95 1.2 -2.75 1.4 -2.45 1.6 -2.55 1.55 -3.0 1.5 -3.35 0.25 -3.0 1.5 -3.05 1.5" fill="#583701" fill-rule="evenodd" stroke="none"/>
    <path d="M-5.5 -7.55 L-2.95 -5.7 -0.4 -5.65 -0.1 -5.8 Q0.5 -6.2 0.7 -6.7 L0.75 -6.75 1.0 -4.9 0.65 -4.2 0.3 -3.9 -0.3 -3.6 -1.95 -3.35 -3.55 -3.75 -4.35 -4.35 -4.4 -4.35 -5.25 -4.95 -5.25 -5.15 -5.25 -5.55 -5.35 -6.65 -5.5 -7.55 M1.9 -4.4 L3.1 -4.9 2.75 -6.2 6.45 -6.2 5.95 -5.45 4.0 -2.4 3.65 -3.35 2.2 -2.8 1.55 -4.25 1.9 -4.4 M3.45 2.8 L4.25 2.5 3.9 1.3 7.35 1.3 6.9 2.05 5.1 4.8 4.8 3.9 3.35 4.5 2.9 3.05 3.45 2.8 M9.4 4.1 Q9.2 1.1 11.8 -0.7 L11.65 3.05 11.6 3.4 9.4 4.1 M12.1 -7.25 Q9.45 -7.2 8.4 -11.25 L12.35 -12.9 12.1 -7.25 M1.9 3.15 L2.15 3.05 2.2 3.3 2.6 4.8 2.75 5.3 2.0 5.8 Q1.05 6.4 0.0 6.65 L-1.7 6.45 -1.75 6.25 -2.25 5.25 -2.35 4.65 -2.25 5.25 -1.75 6.25 -1.7 6.45 -1.75 6.45 -2.25 5.4 -2.35 4.65 -2.35 4.15 -0.95 4.3 -0.6 4.3 1.0 3.7 1.9 3.15 M-5.25 -5.55 L-5.25 -5.75 -5.35 -6.65 -5.25 -5.75 -5.25 -5.55 M-4.35 -4.35 L-4.4 -4.55 -5.25 -5.15 -4.4 -4.55 -4.35 -4.35" fill="#ffcc00" fill-rule="evenodd" stroke="none"/>
    <path d="M12.35 -12.95 L12.35 -13.05 11.55 -13.85 9.4 -12.95 7.15 -14.75 7.0 -15.75 6.2 -16.3 -3.1 -12.4 -4.6 -12.4 -5.75 -11.5 -6.35 -9.85 -6.35 -9.65 Q-6.2 -8.7 -5.5 -7.75 L-5.5 -7.55 -5.35 -6.65 -5.25 -5.75 -5.25 -5.55 -5.25 -5.15 -4.4 -4.55 -4.35 -4.35 -4.2 -3.65 -4.4 -2.45 -4.3 -1.8 -4.05 -1.1 -3.4 0.05 -3.35 0.25 -3.0 1.5 -2.35 3.95 -2.35 4.0 -2.35 4.15 M4.2 5.75 L9.4 4.1 11.6 3.4 11.65 3.05 11.8 -0.7 12.1 -7.25 12.35 -12.9 12.35 -12.95 M-1.7 6.45 L-1.4 7.15 -1.25 7.4 -0.7 7.95 Q0.4 8.4 1.75 7.95 L2.45 7.3 3.0 6.35 3.05 6.3 3.1 6.05 4.2 5.75 M-2.35 4.65 L-2.25 5.25 -1.75 6.25 -1.7 6.45" fill="none" stroke="#663300" stroke-linecap="round" stroke-linejoin="bevel" stroke-width="1.0"/>
  </g>
</svg>
