<?xml version="1.0" encoding="UTF-8" standalone="no"?>
<svg xmlns:ffdec="https://www.free-decompiler.com/flash" xmlns:xlink="http://www.w3.org/1999/xlink" ffdec:objectType="shape" height="32.0px" width="26.0px" xmlns="http://www.w3.org/2000/svg">
  <g transform="matrix(1.0, 0.0, 0.0, 1.0, 0.0, 0.0)">
    <path d="M26.0 0.0 L26.0 32.0 0.0 32.0 0.0 0.0 26.0 0.0" fill="#ffffff" fill-opacity="0.0" fill-rule="evenodd" stroke="none"/>
    <path d="M20.5 10.35 L20.45 10.65 20.45 10.85 20.9 11.05 21.05 11.2 21.3 11.5 Q21.75 12.65 21.8 13.95 L21.8 14.35 21.55 14.95 21.45 15.05 21.2 15.3 20.9 15.4 20.9 16.0 Q21.25 16.0 21.5 16.3 L21.6 16.4 21.8 16.65 21.85 16.85 21.95 17.4 21.6 19.7 21.35 20.2 21.05 20.45 Q20.8 20.75 20.45 20.75 L20.05 20.75 20.3 20.95 20.4 21.1 20.65 21.7 20.65 21.9 20.55 22.3 20.5 22.5 20.45 22.6 19.25 24.45 19.1 24.55 19.05 24.65 18.4 24.9 18.2 24.9 18.1 25.4 18.05 25.6 17.7 26.0 15.95 27.0 15.55 27.1 15.25 27.05 14.4 27.1 14.3 27.1 13.8 27.25 13.75 27.3 13.65 27.35 13.6 27.35 10.2 27.15 9.8 27.1 9.55 26.75 9.45 26.65 9.25 26.35 8.95 26.35 8.55 26.25 8.4 26.2 8.25 26.15 7.75 25.75 7.6 25.55 7.05 24.85 6.9 24.7 6.6 24.05 6.6 24.0 6.55 23.65 6.75 23.2 6.85 23.05 6.45 23.05 6.0 22.9 5.6 22.55 5.6 22.35 5.55 22.25 5.0 20.05 4.95 19.9 5.0 19.6 5.0 19.55 Q5.0 19.2 5.25 18.95 L5.4 18.85 5.65 18.65 6.0 18.55 5.95 17.65 5.8 17.65 5.25 17.35 5.15 17.2 4.95 17.0 4.9 16.8 4.8 16.35 4.95 15.1 5.0 14.95 5.2 13.95 Q5.25 13.15 5.8 13.05 L6.2 12.95 6.65 12.95 6.5 12.8 6.25 12.55 6.2 12.4 6.1 12.25 Q5.85 11.8 6.3 11.15 L6.25 11.15 7.4 9.35 Q7.55 9.1 7.8 9.05 L8.0 8.95 8.4 8.85 8.8 8.85 8.8 8.35 8.95 8.0 Q9.0 7.7 9.3 7.5 10.15 6.85 11.25 6.55 L11.45 6.5 12.65 6.5 12.8 6.4 13.25 6.3 14.7 6.35 15.15 6.35 16.85 6.6 17.35 6.85 17.45 7.1 17.7 7.65 17.75 7.75 18.3 7.75 18.65 7.85 19.0 8.1 20.25 9.55 20.45 10.15 20.5 10.35 M20.45 19.85 L20.7 19.55 21.05 17.25 20.95 17.05 20.9 16.9 20.0 16.85 19.95 14.8 20.85 14.45 20.9 14.35 20.9 14.0 Q20.85 12.85 20.45 11.8 L20.3 11.7 20.1 11.7 18.95 11.7 18.85 11.5 19.55 10.6 19.6 10.35 19.55 10.15 18.3 8.65 18.05 8.65 16.65 8.65 16.85 7.95 16.85 7.75 16.8 7.65 16.65 7.55 16.65 7.45 15.0 7.2 15.0 7.25 14.75 7.25 13.25 7.2 13.1 7.35 13.2 7.4 13.1 7.5 Q12.35 7.75 11.7 8.2 L11.6 8.2 11.45 8.55 9.7 8.6 9.7 8.65 10.05 9.75 8.4 9.75 8.2 9.85 7.0 11.65 6.95 11.85 6.95 11.9 7.0 11.95 7.05 12.15 7.8 12.75 7.35 13.85 6.2 13.85 6.1 14.05 5.7 16.4 5.75 16.6 5.9 16.75 6.8 16.75 6.9 19.1 6.05 19.45 5.9 19.55 5.9 19.6 5.85 19.9 6.4 21.95 6.45 22.15 7.85 22.15 8.2 22.6 7.45 23.7 7.5 23.85 7.5 24.05 7.8 24.35 8.3 25.0 8.8 25.4 8.95 25.45 10.2 25.45 10.1 25.75 10.1 26.05 10.25 26.25 13.1 26.45 13.65 26.45 13.75 26.4 13.8 26.35 13.9 26.2 15.4 26.15 15.5 26.2 17.25 25.2 17.3 25.0 16.95 24.0 18.35 24.0 18.4 24.0 18.6 23.85 19.7 22.1 19.75 21.9 19.75 21.7 18.9 20.85 19.35 19.85 20.45 19.85 M13.1 7.4 L11.45 7.4 Q10.55 7.7 9.8 8.2 L9.65 8.6 9.7 8.6 9.65 8.6 9.8 8.2 Q10.55 7.7 11.45 7.4 L13.1 7.4 M13.25 13.15 L14.05 13.95 Q14.9 15.25 14.9 17.05 L14.85 17.85 14.65 18.6 14.5 19.25 14.05 20.05 13.05 20.85 12.3 20.05 Q11.45 18.8 11.45 17.1 L11.45 16.9 11.6 15.75 Q11.8 14.8 12.3 14.05 12.7 13.45 13.2 13.15 L13.25 13.15 M13.25 14.45 L13.2 14.25 13.05 14.5 13.05 14.45 Q12.35 15.45 12.35 16.9 L12.35 17.05 Q12.35 18.45 13.0 19.45 L13.2 19.65 13.3 19.55 13.65 19.0 13.95 17.7 14.0 17.05 14.0 16.95 Q14.0 15.5 13.3 14.45 L13.25 14.45" fill="#000000" fill-rule="evenodd" stroke="none"/>
    <path d="M20.1 11.7 L20.3 11.7 20.45 11.8 Q20.85 12.85 20.9 14.0 L20.9 14.35 20.85 14.45 19.95 14.8 20.0 16.85 20.9 16.9 20.95 17.05 21.05 17.25 20.7 19.55 20.45 19.85 19.55 19.4 19.35 19.85 18.9 20.85 19.75 21.7 19.75 21.9 19.7 22.1 18.6 23.85 18.4 24.0 18.35 24.0 18.2 23.95 17.65 22.95 17.0 23.45 16.85 23.6 16.85 23.75 16.95 24.0 17.3 25.0 17.25 25.2 15.5 26.2 15.4 26.15 15.25 25.9 15.1 24.65 14.25 24.85 14.0 24.85 13.9 26.15 13.9 26.2 13.8 26.35 13.75 26.4 13.65 26.45 13.1 26.45 12.15 26.25 11.95 26.25 11.9 26.05 11.85 26.05 11.85 25.75 12.2 24.6 11.35 24.1 11.2 24.6 10.8 25.4 10.7 25.45 10.6 25.45 10.55 25.4 10.3 25.2 9.6 24.35 9.35 24.2 9.25 24.05 9.25 24.0 9.2 23.85 9.2 23.7 10.0 22.6 9.25 21.4 9.2 21.4 8.45 22.15 8.2 22.15 8.15 21.95 7.6 19.9 7.65 19.6 7.65 19.55 7.75 19.45 8.65 19.1 8.5 16.75 7.7 16.75 7.55 16.7 7.45 16.6 7.4 16.4 7.85 14.05 7.95 13.85 8.15 13.85 9.0 14.25 9.6 12.75 8.8 12.15 8.75 11.95 8.75 11.9 8.75 11.65 9.35 10.6 9.95 9.85 10.05 9.75 10.1 9.75 10.25 9.8 10.3 9.85 10.85 10.7 11.8 9.8 11.5 8.65 11.45 8.55 11.6 8.2 11.7 8.2 Q12.35 7.75 13.1 7.5 L13.2 7.4 13.25 7.4 13.35 7.45 13.5 7.7 13.65 8.7 13.65 8.9 14.15 8.75 14.25 8.75 14.5 8.7 14.7 8.7 14.75 7.5 14.8 7.45 14.9 7.35 15.0 7.25 15.0 7.2 16.65 7.45 16.65 7.55 16.8 7.65 16.85 7.75 16.85 7.95 16.65 8.65 16.5 9.1 17.5 9.8 18.05 8.75 18.05 8.65 18.3 8.65 19.55 10.15 19.6 10.35 19.55 10.6 18.85 11.5 18.95 11.7 19.3 12.35 20.1 11.7 M20.7 14.1 L20.7 14.05 20.25 12.1 19.5 12.7 19.2 12.7 19.1 12.55 18.65 11.65 18.6 11.4 18.65 11.25 19.35 10.45 19.35 10.35 18.25 9.05 17.75 10.0 17.6 10.15 17.35 10.15 16.4 9.5 16.25 9.3 16.25 9.05 16.55 7.95 16.55 7.85 16.45 7.75 15.15 7.55 15.05 7.55 15.05 8.75 14.95 9.05 14.7 9.1 14.25 9.1 13.7 9.25 13.55 9.2 13.4 9.1 13.35 8.9 13.35 8.8 13.25 7.8 13.2 7.85 11.9 8.5 11.8 8.6 12.1 9.7 12.1 10.0 10.95 11.1 10.8 11.1 10.65 10.95 10.1 10.15 10.1 10.25 10.05 10.25 9.6 10.85 9.05 11.85 9.75 12.5 9.85 12.7 9.85 13.0 9.25 14.4 9.15 14.55 8.9 14.55 8.15 14.25 7.8 15.75 7.75 16.4 8.6 16.45 8.75 16.55 8.8 16.75 8.95 19.0 8.9 19.3 8.75 19.45 7.85 19.9 8.4 21.75 9.05 21.15 9.2 21.1 9.3 21.1 9.45 21.15 10.3 22.65 10.2 22.9 9.55 23.85 9.6 23.95 9.65 23.95 10.7 25.1 11.0 24.4 11.1 23.95 11.4 23.75 12.3 24.3 12.4 24.45 12.45 24.7 12.15 25.85 12.15 25.9 12.25 25.95 13.1 26.15 13.65 26.15 13.7 24.85 13.8 24.6 14.0 24.5 14.25 24.5 15.05 24.35 15.35 24.45 15.4 24.65 15.5 25.8 17.0 24.95 16.6 23.8 16.6 23.65 16.65 23.5 16.9 23.2 17.6 22.6 17.75 22.6 17.85 22.7 18.4 23.55 18.65 23.3 18.85 22.9 18.9 22.9 19.5 21.95 19.5 21.85 18.75 21.2 18.65 21.0 18.7 20.75 19.3 19.35 19.45 19.1 19.6 19.1 20.45 19.45 20.8 17.25 20.0 17.2 19.8 17.15 19.75 16.9 19.65 14.9 19.7 14.6 Q19.75 14.5 19.85 14.5 L20.7 14.1 M15.25 21.05 L14.25 21.3 13.65 21.2 14.25 21.25 15.25 21.05" fill="#999999" fill-rule="evenodd" stroke="none"/>
    <path d="M20.7 14.1 L19.85 14.5 Q19.75 14.5 19.7 14.6 L19.65 14.9 19.75 16.9 19.8 17.15 20.0 17.2 20.8 17.25 20.45 19.45 19.6 19.1 19.45 19.1 19.3 19.35 18.7 20.75 18.65 21.0 18.75 21.2 19.5 21.85 19.5 21.95 18.9 22.9 18.85 22.9 18.65 23.3 18.4 23.55 17.85 22.7 17.75 22.6 17.6 22.6 16.9 23.2 16.65 23.5 16.6 23.65 16.6 23.8 17.0 24.95 15.5 25.8 15.4 24.65 15.35 24.45 15.05 24.35 14.25 24.5 14.0 24.5 13.8 24.6 13.7 24.85 13.65 26.15 13.1 26.15 12.25 25.95 12.15 25.9 12.15 25.85 12.45 24.7 12.4 24.45 12.3 24.3 11.4 23.75 11.1 23.95 11.0 24.4 10.7 25.1 9.65 23.95 9.6 23.95 9.55 23.85 10.2 22.9 10.3 22.65 9.45 21.15 9.3 21.1 9.2 21.1 9.05 21.15 8.4 21.75 7.85 19.9 8.75 19.45 8.9 19.3 8.95 19.0 8.8 16.75 8.75 16.55 8.6 16.45 7.75 16.4 7.8 15.75 8.15 14.25 8.9 14.55 9.15 14.55 9.25 14.4 9.85 13.0 9.85 12.7 9.75 12.5 9.05 11.85 9.6 10.85 10.05 10.25 10.1 10.25 10.1 10.15 10.65 10.95 10.8 11.1 10.95 11.1 12.1 10.0 12.1 9.7 11.8 8.6 11.9 8.5 13.2 7.85 13.25 7.8 13.35 8.8 13.35 8.9 13.4 9.1 13.55 9.2 13.7 9.25 14.25 9.1 14.7 9.1 14.95 9.05 15.05 8.75 15.05 7.55 15.15 7.55 16.45 7.75 16.55 7.85 16.55 7.95 16.25 9.05 16.25 9.3 16.4 9.5 17.35 10.15 17.6 10.15 17.75 10.0 18.25 9.05 19.35 10.35 19.35 10.45 18.65 11.25 18.6 11.4 18.65 11.65 19.1 12.55 19.2 12.7 19.5 12.7 20.25 12.1 20.7 14.05 20.7 14.1 M17.0 17.85 L17.05 17.1 Q17.05 15.75 16.6 14.7 L16.25 14.05 15.85 13.55 Q15.15 12.8 14.25 12.8 L13.25 13.15 13.2 13.15 Q12.7 13.45 12.3 14.05 11.8 14.8 11.6 15.75 L11.45 16.9 11.45 17.1 Q11.45 18.8 12.3 20.05 L13.05 20.85 13.2 21.0 13.65 21.2 14.25 21.3 15.25 21.05 15.55 20.85 15.85 20.6 16.2 20.2 16.7 19.25 16.85 18.6 17.0 17.9 17.0 17.85" fill="url(#gradient0)" fill-rule="evenodd" stroke="none"/>
    <path d="M20.1 11.7 L19.3 12.35 18.95 11.7 20.1 11.7 M15.0 7.25 L14.9 7.35 14.8 7.45 14.75 7.5 14.75 7.25 15.0 7.25" fill="#bbbbbb" fill-rule="evenodd" stroke="none"/>
    <path d="M14.75 7.5 L14.7 8.7 14.5 8.7 13.65 8.7 13.5 7.7 13.35 7.45 13.25 7.4 13.2 7.4 13.1 7.35 13.25 7.2 14.75 7.25 14.75 7.5" fill="#6a6a6a" fill-rule="evenodd" stroke="none"/>
    <path d="M14.5 8.7 L14.25 8.75 14.15 8.75 13.65 8.9 13.65 8.7 14.5 8.7 M11.8 9.8 L10.85 10.7 10.3 9.85 10.25 9.8 11.8 9.8 M9.6 12.75 L9.0 14.25 8.15 13.85 7.95 13.85 7.35 13.85 7.8 12.75 9.6 12.75" fill="#737373" fill-rule="evenodd" stroke="none"/>
    <path d="M11.45 8.55 L11.5 8.65 11.8 9.8 10.25 9.8 10.1 9.75 10.05 9.75 9.7 8.65 9.7 8.6 11.45 8.55 M10.6 25.45 L10.7 25.45 10.8 25.4 11.2 24.6 12.2 24.6 11.85 25.75 11.85 26.05 10.1 26.05 10.1 25.75 10.2 25.45 10.6 25.45 M13.25 13.15 L14.25 12.8 Q15.15 12.8 15.85 13.55 L16.25 14.05 16.6 14.7 Q17.05 15.75 17.05 17.1 L17.0 17.85 14.85 17.85 14.9 17.05 Q14.9 15.25 14.05 13.95 L13.25 13.15 M16.85 18.6 L16.7 19.25 14.5 19.25 14.65 18.6 16.85 18.6" fill="#595959" fill-rule="evenodd" stroke="none"/>
    <path d="M18.05 8.65 L18.05 8.75 17.5 9.8 16.5 9.1 16.65 8.65 18.05 8.65" fill="#848484" fill-rule="evenodd" stroke="none"/>
    <path d="M8.75 11.9 L8.75 11.95 8.8 12.15 9.6 12.75 7.8 12.75 7.05 12.15 7.0 11.95 6.95 11.9 8.75 11.9 M7.45 16.6 L7.55 16.7 7.7 16.75 6.8 16.75 5.9 16.75 5.75 16.6 7.45 16.6" fill="#373737" fill-rule="evenodd" stroke="none"/>
    <path d="M10.05 9.75 L9.95 9.85 9.35 10.6 8.75 11.65 8.75 11.9 6.95 11.9 6.95 11.85 7.0 11.65 8.2 9.85 8.4 9.75 10.05 9.75 M14.85 17.85 L17.0 17.85 17.0 17.9 16.85 18.6 14.65 18.6 14.85 17.85" fill="#959595" fill-rule="evenodd" stroke="none"/>
    <path d="M7.95 13.85 L7.85 14.05 7.4 16.4 7.45 16.6 5.75 16.6 5.7 16.4 6.1 14.05 6.2 13.85 7.35 13.85 7.95 13.85 M8.65 19.1 L7.75 19.45 7.65 19.55 7.65 19.6 5.9 19.6 5.9 19.55 6.05 19.45 6.9 19.1 8.65 19.1" fill="#808080" fill-rule="evenodd" stroke="none"/>
    <path d="M7.7 16.75 L8.5 16.75 8.65 19.1 6.9 19.1 6.8 16.75 7.7 16.75" fill="#555555" fill-rule="evenodd" stroke="none"/>
    <path d="M8.2 22.15 L8.45 22.15 9.2 21.4 9.25 21.4 10.0 22.6 8.2 22.6 7.85 22.15 8.2 22.15 M9.2 23.85 L9.25 24.0 9.25 24.05 9.35 24.2 9.6 24.35 10.3 25.2 10.55 25.4 10.6 25.45 10.2 25.45 8.95 25.45 8.8 25.4 8.3 25.0 7.8 24.35 7.5 24.05 7.5 23.85 9.2 23.85" fill="#3c3c3c" fill-rule="evenodd" stroke="none"/>
    <path d="M7.65 19.6 L7.6 19.9 8.15 21.95 8.2 22.15 7.85 22.15 6.45 22.15 6.4 21.95 5.85 19.9 5.9 19.6 7.65 19.6" fill="#5e5e5e" fill-rule="evenodd" stroke="none"/>
    <path d="M10.0 22.6 L9.2 23.7 9.2 23.85 7.5 23.85 7.45 23.7 8.2 22.6 10.0 22.6" fill="#6f6f6f" fill-rule="evenodd" stroke="none"/>
    <path d="M16.7 19.25 L16.2 20.2 15.85 20.6 15.55 20.85 15.25 21.05 14.25 21.25 13.65 21.2 13.2 21.0 13.05 20.85 14.05 20.05 14.5 19.25 16.7 19.25 M13.15 20.95 L13.65 21.2 13.15 20.95" fill="#9d9d9d" fill-rule="evenodd" stroke="none"/>
    <path d="M11.2 24.6 L11.35 24.1 12.2 24.6 11.2 24.6 M11.85 26.05 L11.9 26.05 11.95 26.25 12.15 26.25 13.1 26.45 10.25 26.25 10.1 26.05 11.85 26.05 M13.9 26.2 L13.9 26.15 14.0 24.85 14.25 24.85 15.1 24.65 15.25 25.9 15.4 26.15 13.9 26.2 M16.95 24.0 L16.85 23.75 16.85 23.6 17.0 23.45 17.65 22.95 18.2 23.95 18.35 24.0 16.95 24.0 M19.35 19.85 L19.55 19.4 20.45 19.85 19.35 19.85" fill="#2b2b2b" fill-rule="evenodd" stroke="none"/>
    <path d="M13.3 14.45 L13.25 14.45 13.2 14.25 13.05 14.5 13.05 14.45 Q12.35 15.45 12.35 16.9 L12.35 17.05 Q12.35 18.45 13.0 19.45 L13.2 19.65 13.3 19.55 13.65 19.0 13.95 17.7 14.0 17.05 14.0 16.95 Q14.0 15.5 13.3 14.45 M20.9 11.05 L21.05 11.2 21.3 11.5 Q21.75 12.65 21.8 13.95 L21.8 14.35 21.55 14.95 21.45 15.05 21.2 15.3 20.9 15.4 20.9 16.0 Q21.25 16.0 21.5 16.3 L21.6 16.4 21.8 16.65 21.85 16.85 21.95 17.4 21.6 19.7 21.35 20.2 21.05 20.45 Q20.8 20.75 20.45 20.75 L20.05 20.75 20.3 20.95 20.4 21.1 20.65 21.7 20.65 21.9 20.55 22.3 20.5 22.5 20.45 22.6 19.25 24.45 19.1 24.55 19.05 24.65 18.4 24.9 18.2 24.9 18.1 25.4 18.05 25.6 17.7 26.0 15.95 27.0 15.55 27.1 15.25 27.05 14.4 27.1 14.3 27.1 13.8 27.25 13.75 27.3 13.65 27.35 13.6 27.35 10.2 27.15 9.8 27.1 9.55 26.75 9.45 26.65 9.25 26.35 8.95 26.35 8.55 26.25 8.4 26.2 8.25 26.15 7.75 25.75 7.6 25.55 7.05 24.85 6.9 24.7 6.6 24.05 6.6 24.0 6.55 23.65 6.75 23.2 6.85 23.05 6.45 23.05 6.0 22.9 5.6 22.55 5.6 22.35 5.55 22.25 5.0 20.05 4.95 19.9 5.0 19.6 5.0 19.55 Q5.0 19.2 5.25 18.95 L5.4 18.85 5.65 18.65 6.0 18.55 5.95 17.65 5.8 17.65 5.25 17.35 5.15 17.2 4.95 17.0 4.9 16.8 4.8 16.35 4.95 15.1 5.0 14.95 5.2 13.95 Q5.25 13.15 5.8 13.05 L6.2 12.95 6.65 12.95 6.5 12.8 6.25 12.55 6.2 12.4 6.1 12.25 Q5.85 11.8 6.3 11.15 L6.25 11.15 7.4 9.35 Q7.55 9.1 7.8 9.05 L8.0 8.95 8.4 8.85 8.8 8.85 8.8 8.35 8.95 8.0 Q9.0 7.7 9.3 7.5 10.15 6.85 11.25 6.55 L11.45 6.5 12.65 6.5 12.8 6.4 13.25 6.3 14.7 6.35 15.15 6.35 16.85 6.6 17.35 6.85 17.45 7.1 17.7 7.65 17.75 7.75 18.3 7.75 18.65 7.85 19.0 8.1 20.25 9.55 20.45 10.15 20.5 10.35 20.45 10.65 20.45 10.85 20.9 11.05" fill="#ffffff" fill-opacity="0.2" fill-rule="evenodd" stroke="none"/>
  </g>
  <defs>
    <linearGradient gradientTransform="matrix(-0.001, 0.0088, -0.0079, -0.0014, 14.25, 16.9)" gradientUnits="userSpaceOnUse" id="gradient0" spreadMethod="pad" x1="-819.2" x2="819.2">
      <stop offset="0.0" stop-color="#ffffff"/>
      <stop offset="1.0" stop-color="#7f7f7f"/>
    </linearGradient>
  </defs>
</svg>
