<?xml version="1.0" encoding="UTF-8" standalone="no"?>
<svg xmlns:ffdec="https://www.free-decompiler.com/flash" xmlns:xlink="http://www.w3.org/1999/xlink" ffdec:objectType="shape" height="170.9px" width="101.35px" xmlns="http://www.w3.org/2000/svg">
  <g transform="matrix(1.0, 0.0, 0.0, 1.0, 0.1, 0.1)">
    <path d="M86.25 0.0 Q97.8 0.65 101.15 15.3 L101.15 18.3 90.5 57.65 79.25 73.65 Q75.1 69.65 67.5 67.9 L78.25 56.65 82.0 49.65 88.8 40.05 88.8 17.05 78.05 6.3 86.25 0.0 M33.0 156.45 L23.5 166.65 7.75 163.2 6.8 161.8 15.3 159.6 32.05 146.6 43.05 134.1 49.05 124.35 55.8 109.8 52.55 97.3 48.05 100.55 45.2 90.55 54.75 94.65 69.75 98.4 65.45 109.65 58.75 127.2 33.0 156.45 M37.5 21.3 L44.0 21.3 54.0 17.4 52.95 33.55 43.65 49.0 37.5 21.3 M63.05 67.8 Q64.15 63.35 67.5 60.1 67.85 64.45 66.05 67.8 L63.05 67.8 M58.25 107.45 L62.15 100.15 57.0 99.15 58.25 107.45 M57.95 113.2 L53.95 123.15 60.2 113.7 57.95 113.2" fill="#ddd195" fill-rule="evenodd" stroke="none"/>
    <path d="M86.25 0.0 L78.05 6.3 88.8 17.05 88.8 40.05 82.0 49.65 78.25 56.65 67.5 67.9 66.05 67.8 Q67.85 64.45 67.5 60.1 64.15 63.35 63.05 67.8 L56.95 68.35 Q56.45 67.5 56.4 66.45 56.35 64.85 56.75 63.45 L58.0 62.95 Q58.75 63.55 58.35 62.05 L57.9 59.95 55.65 59.85 55.5 59.95 Q52.9 64.75 50.85 69.75 L48.45 70.55 45.75 71.4 31.75 29.55 28.5 16.3 31.75 11.3 37.5 21.3 43.65 49.0 48.45 70.55 51.5 55.9 52.95 33.55 54.0 17.4 Q54.5 16.3 58.75 10.2 63.0 4.0 80.0 0.5 L86.25 0.0 M74.75 84.55 L72.75 88.4 Q67.7 85.15 60.5 82.65 52.5 80.15 44.45 80.0 53.15 77.7 62.15 77.9 69.6 78.3 76.75 80.65 L74.75 84.55 M70.8 110.75 L72.55 132.3 60.3 154.85 40.55 170.6 40.55 163.1 60.3 133.1 62.9 121.4 70.8 110.75 M6.8 161.8 L0.0 151.7 0.0 136.95 7.5 127.7 29.75 104.45 40.65 87.05 42.5 89.4 45.2 90.55 48.05 100.55 52.55 97.3 55.8 109.8 49.05 124.35 43.05 134.1 32.05 146.6 15.3 159.6 6.8 161.8 M51.9 101.45 L49.0 101.45 51.9 105.95 51.9 101.45 M58.25 107.45 L57.0 99.15 62.15 100.15 58.25 107.45 M47.8 113.05 L44.55 110.3 Q40.55 118.05 36.95 126.55 L36.8 126.8 40.15 125.75 Q39.05 128.55 37.05 131.05 L35.8 132.8 Q43.1 125.95 46.9 117.1 47.7 115.3 47.8 113.05" fill="#f1eac2" fill-rule="evenodd" stroke="none"/>
    <path d="M40.55 163.1 L33.0 156.45 58.75 127.2 65.45 109.65 62.9 121.4 60.3 133.1 40.55 163.1 M43.65 49.0 L52.95 33.55 51.5 55.9 48.45 70.55 43.65 49.0" fill="#b19b52" fill-rule="evenodd" stroke="none"/>
    <path d="M62.15 73.95 Q60.75 75.55 58.9 74.55 58.65 74.45 58.6 74.15 58.05 72.05 60.05 71.35 62.25 71.25 62.4 73.3 L62.15 73.95 M52.45 83.85 Q54.3 83.95 54.15 85.75 54.1 86.9 53.0 87.1 51.3 87.45 51.15 85.95 51.0 84.35 52.45 83.85" fill="#ffffff" fill-rule="evenodd" stroke="none"/>
    <path d="M69.75 98.4 L70.8 110.75 62.9 121.4 65.45 109.65 69.75 98.4 M51.9 101.45 L51.9 105.95 49.0 101.45 51.9 101.45" fill="#e9dfad" fill-rule="evenodd" stroke="none"/>
    <path d="M67.5 67.9 Q75.1 69.65 79.25 73.65 82.05 76.95 81.0 80.65 L78.65 83.45 74.75 84.55 76.75 80.65 Q69.6 78.3 62.15 77.9 53.15 77.7 44.45 80.0 52.5 80.15 60.5 82.65 67.7 85.15 72.75 88.4 73.55 90.25 73.5 93.05 73.35 95.85 69.75 98.4 L54.75 94.65 45.2 90.55 42.5 89.4 40.65 87.05 38.75 84.65 Q40.25 81.35 42.95 80.35 L41.75 80.65 41.75 76.9 Q42.55 73.95 45.75 71.4 L48.45 70.55 50.85 69.75 Q53.85 68.8 56.95 68.35 L63.05 67.8 66.05 67.8 67.5 67.9 M61.15 68.55 Q55.2 68.85 49.55 70.5 L49.2 70.9 53.4 70.55 52.7 70.8 Q50.75 71.65 50.95 73.8 51.15 75.85 53.25 76.7 54.85 77.5 56.95 77.15 L63.8 76.95 66.3 76.4 Q67.75 73.35 65.95 70.5 L64.75 69.35 Q63.1 68.25 61.15 68.55 M55.65 83.2 Q50.45 79.35 46.35 82.9 43.3 90.3 52.8 89.35 57.35 88.7 55.85 83.65 L55.65 83.2" fill="#ff0000" fill-rule="evenodd" stroke="none"/>
    <path d="M61.15 68.55 Q63.1 68.25 64.75 69.35 L65.95 70.5 Q67.75 73.35 66.3 76.4 L63.8 76.95 56.95 77.15 Q54.85 77.5 53.25 76.7 51.15 75.85 50.95 73.8 50.75 71.65 52.7 70.8 L53.4 70.55 49.2 70.9 49.55 70.5 Q55.2 68.85 61.15 68.55 M62.15 73.95 L62.4 73.3 Q62.25 71.25 60.05 71.35 58.05 72.05 58.6 74.15 58.65 74.45 58.9 74.55 60.75 75.55 62.15 73.95 M55.65 83.2 L55.85 83.65 Q57.35 88.7 52.8 89.35 43.3 90.3 46.35 82.9 50.45 79.35 55.65 83.2 M52.45 83.85 Q51.0 84.35 51.15 85.95 51.3 87.45 53.0 87.1 54.1 86.9 54.15 85.75 54.3 83.95 52.45 83.85" fill="#ff6600" fill-rule="evenodd" stroke="none"/>
    <path d="M84.4 46.35 L88.8 40.05 88.85 36.25 94.9 42.1 92.7 50.15 84.4 46.55 84.4 46.35 M81.35 50.8 L91.15 55.3 90.5 57.75 88.6 60.35 78.6 56.05 81.35 50.8 M69.05 113.2 L62.8 121.8 64.45 114.45 69.05 113.2 M54.8 112.1 L63.5 114.65 60.9 121.35 51.75 118.85 54.8 112.1 M40.65 136.6 L44.55 131.85 48.45 125.4 58.4 127.5 49.05 138.1 40.65 136.6" fill="#9c953d" fill-rule="evenodd" stroke="none"/>
    <path d="M88.85 36.25 L88.8 40.05 84.4 46.35 78.35 46.15 Q71.8 46.5 65.05 48.2 58.0 50.0 51.7 53.0 L52.35 43.35 Q58.0 40.0 64.0 37.85 70.9 35.4 76.35 35.2 L88.85 36.25 M78.6 56.05 L69.2 57.5 Q64.95 57.9 58.7 59.6 52.95 61.15 50.15 62.5 L51.25 57.15 Q56.75 54.5 62.9 52.95 69.1 51.4 74.85 51.2 L81.35 50.8 78.6 56.05 M37.0 45.25 L41.8 40.85 44.0 50.6 39.9 53.8 37.1 45.4 37.0 45.25 M40.95 57.1 L44.7 53.45 45.85 59.2 42.5 61.65 41.05 57.25 40.95 57.1 M62.8 121.8 L69.05 113.2 70.85 112.7 71.5 119.5 63.4 121.55 62.8 121.8 M51.75 118.85 L39.95 113.2 31.1 102.5 31.1 102.45 34.55 96.95 44.2 107.6 53.8 111.85 54.8 112.1 51.75 118.85 M48.45 125.4 L44.55 131.85 40.65 136.6 26.35 126.75 20.4 114.4 20.4 114.3 28.05 106.3 35.8 118.5 48.45 125.4 M57.35 137.7 L60.4 133.0 61.6 127.1 71.8 123.75 72.25 129.15 57.35 137.7" fill="#bdb768" fill-rule="evenodd" stroke="none"/>
    <path d="M50.85 69.75 Q52.9 64.75 55.5 59.95 L55.65 59.85 57.9 59.95 58.35 62.05 Q58.75 63.55 58.0 62.95 L56.75 63.45 Q56.35 64.85 56.4 66.45 56.45 67.5 56.95 68.35 53.85 68.8 50.85 69.75 M47.8 113.05 Q47.7 115.3 46.9 117.1 43.1 125.95 35.8 132.8 L37.05 131.05 Q39.05 128.55 40.15 125.75 L36.8 126.8 36.95 126.55 Q40.55 118.05 44.55 110.3 L47.8 113.05" fill="#ddd195" fill-rule="evenodd" stroke="none"/>
    <path d="M60.2 113.7 L53.95 123.15 57.95 113.2 60.2 113.7" fill="#f1eac2" fill-rule="evenodd" stroke="none"/>
    <path d="M101.15 18.3 L90.5 57.65 79.25 73.65 Q82.05 76.95 81.0 80.65 L78.65 83.45 74.75 84.55 72.75 88.4 Q73.55 90.25 73.5 93.05 73.35 95.85 69.75 98.4 L72.55 132.3 60.3 154.85 40.55 170.6 40.55 163.1 33.0 156.45 23.5 166.65 7.75 163.2 0.0 151.7 0.0 136.95 7.5 127.7 29.75 104.45 40.65 87.05 38.75 84.65 Q40.25 81.35 42.95 80.35 L41.75 80.65 41.75 76.9 Q42.55 73.95 45.75 71.4 L31.75 29.55 28.5 16.3 31.75 11.3 37.5 21.3 44.0 21.3 54.0 17.4 Q54.5 16.3 58.75 10.2 63.0 4.0 80.0 0.5 L86.25 0.0 Q97.8 0.65 101.15 15.3 L101.15 18.3 M56.95 68.35 Q53.85 68.8 50.85 69.75 L48.45 70.55 45.75 71.4 M37.5 21.3 L48.45 70.55 51.5 55.9 54.0 17.4 M74.75 84.55 L76.75 80.65 Q69.6 78.3 62.15 77.9 53.15 77.7 44.45 80.0 52.5 80.15 60.5 82.65 67.7 85.15 72.75 88.4 M33.0 156.45 L58.75 127.2 65.45 109.65 69.75 98.4 54.75 94.65 42.5 89.4 40.65 87.05 M42.95 80.35 L44.45 80.0 M40.55 163.1 L60.3 133.1 65.45 109.65" ffdec:has-small-stroke="true" ffdec:original-stroke-width="0.25" fill="none" stroke="#000000" stroke-linecap="butt" stroke-linejoin="miter-clip" stroke-miterlimit="3.0" stroke-opacity="0.37254903" stroke-width="1.0"/>
    <path d="M56.95 68.35 L63.05 67.8 67.5 67.9 Q75.1 69.65 79.25 73.65" ffdec:has-small-stroke="true" ffdec:original-stroke-width="0.25" fill="none" stroke="#000000" stroke-linecap="butt" stroke-linejoin="miter-clip" stroke-miterlimit="3.0" stroke-opacity="0.37254903" stroke-width="1.0"/>
    <path d="M67.5 67.9 L78.25 56.65 82.0 49.65 88.8 40.05" ffdec:has-small-stroke="true" ffdec:original-stroke-width="0.25" fill="none" stroke="#000000" stroke-linecap="round" stroke-linejoin="miter-clip" stroke-miterlimit="3.0" stroke-opacity="0.37254903" stroke-width="1.0"/>
  </g>
</svg>
