<?xml version="1.0" encoding="UTF-8" standalone="no"?>
<svg xmlns:ffdec="https://www.free-decompiler.com/flash" xmlns:xlink="http://www.w3.org/1999/xlink" ffdec:objectType="shape" height="50.3px" width="34.3px" xmlns="http://www.w3.org/2000/svg">
  <g transform="matrix(1.0, 0.0, 0.0, 1.0, -40.5, -14.45)">
    <path d="M55.6 36.9 Q50.4 33.65 46.05 30.5 40.2 20.9 41.9 16.3 L43.8 18.15 Q48.9 22.9 55.6 28.05 M66.75 57.55 Q70.4 60.7 72.2 62.95 L72.75 63.6 Q54.8 64.2 48.9 62.65 47.65 59.15 46.9 54.55 45.85 47.4 46.15 37.65 L46.5 37.6 55.6 38.2 M55.6 45.4 L54.6 45.05 Q53.4 48.65 53.5 53.55 59.85 58.45 62.05 58.55" fill="none" stroke="#000000" stroke-linecap="butt" stroke-linejoin="miter-clip" stroke-miterlimit="3.0" stroke-opacity="0.3019608" stroke-width="2.0"/>
    <path d="M55.2 36.1 L55.2 36.65 46.05 30.5 Q40.2 20.9 41.9 16.3 L43.8 18.15 Q48.75 22.75 55.2 27.75 L55.2 32.9 51.45 30.05 49.25 27.5 46.3 23.6 43.75 20.15 Q43.0 19.15 42.4 19.0 41.85 18.95 42.75 21.55 L44.6 26.4 Q45.5 28.6 47.05 30.55 50.6 33.2 55.2 36.1 M64.2 57.85 L67.1 57.85 Q70.45 60.8 72.2 62.95 L72.75 63.6 Q54.8 64.2 48.9 62.65 47.65 59.15 46.9 54.55 45.85 47.4 46.15 37.65 L46.5 37.6 55.2 38.2 55.2 41.35 52.7 40.75 50.85 40.45 Q50.7 44.55 51.7 49.75 52.4 53.35 52.6 53.1 L52.75 52.15 52.75 52.1 Q52.9 48.6 54.15 44.1 L55.2 44.45 55.2 45.25 54.6 45.05 Q53.4 48.65 53.5 53.55 59.85 58.45 62.05 58.55 L61.7 57.85 62.0 57.85 62.1 58.05 62.5 58.45 Q63.15 58.7 63.95 58.45 64.3 58.35 64.2 57.85 M70.45 62.95 Q71.85 62.8 68.15 62.0 L60.8 60.4 54.55 59.0 Q52.0 58.45 51.2 57.8 L49.2 55.5 47.55 53.45 Q47.4 53.5 47.6 54.7 48.05 58.4 49.3 61.9 54.55 63.3 69.25 63.0 L70.1 63.0 70.45 62.95" fill="#e33761" fill-rule="evenodd" stroke="none"/>
    <path d="M55.2 36.1 Q50.6 33.2 47.05 30.55 45.5 28.6 44.6 26.4 L42.75 21.55 Q41.85 18.95 42.4 19.0 43.0 19.15 43.75 20.15 L46.3 23.6 49.25 27.5 51.45 30.05 55.2 32.9 55.2 36.1" fill="url(#gradient0)" fill-rule="evenodd" stroke="none"/>
    <path d="M55.2 44.45 L54.15 44.1 Q52.9 48.6 52.75 52.1 L52.75 52.15 52.6 53.1 Q52.4 53.35 51.7 49.75 50.7 44.55 50.85 40.45 L52.7 40.75 55.2 41.35 55.2 44.45" fill="url(#gradient1)" fill-rule="evenodd" stroke="none"/>
    <path d="M64.2 57.85 Q64.3 58.35 63.95 58.45 63.15 58.7 62.5 58.45 L62.1 58.05 62.0 57.85 64.2 57.85" fill="url(#gradient2)" fill-rule="evenodd" stroke="none"/>
    <path d="M70.45 62.95 L70.1 63.0 69.25 63.0 Q54.55 63.3 49.3 61.9 48.05 58.4 47.6 54.7 47.4 53.5 47.55 53.45 L49.2 55.5 51.2 57.8 Q52.0 58.45 54.55 59.0 L60.8 60.4 68.15 62.0 Q71.85 62.8 70.45 62.95" fill="url(#gradient3)" fill-rule="evenodd" stroke="none"/>
    <path d="M52.9 26.85 L52.25 29.8 Q48.95 26.1 43.05 18.25 47.15 22.15 52.9 26.85" fill="#ffffff" fill-opacity="0.5019608" fill-rule="evenodd" stroke="none"/>
    <path d="M47.95 39.75 L46.55 37.8 55.2 38.5 55.2 39.45 47.95 39.75" fill="#ffffff" fill-opacity="0.5019608" fill-rule="evenodd" stroke="none"/>
    <path d="M51.25 56.15 Q51.7 55.3 52.7 54.0 L59.65 58.55 51.25 56.15" fill="#ffffff" fill-opacity="0.5019608" fill-rule="evenodd" stroke="none"/>
  </g>
  <defs>
    <linearGradient gradientTransform="matrix(-0.0157, -0.0122, -0.0024, 0.0031, 53.05, 31.15)" gradientUnits="userSpaceOnUse" id="gradient0" spreadMethod="pad" x1="-819.2" x2="819.2">
      <stop offset="0.0" stop-color="#f00061"/>
      <stop offset="1.0" stop-color="#57003e"/>
    </linearGradient>
    <linearGradient gradientTransform="matrix(-0.0197, -0.0081, -0.003, 0.0072, 56.4, 47.8)" gradientUnits="userSpaceOnUse" id="gradient1" spreadMethod="pad" x1="-819.2" x2="819.2">
      <stop offset="0.0" stop-color="#f00061"/>
      <stop offset="1.0" stop-color="#57003e"/>
    </linearGradient>
    <linearGradient gradientTransform="matrix(0.0055, 0.0015, 5.0E-4, -0.0021, 61.6, 56.1)" gradientUnits="userSpaceOnUse" id="gradient2" spreadMethod="pad" x1="-819.2" x2="819.2">
      <stop offset="0.0" stop-color="#f00061"/>
      <stop offset="1.0" stop-color="#57003e"/>
    </linearGradient>
    <linearGradient gradientTransform="matrix(-0.0251, -0.0067, -0.0012, 0.0046, 57.6, 60.15)" gradientUnits="userSpaceOnUse" id="gradient3" spreadMethod="pad" x1="-819.2" x2="819.2">
      <stop offset="0.0" stop-color="#f00061"/>
      <stop offset="1.0" stop-color="#57003e"/>
    </linearGradient>
  </defs>
</svg>
