<?xml version="1.0" encoding="UTF-8" standalone="no"?>
<svg xmlns:ffdec="https://www.free-decompiler.com/flash" xmlns:xlink="http://www.w3.org/1999/xlink" ffdec:objectType="shape" height="23.45px" width="49.35px" xmlns="http://www.w3.org/2000/svg">
  <g transform="matrix(1.0, 0.0, 0.0, 1.0, 12.7, -47.0)">
    <path d="M20.85 57.1 Q27.15 61.0 34.2 66.7 L35.0 67.45 32.75 68.7 29.4 68.7 Q29.95 68.35 30.05 66.5 27.9 65.45 22.75 64.5 L23.0 68.7 18.8 68.7 18.85 66.9 Q18.95 59.95 20.7 57.3 L20.85 57.1 M8.6 63.4 L9.0 63.85 Q10.25 65.4 11.55 68.6 L11.6 68.7 3.4 68.7 8.6 63.4 M4.05 62.05 Q2.05 65.85 -0.35 68.7 L-9.75 68.7 -7.35 67.5 Q-4.1 61.75 -3.25 49.85 -0.1 53.95 2.3 58.4 L4.05 62.05 Z" fill="none" stroke="#000000" stroke-linecap="butt" stroke-linejoin="miter-clip" stroke-miterlimit="3.0" stroke-opacity="0.3019608" stroke-width="2.0"/>
    <path d="M21.85 68.7 L18.8 68.7 18.85 66.9 Q18.95 59.95 20.7 57.3 L20.85 57.1 Q27.15 61.0 34.2 66.7 L35.0 67.45 32.75 68.7 31.8 68.7 34.3 67.4 Q27.3 61.6 20.9 57.7 L22.35 59.75 Q23.1 60.6 27.5 63.3 L31.9 65.95 30.35 68.7 29.4 68.7 Q29.95 68.35 30.05 66.5 27.9 65.45 22.75 64.5 L23.0 68.7 22.6 68.7 22.4 64.3 21.85 68.7 M-1.3 68.7 Q1.05 66.05 3.0 62.45 L3.0 62.25 Q3.2 61.25 2.2 59.6 L0.05 56.1 Q-0.4 55.55 -0.55 56.25 L-0.6 56.75 -0.85 58.15 Q-2.1 64.85 -4.6 68.7 L-9.75 68.7 -7.35 67.5 Q-4.1 61.75 -3.25 49.85 -0.1 53.95 2.3 58.4 L4.05 62.05 Q2.05 65.85 -0.35 68.7 L-1.3 68.7 M9.75 68.7 L3.4 68.7 8.6 63.4 9.0 63.85 Q10.25 65.4 11.55 68.6 L11.6 68.7 11.0 68.7 9.25 64.85 8.85 64.1 8.65 63.9 Q8.55 65.4 9.7 68.65 L9.75 68.7" fill="#e33761" fill-rule="evenodd" stroke="none"/>
    <path d="M30.35 68.7 L31.9 65.95 27.5 63.3 Q23.1 60.6 22.35 59.75 L20.9 57.7 Q27.3 61.6 34.3 67.4 L31.8 68.7 30.35 68.7" fill="url(#gradient0)" fill-rule="evenodd" stroke="none"/>
    <path d="M21.85 68.7 L22.4 64.3 22.6 68.7 21.85 68.7" fill="url(#gradient1)" fill-rule="evenodd" stroke="none"/>
    <path d="M-4.6 68.7 Q-2.1 64.85 -0.85 58.15 L-0.6 56.75 -0.55 56.25 Q-0.4 55.55 0.05 56.1 L2.2 59.6 Q3.2 61.25 3.0 62.25 L3.0 62.45 Q1.05 66.05 -1.3 68.7 L-4.6 68.7" fill="url(#gradient2)" fill-rule="evenodd" stroke="none"/>
    <path d="M9.75 68.7 L9.7 68.65 Q8.55 65.4 8.65 63.9 L8.85 64.1 9.25 64.85 11.0 68.7 9.75 68.7" fill="url(#gradient3)" fill-rule="evenodd" stroke="none"/>
    <path d="M20.3 58.85 Q21.05 59.85 21.45 61.3 L19.3 68.55 Q19.55 62.0 20.3 58.85" fill="#ffffff" fill-opacity="0.5019608" fill-rule="evenodd" stroke="none"/>
    <path d="M-3.85 61.95 Q-2.75 56.1 -3.05 51.2 L-1.25 54.2 -3.85 61.95" fill="#ffffff" fill-opacity="0.5019608" fill-rule="evenodd" stroke="none"/>
  </g>
  <defs>
    <linearGradient gradientTransform="matrix(-0.0148, 0.0024, -0.0016, -0.0096, 30.6, 62.9)" gradientUnits="userSpaceOnUse" id="gradient0" spreadMethod="pad" x1="-819.2" x2="819.2">
      <stop offset="0.0" stop-color="#f00061"/>
      <stop offset="1.0" stop-color="#57003e"/>
    </linearGradient>
    <linearGradient gradientTransform="matrix(0.0099, -0.0196, 0.0121, 0.0061, 14.75, 75.0)" gradientUnits="userSpaceOnUse" id="gradient1" spreadMethod="pad" x1="-819.2" x2="819.2">
      <stop offset="0.0" stop-color="#f00061"/>
      <stop offset="1.0" stop-color="#57003e"/>
    </linearGradient>
    <linearGradient gradientTransform="matrix(-0.0056, -0.0134, 0.0162, -0.0068, -12.6, 68.8)" gradientUnits="userSpaceOnUse" id="gradient2" spreadMethod="pad" x1="-819.2" x2="819.2">
      <stop offset="0.0" stop-color="#f00061"/>
      <stop offset="1.0" stop-color="#57003e"/>
    </linearGradient>
    <linearGradient gradientTransform="matrix(-0.0071, -0.0061, 0.0025, -0.0029, 11.5, 69.65)" gradientUnits="userSpaceOnUse" id="gradient3" spreadMethod="pad" x1="-819.2" x2="819.2">
      <stop offset="0.0" stop-color="#f00061"/>
      <stop offset="1.0" stop-color="#57003e"/>
    </linearGradient>
  </defs>
</svg>
