<?xml version="1.0" encoding="UTF-8" standalone="no"?>
<svg xmlns:ffdec="https://www.free-decompiler.com/flash" xmlns:xlink="http://www.w3.org/1999/xlink" ffdec:objectType="shape" height="49.6px" width="169.55px" xmlns="http://www.w3.org/2000/svg">
  <g transform="matrix(1.0, 0.0, 0.0, 1.0, 4.65, 4.65)">
    <path d="M2.55 -3.4 L3.85 -3.6 3.9 -3.6 4.45 -3.65 155.8 -3.65 156.35 -3.6 156.45 -3.6 157.7 -3.4 Q159.85 -2.85 161.5 -1.25 163.4 0.6 163.8 3.15 L163.8 3.25 163.9 4.0 163.9 35.8 Q163.85 39.2 161.5 41.55 159.15 43.9 155.75 43.95 L4.45 43.95 Q1.1 43.9 -1.25 41.55 -3.65 39.2 -3.65 35.8 L-3.65 4.45 -3.6 3.5 Q-3.3 0.75 -1.25 -1.25 0.4 -2.85 2.55 -3.4 M160.15 13.9 L160.15 6.5 Q160.15 4.7 159.25 3.2 L158.7 2.45 158.25 2.0 Q156.35 0.05 153.7 0.1 L6.5 0.1 Q5.05 0.05 3.85 0.65 2.85 1.1 2.0 2.0 L1.6 2.45 Q0.05 4.2 0.1 6.5 L0.1 13.9 0.1 33.75 0.1 34.15 0.15 34.4 0.3 35.4 Q0.7 37.05 2.0 38.35 3.85 40.2 6.5 40.2 L153.7 40.2 Q156.35 40.2 158.25 38.35 159.55 37.05 159.95 35.4 L160.15 34.4 160.15 34.15 160.15 33.75 160.15 13.9" fill="url(#gradient0)" fill-rule="evenodd" stroke="none"/>
    <path d="M0.1 13.9 L0.1 6.5 Q0.05 4.2 1.6 2.45 L2.0 2.0 Q2.85 1.1 3.85 0.65 5.05 0.05 6.5 0.1 L153.7 0.1 Q156.35 0.05 158.25 2.0 L158.7 2.45 159.25 3.2 Q160.15 4.7 160.15 6.5 L160.15 13.9 0.1 13.9" fill="url(#gradient1)" fill-rule="evenodd" stroke="none"/>
    <path d="M2.55 -3.4 Q0.4 -2.85 -1.25 -1.25 -3.3 0.75 -3.6 3.5 L-3.65 4.45 -3.65 35.8 Q-3.65 39.2 -1.25 41.55 1.1 43.9 4.45 43.95 L155.75 43.95 Q159.15 43.9 161.5 41.55 163.85 39.2 163.9 35.8 L163.9 4.0 163.8 3.25 163.8 3.15 Q163.4 0.6 161.5 -1.25 159.85 -2.85 157.7 -3.4 L156.45 -3.6 156.35 -3.6 155.8 -3.65 4.45 -3.65 3.9 -3.6 3.85 -3.6 2.55 -3.4 M0.1 13.9 L0.1 6.5 Q0.05 4.2 1.6 2.45 L2.0 2.0 Q2.85 1.1 3.85 0.65 5.05 0.05 6.5 0.1 L153.7 0.1 Q156.35 0.05 158.25 2.0 L158.7 2.45 159.25 3.2 Q160.15 4.7 160.15 6.5 L160.15 13.9 160.15 33.75 160.15 34.15 160.15 34.4 159.95 35.4 Q159.55 37.05 158.25 38.35 156.35 40.2 153.7 40.2 L6.5 40.2 Q3.85 40.2 2.0 38.35 0.7 37.05 0.3 35.4 L0.15 34.4 0.1 34.15 0.1 33.75 0.1 13.9 Z" fill="none" stroke="#000000" stroke-linecap="butt" stroke-linejoin="miter-clip" stroke-miterlimit="3.0" stroke-opacity="0.3019608" stroke-width="2.0"/>
    <path d="M-0.15 -2.2 L0.0 -2.3 Q1.9 -3.65 4.45 -3.7 L156.0 -3.7 Q159.25 -3.6 161.55 -1.3 163.9 1.05 163.95 4.45 L163.95 36.25 163.85 37.0 163.85 37.1 Q163.75 37.95 163.15 38.45 L162.8 39.05 Q162.65 40.5 161.55 41.5 L161.3 41.75 160.95 42.05 160.7 42.3 Q159.9 42.9 158.85 42.9 160.3 42.4 161.4 41.2 162.4 40.3 162.8 39.05 162.4 40.3 161.4 41.2 160.3 42.4 158.85 42.9 157.6 43.85 155.9 43.85 L4.55 43.85 Q1.95 43.8 0.0 42.4 L-0.3 42.2 -1.15 41.45 -2.6 39.5 -3.45 36.95 -3.55 35.7 -3.55 4.35 -3.5 3.4 -3.15 1.8 -3.05 1.5 Q-2.5 0.05 -1.35 -1.15 L-1.15 -1.35 -0.9 -1.55 -0.25 -2.1 -0.2 -2.15 -0.15 -2.2 -0.1 -2.2 -0.1 -2.25 -0.1 -2.2 -0.15 -2.2 M6.6 -0.35 L153.85 -0.35 Q156.65 -0.35 158.6 1.65 L159.25 2.35 159.75 3.1 160.0 3.6 160.35 4.4 160.6 5.15 160.6 4.4 160.45 3.6 160.3 3.1 160.05 2.35 Q159.5 1.25 158.6 0.35 156.65 -1.6 153.85 -1.6 L6.6 -1.6 5.55 -1.5 4.85 -1.35 4.2 -1.15 3.95 -1.05 2.95 -0.55 1.85 0.35 0.95 1.5 0.75 1.8 0.45 2.35 Q-0.15 3.65 -0.05 5.15 0.25 3.6 1.25 2.35 L1.7 1.8 1.85 1.65 2.0 1.5 2.95 0.75 3.95 0.2 4.85 -0.1 6.6 -0.35 M163.7 35.7 Q163.7 37.2 163.15 38.45 163.7 37.2 163.7 35.7 L163.7 35.3 163.65 35.7 163.7 35.7 M-3.25 35.0 L-3.2 35.3 -2.85 36.95 Q-2.4 38.35 -1.35 39.5 L-0.95 39.95 Q1.35 42.25 4.55 42.25 L155.9 42.25 Q159.15 42.25 161.4 39.95 163.25 38.15 163.65 35.7 163.25 38.15 161.4 39.95 159.15 42.25 155.9 42.25 L4.55 42.25 Q1.35 42.25 -0.95 39.95 L-1.35 39.5 Q-2.4 38.35 -2.85 36.95 L-3.2 35.3 -3.25 35.0 M158.85 2.35 L158.4 1.9 Q156.5 -0.05 153.85 0.0 L6.6 0.0 4.85 0.2 3.95 0.55 2.95 1.15 2.5 1.5 2.2 1.8 2.1 1.9 1.7 2.35 Q0.4 3.85 0.25 5.7 L0.2 6.4 0.2 33.65 0.2 33.85 0.2 34.05 0.25 34.3 0.4 35.3 Q0.6 36.15 1.1 36.95 L2.1 38.25 Q2.9 39.05 3.85 39.5 5.1 40.1 6.6 40.1 L153.85 40.1 Q156.5 40.1 158.4 38.25 159.7 36.95 160.1 35.3 L160.3 34.3 160.3 34.05 160.3 33.65 160.3 6.4 160.0 4.4 159.7 3.6 159.4 3.1 158.85 2.35 M160.5 5.15 L160.6 5.75 160.6 5.15 160.6 5.75 160.5 5.15 M-0.15 5.15 L-0.15 5.7 -0.05 5.15 -0.15 5.7 -0.15 5.15 M-3.25 35.3 L-3.25 35.7 -3.15 36.95 Q-2.95 38.35 -2.25 39.5 L-0.95 41.2 0.55 42.4 Q2.35 43.5 4.55 43.5 L155.9 43.5 Q157.55 43.5 158.85 42.9 157.55 43.5 155.9 43.5 L4.55 43.5 Q2.35 43.5 0.55 42.4 L-0.95 41.2 -2.25 39.5 Q-2.95 38.35 -3.15 36.95 L-3.25 35.7 -3.25 35.3" fill="url(#gradient2)" fill-rule="evenodd" stroke="none"/>
    <path d="M163.7 35.7 L163.65 35.7 163.7 35.3 163.7 35.7" fill="url(#gradient3)" fill-rule="evenodd" stroke="none"/>
    <path d="M6.6 -0.35 L4.85 -0.1 3.95 0.2 2.95 0.75 2.0 1.5 1.85 1.65 1.7 1.8 1.25 2.35 Q0.25 3.6 -0.05 5.15 -0.15 3.65 0.45 2.35 L0.75 1.8 0.95 1.5 1.85 0.35 2.95 -0.55 3.95 -1.05 4.2 -1.15 4.85 -1.35 5.55 -1.5 6.6 -1.6 153.85 -1.6 Q156.65 -1.6 158.6 0.35 159.5 1.25 160.05 2.35 L160.3 3.1 160.45 3.6 160.6 4.4 160.6 5.15 160.35 4.4 160.0 3.6 159.75 3.1 159.25 2.35 158.6 1.65 Q156.65 -0.35 153.85 -0.35 L6.6 -0.35" fill="url(#gradient4)" fill-rule="evenodd" stroke="none"/>
  </g>
  <defs>
    <radialGradient cx="0" cy="0" gradientTransform="matrix(0.1406, 0.0, 0.0, 0.1406, 55.55, 41.8)" gradientUnits="userSpaceOnUse" id="gradient0" r="819.2" spreadMethod="pad">
      <stop offset="0.0" stop-color="#635d7e"/>
      <stop offset="1.0" stop-color="#1f1e2f"/>
    </radialGradient>
    <linearGradient gradientTransform="matrix(0.0, 0.0024, -0.0991, 0.0, 554.5, 2.55)" gradientUnits="userSpaceOnUse" id="gradient1" spreadMethod="pad" x1="-819.2" x2="819.2">
      <stop offset="0.0" stop-color="#000000" stop-opacity="0.3019608"/>
      <stop offset="1.0" stop-color="#000000" stop-opacity="0.0"/>
    </linearGradient>
    <radialGradient cx="0" cy="0" gradientTransform="matrix(0.0, 0.03, -0.1397, 0.0, 80.8, -1.95)" gradientUnits="userSpaceOnUse" id="gradient2" r="819.2" spreadMethod="pad">
      <stop offset="0.0" stop-color="#f78246"/>
      <stop offset="0.5019607843137255" stop-color="#e62949"/>
      <stop offset="1.0" stop-color="#8f1454"/>
    </radialGradient>
    <radialGradient cx="0" cy="0" gradientTransform="matrix(2.0E-4, 0.0, 0.0, 2.0E-4, 163.7, 35.5)" gradientUnits="userSpaceOnUse" id="gradient3" r="819.2" spreadMethod="pad">
      <stop offset="0.0" stop-color="#f78246"/>
      <stop offset="0.5019607843137255" stop-color="#e62949"/>
      <stop offset="1.0" stop-color="#8f1454"/>
    </radialGradient>
    <radialGradient cx="0" cy="0" gradientTransform="matrix(0.0889, 0.0, 0.0, 0.0468, 80.25, 1.8)" gradientUnits="userSpaceOnUse" id="gradient4" r="819.2" spreadMethod="pad">
      <stop offset="0.0" stop-color="#ffca45"/>
      <stop offset="1.0" stop-color="#ff0000"/>
    </radialGradient>
  </defs>
</svg>
