<?xml version="1.0" encoding="UTF-8" standalone="no"?>
<svg xmlns:ffdec="https://www.free-decompiler.com/flash" xmlns:xlink="http://www.w3.org/1999/xlink" ffdec:objectType="shape" height="7.4px" width="4.9px" xmlns="http://www.w3.org/2000/svg">
  <g transform="matrix(1.0, 0.0, 0.0, 1.0, 0.0, 0.0)">
    <path d="M2.7 1.55 L1.8 1.35 1.0 1.5 0.2 1.9 0.0 1.9 0.0 0.4 1.0 0.1 2.3 0.0 Q3.5 0.0 4.2 0.5 4.9 1.05 4.9 1.9 L4.8 2.8 4.35 3.45 3.75 3.95 2.9 4.35 2.9 5.45 1.2 5.45 1.2 3.8 1.8 3.6 2.4 3.3 2.85 2.85 3.0 2.25 Q3.0 1.75 2.7 1.55 M3.05 6.1 L3.05 7.4 1.05 7.4 1.05 6.1 3.05 6.1" fill="#ffffff" fill-rule="evenodd" stroke="none"/>
  </g>
</svg>
