<?xml version="1.0" encoding="UTF-8" standalone="no"?>
<svg xmlns:ffdec="https://www.free-decompiler.com/flash" xmlns:xlink="http://www.w3.org/1999/xlink" ffdec:objectType="shape" height="28.7px" width="28.7px" xmlns="http://www.w3.org/2000/svg">
  <g transform="matrix(1.0, 0.0, 0.0, 1.0, 14.55, 42.0)">
    <path d="M13.15 -27.65 Q13.15 -22.15 9.2 -18.2 5.3 -14.3 -0.2 -14.3 -5.7 -14.3 -9.65 -18.2 -13.55 -22.15 -13.55 -27.65 -13.55 -33.15 -9.65 -37.1 -5.7 -41.0 -0.2 -41.0 5.3 -41.0 9.2 -37.1 13.15 -33.15 13.15 -27.65 Z" fill="none" stroke="#000000" stroke-linecap="butt" stroke-linejoin="miter-clip" stroke-miterlimit="3.0" stroke-opacity="0.3019608" stroke-width="2.0"/>
    <path d="M7.75 -32.8 Q7.75 -36.1 5.4 -38.4 L8.3 -36.2 Q11.85 -32.7 11.85 -27.65 11.85 -22.7 8.3 -19.15 4.8 -15.6 -0.2 -15.6 -5.15 -15.6 -8.7 -19.15 -12.25 -22.7 -12.25 -27.65 -12.25 -32.7 -8.7 -36.2 -7.3 -37.6 -5.7 -38.4 -8.05 -36.1 -8.05 -32.8 -8.05 -29.6 -5.7 -27.25 -3.4 -24.95 -0.15 -24.95 3.15 -24.95 5.4 -27.25 7.75 -29.6 7.75 -32.8" fill="url(#gradient0)" fill-rule="evenodd" stroke="none"/>
    <path d="M7.75 -32.8 Q7.75 -29.6 5.4 -27.25 3.15 -24.95 -0.15 -24.95 -3.4 -24.95 -5.7 -27.25 -8.05 -29.6 -8.05 -32.8 -8.05 -36.1 -5.7 -38.4 -7.3 -37.6 -8.7 -36.2 -12.25 -32.7 -12.25 -27.65 -12.25 -22.7 -8.7 -19.15 -5.15 -15.6 -0.2 -15.6 4.8 -15.6 8.3 -19.15 11.85 -22.7 11.85 -27.65 11.85 -32.7 8.3 -36.2 L5.4 -38.4 Q7.75 -36.1 7.75 -32.8 M9.25 -18.25 Q5.3 -14.3 -0.2 -14.3 -5.7 -14.3 -9.65 -18.25 -13.55 -22.15 -13.55 -27.65 -13.55 -33.2 -9.65 -37.1 -5.7 -41.0 -0.2 -41.0 5.3 -41.0 9.25 -37.1 13.15 -33.2 13.15 -27.65 13.15 -22.15 9.25 -18.25" fill="url(#gradient1)" fill-rule="evenodd" stroke="none"/>
    <path d="M0.05 -35.3 Q-1.35 -35.3 -2.35 -36.05 -3.3 -36.8 -3.3 -37.85 -3.3 -38.9 -2.35 -39.65 -1.35 -40.35 0.05 -40.35 1.45 -40.35 2.4 -39.65 3.4 -38.9 3.4 -37.8 3.4 -36.8 2.4 -36.05 1.45 -35.3 0.05 -35.3" fill="#ffffff" fill-rule="evenodd" stroke="none"/>
    <path d="M6.15 -35.75 Q5.65 -36.15 5.4 -36.7 5.2 -37.2 5.45 -37.55 5.7 -37.9 6.3 -37.8 6.85 -37.75 7.35 -37.35 L8.1 -36.4 Q8.3 -35.9 8.05 -35.55 7.8 -35.2 7.2 -35.3 6.7 -35.35 6.15 -35.75" fill="#ffffff" fill-rule="evenodd" stroke="none"/>
    <path d="M-7.05 -18.65 L-7.75 -19.65 Q-7.95 -20.15 -7.7 -20.45 -7.4 -20.75 -6.85 -20.7 -6.25 -20.65 -5.75 -20.2 L-5.05 -19.25 Q-4.8 -18.75 -5.1 -18.45 -5.35 -18.15 -5.95 -18.15 -6.5 -18.25 -7.05 -18.65" fill="#fff78a" fill-opacity="0.5019608" fill-rule="evenodd" stroke="none"/>
    <path d="M-3.0 -17.1 Q-3.35 -17.2 -3.55 -17.45 L-3.65 -17.85 -3.3 -18.15 -2.7 -18.1 -2.15 -17.8 -2.0 -17.4 -2.35 -17.1 -3.0 -17.1" fill="#fff78a" fill-opacity="0.5019608" fill-rule="evenodd" stroke="none"/>
    <path d="M4.9 -28.2 L5.25 -26.85 5.3 -26.15 5.3 -26.05 3.85 -20.45 3.65 -19.95 7.95 -20.55 Q9.65 -22.45 10.25 -24.8 L6.95 -23.95 7.05 -24.2 7.6 -26.8 7.65 -26.85 7.7 -27.4 7.75 -27.6 7.85 -28.25 7.8 -29.4 Q7.45 -32.0 5.45 -34.05 3.15 -36.3 -0.2 -36.3 -3.6 -36.3 -5.85 -34.05 -7.85 -32.0 -8.2 -29.4 L-8.25 -28.25 -8.0 -26.95 -8.0 -26.8 -7.35 -23.95 -10.55 -24.8 -10.65 -24.8 Q-10.0 -22.45 -8.25 -20.55 L-4.1 -19.95 -5.65 -25.55 -5.7 -26.05 -5.7 -26.15 -5.55 -27.5 -5.3 -28.2 Q-4.9 -29.2 -4.1 -30.0 -2.55 -31.55 -0.2 -31.55 2.1 -31.55 3.65 -30.0 4.5 -29.2 4.9 -28.2 Z" fill="none" stroke="url(#gradient2)" stroke-linecap="butt" stroke-linejoin="miter-clip" stroke-miterlimit="3.0" stroke-width="2.0"/>
    <path d="M5.2 -25.55 L5.3 -26.05 5.3 -26.15 5.25 -26.85 4.9 -28.2 Q4.5 -29.2 3.65 -30.0 2.1 -31.55 -0.2 -31.55 -2.55 -31.55 -4.1 -30.0 -4.9 -29.2 -5.3 -28.2 L-5.55 -27.5 -5.7 -26.15 -5.7 -26.05 -5.65 -25.55 Q-6.8 -26.05 -7.8 -26.8 L-8.0 -26.9 -8.0 -26.95 -8.25 -28.25 -8.2 -29.4 Q-7.85 -32.0 -5.85 -34.05 -3.6 -36.3 -0.2 -36.3 3.15 -36.3 5.45 -34.05 7.45 -32.0 7.8 -29.4 L7.85 -28.25 7.75 -27.6 7.7 -27.4 7.65 -26.85 7.45 -26.8 5.2 -25.55" fill="url(#gradient3)" fill-rule="evenodd" stroke="none"/>
    <path d="M-5.65 -25.55 L-4.1 -19.95 -8.25 -20.55 Q-10.0 -22.45 -10.65 -24.8 L-10.55 -24.8 -7.35 -23.95 -8.0 -26.8 -8.0 -26.9 -7.8 -26.8 Q-6.8 -26.05 -5.65 -25.55 M7.65 -26.85 L7.6 -26.8 7.05 -24.2 6.95 -23.95 10.25 -24.8 Q9.65 -22.45 7.95 -20.55 L3.65 -19.95 3.85 -20.45 5.2 -25.55 7.45 -26.8 7.65 -26.85" fill="#3c0018" fill-rule="evenodd" stroke="none"/>
    <path d="M7.85 -29.4 Q7.45 -31.8 5.5 -33.7 3.2 -35.8 -0.15 -35.8 -3.55 -35.8 -5.8 -33.7 -7.75 -31.8 -8.15 -29.4 -7.8 -32.05 -5.8 -34.05 -3.55 -36.35 -0.15 -36.35 3.2 -36.35 5.5 -34.05 7.5 -32.05 7.85 -29.4" fill="#ffffa3" fill-opacity="0.5019608" fill-rule="evenodd" stroke="none"/>
    <path d="M-8.25 -21.0 L-4.25 -20.45 -4.1 -19.95 -8.25 -20.55 Q-10.0 -22.45 -10.65 -24.85 L-10.55 -24.8 Q-9.9 -22.7 -8.25 -21.0 M7.95 -20.55 L3.65 -19.95 3.85 -20.45 7.95 -21.0 Q9.55 -22.7 10.25 -24.8 9.65 -22.45 7.95 -20.55" fill="#fea245" fill-opacity="0.5019608" fill-rule="evenodd" stroke="none"/>
  </g>
  <defs>
    <radialGradient cx="0" cy="0" gradientTransform="matrix(0.055, 0.0, 0.0, 0.0282, -1.1, -15.8)" gradientUnits="userSpaceOnUse" id="gradient0" r="819.2" spreadMethod="pad">
      <stop offset="0.3058823529411765" stop-color="#f84047"/>
      <stop offset="1.0" stop-color="#730039"/>
    </radialGradient>
    <radialGradient cx="0" cy="0" gradientTransform="matrix(0.031, 0.0, 0.0, 0.0202, -1.0, -41.8)" gradientUnits="userSpaceOnUse" id="gradient1" r="819.2" spreadMethod="pad">
      <stop offset="0.0" stop-color="#fea245"/>
      <stop offset="0.807843137254902" stop-color="#e52a49"/>
      <stop offset="1.0" stop-color="#b0005a"/>
    </radialGradient>
    <linearGradient gradientTransform="matrix(0.0, 0.0095, -0.0111, 0.0, -0.25, -29.05)" gradientUnits="userSpaceOnUse" id="gradient2" spreadMethod="pad" x1="-819.2" x2="819.2">
      <stop offset="0.0" stop-color="#ffff66" stop-opacity="0.5019608"/>
      <stop offset="1.0" stop-color="#fe9245" stop-opacity="0.5019608"/>
    </linearGradient>
    <radialGradient cx="0" cy="0" gradientTransform="matrix(0.025, 0.0, 0.0, 0.0165, -0.15, -34.85)" gradientUnits="userSpaceOnUse" id="gradient3" r="819.2" spreadMethod="pad">
      <stop offset="0.0" stop-color="#8a007d"/>
      <stop offset="1.0" stop-color="#47001c"/>
    </radialGradient>
  </defs>
</svg>
