<?xml version="1.0" encoding="UTF-8" standalone="no"?>
<svg xmlns:ffdec="https://www.free-decompiler.com/flash" xmlns:xlink="http://www.w3.org/1999/xlink" ffdec:objectType="shape" height="385.0px" width="387.15px" xmlns="http://www.w3.org/2000/svg">
  <g transform="matrix(1.0, 0.0, 0.0, 1.0, 194.1, 191.5)">
    <path d="M-0.55 -190.0 Q79.0 -190.0 135.25 -134.05 191.55 -78.1 191.55 1.0 191.55 80.1 135.25 136.05 79.0 192.0 -0.55 192.0 -80.1 192.0 -136.35 136.05 -192.6 80.1 -192.6 1.0 -192.6 -78.1 -136.35 -134.05 -80.1 -190.0 -0.55 -190.0" fill="url(#gradient0)" fill-rule="evenodd" stroke="none"/>
    <path d="M-0.55 -190.0 Q79.0 -190.0 135.25 -134.05 191.55 -78.1 191.55 1.0 191.55 80.1 135.25 136.05 79.0 192.0 -0.55 192.0 -80.1 192.0 -136.35 136.05 -192.6 80.1 -192.6 1.0 -192.6 -78.1 -136.35 -134.05 -80.1 -190.0 -0.55 -190.0 Z" fill="none" stroke="#232323" stroke-linecap="butt" stroke-linejoin="miter-clip" stroke-miterlimit="3.0" stroke-width="3.0"/>
    <path d="M0.05 0.0 L165.75 -70.35 Q194.85 -1.75 166.95 67.4 L0.05 0.0" fill="url(#gradient1)" fill-rule="evenodd" stroke="none"/>
    <path d="M0.05 0.0 L165.75 -70.35 Q194.85 -1.75 166.95 67.4 L0.05 0.0 Z" fill="none" stroke="#2a2a2a" stroke-linecap="butt" stroke-linejoin="miter-clip" stroke-miterlimit="3.0" stroke-width="2.5"/>
    <path d="M0.05 0.0 L166.95 67.4 Q138.95 136.5 70.35 165.65 L0.05 0.0" fill="url(#gradient2)" fill-rule="evenodd" stroke="none"/>
    <path d="M0.05 0.0 L166.95 67.4 Q138.95 136.5 70.35 165.65 L0.05 0.0 Z" fill="none" stroke="#2a2a2a" stroke-linecap="butt" stroke-linejoin="miter-clip" stroke-miterlimit="3.0" stroke-width="2.5"/>
    <path d="M70.35 165.65 Q1.7 194.8 -67.4 166.9 L0.05 0.0 70.35 165.65" fill="url(#gradient3)" fill-rule="evenodd" stroke="none"/>
    <path d="M70.35 165.65 Q1.7 194.8 -67.4 166.9 L0.05 0.0 70.35 165.65 Z" fill="none" stroke="#2a2a2a" stroke-linecap="butt" stroke-linejoin="miter-clip" stroke-miterlimit="3.0" stroke-width="2.5"/>
    <path d="M-165.65 70.35 L0.05 0.0 -67.4 166.9 Q-136.55 138.95 -165.65 70.35" fill="url(#gradient4)" fill-rule="evenodd" stroke="none"/>
    <path d="M-165.65 70.35 L0.05 0.0 -67.4 166.9 Q-136.55 138.95 -165.65 70.35 Z" fill="none" stroke="#2a2a2a" stroke-linecap="butt" stroke-linejoin="miter-clip" stroke-miterlimit="3.0" stroke-width="2.5"/>
    <path d="M-165.65 70.35 Q-194.8 1.7 -166.9 -67.45 L0.05 0.0 -165.65 70.35" fill="url(#gradient5)" fill-rule="evenodd" stroke="none"/>
    <path d="M-165.65 70.35 Q-194.8 1.7 -166.9 -67.45 L0.05 0.0 -165.65 70.35 Z" fill="none" stroke="#2a2a2a" stroke-linecap="butt" stroke-linejoin="miter-clip" stroke-miterlimit="3.0" stroke-width="2.5"/>
    <path d="M-70.3 -165.7 L0.05 0.0 -166.9 -67.45 Q-138.95 -136.55 -70.3 -165.7" fill="url(#gradient6)" fill-rule="evenodd" stroke="none"/>
    <path d="M-70.3 -165.7 L0.05 0.0 -166.9 -67.45 Q-138.95 -136.55 -70.3 -165.7 Z" fill="none" stroke="#2a2a2a" stroke-linecap="butt" stroke-linejoin="miter-clip" stroke-miterlimit="3.0" stroke-width="2.5"/>
    <path d="M0.05 0.0 L-70.3 -165.7 Q-1.7 -194.85 67.45 -166.95 L0.05 0.0" fill="url(#gradient7)" fill-rule="evenodd" stroke="none"/>
    <path d="M0.05 0.0 L-70.3 -165.7 Q-1.7 -194.85 67.45 -166.95 L0.05 0.0 Z" fill="none" stroke="#2a2a2a" stroke-linecap="butt" stroke-linejoin="miter-clip" stroke-miterlimit="3.0" stroke-width="2.5"/>
    <path d="M165.75 -70.35 L0.05 0.0 67.45 -166.95 Q136.6 -139.0 165.75 -70.35" fill="url(#gradient8)" fill-rule="evenodd" stroke="none"/>
    <path d="M165.75 -70.35 L0.05 0.0 67.45 -166.95 Q136.6 -139.0 165.75 -70.35 Z" fill="none" stroke="#2a2a2a" stroke-linecap="butt" stroke-linejoin="miter-clip" stroke-miterlimit="3.0" stroke-width="2.5"/>
  </g>
  <defs>
    <radialGradient cx="0" cy="0" gradientTransform="matrix(0.2369, 0.0, 0.0, 0.2369, -0.5, 1.0)" gradientUnits="userSpaceOnUse" id="gradient0" r="819.2" spreadMethod="pad">
      <stop offset="0.7490196078431373" stop-color="#1c1b1b"/>
      <stop offset="1.0" stop-color="#3c3c3c"/>
    </radialGradient>
    <linearGradient gradientTransform="matrix(0.1011, -0.0429, 0.0304, 0.0715, 107.75, 23.45)" gradientUnits="userSpaceOnUse" id="gradient1" spreadMethod="pad" x1="-819.2" x2="819.2">
      <stop offset="0.0" stop-color="#ff8811"/>
      <stop offset="1.0" stop-color="#743c03"/>
    </linearGradient>
    <linearGradient gradientTransform="matrix(0.0715, -0.0304, 0.0429, 0.1011, 93.8, 58.0)" gradientUnits="userSpaceOnUse" id="gradient2" spreadMethod="pad" x1="-819.2" x2="819.2">
      <stop offset="0.0" stop-color="#ffffff"/>
      <stop offset="1.0" stop-color="#5d5c5a"/>
    </linearGradient>
    <linearGradient gradientTransform="matrix(0.0715, -0.0304, 0.0429, 0.1011, -23.4, 107.7)" gradientUnits="userSpaceOnUse" id="gradient3" spreadMethod="pad" x1="-819.2" x2="819.2">
      <stop offset="0.0" stop-color="#ff8811"/>
      <stop offset="1.0" stop-color="#743c03"/>
      <stop offset="1.0" stop-color="#000000"/>
    </linearGradient>
    <linearGradient gradientTransform="matrix(0.1011, -0.0429, 0.0304, 0.0715, -57.95, 93.75)" gradientUnits="userSpaceOnUse" id="gradient4" spreadMethod="pad" x1="-819.2" x2="819.2">
      <stop offset="0.0" stop-color="#eeeeee"/>
      <stop offset="1.0" stop-color="#706d68"/>
    </linearGradient>
    <linearGradient gradientTransform="matrix(0.1011, -0.0429, 0.0304, 0.0715, -107.7, -23.45)" gradientUnits="userSpaceOnUse" id="gradient5" spreadMethod="pad" x1="-819.2" x2="819.2">
      <stop offset="0.0" stop-color="#ff8811"/>
      <stop offset="1.0" stop-color="#743c03"/>
    </linearGradient>
    <linearGradient gradientTransform="matrix(0.0715, -0.0304, 0.0429, 0.1011, -93.7, -58.0)" gradientUnits="userSpaceOnUse" id="gradient6" spreadMethod="pad" x1="-819.2" x2="819.2">
      <stop offset="0.0" stop-color="#ffffff"/>
      <stop offset="1.0" stop-color="#9c9c9c"/>
    </linearGradient>
    <linearGradient gradientTransform="matrix(0.0715, -0.0304, 0.0429, 0.1011, 23.5, -107.7)" gradientUnits="userSpaceOnUse" id="gradient7" spreadMethod="pad" x1="-819.2" x2="819.2">
      <stop offset="0.0" stop-color="#ff8811"/>
      <stop offset="1.0" stop-color="#743c03"/>
    </linearGradient>
    <linearGradient gradientTransform="matrix(0.1011, -0.0429, 0.0304, 0.0715, 58.0, -93.75)" gradientUnits="userSpaceOnUse" id="gradient8" spreadMethod="pad" x1="-819.2" x2="819.2">
      <stop offset="0.0" stop-color="#d4d3d2"/>
      <stop offset="1.0" stop-color="#6d6d6d"/>
    </linearGradient>
  </defs>
</svg>
