<?xml version="1.0" encoding="UTF-8" standalone="no"?>
<svg xmlns:ffdec="https://www.free-decompiler.com/flash" xmlns:xlink="http://www.w3.org/1999/xlink" ffdec:objectType="shape" height="211.1px" width="737.0px" xmlns="http://www.w3.org/2000/svg">
  <g transform="matrix(1.0, 0.0, 0.0, 1.0, 0.0, 0.0)">
    <path d="M677.65 95.6 Q677.65 109.85 672.9 122.1 L726.4 122.1 Q749.2 156.4 722.95 157.3 695.6 158.2 731.3 174.6 723.8 185.9 712.25 188.9 712.7 189.5 712.65 190.1 712.4 195.85 667.95 199.55 625.6 203.0 567.0 202.65 496.15 196.3 455.15 199.0 L449.3 199.4 448.6 200.1 Q437.65 211.1 422.1 211.1 407.6 211.1 397.05 201.5 L384.35 201.55 Q356.45 201.35 394.0 198.45 L393.7 198.1 Q351.5 198.35 317.2 200.1 L315.25 200.1 297.25 199.15 Q245.2 197.25 188.1 202.0 163.55 202.65 147.85 202.0 153.6 199.5 146.35 199.15 L146.05 199.15 133.95 198.65 118.5 198.45 112.3 198.85 111.8 199.15 113.05 200.55 37.0 197.9 18.35 197.8 16.35 197.85 0.0 197.85 Q45.5 196.6 53.6 188.35 64.95 185.95 69.95 190.6 69.8 189.25 71.3 187.75 72.8 186.2 77.45 186.55 73.8 183.95 77.95 182.05 82.1 180.2 85.8 180.6 92.3 178.4 97.35 179.6 L102.55 180.25 Q115.65 181.8 114.15 191.5 L114.65 191.45 Q118.05 187.65 124.85 189.9 L126.0 190.35 134.35 189.65 Q150.3 188.05 152.85 184.55 166.7 180.4 172.15 189.2 169.95 170.2 196.25 169.95 L220.75 171.1 Q216.0 156.45 236.35 151.55 251.8 152.7 253.7 157.75 L253.6 157.9 253.85 158.0 255.1 160.6 Q260.0 157.5 267.55 154.9 272.4 153.1 277.75 151.75 275.1 149.95 275.25 147.9 275.35 144.2 283.8 141.7 291.95 139.3 303.2 139.35 306.45 134.75 315.35 131.2 329.05 125.7 348.05 125.9 367.0 126.05 380.15 131.75 384.55 133.7 387.45 135.85 389.4 134.65 392.35 133.65 397.8 131.75 404.65 131.15 L404.6 129.6 Q404.6 118.6 412.35 110.85 420.1 103.1 431.1 103.1 L431.9 103.1 Q435.2 87.95 446.85 76.25 462.45 60.7 484.15 60.05 482.6 54.1 482.6 47.55 482.6 27.85 496.5 13.9 510.45 0.0 530.15 0.0 549.85 0.0 563.75 13.9 570.9 21.05 574.4 29.7 588.4 23.1 605.15 23.1 635.2 23.1 656.4 44.3 677.65 65.55 677.65 95.6" fill="#ffffd5" fill-opacity="0.36078432" fill-rule="evenodd" stroke="none"/>
  </g>
</svg>
