<?xml version="1.0" encoding="UTF-8" standalone="no"?>
<svg xmlns:ffdec="https://www.free-decompiler.com/flash" xmlns:xlink="http://www.w3.org/1999/xlink" ffdec:objectType="shape" height="122.35px" width="122.35px" xmlns="http://www.w3.org/2000/svg">
  <g transform="matrix(1.0, 0.0, 0.0, 1.0, 0.0, 0.0)">
    <path d="M85.15 4.65 Q95.65 9.1 104.4 17.85 L104.65 18.15 Q119.3 32.9 121.8 52.7 122.35 56.8 122.35 61.15 122.35 65.35 121.85 69.4 119.35 89.45 104.4 104.35 93.0 115.8 78.65 119.95 70.4 122.35 61.2 122.35 35.85 122.3 17.9 104.35 L15.7 102.0 15.4 101.75 Q2.95 87.9 0.6 69.9 0.0 65.65 0.0 61.15 0.0 47.9 4.9 36.7 L5.3 35.8 Q8.6 28.55 14.0 22.15 L14.95 21.1 17.9 17.85 Q24.5 11.3 32.05 7.15 L34.45 5.9 Q38.55 3.9 42.95 2.6 50.35 0.35 58.6 0.05 L61.2 0.0 Q69.2 -0.05 76.45 1.75 80.95 2.85 85.15 4.65" fill="url(#gradient0)" fill-rule="evenodd" stroke="none"/>
  </g>
  <defs>
    <radialGradient cx="0" cy="0" gradientTransform="matrix(0.0795, 0.0457, -0.0457, 0.0795, 51.35, 47.9)" gradientUnits="userSpaceOnUse" id="gradient0" r="819.2" spreadMethod="pad">
      <stop offset="0.18823529411764706" stop-color="#8ccad9"/>
      <stop offset="0.42745098039215684" stop-color="#5493bc"/>
      <stop offset="0.6352941176470588" stop-color="#415458"/>
      <stop offset="0.8862745098039215" stop-color="#3f6a74"/>
      <stop offset="1.0" stop-color="#4e768f"/>
    </radialGradient>
  </defs>
</svg>
