<?xml version="1.0" encoding="UTF-8" standalone="no"?>
<svg xmlns:ffdec="https://www.free-decompiler.com/flash" xmlns:xlink="http://www.w3.org/1999/xlink" ffdec:objectType="shape" height="62.4px" width="44.1px" xmlns="http://www.w3.org/2000/svg">
  <g transform="matrix(1.0, 0.0, 0.0, 1.0, -60.55, -64.0)">
    <path d="M104.65 65.95 L103.4 65.75 Q97.6 65.75 95.25 67.35 94.25 68.05 93.85 69.0 93.2 70.7 91.1 80.55 L89.9 84.65 Q88.25 89.45 86.55 89.6 L86.5 89.55 86.4 89.6 80.8 89.1 Q76.25 89.1 75.1 93.95 L75.1 94.1 75.1 94.15 75.05 94.5 75.0 94.7 74.3 103.95 74.3 104.0 73.95 108.4 73.9 109.9 73.85 110.65 73.8 112.4 73.8 112.5 73.9 112.4 76.05 110.05 Q81.65 108.5 83.6 107.35 85.05 106.45 86.1 105.0 L87.45 102.9 87.65 104.35 87.8 105.0 87.85 105.2 Q86.85 106.0 86.5 107.05 L81.35 110.15 Q77.65 112.4 76.65 113.5 L76.7 113.5 76.7 113.55 Q75.15 114.2 71.8 115.9 70.85 119.85 68.25 122.6 L68.05 122.8 67.95 122.9 67.85 123.0 67.7 123.2 67.5 123.35 67.15 123.65 67.05 123.75 66.9 123.85 66.7 124.0 66.6 124.1 66.45 124.2 66.3 124.35 61.3 126.35 60.55 126.4 Q67.1 119.25 66.5 111.55 70.1 109.6 71.45 107.45 L72.3 112.05 72.3 112.0 72.3 111.15 72.3 111.0 Q72.3 108.65 71.85 106.55 L71.75 106.15 69.65 100.9 69.2 100.2 69.5 99.05 Q71.9 91.0 78.1 86.85 L78.7 86.7 Q81.85 86.05 83.65 85.3 L84.85 84.65 85.65 84.0 86.15 83.4 86.2 83.35 Q87.0 83.15 87.1 81.9 L87.15 81.5 89.45 75.3 Q91.3 69.65 93.1 67.35 L93.7 66.65 Q94.7 65.75 100.5 64.75 L104.5 64.0 104.65 65.95" fill="#ff8f45" fill-rule="evenodd" stroke="none"/>
  </g>
</svg>
