<?xml version="1.0" encoding="UTF-8" standalone="no"?>
<svg xmlns:ffdec="https://www.free-decompiler.com/flash" xmlns:xlink="http://www.w3.org/1999/xlink" ffdec:objectType="shape" height="206.7px" width="147.15px" xmlns="http://www.w3.org/2000/svg">
  <g transform="matrix(1.0, 0.0, 0.0, 1.0, -81.75, -63.9)">
    <path d="M162.25 69.9 L162.3 69.4 Q174.25 63.9 182.8 63.9 L192.55 64.65 Q195.2 65.25 197.85 67.2 L198.55 67.75 199.5 68.45 199.35 68.9 Q207.7 81.4 207.7 92.4 207.7 96.85 203.45 113.7 199.15 130.5 199.15 131.4 201.5 126.45 208.85 115.4 216.15 104.45 218.9 101.65 222.15 104.9 225.35 114.55 228.9 125.25 228.9 134.75 228.9 153.7 220.05 176.5 211.2 199.15 200.55 207.7 224.7 207.7 224.7 223.1 224.7 232.9 200.6 252.8 191.9 260.0 183.2 265.85 177.95 269.4 175.45 270.6 176.55 266.95 176.55 263.35 176.55 247.7 173.2 242.05 169.5 235.9 159.6 237.3 L159.55 236.25 125.2 238.55 124.65 237.9 124.3 238.6 123.4 240.3 Q115.3 241.6 98.25 251.25 L95.8 252.7 97.1 251.0 Q95.15 250.25 92.1 249.65 L85.8 248.85 81.75 249.45 Q89.35 231.85 100.55 201.45 115.6 159.35 121.3 144.3 L143.5 150.9 144.7 146.6 148.4 148.4 Q156.25 152.0 164.4 154.45 172.35 156.8 176.55 156.8 180.0 156.8 186.45 155.45 179.55 156.7 165.0 144.15 150.3 131.5 152.1 120.85 L152.25 120.15 Q160.6 81.0 162.25 69.9" fill="#f5c778" fill-rule="evenodd" stroke="none"/>
  </g>
</svg>
