<?xml version="1.0" encoding="UTF-8" standalone="no"?>
<svg xmlns:ffdec="https://www.free-decompiler.com/flash" xmlns:xlink="http://www.w3.org/1999/xlink" ffdec:objectType="shape" height="131.8px" width="617.8px" xmlns="http://www.w3.org/2000/svg">
  <g transform="matrix(1.0, 0.0, 0.0, 1.0, 0.0, 0.0)">
    <path d="M616.3 114.0 L617.8 114.15 561.25 115.05 557.6 115.05 Q540.7 114.45 512.05 113.8 442.15 112.0 391.9 112.05 L399.35 111.45 Q393.2 107.55 389.3 104.45 394.55 101.95 396.35 98.9 404.05 109.2 506.5 111.7 586.15 113.7 616.3 114.0 M46.95 113.3 L53.3 112.85 53.3 113.0 46.95 113.3 M99.4 86.3 L100.0 84.15 Q102.25 76.7 108.9 72.65 119.45 66.4 131.2 71.95 122.55 72.25 121.2 79.6 120.65 82.55 122.55 85.25 123.45 86.7 124.5 87.95 134.45 98.85 148.25 100.1 162.1 101.3 171.55 100.6 181.05 99.9 192.65 96.7 228.3 90.25 248.95 77.0 266.05 68.05 273.85 84.55 273.2 80.7 273.2 76.7 273.2 59.4 285.4 47.15 297.55 34.95 314.85 35.0 319.8 34.95 324.3 36.0 332.0 37.7 338.6 42.3 L338.65 42.35 Q336.55 30.15 339.4 21.1 343.7 7.75 359.05 1.2 378.1 -4.2 382.6 14.55 L382.85 14.9 382.6 15.05 Q365.75 14.35 355.6 28.3 L353.2 32.0 Q346.85 42.8 350.0 54.05 L351.15 57.4 Q341.0 50.15 327.85 50.15 319.45 50.15 312.3 53.1 307.75 60.9 308.35 68.6 309.4 86.5 327.05 87.65 335.9 87.35 340.0 79.55 339.95 72.7 333.65 69.85 346.9 73.65 348.55 88.3 348.7 90.0 347.55 91.7 338.0 105.2 321.4 103.15 310.55 102.25 302.1 95.8 L299.25 93.6 Q287.35 84.15 290.35 74.55 287.05 82.1 287.05 91.0 287.05 95.4 287.8 99.5 279.8 97.25 269.35 93.25 258.4 89.1 239.35 98.05 222.95 105.85 164.75 108.85 114.35 109.3 99.4 86.3" fill="#ffffd5" fill-rule="evenodd" stroke="none"/>
    <path d="M616.3 114.0 Q586.15 113.7 506.5 111.7 404.05 109.2 396.35 98.9 394.55 101.95 389.3 104.45 393.2 107.55 399.35 111.45 L391.9 112.05 Q442.15 112.0 512.05 113.8 540.7 114.45 557.6 115.05 518.65 115.45 420.75 115.3 L360.3 115.8 356.7 119.85 Q344.75 131.8 327.85 131.8 311.15 131.8 299.25 120.1 L299.0 119.85 295.8 116.4 290.85 116.4 180.55 116.4 0.0 115.35 10.35 115.05 27.35 114.2 Q27.05 114.9 33.35 114.25 L39.35 113.7 43.55 113.5 43.4 113.6 43.65 113.5 46.95 113.3 53.3 113.0 53.3 112.85 56.0 112.65 56.35 112.55 56.15 112.55 62.4 111.6 Q92.5 106.9 102.25 104.55 97.2 97.5 99.4 86.3 114.35 109.3 164.75 108.85 222.95 105.85 239.35 98.05 258.4 89.1 269.35 93.25 279.8 97.25 287.8 99.5 287.05 95.4 287.05 91.0 287.05 82.1 290.35 74.55 287.35 84.15 299.25 93.6 L302.1 95.8 Q310.55 102.25 321.4 103.15 338.0 105.2 347.55 91.7 348.7 90.0 348.55 88.3 346.9 73.65 333.65 69.85 339.95 72.7 340.0 79.55 335.9 87.35 327.05 87.65 309.4 86.5 308.35 68.6 307.75 60.9 312.3 53.1 319.45 50.15 327.85 50.15 341.0 50.15 351.15 57.4 L350.0 54.05 Q346.85 42.8 353.2 32.0 L355.6 28.3 Q365.75 14.35 382.6 15.05 L383.0 15.4 Q388.9 30.8 382.6 44.25 379.85 50.2 385.5 69.6 L386.9 74.3 376.4 70.4 376.55 70.55 378.1 73.1 381.55 74.35 387.4 76.4 Q391.05 90.0 390.25 94.3 389.35 99.55 395.65 89.75 402.05 79.95 402.35 80.0 411.65 81.25 412.15 81.7 421.2 90.8 411.9 97.35 401.45 101.15 504.8 107.45 L616.3 114.0" fill="#e0cb85" fill-rule="evenodd" stroke="none"/>
    <path d="M382.85 14.9 L383.0 15.4 382.6 15.05 382.85 14.9" fill="#fcf8ef" fill-rule="evenodd" stroke="none"/>
  </g>
</svg>
