<?xml version="1.0" encoding="UTF-8" standalone="no"?>
<svg xmlns:ffdec="https://www.free-decompiler.com/flash" xmlns:xlink="http://www.w3.org/1999/xlink" ffdec:objectType="shape" height="131.8px" width="617.8px" xmlns="http://www.w3.org/2000/svg">
  <g transform="matrix(1.0, 0.0, 0.0, 1.0, 0.0, 0.0)">
    <path d="M234.95 14.9 L235.2 14.55 Q239.7 -4.2 258.75 1.2 274.1 7.75 278.4 21.1 281.25 30.15 279.15 42.35 L279.2 42.3 Q285.8 37.7 293.5 36.0 298.0 34.95 302.95 35.0 320.25 34.95 332.4 47.15 344.6 59.4 344.6 76.7 344.6 80.7 343.95 84.55 351.75 68.05 368.85 77.0 389.5 90.25 425.15 96.7 436.75 99.9 446.25 100.6 455.7 101.3 469.55 100.1 483.35 98.85 493.3 87.95 L495.25 85.25 Q497.15 82.55 496.6 79.6 495.25 72.25 486.6 71.95 498.35 66.4 508.9 72.65 515.55 76.7 517.8 84.15 L518.4 86.3 Q503.45 109.3 453.05 108.85 394.85 105.85 378.45 98.05 359.4 89.1 348.45 93.25 338.0 97.25 330.0 99.5 330.75 95.4 330.75 91.0 330.75 82.1 327.45 74.55 330.45 84.15 318.55 93.6 L315.7 95.8 Q307.25 102.25 296.4 103.15 279.8 105.2 270.25 91.7 269.1 90.0 269.25 88.3 270.9 73.65 284.15 69.85 277.85 72.7 277.8 79.55 281.9 87.35 290.75 87.65 308.4 86.5 309.45 68.6 310.05 60.9 305.5 53.1 298.35 50.15 289.95 50.15 276.8 50.15 266.65 57.4 L267.8 54.05 Q270.95 42.8 264.6 32.0 L262.2 28.3 Q252.05 14.35 235.2 15.05 L234.95 14.9 M564.5 112.85 L570.85 113.3 564.5 113.0 564.5 112.85 M60.2 115.05 L56.55 115.05 0.0 114.15 1.5 114.0 Q31.65 113.7 111.3 111.7 213.75 109.2 221.45 98.9 223.25 101.95 228.5 104.45 224.6 107.55 218.45 111.45 L225.9 112.05 Q175.65 112.0 105.75 113.8 77.1 114.45 60.2 115.05" fill="#ffffd5" fill-rule="evenodd" stroke="none"/>
    <path d="M235.2 15.05 Q252.05 14.35 262.2 28.3 L264.6 32.0 Q270.95 42.8 267.8 54.05 L266.65 57.4 Q276.8 50.15 289.95 50.15 298.35 50.15 305.5 53.1 310.05 60.9 309.45 68.6 308.4 86.5 290.75 87.65 281.9 87.35 277.8 79.55 277.85 72.7 284.15 69.85 270.9 73.65 269.25 88.3 269.1 90.0 270.25 91.7 279.8 105.2 296.4 103.15 307.25 102.25 315.7 95.8 L318.55 93.6 Q330.45 84.15 327.45 74.55 330.75 82.1 330.75 91.0 330.75 95.4 330.0 99.5 338.0 97.25 348.45 93.25 359.4 89.1 378.45 98.05 394.85 105.85 453.05 108.85 503.45 109.3 518.4 86.3 520.6 97.5 515.55 104.55 525.3 106.9 555.4 111.6 L561.65 112.55 561.5 112.55 561.8 112.65 564.5 112.85 564.5 113.0 570.85 113.3 574.15 113.5 574.45 113.6 574.25 113.5 578.45 113.7 584.45 114.25 Q590.75 114.9 590.45 114.2 L607.45 115.05 617.8 115.35 437.25 116.4 326.95 116.4 322.0 116.4 318.8 119.85 318.55 120.1 Q306.65 131.8 289.95 131.8 273.05 131.8 261.1 119.85 L257.5 115.8 197.05 115.3 Q99.15 115.45 60.2 115.05 77.1 114.45 105.75 113.8 175.65 112.0 225.9 112.05 L218.45 111.45 Q224.6 107.55 228.5 104.45 223.25 101.95 221.45 98.9 213.75 109.2 111.3 111.7 31.65 113.7 1.5 114.0 L113.0 107.45 Q216.35 101.15 205.9 97.35 196.6 90.8 205.65 81.7 206.15 81.25 215.45 80.0 215.75 79.95 222.15 89.75 228.45 99.55 227.55 94.3 226.75 90.0 230.4 76.4 L236.25 74.35 239.7 73.1 Q240.4 71.8 241.25 70.55 L241.45 70.4 230.9 74.3 232.3 69.6 Q237.95 50.2 235.2 44.25 228.9 30.8 234.8 15.4 L235.2 15.05" fill="#e0cb85" fill-rule="evenodd" stroke="none"/>
    <path d="M234.95 14.9 L235.2 15.05 234.8 15.4 234.95 14.9" fill="#fcf8ef" fill-rule="evenodd" stroke="none"/>
  </g>
</svg>
