<?xml version="1.0" encoding="UTF-8" standalone="no"?>
<svg xmlns:ffdec="https://www.free-decompiler.com/flash" xmlns:xlink="http://www.w3.org/1999/xlink" ffdec:objectType="shape" height="39.25px" width="477.2px" xmlns="http://www.w3.org/2000/svg">
  <g transform="matrix(1.0, 0.0, 0.0, 1.0, -59.1, -449.25)">
    <path d="M90.85 484.35 Q86.9 480.0 86.35 474.4 84.55 457.4 71.0 453.8 67.05 452.75 62.2 452.85 L60.75 452.9 59.3 453.2 59.1 452.2 152.35 449.5 152.35 449.25 160.25 449.25 160.25 449.5 185.5 450.25 350.9 450.35 350.9 450.4 480.95 450.45 480.95 450.6 536.3 452.2 536.1 453.2 534.65 452.9 533.2 452.85 Q511.35 452.5 509.1 474.4 508.45 480.0 504.55 484.35 501.1 488.15 496.0 488.5 L99.4 488.5 Q94.3 488.15 90.85 484.35" fill="#796f5a" fill-rule="evenodd" stroke="none"/>
  </g>
</svg>
