<?xml version="1.0" encoding="UTF-8" standalone="no"?>
<svg xmlns:ffdec="https://www.free-decompiler.com/flash" xmlns:xlink="http://www.w3.org/1999/xlink" ffdec:objectType="shape" height="36.85px" width="946.8px" xmlns="http://www.w3.org/2000/svg">
  <g transform="matrix(1.0, 0.0, 0.0, 1.0, 166.65, -43.75)">
    <path d="M-143.25 45.25 Q-152.7 52.1 -152.7 61.9 -152.7 71.65 -143.25 78.55 L-140.2 80.55 Q-151.1 80.5 -158.75 75.2 -166.6 69.8 -166.6 62.15 -166.6 54.55 -158.75 49.2 -151.45 44.1 -141.15 43.8 -142.25 44.45 -143.25 45.25" fill="url(#gradient0)" fill-rule="evenodd" stroke="none"/>
    <path d="M756.75 45.8 Q766.2 52.7 766.2 62.45 766.2 72.2 756.75 79.1 764.9 80.25 772.25 75.15 780.1 69.8 780.1 62.15 780.1 54.55 772.25 49.15 764.55 43.85 753.65 43.8 L756.75 45.8" fill="url(#gradient1)" fill-rule="evenodd" stroke="none"/>
    <path d="M756.75 45.8 Q766.2 52.7 766.2 62.45 766.2 72.2 756.75 79.1 764.9 80.25 772.25 75.15 780.1 69.8 780.1 62.15 780.1 54.55 772.25 49.15 764.55 43.85 753.65 43.8 L756.75 45.8 M-143.25 45.25 Q-152.7 52.1 -152.7 61.9 -152.7 71.65 -143.25 78.55 L-140.2 80.55 Q-151.1 80.5 -158.75 75.2 -166.6 69.8 -166.6 62.15 -166.6 54.55 -158.75 49.2 -151.45 44.1 -141.15 43.8 -142.25 44.45 -143.25 45.25 Z" ffdec:has-small-stroke="true" ffdec:original-stroke-width="0.1" fill="none" stroke="#000000" stroke-linecap="butt" stroke-linejoin="miter-clip" stroke-miterlimit="3.0" stroke-opacity="0.0" stroke-width="1.0"/>
  </g>
  <defs>
    <radialGradient cx="0" cy="0" gradientTransform="matrix(0.0281, 0.0, 0.0, 0.0281, -153.4, 62.15)" gradientUnits="userSpaceOnUse" id="gradient0" r="819.2" spreadMethod="pad">
      <stop offset="0.0" stop-color="#ff9900"/>
      <stop offset="1.0" stop-color="#ff9900"/>
    </radialGradient>
    <radialGradient cx="0" cy="0" gradientTransform="matrix(0.0281, 0.0, 0.0, 0.0281, 766.85, 62.15)" gradientUnits="userSpaceOnUse" id="gradient1" r="819.2" spreadMethod="pad">
      <stop offset="0.0" stop-color="#ff9900"/>
      <stop offset="1.0" stop-color="#ff9900"/>
    </radialGradient>
  </defs>
</svg>
