<?xml version="1.0" encoding="UTF-8" standalone="no"?>
<svg xmlns:ffdec="https://www.free-decompiler.com/flash" xmlns:xlink="http://www.w3.org/1999/xlink" ffdec:objectType="shape" height="36.85px" width="922.3px" xmlns="http://www.w3.org/2000/svg">
  <g transform="matrix(1.0, 0.0, 0.0, 1.0, 154.4, -43.75)">
    <path d="M-131.0 45.25 Q-140.45 52.1 -140.45 61.9 -140.45 71.65 -131.0 78.55 L-127.95 80.55 Q-138.85 80.5 -146.5 75.2 -154.35 69.8 -154.35 62.15 -154.35 54.55 -146.5 49.2 -139.2 44.1 -128.9 43.8 L-131.0 45.25" fill="url(#gradient0)" fill-rule="evenodd" stroke="none"/>
    <path d="M741.4 43.8 L744.5 45.8 Q753.95 52.7 753.95 62.45 753.95 72.2 744.5 79.1 752.65 80.25 760.0 75.15 767.85 69.8 767.85 62.15 767.85 54.55 760.0 49.15 752.3 43.85 741.4 43.8" fill="url(#gradient1)" fill-rule="evenodd" stroke="none"/>
    <path d="M741.4 43.8 L744.5 45.8 Q753.95 52.7 753.95 62.45 753.95 72.2 744.5 79.1 752.65 80.25 760.0 75.15 767.85 69.8 767.85 62.15 767.85 54.55 760.0 49.15 752.3 43.85 741.4 43.8 M-131.0 45.25 Q-140.45 52.1 -140.45 61.9 -140.45 71.65 -131.0 78.55 L-127.95 80.55 Q-138.85 80.5 -146.5 75.2 -154.35 69.8 -154.35 62.15 -154.35 54.55 -146.5 49.2 -139.2 44.1 -128.9 43.8 L-131.0 45.25 Z" ffdec:has-small-stroke="true" ffdec:original-stroke-width="0.1" fill="none" stroke="#000000" stroke-linecap="butt" stroke-linejoin="miter-clip" stroke-miterlimit="3.0" stroke-opacity="0.0" stroke-width="1.0"/>
  </g>
  <defs>
    <radialGradient cx="0" cy="0" gradientTransform="matrix(0.0281, 0.0, 0.0, 0.0281, -141.15, 62.15)" gradientUnits="userSpaceOnUse" id="gradient0" r="819.2" spreadMethod="pad">
      <stop offset="0.0" stop-color="#ff9900"/>
      <stop offset="1.0" stop-color="#ff9900"/>
    </radialGradient>
    <radialGradient cx="0" cy="0" gradientTransform="matrix(0.0281, 0.0, 0.0, 0.0281, 754.6, 62.15)" gradientUnits="userSpaceOnUse" id="gradient1" r="819.2" spreadMethod="pad">
      <stop offset="0.0" stop-color="#ff9900"/>
      <stop offset="1.0" stop-color="#ff9900"/>
    </radialGradient>
  </defs>
</svg>
