<?xml version="1.0" encoding="UTF-8" standalone="no"?>
<svg xmlns:ffdec="https://www.free-decompiler.com/flash" xmlns:xlink="http://www.w3.org/1999/xlink" ffdec:objectType="shape" height="26.7px" width="300.8px" xmlns="http://www.w3.org/2000/svg">
  <g transform="matrix(1.0, 0.0, 0.0, 1.0, 0.0, 0.0)">
    <path d="M298.65 24.25 L299.65 24.2 300.65 24.0 300.8 24.7 237.3 26.55 237.3 26.7 231.9 26.7 231.9 26.55 214.75 26.05 140.7 26.0 140.7 25.95 37.65 25.9 37.65 25.75 0.0 24.7 0.15 24.0 1.15 24.2 2.1 24.25 Q16.95 24.45 18.5 9.55 18.9 5.75 21.6 2.8 23.95 0.2 27.4 0.0 L273.35 0.0 Q276.8 0.2 279.15 2.8 281.8 5.75 282.25 9.55 283.45 21.15 292.7 23.6 L298.65 24.25" fill="#796f5a" fill-rule="evenodd" stroke="none"/>
  </g>
</svg>
