<?xml version="1.0" encoding="UTF-8" standalone="no"?>
<svg xmlns:ffdec="https://www.free-decompiler.com/flash" xmlns:xlink="http://www.w3.org/1999/xlink" ffdec:objectType="shape" height="85.1px" width="429.0px" xmlns="http://www.w3.org/2000/svg">
  <g transform="matrix(1.0, 0.0, 0.0, 1.0, 0.0, 0.0)">
    <path d="M429.0 22.1 L428.85 85.1 422.0 85.1 422.0 64.0 418.5 64.0 418.5 51.75 366.55 51.75 366.55 48.7 337.45 49.55 337.45 49.7 332.05 49.7 332.05 49.55 314.9 49.05 288.05 49.05 237.3 50.55 237.3 50.7 231.9 50.7 231.9 50.55 214.75 50.05 140.7 50.0 140.7 49.95 37.65 49.9 37.65 49.75 0.0 48.7 0.15 48.0 1.15 48.2 2.1 48.25 Q9.0 48.35 13.4 44.65 18.05 40.75 18.05 34.0 L18.05 9.9 Q18.15 6.5 21.15 3.25 23.45 0.7 26.95 0.45 L404.0 0.0 Q414.4 0.0 421.65 6.5 429.0 12.95 429.0 22.1" fill="#796f5a" fill-rule="evenodd" stroke="none"/>
  </g>
</svg>
