<?xml version="1.0" encoding="UTF-8" standalone="no"?>
<svg xmlns:ffdec="https://www.free-decompiler.com/flash" xmlns:xlink="http://www.w3.org/1999/xlink" ffdec:objectType="shape" height="395.95px" width="725.85px" xmlns="http://www.w3.org/2000/svg">
  <g transform="matrix(1.0, 0.0, 0.0, 1.0, 22.6, -92.4)">
    <path d="M695.9 98.9 Q703.25 105.35 703.25 114.5 L703.25 431.6 Q703.25 440.7 695.9 447.15 688.6 453.65 678.25 453.65 L67.75 453.65 Q57.4 453.65 50.05 447.15 42.75 440.7 42.75 431.6 L42.75 114.5 Q42.75 105.35 50.05 98.9 57.4 92.4 67.75 92.4 L678.25 92.4 Q688.6 92.4 695.9 98.9" fill="#796f5a" fill-rule="evenodd" stroke="none"/>
    <path d="M-22.55 147.65 L-22.55 147.6 -21.95 147.85 -21.95 147.9 -22.55 147.65" fill="url(#gradient0)" fill-rule="evenodd" stroke="none"/>
    <path d="M-22.55 170.6 L-22.55 170.65 -22.6 170.6 -22.55 170.6" fill="url(#gradient1)" fill-rule="evenodd" stroke="none"/>
    <path d="M571.25 461.9 L690.6 461.85 Q699.75 462.05 700.05 469.05 L700.05 481.2 Q699.75 488.15 690.6 488.35 L571.25 488.35 571.25 461.9" fill="#433d34" fill-rule="evenodd" stroke="none"/>
    <path d="M571.25 461.9 L571.25 488.35 439.4 488.35 439.4 461.9 571.25 461.9" fill="url(#gradient2)" fill-rule="evenodd" stroke="none"/>
  </g>
  <defs>
    <linearGradient gradientTransform="matrix(0.9108, 0.0, 0.0, 0.9463, -24.9, -82.05)" gradientUnits="userSpaceOnUse" id="gradient0" spreadMethod="pad" x1="-819.2" x2="819.2">
      <stop offset="0.08235294117647059" stop-color="#ac9a72"/>
      <stop offset="1.0" stop-color="#756448"/>
    </linearGradient>
    <linearGradient gradientTransform="matrix(0.9108, 0.0, 0.0, 0.9463, -24.9, -59.05)" gradientUnits="userSpaceOnUse" id="gradient1" spreadMethod="pad" x1="-819.2" x2="819.2">
      <stop offset="0.08235294117647059" stop-color="#ac9a72"/>
      <stop offset="1.0" stop-color="#756448"/>
    </linearGradient>
    <linearGradient gradientTransform="matrix(0.0805, 0.0, 0.0, 0.0161, 505.3, 475.1)" gradientUnits="userSpaceOnUse" id="gradient2" spreadMethod="pad" x1="-819.2" x2="819.2">
      <stop offset="0.0" stop-color="#000000"/>
      <stop offset="1.0" stop-color="#433d34"/>
    </linearGradient>
  </defs>
</svg>
