<?xml version="1.0" encoding="UTF-8" standalone="no"?>
<svg xmlns:ffdec="https://www.free-decompiler.com/flash" xmlns:xlink="http://www.w3.org/1999/xlink" ffdec:objectType="shape" height="8.05px" width="14.45px" xmlns="http://www.w3.org/2000/svg">
  <g transform="matrix(1.0, 0.0, 0.0, 1.0, -0.75, -4.0)">
    <path d="M12.45 4.5 L9.75 4.5 9.6 4.55 9.55 4.65 8.15 11.3 8.2 11.4 8.2 11.5 8.35 11.55 9.7 11.55 9.9 11.5 9.95 11.35 10.45 9.05 12.35 9.0 13.25 8.75 13.3 8.75 14.0 8.25 14.5 7.45 14.7 6.4 14.45 5.35 13.65 4.7 12.45 4.5 M12.65 6.1 L12.8 6.25 12.85 6.5 12.7 7.05 12.25 7.35 10.9 7.5 10.8 7.5 11.05 6.0 11.85 6.0 12.65 6.1 M7.2 4.6 L5.5 6.6 4.45 4.6 4.4 4.55 4.25 4.5 2.8 4.5 2.7 4.55 2.6 4.65 2.65 4.85 4.2 7.95 1.4 11.2 1.35 11.35 1.4 11.5 1.55 11.55 3.4 11.55 5.05 9.65 6.0 11.5 6.15 11.55 7.7 11.55 7.8 11.5 7.9 11.35 6.35 8.2 9.25 4.9 9.3 4.7 9.1 4.5 7.35 4.5 7.3 4.55 7.2 4.6 Z" fill="none" stroke="#13375b" stroke-linecap="round" stroke-linejoin="miter-clip" stroke-miterlimit="3.0" stroke-width="1.0"/>
    <path d="M7.2 4.55 L7.3 4.5 9.1 4.5 9.25 4.55 9.3 4.7 9.25 4.85 6.35 8.2 7.9 11.2 7.95 11.35 7.85 11.5 7.7 11.55 6.15 11.55 6.05 11.5 5.95 11.4 5.1 9.65 3.45 11.5 3.35 11.55 1.6 11.55 1.45 11.5 1.35 11.3 1.4 11.15 4.25 7.95 2.65 4.8 2.65 4.65 2.7 4.55 2.85 4.5 4.4 4.5 4.5 4.6 5.5 6.55 7.2 4.55 M12.45 4.5 L13.7 4.65 14.45 5.35 14.75 6.35 14.5 7.45 14.0 8.25 13.3 8.75 12.4 9.0 10.45 9.05 10.0 11.35 9.9 11.5 9.75 11.55 8.4 11.55 8.25 11.5 8.2 11.4 8.15 11.25 9.55 4.65 9.65 4.55 9.75 4.5 12.45 4.5 M11.9 6.0 L11.1 6.0 10.8 7.45 12.3 7.35 12.75 7.0 12.9 6.5 12.85 6.25 12.65 6.1 11.9 6.0" fill="#4e94da" fill-rule="evenodd" stroke="none"/>
  </g>
</svg>
