<?xml version="1.0" encoding="UTF-8" standalone="no"?>
<svg xmlns:ffdec="https://www.free-decompiler.com/flash" xmlns:xlink="http://www.w3.org/1999/xlink" ffdec:objectType="shape" height="44.85px" width="111.45px" xmlns="http://www.w3.org/2000/svg">
  <g transform="matrix(1.0, 0.0, 0.0, 1.0, 0.0, -18.75)">
    <path d="M102.75 28.05 Q103.4 27.7 104.2 27.5 L107.6 26.5 Q111.75 31.9 111.4 38.1 110.65 49.75 93.8 57.2 76.95 64.65 53.9 63.45 30.85 62.25 15.1 53.1 -0.7 44.0 0.05 32.35 0.3 27.95 2.85 24.2 3.0 25.25 4.05 25.9 5.3 26.6 7.95 27.2 9.0 27.45 9.75 28.0 L18.75 18.75 85.75 21.75 102.75 28.05" fill="url(#gradient0)" fill-rule="evenodd" stroke="none"/>
  </g>
  <defs>
    <radialGradient cx="0" cy="0" gradientTransform="matrix(4.0E-4, -0.0232, 0.0597, -4.0E-4, 55.7, 35.2)" gradientUnits="userSpaceOnUse" id="gradient0" r="819.2" spreadMethod="pad">
      <stop offset="0.0" stop-color="#342c21"/>
      <stop offset="1.0" stop-color="#ebe3cb"/>
    </radialGradient>
  </defs>
</svg>
