<?xml version="1.0" encoding="UTF-8" standalone="no"?>
<svg xmlns:ffdec="https://www.free-decompiler.com/flash" xmlns:xlink="http://www.w3.org/1999/xlink" ffdec:objectType="shape" height="59.35px" width="39.2px" xmlns="http://www.w3.org/2000/svg">
  <g transform="matrix(1.0, 0.0, 0.0, 1.0, 0.0, 0.0)">
    <path d="M39.2 15.35 Q39.2 19.3 38.1 22.35 36.9 25.4 34.8 27.65 32.7 29.85 29.75 31.6 26.8 33.35 23.1 34.8 L23.1 43.75 9.35 43.75 9.35 30.55 14.35 29.05 Q16.6 28.25 19.05 26.5 21.35 24.95 22.7 22.85 24.0 20.75 24.0 18.15 24.0 14.25 21.5 12.6 18.95 10.9 14.35 10.9 11.55 10.9 8.05 12.1 4.5 13.35 1.55 15.25 L0.0 15.25 0.0 3.35 Q2.5 2.3 7.7 1.15 12.9 0.0 18.25 0.0 27.9 0.0 33.55 4.25 39.2 8.5 39.2 15.35 M24.15 49.05 L24.15 59.35 8.4 59.35 8.4 49.05 24.15 49.05" fill="#39342d" fill-rule="evenodd" stroke="none"/>
  </g>
</svg>
