<?xml version="1.0" encoding="UTF-8" standalone="no"?>
<svg xmlns:ffdec="https://www.free-decompiler.com/flash" xmlns:xlink="http://www.w3.org/1999/xlink" ffdec:objectType="shape" height="80.95px" width="225.95px" xmlns="http://www.w3.org/2000/svg">
  <g transform="matrix(1.0, 0.0, 0.0, 1.0, 102.45, 39.95)">
    <path d="M117.8 -38.95 Q122.5 -38.95 122.5 -35.75 L122.5 36.8 Q122.5 40.0 117.8 40.0 L-96.75 40.0 Q-101.45 40.0 -101.45 36.8 L-101.45 -35.75 Q-101.45 -38.95 -96.75 -38.95 L117.8 -38.95" fill="#dad6b8" fill-rule="evenodd" stroke="none"/>
    <path d="M117.8 -38.95 L-96.75 -38.95 Q-101.45 -38.95 -101.45 -35.75 L-101.45 36.8 Q-101.45 40.0 -96.75 40.0 L117.8 40.0 Q122.5 40.0 122.5 36.8 L122.5 -35.75 Q122.5 -38.95 117.8 -38.95 Z" fill="none" stroke="#beb998" stroke-linecap="butt" stroke-linejoin="miter-clip" stroke-miterlimit="3.0" stroke-width="2.0"/>
    <path d="M120.35 -10.9 L120.35 15.05 -100.5 15.05 -100.5 -10.9 120.35 -10.9" fill="#e4e1cb" fill-rule="evenodd" stroke="none"/>
  </g>
</svg>
