<?xml version="1.0" encoding="UTF-8" standalone="no"?>
<svg xmlns:ffdec="https://www.free-decompiler.com/flash" xmlns:xlink="http://www.w3.org/1999/xlink" ffdec:objectType="shape" height="36.95px" width="28.35px" xmlns="http://www.w3.org/2000/svg">
  <g transform="matrix(1.0, 0.0, 0.0, 1.0, 23.25, 17.45)">
    <path d="M1.85 -15.2 Q-7.4 -8.45 -7.55 1.1 L-7.6 1.1 Q-7.35 10.5 1.8 17.25 L4.9 19.25 Q-1.9 20.3 -7.7 15.55 -13.5 10.75 -23.2 1.0 -13.5 -8.75 -7.65 -13.5 -1.85 -18.3 4.95 -17.2 L1.85 -15.2" fill="#ffff00" fill-rule="evenodd" stroke="none"/>
    <path d="M1.85 -15.2 Q-7.4 -8.45 -7.55 1.1 L-7.6 1.1 Q-7.35 10.5 1.8 17.25 L4.9 19.25 Q-1.9 20.3 -7.7 15.55 -13.5 10.75 -23.2 1.0 -13.5 -8.75 -7.65 -13.5 -1.85 -18.3 4.95 -17.2 L1.85 -15.2 Z" ffdec:has-small-stroke="true" ffdec:original-stroke-width="0.1" fill="none" stroke="#000000" stroke-linecap="butt" stroke-linejoin="miter-clip" stroke-miterlimit="3.0" stroke-opacity="0.0" stroke-width="1.0"/>
  </g>
</svg>
