<?xml version="1.0" encoding="UTF-8" standalone="no"?>
<svg xmlns:ffdec="https://www.free-decompiler.com/flash" xmlns:xlink="http://www.w3.org/1999/xlink" ffdec:objectType="shape" height="36.95px" width="28.3px" xmlns="http://www.w3.org/2000/svg">
  <g transform="matrix(1.0, 0.0, 0.0, 1.0, 3.25, 17.45)">
    <path d="M-0.05 -15.2 Q9.2 -8.45 9.4 1.1 9.15 10.5 0.0 17.25 L-3.1 19.25 Q3.7 20.3 9.5 15.55 15.3 10.75 25.0 1.0 15.3 -8.75 9.5 -13.5 3.65 -18.3 -3.15 -17.2 -1.55 -16.3 -0.05 -15.2" fill="#ffff00" fill-rule="evenodd" stroke="none"/>
    <path d="M-0.05 -15.2 Q9.2 -8.45 9.4 1.1 9.15 10.5 0.0 17.25 L-3.1 19.25 Q3.7 20.3 9.5 15.55 15.3 10.75 25.0 1.0 15.3 -8.75 9.5 -13.5 3.65 -18.3 -3.15 -17.2 -1.55 -16.3 -0.05 -15.2 Z" ffdec:has-small-stroke="true" ffdec:original-stroke-width="0.1" fill="none" stroke="#000000" stroke-linecap="butt" stroke-linejoin="miter-clip" stroke-miterlimit="3.0" stroke-opacity="0.0" stroke-width="1.0"/>
  </g>
</svg>
