<?xml version="1.0" encoding="UTF-8" standalone="no"?>
<svg xmlns:ffdec="https://www.free-decompiler.com/flash" xmlns:xlink="http://www.w3.org/1999/xlink" ffdec:objectType="shape" height="207.85px" width="113.35px" xmlns="http://www.w3.org/2000/svg">
  <g transform="matrix(1.0, 0.0, 0.0, 1.0, 0.1, 1.95)">
    <path d="M107.1 0.8 Q105.55 0.1 103.5 0.05 L10.3 0.05 Q6.0 0.15 4.1 2.95 6.0 0.15 10.3 0.05 L103.5 0.05 Q105.55 0.1 107.1 0.8 L107.1 1.0 107.5 1.0 Q111.25 3.0 111.25 9.3 L111.2 123.3 111.25 9.3 Q111.25 3.0 107.5 1.0 L109.35 1.0 109.35 2.25 111.4 2.25 111.4 123.05 111.2 123.3 110.25 124.3 110.25 149.9 104.2 164.0 101.55 170.2 97.75 165.5 91.2 157.4 85.2 136.6 63.05 121.9 63.25 110.7 36.65 71.5 47.2 57.15 50.95 52.0 35.45 46.5 17.7 30.45 2.55 16.8 2.55 9.3 Q2.55 5.7 3.8 3.5 2.55 5.7 2.55 9.3 L2.55 16.8 1.15 15.5 1.35 3.5 3.8 3.5 4.1 3.5 4.1 2.95 4.1 0.0 107.1 0.0 107.1 0.8 M61.9 37.1 L51.3 51.65 50.95 52.0 51.3 51.65 61.9 37.1 M110.25 111.55 L110.25 124.3 110.25 111.55" fill="url(#gradient0)" fill-rule="evenodd" stroke="none"/>
    <path d="M2.55 16.8 L17.7 30.45 4.95 55.75 2.55 65.15 1.15 70.6 1.15 15.5 2.55 16.8 2.55 65.15 2.55 16.8 M97.75 165.5 L101.55 170.2 99.45 175.2 97.75 165.5 M85.45 172.25 L88.9 183.45 91.05 194.25 93.15 203.9 93.2 204.3 93.3 204.75 79.1 204.75 79.25 203.9 85.45 172.25 M47.25 203.9 L48.05 166.05 66.25 180.65 71.35 203.9 71.5 204.75 47.25 204.75 47.25 203.9 71.35 203.9 47.25 203.9 M93.15 203.9 L79.25 203.9 93.15 203.9" fill="url(#gradient1)" fill-rule="evenodd" stroke="none"/>
    <path d="M17.7 30.45 L35.45 46.5 47.2 57.15 36.65 71.5 27.6 83.85 27.85 104.85 28.15 125.1 18.4 140.7 10.1 153.9 6.8 172.15 2.6 192.8 2.45 192.7 2.55 65.15 2.45 192.7 1.15 191.9 1.15 70.6 2.55 65.15 4.95 55.75 17.7 30.45 M35.55 69.9 L36.65 71.5 35.55 69.9" fill="url(#gradient2)" fill-rule="evenodd" stroke="none"/>
    <path d="M27.85 104.85 L27.6 83.85 36.65 71.5 63.25 110.7 63.05 121.9 62.85 132.75 82.55 162.7 85.45 172.25 79.25 203.9 71.75 203.9 79.25 203.9 79.1 204.75 71.95 204.75 71.85 204.3 71.75 203.9 69.8 194.25 66.85 182.45 66.25 180.65 48.05 166.05 48.05 156.25 27.85 104.85" fill="url(#gradient3)" fill-rule="evenodd" stroke="none"/>
    <path d="M35.45 46.5 L50.95 52.0 47.2 57.15 35.45 46.5" fill="url(#gradient4)" fill-rule="evenodd" stroke="none"/>
    <path d="M63.05 121.9 L85.2 136.6 91.2 157.4 97.75 165.5 99.45 175.2 Q98.7 176.8 98.7 183.8 L98.7 184.0 98.7 184.1 Q98.6 188.25 98.8 194.25 L99.25 203.9 93.15 203.9 99.25 203.9 99.3 204.3 99.3 204.75 93.3 204.75 93.2 204.3 93.15 203.9 91.05 194.25 88.9 183.45 85.45 172.25 82.55 162.7 62.85 132.75 63.05 121.9" fill="url(#gradient5)" fill-rule="evenodd" stroke="none"/>
    <path d="M18.4 140.7 L28.15 125.1 27.85 104.85 48.05 156.25 48.05 166.05 47.25 203.9 28.95 203.9 47.25 203.9 47.25 204.75 29.1 204.75 29.0 204.3 28.95 203.9 18.4 140.7" fill="url(#gradient6)" fill-rule="evenodd" stroke="none"/>
    <path d="M2.6 192.8 L6.8 172.15 10.1 153.9 18.4 140.7 28.95 203.9 10.5 203.9 Q4.35 203.9 2.9 198.55 L2.65 197.4 2.9 198.55 Q4.35 203.9 10.5 203.9 L28.95 203.9 29.0 204.3 8.75 204.3 Q4.55 204.3 2.65 200.55 L2.65 197.4 2.65 196.1 2.5 196.1 1.85 196.1 2.25 194.25 2.45 193.4 2.45 194.65 2.5 196.1 2.45 194.65 2.45 193.4 2.6 192.85 2.6 192.8" fill="url(#gradient7)" fill-rule="evenodd" stroke="none"/>
    <path d="M2.45 192.7 L2.6 192.8 2.6 192.85 2.45 192.75 1.15 191.9 2.45 192.7 2.45 192.75 2.45 192.7" fill="url(#gradient8)" fill-rule="evenodd" stroke="none"/>
    <path d="M2.45 192.75 L2.6 192.85 2.45 193.4 2.25 194.25 1.85 196.1 1.4 196.1 1.2 194.25 1.15 191.9 2.45 192.75 2.45 193.4 2.45 192.75" fill="#debe78" fill-rule="evenodd" stroke="none"/>
    <path d="M66.25 180.65 L66.85 182.45 69.8 194.25 71.75 203.9 71.35 203.9 71.75 203.9 71.85 204.3 71.95 204.75 71.5 204.75 71.35 203.9 66.25 180.65" fill="#bb9e63" fill-rule="evenodd" stroke="none"/>
    <path d="M111.2 123.3 L111.4 123.05 111.4 184.9 111.15 184.15 104.2 164.0 110.25 149.9 110.25 124.3 111.2 123.3 111.15 184.15 111.2 123.3" fill="url(#gradient9)" fill-rule="evenodd" stroke="none"/>
    <path d="M101.55 170.2 L104.2 164.0 111.15 184.15 111.4 184.9 111.4 200.95 109.6 200.95 Q111.15 198.7 111.15 194.65 L111.15 184.15 111.15 194.65 Q111.15 198.7 109.6 200.95 L108.35 200.95 108.35 202.35 108.35 204.75 99.3 204.75 99.3 204.3 99.25 203.9 98.8 194.25 Q98.6 188.25 98.7 184.1 L98.7 184.0 98.7 183.8 Q98.7 176.8 99.45 175.2 L101.55 170.2 M99.25 203.9 L103.1 203.9 Q105.4 203.9 107.05 203.15 L108.35 202.35 107.05 203.15 Q105.4 203.9 103.1 203.9 L99.25 203.9" fill="url(#gradient10)" fill-rule="evenodd" stroke="none"/>
    <path d="M4.1 2.95 Q6.0 0.15 10.3 0.05 L103.5 0.05 Q105.55 0.1 107.1 0.8 L107.5 1.0 Q111.25 3.0 111.25 9.3 L111.2 123.3 111.15 184.15 111.15 194.65 Q111.15 198.7 109.6 200.95 L108.35 202.35 107.05 203.15 Q105.4 203.9 103.1 203.9 L99.25 203.9 93.15 203.9 79.25 203.9 71.75 203.9 71.35 203.9 47.25 203.9 28.95 203.9 10.5 203.9 Q4.35 203.9 2.9 198.55 L2.65 197.4 2.5 196.1 2.45 194.65 2.45 193.4 2.45 192.75 2.45 192.7 2.55 65.15 2.55 16.8 2.55 9.3 Q2.55 5.7 3.8 3.5 L4.1 2.95" fill="none" stroke="#484137" stroke-linecap="round" stroke-linejoin="bevel" stroke-width="4.0"/>
    <path d="M2.55 16.8 L17.7 30.45 35.45 46.5 50.95 52.0 51.3 51.65 61.9 37.1 M111.2 123.3 L111.4 123.05 M1.15 15.5 L2.55 16.8 M2.55 65.15 L4.95 55.75 17.7 30.45 M1.15 15.5 L0.0 14.45 M1.15 70.6 L2.55 65.15 M2.6 192.8 L6.8 172.15 10.1 153.9 18.4 140.7 28.15 125.1 27.85 104.85 27.6 83.85 36.65 71.5 35.55 69.9 M1.15 70.6 L0.0 75.2 M47.2 57.15 L50.95 52.0 M2.6 192.85 L2.6 192.8 M35.45 46.5 L47.2 57.15 36.65 71.5 63.25 110.7 63.05 121.9 85.2 136.6 91.2 157.4 97.75 165.5 101.55 170.2 104.2 164.0 110.25 149.9 110.25 124.3 110.25 111.55 M63.05 121.9 L62.85 132.75 82.55 162.7 85.45 172.25 88.9 183.45 91.05 194.25 93.15 203.9 93.2 204.3 93.3 204.75 M99.25 203.9 L98.8 194.25 Q98.6 188.25 98.7 184.1 L98.7 184.0 M98.7 183.8 Q98.7 176.8 99.45 175.2 L97.75 165.5 M1.85 196.1 L2.25 194.25 2.45 193.4 2.6 192.85 M28.95 203.9 L18.4 140.7 M29.0 204.3 L28.95 203.9 M47.25 203.9 L48.05 166.05 48.05 156.25 27.85 104.85 M66.25 180.65 L71.35 203.9 71.5 204.75 M79.25 203.9 L85.45 172.25 M66.25 180.65 L48.05 166.05 M110.25 124.3 L111.2 123.3 M111.15 184.15 L111.4 184.9 M111.15 184.15 L104.2 164.0 M99.45 175.2 L101.55 170.2 M29.1 204.75 L29.0 204.3 M99.25 203.9 L99.3 204.3 99.3 204.75 M79.1 204.75 L79.25 203.9 M47.25 204.75 L47.25 203.9" ffdec:has-small-stroke="true" ffdec:original-stroke-width="0.25" fill="none" stroke="#000000" stroke-linecap="round" stroke-linejoin="bevel" stroke-opacity="0.2" stroke-width="1.0"/>
  </g>
  <defs>
    <linearGradient gradientTransform="matrix(0.1309, 0.0, 0.0, 0.1786, 106.85, 29.55)" gradientUnits="userSpaceOnUse" id="gradient0" spreadMethod="pad" x1="-819.2" x2="819.2">
      <stop offset="0.0" stop-color="#bcae8f"/>
      <stop offset="0.2549019607843137" stop-color="#ac9a72"/>
      <stop offset="0.9490196078431372" stop-color="#756448"/>
    </linearGradient>
    <linearGradient gradientTransform="matrix(0.0756, 0.0, 0.0, 0.1786, 124.3, 37.35)" gradientUnits="userSpaceOnUse" id="gradient1" spreadMethod="pad" x1="-819.2" x2="819.2">
      <stop offset="0.08235294117647059" stop-color="#ac9a72"/>
      <stop offset="1.0" stop-color="#756448"/>
    </linearGradient>
    <linearGradient gradientTransform="matrix(0.0836, 0.1182, -0.0693, 0.1357, 78.8, 70.95)" gradientUnits="userSpaceOnUse" id="gradient2" spreadMethod="pad" x1="-819.2" x2="819.2">
      <stop offset="0.08235294117647059" stop-color="#ac9a72"/>
      <stop offset="1.0" stop-color="#756448"/>
    </linearGradient>
    <linearGradient gradientTransform="matrix(-0.0302, -0.2178, 0.1042, -0.0399, -51.2, 87.95)" gradientUnits="userSpaceOnUse" id="gradient3" spreadMethod="pad" x1="-819.2" x2="819.2">
      <stop offset="0.08235294117647059" stop-color="#ac9a72"/>
      <stop offset="1.0" stop-color="#756448"/>
    </linearGradient>
    <linearGradient gradientTransform="matrix(0.0756, 0.0, 0.0, 0.1786, 79.75, 20.5)" gradientUnits="userSpaceOnUse" id="gradient4" spreadMethod="pad" x1="-819.2" x2="819.2">
      <stop offset="0.08235294117647059" stop-color="#ac9a72"/>
      <stop offset="0.35294117647058826" stop-color="#4f4332"/>
      <stop offset="0.6980392156862745" stop-color="#493e2e"/>
    </linearGradient>
    <linearGradient gradientTransform="matrix(0.0756, 0.0, 0.0, 0.1786, 124.3, 37.35)" gradientUnits="userSpaceOnUse" id="gradient5" spreadMethod="pad" x1="-819.2" x2="819.2">
      <stop offset="0.08627450980392157" stop-color="#a6946d"/>
      <stop offset="0.47058823529411764" stop-color="#bcae8f"/>
      <stop offset="1.0" stop-color="#756448"/>
    </linearGradient>
    <linearGradient gradientTransform="matrix(-0.0383, -0.0573, 0.0251, -0.0465, 42.45, 96.1)" gradientUnits="userSpaceOnUse" id="gradient6" spreadMethod="pad" x1="-819.2" x2="819.2">
      <stop offset="0.30196078431372547" stop-color="#ac9a72"/>
      <stop offset="1.0" stop-color="#756448"/>
    </linearGradient>
    <linearGradient gradientTransform="matrix(0.0756, 0.0, 0.0, 0.1786, 42.7, 49.7)" gradientUnits="userSpaceOnUse" id="gradient7" spreadMethod="pad" x1="-819.2" x2="819.2">
      <stop offset="0.08235294117647059" stop-color="#ac9a72"/>
      <stop offset="0.8" stop-color="#393124"/>
    </linearGradient>
    <linearGradient gradientTransform="matrix(0.7636, 0.0, 0.0, 1.2717, 0.0, -116.25)" gradientUnits="userSpaceOnUse" id="gradient8" spreadMethod="pad" x1="-819.2" x2="819.2">
      <stop offset="0.08235294117647059" stop-color="#ac9a72"/>
      <stop offset="1.0" stop-color="#756448"/>
    </linearGradient>
    <linearGradient gradientTransform="matrix(-0.0454, -0.117, 0.09, -0.0968, 72.2, 196.95)" gradientUnits="userSpaceOnUse" id="gradient9" spreadMethod="pad" x1="-819.2" x2="819.2">
      <stop offset="0.0" stop-color="#b9aa8a"/>
      <stop offset="0.7764705882352941" stop-color="#756448"/>
    </linearGradient>
    <linearGradient gradientTransform="matrix(0.0756, 0.0, 0.0, 0.1786, 124.3, 37.35)" gradientUnits="userSpaceOnUse" id="gradient10" spreadMethod="pad" x1="-819.2" x2="819.2">
      <stop offset="0.27058823529411763" stop-color="#ac9a72"/>
      <stop offset="1.0" stop-color="#756448"/>
    </linearGradient>
  </defs>
</svg>
