<?xml version="1.0" encoding="UTF-8" standalone="no"?>
<svg xmlns:ffdec="https://www.free-decompiler.com/flash" xmlns:xlink="http://www.w3.org/1999/xlink" ffdec:objectType="shape" height="21.0px" width="116.0px" xmlns="http://www.w3.org/2000/svg">
  <g transform="matrix(1.0, 0.0, 0.0, 1.0, 0.5, 0.5)">
    <path d="M115.0 18.95 Q115.0 20.0 113.85 20.0 L1.15 20.0 Q0.0 20.0 0.0 18.95 L0.0 1.05 Q0.0 0.0 1.15 0.0 L113.85 0.0 Q115.0 0.0 115.0 1.05 L115.0 18.95" fill="#ffffff" fill-rule="evenodd" stroke="none"/>
    <path d="M115.0 18.95 L115.0 1.05 Q115.0 0.0 113.85 0.0 L1.15 0.0 Q0.0 0.0 0.0 1.05 L0.0 18.95 Q0.0 20.0 1.15 20.0 L113.85 20.0 Q115.0 20.0 115.0 18.95 Z" fill="none" stroke="#999999" stroke-linecap="butt" stroke-linejoin="miter-clip" stroke-miterlimit="3.0" stroke-width="1.0"/>
  </g>
</svg>
