<?xml version="1.0" encoding="UTF-8" standalone="no"?>
<svg xmlns:ffdec="https://www.free-decompiler.com/flash" xmlns:xlink="http://www.w3.org/1999/xlink" ffdec:objectType="shape" height="275.55px" width="656.5px" xmlns="http://www.w3.org/2000/svg">
  <g transform="matrix(1.0, 0.0, 0.0, 1.0, -43.5, -240.0)">
    <path d="M197.8 489.6 Q200.7 492.8 201.15 496.95 202.8 513.1 218.95 512.9 L220.05 512.85 221.1 512.65 221.25 513.35 152.4 515.35 152.4 515.55 146.55 515.55 146.55 515.35 77.65 513.35 77.8 512.65 78.9 512.85 79.95 512.9 Q96.1 513.1 97.8 496.95 98.2 492.8 101.15 489.6 103.65 486.8 107.45 486.55 L191.5 486.55 Q195.25 486.8 197.8 489.6" fill="#796f5a" fill-rule="evenodd" stroke="none"/>
    <path d="M700.0 240.1 L700.0 266.0 43.5 266.05 43.5 240.0 700.0 240.1" fill="#796f5a" fill-rule="evenodd" stroke="none"/>
  </g>
</svg>
