<?xml version="1.0" encoding="UTF-8" standalone="no"?>
<svg xmlns:ffdec="https://www.free-decompiler.com/flash" xmlns:xlink="http://www.w3.org/1999/xlink" ffdec:objectType="shape" height="106.5px" width="108.3px" xmlns="http://www.w3.org/2000/svg">
  <g transform="matrix(1.0, 0.0, 0.0, 1.0, 0.5, 6.2)">
    <path d="M107.25 21.65 L107.0 21.4 107.25 21.65 Q106.65 27.7 106.75 33.9 L106.85 38.85 106.25 38.95 107.0 21.4 106.95 21.4 106.55 21.05 55.6 19.6 58.05 18.7 58.45 18.5 58.65 18.5 59.6 17.85 60.6 17.25 Q61.35 16.8 62.95 16.65 64.55 16.5 65.35 15.95 L102.55 15.55 107.3 21.55 107.25 21.65 M106.95 47.9 L107.1 57.6 107.0 57.75 106.95 57.8 107.0 57.75 107.0 57.8 106.95 57.8 106.85 57.8 106.0 48.05 106.95 47.9 M1.05 33.85 L1.8 34.5 1.4 35.2 1.3 35.4 1.15 35.65 1.05 35.8 1.0 35.95 0.9 36.05 0.0 36.9 1.05 33.85 M6.6 53.55 L20.7 54.15 20.7 54.5 16.45 54.9 Q11.35 55.35 6.6 53.55 M1.85 77.0 L2.1 76.85 2.35 76.6 2.45 76.55 2.6 76.45 3.15 75.8 3.3 75.6 Q3.6 75.0 4.0 74.65 L9.25 75.55 1.9 77.35 1.85 77.0" fill="#4d3f20" fill-rule="evenodd" stroke="none"/>
    <path d="M55.6 19.6 L106.55 21.05 106.95 21.4 107.0 21.4 106.25 38.95 98.45 40.35 105.15 40.4 99.1 41.45 82.85 44.2 105.3 44.3 104.4 47.15 106.0 48.05 106.85 57.8 101.2 57.6 85.4 56.9 83.9 56.2 82.1 55.6 Q77.1 54.5 72.0 54.65 L67.85 54.45 Q63.2 53.85 59.2 55.8 L36.95 54.8 Q37.3 54.6 37.2 53.6 L37.05 52.9 Q36.35 51.2 34.95 51.3 L35.75 50.5 38.15 47.8 Q37.75 47.4 37.3 47.35 36.0 47.0 35.1 45.8 L35.4 45.45 Q36.3 44.1 37.35 43.15 L28.7 40.7 27.85 38.75 27.2 38.7 Q27.75 37.05 28.55 35.65 L30.9 35.8 49.2 37.2 Q55.75 37.8 62.3 37.1 L67.15 36.65 Q69.0 36.55 70.75 35.5 L70.9 35.3 67.25 34.75 62.85 34.1 57.3 33.45 39.75 31.85 32.6 30.75 34.4 29.35 37.15 27.55 Q40.85 25.25 44.8 23.7 L55.6 19.6 M96.65 29.05 L97.8 29.05 Q99.5 29.1 102.85 30.0 L103.35 30.0 102.85 29.9 101.65 28.7 99.9 28.15 99.0 27.85 98.5 27.75 97.8 27.5 97.3 27.35 95.8 27.15 92.3 26.6 81.25 24.7 79.7 24.5 70.05 24.95 65.25 25.45 65.2 25.45 65.25 26.15 69.75 26.85 75.95 27.5 79.05 27.75 82.8 28.15 87.3 28.5 92.1 28.85 96.65 29.05 M87.85 47.5 L85.25 47.45 80.05 47.25 79.95 47.25 79.05 47.2 73.9 47.15 72.85 47.6 77.65 48.3 79.05 48.55 80.05 47.25 79.95 48.8 83.9 49.1 87.85 49.65 88.9 49.95 89.9 50.15 Q91.8 50.25 93.6 49.5 L93.8 49.05 93.7 47.75 93.55 47.7 90.7 47.85 Q89.3 48.05 88.0 48.55 L87.85 49.65 87.85 47.5 M105.9 57.45 L101.2 57.6 105.9 57.45 M35.1 19.95 L34.7 19.65 35.1 19.65 35.1 19.95" fill="#8c743c" fill-rule="evenodd" stroke="none"/>
    <path d="M96.65 29.05 L92.1 28.85 87.3 28.5 82.8 28.15 79.05 27.75 75.95 27.5 69.75 26.85 65.25 26.15 65.2 25.45 65.25 25.45 70.05 24.95 79.7 24.5 81.25 24.7 92.3 26.6 95.8 27.15 97.3 27.35 97.8 27.5 98.5 27.75 99.0 27.85 99.9 28.15 101.65 28.7 102.85 29.9 103.35 30.0 102.85 30.0 Q99.5 29.1 97.8 29.05 L96.65 29.05 M87.85 47.5 L87.85 49.65 88.0 48.55 Q89.3 48.05 90.7 47.85 L93.55 47.7 93.7 47.75 93.8 49.05 93.6 49.5 Q91.8 50.25 89.9 50.15 L88.9 49.95 87.85 49.65 83.9 49.1 79.95 48.8 80.05 47.25 79.05 48.55 77.65 48.3 72.85 47.6 73.9 47.15 79.05 47.2 79.95 47.25 80.05 47.25 85.25 47.45 87.85 47.5 M106.95 57.8 L107.0 57.8 106.55 98.95 38.75 97.9 Q37.55 96.25 36.5 94.4 L34.55 90.85 Q33.45 89.05 33.15 87.5 L32.3 84.1 32.85 83.45 31.85 82.8 31.8 82.55 30.5 78.65 Q31.1 77.85 31.3 76.75 L31.15 76.7 30.3 76.5 29.95 76.35 29.75 76.3 28.65 76.2 29.6 75.85 30.4 75.45 Q31.9 74.45 32.5 72.45 L28.4 71.7 27.85 69.55 40.25 69.75 44.05 69.6 46.15 69.25 50.9 68.15 Q51.9 67.85 52.8 67.2 L53.0 66.8 Q47.55 65.2 41.95 64.1 L35.1 62.65 Q32.5 62.1 30.0 60.95 28.95 60.4 28.05 59.55 L28.35 58.95 Q28.85 57.55 29.8 56.65 L30.8 55.9 Q33.55 54.7 36.45 54.9 L36.95 54.85 36.95 54.8 59.2 55.8 Q63.2 53.85 67.85 54.45 L72.0 54.65 Q77.1 54.5 82.1 55.6 L83.9 56.2 85.4 56.9 Q87.55 57.65 89.85 57.7 L91.25 57.75 Q95.25 57.9 99.2 57.65 L101.2 57.6 106.85 57.8 106.85 57.95 106.95 57.8 M98.9 76.0 L97.15 75.15 Q94.65 73.6 92.1 74.25 L92.1 74.05 89.7 74.5 86.25 75.05 82.15 75.45 78.35 75.65 72.85 76.0 68.05 76.45 61.8 76.9 58.35 77.05 54.9 77.05 51.45 77.05 48.0 77.15 42.15 77.4 Q40.45 77.5 38.85 78.55 L37.85 79.3 36.8 79.95 Q36.7 80.7 37.15 81.1 L38.75 82.2 41.1 83.35 42.2 83.9 43.15 84.25 48.0 85.1 53.55 86.15 59.75 87.3 62.5 87.65 65.6 87.85 69.4 88.1 72.15 88.25 78.0 88.35 97.15 87.75 102.3 87.15 102.6 86.9 103.15 86.35 103.7 85.9 104.15 85.3 104.35 84.85 104.5 84.5 104.55 83.75 104.55 82.95 104.55 81.85 104.6 80.55 Q104.65 79.65 104.25 79.1 L103.65 78.55 Q103.15 78.1 102.65 77.75 100.85 76.6 98.9 76.0 M93.55 84.0 L91.1 84.45 88.7 84.55 85.6 84.55 82.5 84.55 78.35 84.55 74.2 84.55 70.05 84.5 61.8 84.2 54.2 83.65 50.95 83.45 48.7 83.45 50.25 82.8 50.6 82.7 50.8 82.45 50.95 82.25 51.45 82.0 52.0 81.7 52.45 81.6 52.7 81.4 53.0 81.35 53.0 80.35 57.85 80.55 61.65 80.55 66.1 80.55 71.3 80.55 76.8 80.55 81.95 80.55 86.75 80.55 91.25 80.55 95.8 80.55 101.95 80.7 103.35 81.1 102.45 81.5 102.05 81.65 99.0 82.6 93.55 84.0 M55.6 19.6 L44.8 23.7 Q40.85 25.25 37.15 27.55 L34.4 29.35 32.6 30.75 39.75 31.85 57.3 33.45 62.85 34.1 67.25 34.75 70.9 35.3 70.75 35.5 Q69.0 36.55 67.15 36.65 L62.3 37.1 Q55.75 37.8 49.2 37.2 L30.9 35.8 28.55 35.65 Q27.75 37.05 27.2 38.7 L27.85 38.75 28.7 40.7 37.35 43.15 Q36.3 44.1 35.4 45.45 L35.1 45.8 Q36.0 47.0 37.3 47.35 37.75 47.4 38.15 47.8 L35.75 50.5 34.95 51.3 Q36.35 51.2 37.05 52.9 L37.2 53.6 Q37.3 54.6 36.95 54.8 L36.0 54.75 31.85 53.95 Q28.9 53.15 25.9 53.3 L25.8 48.7 Q25.75 43.0 27.2 38.7 L22.7 38.35 21.1 38.15 20.9 38.1 Q18.95 37.8 17.1 37.1 L17.0 37.0 15.85 36.45 Q15.65 36.35 15.6 36.1 L16.15 35.9 17.3 35.7 20.9 35.6 21.1 35.6 24.4 35.55 28.55 35.65 Q29.95 33.0 32.15 31.15 L32.6 30.75 32.1 30.65 32.05 30.65 29.4 29.9 30.25 29.35 Q30.9 28.7 31.7 28.35 L31.75 28.3 32.35 28.15 35.8 26.75 36.85 26.15 37.8 25.3 38.25 24.45 Q38.5 23.5 38.0 22.95 L35.1 19.95 35.1 19.65 55.6 19.6 M0.9 19.85 L0.4 19.95 0.4 19.65 0.9 19.85 M1.0 33.3 L1.05 33.85 0.65 33.5 0.65 33.35 1.0 33.3" fill="#776233" fill-rule="evenodd" stroke="none"/>
    <path d="M99.1 41.45 L100.3 41.85 101.7 42.2 103.05 42.45 104.35 42.6 105.0 42.75 106.3 42.8 107.3 42.85 107.25 44.35 107.25 45.25 107.15 46.25 106.95 47.9 106.0 48.05 104.4 47.15 105.3 44.3 82.85 44.2 99.1 41.45 M5.0 29.25 L11.75 31.2 1.0 33.3 0.65 33.35 0.6 33.2 1.45 32.75 1.7 32.6 2.8 31.85 3.0 31.65 3.7 30.85 4.25 30.25 4.55 29.85 4.8 29.65 5.0 29.25 M1.8 34.5 L3.6 36.0 0.0 36.9 0.9 36.05 1.0 35.95 1.05 35.8 1.15 35.65 1.3 35.4 1.4 35.2 1.8 34.5" fill="#2e2214" fill-rule="evenodd" stroke="none"/>
    <path d="M107.1 57.6 L107.15 82.1 Q107.15 90.75 106.75 99.35 L106.55 98.95 107.0 57.8 107.0 57.75 107.1 57.6" fill="#2f2413" fill-rule="evenodd" stroke="none"/>
    <path d="M36.95 54.8 L36.95 54.85 36.45 54.9 Q33.55 54.7 30.8 55.9 L29.8 56.65 Q28.85 57.55 28.35 58.95 L28.05 59.55 Q28.95 60.4 30.0 60.95 32.5 62.1 35.1 62.65 L41.95 64.1 Q47.55 65.2 53.0 66.8 L52.8 67.2 Q51.9 67.85 50.9 68.15 L46.15 69.25 44.05 69.6 40.25 69.75 27.85 69.55 28.4 71.7 32.5 72.45 Q31.9 74.45 30.4 75.45 L29.6 75.85 28.4 71.7 27.3 71.45 24.1 70.4 Q23.0 70.05 21.95 69.55 L21.7 69.5 21.95 69.5 24.1 69.5 27.85 69.55 26.65 64.5 Q26.25 62.9 26.2 61.25 L25.9 53.3 Q28.9 53.15 31.85 53.95 L36.0 54.75 36.95 54.8 M29.75 76.3 L29.95 76.35 30.3 76.5 31.15 76.7 31.3 76.75 Q31.1 77.85 30.5 78.65 L31.8 82.55 31.85 82.8 32.85 83.45 32.3 84.1 33.15 87.5 Q33.45 89.05 34.55 90.85 L36.5 94.4 Q37.55 96.25 38.75 97.9 L30.75 97.4 30.75 96.4 30.7 95.6 Q30.5 93.8 30.6 91.85 30.65 88.8 29.05 87.0 L29.2 86.95 30.65 85.65 32.3 84.1 31.85 82.8 29.05 79.95 30.25 78.9 30.5 78.65 29.75 76.3 M98.9 76.0 Q100.85 76.6 102.65 77.75 103.15 78.1 103.65 78.55 L104.25 79.1 Q104.65 79.65 104.6 80.55 L104.55 81.85 104.55 82.95 104.55 83.75 104.5 84.5 104.35 84.85 104.15 85.3 103.7 85.9 103.15 86.35 102.6 86.9 102.3 87.15 97.15 87.75 78.0 88.35 72.15 88.25 69.4 88.1 65.6 87.85 62.5 87.65 59.75 87.3 53.55 86.15 48.0 85.1 43.15 84.25 42.2 83.9 41.1 83.35 38.75 82.2 37.15 81.1 Q36.7 80.7 36.8 79.95 L37.85 79.3 38.85 78.55 Q40.45 77.5 42.15 77.4 L48.0 77.15 51.45 77.05 54.9 77.05 58.35 77.05 61.8 76.9 68.05 76.45 72.85 76.0 78.35 75.65 82.15 75.45 86.25 75.05 89.7 74.5 92.1 74.05 92.1 74.25 Q94.65 73.6 97.15 75.15 L98.9 76.0 M93.55 84.0 L99.0 82.6 102.05 81.65 102.45 81.5 103.35 81.1 101.95 80.7 95.8 80.55 91.25 80.55 86.75 80.55 81.95 80.55 76.8 80.55 71.3 80.55 66.1 80.55 61.65 80.55 57.85 80.55 53.0 80.35 53.0 81.35 52.7 81.4 52.45 81.6 52.0 81.7 51.45 82.0 50.95 82.25 50.8 82.45 50.6 82.7 50.25 82.8 48.7 83.45 50.95 83.45 54.2 83.65 61.8 84.2 70.05 84.5 74.2 84.55 78.35 84.55 82.5 84.55 85.6 84.55 88.7 84.55 91.1 84.45 93.55 84.0 M35.1 19.95 L38.0 22.95 Q38.5 23.5 38.25 24.45 L37.8 25.3 36.85 26.15 35.8 26.75 32.35 28.15 31.75 28.3 31.7 28.35 Q30.9 28.7 30.25 29.35 L29.4 29.9 32.05 30.65 32.1 30.65 32.6 30.75 32.15 31.15 Q29.95 33.0 28.55 35.65 L24.4 35.55 21.1 35.6 20.9 35.6 17.3 35.7 16.15 35.9 15.6 36.1 Q15.65 36.35 15.85 36.45 L17.0 37.0 17.1 37.1 Q18.95 37.8 20.9 38.1 L21.1 38.15 22.7 38.35 27.2 38.7 Q25.75 43.0 25.8 48.7 L25.9 53.3 25.25 53.35 Q23.3 53.45 21.5 54.2 L20.7 54.15 6.6 53.55 1.65 53.35 0.0 36.9 3.6 36.0 1.8 34.5 1.05 33.85 1.0 33.3 11.75 31.2 5.0 29.25 1.15 28.2 0.4 19.95 0.9 19.85 34.7 19.65 35.1 19.95" fill="#654f2c" fill-rule="evenodd" stroke="none"/>
    <path d="M65.35 15.95 Q64.55 16.5 62.95 16.65 61.35 16.8 60.6 17.25 L59.6 17.85 58.65 18.5 58.45 18.5 58.05 18.7 55.6 19.6 35.1 19.65 34.7 19.65 0.9 19.85 0.8 18.9 1.25 18.5 1.15 18.5 5.25 15.25 5.45 15.05 65.35 15.95" fill="#251b10" fill-rule="evenodd" stroke="none"/>
    <path d="M29.6 75.85 L28.65 76.2 29.75 76.3 30.5 78.65 30.25 78.9 29.05 79.95 31.85 82.8 32.3 84.1 30.65 85.65 29.2 86.95 29.05 87.0 Q30.65 88.8 30.6 91.85 30.5 93.8 30.7 95.6 L30.75 96.4 30.75 97.4 1.85 95.5 1.55 77.4 1.9 77.35 9.25 75.55 4.0 74.65 1.35 74.25 1.65 53.35 6.6 53.55 Q11.35 55.35 16.45 54.9 L20.7 54.5 21.05 54.35 21.5 54.2 Q23.3 53.45 25.25 53.35 L25.9 53.3 26.2 61.25 Q26.25 62.9 26.65 64.5 L27.85 69.55 24.1 69.5 21.95 69.5 21.7 69.5 21.95 69.55 Q23.0 70.05 24.1 70.4 L27.3 71.45 28.4 71.7 29.6 75.85" fill="#47341f" fill-rule="evenodd" stroke="none"/>
    <path d="M107.25 21.65 L107.3 21.55 M34.7 19.65 L0.9 19.85 M0.4 19.95 L1.15 28.2 5.0 29.25 11.75 31.2 1.0 33.3 M1.05 33.85 L1.8 34.5 3.6 36.0 0.0 36.9 1.65 53.35 6.6 53.55 M35.1 19.65 L55.6 19.6 M5.45 15.05 L65.35 15.95 M1.15 18.5 L5.25 15.25 M0.8 18.9 L1.25 18.5 M0.6 33.2 L1.45 32.75 1.7 32.6 2.8 31.85 3.0 31.65 3.7 30.85 4.25 30.25 4.55 29.85 4.8 29.65 5.0 29.25 M4.0 74.65 Q3.6 75.0 3.3 75.6 L3.15 75.8 2.6 76.45 2.45 76.55 2.35 76.6 2.1 76.85 1.85 77.0 M1.9 77.35 L9.25 75.55 4.0 74.65 M1.35 74.25 L1.65 53.35 M1.55 77.4 L1.85 95.5 30.75 97.4 38.75 97.9" fill="none" stroke="#724a25" stroke-linecap="round" stroke-linejoin="bevel" stroke-width="1.0"/>
    <path d="M107.0 21.4 L107.25 21.65 M107.3 21.55 L102.55 15.55 65.35 15.95 M55.6 19.6 L106.55 21.05 106.95 21.4 107.0 21.4 106.25 38.95 106.85 38.85 M106.75 99.35 L106.3 99.8 M106.0 48.05 L104.4 47.15 105.3 44.3 82.85 44.2 99.1 41.45 105.15 40.4 98.45 40.35 106.25 38.95 M106.95 47.9 L106.0 48.05 106.85 57.8 106.95 57.8 107.0 57.75 107.1 57.6 M106.95 57.8 L107.0 57.8 106.55 98.95 38.75 97.9 M106.85 57.8 L106.85 57.95 106.95 57.8 M85.4 56.9 L101.2 57.6 105.9 57.45 M106.85 57.8 L101.2 57.6 M36.95 54.8 L36.0 54.75 M20.7 54.15 L21.5 54.2 M35.1 19.65 L34.7 19.65 M5.25 15.25 L5.45 15.05 M0.9 19.85 L0.4 19.65 0.4 19.95 M0.9 19.85 L0.8 18.9 0.55 19.15 0.4 19.65 M0.65 33.35 L0.65 33.5 1.05 33.85 M0.0 36.9 L0.9 36.05 1.0 35.95 1.05 35.8 1.15 35.65 1.3 35.4 1.4 35.2 1.8 34.5 M1.0 33.3 L0.65 33.35 0.6 33.35 0.65 33.5 M4.0 74.65 L1.35 74.25 M1.9 77.35 L1.55 77.4" fill="none" stroke="#ae7337" stroke-linecap="round" stroke-linejoin="bevel" stroke-width="1.0"/>
    <path d="M86.95 -1.3 L87.15 -1.85 87.3 -2.0 87.2 -2.1 87.05 -1.9 Q85.6 -0.15 87.25 1.4 86.9 0.45 86.95 -1.3 M85.25 -2.25 Q87.95 -4.15 90.3 -3.95 92.9 -3.8 95.1 -1.05 96.25 0.4 96.75 1.65 97.7 4.2 96.2 6.2 95.2 7.4 93.35 8.4 L93.9 18.85 93.55 19.1 93.2 19.3 Q92.45 19.8 91.65 19.7 L90.25 19.4 89.95 18.9 90.3 8.85 90.0 8.45 90.0 6.95 Q92.5 6.1 93.8 5.0 95.1 3.9 95.95 2.05 L93.55 -0.4 92.85 -0.85 90.4 -0.8 89.0 1.5 88.3 3.5 89.35 4.3 89.15 4.5 88.95 4.7 87.3 4.6 86.15 4.4 Q85.2 2.05 85.15 -0.5 L85.25 -2.25 M92.65 8.8 L92.65 9.55 92.8 14.0 Q92.95 17.1 92.5 14.75 92.45 16.45 91.85 18.55 L92.75 18.35 93.05 17.9 Q93.4 17.25 93.35 16.45 L93.15 12.6 92.65 8.8" fill="#251d10" fill-rule="evenodd" stroke="none"/>
    <path d="M86.95 -1.3 Q86.9 0.45 87.25 1.4 85.6 -0.15 87.05 -1.9 L87.2 -2.1 87.3 -2.0 87.15 -1.85 86.95 -1.3 M92.65 8.8 L93.15 12.6 93.35 16.45 Q93.4 17.25 93.05 17.9 L92.75 18.35 91.85 18.55 Q92.45 16.45 92.5 14.75 92.95 17.1 92.8 14.0 L92.65 9.55 92.65 8.8" fill="#e9dbcb" fill-rule="evenodd" stroke="none"/>
    <path d="M85.25 -2.25 Q87.95 -4.15 90.3 -3.95 92.9 -3.8 95.1 -1.05 96.25 0.4 96.75 1.65 97.7 4.2 96.2 6.2 95.2 7.4 93.35 8.4 L93.9 18.85 93.55 19.1 93.2 19.3 Q92.45 19.8 91.65 19.7 L90.25 19.4 89.95 18.9 90.3 8.85 90.0 8.45 90.0 6.95 Q92.5 6.1 93.8 5.0 95.1 3.9 95.95 2.05 L93.55 -0.4 92.85 -0.85 90.4 -0.8 89.0 1.5 88.3 3.5 89.35 4.3 89.15 4.5 88.95 4.7 87.3 4.6 86.15 4.4 Q85.2 2.05 85.15 -0.5 L85.25 -2.25 Z" fill="none" stroke="#724a25" stroke-linecap="round" stroke-linejoin="bevel" stroke-width="1.0"/>
    <path d="M13.85 -4.0 Q16.55 -5.9 18.9 -5.7 21.5 -5.55 23.7 -2.8 L25.35 -0.1 Q26.3 2.45 24.8 4.45 23.8 5.65 21.95 6.65 L22.5 17.1 22.15 17.35 21.8 17.55 Q21.05 18.05 20.25 17.95 L18.85 17.65 18.55 17.15 18.9 7.1 18.6 6.7 18.6 5.2 Q21.1 4.35 22.4 3.25 23.7 2.15 24.55 0.3 L22.15 -2.15 21.45 -2.6 19.0 -2.55 17.6 -0.25 16.9 1.75 17.95 2.55 17.75 2.75 17.55 2.95 15.9 2.85 14.75 2.65 Q13.8 0.3 13.75 -2.25 L13.85 -4.0 M21.75 10.85 L21.25 7.05 21.25 7.8 21.4 12.25 Q21.55 15.35 21.1 13.0 21.05 14.7 20.45 16.8 L21.35 16.6 21.65 16.15 Q22.0 15.5 21.95 14.7 L21.75 10.85 M15.75 -3.6 L15.9 -3.75 15.8 -3.85 15.65 -3.65 Q14.2 -1.9 15.85 -0.35 15.5 -1.3 15.55 -3.05 L15.75 -3.6" fill="#251d10" fill-rule="evenodd" stroke="none"/>
    <path d="M15.75 -3.6 L15.55 -3.05 Q15.5 -1.3 15.85 -0.35 14.2 -1.9 15.65 -3.65 L15.8 -3.85 15.9 -3.75 15.75 -3.6 M21.75 10.85 L21.95 14.7 Q22.0 15.5 21.65 16.15 L21.35 16.6 20.45 16.8 Q21.05 14.7 21.1 13.0 21.55 15.35 21.4 12.25 L21.25 7.8 21.25 7.05 21.75 10.85" fill="#e9dbcb" fill-rule="evenodd" stroke="none"/>
    <path d="M13.85 -4.0 Q16.55 -5.9 18.9 -5.7 21.5 -5.55 23.7 -2.8 L25.35 -0.1 Q26.3 2.45 24.8 4.45 23.8 5.65 21.95 6.65 L22.5 17.1 22.15 17.35 21.8 17.55 Q21.05 18.05 20.25 17.95 L18.85 17.65 18.55 17.15 18.9 7.1 18.6 6.7 18.6 5.2 Q21.1 4.35 22.4 3.25 23.7 2.15 24.55 0.3 L22.15 -2.15 21.45 -2.6 19.0 -2.55 17.6 -0.25 16.9 1.75 17.95 2.55 17.75 2.75 17.55 2.95 15.9 2.85 14.75 2.65 Q13.8 0.3 13.75 -2.25 L13.85 -4.0 Z" fill="none" stroke="#724a25" stroke-linecap="round" stroke-linejoin="bevel" stroke-width="1.0"/>
  </g>
</svg>
