<?xml version="1.0" encoding="UTF-8" standalone="no"?>
<svg xmlns:ffdec="https://www.free-decompiler.com/flash" xmlns:xlink="http://www.w3.org/1999/xlink" ffdec:objectType="shape" height="36.4px" width="28.1px" xmlns="http://www.w3.org/2000/svg">
  <g transform="matrix(1.0, 0.0, 0.0, 1.0, -7.95, -3.8)">
    <path d="M31.7 6.85 L31.55 6.75 31.3 6.9 Q30.9 7.2 30.4 7.1 L30.05 6.95 29.4 6.95 28.55 6.4 28.4 6.1 Q16.4 4.65 10.0 14.2 L9.35 15.2 Q8.25 20.05 10.0 23.6 11.5 26.7 15.15 28.85 L15.2 28.9 16.3 29.25 16.35 29.25 18.1 29.35 18.1 29.45 21.25 28.8 21.3 28.8 Q23.95 27.75 24.95 25.5 26.75 21.3 26.1 19.35 L26.1 19.3 Q25.5 17.3 26.65 16.0 27.65 14.75 30.3 14.25 34.75 13.3 35.05 10.35 35.0 7.95 31.7 6.85 M32.2 3.95 L32.35 4.3 32.2 4.65 31.6 5.2 31.75 5.4 31.85 5.85 32.0 5.9 Q36.15 7.25 36.05 10.4 L36.05 10.45 Q35.85 14.1 30.5 15.25 28.3 15.7 27.4 16.65 26.6 17.55 27.05 19.0 27.85 21.2 25.85 25.9 24.75 28.55 21.7 29.75 L21.65 29.75 21.65 29.7 Q19.9 30.45 18.1 30.45 L18.1 30.55 Q19.5 30.8 20.6 31.9 22.05 33.3 22.05 35.35 22.05 37.4 20.6 38.8 19.2 40.2 17.15 40.2 15.1 40.2 13.7 38.8 12.3 37.4 12.3 35.35 12.3 33.3 13.7 31.9 14.7 30.85 16.15 30.55 L16.15 30.2 16.05 30.2 14.75 29.75 14.7 29.75 Q11.65 27.95 10.0 25.6 6.95 21.2 8.45 14.9 L8.5 14.75 10.0 12.55 Q16.65 3.65 28.5 5.1 L28.6 5.15 28.95 4.75 29.0 4.75 29.0 4.7 29.3 4.6 29.45 4.25 Q29.95 3.75 30.3 4.0 30.65 4.0 30.75 4.6 L30.8 4.55 30.85 4.55 31.5 3.95 Q31.65 3.8 31.85 3.8 32.05 3.8 32.2 3.95" fill="#999999" fill-opacity="0.49803922" fill-rule="evenodd" stroke="none"/>
  </g>
</svg>
