<?xml version="1.0" encoding="UTF-8" standalone="no"?>
<svg xmlns:ffdec="https://www.free-decompiler.com/flash" xmlns:xlink="http://www.w3.org/1999/xlink" ffdec:objectType="shape" height="31.8px" width="33.7px" xmlns="http://www.w3.org/2000/svg">
  <g transform="matrix(1.0, 0.0, 0.0, 1.0, -5.8, -6.5)">
    <path d="M39.5 6.5 L39.5 6.6 39.35 6.65 39.3 6.65 39.3 6.95 Q33.2 22.75 23.05 27.05 L21.7 23.3 17.9 21.5 Q22.95 11.7 39.3 6.6 L39.5 6.5 M14.05 18.6 Q15.4 21.0 17.5 22.15 L21.0 23.9 22.35 27.4 Q23.45 29.65 25.75 31.05 L26.55 32.5 Q26.6 33.0 26.25 33.3 L24.85 33.05 18.45 29.15 11.15 34.95 Q11.15 37.05 10.0 38.3 8.0 38.35 6.9 37.15 6.15 36.35 5.95 35.35 5.7 34.65 5.85 33.9 7.1 32.85 9.2 33.0 L15.45 26.05 12.05 19.25 11.85 18.1 Q12.55 17.25 14.05 18.6" fill="#999999" fill-opacity="0.49803922" fill-rule="evenodd" stroke="none"/>
  </g>
</svg>
