<?xml version="1.0" encoding="UTF-8" standalone="no"?>
<svg xmlns:ffdec="https://www.free-decompiler.com/flash" xmlns:xlink="http://www.w3.org/1999/xlink" ffdec:objectType="shape" height="34.45px" width="27.45px" xmlns="http://www.w3.org/2000/svg">
  <g transform="matrix(1.0, 0.0, 0.0, 1.0, -8.3, -4.8)">
    <path d="M31.65 12.5 Q30.7 27.7 22.0 35.15 13.35 27.7 12.4 12.5 17.05 11.65 22.0 8.95 27.0 11.65 31.65 12.5 M35.75 9.6 Q35.8 31.25 22.0 39.25 8.2 31.25 8.3 9.6 16.5 8.35 22.0 4.8 27.55 8.35 35.75 9.6 M32.1 11.8 Q27.3 11.05 22.25 8.15 L22.0 8.1 21.8 8.15 Q16.7 11.05 11.9 11.8 L11.65 11.95 11.55 12.25 Q12.4 28.25 21.75 35.95 L22.0 36.05 22.3 35.95 Q31.6 28.25 32.45 12.25 L32.4 11.95 32.1 11.8" fill="#999999" fill-opacity="0.49803922" fill-rule="evenodd" stroke="none"/>
  </g>
</svg>
