<?xml version="1.0" encoding="UTF-8" standalone="no"?>
<svg xmlns:ffdec="https://www.free-decompiler.com/flash" xmlns:xlink="http://www.w3.org/1999/xlink" ffdec:objectType="shape" height="30.15px" width="28.7px" xmlns="http://www.w3.org/2000/svg">
  <g transform="matrix(1.0, 0.0, 0.0, 1.0, -7.65, -6.95)">
    <path d="M23.5 8.5 L21.9 8.3 Q20.15 8.3 19.25 9.1 18.75 9.3 18.45 9.8 17.6 10.9 18.0 12.15 L18.2 13.15 Q19.0 15.0 21.2 16.35 L23.5 17.35 24.8 17.6 25.6 17.6 Q28.0 17.6 29.0 16.25 30.0 14.85 29.45 12.95 L29.3 12.7 Q28.75 11.5 27.6 10.6 L27.5 10.5 24.8 8.95 23.5 8.5 M24.8 7.35 Q26.4 7.85 27.65 8.85 29.85 10.45 31.35 12.9 L31.85 13.75 Q34.45 14.9 35.65 18.05 L36.1 19.45 Q36.85 23.0 35.2 25.75 L34.9 25.75 Q35.75 24.0 35.45 22.6 L35.35 22.4 Q34.0 20.65 26.15 24.3 L24.8 24.6 23.35 25.15 Q18.45 27.05 15.15 30.85 14.2 32.15 14.05 33.45 13.85 34.45 14.05 35.45 L14.1 35.6 Q14.85 36.65 16.15 37.0 L16.15 37.1 Q12.95 36.55 10.2 33.45 L9.75 32.9 Q7.95 30.95 7.65 25.85 8.0 22.2 9.35 19.15 10.3 16.7 12.95 12.95 L13.2 12.3 Q14.35 8.8 18.35 7.65 20.65 6.65 23.35 7.05 L23.65 7.05 24.8 7.35 M24.8 10.25 L25.6 10.65 26.85 11.45 Q27.8 12.25 28.2 13.15 L28.2 13.25 28.35 13.4 Q28.65 14.55 28.05 15.45 27.25 16.4 25.6 16.4 L23.5 16.15 Q22.6 15.85 21.85 15.35 20.1 14.25 19.4 12.8 L19.15 11.9 Q18.95 11.1 19.4 10.5 L19.7 10.25 19.95 10.1 Q20.6 9.5 21.9 9.5 L23.5 9.8 24.8 10.25 M14.75 33.45 Q15.0 32.4 15.7 31.35 L16.05 30.95 Q19.65 30.35 22.2 28.7 24.5 27.0 25.85 25.05 L26.3 24.9 Q33.55 21.75 34.8 22.8 35.2 26.5 28.2 32.3 L28.25 32.3 28.25 32.35 24.25 34.65 24.35 34.65 24.25 34.7 Q16.8 37.95 14.7 35.2 14.55 34.35 14.75 33.45" fill="#999999" fill-opacity="0.49803922" fill-rule="evenodd" stroke="none"/>
  </g>
</svg>
