<?xml version="1.0" encoding="UTF-8" standalone="no"?>
<svg xmlns:ffdec="https://www.free-decompiler.com/flash" xmlns:xlink="http://www.w3.org/1999/xlink" ffdec:objectType="shape" height="30.2px" width="28.75px" xmlns="http://www.w3.org/2000/svg">
  <g transform="matrix(1.0, 0.0, 0.0, 1.0, -7.65, -6.9)">
    <path d="M17.7 24.9 L18.15 25.05 Q19.55 27.0 21.85 28.65 24.4 30.3 28.0 31.0 L28.35 31.3 Q29.1 32.4 29.3 33.45 29.5 34.3 29.35 35.15 27.2 37.95 19.75 34.7 L19.75 34.65 15.85 32.35 15.75 32.3 15.85 32.3 Q8.8 26.45 9.2 22.75 10.45 21.7 17.7 24.9 M24.6 10.45 Q25.1 11.05 24.9 11.85 L24.6 12.7 24.7 12.65 24.7 12.75 Q23.95 14.25 22.25 15.3 21.45 15.8 20.55 16.1 L18.45 16.4 Q16.75 16.4 15.95 15.45 15.35 14.5 15.7 13.4 L15.85 13.2 15.85 13.1 Q16.25 12.2 17.15 11.4 L19.25 10.2 20.55 9.7 22.15 9.45 Q23.4 9.45 24.1 10.05 L24.35 10.2 24.6 10.45 M22.15 8.25 L20.55 8.45 19.25 8.85 17.85 9.6 Q17.05 10.0 16.5 10.45 L16.45 10.5 Q15.3 11.45 14.7 12.65 L14.55 12.9 Q14.05 14.8 15.05 16.2 16.05 17.6 18.45 17.6 L19.25 17.6 20.55 17.3 Q21.7 17.0 22.8 16.3 25.0 15.0 25.8 13.1 L26.0 12.1 Q26.4 10.85 25.6 9.8 25.3 9.25 24.8 9.05 23.9 8.25 22.15 8.25 M20.35 7.0 L20.7 7.0 Q23.35 6.6 25.7 7.6 29.7 8.7 30.9 12.25 L31.1 12.9 Q33.75 16.65 34.75 19.1 36.1 22.15 36.4 25.85 36.15 31.0 34.35 32.9 L33.9 33.45 Q31.1 36.5 27.95 37.1 L27.9 37.1 27.9 37.05 Q29.2 36.65 29.95 35.55 L30.0 35.45 Q30.2 34.45 30.0 33.45 29.8 32.1 28.9 30.85 25.55 27.05 20.7 25.1 L18.55 24.4 17.9 24.25 Q9.9 20.65 8.6 22.35 L8.5 22.55 Q8.25 23.95 9.05 25.65 L9.05 25.7 8.8 25.7 Q7.15 23.0 7.85 19.45 L8.3 18.05 Q9.5 14.85 12.1 13.7 L12.65 12.85 Q14.15 10.4 16.35 8.8 17.65 7.8 19.25 7.3 L20.35 7.0" fill="#999999" fill-opacity="0.49803922" fill-rule="evenodd" stroke="none"/>
  </g>
</svg>
