<?xml version="1.0" encoding="UTF-8" standalone="no"?>
<svg xmlns:ffdec="https://www.free-decompiler.com/flash" xmlns:xlink="http://www.w3.org/1999/xlink" ffdec:objectType="shape" height="26.15px" width="35.6px" xmlns="http://www.w3.org/2000/svg">
  <g transform="matrix(1.0, 0.0, 0.0, 1.0, -4.2, -8.95)">
    <path d="M39.15 21.35 Q37.95 19.05 34.6 17.15 29.4 14.35 22.0 14.35 14.65 14.35 9.4 17.15 6.05 19.05 4.85 21.35 6.05 23.6 9.4 25.4 12.95 27.3 17.35 28.0 21.8 26.9 26.4 28.0 L26.4 28.05 26.55 28.05 26.65 28.0 Q31.15 27.3 34.6 25.4 37.95 23.6 39.15 21.35 M39.75 19.75 Q39.55 21.9 39.8 24.1 39.75 27.4 36.15 29.85 37.95 31.45 37.8 33.2 37.55 35.2 36.2 35.1 35.35 33.85 34.05 33.7 32.0 33.05 25.8 33.5 L25.6 34.2 Q21.65 35.2 17.75 34.2 L17.55 33.45 Q13.0 32.8 9.4 30.8 4.2 28.0 4.2 24.0 L4.2 23.9 Q4.55 21.85 4.25 19.55 L4.25 18.15 Q4.55 14.5 9.4 11.75 14.65 8.95 22.0 8.95 29.4 8.95 34.6 11.75 39.75 14.55 39.8 18.5 L39.75 19.75 M8.0 27.65 L7.8 28.05 8.0 28.45 Q8.15 28.65 8.4 28.65 L8.8 28.45 8.95 28.05 8.8 27.65 8.4 27.45 Q8.15 27.45 8.0 27.65 M14.2 30.25 L13.95 30.65 14.2 31.05 14.65 31.25 15.15 31.05 15.35 30.65 15.15 30.25 14.65 30.05 14.2 30.25 M11.25 30.05 L11.75 29.85 11.95 29.45 11.75 29.05 11.25 28.85 10.85 29.05 10.6 29.45 10.85 29.85 Q11.05 30.05 11.25 30.05" fill="#999999" fill-opacity="0.49803922" fill-rule="evenodd" stroke="none"/>
  </g>
</svg>
