<?xml version="1.0" encoding="UTF-8" standalone="no"?>
<svg xmlns:ffdec="https://www.free-decompiler.com/flash" xmlns:xlink="http://www.w3.org/1999/xlink" ffdec:objectType="shape" height="32.95px" width="28.5px" xmlns="http://www.w3.org/2000/svg">
  <g transform="matrix(1.0, 0.0, 0.0, 1.0, -7.75, -5.55)">
    <path d="M35.7 12.3 Q34.05 16.95 34.25 21.35 L34.65 22.7 33.65 24.45 34.05 25.45 33.4 26.3 Q34.25 28.2 33.4 31.0 L33.5 31.7 32.6 32.35 Q31.2 33.4 31.2 36.25 29.45 38.5 25.5 38.5 22.1 38.6 20.6 36.35 19.85 34.0 20.15 32.35 20.4 29.9 22.85 28.9 22.95 27.15 23.7 26.0 L24.25 25.35 Q25.9 24.35 27.45 24.45 L29.55 24.85 Q26.35 23.65 24.9 24.5 L25.0 23.75 Q25.45 18.85 24.7 13.55 L24.2 10.65 Q24.2 9.3 25.6 8.6 27.0 7.9 29.95 7.9 36.15 8.35 36.25 11.05 36.15 12.0 35.7 12.3 M23.05 10.3 L23.95 16.25 23.75 20.8 23.2 21.25 Q23.15 22.3 23.65 23.35 23.5 24.2 22.65 24.35 L22.95 24.9 22.65 25.3 Q21.85 26.35 21.75 28.15 19.3 29.2 19.0 31.9 L18.95 32.35 18.5 32.6 Q14.65 35.0 12.5 34.25 11.05 33.85 9.25 32.85 8.7 32.6 8.7 31.25 7.95 30.4 7.75 28.25 7.55 25.7 11.35 24.75 11.3 23.9 11.85 23.35 12.75 22.3 14.1 21.65 16.15 22.1 17.05 22.5 L17.5 22.7 Q16.05 21.5 14.3 21.1 L13.45 19.85 Q13.55 18.85 14.05 18.2 13.55 13.25 12.6 10.0 10.75 8.8 11.5 7.25 12.1 5.4 17.8 5.55 23.7 5.9 24.8 7.65 L24.8 7.75 Q23.1 8.55 23.05 10.25 L23.05 10.3" fill="#999999" fill-opacity="0.49803922" fill-rule="evenodd" stroke="none"/>
  </g>
</svg>
