<?xml version="1.0" encoding="UTF-8" standalone="no"?>
<svg xmlns:ffdec="https://www.free-decompiler.com/flash" xmlns:xlink="http://www.w3.org/1999/xlink" ffdec:objectType="shape" height="31.35px" width="28.0px" xmlns="http://www.w3.org/2000/svg">
  <g transform="matrix(1.0, 0.0, 0.0, 1.0, -8.0, -6.35)">
    <path d="M22.05 6.35 L23.0 6.45 Q33.4 7.9 33.9 19.9 L33.4 23.05 Q34.55 21.75 35.5 21.95 36.55 22.85 35.5 24.3 L33.9 27.3 33.4 29.25 32.85 30.2 32.1 29.65 30.55 33.35 Q26.4 37.25 23.0 37.65 L22.05 37.7 Q18.25 37.8 13.4 33.35 L11.95 29.65 11.2 30.2 10.65 29.25 10.15 27.3 8.55 24.3 Q7.5 22.85 8.55 21.95 9.5 21.75 10.65 23.05 L10.15 19.9 Q10.65 7.35 22.05 6.35 M20.0 29.95 L14.05 26.65 Q14.5 28.75 16.75 30.65 19.1 31.3 20.0 29.95 M27.3 30.65 Q29.55 28.75 29.95 26.65 L24.05 29.95 Q24.85 31.3 27.3 30.65" fill="#999999" fill-opacity="0.49803922" fill-rule="evenodd" stroke="none"/>
  </g>
</svg>
