<?xml version="1.0" encoding="UTF-8" standalone="no"?>
<svg xmlns:ffdec="https://www.free-decompiler.com/flash" xmlns:xlink="http://www.w3.org/1999/xlink" ffdec:objectType="shape" height="35.35px" width="28.5px" xmlns="http://www.w3.org/2000/svg">
  <g transform="matrix(1.0, 0.0, 0.0, 1.0, -7.75, -4.35)">
    <path d="M20.65 6.9 L17.9 6.7 Q16.2 6.5 18.25 5.3 15.65 6.3 16.6 6.7 17.65 7.35 20.0 7.45 L22.0 10.25 24.0 7.45 Q26.3 7.35 27.35 6.7 28.3 6.3 25.7 5.3 27.75 6.5 26.1 6.7 L23.3 6.9 22.0 8.75 20.65 6.9 M22.0 11.9 L18.4 11.5 Q14.1 6.9 15.6 5.9 18.05 4.2 22.0 4.35 25.95 4.2 28.35 5.9 29.85 6.9 25.6 11.5 L22.0 11.9 M20.55 16.65 Q20.75 15.55 21.3 14.45 L22.0 13.15 22.7 14.45 23.45 16.65 Q24.15 16.65 24.3 16.05 L23.7 14.45 22.6 12.5 25.6 12.15 Q27.35 12.8 28.65 14.45 29.95 16.15 30.7 18.95 31.5 24.1 34.5 28.9 37.65 33.75 35.05 37.0 32.45 40.4 26.25 39.5 L28.55 38.9 Q30.85 37.95 32.1 36.8 34.5 34.6 30.8 27.3 34.2 36.1 29.65 36.95 27.75 33.65 22.0 33.2 16.2 33.65 14.4 36.95 9.85 36.1 13.2 27.3 9.5 34.6 11.9 36.8 13.1 37.95 15.45 38.9 L17.75 39.5 Q11.55 40.4 8.95 37.0 6.35 33.75 9.5 28.9 12.5 24.1 13.25 18.95 14.05 16.15 15.4 14.45 16.6 12.8 18.4 12.15 L21.4 12.5 Q20.65 13.45 20.3 14.45 L19.65 16.05 Q19.8 16.65 20.55 16.65" fill="#999999" fill-opacity="0.49803922" fill-rule="evenodd" stroke="none"/>
  </g>
</svg>
