<?xml version="1.0" encoding="UTF-8" standalone="no"?>
<svg xmlns:ffdec="https://www.free-decompiler.com/flash" xmlns:xlink="http://www.w3.org/1999/xlink" ffdec:objectType="shape" height="28.3px" width="30.15px" xmlns="http://www.w3.org/2000/svg">
  <g transform="matrix(1.0, 0.0, 0.0, 1.0, -6.95, -7.85)">
    <path d="M21.15 22.05 Q20.95 20.35 20.4 19.2 19.6 17.8 18.55 17.8 16.75 17.8 15.35 19.5 13.85 21.25 13.3 24.3 12.95 27.75 14.1 29.4 L17.3 29.95 17.3 30.0 20.55 30.05 20.95 29.9 21.35 29.3 21.15 22.05 M25.5 17.8 Q24.45 17.8 23.7 19.2 23.1 20.45 22.85 22.4 L22.75 23.4 22.65 29.3 23.05 29.9 23.6 30.05 26.8 30.0 26.8 29.95 29.95 29.4 Q31.1 27.75 30.75 24.3 30.25 21.25 28.75 19.5 27.35 17.8 25.5 17.8 M31.65 9.25 Q32.3 8.0 33.35 9.25 35.7 12.15 37.1 15.95 35.8 18.65 31.25 20.5 32.9 24.2 32.15 28.05 L36.15 28.25 Q37.3 28.1 36.75 29.35 35.55 32.5 32.55 33.45 L30.45 33.35 29.0 34.0 26.75 34.25 26.45 34.25 Q22.05 34.35 22.0 32.9 22.0 34.35 17.6 34.25 L17.3 34.25 15.05 34.0 Q14.25 33.8 13.6 33.35 L11.5 33.45 Q8.45 32.5 7.3 29.35 6.75 28.1 7.9 28.25 L11.9 28.05 Q11.15 24.2 12.75 20.5 8.25 18.65 6.95 15.95 8.4 12.15 10.7 9.25 11.75 8.0 12.45 9.25 14.35 16.4 15.4 17.05 16.95 15.65 18.8 14.95 18.4 14.1 18.8 13.45 19.2 13.15 19.75 13.8 20.25 14.25 20.95 14.35 19.55 12.5 20.0 11.05 20.5 9.6 22.2 8.55 22.75 8.2 23.55 7.9 24.25 7.7 24.05 8.5 L24.05 8.55 Q23.5 13.0 24.35 14.6 26.7 15.3 28.7 17.05 29.7 16.4 31.65 9.25 M18.8 25.05 Q19.4 25.05 19.7 25.65 20.2 26.2 20.2 27.05 20.2 27.85 19.7 28.45 19.4 29.0 18.8 29.0 18.3 29.0 17.9 28.45 17.5 27.85 17.5 27.05 17.5 26.2 17.9 25.65 18.3 25.05 18.8 25.05 M26.5 27.05 Q26.5 27.85 26.1 28.45 L25.15 29.0 Q24.65 29.0 24.15 28.45 23.8 27.85 23.8 27.05 23.8 26.2 24.15 25.65 24.65 25.05 25.15 25.05 25.65 25.05 26.1 25.65 26.5 26.2 26.5 27.05 M16.3 36.0 L15.8 35.75 Q15.35 35.35 15.05 34.55 L17.3 34.85 17.3 35.75 Q17.25 36.4 16.3 36.0 M29.0 34.55 L28.25 35.75 27.75 36.0 Q26.8 36.4 26.75 35.75 L26.75 34.85 29.0 34.55" fill="#999999" fill-opacity="0.49803922" fill-rule="evenodd" stroke="none"/>
  </g>
</svg>
