<?xml version="1.0" encoding="UTF-8" standalone="no"?>
<svg xmlns:ffdec="https://www.free-decompiler.com/flash" xmlns:xlink="http://www.w3.org/1999/xlink" ffdec:objectType="shape" height="31.25px" width="24.05px" xmlns="http://www.w3.org/2000/svg">
  <g transform="matrix(1.0, 0.0, 0.0, 1.0, -7.85, -7.0)">
    <path d="M18.2 14.9 L18.55 15.2 18.15 14.95 18.2 14.9" fill="#5f3401" fill-rule="evenodd" stroke="none"/>
    <path d="M23.25 9.35 L23.5 9.65 25.1 9.95 Q26.35 10.1 28.25 11.0 30.15 11.85 28.3 10.6 26.45 9.3 25.55 9.15 L24.25 9.0 23.5 9.1 Q23.15 9.15 23.25 9.35 M18.55 15.2 L18.65 15.25 Q20.85 14.7 23.95 16.0 26.45 17.3 27.85 19.1 L28.45 19.95 29.05 21.35 29.15 21.7 29.45 21.2 29.9 20.05 30.1 18.45 30.1 18.2 29.9 17.4 Q29.15 14.45 24.8 12.6 L24.7 12.65 Q21.4 11.6 18.2 14.9 L18.15 14.95 18.55 15.2 M25.2 23.0 L25.9 23.3 Q25.95 26.35 24.7 26.4 22.2 25.55 18.95 20.45 15.1 15.2 12.25 15.95 9.4 16.45 10.55 22.2 9.75 24.2 8.65 22.5 L8.5 22.2 8.2 21.05 8.2 20.9 Q6.7 16.0 11.7 13.45 13.6 12.65 12.5 11.25 L12.2 11.05 Q11.35 10.4 11.3 9.5 L11.3 9.35 Q11.3 8.35 12.2 7.65 13.05 7.0 14.3 7.0 15.55 7.0 16.4 7.65 17.3 8.35 17.3 9.35 L17.25 9.85 16.4 11.05 16.1 11.25 Q14.95 12.9 16.45 13.9 21.0 6.95 26.45 8.8 30.2 10.05 31.7 13.85 32.6 21.35 29.45 26.0 L29.25 27.35 29.05 28.0 Q28.45 30.25 27.0 31.45 26.25 32.05 25.2 32.35 L24.65 32.5 24.55 32.5 23.8 33.1 24.25 32.9 Q26.05 33.5 27.2 34.55 L28.45 36.0 28.0 38.25 25.15 37.65 23.85 36.35 Q22.3 35.3 19.85 34.45 L18.85 35.0 16.9 34.4 14.8 32.85 14.8 31.65 15.15 31.5 Q13.5 29.65 12.5 26.5 13.8 26.55 15.4 25.5 12.35 26.05 11.35 22.05 10.8 18.6 13.0 17.85 15.35 18.9 18.0 21.7 17.75 23.85 15.6 25.5 L15.4 25.5 Q16.4 28.4 17.95 30.15 L18.5 29.9 19.6 30.4 22.1 31.85 22.1 32.5 24.55 32.5 Q25.65 31.35 26.25 29.35 L26.75 26.35 26.45 23.45 26.15 22.5 26.1 22.5 24.85 20.3 24.6 20.0 Q23.25 18.55 21.0 17.4 L25.05 22.85 25.2 23.0 M17.25 16.0 Q19.1 16.85 17.25 15.6 15.4 14.35 14.5 14.2 L13.15 14.0 12.5 14.05 12.2 14.4 12.5 14.7 14.05 14.95 Q15.3 15.15 17.25 16.0 M13.9 8.5 L14.35 8.35 14.55 8.05 14.35 7.8 13.9 7.6 13.35 7.8 13.1 8.05 13.35 8.35 13.9 8.5" fill="#999999" fill-opacity="0.49803922" fill-rule="evenodd" stroke="none"/>
  </g>
</svg>
