<?xml version="1.0" encoding="UTF-8" standalone="no"?>
<svg xmlns:ffdec="https://www.free-decompiler.com/flash" xmlns:xlink="http://www.w3.org/1999/xlink" ffdec:objectType="shape" height="32.5px" width="23.5px" xmlns="http://www.w3.org/2000/svg">
  <g transform="matrix(1.0, 0.0, 0.0, 1.0, -10.25, -5.75)">
    <path d="M19.3 27.45 Q19.65 27.8 20.1 27.8 20.55 27.8 20.9 27.45 L21.25 26.65 Q21.25 26.2 20.9 25.85 20.55 25.5 20.1 25.5 19.65 25.5 19.3 25.85 18.95 26.2 18.95 26.65 18.95 27.1 19.3 27.45 M20.6 17.7 Q20.85 17.55 21.15 17.5 22.3 17.35 22.85 19.15 L22.95 19.6 23.15 19.15 Q24.1 16.5 21.15 16.1 L20.85 16.05 Q16.3 16.8 16.75 20.25 17.25 23.9 20.45 22.85 21.5 22.55 22.8 22.85 25.05 23.45 24.7 27.75 24.1 32.0 20.9 32.35 L20.8 32.35 Q15.85 32.3 17.7 27.45 16.15 27.85 15.75 29.95 16.1 34.9 21.5 35.3 27.95 35.8 28.85 27.7 28.7 20.35 23.35 20.7 21.5 20.95 20.25 19.7 19.3 18.25 20.6 17.7 M26.1 14.85 L26.35 14.65 26.5 14.4 26.35 14.15 26.1 14.0 Q26.0 14.0 25.8 14.15 L25.7 14.4 25.8 14.65 26.1 14.85 M28.45 15.3 L29.25 14.95 29.6 14.15 Q29.6 13.65 29.25 13.3 28.9 12.95 28.45 12.95 27.95 12.95 27.6 13.3 27.25 13.65 27.25 14.15 27.25 14.6 27.6 14.95 27.95 15.3 28.45 15.3 M22.6 10.1 Q22.35 10.6 22.35 11.3 L22.6 12.25 23.05 12.85 Q23.75 13.55 24.75 13.55 25.7 13.55 26.4 12.85 27.15 12.15 27.15 11.15 27.15 10.25 26.4 9.5 25.7 8.85 24.75 8.85 23.75 8.85 23.05 9.5 L22.6 10.1 M23.4 7.8 L23.3 8.0 23.4 8.3 23.7 8.45 23.95 8.3 24.05 8.0 23.95 7.8 23.7 7.65 Q23.55 7.65 23.4 7.8 M21.15 5.8 L22.0 5.75 Q23.65 5.75 25.3 6.9 26.95 8.15 28.65 10.6 L28.9 10.95 Q31.35 14.5 32.8 19.15 L33.6 22.35 Q35.15 38.4 22.0 38.25 12.85 38.35 10.85 30.55 9.95 27.15 10.35 22.35 L10.85 20.6 Q12.35 14.85 15.3 10.6 18.3 6.35 21.15 5.8" fill="#999999" fill-opacity="0.49803922" fill-rule="evenodd" stroke="none"/>
  </g>
</svg>
