<?xml version="1.0" encoding="UTF-8" standalone="no"?>
<svg xmlns:ffdec="https://www.free-decompiler.com/flash" xmlns:xlink="http://www.w3.org/1999/xlink" ffdec:objectType="shape" height="47.0px" width="58.0px" xmlns="http://www.w3.org/2000/svg">
  <g transform="matrix(1.0, 0.0, 0.0, 1.0, 0.0, 0.0)">
    <path d="M50.85 11.45 L52.35 13.95 53.2 16.0 53.4 15.95 55.75 15.05 56.35 16.8 Q57.05 19.25 57.1 21.95 L54.3 22.4 54.3 22.65 Q54.3 32.1 46.35 38.7 38.4 45.4 27.15 45.4 15.9 45.4 7.9 38.7 4.8 36.1 2.9 33.05 0.0 28.35 0.0 22.65 0.0 13.3 7.9 6.6 15.9 0.0 27.15 0.0 37.2 0.0 44.6 5.25 L47.55 1.9 49.9 3.65 53.35 7.0 49.7 9.95 50.85 11.45 M43.15 15.25 Q41.95 13.45 40.05 11.9 L39.3 11.35 41.0 9.4 Q35.1 5.05 27.15 5.05 18.45 5.05 12.2 10.2 6.05 15.4 6.05 22.65 6.05 30.0 12.2 35.15 18.45 40.35 27.15 40.35 35.85 40.35 42.1 35.15 47.95 30.25 48.25 23.45 L45.3 23.95 45.35 22.65 Q45.35 20.8 44.9 19.15 L47.6 18.1 Q46.85 15.7 45.25 13.55 L43.15 15.25 M33.95 14.65 Q23.2 17.5 22.45 22.95 21.6 28.5 28.55 28.75 L28.55 22.8 37.05 22.8 37.05 35.1 Q10.85 37.7 12.75 23.55 14.1 12.05 32.05 6.9 L33.95 14.65" fill="#00b0bc" fill-rule="evenodd" stroke="none"/>
    <path d="M43.15 15.25 L45.25 13.55 Q46.85 15.7 47.6 18.1 L44.9 19.15 Q45.35 20.8 45.35 22.65 L45.3 23.95 48.25 23.45 Q47.95 30.25 42.1 35.15 35.85 40.35 27.15 40.35 18.45 40.35 12.2 35.15 6.05 30.0 6.05 22.65 6.05 15.4 12.2 10.2 18.45 5.05 27.15 5.05 35.1 5.05 41.0 9.4 L39.3 11.35 40.05 11.9 Q41.95 13.45 43.15 15.25 M33.95 14.65 L32.05 6.9 Q14.1 12.05 12.75 23.55 10.85 37.7 37.05 35.1 L37.05 22.8 28.55 22.8 28.55 28.75 Q21.6 28.5 22.45 22.95 23.2 17.5 33.95 14.65" fill="#033b48" fill-rule="evenodd" stroke="none"/>
    <path d="M53.35 7.0 L54.25 8.65 50.85 11.45 49.7 9.95 53.35 7.0 M52.35 13.95 L53.4 15.95 53.2 16.0 52.35 13.95 M55.75 15.05 L56.65 16.65 Q57.9 19.95 58.0 23.65 L55.25 24.1 55.25 24.35 Q55.25 33.7 47.25 40.35 39.3 47.0 28.05 47.0 16.8 47.0 8.8 40.35 4.85 37.0 2.9 33.05 4.8 36.1 7.9 38.7 15.9 45.4 27.15 45.4 38.4 45.4 46.35 38.7 54.3 32.1 54.3 22.65 L54.3 22.4 57.1 21.95 Q57.05 19.25 56.35 16.8 L55.75 15.05" fill="#000000" fill-opacity="0.6" fill-rule="evenodd" stroke="none"/>
    <path d="M43.15 15.25 Q41.95 13.45 40.05 11.9 L39.3 11.35 41.0 9.4 Q35.1 5.05 27.15 5.05 18.45 5.05 12.2 10.2 6.05 15.4 6.05 22.65 6.05 30.0 12.2 35.15 18.45 40.35 27.15 40.35 35.85 40.35 42.1 35.15 47.95 30.25 48.25 23.45 L45.3 23.95 45.35 22.65 Q45.35 20.8 44.9 19.15 L47.6 18.1 Q46.85 15.7 45.25 13.55 L43.15 15.25 M33.95 14.65 Q23.2 17.5 22.45 22.95 21.6 28.5 28.55 28.75 L28.55 22.8 37.05 22.8 37.05 35.1 Q10.85 37.7 12.75 23.55 14.1 12.05 32.05 6.9 L33.95 14.65 Z" ffdec:has-small-stroke="true" ffdec:original-stroke-width="0.05" fill="none" stroke="#000000" stroke-linecap="butt" stroke-linejoin="miter-clip" stroke-miterlimit="3.0" stroke-opacity="0.5019608" stroke-width="1.0"/>
  </g>
</svg>
