<?xml version="1.0" encoding="UTF-8" standalone="no"?>
<svg xmlns:ffdec="https://www.free-decompiler.com/flash" xmlns:xlink="http://www.w3.org/1999/xlink" ffdec:objectType="shape" height="49.55px" width="67.45px" xmlns="http://www.w3.org/2000/svg">
  <g transform="matrix(1.0, 0.0, 0.0, 1.0, -0.35, -0.25)">
    <path d="M67.55 9.7 L67.8 12.0 67.65 12.45 67.15 13.5 65.2 16.6 62.35 20.45 60.75 22.15 53.6 22.15 47.6 23.3 Q41.0 23.1 38.3 19.8 35.75 15.6 36.8 11.4 39.0 7.85 43.05 6.5 47.05 6.6 49.25 8.85 L49.65 12.2 48.55 12.1 47.5 10.15 Q45.7 9.1 43.95 9.75 41.1 11.65 40.5 13.6 40.8 15.2 42.15 16.15 44.35 18.0 46.9 18.1 51.75 17.1 53.8 13.6 54.15 10.55 52.6 7.55 50.45 5.3 48.3 4.4 L57.6 6.35 Q62.6 7.5 66.85 8.9 66.65 9.15 67.55 9.7 M34.25 18.2 Q37.15 20.8 38.5 25.8 35.65 26.8 35.25 30.65 35.6 33.95 40.0 36.7 45.75 36.8 47.6 30.65 45.25 29.1 42.1 28.95 L40.6 28.95 Q39.75 27.9 42.05 27.65 48.35 25.0 53.6 27.15 L53.45 27.35 53.05 32.4 40.45 49.8 41.2 44.2 40.95 44.5 33.3 43.0 36.6 39.4 36.1 36.05 33.25 32.4 30.85 34.85 25.75 36.4 Q23.75 36.2 21.85 34.95 L21.95 35.2 Q22.3 36.65 21.0 38.1 19.25 39.8 16.45 39.65 L0.35 36.5 0.35 21.1 4.6 16.25 Q2.8 18.65 5.8 20.4 L9.75 19.3 Q11.3 20.0 10.1 21.85 5.7 22.7 4.7 27.3 6.6 32.45 12.9 35.55 15.35 37.25 17.7 35.25 12.95 29.95 13.3 24.7 13.0 22.3 14.35 19.9 16.45 17.55 18.9 17.6 L22.75 17.6 Q23.7 18.7 22.75 19.5 L20.3 19.5 Q16.45 20.2 16.65 22.85 16.05 26.95 20.3 29.35 L21.7 29.35 Q20.1 28.0 20.4 26.4 22.15 23.25 25.0 23.15 26.75 22.95 26.9 24.1 24.25 24.25 23.3 26.8 24.1 29.15 26.9 30.35 L27.55 30.45 Q33.55 30.15 34.1 24.1 34.4 21.15 33.2 18.65 33.7 18.4 34.25 18.2 M32.0 5.1 Q27.05 9.9 28.05 15.35 28.0 17.8 29.45 19.9 28.85 20.85 27.85 19.9 26.05 18.5 25.5 17.15 24.2 11.85 25.55 6.55 23.25 5.05 20.8 5.1 17.85 6.15 16.45 8.45 16.55 10.2 18.0 12.0 19.75 12.85 21.55 12.0 22.7 12.3 21.55 13.8 18.6 15.25 15.85 14.95 12.5 12.3 10.75 9.3 L18.7 0.25 23.5 0.8 39.5 2.95 32.0 5.1" fill="url(#gradient0)" fill-rule="evenodd" stroke="none"/>
    <path d="M33.2 18.65 L32.0 16.65 Q31.15 15.55 34.25 18.2 33.7 18.4 33.2 18.65" fill="url(#gradient1)" fill-rule="evenodd" stroke="none"/>
  </g>
  <defs>
    <linearGradient gradientTransform="matrix(0.0369, 0.0845, -0.0112, 0.0049, 149.5, -7.1)" gradientUnits="userSpaceOnUse" id="gradient0" spreadMethod="pad" x1="-819.2" x2="819.2">
      <stop offset="0.0" stop-color="#7b552f" stop-opacity="0.5921569"/>
      <stop offset="0.47058823529411764" stop-color="#3e2820" stop-opacity="0.62352943"/>
    </linearGradient>
    <linearGradient gradientTransform="matrix(0.0325, 0.0, 0.0, 0.0173, 26.9, 30.35)" gradientUnits="userSpaceOnUse" id="gradient1" spreadMethod="pad" x1="-819.2" x2="819.2">
      <stop offset="0.0" stop-color="#7b552f" stop-opacity="0.5921569"/>
      <stop offset="0.47058823529411764" stop-color="#3e2820" stop-opacity="0.62352943"/>
    </linearGradient>
  </defs>
</svg>
