<?xml version="1.0" encoding="UTF-8" standalone="no"?>
<svg xmlns:ffdec="https://www.free-decompiler.com/flash" xmlns:xlink="http://www.w3.org/1999/xlink" ffdec:objectType="shape" height="148.85px" width="606.0px" xmlns="http://www.w3.org/2000/svg">
  <g transform="matrix(1.0, 0.0, 0.0, 1.0, -97.0, -22.5)">
    <path d="M694.2 31.3 Q703.0 40.1 703.0 52.5 L703.0 131.65 97.0 131.65 97.0 22.5 673.0 22.5 Q685.4 22.5 694.2 31.3" fill="#796f5a" fill-rule="evenodd" stroke="none"/>
    <path d="M651.05 149.0 L651.05 165.75 Q651.05 170.95 646.2 170.95 L618.95 171.0 618.95 170.95 357.4 171.35 Q352.6 171.35 352.6 166.15 L352.6 149.4 Q352.6 144.15 357.4 144.15 L630.95 143.75 630.95 143.8 646.2 143.75 Q651.05 143.75 651.05 149.0" fill="#433c2b" fill-rule="evenodd" stroke="none"/>
  </g>
</svg>
