<?xml version="1.0" encoding="UTF-8" standalone="no"?>
<svg xmlns:ffdec="https://www.free-decompiler.com/flash" xmlns:xlink="http://www.w3.org/1999/xlink" ffdec:objectType="shape" height="57.7px" width="44.95px" xmlns="http://www.w3.org/2000/svg">
  <g transform="matrix(1.0, 0.0, 0.0, 1.0, -1.85, 16.3)">
    <path d="M29.65 -10.9 Q41.75 -16.3 42.4 -16.3 45.75 -16.3 46.05 -11.65 46.2 -9.15 45.75 -5.35 46.0 -1.7 46.45 0.9 46.8 2.75 46.8 5.7 46.8 11.0 46.25 16.0 45.8 19.65 44.9 20.95 42.9 23.9 36.9 25.0 28.3 26.55 20.25 32.65 18.55 34.05 13.1 37.4 6.6 41.4 5.2 41.4 2.25 41.4 2.35 38.35 L3.15 22.1 1.85 10.45 Q1.85 6.3 4.85 3.3 7.35 0.75 16.0 -4.5 17.6 -5.5 29.65 -10.9" fill="#000000" fill-opacity="0.2" fill-rule="evenodd" stroke="none"/>
  </g>
</svg>
