<?xml version="1.0" encoding="UTF-8" standalone="no"?>
<svg xmlns:ffdec="https://www.free-decompiler.com/flash" xmlns:xlink="http://www.w3.org/1999/xlink" ffdec:objectType="shape" height="28.6px" width="118.0px" xmlns="http://www.w3.org/2000/svg">
  <g transform="matrix(1.0, 0.0, 0.0, 1.0, -0.05, 0.0)">
    <path d="M44.0 0.0 L118.05 0.0 118.05 8.5 118.05 19.0 118.05 21.5 118.05 28.55 118.05 28.6 44.0 28.6 44.0 21.5 44.0 0.0" fill="url(#gradient0)" fill-rule="evenodd" stroke="none"/>
    <path d="M0.05 21.5 L0.05 0.0 44.0 0.0 44.0 21.5 11.5 21.5 0.05 21.5" fill="url(#gradient1)" fill-rule="evenodd" stroke="none"/>
    <path d="M44.0 28.6 L11.5 28.6 11.5 21.5 44.0 21.5 44.0 28.6" fill="url(#gradient2)" fill-rule="evenodd" stroke="none"/>
    <path d="M11.5 28.6 L0.05 28.6 0.05 21.5 11.5 21.5 11.5 28.6" fill="url(#gradient3)" fill-rule="evenodd" stroke="none"/>
  </g>
  <defs>
    <linearGradient gradientTransform="matrix(0.0, 0.0163, -0.5407, 0.0, 42.45, 18.05)" gradientUnits="userSpaceOnUse" id="gradient0" spreadMethod="pad" x1="-819.2" x2="819.2">
      <stop offset="0.0" stop-color="#e2ad43"/>
      <stop offset="0.3058823529411765" stop-color="#e08e16"/>
      <stop offset="0.596078431372549" stop-color="#ac7e34"/>
      <stop offset="1.0" stop-color="#dbbea4"/>
    </linearGradient>
    <linearGradient gradientTransform="matrix(0.0, 0.0163, -0.5407, 0.0, 95.6, 18.05)" gradientUnits="userSpaceOnUse" id="gradient1" spreadMethod="pad" x1="-819.2" x2="819.2">
      <stop offset="0.0" stop-color="#e2ad43"/>
      <stop offset="0.3058823529411765" stop-color="#e08e16"/>
      <stop offset="0.596078431372549" stop-color="#ac7e34"/>
      <stop offset="1.0" stop-color="#dbbea4"/>
    </linearGradient>
    <linearGradient gradientTransform="matrix(0.0, 0.0163, -3.1951, 0.0, 348.9, 18.05)" gradientUnits="userSpaceOnUse" id="gradient2" spreadMethod="pad" x1="-819.2" x2="819.2">
      <stop offset="0.0" stop-color="#e2ad43"/>
      <stop offset="0.3058823529411765" stop-color="#e08e16"/>
      <stop offset="0.596078431372549" stop-color="#ac7e34"/>
      <stop offset="1.0" stop-color="#dbbea4"/>
    </linearGradient>
    <linearGradient gradientTransform="matrix(0.0, 0.0163, -0.5407, 0.0, 75.6, 18.05)" gradientUnits="userSpaceOnUse" id="gradient3" spreadMethod="pad" x1="-819.2" x2="819.2">
      <stop offset="0.0" stop-color="#e2ad43"/>
      <stop offset="0.3058823529411765" stop-color="#e08e16"/>
      <stop offset="0.596078431372549" stop-color="#ac7e34"/>
      <stop offset="1.0" stop-color="#dbbea4"/>
    </linearGradient>
  </defs>
</svg>
