<?xml version="1.0" encoding="UTF-8" standalone="no"?>
<svg xmlns:ffdec="https://www.free-decompiler.com/flash" xmlns:xlink="http://www.w3.org/1999/xlink" ffdec:objectType="shape" height="347.55px" width="539.2px" xmlns="http://www.w3.org/2000/svg">
  <g transform="matrix(1.0, 0.0, 0.0, 1.0, -2.9, -1.45)">
    <path d="M3.9 1.95 L325.3 1.95" fill="none" stroke="#ffffff" stroke-linecap="round" stroke-linejoin="bevel" stroke-width="1.0"/>
    <path d="M251.2 30.3 L252.1 31.9 246.8 34.75 252.1 37.6 251.2 39.15 246.1 36.15 246.25 41.15 244.35 41.15 244.5 36.15 239.5 39.15 238.5 37.6 243.95 34.75 238.5 31.9 239.5 30.3 244.5 33.3 244.35 28.3 246.25 28.3 246.1 33.3 251.2 30.3" fill="#ff9900" fill-rule="evenodd" stroke="none"/>
    <path d="M536.8 34.75 L542.1 37.6 541.2 39.15 536.1 36.15 536.25 41.15 534.35 41.15 534.5 36.15 529.5 39.15 528.5 37.6 533.95 34.75 528.5 31.9 529.5 30.3 534.5 33.3 534.35 28.3 536.25 28.3 536.1 33.3 541.2 30.3 542.1 31.9 536.8 34.75" fill="#ff9900" fill-rule="evenodd" stroke="none"/>
    <path d="M529.5 69.8 L534.5 72.8 534.35 67.8 536.25 67.8 536.1 72.8 541.2 69.8 542.1 71.4 536.8 74.25 542.1 77.1 541.2 78.65 536.1 75.65 536.25 80.65 534.35 80.65 534.5 75.65 529.5 78.65 528.5 77.1 533.95 74.25 528.5 71.4 529.5 69.8" fill="#ff9900" fill-rule="evenodd" stroke="none"/>
    <path d="M252.1 222.4 L246.8 225.25 252.1 228.1 251.2 229.65 246.1 226.65 246.25 231.65 244.35 231.65 244.5 226.65 239.5 229.65 238.5 228.1 243.95 225.25 238.5 222.4 239.5 220.8 244.5 223.8 244.35 218.8 246.25 218.8 246.1 223.8 251.2 220.8 252.1 222.4" fill="#ff9900" fill-rule="evenodd" stroke="none"/>
    <path d="M238.5 341.05 L243.95 338.2 238.5 335.35 239.5 333.75 244.5 336.75 244.35 331.75 246.25 331.75 246.1 336.75 251.2 333.75 252.1 335.35 246.8 338.2 252.1 341.05 251.2 342.6 246.1 339.6 246.25 344.6 244.35 344.6 244.5 339.6 239.5 342.6 238.5 341.05" fill="#ff9900" fill-rule="evenodd" stroke="none"/>
    <path d="M252.1 284.3 L251.2 285.85 246.1 282.85 246.25 287.85 244.35 287.85 244.5 282.85 239.5 285.85 238.5 284.3 243.95 281.45 238.5 278.6 239.5 277.0 244.5 280.0 244.35 275.0 246.25 275.0 246.1 280.0 251.2 277.0 252.1 278.6 246.8 281.45 252.1 284.3" fill="#ff9900" fill-rule="evenodd" stroke="none"/>
    <path d="M252.1 71.4 L246.8 74.25 252.1 77.1 251.2 78.65 246.1 75.65 246.25 80.65 244.35 80.65 244.5 75.65 239.5 78.65 238.5 77.1 243.95 74.25 238.5 71.4 239.5 69.8 244.5 72.8 244.35 67.8 246.25 67.8 246.1 72.8 251.2 69.8 252.1 71.4 M238.5 118.45 L243.95 115.6 238.5 112.75 239.5 111.15 244.5 114.15 244.35 109.15 246.25 109.15 246.1 114.15 251.2 111.15 252.1 112.75 246.8 115.6 252.1 118.45 251.2 120.0 246.1 117.0 246.25 122.0 244.35 122.0 244.5 117.0 239.5 120.0 238.5 118.45" fill="#ff9900" fill-rule="evenodd" stroke="none"/>
    <path d="M232.95 115.9 L232.95 124.5 3.9 124.5 3.9 104.5 232.95 104.5 232.95 113.4 232.95 115.9" fill="#ffffff" fill-opacity="0.83137256" fill-rule="evenodd" stroke="none"/>
    <path d="M232.95 115.9 L232.95 124.5 3.9 124.5 3.9 104.5 232.95 104.5 232.95 113.4" fill="none" stroke="#756448" stroke-linecap="round" stroke-linejoin="bevel" stroke-opacity="0.6313726" stroke-width="2.0"/>
    <path d="M529.5 220.8 L534.5 223.8 534.35 218.8 536.25 218.8 536.1 223.8 541.2 220.8 542.1 222.4 536.8 225.25 542.1 228.1 541.2 229.65 536.1 226.65 536.25 231.65 534.35 231.65 534.5 226.65 529.5 229.65 528.5 228.1 533.95 225.25 528.5 222.4 529.5 220.8" fill="#ff9900" fill-rule="evenodd" stroke="none"/>
    <path d="M3.9 151.95 L325.3 151.95" fill="none" stroke="#ffffff" stroke-linecap="round" stroke-linejoin="bevel" stroke-width="1.0"/>
    <path d="M522.95 227.55 L522.95 236.15 293.9 236.15 293.9 216.15 522.95 216.15 522.95 225.05 522.95 227.55" fill="#ffffff" fill-opacity="0.83137256" fill-rule="evenodd" stroke="none"/>
    <path d="M522.95 227.55 L522.95 236.15 293.9 236.15 293.9 216.15 522.95 216.15 522.95 225.05" fill="none" stroke="#756448" stroke-linecap="round" stroke-linejoin="bevel" stroke-opacity="0.6313726" stroke-width="2.0"/>
    <path d="M232.95 72.05 L232.95 74.55 232.95 83.15 3.9 83.15 3.9 63.15 232.95 63.15 232.95 72.05" fill="#ffffff" fill-opacity="0.83137256" fill-rule="evenodd" stroke="none"/>
    <path d="M232.95 74.55 L232.95 83.15 3.9 83.15 3.9 63.15 232.95 63.15 232.95 72.05" fill="none" stroke="#756448" stroke-linecap="round" stroke-linejoin="bevel" stroke-opacity="0.6313726" stroke-width="2.0"/>
    <path d="M232.95 227.55 L232.95 236.15 3.9 236.15 3.9 216.15 232.95 216.15 232.95 225.05 232.95 227.55" fill="#ffffff" fill-opacity="0.83137256" fill-rule="evenodd" stroke="none"/>
    <path d="M232.95 227.55 L232.95 236.15 3.9 236.15 3.9 216.15 232.95 216.15 232.95 225.05" fill="none" stroke="#756448" stroke-linecap="round" stroke-linejoin="bevel" stroke-opacity="0.6313726" stroke-width="2.0"/>
    <path d="M522.95 74.55 L522.95 83.15 293.9 83.15 293.9 63.15 522.95 63.15 522.95 72.05 522.95 74.55" fill="#ffffff" fill-opacity="0.83137256" fill-rule="evenodd" stroke="none"/>
    <path d="M522.95 74.55 L522.95 83.15 293.9 83.15 293.9 63.15 522.95 63.15 522.95 72.05" fill="none" stroke="#756448" stroke-linecap="round" stroke-linejoin="bevel" stroke-opacity="0.6313726" stroke-width="2.0"/>
    <path d="M522.95 34.1 L522.95 36.6 522.95 45.2 293.9 45.2 293.9 25.2 522.95 25.2 522.95 34.1" fill="#ffffff" fill-opacity="0.83137256" fill-rule="evenodd" stroke="none"/>
    <path d="M522.95 36.6 L522.95 45.2 293.9 45.2 293.9 25.2 522.95 25.2 522.95 34.1" fill="none" stroke="#756448" stroke-linecap="round" stroke-linejoin="bevel" stroke-opacity="0.6313726" stroke-width="2.0"/>
    <path d="M232.95 36.6 L232.95 45.2 3.9 45.2 3.9 25.2 232.95 25.2 232.95 34.1 232.95 36.6" fill="#ffffff" fill-opacity="0.83137256" fill-rule="evenodd" stroke="none"/>
    <path d="M232.95 36.6 L232.95 45.2 3.9 45.2 3.9 25.2 232.95 25.2 232.95 34.1" fill="none" stroke="#756448" stroke-linecap="round" stroke-linejoin="bevel" stroke-opacity="0.6313726" stroke-width="2.0"/>
    <path d="M3.9 348.5 L325.3 348.5" fill="none" stroke="#ffffff" stroke-linecap="round" stroke-linejoin="bevel" stroke-width="1.0"/>
    <path d="M536.8 281.45 L542.1 284.3 541.2 285.85 536.1 282.85 536.25 287.85 534.35 287.85 534.5 282.85 529.5 285.85 528.5 284.3 533.95 281.45 528.5 278.6 529.5 277.0 534.5 280.0 534.35 275.0 536.25 275.0 536.1 280.0 541.2 277.0 542.1 278.6 536.8 281.45" fill="#ff9900" fill-rule="evenodd" stroke="none"/>
    <path d="M536.8 184.75 L542.1 187.6 541.2 189.15 536.1 186.15 536.25 191.15 534.35 191.15 534.5 186.15 529.5 189.15 528.5 187.6 533.95 184.75 528.5 181.85 529.5 180.3 534.5 183.3 534.35 178.3 536.25 178.3 536.1 183.3 541.2 180.3 542.1 181.85 536.8 184.75 M238.5 187.6 L243.95 184.75 238.5 181.85 239.5 180.3 244.5 183.3 244.35 178.3 246.25 178.3 246.1 183.3 251.2 180.3 252.1 181.85 246.8 184.75 252.1 187.6 251.2 189.15 246.1 186.15 246.25 191.15 244.35 191.15 244.5 186.15 239.5 189.15 238.5 187.6" fill="#ff9900" fill-rule="evenodd" stroke="none"/>
    <path d="M522.95 186.55 L522.95 195.15 293.9 195.15 293.9 175.15 522.95 175.15 522.95 184.05 522.95 186.55 M232.95 186.55 L232.95 195.15 3.9 195.15 3.9 175.15 232.95 175.15 232.95 184.05 232.95 186.55" fill="#ffffff" fill-opacity="0.83137256" fill-rule="evenodd" stroke="none"/>
    <path d="M522.95 186.55 L522.95 195.15 293.9 195.15 293.9 175.15 522.95 175.15 522.95 184.05 M232.95 186.55 L232.95 195.15 3.9 195.15 3.9 175.15 232.95 175.15 232.95 184.05" fill="none" stroke="#756448" stroke-linecap="round" stroke-linejoin="bevel" stroke-opacity="0.6313726" stroke-width="2.0"/>
  </g>
</svg>
