<?xml version="1.0" encoding="UTF-8" standalone="no"?>
<svg xmlns:ffdec="https://www.free-decompiler.com/flash" xmlns:xlink="http://www.w3.org/1999/xlink" ffdec:objectType="shape" height="22.8px" width="38.75px" xmlns="http://www.w3.org/2000/svg">
  <g transform="matrix(1.0, 0.0, 0.0, 1.0, 1.0, 1.05)">
    <path d="M8.7 -0.05 L16.15 -0.05 16.15 0.0 16.15 20.7 8.7 20.7 8.7 0.0 8.7 -0.05 M8.7 0.0 L16.15 0.0 8.7 0.0" fill="url(#gradient0)" fill-rule="evenodd" stroke="none"/>
    <path d="M16.15 -0.05 L16.2 -0.05 16.2 0.0 16.15 0.0 16.2 0.0 16.2 20.7 16.15 20.7 16.15 0.0 16.15 -0.05" fill="url(#gradient1)" fill-rule="evenodd" stroke="none"/>
    <path d="M0.25 19.05 L0.0 17.35 0.0 3.4 0.0 3.35 0.4 1.3 0.6 1.0 Q1.2 -0.05 2.7 -0.05 L8.7 -0.05 8.7 0.0 8.7 20.7 2.7 20.7 Q0.8 20.7 0.25 19.05 M8.7 0.0 L2.7 0.0 Q1.2 0.0 0.6 1.0 1.2 0.0 2.7 0.0 L8.7 0.0" fill="url(#gradient2)" fill-rule="evenodd" stroke="none"/>
    <path d="M16.2 -0.05 L19.0 0.0 27.5 -0.05 28.05 -0.05 31.8 0.0 34.05 -0.05 Q35.5 -0.05 36.2 1.0 L36.35 1.3 36.5 1.7 36.7 3.35 36.7 17.35 Q36.7 20.7 34.05 20.7 L16.2 20.7 16.2 0.0 16.2 -0.05 M36.2 1.0 Q35.5 0.0 34.0 0.0 L31.8 0.0 34.0 0.0 Q35.5 0.0 36.2 1.0 M19.0 0.0 L16.2 0.0 19.0 0.0" fill="url(#gradient3)" fill-rule="evenodd" stroke="none"/>
    <path d="M19.0 0.0 L27.5 -0.05 M28.05 -0.05 L31.8 0.0 34.0 0.0 Q35.5 0.0 36.2 1.0 L36.35 1.3 36.5 1.7 36.75 3.4 36.75 17.35 Q36.7 20.75 34.0 20.75 L2.7 20.75 Q0.75 20.75 0.25 19.05 L0.0 17.35 0.0 3.4 0.0 3.35 0.4 1.3 0.6 1.0 Q1.2 0.0 2.7 0.0 L8.7 0.0 16.15 0.0 16.2 0.0 19.0 0.0" fill="none" stroke="#f0c193" stroke-linecap="round" stroke-linejoin="bevel" stroke-width="2.0"/>
  </g>
  <defs>
    <linearGradient gradientTransform="matrix(1.0E-4, -0.0119, 0.0127, 1.0E-4, 23.0, 9.9)" gradientUnits="userSpaceOnUse" id="gradient0" spreadMethod="pad" x1="-819.2" x2="819.2">
      <stop offset="0.0" stop-color="#aaaaaa"/>
      <stop offset="0.11372549019607843" stop-color="#ffffff"/>
      <stop offset="0.6745098039215687" stop-color="#ffffff"/>
      <stop offset="1.0" stop-color="#6f6f6f"/>
    </linearGradient>
    <linearGradient gradientTransform="matrix(1.0E-4, -0.0119, 0.0127, 1.0E-4, 6.75, 9.9)" gradientUnits="userSpaceOnUse" id="gradient1" spreadMethod="pad" x1="-819.2" x2="819.2">
      <stop offset="0.0" stop-color="#aaaaaa"/>
      <stop offset="0.11372549019607843" stop-color="#ffffff"/>
      <stop offset="0.6745098039215687" stop-color="#ffffff"/>
      <stop offset="1.0" stop-color="#6f6f6f"/>
    </linearGradient>
    <linearGradient gradientTransform="matrix(1.0E-4, -0.0119, 0.0127, 1.0E-4, 43.65, 9.9)" gradientUnits="userSpaceOnUse" id="gradient2" spreadMethod="pad" x1="-819.2" x2="819.2">
      <stop offset="0.0" stop-color="#aaaaaa"/>
      <stop offset="0.11372549019607843" stop-color="#ffffff"/>
      <stop offset="0.6745098039215687" stop-color="#ffffff"/>
      <stop offset="1.0" stop-color="#6f6f6f"/>
    </linearGradient>
    <linearGradient gradientTransform="matrix(1.0E-4, -0.0119, 0.0127, 1.0E-4, -2.55, 9.9)" gradientUnits="userSpaceOnUse" id="gradient3" spreadMethod="pad" x1="-819.2" x2="819.2">
      <stop offset="0.0" stop-color="#aaaaaa"/>
      <stop offset="0.11372549019607843" stop-color="#ffffff"/>
      <stop offset="0.6745098039215687" stop-color="#ffffff"/>
      <stop offset="1.0" stop-color="#6f6f6f"/>
    </linearGradient>
  </defs>
</svg>
