<?xml version="1.0" encoding="UTF-8" standalone="no"?>
<svg xmlns:ffdec="https://www.free-decompiler.com/flash" xmlns:xlink="http://www.w3.org/1999/xlink" ffdec:objectType="shape" height="22.75px" width="71.0px" xmlns="http://www.w3.org/2000/svg">
  <g transform="matrix(1.0, 0.0, 0.0, 1.0, 0.95, 1.0)">
    <path d="M0.2 18.85 L0.0 17.35 0.0 3.35 Q0.0 -0.05 2.75 -0.05 L37.15 -0.05 2.75 -0.05 Q0.0 -0.05 0.0 3.35 L0.0 17.35 0.2 18.85 0.45 19.55 0.2 18.85 Q0.0 18.2 0.05 17.35 L0.05 3.4 Q0.0 0.0 2.7 0.0 L37.15 0.0 2.7 0.0 Q0.0 0.0 0.05 3.4 L0.05 17.35 Q0.0 18.2 0.2 18.85 M37.15 20.7 L2.75 20.7 Q1.1 20.7 0.45 19.55 1.1 20.75 2.7 20.75 L66.3 20.75 Q69.0 20.75 69.05 17.35 L69.05 3.4 68.85 1.9 68.55 1.2 68.4 0.95 Q67.7 -0.05 66.3 -0.05 L37.15 -0.05 37.15 0.0 37.15 20.7" fill="url(#gradient0)" fill-rule="evenodd" stroke="none"/>
    <path d="M37.15 20.7 L37.15 0.0 37.15 -0.05 66.3 -0.05 Q67.7 -0.05 68.4 0.95 67.7 0.0 66.3 0.0 L37.15 0.0 66.3 0.0 Q67.7 0.0 68.4 0.95 L68.55 1.2 68.85 1.9 69.0 3.35 69.0 17.35 Q69.0 20.7 66.3 20.7 L37.15 20.7" fill="url(#gradient1)" fill-rule="evenodd" stroke="none"/>
    <path d="M0.2 18.85 L0.45 19.55 Q1.1 20.75 2.7 20.75 L66.3 20.75 Q69.0 20.75 69.05 17.35 L69.05 3.4 68.85 1.9 68.55 1.2 68.4 0.95 Q67.7 0.0 66.3 0.0 L37.15 0.0 2.7 0.0 Q0.0 0.0 0.05 3.4 L0.05 17.35 Q0.0 18.2 0.2 18.85 Z" fill="none" stroke="#ab9362" stroke-linecap="round" stroke-linejoin="bevel" stroke-width="2.0"/>
  </g>
  <defs>
    <linearGradient gradientTransform="matrix(1.0E-4, -0.0119, 0.0127, 1.0E-4, 43.65, 9.9)" gradientUnits="userSpaceOnUse" id="gradient0" spreadMethod="pad" x1="-819.2" x2="819.2">
      <stop offset="0.0" stop-color="#aaaaaa"/>
      <stop offset="0.11372549019607843" stop-color="#ffffff"/>
      <stop offset="0.6745098039215687" stop-color="#ffffff"/>
      <stop offset="1.0" stop-color="#6f6f6f"/>
    </linearGradient>
    <linearGradient gradientTransform="matrix(1.0E-4, -0.0119, 0.0127, 1.0E-4, 29.7, 9.9)" gradientUnits="userSpaceOnUse" id="gradient1" spreadMethod="pad" x1="-819.2" x2="819.2">
      <stop offset="0.0" stop-color="#aaaaaa"/>
      <stop offset="0.11372549019607843" stop-color="#ffffff"/>
      <stop offset="0.6745098039215687" stop-color="#ffffff"/>
      <stop offset="1.0" stop-color="#6f6f6f"/>
    </linearGradient>
  </defs>
</svg>
