<?xml version="1.0" encoding="UTF-8" standalone="no"?>
<svg xmlns:ffdec="https://www.free-decompiler.com/flash" xmlns:xlink="http://www.w3.org/1999/xlink" ffdec:objectType="shape" height="22.4px" width="220.0px" xmlns="http://www.w3.org/2000/svg">
  <g transform="matrix(1.0, 0.0, 0.0, 1.0, -319.1, 3.2)">
    <path d="M319.6 -2.8 L320.7 -3.2 Q325.55 -3.05 329.6 -0.3 333.35 2.25 336.4 7.15 341.85 16.1 349.75 16.2 L508.4 16.2 Q516.35 16.1 521.8 7.15 L521.85 7.15 Q524.85 2.25 528.65 -0.3 532.65 -3.05 537.5 -3.2 538.1 -3.2 538.65 -2.8 L539.1 -1.75 Q539.1 -1.15 538.7 -0.65 538.25 -0.2 537.6 -0.2 529.75 0.15 524.45 8.7 518.0 19.3 508.4 19.2 L349.75 19.2 Q340.2 19.3 333.75 8.7 L333.8 8.7 Q328.45 0.15 320.6 -0.2 319.95 -0.2 319.5 -0.65 319.1 -1.15 319.1 -1.75 319.1 -2.35 319.6 -2.8" fill="#ffffff" fill-opacity="0.4" fill-rule="evenodd" stroke="none"/>
    <path d="M329.55 -0.05 L356.6 -0.05 356.6 0.0 528.7 -0.05 Q524.9 2.5 521.9 7.4 L521.85 7.4 Q516.4 16.35 508.45 16.45 L356.6 16.4 356.6 16.45 349.7 16.45 Q341.8 16.35 336.35 7.4 333.3 2.5 329.55 -0.05" fill="#ffffff" fill-rule="evenodd" stroke="none"/>
  </g>
</svg>
