<?xml version="1.0" encoding="UTF-8" standalone="no"?>
<svg xmlns:ffdec="https://www.free-decompiler.com/flash" xmlns:xlink="http://www.w3.org/1999/xlink" ffdec:objectType="shape" height="329.0px" width="329.0px" xmlns="http://www.w3.org/2000/svg">
  <g transform="matrix(1.0, 0.0, 0.0, 1.0, 0.0, 0.0)">
    <path d="M309.0 19.0 L309.0 262.15 307.75 257.7 21.2 257.7 19.0 265.65 19.0 19.0 309.0 19.0" fill="#000000" fill-rule="evenodd" stroke="none"/>
    <path d="M309.0 262.15 L328.15 328.15 329.0 329.0 0.0 329.0 2.3 326.55 19.0 265.65 21.2 257.7 307.75 257.7 309.0 262.15" fill="url(#gradient0)" fill-rule="evenodd" stroke="none"/>
    <path d="M19.0 265.65 L2.3 326.55 0.0 329.0 0.0 0.0 19.0 19.0 19.0 265.65" fill="url(#gradient1)" fill-rule="evenodd" stroke="none"/>
    <path d="M329.0 329.0 L328.15 328.15 309.0 262.15 309.0 19.0 329.0 0.0 329.0 329.0" fill="url(#gradient2)" fill-rule="evenodd" stroke="none"/>
    <path d="M329.0 0.0 L309.0 19.0 19.0 19.0 0.0 0.0 329.0 0.0" fill="url(#gradient3)" fill-rule="evenodd" stroke="none"/>
  </g>
  <defs>
    <linearGradient gradientTransform="matrix(0.0, -0.0401, 0.0122, 0.0, 165.55, 293.25)" gradientUnits="userSpaceOnUse" id="gradient0" spreadMethod="pad" x1="-819.2" x2="819.2">
      <stop offset="0.0" stop-color="#ffffff" stop-opacity="0.0"/>
      <stop offset="1.0" stop-color="#000000"/>
    </linearGradient>
    <linearGradient gradientTransform="matrix(0.0106, 0.0, 0.0, 0.2008, 9.5, 164.5)" gradientUnits="userSpaceOnUse" id="gradient1" spreadMethod="pad" x1="-819.2" x2="819.2">
      <stop offset="0.0" stop-color="#ffffff" stop-opacity="0.0"/>
      <stop offset="1.0" stop-color="#000000"/>
    </linearGradient>
    <linearGradient gradientTransform="matrix(-0.0102, 0.0, 0.0, -0.2008, 319.0, 164.5)" gradientUnits="userSpaceOnUse" id="gradient2" spreadMethod="pad" x1="-819.2" x2="819.2">
      <stop offset="0.0" stop-color="#ffffff" stop-opacity="0.0"/>
      <stop offset="1.0" stop-color="#000000"/>
    </linearGradient>
    <linearGradient gradientTransform="matrix(0.0, 0.0092, -0.0116, 0.0, 164.5, 9.5)" gradientUnits="userSpaceOnUse" id="gradient3" spreadMethod="pad" x1="-819.2" x2="819.2">
      <stop offset="0.0" stop-color="#ffffff" stop-opacity="0.0"/>
      <stop offset="1.0" stop-color="#000000"/>
    </linearGradient>
  </defs>
</svg>
