<?xml version="1.0" encoding="UTF-8" standalone="no"?>
<svg xmlns:ffdec="https://www.free-decompiler.com/flash" xmlns:xlink="http://www.w3.org/1999/xlink" ffdec:objectType="shape" height="3.8px" width="6.4px" xmlns="http://www.w3.org/2000/svg">
  <g transform="matrix(1.0, 0.0, 0.0, 1.0, 2.75, 3.25)">
    <path d="M3.65 -0.3 L3.5 -0.2 Q2.7 0.45 1.35 0.45 L0.55 0.35 Q-0.25 -1.2 -1.1 -2.05 L-2.75 -3.05 -1.35 -2.85 1.35 -3.1 1.75 -3.25 2.45 -2.55 Q3.45 -1.5 3.65 -0.75 L3.65 -0.3 Z" ffdec:has-small-stroke="true" ffdec:original-stroke-width="0.05" fill="none" stroke="#1c1c1c" stroke-linecap="butt" stroke-linejoin="miter-clip" stroke-miterlimit="3.0" stroke-opacity="0.5019608" stroke-width="1.0"/>
    <path d="M1.9 -2.4 L-0.55 -2.15 -1.4 -2.85 1.3 -3.15 1.9 -2.4" fill="#ffffff" fill-opacity="0.30980393" fill-rule="evenodd" stroke="none"/>
    <path d="M1.9 -2.4 L2.4 -2.6 3.65 -0.75 3.65 -0.25 3.5 -0.15 Q2.7 0.55 1.35 0.55 L0.55 0.55 0.55 0.5 -1.1 -2.0 -0.55 -2.15 1.1 -0.05 Q2.2 0.05 3.2 -0.45 L1.9 -2.4" fill="#000000" fill-opacity="0.18039216" fill-rule="evenodd" stroke="none"/>
  </g>
</svg>
