<?xml version="1.0" encoding="UTF-8" standalone="no"?>
<svg xmlns:ffdec="https://www.free-decompiler.com/flash" xmlns:xlink="http://www.w3.org/1999/xlink" ffdec:objectType="shape" height="5.3px" width="4.4px" xmlns="http://www.w3.org/2000/svg">
  <g transform="matrix(1.0, 0.0, 0.0, 1.0, 2.35, 0.7)">
    <path d="M0.85 -0.4 L1.25 -0.4 1.95 0.45 2.05 1.7 1.3 2.2 0.85 -0.4 M2.0 2.15 L1.8 3.85 1.1 4.6 0.15 4.2 0.0 4.1 -0.35 3.05 0.95 3.05 -0.35 3.05 -1.2 2.75 -1.0 2.15 1.25 2.15 1.3 2.2 1.0 3.05 2.0 2.15 M0.95 3.05 L1.0 3.05 0.95 3.05" fill="#f4dfb5" fill-rule="evenodd" stroke="none"/>
    <path d="M1.3 2.2 L2.05 1.7 2.0 2.15 1.0 3.05 1.3 2.2 M0.15 4.2 L-0.3 4.4 -1.25 4.1 -1.25 3.45 -2.05 3.35 -2.35 1.55 -1.9 1.2 -1.45 1.3 -1.25 -0.1 -0.75 0.35 -0.1 1.2 -1.05 1.55 -1.0 2.15 -1.2 2.75 -0.35 3.05 0.0 4.1 0.15 4.2 M-0.3 4.4 L-0.35 3.05 -0.3 4.4 M-2.3 1.55 L-1.45 1.75 -1.2 2.3 -1.2 2.75 -1.2 2.3 -1.45 1.75 -2.3 1.55" fill="#daa674" fill-rule="evenodd" stroke="none"/>
    <path d="M0.85 -0.4 L1.3 2.2 1.25 2.15 -1.0 2.15 -1.05 1.55 -0.1 1.2 -0.75 0.35 -1.25 -0.1 -0.8 -0.7 0.85 -0.4" fill="#d9c6a0" fill-rule="evenodd" stroke="none"/>
    <path d="M2.05 1.7 L1.95 0.45 M2.0 2.15 L1.8 3.85 1.1 4.6 0.15 4.2 -0.3 4.4 -1.25 4.1 M-1.25 3.45 L-2.05 3.35 -2.35 1.55 -1.9 1.2 -1.45 1.3 -1.25 -0.1 -0.8 -0.7 M2.0 2.15 L1.0 3.05 M0.95 3.05 L-0.35 3.05 0.0 4.1 0.15 4.2 M-1.0 2.15 L-1.2 2.75 -0.35 3.05 M-0.1 1.2 L-0.75 0.35" ffdec:has-small-stroke="true" ffdec:original-stroke-width="0.05" fill="none" stroke="#1c1c1c" stroke-linecap="butt" stroke-linejoin="miter-clip" stroke-miterlimit="3.0" stroke-opacity="0.5019608" stroke-width="1.0"/>
  </g>
</svg>
