<?xml version="1.0" encoding="UTF-8" standalone="no"?>
<svg xmlns:ffdec="https://www.free-decompiler.com/flash" xmlns:xlink="http://www.w3.org/1999/xlink" ffdec:objectType="shape" height="17.0px" width="17.05px" xmlns="http://www.w3.org/2000/svg">
  <g transform="matrix(1.0, 0.0, 0.0, 1.0, 0.0, 0.0)">
    <path d="M12.3 0.45 L14.4 0.85 Q16.55 1.7 16.6 4.6 L16.6 12.1 Q16.6 16.55 12.3 16.55 L4.75 16.55 Q0.45 16.55 0.45 12.1 L0.45 4.6 Q0.5 1.7 2.65 0.85 L4.75 0.45 12.3 0.45 M16.1 9.7 L16.1 4.6 Q16.05 2.1 14.2 1.3 13.45 0.95 12.3 0.95 L4.75 0.95 2.85 1.3 Q1.0 2.1 0.95 4.6 L0.95 9.7 0.95 12.1 Q0.95 16.05 4.75 16.05 L12.3 16.05 Q16.1 16.05 16.1 12.1 L16.1 9.7" fill="#3d220d" fill-rule="evenodd" stroke="none"/>
    <path d="M12.3 0.45 L4.75 0.45 2.65 0.85 Q0.5 1.7 0.45 4.6 L0.45 12.1 Q0.45 16.55 4.75 16.55 L12.3 16.55 Q16.6 16.55 16.6 12.1 L16.6 4.6 Q16.55 1.7 14.4 0.85 L12.3 0.45 M17.05 3.5 L17.05 13.4 Q16.65 17.0 12.65 17.0 L4.4 17.0 Q0.4 17.0 0.0 13.4 L0.0 3.5 Q0.3 1.15 2.15 0.35 3.25 -0.1 4.4 0.0 L12.65 0.0 Q13.8 -0.1 14.9 0.35 16.75 1.15 17.05 3.5" fill="#ffffff" fill-opacity="0.0" fill-rule="evenodd" stroke="none"/>
    <path d="M14.3 2.55 Q13.35 1.75 11.35 1.75 L5.7 1.75 Q3.7 1.75 2.75 2.55 1.8 3.4 1.65 5.4 3.8 3.6 6.45 3.6 L10.6 3.6 Q13.25 3.6 15.4 5.4 15.25 3.4 14.3 2.55 M0.95 9.7 L0.95 4.6 Q1.0 2.1 2.85 1.3 L4.75 0.95 12.3 0.95 Q13.45 0.95 14.2 1.3 16.05 2.1 16.1 4.6 L16.1 9.7 Q15.35 12.0 12.3 12.0 L4.75 12.0 Q1.7 12.0 0.95 9.7" fill="#ff8811" fill-rule="evenodd" stroke="none"/>
    <path d="M14.3 2.55 Q15.25 3.4 15.4 5.4 13.25 3.6 10.6 3.6 L6.45 3.6 Q3.8 3.6 1.65 5.4 1.8 3.4 2.75 2.55 3.7 1.75 5.7 1.75 L11.35 1.75 Q13.35 1.75 14.3 2.55" fill="#ffb13e" fill-rule="evenodd" stroke="none"/>
    <path d="M16.1 9.7 L16.1 12.1 Q16.1 16.05 12.3 16.05 L4.75 16.05 Q0.95 16.05 0.95 12.1 L0.95 9.7 Q1.7 12.0 4.75 12.0 L12.3 12.0 Q15.35 12.0 16.1 9.7" fill="#db6f02" fill-rule="evenodd" stroke="none"/>
    <path d="M9.6 7.45 Q9.2 6.95 8.5 6.95 7.85 6.95 7.45 7.45 7.0 7.85 7.0 8.55 7.0 9.15 7.45 9.6 7.85 10.05 8.5 10.05 L9.6 9.6 10.05 8.55 Q10.05 7.85 9.6 7.45 M10.15 5.25 L10.2 5.3 10.25 5.25 10.95 5.0 Q11.2 4.7 11.6 4.75 11.95 4.75 12.25 5.05 L12.5 5.65 12.2 6.3 Q11.9 6.6 11.9 6.95 L11.9 7.1 11.9 7.25 12.15 7.5 12.7 7.6 13.35 7.85 13.65 8.55 13.4 9.15 12.75 9.4 12.05 9.7 11.95 9.8 11.85 9.95 11.85 10.0 11.8 10.05 11.8 10.1 11.75 10.25 11.7 10.35 12.0 11.0 12.25 11.7 11.9 12.3 11.3 12.5 10.65 12.25 Q10.35 11.9 10.0 11.9 L9.85 11.9 9.8 11.9 9.65 12.0 Q9.4 12.25 9.4 12.7 L9.1 13.35 8.45 13.55 7.85 13.35 7.6 12.7 7.35 12.0 7.25 11.9 7.2 11.9 7.2 11.85 6.85 11.65 6.7 11.6 6.65 11.6 6.05 11.85 Q5.75 12.15 5.35 12.1 5.05 12.1 4.75 11.8 4.5 11.55 4.55 11.15 4.55 10.75 4.85 10.5 L5.15 9.9 5.2 9.9 5.2 9.8 5.15 9.8 5.15 9.75 5.05 9.65 Q4.8 9.4 4.35 9.4 L3.7 9.15 3.45 8.45 Q3.45 8.1 3.7 7.85 L4.35 7.6 5.05 7.3 5.15 7.2 5.35 6.8 5.05 6.25 4.75 5.6 Q4.75 5.2 5.05 4.9 5.25 4.7 5.65 4.7 L6.3 4.9 Q6.55 5.15 6.85 5.2 L6.95 5.25 7.1 5.2 7.25 5.1 7.4 5.0 7.65 4.3 7.9 3.65 8.6 3.4 9.2 3.65 9.45 4.3 Q9.45 4.75 9.75 5.0 L9.75 5.05 9.85 5.1 10.0 5.2 10.15 5.25" fill="#3f220b" fill-rule="evenodd" stroke="none"/>
  </g>
</svg>
