<?xml version="1.0" encoding="UTF-8" standalone="no"?>
<svg xmlns:ffdec="https://www.free-decompiler.com/flash" xmlns:xlink="http://www.w3.org/1999/xlink" ffdec:objectType="shape" height="7.95px" width="5.3px" xmlns="http://www.w3.org/2000/svg">
  <g transform="matrix(1.0, 0.0, 0.0, 1.0, 0.6, 4.05)">
    <path d="M1.35 3.45 Q0.15 2.35 -0.6 0.0 L-0.55 -0.2 2.15 1.1 2.7 3.55 Q2.35 4.3 1.35 3.45" fill="#825428" fill-opacity="0.3019608" fill-rule="evenodd" stroke="none"/>
    <path d="M1.0 -1.65 L1.0 -1.6 0.65 -1.1 1.0 -1.65" fill="#f8f3df" fill-rule="evenodd" stroke="none"/>
    <path d="M4.7 -3.9 L4.55 -3.1 3.85 -1.65 Q4.15 -1.1 4.05 -0.65 L4.05 -0.55 3.85 -0.15 3.4 0.75 3.3 1.1 3.05 2.2 2.6 2.75 Q1.6 2.9 0.65 2.2 L-0.15 1.45 Q-0.7 -0.35 -0.45 -2.9 L0.55 -3.15 1.35 -3.5 2.95 -4.05 3.75 -4.05 4.7 -3.9 M3.35 0.8 L3.35 0.85 3.4 0.75 3.35 0.85 3.35 0.8 M3.4 0.75 L3.45 0.6 3.4 0.65 3.4 0.75 M3.45 0.6 L3.5 0.5 3.85 -0.15 3.5 0.5 3.45 0.6" fill="#f4dfb5" fill-rule="evenodd" stroke="none"/>
    <path d="M4.7 -3.9 L3.75 -4.05 2.95 -4.05 1.35 -3.5 0.55 -3.15 M-0.15 1.45 L0.65 2.2 Q1.6 2.9 2.6 2.75 L3.05 2.2 3.3 1.1 3.4 0.75 3.4 0.65 3.45 0.6 3.5 0.5 3.85 -0.15 4.05 -0.55 4.05 -0.65 Q4.15 -1.1 3.85 -1.65" ffdec:has-small-stroke="true" ffdec:original-stroke-width="0.05" fill="none" stroke="#1f1f1f" stroke-linecap="butt" stroke-linejoin="miter-clip" stroke-miterlimit="3.0" stroke-opacity="0.3019608" stroke-width="1.0"/>
    <path d="M4.35 -3.2 L4.35 -2.2 Q4.05 -1.4 3.65 -1.3 L3.65 -2.1 Q3.9 -2.85 4.35 -3.2 M2.1 -1.8 L2.1 -1.05 Q1.5 -0.6 1.1 -1.05 L1.1 -2.05 Q1.75 -2.3 2.1 -1.8" fill="#ffffff" fill-rule="evenodd" stroke="none"/>
    <path d="M3.65 -2.1 Q3.9 -2.85 4.35 -3.2 M2.1 -1.8 Q1.75 -2.3 1.1 -2.05" ffdec:has-small-stroke="true" ffdec:original-stroke-width="0.05" fill="none" stroke="#1f1f1f" stroke-linecap="butt" stroke-linejoin="miter-clip" stroke-miterlimit="3.0" stroke-opacity="0.5019608" stroke-width="1.0"/>
  </g>
</svg>
