<?xml version="1.0" encoding="UTF-8" standalone="no"?>
<svg xmlns:ffdec="https://www.free-decompiler.com/flash" xmlns:xlink="http://www.w3.org/1999/xlink" ffdec:objectType="shape" height="9.75px" width="8.2px" xmlns="http://www.w3.org/2000/svg">
  <g transform="matrix(1.0, 0.0, 0.0, 1.0, 4.2, 3.0)">
    <path d="M3.25 -1.4 L4.0 1.85 3.1 2.9 0.9 1.4 -1.35 3.55 Q-1.2 5.15 -1.8 6.75 -2.5 5.75 -2.55 4.25 L-4.2 1.65 -2.9 -2.75 -1.0 -2.6 0.35 -3.0 3.25 -1.4" fill="#050103" fill-rule="evenodd" stroke="none"/>
    <path d="M-0.9 -2.6 L0.35 -3.0 3.25 -1.4 1.15 -0.35 -0.9 -2.6" fill="#ffd3ab" fill-opacity="0.3019608" fill-rule="evenodd" stroke="none"/>
    <path d="M1.15 -0.35 L-0.5 -0.35 -2.35 4.45 -2.4 4.5 -4.2 1.65 -2.9 -2.75 -1.0 -2.6 -0.9 -2.6 1.15 -0.35" fill="#481e00" fill-opacity="0.3019608" fill-rule="evenodd" stroke="none"/>
  </g>
</svg>
