<?xml version="1.0" encoding="UTF-8" standalone="no"?>
<svg xmlns:ffdec="https://www.free-decompiler.com/flash" xmlns:xlink="http://www.w3.org/1999/xlink" ffdec:objectType="shape" height="17.0px" width="17.05px" xmlns="http://www.w3.org/2000/svg">
  <g transform="matrix(1.0, 0.0, 0.0, 1.0, 0.0, 0.0)">
    <path d="M12.3 0.45 L14.4 0.85 Q16.55 1.7 16.6 4.6 L16.6 12.1 Q16.6 16.55 12.3 16.55 L4.75 16.55 Q0.45 16.55 0.45 12.1 L0.45 4.6 Q0.5 1.7 2.65 0.85 L4.75 0.45 12.3 0.45 M16.1 9.7 L16.1 4.6 Q16.05 2.1 14.2 1.3 13.45 0.95 12.3 0.95 L4.75 0.95 2.85 1.3 Q1.0 2.1 0.95 4.6 L0.95 9.7 0.95 12.1 Q0.95 16.05 4.75 16.05 L12.3 16.05 Q16.1 16.05 16.1 12.1 L16.1 9.7" fill="#3d220d" fill-rule="evenodd" stroke="none"/>
    <path d="M12.3 0.45 L4.75 0.45 2.65 0.85 Q0.5 1.7 0.45 4.6 L0.45 12.1 Q0.45 16.55 4.75 16.55 L12.3 16.55 Q16.6 16.55 16.6 12.1 L16.6 4.6 Q16.55 1.7 14.4 0.85 L12.3 0.45 M17.05 3.5 L17.05 13.4 Q16.65 17.0 12.65 17.0 L4.4 17.0 Q0.4 17.0 0.0 13.4 L0.0 3.5 Q0.3 1.15 2.15 0.35 3.25 -0.1 4.4 0.0 L12.65 0.0 Q13.8 -0.1 14.9 0.35 16.75 1.15 17.05 3.5" fill="#ffffff" fill-opacity="0.0" fill-rule="evenodd" stroke="none"/>
    <path d="M14.3 2.55 Q13.35 1.75 11.35 1.75 L5.7 1.75 Q3.7 1.75 2.75 2.55 1.8 3.4 1.65 5.4 3.8 3.6 6.45 3.6 L10.6 3.6 Q13.25 3.6 15.4 5.4 15.25 3.4 14.3 2.55 M0.95 9.7 L0.95 4.6 Q1.0 2.1 2.85 1.3 L4.75 0.95 12.3 0.95 Q13.45 0.95 14.2 1.3 16.05 2.1 16.1 4.6 L16.1 9.7 Q15.35 12.0 12.3 12.0 L4.75 12.0 Q1.7 12.0 0.95 9.7" fill="#ff8811" fill-rule="evenodd" stroke="none"/>
    <path d="M14.3 2.55 Q15.25 3.4 15.4 5.4 13.25 3.6 10.6 3.6 L6.45 3.6 Q3.8 3.6 1.65 5.4 1.8 3.4 2.75 2.55 3.7 1.75 5.7 1.75 L11.35 1.75 Q13.35 1.75 14.3 2.55" fill="#ffb13e" fill-rule="evenodd" stroke="none"/>
    <path d="M16.1 9.7 L16.1 12.1 Q16.1 16.05 12.3 16.05 L4.75 16.05 Q0.95 16.05 0.95 12.1 L0.95 9.7 Q1.7 12.0 4.75 12.0 L12.3 12.0 Q15.35 12.0 16.1 9.7" fill="#db6f02" fill-rule="evenodd" stroke="none"/>
    <path d="M11.05 4.05 L13.25 6.3 12.9 6.65 12.45 6.45 Q12.25 6.45 12.1 6.6 L10.15 8.55 12.15 10.6 12.4 10.75 12.85 10.55 13.25 10.95 11.05 13.2 10.6 12.75 10.75 12.65 10.8 12.35 10.75 12.05 8.7 10.0 6.65 12.05 6.55 12.4 6.7 12.85 6.35 13.2 4.15 10.95 4.5 10.6 4.95 10.85 5.25 10.65 7.3 8.65 5.25 6.6 5.05 6.6 Q4.95 6.55 4.6 6.75 L4.2 6.35 6.4 4.15 6.85 4.55 6.65 4.95 6.7 5.15 8.75 7.2 10.8 5.15 10.9 4.9 10.65 4.45 11.05 4.05" fill="#3f220b" fill-rule="evenodd" stroke="none"/>
  </g>
</svg>
