<?xml version="1.0" encoding="UTF-8" standalone="no"?>
<svg xmlns:ffdec="https://www.free-decompiler.com/flash" xmlns:xlink="http://www.w3.org/1999/xlink" ffdec:objectType="shape" height="34.7px" width="120.45px" xmlns="http://www.w3.org/2000/svg">
  <g transform="matrix(1.0, 0.0, 0.0, 1.0, 0.0, 0.0)">
    <path d="M119.5 21.95 L120.45 21.45 120.45 24.7 Q120.45 34.7 110.45 34.7 L10.0 34.7 Q0.0 34.7 0.0 24.7 0.35 23.3 1.2 22.1 5.9 15.1 24.85 15.15 38.1 15.15 56.5 17.8 L82.75 21.45 Q113.35 25.0 119.5 21.95" fill="#000000" fill-opacity="0.15294118" fill-rule="evenodd" stroke="none"/>
    <path d="M119.35 11.65 Q119.15 2.9 110.25 2.9 L10.3 2.9 Q1.4 2.9 1.2 11.65 L1.2 9.1 Q1.2 0.0 10.3 0.0 L110.25 0.0 Q119.35 0.0 119.35 9.1 L119.35 11.65" fill="#ffffff" fill-opacity="0.3019608" fill-rule="evenodd" stroke="none"/>
  </g>
</svg>
