<?xml version="1.0" encoding="UTF-8" standalone="no"?>
<svg xmlns:ffdec="https://www.free-decompiler.com/flash" xmlns:xlink="http://www.w3.org/1999/xlink" ffdec:objectType="shape" height="15.0px" width="16.15px" xmlns="http://www.w3.org/2000/svg">
  <g transform="matrix(1.0, 0.0, 0.0, 1.0, -403.0, -230.55)">
    <path d="M416.9 233.65 L416.1 234.45 Q416.7 235.25 416.95 236.2 L417.55 235.95 418.0 237.85 417.2 238.0 417.2 238.1 Q417.2 240.7 415.3 242.65 413.35 244.55 410.6 244.55 408.45 244.55 406.8 243.35 L405.95 242.65 Q404.0 240.7 404.0 238.1 404.0 235.35 405.95 233.45 L406.8 232.75 Q407.65 232.15 408.55 231.85 L410.6 231.55 Q413.1 231.55 414.9 233.1 L415.65 232.15 416.9 233.65 M406.8 234.55 Q405.4 236.0 405.4 238.1 405.4 240.15 406.8 241.6 L406.95 241.7 Q408.5 243.2 410.65 243.2 412.8 243.2 414.35 241.7 415.75 240.3 415.85 238.3 L415.15 238.5 414.85 237.1 415.7 236.75 415.15 235.45 414.45 236.15 413.55 235.1 414.1 234.3 Q412.65 232.95 410.65 232.95 L408.55 233.35 Q407.65 233.75 406.95 234.4 L406.8 234.55 M411.1 240.0 L411.1 238.15 413.1 238.15 413.1 241.65 408.95 241.4 Q406.55 240.2 407.3 237.4 408.55 234.3 411.95 233.55 L412.4 235.8 Q409.55 236.45 409.45 238.45 409.5 239.95 411.1 240.0" fill="#2b1509" fill-rule="evenodd" stroke="none"/>
    <path d="M416.9 233.65 L415.65 232.15 414.9 233.1 Q413.1 231.55 410.6 231.55 L408.55 231.85 Q407.65 232.15 406.8 232.75 L405.95 233.45 Q404.0 235.35 404.0 238.1 404.0 240.7 405.95 242.65 L406.8 243.35 Q408.45 244.55 410.6 244.55 413.35 244.55 415.3 242.65 417.2 240.7 417.2 238.1 L417.2 238.0 418.0 237.85 417.55 235.95 416.95 236.2 Q416.7 235.25 416.1 234.45 L416.9 233.65 M406.8 234.55 Q405.4 236.0 405.4 238.1 405.4 240.15 406.8 241.6 L406.95 241.7 Q408.5 243.2 410.65 243.2 412.8 243.2 414.35 241.7 415.75 240.3 415.85 238.3 L415.15 238.5 414.85 237.1 415.7 236.75 415.15 235.45 414.45 236.15 413.55 235.1 414.1 234.3 Q412.65 232.95 410.65 232.95 L408.55 233.35 Q407.65 233.75 406.95 234.4 L406.8 234.55 M411.1 240.0 Q409.5 239.95 409.45 238.45 409.55 236.45 412.4 235.8 L411.95 233.55 Q408.55 234.3 407.3 237.4 406.55 240.2 408.95 241.4 L413.1 241.65 413.1 238.15 411.1 238.15 411.1 240.0 Z" fill="none" stroke="#2b1509" stroke-linecap="butt" stroke-linejoin="miter-clip" stroke-miterlimit="3.0" stroke-width="2.0"/>
    <path d="M415.65 232.15 L416.9 233.65 416.1 234.45 Q416.7 235.25 416.95 236.2 L417.55 235.95 418.0 237.85 417.2 238.0 417.2 238.1 Q417.2 240.7 415.3 242.65 413.35 244.55 410.6 244.55 407.9 244.55 405.95 242.65 404.0 240.7 404.0 238.1 404.0 235.35 405.95 233.45 407.15 232.3 408.55 231.85 L410.6 231.55 Q413.1 231.55 414.9 233.1 L415.65 232.15 M414.1 234.3 Q412.65 232.95 410.65 232.95 L408.55 233.35 Q407.65 233.75 406.95 234.4 405.4 235.95 405.4 238.1 405.4 240.25 406.95 241.7 408.5 243.2 410.65 243.2 412.8 243.2 414.35 241.7 415.75 240.3 415.85 238.3 L415.15 238.5 414.85 237.1 415.7 236.75 415.15 235.45 414.45 236.15 413.55 235.1 414.1 234.3 M411.1 240.0 L411.1 238.15 413.1 238.15 413.1 241.65 408.95 241.4 Q406.55 240.2 407.3 237.4 408.55 234.3 411.95 233.55 L412.4 235.8 Q409.55 236.45 409.45 238.45 409.5 239.95 411.1 240.0" fill="#54bcbc" fill-rule="evenodd" stroke="none"/>
    <path d="M414.1 234.3 L413.55 235.1 414.45 236.15 415.15 235.45 415.7 236.75 414.85 237.1 415.15 238.5 415.85 238.3 Q415.75 240.3 414.35 241.7 412.8 243.2 410.65 243.2 408.5 243.2 406.95 241.7 405.4 240.25 405.4 238.1 405.4 235.95 406.95 234.4 407.65 233.75 408.55 233.35 L410.65 232.95 Q412.65 232.95 414.1 234.3 M411.1 240.0 Q409.5 239.95 409.45 238.45 409.55 236.45 412.4 235.8 L411.95 233.55 Q408.55 234.3 407.3 237.4 406.55 240.2 408.95 241.4 L413.1 241.65 413.1 238.15 411.1 238.15 411.1 240.0" fill="#1d3638" fill-rule="evenodd" stroke="none"/>
  </g>
</svg>
