<?xml version="1.0" encoding="UTF-8" standalone="no"?>
<svg xmlns:ffdec="https://www.free-decompiler.com/flash" xmlns:xlink="http://www.w3.org/1999/xlink" ffdec:objectType="shape" height="107.7px" width="112.0px" xmlns="http://www.w3.org/2000/svg">
  <g transform="matrix(1.0, 0.0, 0.0, 1.0, 0.0, 0.0)">
    <path d="M95.7 91.4 Q79.4 107.7 55.5 107.7 32.55 107.7 16.25 91.4 0.0 75.15 0.0 52.2 0.0 29.2 16.25 12.95 23.05 6.15 36.35 0.7 37.05 3.0 38.45 5.15 41.8 10.3 46.4 14.55 50.6 18.35 56.0 21.7 L57.0 21.7 Q59.3 20.3 65.55 14.55 70.2 10.3 73.5 5.1 75.15 2.5 75.8 0.0 86.7 3.95 95.7 12.95 111.95 29.2 112.0 52.2 111.95 75.2 95.7 91.4" fill="#e7dcc7" fill-rule="evenodd" stroke="none"/>
  </g>
</svg>
