<?xml version="1.0" encoding="UTF-8" standalone="no"?>
<svg xmlns:ffdec="https://www.free-decompiler.com/flash" xmlns:xlink="http://www.w3.org/1999/xlink" ffdec:objectType="shape" height="36.2px" width="27.95px" xmlns="http://www.w3.org/2000/svg">
  <g transform="matrix(1.0, 0.0, 0.0, 1.0, -12.0, -256.95)">
    <path d="M27.7 289.4 L26.1 289.9 26.05 290.2 26.0 290.05 25.7 288.9 25.6 289.05 24.75 289.9 22.8 291.05 Q21.85 291.55 20.8 291.65 L19.85 291.55 19.65 291.5 19.15 290.2 19.2 290.2 21.65 290.5 24.55 289.25 25.6 288.55 25.4 287.8 26.5 287.4 28.55 286.5 29.0 287.8 31.6 283.85 31.0 285.1 30.1 287.25 29.7 288.25 Q28.7 288.3 27.85 288.7 L27.55 288.8 27.65 288.9 27.7 289.2 26.1 289.6 26.05 289.95 26.0 290.05 26.05 289.95 26.1 289.6 27.7 289.2 27.7 289.4 M17.25 283.05 L16.75 281.2 16.85 281.25 17.65 281.55 17.4 282.65 17.7 282.9 18.15 283.2 18.0 283.15 17.35 283.05 16.85 281.25 17.35 283.05 17.25 283.05 M15.6 275.65 L15.3 274.65 15.4 274.65 16.55 275.5 18.85 276.1 21.25 275.7 22.1 275.3 22.6 274.85 23.1 273.85 22.75 271.2 22.65 270.9 22.65 270.6 22.65 270.4 22.25 269.6 22.3 269.45 24.25 268.65 24.45 268.75 24.45 268.95 24.25 271.85 Q24.1 273.2 24.3 274.4 L24.4 274.55 23.9 274.8 22.75 275.3 22.9 275.7 21.3 276.75 19.35 277.15 Q17.2 277.15 15.7 275.85 L15.6 275.65 15.4 274.65 15.6 275.65 M30.25 273.05 L30.0 273.65 28.8 276.2 Q28.15 277.6 26.9 278.15 L26.35 277.6 26.25 277.6 Q25.75 277.9 25.25 278.0 L26.05 282.2 26.65 284.95 25.85 285.3 24.85 285.65 24.75 285.3 24.4 285.45 23.65 281.5 Q23.9 280.25 23.4 279.1 L23.3 279.1 Q23.15 278.25 23.55 277.5 L23.55 277.35 23.65 277.3 23.75 277.15 23.8 277.1 24.05 277.15 24.85 276.85 26.9 276.1 27.4 277.45 30.25 273.05 M15.75 270.35 L15.6 270.15 Q14.9 269.25 14.55 268.3 14.25 267.2 14.55 266.15 14.9 265.3 15.85 264.55 16.7 264.2 18.2 264.55 L31.1 258.75 31.25 259.3 18.65 265.3 18.35 265.2 18.35 265.15 18.25 265.15 16.2 265.2 Q15.75 265.5 15.45 265.95 L14.95 266.7 Q14.75 267.75 15.1 268.75 L15.75 270.35 M19.2 290.2 L19.65 291.2 19.85 291.55 19.65 291.2 19.2 290.2" fill="#583701" fill-rule="evenodd" stroke="none"/>
    <path d="M12.5 267.0 L13.4 264.65 Q13.75 264.0 15.05 263.35 L17.2 263.35 30.6 257.65 31.75 258.45 31.95 259.95 31.25 259.3 31.1 258.75 18.2 264.55 Q16.7 264.2 15.85 264.55 14.9 265.3 14.55 266.15 14.25 267.2 14.55 268.3 14.9 269.25 15.6 270.15 L15.75 270.35 15.75 270.4 15.9 270.55 Q17.65 271.6 19.85 271.7 20.95 271.45 21.3 270.75 21.3 269.9 20.8 269.1 L20.2 268.35 20.95 268.35 21.1 268.35 22.95 267.6 23.05 267.6 32.75 263.55 33.75 264.7 Q35.25 270.55 39.1 270.45 L38.65 279.9 Q34.9 282.5 35.2 286.8 L27.7 289.2 35.2 286.8 35.2 287.0 27.7 289.4 27.7 289.2 27.65 288.9 27.55 288.8 27.85 288.7 Q28.7 288.3 29.7 288.25 L30.1 287.25 31.0 285.1 31.6 283.85 32.25 282.75 27.25 282.75 27.8 284.5 26.65 284.95 26.05 282.2 25.25 278.0 Q25.75 277.9 26.25 277.6 L26.35 277.6 26.9 278.15 Q28.15 277.6 28.8 276.2 L30.0 273.65 30.25 273.05 30.95 271.95 25.6 271.95 26.1 273.85 24.4 274.55 24.3 274.4 Q24.1 273.2 24.25 271.85 L24.45 268.95 24.45 268.75 24.25 268.65 22.3 269.45 22.25 269.6 22.65 270.4 22.65 270.6 22.65 270.9 22.65 271.25 21.5 272.55 21.1 272.75 Q19.15 273.25 17.4 272.7 16.55 272.35 14.55 270.7 L13.75 270.05 Q12.65 268.45 12.5 267.0 12.75 268.35 13.75 269.75 L13.75 270.05 13.75 269.75 Q12.75 268.35 12.5 267.0 M26.05 290.2 Q25.85 291.0 25.25 291.65 L24.2 292.65 Q22.25 293.3 20.65 292.65 L19.65 291.5 19.85 291.55 20.8 291.65 Q21.85 291.55 22.8 291.05 L24.75 289.9 25.6 289.05 25.7 288.9 26.0 290.05 26.05 290.2 M18.25 286.9 L18.25 286.65 17.25 283.05 17.35 283.05 18.0 283.15 18.15 283.2 17.7 282.9 17.4 282.65 17.65 281.55 16.85 281.25 16.75 281.2 15.85 279.55 15.55 278.6 15.45 278.3 15.35 277.75 15.3 277.65 15.3 277.35 15.35 277.75 15.3 277.35 Q15.3 276.6 15.7 275.85 17.2 277.15 19.35 277.15 L21.3 276.75 22.9 275.7 23.25 278.25 23.55 277.35 23.55 277.5 Q23.15 278.25 23.3 279.1 L23.4 279.1 Q23.9 280.25 23.65 281.5 L24.4 285.45 23.1 286.25 20.8 287.1 20.3 287.1 18.25 286.9 M15.55 278.6 L15.85 279.3 16.75 280.95 16.85 281.25 16.75 280.95 15.85 279.3 15.55 278.6 M18.25 286.65 L18.25 286.6 17.35 283.05 18.25 286.6 18.25 286.65 M19.85 291.55 L20.65 292.35 Q22.25 293.0 24.2 292.35 L25.2 291.4 26.0 290.05 25.2 291.4 24.2 292.35 Q22.25 293.0 20.65 292.35 L19.85 291.55" fill="#784b01" fill-rule="evenodd" stroke="none"/>
    <path d="M31.95 259.95 L34.4 261.8 29.15 264.4 25.85 265.4 31.1 261.9 Q30.0 262.25 29.05 262.85 24.75 265.0 20.15 266.55 L21.8 265.4 19.65 266.5 19.85 266.85 Q20.0 267.45 20.8 267.65 L20.95 268.3 20.95 268.35 20.2 268.35 20.8 269.1 20.3 269.95 Q19.45 270.6 18.55 270.55 17.7 270.45 17.2 269.65 15.25 266.85 18.25 265.2 L18.35 265.2 18.65 265.3 31.25 259.3 31.95 259.95 M15.45 265.95 Q15.75 265.5 16.2 265.2 L18.25 265.15 15.45 265.95" fill="#ffeac8" fill-rule="evenodd" stroke="none"/>
    <path d="M34.4 261.8 L35.2 262.45 32.75 263.55 23.05 267.6 22.95 267.6 21.1 268.35 20.95 268.35 20.95 268.3 20.8 267.65 Q20.0 267.45 19.85 266.85 L19.65 266.5 21.8 265.4 20.15 266.55 Q24.75 265.0 29.05 262.85 30.0 262.25 31.1 261.9 L25.85 265.4 29.15 264.4 34.4 261.8 M20.8 269.1 Q21.3 269.9 21.3 270.75 20.95 271.45 19.85 271.7 17.65 271.6 15.9 270.55 L15.75 270.4 15.75 270.35 15.1 268.75 Q14.75 267.75 14.95 266.7 L15.45 265.95 18.25 265.15 18.35 265.15 18.35 265.2 18.25 265.2 Q15.25 266.85 17.2 269.65 17.7 270.45 18.55 270.55 19.45 270.6 20.3 269.95 L20.8 269.1" fill="#ffc88a" fill-rule="evenodd" stroke="none"/>
    <path d="M39.45 262.35 L39.1 270.45 Q35.25 270.55 33.75 264.7 L39.45 262.35 M38.65 279.9 L38.4 285.35 38.35 286.1 35.2 287.0 35.2 286.8 Q34.9 282.5 38.65 279.9 M19.15 290.2 L18.4 288.7 18.25 287.7 18.25 287.6 18.25 287.2 18.25 286.9 20.3 287.1 20.8 287.1 23.1 286.25 24.4 285.45 24.75 285.3 24.85 285.65 25.4 287.8 25.6 288.55 24.55 289.25 21.65 290.5 19.2 290.2 19.15 290.2 M15.3 274.65 L14.1 273.75 14.1 273.5 14.1 272.9 13.95 271.35 13.75 270.05 14.55 270.7 Q16.55 272.35 17.4 272.7 19.15 273.25 21.1 272.75 L21.5 272.55 22.65 271.25 22.75 271.2 23.1 273.85 22.6 274.85 22.1 275.3 21.25 275.7 18.85 276.1 16.55 275.5 15.4 274.65 15.3 274.65 M24.4 274.55 L26.1 273.85 25.6 271.95 30.95 271.95 30.25 273.05 27.4 277.45 26.9 276.1 24.85 276.85 23.9 274.8 24.4 274.55 M26.65 284.95 L27.8 284.5 27.25 282.75 32.25 282.75 31.6 283.85 29.0 287.8 28.55 286.5 26.5 287.4 25.85 285.3 26.65 284.95 M15.4 274.65 L15.3 274.35 14.1 273.5 15.3 274.35 15.4 274.65 M14.1 272.9 L14.1 272.6 13.95 271.35 14.1 272.6 14.1 272.9 M19.2 290.2 L19.15 289.9 18.4 288.45 18.25 287.7 18.4 288.45 19.15 289.9 19.2 290.2 M38.4 285.35 L38.35 285.8 35.2 286.8 38.35 285.8 38.4 285.35" fill="#ffcc00" fill-rule="evenodd" stroke="none"/>
    <path d="M35.2 262.45 L38.3 261.25 39.45 262.25 39.45 262.35 33.75 264.7 32.75 263.55 35.2 262.45 M22.9 275.7 L22.75 275.3 23.9 274.8 24.85 276.85 24.05 277.15 23.8 277.1 23.75 277.15 23.65 277.3 23.55 277.35 23.25 278.25 22.9 275.7 M25.4 287.8 L24.85 285.65 25.85 285.3 26.5 287.4 25.4 287.8" fill="#cd9332" fill-rule="evenodd" stroke="none"/>
    <path d="M39.45 262.25 L39.45 262.1 38.3 260.95 35.2 262.25 31.95 259.65 31.75 258.2 30.6 257.45 17.2 263.05 15.05 263.05 Q13.75 263.7 13.4 264.35 L12.5 266.7 12.5 267.0 Q12.75 268.35 13.75 269.75 L13.75 270.05 13.95 271.35 14.1 272.6 14.1 272.9 14.1 273.5 15.3 274.35 15.4 274.65 15.6 275.65 Q15.25 276.45 15.3 277.35 L15.35 277.75 15.45 278.3 15.55 278.6 15.85 279.3 16.75 280.95 16.85 281.25 17.35 283.05 18.25 286.6 18.25 286.65 18.25 286.9 M39.45 262.25 L39.45 262.35 39.1 270.45 38.65 279.9 38.4 285.35 38.35 285.8 35.2 286.8 27.7 289.2 26.1 289.6 26.05 289.95 26.0 290.05 25.2 291.4 24.2 292.35 Q22.25 293.0 20.65 292.35 L19.85 291.55 19.65 291.2 19.2 290.2 19.15 289.9 18.4 288.45 18.25 287.7 18.25 287.6 18.25 287.2" fill="none" stroke="#663300" stroke-linecap="round" stroke-linejoin="bevel" stroke-width="1.0"/>
  </g>
</svg>
