<?xml version="1.0" encoding="UTF-8" standalone="no"?>
<svg xmlns:ffdec="https://www.free-decompiler.com/flash" xmlns:xlink="http://www.w3.org/1999/xlink" ffdec:objectType="shape" height="36.2px" width="27.95px" xmlns="http://www.w3.org/2000/svg">
  <g transform="matrix(1.0, 0.0, 0.0, 1.0, -12.0, -36.95)">
    <path d="M15.45 45.95 L14.95 46.7 Q14.75 47.75 15.1 48.75 L15.75 50.35 15.6 50.15 Q14.9 49.25 14.55 48.3 14.25 47.2 14.55 46.15 14.9 45.3 15.85 44.55 16.7 44.2 18.2 44.55 L31.1 38.75 31.25 39.3 18.65 45.3 18.35 45.2 18.35 45.15 18.25 45.15 16.2 45.2 Q15.75 45.5 15.45 45.95 M22.65 50.9 L22.65 50.6 22.65 50.4 22.25 49.6 22.3 49.45 24.25 48.65 24.45 48.75 24.45 48.95 24.25 51.85 Q24.1 53.2 24.3 54.4 L24.4 54.55 23.9 54.8 22.75 55.3 22.9 55.7 21.3 56.75 19.35 57.15 Q17.2 57.15 15.7 55.85 L15.6 55.65 15.3 54.65 15.4 54.65 16.55 55.5 18.85 56.1 21.25 55.7 22.1 55.3 22.6 54.85 23.1 53.85 22.75 51.2 22.65 50.9 M30.25 53.05 L30.0 53.65 28.8 56.2 Q28.15 57.6 26.9 58.15 L26.35 57.6 26.25 57.6 Q25.75 57.9 25.25 58.0 L26.05 62.2 26.65 64.95 25.85 65.3 24.85 65.65 24.75 65.3 24.4 65.45 23.65 61.5 Q23.9 60.25 23.4 59.1 L23.3 59.1 Q23.15 58.25 23.55 57.5 L23.55 57.35 23.65 57.3 23.75 57.15 23.8 57.1 24.05 57.15 24.85 56.85 26.9 56.1 27.4 57.45 30.25 53.05 M31.6 63.85 L31.0 65.1 30.1 67.25 29.7 68.25 Q28.7 68.3 27.85 68.7 L27.55 68.8 27.65 68.9 27.7 69.2 26.1 69.6 26.05 69.95 26.0 70.05 26.05 69.95 26.1 69.6 27.7 69.2 27.7 69.4 26.1 69.9 26.05 70.2 26.0 70.05 25.7 68.9 25.6 69.05 24.75 69.9 22.8 71.05 Q21.85 71.55 20.8 71.65 L19.85 71.55 19.65 71.5 19.15 70.2 19.2 70.2 21.65 70.5 24.55 69.25 25.6 68.55 25.4 67.8 26.5 67.4 28.55 66.5 29.0 67.8 31.6 63.85 M16.85 61.25 L17.65 61.55 17.4 62.65 17.7 62.9 18.15 63.2 18.0 63.15 17.35 63.05 17.25 63.05 16.75 61.2 16.85 61.25 17.35 63.05 16.85 61.25 M19.85 71.55 L19.65 71.2 19.2 70.2 19.65 71.2 19.85 71.55 M15.6 55.65 L15.4 54.65 15.6 55.65" fill="#583701" fill-rule="evenodd" stroke="none"/>
    <path d="M15.75 50.35 L15.1 48.75 Q14.75 47.75 14.95 46.7 L15.45 45.95 18.25 45.15 18.35 45.15 18.35 45.2 18.25 45.2 Q15.25 46.85 17.2 49.65 17.7 50.45 18.55 50.55 19.45 50.6 20.3 49.95 L20.8 49.1 Q21.3 49.9 21.3 50.75 20.95 51.45 19.85 51.7 17.65 51.6 15.9 50.55 L15.75 50.4 15.75 50.35 M34.4 41.8 L35.2 42.45 32.75 43.55 23.05 47.6 22.95 47.6 21.1 48.35 20.95 48.35 20.95 48.3 20.8 47.65 Q20.0 47.45 19.85 46.85 L19.65 46.5 21.8 45.4 20.15 46.55 Q24.75 45.0 29.05 42.85 30.0 42.25 31.1 41.9 L25.85 45.4 29.15 44.4 34.4 41.8" fill="#ffc88a" fill-rule="evenodd" stroke="none"/>
    <path d="M31.25 39.3 L31.1 38.75 18.2 44.55 Q16.7 44.2 15.85 44.55 14.9 45.3 14.55 46.15 14.25 47.2 14.55 48.3 14.9 49.25 15.6 50.15 L15.75 50.35 15.75 50.4 15.9 50.55 Q17.65 51.6 19.85 51.7 20.95 51.45 21.3 50.75 21.3 49.9 20.8 49.1 L20.2 48.35 20.95 48.35 21.1 48.35 22.95 47.6 23.05 47.6 32.75 43.55 33.75 44.7 Q35.25 50.55 39.1 50.45 L38.65 59.9 Q34.9 62.5 35.2 66.8 L27.7 69.2 35.2 66.8 35.2 67.0 27.7 69.4 27.7 69.2 27.65 68.9 27.55 68.8 27.85 68.7 Q28.7 68.3 29.7 68.25 L30.1 67.25 31.0 65.1 31.6 63.85 32.25 62.75 27.25 62.75 27.8 64.5 26.65 64.95 26.05 62.2 25.25 58.0 Q25.75 57.9 26.25 57.6 L26.35 57.6 26.9 58.15 Q28.15 57.6 28.8 56.2 L30.0 53.65 30.25 53.05 30.95 51.95 25.6 51.95 26.1 53.85 24.4 54.55 24.3 54.4 Q24.1 53.2 24.25 51.85 L24.45 48.95 24.45 48.75 24.25 48.65 22.3 49.45 22.25 49.6 22.65 50.4 22.65 50.6 22.65 50.9 22.65 51.25 21.5 52.55 21.1 52.75 Q19.15 53.25 17.4 52.7 16.55 52.35 14.55 50.7 L13.75 50.05 13.75 49.75 Q12.75 48.35 12.5 47.0 12.75 48.35 13.75 49.75 L13.75 50.05 Q12.65 48.45 12.5 47.0 L13.4 44.65 Q13.75 44.0 15.05 43.35 L17.2 43.35 30.6 37.65 31.75 38.45 31.95 39.95 31.25 39.3 M22.9 55.7 L23.25 58.25 23.55 57.35 23.55 57.5 Q23.15 58.25 23.3 59.1 L23.4 59.1 Q23.9 60.25 23.65 61.5 L24.4 65.45 23.1 66.25 20.8 67.1 20.3 67.1 18.25 66.9 18.25 66.65 18.25 66.6 17.35 63.05 18.25 66.6 18.25 66.65 17.25 63.05 17.35 63.05 18.0 63.15 18.15 63.2 17.7 62.9 17.4 62.65 17.65 61.55 16.85 61.25 16.75 60.95 15.85 59.3 15.55 58.6 15.85 59.3 16.75 60.95 16.85 61.25 16.75 61.2 15.85 59.55 15.55 58.6 15.45 58.3 15.35 57.75 15.3 57.35 15.35 57.75 15.3 57.65 15.3 57.35 Q15.3 56.6 15.7 55.85 17.2 57.15 19.35 57.15 L21.3 56.75 22.9 55.7 M19.85 71.55 L20.8 71.65 Q21.85 71.55 22.8 71.05 L24.75 69.9 25.6 69.05 25.7 68.9 26.0 70.05 25.2 71.4 24.2 72.35 Q22.25 73.0 20.65 72.35 L19.85 71.55 20.65 72.35 Q22.25 73.0 24.2 72.35 L25.2 71.4 26.0 70.05 26.05 70.2 Q25.85 71.0 25.25 71.65 L24.2 72.65 Q22.25 73.3 20.65 72.65 L19.65 71.5 19.85 71.55" fill="#784b01" fill-rule="evenodd" stroke="none"/>
    <path d="M15.45 45.95 Q15.75 45.5 16.2 45.2 L18.25 45.15 15.45 45.95 M18.35 45.2 L18.65 45.3 31.25 39.3 31.95 39.95 34.4 41.8 29.15 44.4 25.85 45.4 31.1 41.9 Q30.0 42.25 29.05 42.85 24.75 45.0 20.15 46.55 L21.8 45.4 19.65 46.5 19.85 46.85 Q20.0 47.45 20.8 47.65 L20.95 48.3 20.95 48.35 20.2 48.35 20.8 49.1 20.3 49.95 Q19.45 50.6 18.55 50.55 17.7 50.45 17.2 49.65 15.25 46.85 18.25 45.2 L18.35 45.2" fill="#ffeac8" fill-rule="evenodd" stroke="none"/>
    <path d="M35.2 42.45 L38.3 41.25 39.45 42.25 39.45 42.35 33.75 44.7 32.75 43.55 35.2 42.45 M23.9 54.8 L24.85 56.85 24.05 57.15 23.8 57.1 23.75 57.15 23.65 57.3 23.55 57.35 23.25 58.25 22.9 55.7 22.75 55.3 23.9 54.8 M24.85 65.65 L25.85 65.3 26.5 67.4 25.4 67.8 24.85 65.65" fill="#cd9332" fill-rule="evenodd" stroke="none"/>
    <path d="M13.75 50.05 L14.55 50.7 Q16.55 52.35 17.4 52.7 19.15 53.25 21.1 52.75 L21.5 52.55 22.65 51.25 22.75 51.2 23.1 53.85 22.6 54.85 22.1 55.3 21.25 55.7 18.85 56.1 16.55 55.5 15.4 54.65 15.3 54.35 14.1 53.5 15.3 54.35 15.4 54.65 15.3 54.65 14.1 53.75 14.1 53.5 14.1 52.9 13.95 51.35 13.75 50.05 M24.4 54.55 L26.1 53.85 25.6 51.95 30.95 51.95 30.25 53.05 27.4 57.45 26.9 56.1 24.85 56.85 23.9 54.8 24.4 54.55 M26.65 64.95 L27.8 64.5 27.25 62.75 32.25 62.75 31.6 63.85 29.0 67.8 28.55 66.5 26.5 67.4 25.85 65.3 26.65 64.95 M35.2 66.8 Q34.9 62.5 38.65 59.9 L38.4 65.35 38.35 65.8 35.2 66.8 38.35 65.8 38.4 65.35 38.35 66.1 35.2 67.0 35.2 66.8 M39.1 50.45 Q35.25 50.55 33.75 44.7 L39.45 42.35 39.1 50.45 M24.4 65.45 L24.75 65.3 24.85 65.65 25.4 67.8 25.6 68.55 24.55 69.25 21.65 70.5 19.2 70.2 19.15 70.2 18.4 68.7 18.25 67.7 18.25 67.6 18.25 67.2 18.25 66.9 20.3 67.1 20.8 67.1 23.1 66.25 24.4 65.45 M13.95 51.35 L14.1 52.6 14.1 52.9 14.1 52.6 13.95 51.35 M19.2 70.2 L19.15 69.9 18.4 68.45 18.25 67.7 18.4 68.45 19.15 69.9 19.2 70.2" fill="#ffcc00" fill-rule="evenodd" stroke="none"/>
    <path d="M39.45 42.25 L39.45 42.1 38.3 40.95 35.2 42.25 31.95 39.65 31.75 38.2 30.6 37.45 17.2 43.05 15.05 43.05 Q13.75 43.7 13.4 44.35 L12.5 46.7 12.5 47.0 Q12.75 48.35 13.75 49.75 L13.75 50.05 13.95 51.35 14.1 52.6 14.1 52.9 14.1 53.5 15.3 54.35 15.4 54.65 15.6 55.65 Q15.25 56.45 15.3 57.35 L15.35 57.75 15.45 58.3 15.55 58.6 15.85 59.3 16.75 60.95 16.85 61.25 17.35 63.05 18.25 66.6 18.25 66.65 18.25 66.9 M27.7 69.2 L35.2 66.8 38.35 65.8 38.4 65.35 38.65 59.9 39.1 50.45 39.45 42.35 39.45 42.25 M19.2 70.2 L19.65 71.2 19.85 71.55 20.65 72.35 Q22.25 73.0 24.2 72.35 L25.2 71.4 26.0 70.05 26.05 69.95 26.1 69.6 27.7 69.2 M18.25 67.7 L18.25 67.6 18.25 67.2 M18.25 67.7 L18.4 68.45 19.15 69.9 19.2 70.2" fill="none" stroke="#663300" stroke-linecap="round" stroke-linejoin="bevel" stroke-width="1.0"/>
  </g>
</svg>
