<?xml version="1.0" encoding="UTF-8" standalone="no"?>
<svg xmlns:ffdec="https://www.free-decompiler.com/flash" xmlns:xlink="http://www.w3.org/1999/xlink" ffdec:objectType="shape" height="11.85px" width="11.9px" xmlns="http://www.w3.org/2000/svg">
  <g transform="matrix(1.0, 0.0, 0.0, 1.0, 0.0, 0.0)">
    <path d="M3.85 3.95 Q3.9 2.3 5.0 1.2 5.95 0.25 7.3 0.05 L7.9 0.0 Q9.55 0.0 10.75 1.2 11.85 2.3 11.9 3.95 L11.9 11.85 3.85 11.85 3.85 3.95" fill="#b3cb20" fill-rule="evenodd" stroke="none"/>
    <path d="M3.85 3.95 Q3.9 2.3 5.0 1.2 5.95 0.25 7.3 0.05 L7.9 0.0 Q9.55 0.0 10.75 1.2 11.85 2.3 11.9 3.95 L11.9 11.85 3.85 11.85 3.85 3.95 Z" ffdec:has-small-stroke="true" ffdec:original-stroke-width="0.05" fill="none" stroke="#000000" stroke-linecap="butt" stroke-linejoin="miter-clip" stroke-miterlimit="3.0" stroke-opacity="0.5019608" stroke-width="1.0"/>
    <path d="M6.3 3.15 Q6.6 3.15 6.7 3.3 L9.7 6.35 9.9 6.8 9.7 7.2 6.7 10.15 Q6.6 10.35 6.3 10.35 L5.85 10.15 5.7 9.75 5.7 8.55 0.65 8.55 Q0.35 8.55 0.2 8.35 L0.0 7.95 0.0 5.75 0.2 5.35 Q0.35 5.15 0.65 5.15 L5.7 5.15 5.7 3.75 Q5.7 3.5 5.85 3.3 6.05 3.15 6.3 3.15" fill="#ff9900" fill-rule="evenodd" stroke="none"/>
    <path d="M6.3 3.15 Q6.05 3.15 5.85 3.3 5.7 3.5 5.7 3.75 L5.7 5.15 0.65 5.15 Q0.35 5.15 0.2 5.35 L0.0 5.75 0.0 7.95 0.2 8.35 Q0.35 8.55 0.65 8.55 L5.7 8.55 5.7 9.75 5.85 10.15 6.3 10.35 Q6.6 10.35 6.7 10.15 L9.7 7.2 9.9 6.8 9.7 6.35 6.7 3.3 Q6.6 3.15 6.3 3.15 Z" ffdec:has-small-stroke="true" ffdec:original-stroke-width="0.05" fill="none" stroke="#000000" stroke-linecap="butt" stroke-linejoin="miter-clip" stroke-miterlimit="3.0" stroke-opacity="0.5019608" stroke-width="1.0"/>
  </g>
</svg>
