<?xml version="1.0" encoding="UTF-8" standalone="no"?>
<svg xmlns:ffdec="https://www.free-decompiler.com/flash" xmlns:xlink="http://www.w3.org/1999/xlink" ffdec:objectType="shape" height="551.85px" width="542.95px" xmlns="http://www.w3.org/2000/svg">
  <g transform="matrix(1.0, 0.0, 0.0, 1.0, 1.0, 1.0)">
    <path d="M491.1 323.45 L540.95 298.5 M38.2 21.5 L7.0 5.9 M38.2 247.95 L0.0 228.85 M38.2 474.4 L0.0 455.3" fill="none" stroke="url(#gradient0)" stroke-linecap="round" stroke-linejoin="bevel" stroke-width="2.0"/>
    <path d="M491.1 247.95 L540.95 223.0 M38.2 21.5 L81.2 0.0 M38.2 172.45 L0.0 153.35 M38.2 97.0 L0.0 116.1 M38.2 323.45 L0.0 304.35 M491.1 398.9 L540.95 373.95 M491.1 474.4 L540.95 449.45 M38.2 398.9 L0.0 379.8" fill="none" stroke="url(#gradient1)" stroke-linecap="round" stroke-linejoin="bevel" stroke-width="2.0"/>
    <path d="M491.1 474.4 L540.95 499.35" fill="none" stroke="url(#gradient2)" stroke-linecap="round" stroke-linejoin="bevel" stroke-width="2.0"/>
    <path d="M540.95 72.05 L491.1 97.0 M529.2 2.45 L491.1 21.5 M540.95 147.5 L491.1 172.45 M383.1 0.0 L340.05 21.5 M232.1 0.0 L189.15 21.5 M0.0 40.6 L38.2 21.5 M0.0 77.9 L38.2 97.0 M0.0 191.55 L38.2 172.45 M0.0 267.05 L38.2 247.95 M0.0 418.0 L38.2 398.9" fill="none" stroke="url(#gradient3)" stroke-linecap="butt" stroke-linejoin="bevel" stroke-width="2.0"/>
    <path d="M491.1 97.0 L540.95 121.9 M491.1 21.5 L540.95 46.45 M491.1 172.45 L540.95 197.4 M491.1 21.5 L448.1 0.0 M491.1 323.45 L540.95 348.35 M491.1 247.95 L540.95 272.9 M340.05 21.5 L297.05 0.0 M38.2 323.45 L0.0 342.55 M491.1 398.9 L540.95 423.85 M189.15 21.5 L146.2 0.0" fill="none" stroke="url(#gradient4)" stroke-linecap="round" stroke-linejoin="bevel" stroke-width="2.0"/>
    <path d="M340.05 21.5 L415.6 59.25 491.1 21.5 M340.05 97.0 L264.55 134.7 340.05 172.45 415.6 134.7 340.05 97.0 264.55 59.25 189.15 97.0 264.55 134.7 189.15 172.45 264.55 210.2 340.05 172.45 415.6 210.2 491.1 172.45 415.6 134.7 491.1 97.0 415.6 59.25 340.05 97.0 M415.6 285.7 L491.1 247.95 415.6 210.2 340.05 247.95 415.6 285.7 491.1 323.45 415.6 361.15 491.1 398.9 415.6 436.65 491.1 474.4 M415.6 285.7 L340.05 323.45 415.6 361.15 340.05 398.9 415.6 436.65 340.05 474.4 264.55 436.65 189.15 474.4 113.7 436.65 38.2 398.9 113.7 361.15 38.2 323.45 113.7 285.7 189.15 247.95 113.7 210.2 38.2 247.95 113.7 285.7 189.15 323.45 264.55 285.7 189.15 247.95 264.55 210.2 340.05 247.95 264.55 285.7 340.05 323.45 264.55 361.15 340.05 398.9 264.55 436.65 189.15 398.9 113.7 361.15 189.15 323.45 264.55 361.15 189.15 398.9 113.7 436.65 38.2 474.4 M189.15 21.5 L264.55 59.25 340.05 21.5 M38.2 97.0 L113.7 59.25 38.2 21.5 M38.2 172.45 L113.7 134.7 38.2 97.0 M113.7 59.25 L189.15 21.5 M189.15 172.45 L113.7 210.2 38.2 172.45 M189.15 97.0 L113.7 134.7 189.15 172.45 M113.7 59.25 L189.15 97.0" fill="none" stroke="url(#gradient5)" stroke-linecap="round" stroke-linejoin="bevel" stroke-width="2.0"/>
    <path d="M189.15 474.4 L264.55 512.15 340.05 474.4 415.6 512.15 491.1 474.4 M189.15 474.4 L113.7 512.15 189.15 549.85 264.55 512.15 340.05 549.85 415.6 512.15 M38.2 474.4 L113.7 512.15" fill="none" stroke="url(#gradient6)" stroke-linecap="round" stroke-linejoin="bevel" stroke-width="2.0"/>
    <path d="M0.0 493.5 L38.2 474.4 M540.95 524.95 L491.1 549.85 415.6 512.15" fill="none" stroke="url(#gradient7)" stroke-linecap="butt" stroke-linejoin="bevel" stroke-width="2.0"/>
    <path d="M113.7 512.15 L38.2 549.85 0.2 530.85" fill="none" stroke="url(#gradient8)" stroke-linecap="round" stroke-linejoin="bevel" stroke-width="2.0"/>
  </g>
  <defs>
    <linearGradient gradientTransform="matrix(0.0, -0.2889, 0.3362, 0.0, 308.15, 237.2)" gradientUnits="userSpaceOnUse" id="gradient0" spreadMethod="pad" x1="-819.2" x2="819.2">
      <stop offset="0.0" stop-color="#c6c6c6" stop-opacity="0.29803923"/>
      <stop offset="1.0" stop-color="#534c3f" stop-opacity="0.0"/>
    </linearGradient>
    <linearGradient gradientTransform="matrix(0.0, -0.2889, 0.3362, 0.0, 308.15, 237.2)" gradientUnits="userSpaceOnUse" id="gradient1" spreadMethod="pad" x1="-819.2" x2="819.2">
      <stop offset="0.0" stop-color="#c6c6c6" stop-opacity="0.29803923"/>
      <stop offset="1.0" stop-color="#534c3f" stop-opacity="0.0"/>
    </linearGradient>
    <linearGradient gradientTransform="matrix(0.0, 0.0408, -0.3362, 0.0, 507.75, 513.6)" gradientUnits="userSpaceOnUse" id="gradient2" spreadMethod="pad" x1="-819.2" x2="819.2">
      <stop offset="0.0" stop-color="#c6c6c6" stop-opacity="0.29803923"/>
      <stop offset="1.0" stop-color="#534c3f" stop-opacity="0.0"/>
    </linearGradient>
    <linearGradient gradientTransform="matrix(0.0, -0.2889, 0.3362, 0.0, 308.15, 237.2)" gradientUnits="userSpaceOnUse" id="gradient3" spreadMethod="pad" x1="-819.2" x2="819.2">
      <stop offset="0.0" stop-color="#c6c6c6" stop-opacity="0.29803923"/>
      <stop offset="1.0" stop-color="#534c3f" stop-opacity="0.0"/>
    </linearGradient>
    <linearGradient gradientTransform="matrix(0.0, -0.2889, 0.3362, 0.0, 308.15, 237.2)" gradientUnits="userSpaceOnUse" id="gradient4" spreadMethod="pad" x1="-819.2" x2="819.2">
      <stop offset="0.0" stop-color="#c6c6c6" stop-opacity="0.29803923"/>
      <stop offset="1.0" stop-color="#534c3f" stop-opacity="0.0"/>
    </linearGradient>
    <linearGradient gradientTransform="matrix(0.0, -0.2889, 0.3362, 0.0, 308.15, 237.2)" gradientUnits="userSpaceOnUse" id="gradient5" spreadMethod="pad" x1="-819.2" x2="819.2">
      <stop offset="0.0" stop-color="#c6c6c6" stop-opacity="0.29803923"/>
      <stop offset="1.0" stop-color="#534c3f" stop-opacity="0.0"/>
    </linearGradient>
    <linearGradient gradientTransform="matrix(0.0, 0.0408, -0.3362, 0.0, 507.75, 513.6)" gradientUnits="userSpaceOnUse" id="gradient6" spreadMethod="pad" x1="-819.2" x2="819.2">
      <stop offset="0.0" stop-color="#c6c6c6" stop-opacity="0.29803923"/>
      <stop offset="1.0" stop-color="#534c3f" stop-opacity="0.0"/>
    </linearGradient>
    <linearGradient gradientTransform="matrix(0.0, 0.0408, -0.3362, 0.0, 507.75, 513.6)" gradientUnits="userSpaceOnUse" id="gradient7" spreadMethod="pad" x1="-819.2" x2="819.2">
      <stop offset="0.0" stop-color="#c6c6c6" stop-opacity="0.29803923"/>
      <stop offset="1.0" stop-color="#534c3f" stop-opacity="0.0"/>
    </linearGradient>
    <linearGradient gradientTransform="matrix(0.0, 0.0408, -0.3362, 0.0, 507.75, 513.6)" gradientUnits="userSpaceOnUse" id="gradient8" spreadMethod="pad" x1="-819.2" x2="819.2">
      <stop offset="0.0" stop-color="#c6c6c6" stop-opacity="0.29803923"/>
      <stop offset="1.0" stop-color="#534c3f" stop-opacity="0.0"/>
    </linearGradient>
  </defs>
</svg>
