<?xml version="1.0" encoding="UTF-8" standalone="no"?>
<svg xmlns:ffdec="https://www.free-decompiler.com/flash" xmlns:xlink="http://www.w3.org/1999/xlink" ffdec:objectType="shape" height="231.05px" width="843.15px" xmlns="http://www.w3.org/2000/svg">
  <g transform="matrix(1.0, 0.0, 0.0, 1.0, 422.85, -19.2)">
    <path d="M419.3 105.8 Q420.3 110.8 420.3 115.85 420.3 171.6 296.85 210.95 173.45 250.25 -1.25 250.25 -175.95 250.25 -299.4 210.95 -422.85 171.6 -422.85 115.85 -422.85 110.8 -421.85 105.8 L419.3 105.8" fill="url(#gradient0)" fill-rule="evenodd" stroke="none"/>
    <path d="M-421.85 105.8 Q-411.55 71.55 -299.4 46.65 -175.95 19.2 -1.25 19.2 173.45 19.2 296.85 46.65 409.0 71.55 419.3 105.8 L-421.85 105.8" fill="url(#gradient1)" fill-rule="evenodd" stroke="none"/>
  </g>
  <defs>
    <radialGradient cx="0" cy="0" gradientTransform="matrix(0.5193, 0.0, 0.0, 0.1656, -1.25, 115.85)" gradientUnits="userSpaceOnUse" id="gradient0" r="819.2" spreadMethod="pad">
      <stop offset="0.0" stop-color="#ffffff"/>
      <stop offset="1.0" stop-color="#ffffff" stop-opacity="0.0"/>
    </radialGradient>
    <radialGradient cx="0" cy="0" gradientTransform="matrix(0.5193, 0.0, 0.0, 0.1153, -1.25, 112.8)" gradientUnits="userSpaceOnUse" id="gradient1" r="819.2" spreadMethod="pad">
      <stop offset="0.0" stop-color="#ffffff"/>
      <stop offset="1.0" stop-color="#ffffff" stop-opacity="0.0"/>
    </radialGradient>
  </defs>
</svg>
