<?xml version="1.0" encoding="UTF-8" standalone="no"?>
<svg xmlns:ffdec="https://www.free-decompiler.com/flash" xmlns:xlink="http://www.w3.org/1999/xlink" ffdec:objectType="shape" height="97.45px" width="104.75px" xmlns="http://www.w3.org/2000/svg">
  <g transform="matrix(1.0, 0.0, 0.0, 1.0, 45.95, 43.15)">
    <path d="M40.4 -21.75 L42.75 -19.9 Q44.35 -18.7 46.5 -18.2 L52.6 -16.85 Q53.55 -16.55 54.15 -16.1 L54.2 -16.2 55.4 -17.4 56.0 -17.25 56.25 -16.65 55.75 -15.7 Q55.2 -14.9 55.2 -14.6 L55.9 -12.05 Q56.55 -9.65 56.55 -8.05 56.55 -5.35 55.75 -4.05 54.45 -2.0 50.8 -1.7 49.8 2.15 49.8 4.7 L50.4 9.75 Q51.75 10.7 52.35 11.6 53.3 13.0 53.3 16.3 L53.2 19.2 52.7 20.65 54.8 22.65 Q58.8 26.9 58.8 28.95 58.8 31.0 56.3 33.6 53.3 36.65 49.4 36.65 46.85 36.65 45.5 35.75 L42.85 36.05 Q37.95 36.05 35.4 33.05 34.35 31.85 34.0 30.9 L31.25 32.4 21.9 37.95 Q21.85 43.05 20.6 46.5 17.8 54.3 10.0 54.3 1.65 54.3 -1.15 50.45 -2.3 48.85 -2.35 46.25 -4.6 45.35 -5.35 42.45 -5.8 37.8 -6.2 36.9 -7.15 34.7 -10.7 32.45 -12.9 31.05 -18.3 28.4 L-20.55 28.65 -21.2 27.9 -24.8 31.35 Q-31.55 37.35 -36.7 37.35 -41.85 37.35 -44.4 32.8 -45.95 29.95 -45.95 27.6 -45.95 25.15 -43.2 22.3 L-40.5 19.95 -40.8 18.4 -41.15 16.8 Q-41.15 14.95 -40.15 13.0 L-37.95 8.4 -37.7 0.0 -37.7 -4.2 Q-40.25 -5.45 -42.25 -12.2 L-43.7 -18.25 Q-43.7 -20.85 -42.2 -21.65 -39.55 -23.05 -37.4 -26.25 -36.05 -28.3 -33.95 -30.2 L-29.45 -34.05 Q-24.65 -38.1 -20.15 -38.1 -13.55 -38.15 -9.9 -39.45 -8.8 -39.85 -7.5 -41.0 L-5.2 -42.65 Q-1.7 -44.15 7.8 -41.3 L18.55 -34.5 Q25.05 -30.2 29.55 -28.2 L34.7 -25.4 40.4 -21.75" fill="#4baaaa" fill-opacity="0.0" fill-rule="evenodd" stroke="none"/>
  </g>
</svg>
