<?xml version="1.0" encoding="UTF-8" standalone="no"?>
<svg xmlns:ffdec="https://www.free-decompiler.com/flash" xmlns:xlink="http://www.w3.org/1999/xlink" ffdec:objectType="shape" height="51.65px" width="99.6px" xmlns="http://www.w3.org/2000/svg">
  <g transform="matrix(1.0, 0.0, 0.0, 1.0, 36.3, -4.3)">
    <path d="M44.5 22.45 Q54.9 32.55 52.1 41.65 49.2 51.35 34.9 54.2 20.3 57.4 2.9 52.55 L-1.15 51.5 Q-15.65 46.25 -25.0 37.25 -35.4 27.25 -32.55 17.8 -29.75 8.5 -15.35 5.55 -2.45 2.65 12.6 6.4 L16.7 7.25 Q33.95 12.35 44.5 22.45" fill="url(#gradient0)" fill-rule="evenodd" stroke="none"/>
    <path d="M13.15 50.05 L13.0 49.75 -26.45 30.15 17.1 17.85 53.0 32.2 13.15 50.05" fill="url(#gradient1)" fill-rule="evenodd" stroke="none"/>
    <path d="M-24.6 26.1 Q-22.3 25.05 -17.95 25.5 -13.55 25.9 -13.55 27.25 -13.55 32.25 -28.35 35.4 L-36.3 31.8 -36.3 31.3 -36.15 30.75 -33.9 30.6 -33.25 30.85 -32.4 31.05 Q-28.45 31.05 -27.8 29.5 -26.75 27.1 -24.6 26.1 M-24.9 27.95 L-25.25 28.2 -20.55 26.85 -19.5 26.55 Q-21.0 26.25 -22.4 26.85 L-24.9 27.95 M-15.95 27.75 L-15.6 27.6 -16.65 27.45 -15.95 27.75" fill="url(#gradient2)" fill-rule="evenodd" stroke="none"/>
    <path d="M3.95 44.75 Q4.4 43.05 5.25 43.05 6.1 43.05 6.95 44.75 L8.1 47.3 8.6 46.5 Q9.0 45.95 9.9 45.95 10.95 45.95 11.2 46.5 L11.4 47.25 Q12.55 44.65 19.1 43.65 25.6 42.7 23.75 45.6 25.05 45.55 25.4 46.05 L25.5 46.8 24.7 49.2 Q23.85 51.1 23.85 51.6 23.85 52.8 19.05 54.5 L14.2 55.95 11.4 55.55 Q10.4 55.55 10.3 54.9 L10.35 54.0 7.95 54.6 Q6.0 54.6 4.6 50.85 L3.65 47.05 Q3.65 45.9 3.95 44.75 M9.15 49.05 L8.75 49.95 8.75 50.1 10.55 49.25 9.6 48.15 9.6 48.2 9.15 49.05 M5.4 46.1 Q5.25 46.35 5.25 47.0 L5.45 46.45 5.4 46.1 M19.85 49.2 Q20.4 49.15 23.4 47.7 L23.6 47.3 Q22.35 47.4 21.45 48.0 L19.85 49.1 19.85 49.2 M19.95 46.5 Q20.4 46.5 21.9 45.5 20.55 45.95 20.15 46.35 L19.95 46.5 M15.2 46.5 L15.5 47.1 Q16.95 46.55 19.8 44.45 19.45 44.45 17.4 45.4 15.45 46.3 15.2 46.5 M10.4 51.3 L9.6 51.65 Q12.25 51.85 13.25 50.6 L13.65 50.25 Q12.25 50.1 11.5 50.5 L10.4 51.3" fill="url(#gradient3)" fill-rule="evenodd" stroke="none"/>
    <path d="M53.25 31.5 L57.1 32.2 60.2 32.55 63.15 32.7 63.25 32.8 63.3 33.3 Q63.3 34.15 59.45 35.85 55.45 37.65 53.2 37.65 52.2 37.15 50.3 36.6 46.55 35.45 41.7 35.1 40.2 35.0 38.1 33.55 36.0 32.1 36.0 31.2 36.0 29.45 42.85 28.75 50.15 27.95 53.25 31.5" fill="url(#gradient4)" fill-rule="evenodd" stroke="none"/>
  </g>
  <defs>
    <radialGradient cx="0" cy="0" gradientTransform="matrix(-0.0533, -0.0151, -0.0086, 0.0284, 9.75, 29.8)" gradientUnits="userSpaceOnUse" id="gradient0" r="819.2" spreadMethod="pad">
      <stop offset="0.26666666666666666" stop-color="#3f432c" stop-opacity="0.49803922"/>
      <stop offset="1.0" stop-color="#413f2e" stop-opacity="0.0"/>
    </radialGradient>
    <radialGradient cx="0" cy="0" gradientTransform="matrix(0.1718, 0.0, 0.0, 0.0552, 18.6, 34.0)" gradientUnits="userSpaceOnUse" id="gradient1" r="819.2" spreadMethod="pad">
      <stop offset="0.26666666666666666" stop-color="#3f432c" stop-opacity="0.49803922"/>
      <stop offset="1.0" stop-color="#413f2e" stop-opacity="0.0"/>
    </radialGradient>
    <radialGradient cx="0" cy="0" gradientTransform="matrix(0.0144, 0.0, 0.0, 0.0144, -24.9, 30.4)" gradientUnits="userSpaceOnUse" id="gradient2" r="819.2" spreadMethod="pad">
      <stop offset="0.26666666666666666" stop-color="#3f432c" stop-opacity="0.49803922"/>
      <stop offset="1.0" stop-color="#413f2e" stop-opacity="0.0"/>
    </radialGradient>
    <radialGradient cx="0" cy="0" gradientTransform="matrix(0.0146, 0.0, 0.0, 0.0146, 14.6, 49.5)" gradientUnits="userSpaceOnUse" id="gradient3" r="819.2" spreadMethod="pad">
      <stop offset="0.26666666666666666" stop-color="#3f432c" stop-opacity="0.49803922"/>
      <stop offset="1.0" stop-color="#413f2e" stop-opacity="0.0"/>
    </radialGradient>
    <radialGradient cx="0" cy="0" gradientTransform="matrix(0.0176, 0.0, 0.0, 0.0176, 49.65, 33.15)" gradientUnits="userSpaceOnUse" id="gradient4" r="819.2" spreadMethod="pad">
      <stop offset="0.26666666666666666" stop-color="#3f432c" stop-opacity="0.49803922"/>
      <stop offset="1.0" stop-color="#413f2e" stop-opacity="0.0"/>
    </radialGradient>
  </defs>
</svg>
