<?xml version="1.0" encoding="UTF-8" standalone="no"?>
<svg xmlns:ffdec="https://www.free-decompiler.com/flash" xmlns:xlink="http://www.w3.org/1999/xlink" ffdec:objectType="shape" height="122.8px" width="134.55px" xmlns="http://www.w3.org/2000/svg">
  <g transform="matrix(1.0, 0.0, 0.0, 1.0, 75.35, 34.85)">
    <path d="M36.7 -6.45 Q45.5 0.05 47.25 5.55 L50.0 11.0 Q53.75 19.1 57.4 29.85 L57.65 27.45 57.8 27.3 58.4 27.15 Q59.4 27.15 59.15 28.7 L58.45 33.0 59.15 35.2 59.1 35.7 59.0 36.0 58.4 36.15 57.75 35.7 54.05 48.15 54.05 71.55 Q53.45 77.7 52.05 79.75 48.7 84.6 37.4 87.95 L-20.1 87.95 Q-35.65 87.1 -50.95 78.2 -65.65 69.65 -69.15 60.5 -70.8 56.3 -71.9 51.2 L-73.55 41.85 Q-75.35 30.65 -75.35 23.55 -75.35 13.0 -74.6 9.35 -73.1 2.45 -67.1 -6.0 -61.15 -15.9 -57.65 -20.85 -51.45 -29.6 -42.3 -34.85 L-34.2 -34.85 Q-21.5 -19.85 -7.75 -21.9 6.0 -23.95 18.0 -17.4 29.4 -11.85 36.7 -6.45" fill="#ffffff" fill-rule="evenodd" stroke="none"/>
  </g>
</svg>
