<?xml version="1.0" encoding="UTF-8" standalone="no"?>
<svg xmlns:ffdec="https://www.free-decompiler.com/flash" xmlns:xlink="http://www.w3.org/1999/xlink" ffdec:objectType="shape" height="56.25px" width="69.6px" xmlns="http://www.w3.org/2000/svg">
  <g transform="matrix(1.0, 0.0, 0.0, 1.0, 35.8, 23.65)">
    <path d="M-3.15 -20.95 Q13.4 -13.0 29.8 -4.1 L29.9 -2.4 21.85 1.65 21.05 2.05 11.8 6.7 11.0 7.1 7.6 8.8 1.05 5.55 -3.9 8.0 -8.35 6.0 -8.8 5.8 -9.15 5.6 -9.3 5.55 -10.3 5.1 -11.2 4.7 -20.65 0.0 -21.25 -0.3 -21.45 -0.4 -21.5 -0.45 -22.4 -0.9 -30.45 -5.25 -30.45 -7.25 -3.15 -20.95" fill="#5b1326" fill-rule="evenodd" stroke="none"/>
    <path d="M29.9 -2.4 L33.8 -0.45 25.75 3.6 21.85 1.65 29.9 -2.4 M7.75 12.65 L8.45 9.25 7.6 8.8 11.0 7.1 14.95 9.05 12.25 10.4 11.25 10.9 7.75 12.65 M-3.9 8.0 L-6.0 9.05 -5.65 11.9 -6.55 11.45 -7.5 10.15 -8.2 9.5 -8.3 9.4 Q-9.8 7.9 -9.8 7.1 L-8.8 5.8 -8.35 6.0 -3.9 8.0 M-33.0 -4.55 L-31.0 -5.55 -30.45 -5.25 -22.4 -0.9 -23.25 -0.35 -23.9 0.0 -24.05 0.1 -24.15 0.15 -24.2 0.2 -24.25 0.25 -24.4 0.3 -24.45 0.3 Q-26.0 0.5 -29.25 -0.75 L-31.75 -1.95 Q-32.95 -2.85 -33.0 -4.55 M-30.45 -7.25 L-30.45 -8.9 -32.85 -10.1 -7.25 -22.9 -3.15 -20.95 -30.45 -7.25 M21.05 2.05 L24.95 4.0 15.75 8.65 11.8 6.7 21.05 2.05 M-21.25 -0.3 L-20.65 0.0 -11.2 4.7 -14.0 5.25 Q-22.7 2.55 -22.7 1.3 L-22.45 0.65 -21.25 -0.3" fill="#de3a77" fill-rule="evenodd" stroke="none"/>
    <path d="M24.1 23.45 L23.2 23.9 23.05 21.85 23.05 21.35 22.95 18.2 Q22.85 16.45 23.1 14.2 L23.5 11.0 23.55 10.9 24.05 8.25 24.0 8.3 24.15 7.6 24.95 4.0 21.05 2.05 21.85 1.65 25.75 3.6 Q25.05 6.65 24.6 9.8 L24.3 12.0 24.2 12.7 24.0 14.35 23.85 16.0 23.85 20.4 23.9 21.1 23.95 21.8 24.1 23.45 M14.0 28.75 L12.9 29.25 12.9 28.75 Q12.9 26.1 13.5 19.75 L13.5 19.65 13.55 19.1 13.9 16.2 13.95 15.8 14.05 14.95 14.2 13.85 14.2 13.8 14.4 12.2 14.95 9.05 11.0 7.1 11.8 6.7 15.75 8.65 Q15.25 11.65 14.6 17.6 L14.5 18.5 14.3 20.75 Q13.8 25.8 14.0 28.75 M-13.9 28.15 L-14.8 27.7 -14.8 26.65 Q-14.35 21.35 -14.35 15.5 L-14.5 10.4 -14.55 8.1 -14.45 7.3 -14.45 7.2 -10.3 5.1 -9.3 5.55 -13.6 7.7 -13.6 7.75 -13.6 10.9 -13.55 12.3 -13.5 13.55 -13.5 13.65 -13.5 20.0 -13.9 28.15 M-24.8 22.7 L-25.75 22.25 -25.95 12.2 -25.95 12.15 -25.95 11.9 -26.0 11.05 -26.4 1.3 -26.45 1.3 -24.45 0.3 -24.4 0.3 -24.25 0.25 -24.2 0.2 -24.15 0.15 -24.05 0.1 -23.9 0.0 -23.25 -0.35 -22.4 -0.9 -21.5 -0.45 -25.3 1.85 -25.4 1.8 -25.4 1.9 Q-24.85 11.55 -24.8 22.7" fill="#400b13" fill-rule="evenodd" stroke="none"/>
    <path d="M33.8 -0.45 Q32.65 10.05 32.55 19.5 L27.5 21.9 27.5 21.85 27.2 17.8 Q26.6 12.6 24.75 12.6 L24.2 12.7 24.3 12.0 24.6 9.8 Q25.05 6.65 25.75 3.6 L33.8 -0.45 M24.95 4.0 L24.15 7.6 24.0 8.3 Q22.2 10.7 20.45 14.5 18.75 18.3 17.6 22.6 L17.35 22.45 Q15.6 22.25 14.3 20.75 L14.5 18.5 14.6 17.6 Q15.25 11.65 15.75 8.65 L24.95 4.0 M23.5 11.0 L23.1 14.2 Q22.85 16.45 22.95 18.2 L23.05 21.35 23.05 21.85 22.5 22.3 Q21.55 22.95 19.7 22.95 L18.5 22.85 19.35 19.95 Q20.65 16.1 23.5 11.0 M11.25 10.9 L12.25 10.4 14.95 9.05 14.4 12.2 14.2 13.8 12.45 17.4 12.2 16.6 Q11.65 14.75 11.4 12.45 L12.25 10.4 11.25 10.95 11.25 10.9 M13.95 15.8 L13.9 16.2 13.55 19.1 13.5 19.65 13.2 19.1 12.8 18.3 13.9 15.95 13.95 15.8 M14.2 13.75 L14.2 13.8 14.2 13.75" fill="#59051e" fill-rule="evenodd" stroke="none"/>
    <path d="M27.5 21.9 L24.1 23.45 23.95 21.8 23.9 21.1 23.85 20.4 23.85 16.0 24.0 14.35 24.2 12.7 24.75 12.6 Q26.6 12.6 27.2 17.8 L27.5 21.85 27.5 21.9 M7.6 31.9 L6.6 32.4 6.05 32.4 5.8 31.85 5.75 31.8 5.75 30.85 5.75 30.5 6.6 21.3 Q8.2 19.3 9.0 17.65 L11.4 12.45 Q11.65 14.75 12.2 16.6 10.1 18.3 8.9 21.25 7.4 24.75 7.4 29.65 L7.6 31.9 M6.6 21.25 L6.95 16.95 7.05 16.45 7.05 16.4 7.1 16.1 7.75 12.65 11.25 10.9 11.25 10.95 11.1 11.0 Q9.5 15.6 8.35 18.0 L6.6 21.25" fill="#6e0c26" fill-rule="evenodd" stroke="none"/>
    <path d="M23.2 23.9 L17.95 26.7 Q18.05 24.8 18.5 22.85 L19.7 22.95 Q21.55 22.95 22.5 22.3 L23.05 21.85 23.2 23.9 M16.5 27.45 L14.0 28.75 Q13.8 25.8 14.3 20.75 15.6 22.25 17.35 22.45 L17.6 22.6 16.5 27.45" fill="url(#gradient0)" fill-rule="evenodd" stroke="none"/>
    <path d="M12.9 29.25 L8.55 31.45 Q8.55 27.75 11.0 22.0 L12.8 18.3 13.2 19.1 13.5 19.65 13.5 19.75 Q12.9 26.1 12.9 28.75 L12.9 29.25 M8.05 31.7 L7.6 31.9 7.4 29.65 Q7.4 24.75 8.9 21.25 10.1 18.3 12.2 16.6 L12.45 17.4 Q7.75 27.5 8.05 31.7" fill="url(#gradient1)" fill-rule="evenodd" stroke="none"/>
    <path d="M-35.8 -3.15 L-33.0 -4.55 Q-32.95 -2.85 -31.75 -1.95 L-29.25 -0.75 Q-26.0 0.5 -24.45 0.3 L-26.45 1.3 -35.8 -3.15 M-21.5 -0.45 L-21.45 -0.4 -21.25 -0.3 -22.45 0.65 -22.7 1.3 Q-22.7 2.55 -14.0 5.25 L-11.2 4.7 -10.3 5.1 -14.45 7.2 -14.55 7.25 -14.7 7.15 -15.0 7.0 -17.4 5.8 -17.45 5.8 -17.6 5.7 -17.8 5.6 -17.95 5.55 -18.1 5.45 -19.45 4.75 -20.35 4.3 -24.75 2.1 -25.3 1.85 -21.5 -0.45 M-9.3 5.55 L-9.15 5.6 -8.8 5.8 -9.8 7.1 Q-9.8 7.9 -8.3 9.4 L-8.2 9.5 -7.5 10.15 -6.55 11.45 -9.3 10.0 -9.3 9.95 -9.75 9.75 -9.95 9.65 -13.1 8.0 -13.6 7.75 -13.6 7.7 -9.3 5.55" fill="#e76c79" fill-rule="evenodd" stroke="none"/>
    <path d="M-5.65 11.9 L-5.6 12.35 -5.55 12.85 -5.35 15.15 -5.1 19.8 -5.1 20.55 -5.05 22.85 -5.0 23.2 -5.0 24.85 -4.95 27.4 -4.95 28.0 -4.9 32.6 -9.8 30.2 -9.0 29.1 -8.05 25.95 Q-7.35 23.35 -7.35 20.35 -7.35 17.7 -7.8 16.55 -8.4 14.95 -10.05 14.95 -12.7 14.95 -12.7 19.75 -12.7 21.45 -12.05 23.1 -11.35 24.95 -10.45 24.95 -9.75 24.95 -9.3 23.9 -8.95 23.05 -8.95 22.25 L-9.3 21.45 -9.6 20.85 -9.55 21.85 Q-9.55 23.6 -10.3 23.6 -11.0 23.6 -11.45 22.2 L-11.8 20.15 Q-11.8 18.6 -11.1 17.35 -10.4 16.05 -9.45 16.05 -8.55 16.05 -8.05 17.55 -7.7 18.6 -7.7 19.45 -7.7 21.6 -8.7 25.35 -9.55 28.5 -10.5 29.85 L-13.65 28.3 Q-13.2 25.3 -13.0 21.8 L-12.9 13.85 -12.9 12.85 -11.25 11.25 Q-10.1 10.3 -9.3 10.0 L-6.55 11.45 -5.65 11.9 M-13.1 8.0 L-9.95 9.65 -10.45 9.9 -12.9 11.65 -12.9 10.6 -13.1 8.0" fill="url(#gradient2)" fill-rule="evenodd" stroke="none"/>
    <path d="M-13.65 28.3 L-13.9 28.15 -13.5 20.0 -13.5 13.65 -12.9 12.85 -12.9 13.85 -13.0 21.8 Q-13.2 25.3 -13.65 28.3 M-24.4 22.9 L-24.8 22.7 Q-24.85 11.55 -25.4 1.9 L-25.3 1.85 -24.75 2.1 -24.4 22.9 M-13.6 7.75 L-13.1 8.0 -12.9 10.6 -12.9 11.65 -13.55 12.3 -13.6 10.9 -13.6 7.75" fill="#cb3b59" fill-rule="evenodd" stroke="none"/>
    <path d="M-14.8 27.7 L-18.2 26.0 Q-16.65 21.8 -16.05 19.45 -15.2 16.2 -14.5 10.4 L-14.35 15.5 Q-14.35 21.35 -14.8 26.65 L-14.8 27.7 M-18.5 25.85 L-20.15 25.05 Q-19.35 20.8 -18.45 14.1 -17.55 7.9 -17.4 5.8 L-15.0 7.0 Q-15.0 10.2 -15.4 12.85 -16.15 18.3 -18.5 25.85 M-21.1 24.55 L-23.9 23.15 -24.4 22.9 -24.75 2.1 -20.35 4.3 -23.05 16.2 -24.35 22.9 -23.9 23.15 -19.45 4.75 -18.1 5.45 Q-18.6 11.55 -19.8 17.9 L-21.1 24.55" fill="url(#gradient3)" fill-rule="evenodd" stroke="none"/>
    <path d="M-25.75 22.25 L-28.7 20.8 Q-28.4 18.45 -27.4 15.7 L-25.95 12.2 -25.75 22.25 M-29.3 20.5 L-30.8 19.75 -30.9 17.7 Q-30.9 13.45 -30.45 10.05 -29.85 5.6 -28.7 5.6 -28.05 5.6 -28.05 7.2 L-28.1 7.8 -27.6 6.45 Q-27.6 5.9 -27.95 5.15 -28.4 4.15 -29.15 4.15 L-29.4 4.2 -29.55 4.45 Q-31.6 7.3 -31.6 15.45 L-31.45 19.25 -31.45 19.4 -34.35 17.95 Q-34.15 12.7 -34.45 7.75 L-33.55 5.55 Q-32.15 2.1 -31.75 -1.25 L-32.95 -1.8 -32.85 -1.0 Q-32.85 0.35 -34.55 6.45 -34.95 1.5 -35.8 -3.15 L-26.45 1.3 -26.4 1.3 -26.0 11.05 -26.15 11.25 -27.3 12.9 -28.35 15.4 Q-29.3 18.15 -29.3 20.45 L-29.3 20.5" fill="url(#gradient4)" fill-rule="evenodd" stroke="none"/>
    <path d="M17.95 26.7 L16.5 27.45 17.6 22.6 Q18.75 18.3 20.45 14.5 22.2 10.7 24.0 8.3 L24.05 8.25 23.55 10.9 23.5 11.0 Q20.65 16.1 19.35 19.95 L18.5 22.85 Q18.05 24.8 17.95 26.7 M8.55 31.45 L8.05 31.7 Q7.75 27.5 12.45 17.4 L14.2 13.8 14.2 13.85 14.05 14.95 13.95 15.8 13.9 15.95 12.8 18.3 11.0 22.0 Q8.55 27.75 8.55 31.45 M6.6 21.3 L6.55 21.3 6.6 21.25 8.35 18.0 Q9.5 15.6 11.1 11.0 L11.25 10.95 12.25 10.4 11.4 12.45 9.0 17.65 Q8.2 19.3 6.6 21.3" fill="#410617" fill-rule="evenodd" stroke="none"/>
    <path d="M-9.8 30.2 L-10.5 29.85 Q-9.55 28.5 -8.7 25.35 -7.7 21.6 -7.7 19.45 -7.7 18.6 -8.05 17.55 -8.55 16.05 -9.45 16.05 -10.4 16.05 -11.1 17.35 -11.8 18.6 -11.8 20.15 L-11.45 22.2 Q-11.0 23.6 -10.3 23.6 -9.55 23.6 -9.55 21.85 L-9.6 20.85 -9.3 21.45 -8.95 22.25 Q-8.95 23.05 -9.3 23.9 -9.75 24.95 -10.45 24.95 -11.35 24.95 -12.05 23.1 -12.7 21.45 -12.7 19.75 -12.7 14.95 -10.05 14.95 -8.4 14.95 -7.8 16.55 -7.35 17.7 -7.35 20.35 -7.35 23.35 -8.05 25.95 L-9.0 29.1 -9.8 30.2 M-18.2 26.0 L-18.5 25.85 Q-16.15 18.3 -15.4 12.85 -15.0 10.2 -15.0 7.0 L-14.7 7.15 -14.55 7.25 -14.45 7.3 -14.55 8.1 -14.5 10.4 Q-15.2 16.2 -16.05 19.45 -16.65 21.8 -18.2 26.0 M-20.15 25.05 L-21.1 24.55 -19.8 17.9 Q-18.6 11.55 -18.1 5.45 L-17.95 5.55 -17.8 5.6 -17.6 5.7 -17.45 5.8 -17.4 5.8 Q-17.55 7.9 -18.45 14.1 -19.35 20.8 -20.15 25.05 M-28.7 20.8 L-29.3 20.5 -29.3 20.45 Q-29.3 18.15 -28.35 15.4 L-27.3 12.9 -26.15 11.25 -26.0 11.05 -25.95 11.9 -25.95 12.15 -25.95 12.2 -27.4 15.7 Q-28.4 18.45 -28.7 20.8 M-30.8 19.75 L-31.45 19.4 -31.45 19.25 -31.6 15.45 Q-31.6 7.3 -29.55 4.45 L-29.4 4.2 -29.15 4.15 Q-28.4 4.15 -27.95 5.15 -27.6 5.9 -27.6 6.45 L-28.1 7.8 -28.05 7.2 Q-28.05 5.6 -28.7 5.6 -29.85 5.6 -30.45 10.05 -30.9 13.45 -30.9 17.7 L-30.8 19.75 M-34.45 7.75 L-34.45 7.7 -34.45 7.45 -34.5 7.1 -34.5 6.85 -34.55 6.45 Q-32.85 0.35 -32.85 -1.0 L-32.95 -1.8 -31.75 -1.25 Q-32.15 2.1 -33.55 5.55 L-34.45 7.75 M-9.95 9.65 L-9.75 9.75 -9.3 9.95 -9.3 10.0 Q-10.1 10.3 -11.25 11.25 L-12.9 12.85 -13.5 13.65 -13.5 13.55 -13.55 12.3 -12.9 11.65 -10.45 9.9 -9.95 9.65 M-20.35 4.3 L-19.45 4.75 -23.9 23.15 -24.35 22.9 -23.05 16.2 -20.35 4.3" fill="#6b1622" fill-rule="evenodd" stroke="none"/>
    <path d="M-3.15 -20.95 Q13.4 -13.0 29.8 -4.1 L29.9 -2.4 21.85 1.65 21.05 2.05 11.8 6.7 11.0 7.1 7.6 8.8 1.05 5.55 -3.9 8.0 -8.35 6.0 -8.8 5.8 -9.15 5.6 -9.3 5.55 -10.3 5.1 -11.2 4.7 -20.65 0.0 -21.25 -0.3 -21.45 -0.4 -21.5 -0.45 -22.4 -0.9 -30.45 -5.25 -30.45 -7.25 -30.45 -8.9 -32.85 -10.1 -7.25 -22.9 -3.15 -20.95 -30.45 -7.25" fill="none" stroke="#191512" stroke-linecap="round" stroke-linejoin="bevel" stroke-width="1.5"/>
  </g>
  <defs>
    <radialGradient cx="0" cy="0" gradientTransform="matrix(0.0305, 0.0, 0.0, 0.0305, 21.8, 26.4)" gradientUnits="userSpaceOnUse" id="gradient0" r="819.2" spreadMethod="pad">
      <stop offset="0.08627450980392157" stop-color="#aa113d"/>
      <stop offset="0.9882352941176471" stop-color="#5f0b21"/>
    </radialGradient>
    <radialGradient cx="0" cy="0" gradientTransform="matrix(0.027, 0.0, 0.0, 0.027, 13.85, 29.5)" gradientUnits="userSpaceOnUse" id="gradient1" r="819.2" spreadMethod="pad">
      <stop offset="0.08627450980392157" stop-color="#aa113d"/>
      <stop offset="0.9882352941176471" stop-color="#5f0b21"/>
    </radialGradient>
    <radialGradient cx="0" cy="0" gradientTransform="matrix(0.0251, 0.0, 0.0, 0.0251, -7.7, 27.3)" gradientUnits="userSpaceOnUse" id="gradient2" r="819.2" spreadMethod="pad">
      <stop offset="0.08627450980392157" stop-color="#c72748"/>
      <stop offset="0.9882352941176471" stop-color="#97222f"/>
    </radialGradient>
    <radialGradient cx="0" cy="0" gradientTransform="matrix(0.0285, 0.0, 0.0, 0.0285, -19.35, 24.2)" gradientUnits="userSpaceOnUse" id="gradient3" r="819.2" spreadMethod="pad">
      <stop offset="0.08627450980392157" stop-color="#c72748"/>
      <stop offset="0.9882352941176471" stop-color="#97222f"/>
    </radialGradient>
    <radialGradient cx="0" cy="0" gradientTransform="matrix(0.0254, 0.0, 0.0, 0.0254, -30.6, 16.75)" gradientUnits="userSpaceOnUse" id="gradient4" r="819.2" spreadMethod="pad">
      <stop offset="0.08627450980392157" stop-color="#c72748"/>
      <stop offset="0.9882352941176471" stop-color="#97222f"/>
    </radialGradient>
  </defs>
</svg>
