<?xml version="1.0" encoding="UTF-8" standalone="no"?>
<svg xmlns:ffdec="https://www.free-decompiler.com/flash" xmlns:xlink="http://www.w3.org/1999/xlink" ffdec:objectType="shape" height="55.5px" width="69.6px" xmlns="http://www.w3.org/2000/svg">
  <g transform="matrix(1.0, 0.0, 0.0, 1.0, 22.85, 14.5)">
    <path d="M-17.5 1.15 L-17.5 -0.5 -19.9 -1.7 5.7 -14.5 9.8 -12.55 -17.5 1.15 M42.85 6.0 L46.75 7.95 38.7 12.0 34.8 10.05 42.85 6.0 M20.7 21.05 L21.4 17.65 20.55 17.2 23.95 15.5 27.9 17.45 24.2 19.3 20.7 21.05 M9.05 16.4 L6.95 17.45 7.3 20.3 6.4 19.85 5.45 18.55 4.75 17.9 4.65 17.8 Q3.15 16.3 3.15 15.5 3.45 14.8 4.15 14.2 L9.05 16.4 M-20.05 3.85 L-18.05 2.85 -17.5 3.15 -9.45 7.5 -11.1 8.5 -11.5 8.7 Q-13.05 8.9 -16.3 7.65 -18.55 6.7 -18.8 6.45 -20.0 5.55 -20.05 3.85 M1.75 13.1 L-1.05 13.65 Q-9.75 10.95 -9.75 9.7 L-9.5 9.05 -8.3 8.1 1.75 13.1 M24.75 15.1 L34.0 10.45 37.9 12.4 28.7 17.05 24.75 15.1" fill="#de3a77" fill-rule="evenodd" stroke="none"/>
    <path d="M9.8 -12.55 Q26.35 -4.6 42.75 4.3 L42.85 6.0 34.8 10.05 34.0 10.45 24.75 15.1 23.95 15.5 20.55 17.2 14.0 13.95 Q11.55 15.2 9.05 16.4 L4.15 14.2 3.65 13.95 2.65 13.5 1.75 13.1 -8.3 8.1 Q-8.45 8.0 -8.55 7.95 L-9.45 7.5 -17.5 3.15 -17.5 1.15 9.8 -12.55" fill="#5b1326" fill-rule="evenodd" stroke="none"/>
    <path d="M37.05 31.85 L36.15 32.3 36.0 30.25 36.0 29.75 35.9 26.6 Q35.8 24.85 36.05 22.6 L36.45 19.4 37.1 16.0 37.9 12.4 34.0 10.45 34.8 10.05 38.7 12.0 Q37.65 16.5 37.15 21.1 L36.8 24.4 Q36.65 26.4 36.8 28.8 L37.05 31.85 M26.95 37.15 L25.85 37.65 25.85 37.15 Q25.85 34.5 26.45 28.15 L26.45 28.05 26.85 24.6 Q27.35 20.15 27.9 17.45 L23.95 15.5 24.75 15.1 28.7 17.05 27.55 26.0 27.45 26.9 27.25 29.15 Q26.75 34.2 26.95 37.15 M-0.95 36.55 L-1.85 36.1 -1.85 35.05 Q-1.4 29.75 -1.4 23.9 L-1.6 16.5 -1.5 15.7 -1.5 15.6 Q0.15 14.65 2.65 13.5 L3.65 13.95 -0.65 16.1 -0.65 16.15 -0.65 19.3 -0.55 21.95 -0.55 28.4 -0.95 36.55 M-11.85 31.1 L-12.8 30.65 Q-12.8 23.75 -13.45 9.7 L-13.5 9.7 -11.5 8.7 -11.1 8.5 -9.45 7.5 -8.55 7.95 -12.35 10.25 -12.45 10.2 -12.45 10.3 Q-11.9 19.95 -11.85 31.1" fill="#400b13" fill-rule="evenodd" stroke="none"/>
    <path d="M25.85 37.65 L20.55 40.3 20.35 38.05 Q20.35 33.15 21.85 29.65 23.05 26.7 25.15 25.0 L26.15 27.5 26.45 28.05 26.45 28.15 Q25.85 34.5 25.85 37.15 L25.85 37.65" fill="url(#gradient0)" fill-rule="evenodd" stroke="none"/>
    <path d="M36.15 32.3 L26.95 37.15 Q26.75 34.2 27.25 29.15 28.55 30.65 30.3 30.85 31.3 31.35 32.65 31.35 34.5 31.35 35.45 30.7 L36.0 30.25 36.15 32.3" fill="url(#gradient1)" fill-rule="evenodd" stroke="none"/>
    <path d="M7.3 20.3 L7.35 20.75 7.4 21.25 7.6 23.55 7.85 28.2 7.9 31.25 7.95 33.25 8.0 35.8 8.05 41.0 -0.7 36.7 Q-0.25 33.7 -0.05 30.2 L0.05 22.25 0.05 19.0 -0.15 16.4 Q3.1 18.05 6.4 19.85 L7.3 20.3" fill="url(#gradient2)" fill-rule="evenodd" stroke="none"/>
    <path d="M-12.8 30.65 L-21.4 26.35 Q-21.0 15.2 -22.85 5.25 -18.25 7.35 -13.5 9.7 L-13.45 9.7 Q-12.8 23.75 -12.8 30.65" fill="url(#gradient3)" fill-rule="evenodd" stroke="none"/>
    <path d="M-1.85 36.1 L-11.45 31.3 -11.8 10.5 Q-6.9 12.95 -1.75 15.55 L-1.6 15.65 -1.5 15.7 -1.6 16.5 -1.4 23.9 Q-1.4 29.75 -1.85 35.05 L-1.85 36.1" fill="url(#gradient4)" fill-rule="evenodd" stroke="none"/>
    <path d="M46.75 7.95 Q45.6 18.45 45.5 27.9 L40.45 30.3 40.15 26.2 Q39.55 21.0 37.7 21.0 L37.15 21.1 Q37.65 16.5 38.7 12.0 L46.75 7.95 M37.9 12.4 L37.1 16.0 36.45 19.4 36.05 22.6 Q35.8 24.85 35.9 26.6 L36.0 29.75 36.0 30.25 35.45 30.7 Q34.5 31.35 32.65 31.35 31.3 31.35 30.3 30.85 28.55 30.65 27.25 29.15 L27.45 26.9 27.55 26.0 28.7 17.05 37.9 12.4 M27.9 17.45 Q27.35 20.15 26.85 24.6 L26.45 28.05 26.15 27.5 25.15 25.0 Q24.4 22.55 24.2 19.3 L27.9 17.45" fill="#59051e" fill-rule="evenodd" stroke="none"/>
    <path d="M40.45 30.3 L37.05 31.85 36.8 28.8 Q36.65 26.4 36.8 24.4 L37.15 21.1 37.7 21.0 Q39.55 21.0 40.15 26.2 L40.45 30.3 M20.55 40.3 L19.55 40.8 19.0 40.8 18.7 40.2 Q18.55 33.2 20.0 24.85 L20.05 24.5 20.7 21.05 24.2 19.3 Q24.4 22.55 25.15 25.0 23.05 26.7 21.85 29.65 20.35 33.15 20.35 38.05 L20.55 40.3" fill="#6e0c26" fill-rule="evenodd" stroke="none"/>
    <path d="M-22.85 5.25 L-20.05 3.85 Q-20.0 5.55 -18.8 6.45 -18.55 6.7 -16.3 7.65 -13.05 8.9 -11.5 8.7 L-13.5 9.7 Q-18.25 7.35 -22.85 5.25 M-8.3 8.1 L-9.5 9.05 -9.75 9.7 Q-9.75 10.95 -1.05 13.65 L1.75 13.1 2.65 13.5 Q0.15 14.65 -1.5 15.6 L-1.6 15.65 -1.75 15.55 Q-6.9 12.95 -11.8 10.5 L-12.35 10.25 -8.55 7.95 Q-8.45 8.0 -8.3 8.1 M-0.65 16.15 L-0.65 16.1 3.65 13.95 4.15 14.2 Q3.45 14.8 3.15 15.5 3.15 16.3 4.65 17.8 L4.75 17.9 5.45 18.55 6.4 19.85 Q3.1 18.05 -0.15 16.4 L-0.65 16.15" fill="#e76c79" fill-rule="evenodd" stroke="none"/>
    <path d="M-0.7 36.7 L-0.95 36.55 -0.55 28.4 -0.55 21.95 -0.65 19.3 -0.65 16.15 -0.15 16.4 0.05 19.0 0.05 22.25 -0.05 30.2 Q-0.25 33.7 -0.7 36.7 M-11.45 31.3 L-11.85 31.1 Q-11.9 19.95 -12.45 10.3 L-12.35 10.25 -11.8 10.5 -11.45 31.3" fill="#cb3b59" fill-rule="evenodd" stroke="none"/>
  </g>
  <defs>
    <radialGradient cx="0" cy="0" gradientTransform="matrix(0.027, 0.0, 0.0, 0.027, 26.8, 37.9)" gradientUnits="userSpaceOnUse" id="gradient0" r="819.2" spreadMethod="pad">
      <stop offset="0.08627450980392157" stop-color="#aa113d"/>
      <stop offset="0.9882352941176471" stop-color="#5f0b21"/>
    </radialGradient>
    <radialGradient cx="0" cy="0" gradientTransform="matrix(0.0305, 0.0, 0.0, 0.0305, 34.75, 34.8)" gradientUnits="userSpaceOnUse" id="gradient1" r="819.2" spreadMethod="pad">
      <stop offset="0.08627450980392157" stop-color="#aa113d"/>
      <stop offset="0.9882352941176471" stop-color="#5f0b21"/>
    </radialGradient>
    <radialGradient cx="0" cy="0" gradientTransform="matrix(0.0251, 0.0, 0.0, 0.0251, 5.25, 35.7)" gradientUnits="userSpaceOnUse" id="gradient2" r="819.2" spreadMethod="pad">
      <stop offset="0.08627450980392157" stop-color="#c72748"/>
      <stop offset="0.9882352941176471" stop-color="#97222f"/>
    </radialGradient>
    <radialGradient cx="0" cy="0" gradientTransform="matrix(0.0254, 0.0, 0.0, 0.0254, -17.65, 25.15)" gradientUnits="userSpaceOnUse" id="gradient3" r="819.2" spreadMethod="pad">
      <stop offset="0.08627450980392157" stop-color="#c72748"/>
      <stop offset="0.9882352941176471" stop-color="#97222f"/>
    </radialGradient>
    <radialGradient cx="0" cy="0" gradientTransform="matrix(0.0285, 0.0, 0.0, 0.0285, -6.4, 32.6)" gradientUnits="userSpaceOnUse" id="gradient4" r="819.2" spreadMethod="pad">
      <stop offset="0.08627450980392157" stop-color="#c72748"/>
      <stop offset="0.9882352941176471" stop-color="#97222f"/>
    </radialGradient>
  </defs>
</svg>
