<?xml version="1.0" encoding="UTF-8" standalone="no"?>
<svg xmlns:ffdec="https://www.free-decompiler.com/flash" xmlns:xlink="http://www.w3.org/1999/xlink" ffdec:objectType="shape" height="12.5px" width="13.3px" xmlns="http://www.w3.org/2000/svg">
  <g transform="matrix(1.0, 0.0, 0.0, 1.0, 0.0, 0.0)">
    <path d="M10.45 8.6 Q10.9 8.75 10.7 9.2 L7.1 10.8 7.0 10.8 Q6.15 10.7 5.55 11.45 L3.25 12.5 Q2.9 12.35 2.95 11.85 2.25 10.45 2.05 9.0 L1.05 6.75 0.9 6.85 Q-0.05 5.9 0.0 4.7 L3.5 3.1 Q4.45 4.05 4.4 5.25 L4.25 5.35 4.35 5.55 4.5 5.65 4.5 5.85 5.1 7.2 7.45 5.9 Q8.25 5.7 8.95 6.15 L9.75 7.0 10.45 8.6" fill="#b3cb20" fill-rule="evenodd" stroke="none"/>
    <path d="M11.85 5.9 L13.3 6.9 10.9 6.9 10.2 5.65 9.1 4.95 8.95 4.9 Q8.35 4.6 7.35 4.9 6.95 5.0 6.55 5.25 L6.1 1.75 7.9 4.0 10.0 0.0 10.6 4.35 13.15 3.6 11.85 5.9" fill="#ff9900" fill-rule="evenodd" stroke="none"/>
    <path d="M11.85 5.9 L13.3 6.9 10.9 6.9 10.2 5.65 9.1 4.95 8.95 4.9 Q8.35 4.6 7.35 4.9 6.95 5.0 6.55 5.25 L6.1 1.75 7.9 4.0 10.0 0.0 10.6 4.35 13.15 3.6 11.85 5.9 M10.45 8.6 L9.75 7.0 8.95 6.15 Q8.25 5.7 7.45 5.9 L5.1 7.2 4.5 5.85 4.5 5.65 4.35 5.55 4.25 5.35 4.4 5.25 Q4.45 4.05 3.5 3.1 L0.0 4.7 Q-0.05 5.9 0.9 6.85 L1.05 6.75 2.05 9.0 Q2.25 10.45 2.95 11.85 2.9 12.35 3.25 12.5 L5.55 11.45 Q6.15 10.7 7.0 10.8 L7.1 10.8 10.7 9.2 Q10.9 8.75 10.45 8.6 Z" ffdec:has-small-stroke="true" ffdec:original-stroke-width="0.05" fill="none" stroke="#000000" stroke-linecap="butt" stroke-linejoin="miter-clip" stroke-miterlimit="3.0" stroke-opacity="0.5019608" stroke-width="1.0"/>
  </g>
</svg>
