<?xml version="1.0" encoding="UTF-8" standalone="no"?>
<svg xmlns:ffdec="https://www.free-decompiler.com/flash" xmlns:xlink="http://www.w3.org/1999/xlink" ffdec:objectType="shape" height="48.35px" width="61.85px" xmlns="http://www.w3.org/2000/svg">
  <g transform="matrix(1.0, 0.0, 0.0, 1.0, 31.2, 39.1)">
    <path d="M-12.8 -23.5 L-12.8 -23.45 -12.65 -22.5 -12.55 -21.4 -12.35 -21.5 -11.8 -21.55 -11.75 -21.55 -10.7 -21.4 -9.7 -21.15 -9.65 -21.15 -8.9 -20.85 -8.05 -20.35 -6.3 -18.95 -5.95 -19.0 Q-7.4 -21.5 -7.2 -24.55 L-7.2 -24.8 -6.85 -26.9 -6.65 -27.6 -6.55 -27.85 Q-5.95 -28.9 -4.15 -29.65 -1.55 -30.7 2.0 -30.4 L5.55 -29.75 Q6.85 -29.4 7.95 -28.75 L9.15 -27.9 10.05 -26.7 10.15 -26.4 10.2 -25.7 10.2 -25.65 10.25 -23.5 10.25 -23.15 11.45 -23.25 11.6 -23.15 11.65 -23.05 12.5 -22.25 12.7 -22.1 Q13.0 -21.7 12.85 -20.75 L12.8 -20.35 13.7 -20.9 13.8 -20.9 15.7 -20.75 15.8 -20.65 16.05 -20.35 16.75 -19.4 Q17.05 -18.8 16.85 -17.9 L16.25 -16.2 16.7 -15.85 16.95 -15.9 Q18.35 -16.05 19.9 -15.3 L19.95 -15.3 Q21.55 -14.6 22.35 -13.55 23.2 -12.45 22.8 -11.55 L22.65 -11.2 22.5 -10.6 22.1 -10.0 23.2 -9.9 23.35 -9.85 Q24.45 -9.6 25.2 -9.0 L25.45 -8.8 25.7 -8.55 25.85 -8.45 Q26.6 -7.6 26.55 -6.8 L26.5 -6.5 26.3 -6.0 29.8 -4.1 29.9 -2.4 28.95 -1.9 28.65 -0.75 Q28.35 -0.35 27.65 -0.15 L25.45 -0.05 25.3 -0.1 8.2 8.5 Q7.9 7.75 6.75 8.25 L6.65 8.3 1.1 5.6 1.05 5.55 -2.9 7.55 -3.4 7.35 Q-3.95 7.35 -4.3 7.7 L-4.35 7.8 -9.3 5.55 -10.3 5.1 -15.05 2.8 -16.35 3.15 -19.15 2.95 Q-20.1 2.7 -20.4 2.15 L-20.75 0.8 -20.8 0.75 -20.85 0.55 -20.85 0.4 -21.0 0.35 Q-21.9 0.0 -22.2 -0.6 L-22.3 -0.85 -22.4 -0.9 -23.4 -1.45 -24.65 -1.1 -27.45 -1.3 Q-28.3 -1.55 -28.65 -2.0 L-28.8 -2.3 -28.8 -2.4 -29.1 -3.25 -29.15 -3.35 -29.2 -3.5 -29.2 -3.65 -28.95 -4.4 -30.45 -5.25 -30.45 -7.25 -30.1 -7.4 Q-30.0 -8.35 -29.1 -9.05 L-28.7 -9.25 -28.85 -9.3 Q-29.75 -9.8 -29.95 -11.2 L-29.95 -11.4 Q-29.95 -11.95 -28.45 -13.0 -27.3 -13.75 -26.45 -13.95 L-26.55 -14.9 -26.5 -15.7 Q-26.35 -16.65 -25.85 -17.35 -25.15 -18.3 -24.15 -18.35 L-24.05 -18.35 -23.55 -18.3 -24.75 -20.85 -24.75 -20.95 -22.5 -20.1 -22.15 -20.9 Q-21.3 -22.25 -19.85 -22.25 L-18.85 -22.1 -19.0 -22.4 -19.05 -22.6 -20.1 -26.1 -20.2 -26.4 -20.3 -26.95 -20.5 -27.7 -20.95 -30.2 -20.95 -30.25 -21.0 -30.65 -21.4 -30.75 Q-22.2 -31.05 -22.85 -31.7 L-23.15 -32.0 Q-24.0 -33.05 -24.0 -34.45 L-24.0 -34.65 Q-23.9 -36.15 -22.85 -37.2 -21.7 -38.35 -20.1 -38.35 -18.5 -38.35 -17.35 -37.2 L-16.8 -36.5 Q-16.2 -35.6 -16.2 -34.45 -16.2 -33.15 -16.9 -32.15 L-15.95 -30.95 -14.25 -28.15 -13.9 -27.35 -12.95 -24.45 -12.8 -23.5 M9.9 -15.95 L9.95 -16.05 9.15 -15.65 9.2 -15.2 9.2 -14.9 Q9.35 -15.5 9.9 -15.95 M19.8 -9.4 L20.0 -9.55 19.35 -9.65 19.8 -9.4 M7.5 5.7 L7.65 6.85 8.5 5.95 8.5 5.65 8.0 5.6 7.5 5.7 M-9.45 -17.75 L-9.5 -17.75 -11.15 -17.45 -10.9 -17.0 -9.45 -17.75" fill="#999900" fill-rule="evenodd" stroke="none"/>
    <path d="M8.2 8.5 L25.3 -0.1 25.45 -0.05 27.65 -0.15 Q28.35 -0.35 28.65 -0.75 L28.95 -1.9 29.9 -2.4 29.8 -4.1 26.3 -6.0 26.5 -6.5 26.55 -6.8 Q26.6 -7.6 25.85 -8.45 L25.7 -8.55 25.45 -8.8 25.2 -9.0 Q24.45 -9.6 23.35 -9.85 L23.2 -9.9 22.1 -10.0 22.5 -10.6 22.65 -11.2 22.8 -11.55 Q23.2 -12.45 22.35 -13.55 21.55 -14.6 19.95 -15.3 L19.9 -15.3 Q18.35 -16.05 16.95 -15.9 L16.7 -15.85 16.25 -16.2 16.85 -17.9 Q17.05 -18.8 16.75 -19.4 L16.05 -20.35 15.8 -20.65 15.7 -20.75 13.8 -20.9 13.7 -20.9 12.8 -20.35 12.85 -20.75 Q13.0 -21.7 12.7 -22.1 L12.5 -22.25 11.65 -23.05 11.6 -23.15 11.45 -23.25 10.25 -23.15 10.25 -23.5 10.2 -25.65 10.2 -25.7 10.15 -26.4 10.05 -26.7 9.15 -27.9 7.95 -28.75 Q6.85 -29.4 5.55 -29.75 L2.0 -30.4 Q-1.55 -30.7 -4.15 -29.65 -5.95 -28.9 -6.55 -27.85 L-6.65 -27.6 -6.85 -26.9 -7.2 -24.8 -7.2 -24.55 Q-7.4 -21.5 -5.95 -19.0 L-6.3 -18.95 -8.05 -20.35 -8.9 -20.85 -9.65 -21.15 -9.7 -21.15 -10.7 -21.4 -11.75 -21.55 -11.8 -21.55 -12.35 -21.5 -12.55 -21.4 -12.65 -22.5 -12.8 -23.45 -12.8 -23.5 M-21.0 -30.65 L-20.95 -30.25 -20.95 -30.2 M-18.85 -22.1 L-19.85 -22.25 Q-21.3 -22.25 -22.15 -20.9 L-22.5 -20.1 -24.75 -20.95 -24.75 -20.85 -23.55 -18.3 -24.05 -18.35 -24.15 -18.35 Q-25.15 -18.3 -25.85 -17.35 -26.35 -16.65 -26.5 -15.7 L-26.55 -14.9 -26.45 -13.95 Q-27.3 -13.75 -28.45 -13.0 -29.95 -11.95 -29.95 -11.4 L-29.95 -11.2 Q-29.75 -9.8 -28.85 -9.3 L-28.7 -9.25 -29.1 -9.05 Q-30.0 -8.35 -30.1 -7.4 L-30.45 -7.25 -30.45 -5.25 -28.95 -4.4 -29.2 -3.65 -29.2 -3.5 -29.15 -3.35 -29.1 -3.25 -28.8 -2.4 -28.8 -2.3 -28.65 -2.0 Q-28.3 -1.55 -27.45 -1.3 L-24.65 -1.1 -23.4 -1.45 -22.4 -0.9 -22.3 -0.85 -22.2 -0.6 Q-21.9 0.0 -21.0 0.35 L-20.85 0.4 -20.85 0.55 -20.8 0.75 -20.75 0.8 -20.4 2.15 Q-20.1 2.7 -19.15 2.95 L-16.35 3.15 -15.05 2.8 -10.3 5.1 -9.3 5.55 -4.35 7.8 M1.05 5.55 L1.1 5.6 M9.9 -15.95 L9.95 -16.05 9.15 -15.65 9.2 -15.2 9.2 -14.9 Q9.35 -15.5 9.9 -15.95 M19.8 -9.4 L19.35 -9.65 20.0 -9.55 19.8 -9.4 M7.5 5.7 L7.65 6.85 8.5 5.95 8.5 5.65 8.0 5.6 7.5 5.7 M-9.45 -17.75 L-10.9 -17.0 -11.15 -17.45 -9.5 -17.75 -9.45 -17.75" fill="none" stroke="#4a2308" stroke-linecap="round" stroke-linejoin="bevel" stroke-width="1.5"/>
    <path d="M-12.8 -23.5 L-12.95 -24.45 -13.9 -27.35 -14.25 -28.15 -15.95 -30.95 -16.9 -32.15 Q-16.2 -33.15 -16.2 -34.45 -16.2 -35.6 -16.8 -36.5 L-17.35 -37.2 Q-18.5 -38.35 -20.1 -38.35 -21.7 -38.35 -22.85 -37.2 -23.9 -36.15 -24.0 -34.65 L-24.0 -34.45 Q-24.0 -33.05 -23.15 -32.0 L-22.85 -31.7 Q-22.2 -31.05 -21.4 -30.75 L-21.0 -30.65 M-20.95 -30.2 L-20.5 -27.7 -20.3 -26.95 -20.2 -26.4 -20.1 -26.1 -19.05 -22.6 -19.0 -22.4 -18.85 -22.1" fill="none" stroke="#191512" stroke-linecap="round" stroke-linejoin="bevel" stroke-width="1.5"/>
    <path d="M-29.95 -11.2 L-29.95 -11.4 Q-29.95 -11.95 -28.45 -13.0 -26.9 -14.05 -25.9 -14.05 L-25.55 -13.9 -25.45 -14.0 -25.2 -13.1 -25.4 -12.2 -25.7 -11.5 -27.15 -10.75 Q-27.9 -10.35 -28.6 -10.35 -29.8 -10.35 -29.95 -11.2 M-22.35 -17.45 Q-22.8 -17.9 -22.8 -18.7 -22.8 -19.8 -22.15 -20.9 -21.3 -22.25 -19.85 -22.25 -18.8 -22.25 -17.85 -21.65 L-17.6 -21.45 -17.55 -21.25 -17.5 -20.95 -17.5 -20.9 -17.3 -20.45 -17.0 -19.6 Q-17.0 -18.6 -18.2 -17.8 -19.35 -17.0 -20.9 -17.0 -21.9 -17.0 -22.35 -17.45" fill="#b47e27" fill-rule="evenodd" stroke="none"/>
    <path d="M-29.95 -11.2 Q-29.8 -10.35 -28.6 -10.35 -27.9 -10.35 -27.15 -10.75 L-25.7 -11.5 -25.4 -12.2 -25.3 -11.55 Q-25.3 -10.55 -26.0 -9.9 -26.65 -9.25 -27.7 -9.15 L-27.95 -9.15 -28.85 -9.3 Q-29.75 -9.8 -29.95 -11.2" fill="#793b1e" fill-rule="evenodd" stroke="none"/>
    <path d="M-5.0 -16.35 L-3.6 -15.2 -4.35 -14.3 Q-5.8 -13.05 -8.4 -13.05 -9.75 -13.05 -9.75 -13.7 L-9.55 -14.3 Q-9.2 -14.9 -8.1 -15.25 L-5.0 -16.35" fill="#96632d" fill-rule="evenodd" stroke="none"/>
    <path d="M0.45 -18.1 L1.05 -18.9 Q15.45 -11.9 29.8 -4.1 L29.9 -2.4 7.6 8.8 7.45 8.75 8.0 7.85 6.05 6.35 5.55 6.15 4.85 5.9 3.4 5.8 1.4 5.5 1.1 5.6 1.05 5.55 -3.9 8.0 -9.3 5.55 -10.3 5.1 -21.5 -0.45 -22.4 -0.9 -30.45 -5.25 -30.45 -7.25 -27.5 -8.75 -14.2 -15.35 -14.15 -15.25 Q-13.7 -14.55 -13.6 -13.55 L-13.6 -13.2 -13.65 -12.3 -13.7 -12.15 -13.45 -12.2 -13.2 -12.2 -13.15 -12.2 -12.6 -12.15 -12.55 -12.1 -12.1 -11.7 -11.95 -11.5 -11.7 -11.1 -11.15 -11.0 -11.65 -11.0 Q-10.75 -10.35 -11.45 -10.6 L-11.35 -9.95 Q-11.35 -8.95 -12.0 -8.4 -11.0 -7.3 -10.5 -7.3 -10.1 -7.3 -10.1 -8.15 -10.1 -10.1 -11.65 -12.7 L-11.95 -13.15 -13.15 -14.95 -13.2 -15.85 -11.5 -16.75 Q-11.45 -15.6 -10.6 -14.9 L-9.55 -14.3 -9.75 -13.7 Q-9.75 -13.05 -8.4 -13.05 -5.8 -13.05 -4.35 -14.3 L-3.6 -15.2 -5.0 -16.35 -5.6 -17.05 Q-6.4 -18.05 -6.4 -18.75 L-6.35 -18.95 -5.55 -19.0 -1.0 -18.55 0.45 -18.1 -1.55 -15.4 -2.45 -14.15 -2.4 -14.05 Q-2.25 -13.65 -1.55 -13.3 L0.0 -13.0 Q1.15 -13.0 2.0 -13.7 2.85 -14.4 2.85 -15.4 2.85 -17.2 0.45 -18.1 M-12.0 -8.4 L-12.95 -9.65 -13.05 -9.8 -13.5 -10.4 -13.8 -10.85 -13.85 -10.85 Q-16.15 -10.75 -16.15 -9.85 -16.15 -8.95 -15.3 -8.4 -14.6 -7.95 -13.85 -7.95 -12.6 -7.95 -12.0 -8.4 M5.8 -6.6 Q7.4 -6.6 8.25 -8.2 8.8 -9.25 8.8 -9.95 8.8 -11.55 7.55 -11.5 7.1 -11.7 6.25 -11.2 L6.1 -11.15 Q3.4 -10.0 3.4 -7.7 3.25 -7.4 3.45 -7.15 3.85 -6.6 5.8 -6.6 M-1.25 -2.4 L-0.95 -0.65 0.05 0.95 0.7 1.55 1.15 1.05 1.85 -0.9 2.0 -2.25 Q2.0 -4.15 0.3 -4.25 L0.1 -5.0 Q-0.3 -6.05 -1.2 -6.05 -2.15 -6.05 -2.8 -5.55 -3.45 -5.0 -3.45 -4.2 -3.45 -3.5 -2.75 -2.95 -2.05 -2.4 -1.25 -2.4 M16.4 -8.7 Q16.75 -8.6 17.1 -7.55 L16.85 -7.55 Q16.4 -8.0 16.4 -8.7 M16.9 -6.5 L17.7 -6.75 17.9 -6.35 Q18.1 -6.1 18.5 -6.1 19.05 -6.1 19.05 -6.85 19.05 -7.7 17.25 -9.35 15.4 -11.0 15.4 -8.9 15.4 -8.3 15.55 -7.7 15.9 -6.5 16.9 -6.5 M8.5 5.65 L8.0 5.6 7.5 5.7 7.65 6.85 8.5 5.95 8.5 5.65 M-12.75 -11.75 L-12.45 -11.8 -12.95 -11.85 -12.75 -11.75 M-1.65 -8.75 Q-2.3 -9.4 -3.45 -9.4 -4.3 -9.4 -5.0 -8.75 -5.65 -8.1 -5.65 -7.25 -5.65 -6.7 -5.15 -6.35 -4.7 -6.0 -4.15 -6.0 -2.95 -6.0 -2.25 -6.85 -1.6 -7.6 -1.6 -8.65 L-1.6 -8.7 -1.65 -8.75 M-4.75 4.0 L-5.25 4.6 -5.8 5.7 Q-5.8 6.95 -4.45 6.95 -3.25 6.95 -2.6 6.3 -2.05 5.75 -2.05 5.15 -2.05 4.6 -2.9 4.25 L-4.45 3.95 -4.75 4.0 M-8.7 2.4 L-8.75 2.35 -11.25 1.0 -11.8 1.6 -13.0 3.1 -11.9 3.25 -10.65 3.1 -8.7 2.4" fill="#4a2308" fill-rule="evenodd" stroke="none"/>
    <path d="M-6.35 -18.95 L-6.4 -18.75 Q-6.4 -18.05 -5.6 -17.05 L-5.0 -16.35 -8.1 -15.25 Q-9.2 -14.9 -9.55 -14.3 L-10.6 -14.9 Q-11.45 -15.6 -11.5 -16.75 L-7.45 -18.75 -6.35 -18.95 M-6.2 -16.55 L-6.5 -16.9 -6.8 -16.85 -8.0 -16.95 Q-9.6 -16.95 -9.6 -16.3 L-9.15 -15.9 -8.45 -15.75 -7.0 -15.95 Q-6.2 -16.15 -6.2 -16.55" fill="#8c4d18" fill-rule="evenodd" stroke="none"/>
    <path d="M-6.2 -16.55 Q-6.2 -16.15 -7.0 -15.95 L-8.45 -15.75 -9.15 -15.9 -9.6 -16.3 Q-9.6 -16.95 -8.0 -16.95 L-6.8 -16.85 -6.5 -16.9 -6.2 -16.55" fill="#b67b35" fill-rule="evenodd" stroke="none"/>
    <path d="M-14.2 -15.35 L-27.5 -8.75 -27.7 -9.15 Q-26.65 -9.25 -26.0 -9.9 -25.3 -10.55 -25.3 -11.55 L-25.4 -12.2 -25.2 -13.1 -25.45 -14.0 -22.35 -17.45 Q-21.9 -17.0 -20.9 -17.0 -19.35 -17.0 -18.2 -17.8 -17.0 -18.6 -17.0 -19.6 L-17.3 -20.45 -17.5 -20.9 -16.95 -20.75 Q-15.0 -20.1 -13.9 -17.7 L-13.2 -15.85 -14.2 -15.35" fill="#81561a" fill-rule="evenodd" stroke="none"/>
    <path d="M-1.65 -8.75 L-1.6 -8.7 -1.6 -8.65 Q-1.6 -7.6 -2.25 -6.85 -2.95 -6.0 -4.15 -6.0 -4.7 -6.0 -5.15 -6.35 -5.65 -6.7 -5.65 -7.25 -5.65 -8.1 -5.0 -8.75 -4.3 -9.4 -3.45 -9.4 -2.3 -9.4 -1.65 -8.75" fill="#b38826" fill-rule="evenodd" stroke="none"/>
    <path d="M0.3 -4.25 Q2.0 -4.15 2.0 -2.25 L1.85 -0.9 1.15 1.05 0.7 1.55 0.05 0.95 -0.95 -0.65 -1.25 -2.4 -1.25 -2.45 -1.05 -3.8 Q-0.75 -4.25 0.15 -4.25 L0.3 -4.25" fill="#b36226" fill-rule="evenodd" stroke="none"/>
    <path d="M1.1 5.6 L1.4 5.5 3.4 5.8 4.85 5.9 5.55 6.15 6.05 6.35 8.0 7.85 7.45 8.75 1.1 5.6 M-4.75 4.0 L-4.45 3.95 -2.9 4.25 Q-2.05 4.6 -2.05 5.15 -2.05 5.75 -2.6 6.3 -3.25 6.95 -4.45 6.95 -5.8 6.95 -5.8 5.7 L-5.25 4.6 -4.75 4.0" fill="#774f0f" fill-rule="evenodd" stroke="none"/>
    <path d="M-12.0 -8.4 Q-12.6 -7.95 -13.85 -7.95 -14.6 -7.95 -15.3 -8.4 -16.15 -8.95 -16.15 -9.85 -16.15 -10.75 -13.85 -10.85 L-13.8 -10.85 -13.5 -10.4 -13.05 -9.8 -12.95 -9.65 -12.0 -8.4 M-8.7 2.4 L-10.65 3.1 -11.9 3.25 -13.0 3.1 -11.8 1.6 -11.25 1.0 -8.75 2.35 -8.7 2.4" fill="#b66721" fill-rule="evenodd" stroke="none"/>
    <path d="M5.8 -6.6 Q3.85 -6.6 3.45 -7.15 3.25 -7.4 3.4 -7.7 3.4 -10.0 6.1 -11.15 L6.25 -11.2 Q7.1 -11.7 7.55 -11.5 8.8 -11.55 8.8 -9.95 8.8 -9.25 8.25 -8.2 7.4 -6.6 5.8 -6.6 M16.9 -6.5 Q15.9 -6.5 15.55 -7.7 15.4 -8.3 15.4 -8.9 15.4 -11.0 17.25 -9.35 19.05 -7.7 19.05 -6.85 19.05 -6.1 18.5 -6.1 18.1 -6.1 17.9 -6.35 L17.7 -6.75 16.9 -6.5 M16.4 -8.7 Q16.4 -8.0 16.85 -7.55 L17.1 -7.55 Q16.75 -8.6 16.4 -8.7" fill="#66310d" fill-rule="evenodd" stroke="none"/>
    <path d="M-1.25 -2.4 Q-2.05 -2.4 -2.75 -2.95 -3.45 -3.5 -3.45 -4.2 -3.45 -5.0 -2.8 -5.55 -2.15 -6.05 -1.2 -6.05 -0.3 -6.05 0.1 -5.0 L0.3 -4.25 0.15 -4.25 Q-0.75 -4.25 -1.05 -3.8 L-1.25 -2.45 -1.25 -2.4" fill="#a4792c" fill-rule="evenodd" stroke="none"/>
    <path d="M0.45 -18.1 Q2.85 -17.2 2.85 -15.4 2.85 -14.4 2.0 -13.7 1.15 -13.0 0.0 -13.0 L-1.55 -13.3 Q-2.25 -13.65 -2.4 -14.05 L-2.45 -14.15 -1.55 -15.4 0.45 -18.1 M-13.2 -15.85 L-13.15 -14.95 -11.95 -13.15 -11.65 -12.7 Q-10.1 -10.1 -10.1 -8.15 -10.1 -7.3 -10.5 -7.3 -11.0 -7.3 -12.0 -8.4 -11.35 -8.95 -11.35 -9.95 L-11.45 -10.6 Q-10.75 -10.35 -11.65 -11.0 L-11.15 -11.0 -11.7 -11.1 -11.95 -11.5 -12.1 -11.7 -12.55 -12.1 -12.6 -12.15 -13.15 -12.2 -13.2 -12.2 -13.45 -12.2 -13.7 -12.15 -13.65 -12.3 -13.6 -13.2 -13.6 -13.55 Q-13.7 -14.55 -14.15 -15.25 L-14.2 -15.35 -13.2 -15.85 M-13.35 -13.85 L-13.6 -13.55 -13.35 -13.85 M-12.9 -12.45 L-13.65 -12.3 -12.9 -12.45" fill="#835401" fill-rule="evenodd" stroke="none"/>
    <path d="M-26.5 -15.7 L-26.45 -15.7 -25.9 -15.65 Q-24.95 -15.65 -24.45 -16.15 -23.95 -16.6 -23.95 -17.35 L-24.15 -18.35 -24.05 -18.35 -23.4 -18.25 Q-22.75 -18.0 -22.3 -17.35 -21.55 -16.35 -21.55 -14.9 L-21.55 -14.8 -20.6 -15.05 -19.8 -15.1 -19.25 -15.05 Q-18.55 -14.5 -18.25 -13.45 -17.95 -12.2 -17.1 -12.2 -16.75 -12.2 -16.35 -12.5 -16.5 -11.75 -17.35 -11.2 -18.35 -10.5 -19.8 -10.5 -21.25 -10.5 -22.25 -11.2 L-22.9 -11.8 -23.05 -12.0 -23.1 -12.0 -23.1 -11.65 -24.05 -11.45 Q-25.1 -11.45 -25.85 -12.45 -26.55 -13.45 -26.55 -14.9 L-26.5 -15.7 M-27.5 -9.7 L-26.55 -9.8 Q-25.05 -9.8 -24.0 -9.05 -22.95 -8.25 -22.95 -7.15 -22.95 -6.05 -24.0 -5.3 -25.05 -4.5 -26.55 -4.5 -28.05 -4.5 -29.1 -5.3 L-29.6 -5.7 Q-28.7 -5.9 -27.95 -6.6 -27.0 -7.5 -27.0 -8.6 -27.0 -9.4 -27.5 -9.7" fill="#c78322" fill-rule="evenodd" stroke="none"/>
    <path d="M-20.6 -15.05 L-21.55 -14.8 -21.55 -14.9 Q-21.55 -16.35 -22.3 -17.35 -22.75 -18.0 -23.4 -18.25 L-23.15 -18.3 Q-21.95 -18.3 -21.2 -16.9 L-20.6 -15.05" fill="#8a5811" fill-rule="evenodd" stroke="none"/>
    <path d="M-22.9 -11.8 L-22.25 -11.2 Q-21.25 -10.5 -19.8 -10.5 -18.35 -10.5 -17.35 -11.2 -16.5 -11.75 -16.35 -12.5 -16.55 -10.55 -17.35 -10.1 L-18.75 -9.45 -20.6 -9.25 Q-21.85 -9.25 -22.45 -10.0 -23.1 -10.75 -23.15 -11.35 L-23.1 -11.65 -22.9 -11.8" fill="#744b10" fill-rule="evenodd" stroke="none"/>
    <path d="M-24.15 -18.35 L-23.95 -17.35 Q-23.95 -16.6 -24.45 -16.15 -24.95 -15.65 -25.9 -15.65 L-26.45 -15.7 -26.5 -15.7 Q-26.35 -16.65 -25.85 -17.35 -25.15 -18.3 -24.15 -18.35 M-16.35 -12.5 Q-16.75 -12.2 -17.1 -12.2 -17.95 -12.2 -18.25 -13.45 -18.55 -14.5 -19.25 -15.05 -18.15 -15.0 -17.35 -14.45 -16.35 -13.75 -16.35 -12.8 L-16.35 -12.7 -16.35 -12.6 -16.35 -12.5 M-29.6 -5.7 Q-30.15 -6.35 -30.15 -7.15 -30.15 -8.25 -29.1 -9.05 -28.4 -9.55 -27.5 -9.7 -27.0 -9.4 -27.0 -8.6 -27.0 -7.5 -27.95 -6.6 -28.7 -5.9 -29.6 -5.7" fill="#e4bd2e" fill-rule="evenodd" stroke="none"/>
  </g>
</svg>
