<?xml version="1.0" encoding="UTF-8" standalone="no"?>
<svg xmlns:ffdec="https://www.free-decompiler.com/flash" xmlns:xlink="http://www.w3.org/1999/xlink" ffdec:objectType="shape" height="13.85px" width="13.8px" xmlns="http://www.w3.org/2000/svg">
  <g transform="matrix(1.0, 0.0, 0.0, 1.0, 30.15, 18.35)">
    <path d="M-24.15 -18.35 L-23.95 -17.35 Q-23.95 -16.6 -24.45 -16.15 -24.95 -15.65 -25.9 -15.65 L-26.45 -15.7 -26.5 -15.7 Q-26.35 -16.65 -25.85 -17.35 -25.15 -18.3 -24.15 -18.35 M-16.35 -12.5 Q-16.75 -12.2 -17.1 -12.2 -17.95 -12.2 -18.25 -13.45 -18.55 -14.5 -19.25 -15.05 -18.15 -15.0 -17.35 -14.45 -16.35 -13.75 -16.35 -12.8 L-16.35 -12.7 -16.35 -12.6 -16.35 -12.5 M-29.6 -5.7 Q-30.15 -6.35 -30.15 -7.15 -30.15 -8.25 -29.1 -9.05 -28.4 -9.55 -27.5 -9.7 -27.0 -9.4 -27.0 -8.6 -27.0 -7.5 -27.95 -6.6 -28.7 -5.9 -29.6 -5.7" fill="#e4bd2e" fill-rule="evenodd" stroke="none"/>
    <path d="M-26.5 -15.7 L-26.45 -15.7 -25.9 -15.65 Q-24.95 -15.65 -24.45 -16.15 -23.95 -16.6 -23.95 -17.35 L-24.15 -18.35 -24.05 -18.35 -23.4 -18.25 Q-22.75 -18.0 -22.3 -17.35 -21.55 -16.35 -21.55 -14.9 L-21.55 -14.8 -20.6 -15.05 -19.8 -15.1 -19.25 -15.05 Q-18.55 -14.5 -18.25 -13.45 -17.95 -12.2 -17.1 -12.2 -16.75 -12.2 -16.35 -12.5 -16.5 -11.75 -17.35 -11.2 -18.35 -10.5 -19.8 -10.5 -21.25 -10.5 -22.25 -11.2 L-22.9 -11.8 -23.05 -12.0 -23.1 -12.0 -23.1 -11.65 -24.05 -11.45 Q-25.1 -11.45 -25.85 -12.45 -26.55 -13.45 -26.55 -14.9 L-26.5 -15.7 M-27.5 -9.7 L-26.55 -9.8 Q-25.05 -9.8 -24.0 -9.05 -22.95 -8.25 -22.95 -7.15 -22.95 -6.05 -24.0 -5.3 -25.05 -4.5 -26.55 -4.5 -28.05 -4.5 -29.1 -5.3 L-29.6 -5.7 Q-28.7 -5.9 -27.95 -6.6 -27.0 -7.5 -27.0 -8.6 -27.0 -9.4 -27.5 -9.7" fill="#c78322" fill-rule="evenodd" stroke="none"/>
    <path d="M-20.6 -15.05 L-21.55 -14.8 -21.55 -14.9 Q-21.55 -16.35 -22.3 -17.35 -22.75 -18.0 -23.4 -18.25 L-23.15 -18.3 Q-21.95 -18.3 -21.2 -16.9 L-20.6 -15.05" fill="#8a5811" fill-rule="evenodd" stroke="none"/>
    <path d="M-22.9 -11.8 L-22.25 -11.2 Q-21.25 -10.5 -19.8 -10.5 -18.35 -10.5 -17.35 -11.2 -16.5 -11.75 -16.35 -12.5 -16.55 -10.55 -17.35 -10.1 L-18.75 -9.45 -20.6 -9.25 Q-21.85 -9.25 -22.45 -10.0 -23.1 -10.75 -23.15 -11.35 L-23.1 -11.65 -22.9 -11.8" fill="#744b10" fill-rule="evenodd" stroke="none"/>
  </g>
</svg>
