<?xml version="1.0" encoding="UTF-8" standalone="no"?>
<svg xmlns:ffdec="https://www.free-decompiler.com/flash" xmlns:xlink="http://www.w3.org/1999/xlink" ffdec:objectType="shape" height="9.2px" width="10.5px" xmlns="http://www.w3.org/2000/svg">
  <g transform="matrix(1.0, 0.0, 0.0, 1.0, 5.25, 4.6)">
    <path d="M-0.25 -3.7 L0.2 -3.1 0.55 -1.5 0.5 -1.05 Q0.35 -0.35 -0.4 0.45 -1.3 1.5 -2.25 1.5 -3.0 1.5 -3.6 0.9 -4.3 0.2 -4.3 -0.95 L-4.0 -1.75 -3.8 -2.1 -3.4 -2.6 -3.25 -2.75 Q-2.05 -3.75 -0.4 -3.85 L-0.25 -3.7" fill="#1e0619" fill-rule="evenodd" stroke="none"/>
    <path d="M-0.1 -3.85 L0.0 -3.85 Q1.85 -3.85 3.15 -2.75 L4.1 -1.6 3.3 -1.2 1.85 -0.9 0.5 -1.05 0.55 -1.5 0.2 -3.1 -0.25 -3.7 -0.1 -3.85" fill="url(#gradient0)" fill-rule="evenodd" stroke="none"/>
    <path d="M-0.1 -3.85 L-0.25 -3.7 -0.4 -3.85 -0.1 -3.85 M0.5 -1.05 L1.85 -0.9 3.3 -1.2 4.1 -1.6 Q4.5 -0.9 4.5 0.0 L4.4 0.85 4.05 0.7 2.2 0.5 Q1.2 0.5 0.35 1.1 -0.45 1.7 -0.45 2.3 -0.45 2.85 0.3 3.3 L1.25 3.7 0.0 3.85 Q-1.9 3.85 -3.25 2.7 -4.5 1.6 -4.5 0.0 -4.5 -1.2 -3.8 -2.1 L-4.0 -1.75 -4.3 -0.95 Q-4.3 0.2 -3.6 0.9 -3.0 1.5 -2.25 1.5 -1.3 1.5 -0.4 0.45 0.35 -0.35 0.5 -1.05" fill="url(#gradient1)" fill-rule="evenodd" stroke="none"/>
    <path d="M4.4 0.85 Q4.15 1.9 3.15 2.7 L1.25 3.7 0.3 3.3 Q-0.45 2.85 -0.45 2.3 -0.45 1.7 0.35 1.1 1.2 0.5 2.2 0.5 L4.05 0.7 4.4 0.85" fill="url(#gradient2)" fill-rule="evenodd" stroke="none"/>
    <path d="M4.1 -1.6 L3.15 -2.75 Q1.85 -3.85 0.0 -3.85 L-0.1 -3.85 M0.5 -1.05 L1.85 -0.9 3.3 -1.2 4.1 -1.6 Q4.5 -0.9 4.5 0.0 L4.4 0.85 Q4.15 1.9 3.15 2.7 L1.25 3.7 0.0 3.85 Q-1.9 3.85 -3.25 2.7 -4.5 1.6 -4.5 0.0 -4.5 -1.2 -3.8 -2.1 L-3.4 -2.6 -3.25 -2.75 Q-2.05 -3.75 -0.4 -3.85 M0.5 -1.05 Q0.35 -0.35 -0.4 0.45 -1.3 1.5 -2.25 1.5 -3.0 1.5 -3.6 0.9 -4.3 0.2 -4.3 -0.95 L-4.0 -1.75 -3.8 -2.1 M1.25 3.7 L0.3 3.3 Q-0.45 2.85 -0.45 2.3 -0.45 1.7 0.35 1.1 1.2 0.5 2.2 0.5 L4.05 0.7 4.4 0.85" fill="none" stroke="#1e0619" stroke-linecap="round" stroke-linejoin="bevel" stroke-width="1.5"/>
    <path d="M-0.1 -3.85 L-0.25 -3.7 -0.4 -3.85 -0.1 -3.85 M0.5 -1.05 L1.85 -0.9 3.3 -1.2 4.1 -1.6 Q4.5 -0.9 4.5 0.0 L4.4 0.85 4.05 0.7 2.2 0.5 Q1.2 0.5 0.35 1.1 -0.45 1.7 -0.45 2.3 -0.45 2.85 0.3 3.3 L1.25 3.7 0.0 3.85 Q-1.9 3.85 -3.25 2.7 -4.5 1.6 -4.5 0.0 -4.5 -1.2 -3.8 -2.1 L-4.0 -1.75 -4.3 -0.95 Q-4.3 0.2 -3.6 0.9 -3.0 1.5 -2.25 1.5 -1.3 1.5 -0.4 0.45 0.35 -0.35 0.5 -1.05" fill="url(#gradient3)" fill-rule="evenodd" stroke="none"/>
    <path d="M-0.1 -3.85 L0.0 -3.85 Q1.85 -3.85 3.15 -2.75 L4.1 -1.6 3.3 -1.2 1.85 -0.9 0.5 -1.05 0.55 -1.5 0.2 -3.1 -0.25 -3.7 -0.1 -3.85" fill="url(#gradient4)" fill-rule="evenodd" stroke="none"/>
    <path d="M4.4 0.85 Q4.15 1.9 3.15 2.7 L1.25 3.7 0.3 3.3 Q-0.45 2.85 -0.45 2.3 -0.45 1.7 0.35 1.1 1.2 0.5 2.2 0.5 L4.05 0.7 4.4 0.85" fill="url(#gradient5)" fill-rule="evenodd" stroke="none"/>
    <path d="M-0.25 -3.7 L0.2 -3.1 0.55 -1.5 0.5 -1.05 Q0.35 -0.35 -0.4 0.45 -1.3 1.5 -2.25 1.5 -3.0 1.5 -3.6 0.9 -4.3 0.2 -4.3 -0.95 L-4.0 -1.75 -3.8 -2.1 -3.4 -2.6 -3.25 -2.75 Q-2.05 -3.75 -0.4 -3.85 L-0.25 -3.7" fill="#1e0619" fill-rule="evenodd" stroke="none"/>
    <path d="M3.9 -1.55 Q4.05 -1.1 3.75 -0.7 L2.9 -0.15 Q2.35 0.0 1.95 -0.15 1.45 -0.3 1.3 -0.75 1.2 -1.2 1.5 -1.55 L2.3 -2.15 3.3 -2.1 3.9 -1.55 M-0.55 -0.35 Q-1.0 0.35 -1.75 0.55 L-2.95 0.5 Q-3.55 0.15 -3.65 -0.65 -3.75 -1.35 -3.3 -2.05 -2.9 -2.8 -2.15 -3.05 L-0.9 -2.95 Q-0.35 -2.6 -0.25 -1.85 -0.15 -1.1 -0.55 -0.35" fill="#ffffff" fill-rule="evenodd" stroke="none"/>
  </g>
  <defs>
    <radialGradient cx="0" cy="0" gradientTransform="matrix(0.0039, 0.0, 0.0, 0.0039, 1.15, -1.95)" gradientUnits="userSpaceOnUse" id="gradient0" r="819.2" spreadMethod="pad">
      <stop offset="0.09411764705882353" stop-color="#d5127d"/>
      <stop offset="1.0" stop-color="#7e0a57"/>
    </radialGradient>
    <radialGradient cx="0" cy="0" gradientTransform="matrix(0.0085, 0.0, 0.0, 0.0085, 2.5, -0.45)" gradientUnits="userSpaceOnUse" id="gradient1" r="819.2" spreadMethod="pad">
      <stop offset="0.027450980392156862" stop-color="#771e5d"/>
      <stop offset="0.792156862745098" stop-color="#491340"/>
    </radialGradient>
    <radialGradient cx="0" cy="0" gradientTransform="matrix(0.004, 0.0, 0.0, 0.004, 1.15, 1.45)" gradientUnits="userSpaceOnUse" id="gradient2" r="819.2" spreadMethod="pad">
      <stop offset="0.09411764705882353" stop-color="#d5127d"/>
      <stop offset="1.0" stop-color="#7e0a57"/>
    </radialGradient>
    <radialGradient cx="0" cy="0" gradientTransform="matrix(0.0085, 0.0, 0.0, 0.0085, 2.5, -0.45)" gradientUnits="userSpaceOnUse" id="gradient3" r="819.2" spreadMethod="pad">
      <stop offset="0.027450980392156862" stop-color="#771e5d"/>
      <stop offset="0.792156862745098" stop-color="#491340"/>
    </radialGradient>
    <radialGradient cx="0" cy="0" gradientTransform="matrix(0.0039, 0.0, 0.0, 0.0039, 1.15, -1.95)" gradientUnits="userSpaceOnUse" id="gradient4" r="819.2" spreadMethod="pad">
      <stop offset="0.09411764705882353" stop-color="#d5127d"/>
      <stop offset="1.0" stop-color="#7e0a57"/>
    </radialGradient>
    <radialGradient cx="0" cy="0" gradientTransform="matrix(0.004, 0.0, 0.0, 0.004, 1.15, 1.45)" gradientUnits="userSpaceOnUse" id="gradient5" r="819.2" spreadMethod="pad">
      <stop offset="0.09411764705882353" stop-color="#d5127d"/>
      <stop offset="1.0" stop-color="#7e0a57"/>
    </radialGradient>
  </defs>
</svg>
