<?xml version="1.0" encoding="UTF-8" standalone="no"?>
<svg xmlns:ffdec="https://www.free-decompiler.com/flash" xmlns:xlink="http://www.w3.org/1999/xlink" ffdec:objectType="shape" height="20.9px" width="33.2px" xmlns="http://www.w3.org/2000/svg">
  <g transform="matrix(1.0, 0.0, 0.0, 1.0, 10.25, 30.45)">
    <path d="M11.65 -23.05 L12.5 -22.25 12.7 -22.1 Q13.0 -21.7 12.85 -20.75 L12.8 -20.35 11.85 -18.15 Q11.0 -16.8 9.95 -16.1 L9.95 -16.05 Q9.0 -15.4 8.4 -15.75 8.0 -16.0 7.95 -16.6 8.4 -16.65 8.95 -17.05 L10.35 -18.35 10.85 -19.1 Q11.7 -20.45 11.85 -21.7 L11.9 -22.4 11.65 -23.05 M16.05 -20.35 L16.75 -19.4 Q17.05 -18.8 16.85 -17.9 L16.25 -16.2 16.2 -16.25 15.25 -16.7 16.05 -18.45 16.15 -18.75 16.15 -18.85 16.2 -19.95 16.05 -20.35 M22.65 -11.2 L22.5 -10.6 Q22.15 -9.7 20.75 -9.6 19.4 -9.45 17.8 -10.15 16.65 -10.7 15.85 -11.4 14.75 -10.85 13.25 -10.85 11.5 -10.85 10.3 -11.6 9.1 -12.35 9.1 -13.45 L9.15 -13.9 Q9.35 -13.15 10.3 -12.55 11.5 -11.8 13.25 -11.8 L15.25 -12.1 Q15.7 -12.25 16.05 -12.45 L16.2 -12.55 Q17.15 -13.15 17.35 -13.9 L17.4 -13.45 Q17.4 -12.6 16.7 -11.95 L18.1 -11.1 Q19.15 -10.65 20.1 -10.55 L20.75 -10.5 21.05 -10.55 Q22.2 -10.65 22.65 -11.2" fill="#793b1e" fill-rule="evenodd" stroke="none"/>
    <path d="M19.55 -10.95 L18.85 -11.7 Q17.9 -12.9 17.9 -13.7 17.9 -14.35 18.75 -14.85 L19.1 -15.05 19.3 -15.1 Q20.6 -14.65 21.05 -14.0 L21.35 -12.75 Q21.35 -11.0 19.55 -10.95" fill="#dfb82b" fill-rule="evenodd" stroke="none"/>
    <path d="M19.9 -15.3 L19.95 -15.3 Q21.55 -14.6 22.35 -13.55 23.2 -12.45 22.8 -11.55 L22.65 -11.2 Q22.2 -10.65 21.05 -10.55 L20.75 -10.5 20.1 -10.55 19.55 -10.95 Q21.35 -11.0 21.35 -12.75 L21.05 -14.0 Q20.6 -14.65 19.3 -15.1 L19.9 -15.3" fill="#ffdc5d" fill-rule="evenodd" stroke="none"/>
    <path d="M16.7 -15.85 L16.95 -15.9 Q18.35 -16.05 19.9 -15.3 L19.3 -15.1 19.1 -15.05 18.75 -14.85 Q17.9 -14.35 17.9 -13.7 17.9 -12.9 18.85 -11.7 L19.55 -10.95 20.1 -10.55 Q19.15 -10.65 18.1 -11.1 L16.7 -11.95 Q17.4 -12.6 17.4 -13.45 L17.35 -13.9 17.4 -14.4 17.35 -14.8 17.3 -14.95 16.7 -15.85" fill="#9f6012" fill-rule="evenodd" stroke="none"/>
    <path d="M9.15 -13.9 L9.1 -14.4 Q9.1 -15.3 9.9 -15.95 L10.3 -16.25 11.15 -16.65 13.25 -17.0 13.8 -16.95 13.6 -16.5 Q13.6 -15.35 15.65 -14.95 L17.35 -14.8 17.4 -14.4 17.35 -13.9 Q17.15 -13.15 16.2 -12.55 L16.05 -12.45 Q15.7 -12.25 15.25 -12.1 L13.25 -11.8 Q11.5 -11.8 10.3 -12.55 9.35 -13.15 9.15 -13.9" fill="#b67523" fill-rule="evenodd" stroke="none"/>
    <path d="M16.25 -16.2 L16.7 -15.85 17.3 -14.95 17.35 -14.8 15.65 -14.95 Q13.6 -15.35 13.6 -16.5 L13.8 -16.95 13.9 -16.95 15.25 -16.7 16.2 -16.25 16.25 -16.2" fill="#d9a933" fill-rule="evenodd" stroke="none"/>
    <path d="M13.8 -20.9 L15.7 -20.75 15.8 -20.65 16.05 -20.35 16.2 -19.95 16.15 -18.85 16.15 -18.75 16.05 -18.45 15.55 -18.15 Q14.85 -17.8 14.55 -17.8 L13.8 -18.2 Q13.3 -18.65 13.3 -19.15 L13.55 -20.45 13.8 -20.9" fill="#dba332" fill-rule="evenodd" stroke="none"/>
    <path d="M12.8 -20.35 L13.7 -20.9 13.8 -20.9 13.55 -20.45 13.3 -19.15 Q13.3 -18.65 13.8 -18.2 L14.55 -17.8 Q14.85 -17.8 15.55 -18.15 L16.05 -18.45 15.25 -16.7 13.9 -16.95 13.8 -16.95 13.25 -17.0 11.15 -16.65 10.3 -16.25 9.9 -15.95 9.95 -16.05 9.95 -16.1 Q11.0 -16.8 11.85 -18.15 L12.8 -20.35" fill="#b4811c" fill-rule="evenodd" stroke="none"/>
    <path d="M11.45 -23.25 L11.6 -23.15 11.65 -23.05 11.9 -22.4 11.85 -21.7 Q11.7 -20.45 10.85 -19.1 L10.35 -18.35 10.15 -18.8 10.15 -19.7 Q10.15 -20.6 10.65 -21.85 11.0 -22.8 11.45 -23.25" fill="#b47e27" fill-rule="evenodd" stroke="none"/>
    <path d="M2.9 -22.05 Q5.5 -22.1 7.55 -22.9 L8.2 -23.2 Q6.65 -14.95 1.35 -14.95 L1.3 -14.95 -0.1 -15.1 Q-0.45 -15.65 -0.45 -16.4 L-0.45 -16.65 -0.3 -17.1 Q0.8 -17.3 1.7 -18.4 L2.55 -19.85 Q2.9 -20.85 2.9 -22.05" fill="#b66b30" fill-rule="evenodd" stroke="none"/>
    <path d="M0.15 -14.45 L-0.35 -14.55 Q-3.0 -15.2 -4.85 -17.4 L-4.8 -17.4 -3.25 -17.15 Q-1.9 -15.55 -0.1 -15.1 L0.0 -15.0 1.3 -14.95 1.35 -14.95 Q6.65 -14.95 8.2 -23.2 9.15 -23.7 9.7 -24.3 9.75 -20.4 7.15 -17.45 4.5 -14.45 1.05 -14.45 L0.15 -14.45" fill="#81561a" fill-rule="evenodd" stroke="none"/>
    <path d="M10.25 -23.15 L11.45 -23.25 Q11.0 -22.8 10.65 -21.85 10.15 -20.6 10.15 -19.7 L10.15 -18.8 10.35 -18.35 8.95 -17.05 Q8.4 -16.65 7.95 -16.6 L7.4 -16.7 7.2 -16.85 7.2 -16.9 8.1 -17.85 Q9.15 -19.15 9.75 -20.8 L10.25 -23.15" fill="#955a13" fill-rule="evenodd" stroke="none"/>
    <path d="M-4.85 -17.4 L-5.15 -17.8 Q-7.45 -20.7 -7.2 -24.55 -6.7 -24.5 -6.25 -23.95 -5.65 -23.2 -5.4 -22.15 -5.2 -19.45 -3.5 -17.4 L-3.25 -17.15 -4.8 -17.4 -4.85 -17.4 M-0.3 -17.1 L-0.65 -17.1 Q-1.75 -17.1 -2.7 -18.5 -3.7 -19.9 -3.7 -21.6 L-3.7 -21.85 -2.5 -21.85 1.0 -21.0 Q2.1 -20.7 2.55 -19.85 L1.7 -18.4 Q0.8 -17.3 -0.3 -17.1 M-3.15 -20.1 L-2.65 -18.7 Q-1.9 -17.3 -0.75 -17.3 -0.45 -17.3 -0.25 -17.55 L-0.15 -18.3 Q-0.15 -20.05 -1.65 -21.0 -3.15 -21.9 -3.15 -20.1" fill="#d7b226" fill-rule="evenodd" stroke="none"/>
    <path d="M-7.2 -24.55 L-7.2 -24.8 -6.85 -26.9 Q-6.95 -25.5 -5.25 -24.25 L-4.55 -23.8 -4.25 -23.6 -3.45 -23.25 Q-1.4 -22.35 1.4 -22.1 L2.9 -22.05 Q2.9 -20.85 2.55 -19.85 2.1 -20.7 1.0 -21.0 L-2.5 -21.85 -3.7 -21.85 -3.7 -21.6 Q-3.7 -19.9 -2.7 -18.5 -1.75 -17.1 -0.65 -17.1 L-0.3 -17.1 -0.45 -16.65 -0.45 -16.4 Q-0.45 -15.65 -0.1 -15.1 -1.9 -15.55 -3.25 -17.15 L-3.5 -17.4 Q-5.2 -19.45 -5.4 -22.15 -5.65 -23.2 -6.25 -23.95 -6.7 -24.5 -7.2 -24.55 M-10.2 -11.95 L-10.25 -12.0 -10.25 -12.05 Q-10.4 -12.65 -9.4 -13.45 -8.55 -14.05 -7.25 -14.55 L-6.65 -14.35 -6.45 -13.5 Q-6.45 -13.0 -6.8 -12.8 L-7.0 -12.65 -6.65 -12.45 -7.25 -12.3 -6.95 -11.85 -6.7 -11.5 -8.75 -11.35 -9.45 -11.4 -10.2 -11.95" fill="#cb9314" fill-rule="evenodd" stroke="none"/>
    <path d="M3.85 -28.95 L1.95 -29.2 -2.55 -28.75 Q-3.6 -28.35 -4.05 -27.75 L-5.1 -27.85 -6.45 -27.65 -6.65 -27.6 -6.55 -27.85 Q-5.95 -28.9 -4.15 -29.65 -1.55 -30.7 2.0 -30.4 L5.55 -29.75 4.05 -28.9 3.85 -28.95 M1.15 -23.6 L1.5 -23.6 Q4.1 -23.4 6.0 -24.15 L6.6 -24.35 Q6.4 -22.8 2.85 -22.8 L2.8 -22.8 -0.1 -23.1 1.15 -23.6 M7.9 -25.65 L7.95 -25.95 7.6 -27.05 9.15 -27.9 10.05 -26.7 10.15 -26.4 Q9.45 -25.65 8.05 -25.65 L7.9 -25.65 M-3.45 -23.25 L-4.25 -23.6 -3.6 -23.7 -3.3 -23.65 -3.45 -23.25" fill="#ffea6b" fill-rule="evenodd" stroke="none"/>
    <path d="M-4.05 -27.75 Q-3.6 -28.35 -2.55 -28.75 L1.95 -29.2 3.85 -28.95 3.75 -28.7 3.65 -28.15 3.65 -27.5 Q3.65 -26.15 4.15 -25.65 4.5 -25.25 5.3 -25.25 6.35 -25.25 7.05 -26.25 L7.35 -26.75 7.45 -26.95 7.5 -27.15 7.6 -27.05 7.95 -25.95 7.9 -25.65 Q7.7 -24.9 6.6 -24.35 L6.0 -24.15 Q4.1 -23.4 1.5 -23.6 L1.15 -23.6 Q-1.2 -23.85 -2.8 -24.8 -4.55 -25.7 -4.5 -26.85 L-4.05 -27.75" fill="#8c4712" fill-rule="evenodd" stroke="none"/>
    <path d="M3.85 -28.95 L4.05 -28.9 Q5.3 -28.6 6.25 -28.1 L7.5 -27.15 7.45 -26.95 7.35 -26.75 7.05 -26.25 Q6.35 -25.25 5.3 -25.25 4.5 -25.25 4.15 -25.65 3.65 -26.15 3.65 -27.5 L3.65 -28.15 3.75 -28.7 3.85 -28.95" fill="#a1551a" fill-rule="evenodd" stroke="none"/>
    <path d="M4.05 -28.9 L5.55 -29.75 Q6.85 -29.4 7.95 -28.75 L9.15 -27.9 7.6 -27.05 7.5 -27.15 6.25 -28.1 Q5.3 -28.6 4.05 -28.9 M6.6 -24.35 Q7.7 -24.9 7.9 -25.65 L8.05 -25.65 Q9.45 -25.65 10.15 -26.4 L10.2 -25.7 10.2 -25.65 Q10.15 -24.95 9.7 -24.3 9.15 -23.7 8.2 -23.2 L7.55 -22.9 Q5.5 -22.1 2.9 -22.05 L1.4 -22.1 Q-1.4 -22.35 -3.45 -23.25 L-3.3 -23.65 -0.9 -23.25 -0.1 -23.1 2.8 -22.8 2.85 -22.8 Q6.4 -22.8 6.6 -24.35" fill="#fff4b4" fill-rule="evenodd" stroke="none"/>
    <path d="M-6.65 -27.6 L-6.45 -27.65 -5.1 -27.85 -4.05 -27.75 -4.5 -26.85 Q-4.55 -25.7 -2.8 -24.8 -1.2 -23.85 1.15 -23.6 L-0.1 -23.1 -0.9 -23.25 -3.3 -23.65 -3.6 -23.7 -4.25 -23.6 -4.55 -23.8 -5.25 -24.25 Q-6.95 -25.5 -6.85 -26.9 L-6.65 -27.6" fill="#f0cc44" fill-rule="evenodd" stroke="none"/>
    <path d="M-6.65 -12.45 L-7.0 -12.65 -6.8 -12.8 Q-6.45 -13.0 -6.45 -13.5 L-6.65 -14.35 -7.25 -14.55 -6.55 -14.8 -4.7 -15.2 Q-4.0 -14.95 -4.0 -14.25 -4.0 -13.4 -5.4 -12.85 L-6.65 -12.45" fill="#e1c91f" fill-rule="evenodd" stroke="none"/>
    <path d="M-10.2 -11.95 L-9.45 -11.4 -8.75 -11.35 -6.7 -11.5 -5.65 -11.8 Q-3.9 -12.35 -2.85 -13.15 L-2.25 -13.65 Q-1.9 -14.1 -1.9 -14.45 L-1.4 -12.8 Q-1.5 -12.3 -2.35 -11.65 -3.4 -10.85 -5.15 -10.3 L-8.25 -9.85 Q-9.25 -9.9 -9.6 -10.25 L-10.2 -11.95" fill="#845d0b" fill-rule="evenodd" stroke="none"/>
    <path d="M-3.15 -20.1 Q-3.15 -21.9 -1.65 -21.0 -0.15 -20.05 -0.15 -18.3 L-0.25 -17.55 Q-0.45 -17.3 -0.75 -17.3 -1.9 -17.3 -2.65 -18.7 L-3.15 -20.1 M-6.7 -11.5 L-6.95 -11.85 -7.25 -12.3 -6.65 -12.45 -5.4 -12.85 Q-4.0 -13.4 -4.0 -14.25 -4.0 -14.95 -4.7 -15.2 L-3.5 -15.25 Q-2.3 -15.2 -2.0 -14.7 L-1.9 -14.45 Q-1.9 -14.1 -2.25 -13.65 L-2.85 -13.15 Q-3.9 -12.35 -5.65 -11.8 L-6.7 -11.5" fill="#fae550" fill-rule="evenodd" stroke="none"/>
    <path d="M10.2 -25.65 L10.25 -23.5 10.25 -23.15 9.75 -20.8 Q9.15 -19.15 8.1 -17.85 L7.2 -16.9 7.2 -16.85 Q4.45 -14.15 0.85 -14.4 L0.15 -14.45 1.05 -14.45 Q4.5 -14.45 7.15 -17.45 9.75 -20.4 9.7 -24.3 10.15 -24.95 10.2 -25.65" fill="#d9a329" fill-rule="evenodd" stroke="none"/>
  </g>
</svg>
