<?xml version="1.0" encoding="UTF-8" standalone="no"?>
<svg xmlns:ffdec="https://www.free-decompiler.com/flash" xmlns:xlink="http://www.w3.org/1999/xlink" ffdec:objectType="shape" height="10.65px" width="12.8px" xmlns="http://www.w3.org/2000/svg">
  <g transform="matrix(1.0, 0.0, 0.0, 1.0, 3.6, 18.45)">
    <path d="M1.6 -15.65 Q1.75 -15.1 2.4 -14.6 L2.6 -14.45 4.15 -13.85 5.35 -13.75 7.55 -14.15 7.65 -14.2 8.25 -14.55 Q8.95 -15.05 9.15 -15.65 L9.2 -15.2 Q9.2 -14.25 8.05 -13.55 6.95 -12.85 5.35 -12.85 L4.15 -12.95 4.0 -12.95 3.85 -13.1 3.65 -13.25 2.25 -13.8 Q1.5 -14.45 1.5 -15.2 L1.6 -15.65 M-3.55 -10.9 Q-3.35 -10.1 -2.35 -9.5 -1.65 -9.05 -0.85 -8.85 L-0.8 -8.6 -0.2 -8.75 0.65 -8.7 Q2.4 -8.7 3.65 -9.5 L4.05 -9.75 4.4 -10.05 4.85 -10.9 4.9 -10.8 4.9 -10.45 Q4.9 -9.35 3.65 -8.6 2.4 -7.8 0.65 -7.8 -1.1 -7.8 -2.35 -8.6 -3.6 -9.35 -3.6 -10.45 L-3.55 -10.9" fill="#864209" fill-rule="evenodd" stroke="none"/>
    <path d="M-0.85 -8.85 L-0.85 -9.05 -0.65 -9.85 0.05 -10.65 Q1.0 -11.35 2.35 -11.4 L2.55 -11.4 Q4.45 -11.4 4.45 -10.35 L4.4 -10.05 4.05 -9.75 3.65 -9.5 Q2.4 -8.7 0.65 -8.7 L-0.2 -8.75 -0.85 -8.85" fill="#db9839" fill-rule="evenodd" stroke="none"/>
    <path d="M-0.65 -9.85 L-0.7 -9.85 Q-1.5 -9.85 -2.15 -10.35 -2.8 -10.85 -2.8 -11.6 -2.8 -13.4 -0.15 -13.4 L0.85 -13.3 1.4 -13.1 Q2.4 -12.65 2.4 -11.65 L2.35 -11.4 Q1.0 -11.35 0.05 -10.65 L-0.65 -9.85" fill="#eebf23" fill-rule="evenodd" stroke="none"/>
    <path d="M0.85 -13.3 L1.05 -13.3 Q4.0 -13.3 4.9 -11.25 L4.85 -10.9 4.4 -10.05 4.45 -10.35 Q4.45 -11.4 2.55 -11.4 L2.35 -11.4 2.4 -11.65 Q2.4 -12.65 1.4 -13.1 L0.85 -13.3" fill="#e8af22" fill-rule="evenodd" stroke="none"/>
    <path d="M7.8 -17.9 L6.45 -18.0 4.25 -17.6 Q2.8 -17.1 2.8 -16.3 2.8 -15.25 4.55 -14.65 5.9 -14.15 7.3 -14.15 L7.5 -14.15 7.55 -14.15 5.35 -13.75 4.15 -13.85 2.6 -14.45 2.4 -14.6 Q1.75 -15.1 1.6 -15.65 L1.5 -16.1 Q1.5 -17.05 2.6 -17.75 3.75 -18.45 5.35 -18.45 6.8 -18.45 7.8 -17.9 M-3.55 -10.9 L-3.6 -11.35 Q-3.6 -12.45 -2.35 -13.25 -1.1 -14.0 0.65 -14.0 L2.1 -13.85 2.25 -13.8 3.65 -13.25 3.85 -13.1 4.0 -12.95 Q4.9 -12.3 4.9 -11.35 L4.9 -11.25 Q4.0 -13.3 1.05 -13.3 L0.85 -13.3 -0.15 -13.4 Q-2.8 -13.4 -2.8 -11.6 -2.8 -10.85 -2.15 -10.35 -1.5 -9.85 -0.7 -9.85 L-0.65 -9.85 -0.85 -9.05 -0.85 -8.85 Q-1.65 -9.05 -2.35 -9.5 -3.35 -10.1 -3.55 -10.9" fill="#ffe469" fill-rule="evenodd" stroke="none"/>
    <path d="M7.5 -14.15 L6.95 -14.5 Q6.3 -15.0 6.3 -15.85 6.3 -16.5 6.9 -16.9 7.5 -17.3 8.35 -17.3 L8.7 -17.25 Q9.2 -16.75 9.2 -16.1 L9.15 -15.65 Q8.95 -15.05 8.25 -14.55 L8.05 -14.45 7.65 -14.2 7.5 -14.15" fill="#bf8b24" fill-rule="evenodd" stroke="none"/>
    <path d="M7.5 -14.15 L7.3 -14.15 Q5.9 -14.15 4.55 -14.65 2.8 -15.25 2.8 -16.3 2.8 -17.1 4.25 -17.6 L6.45 -18.0 7.8 -17.9 8.05 -17.75 8.7 -17.25 8.35 -17.3 Q7.5 -17.3 6.9 -16.9 6.3 -16.5 6.3 -15.85 6.3 -15.0 6.95 -14.5 L7.5 -14.15" fill="#f3b53c" fill-rule="evenodd" stroke="none"/>
  </g>
</svg>
