<?xml version="1.0" encoding="UTF-8" standalone="no"?>
<svg xmlns:ffdec="https://www.free-decompiler.com/flash" xmlns:xlink="http://www.w3.org/1999/xlink" ffdec:objectType="shape" height="11.15px" width="11.0px" xmlns="http://www.w3.org/2000/svg">
  <g transform="matrix(1.0, 0.0, 0.0, 1.0, 5.55, 5.45)">
    <path d="M-3.25 -1.15 L-3.0 -1.75 -2.1 -2.9 0.15 -3.0 2.45 -2.85 Q3.15 -2.55 4.55 -0.85 L4.7 0.2 4.6 1.55 4.5 1.7 1.6 3.2 -0.9 4.3 -2.0 4.7 -2.3 4.8 -3.15 4.05 Q-3.75 3.2 -3.75 1.75 L-3.6 0.4 -3.25 -1.15 M2.8 1.55 L3.3 1.6 3.5 1.6 3.9 1.2 4.1 0.55 Q4.1 -0.55 2.9 -1.2 1.7 -1.8 -0.25 -1.8 L-1.75 -1.6 Q-2.4 -1.3 -2.5 -0.4 L-2.9 -0.8 -3.3 0.1 -3.35 0.55 Q-3.35 1.85 -2.35 1.85 -1.55 1.85 -1.0 0.75 L-0.85 0.8 -1.1 1.1 -1.15 1.65 Q-1.15 3.05 0.15 3.05 1.05 3.05 2.1 2.25 L2.8 1.55" fill="#34660b" fill-rule="evenodd" stroke="none"/>
    <path d="M-4.75 -3.0 Q-3.55 -4.4 -2.4 -4.65 L-0.55 -4.7 0.4 -4.35 1.1 -4.0 2.15 -3.5 3.35 -2.85 3.55 -2.7 4.2 -2.15 4.55 -0.85 Q3.15 -2.55 2.45 -2.85 L0.15 -3.0 -2.1 -2.9 -3.0 -1.75 -3.25 -1.15 -4.75 -3.0" fill="#15310e" fill-rule="evenodd" stroke="none"/>
    <path d="M-4.75 -3.0 L-3.25 -1.15 -3.6 0.4 -3.75 1.75 Q-3.75 3.2 -3.15 4.05 L-2.3 4.8 -2.9 4.95 -3.05 4.95 -3.35 4.9 -4.0 4.0 -4.3 2.45 -4.75 -2.2 -4.8 -2.95 -4.75 -3.0" fill="#152d0e" fill-rule="evenodd" stroke="none"/>
    <path d="M-2.5 -0.4 Q-2.4 -1.3 -1.75 -1.6 L-0.25 -1.8 Q1.7 -1.8 2.9 -1.2 4.1 -0.55 4.1 0.55 L3.9 1.2 3.5 1.6 3.3 1.6 2.8 1.55 -0.05 1.1 -0.85 0.8 -1.0 0.75 -2.5 -0.4" fill="#40c223" fill-rule="evenodd" stroke="none"/>
    <path d="M-2.5 -0.4 L-1.0 0.75 Q-1.55 1.85 -2.35 1.85 -3.35 1.85 -3.35 0.55 L-3.3 0.1 -2.9 -0.8 -2.5 -0.4" fill="#41841e" fill-rule="evenodd" stroke="none"/>
    <path d="M-0.85 0.8 L-0.05 1.1 2.8 1.55 2.1 2.25 Q1.05 3.05 0.15 3.05 -1.15 3.05 -1.15 1.65 L-1.1 1.1 -0.85 0.8" fill="#3cdf11" fill-rule="evenodd" stroke="none"/>
    <path d="M4.55 -0.85 L4.2 -2.15 3.55 -2.7 3.35 -2.85 2.15 -3.5 1.1 -4.0 0.4 -4.35 -0.55 -4.7 -2.4 -4.65 Q-3.55 -4.4 -4.75 -3.0 L-4.8 -2.95 -4.75 -2.2 -4.3 2.45 -4.0 4.0 -3.35 4.9 -3.05 4.95 -2.9 4.95 -2.3 4.8 -3.15 4.05 Q-3.75 3.2 -3.75 1.75 L-3.6 0.4 -3.25 -1.15 -3.0 -1.75 -2.1 -2.9 0.15 -3.0 2.45 -2.85 Q3.15 -2.55 4.55 -0.85 L4.7 0.2 4.6 1.55 4.5 1.7 1.6 3.2 -0.9 4.3 -2.0 4.7 -2.3 4.8 M-0.85 0.8 L-0.05 1.1 2.8 1.55 2.1 2.25 Q1.05 3.05 0.15 3.05 -1.15 3.05 -1.15 1.65 L-1.1 1.1 -0.85 0.8 Z" fill="none" stroke="#0a1707" stroke-linecap="round" stroke-linejoin="bevel" stroke-width="1.5"/>
    <path d="M4.55 -0.85 Q3.15 -2.55 2.45 -2.85 L0.15 -3.0 -2.1 -2.9 -3.0 -1.75 -3.25 -1.15 -4.75 -3.0 Q-3.55 -4.4 -2.4 -4.65 L-0.55 -4.7 0.4 -4.35 1.1 -4.0 2.15 -3.5 3.35 -2.85 3.55 -2.7 4.2 -2.15 4.55 -0.85" fill="#15310e" fill-rule="evenodd" stroke="none"/>
    <path d="M-3.25 -1.15 L-3.0 -1.75 -2.1 -2.9 0.15 -3.0 2.45 -2.85 Q3.15 -2.55 4.55 -0.85 L4.7 0.2 4.6 1.55 4.5 1.7 1.6 3.2 -0.9 4.3 -2.0 4.7 -2.3 4.8 -3.15 4.05 Q-3.75 3.2 -3.75 1.75 L-3.6 0.4 -3.25 -1.15 M2.8 1.55 L3.3 1.6 3.5 1.6 3.9 1.2 4.1 0.55 Q4.1 -0.55 2.9 -1.2 1.7 -1.8 -0.25 -1.8 L-1.75 -1.6 Q-2.4 -1.3 -2.5 -0.4 L-2.9 -0.8 -3.3 0.1 -3.35 0.55 Q-3.35 1.85 -2.35 1.85 -1.55 1.85 -1.0 0.75 L-0.85 0.8 -1.1 1.1 -1.15 1.65 Q-1.15 3.05 0.15 3.05 1.05 3.05 2.1 2.25 L2.8 1.55" fill="#34660b" fill-rule="evenodd" stroke="none"/>
    <path d="M-4.75 -3.0 L-3.25 -1.15 -3.6 0.4 -3.75 1.75 Q-3.75 3.2 -3.15 4.05 L-2.3 4.8 -2.9 4.95 -3.05 4.95 -3.35 4.9 -4.0 4.0 -4.3 2.45 -4.75 -2.2 -4.8 -2.95 -4.75 -3.0" fill="#152d0e" fill-rule="evenodd" stroke="none"/>
    <path d="M-2.5 -0.4 L-1.0 0.75 Q-1.55 1.85 -2.35 1.85 -3.35 1.85 -3.35 0.55 L-3.3 0.1 -2.9 -0.8 -2.5 -0.4" fill="#41841e" fill-rule="evenodd" stroke="none"/>
    <path d="M-2.5 -0.4 Q-2.4 -1.3 -1.75 -1.6 L-0.25 -1.8 Q1.7 -1.8 2.9 -1.2 4.1 -0.55 4.1 0.55 L3.9 1.2 3.5 1.6 3.3 1.6 2.8 1.55 -0.05 1.1 -0.85 0.8 -1.0 0.75 -2.5 -0.4" fill="#40c223" fill-rule="evenodd" stroke="none"/>
    <path d="M-0.85 0.8 L-0.05 1.1 2.8 1.55 2.1 2.25 Q1.05 3.05 0.15 3.05 -1.15 3.05 -1.15 1.65 L-1.1 1.1 -0.85 0.8" fill="#3cdf11" fill-rule="evenodd" stroke="none"/>
    <path d="M2.65 -0.05 Q3.0 0.4 2.9 0.8 L2.25 1.3 Q1.7 1.5 1.15 1.3 L0.25 0.7 Q-0.1 0.3 0.0 -0.05 L0.65 -0.65 1.75 -0.6 Q2.3 -0.4 2.65 -0.05 M-0.3 -3.95 L0.2 -3.0 Q0.2 -2.45 -0.3 -2.05 -0.8 -1.65 -1.5 -1.65 -2.2 -1.65 -2.7 -2.05 -3.2 -2.45 -3.2 -3.0 -3.2 -3.55 -2.7 -3.95 -2.2 -4.35 -1.5 -4.35 -0.8 -4.35 -0.3 -3.95" fill="#ffffff" fill-rule="evenodd" stroke="none"/>
  </g>
</svg>
