<?xml version="1.0" encoding="UTF-8" standalone="no"?>
<svg xmlns:ffdec="https://www.free-decompiler.com/flash" xmlns:xlink="http://www.w3.org/1999/xlink" ffdec:objectType="shape" height="42.6px" width="58.3px" xmlns="http://www.w3.org/2000/svg">
  <g transform="matrix(1.0, 0.0, 0.0, 1.0, 29.2, 38.35)">
    <path d="M-11.75 -21.55 L-10.7 -21.4 -10.65 -20.4 Q-10.65 -19.5 -12.25 -18.5 L-13.3 -17.95 -14.05 -17.75 -14.25 -17.65 -14.35 -17.65 -15.2 -17.6 Q-20.2 -17.6 -20.2 -19.3 L-20.2 -19.55 -20.1 -19.7 -18.45 -19.85 -16.75 -18.35 Q-16.1 -17.85 -15.15 -17.85 L-14.05 -18.0 Q-13.4 -18.2 -12.85 -18.65 -11.65 -19.55 -11.65 -20.9 L-11.75 -21.55 M-8.05 -20.35 L-5.75 -18.5 -5.95 -18.6 -7.35 -18.9 -8.8 -18.95 Q-8.1 -20.0 -8.05 -20.35" fill="url(#gradient0)" fill-rule="evenodd" stroke="none"/>
    <path d="M-5.95 -18.6 Q-5.25 -18.1 -4.45 -17.95 L-4.45 -17.85 -5.5 -17.9 -9.5 -17.75 -11.15 -17.45 -12.95 -17.0 -14.1 -16.65 -14.4 -16.5 -16.2 -16.0 -19.1 -15.6 Q-21.1 -15.65 -22.5 -16.9 -23.55 -17.85 -24.75 -20.85 -22.7 -17.45 -20.0 -17.1 L-19.9 -17.1 -15.05 -17.45 -14.8 -17.5 -14.35 -17.65 -14.25 -17.65 -14.05 -17.75 -13.3 -17.95 -11.65 -18.4 -11.6 -18.45 -10.9 -18.6 -10.8 -18.65 -9.6 -18.9 -8.8 -18.95 -7.35 -18.9 -5.95 -18.6" fill="#544c3a" fill-rule="evenodd" stroke="none"/>
    <path d="M-10.6 -16.55 L-9.65 -14.9 -9.95 -14.85 -10.95 -15.15 Q-11.6 -15.65 -12.45 -15.95 L-12.65 -16.35 -10.8 -16.55 -10.6 -16.55 M-8.1 -12.1 L-7.8 -11.55 -8.05 -11.6 Q-10.9 -11.6 -12.35 -10.05 L-13.1 -11.25 -12.15 -12.25 -11.3 -12.55 -11.05 -12.3 -11.15 -12.55 -10.35 -12.65 -8.8 -12.35 -8.1 -12.1 M-14.6 -13.6 L-15.4 -14.85 -13.75 -16.0 -13.6 -15.75 Q-13.95 -15.75 -14.25 -15.4 -14.65 -14.9 -14.65 -14.15 L-14.6 -13.6" fill="#a38e8b" fill-rule="evenodd" stroke="none"/>
    <path d="M-12.65 -16.35 L-12.45 -15.95 -11.8 -14.4 -11.75 -14.3 -11.35 -13.15 -11.15 -12.55 -11.05 -12.3 -11.3 -12.55 -11.7 -13.05 -12.6 -14.25 -13.6 -15.75 -13.75 -16.0 -14.1 -16.65 -12.95 -17.0 -12.65 -16.35" fill="#625250" fill-rule="evenodd" stroke="none"/>
    <path d="M-16.9 -32.15 L-15.95 -30.95 -16.45 -30.55 Q-16.95 -30.2 -17.45 -30.0 L-19.25 -29.7 -20.5 -30.05 -20.95 -30.25 -21.0 -30.65 -20.1 -30.55 -19.5 -30.6 Q-18.3 -30.75 -17.35 -31.7 L-16.9 -32.15 M-14.25 -28.15 L-13.9 -27.35 Q-14.55 -26.3 -15.4 -25.75 L-15.55 -25.7 Q-16.95 -25.0 -18.15 -25.15 -19.2 -25.3 -20.1 -26.1 L-20.2 -26.4 -20.3 -26.95 Q-19.45 -26.4 -18.5 -26.2 L-16.4 -26.4 -15.75 -26.65 Q-14.8 -27.2 -14.25 -28.15 M-12.95 -24.45 L-12.8 -23.5 -12.8 -23.45 Q-12.85 -23.15 -14.15 -22.1 L-14.4 -21.95 Q-15.15 -21.5 -16.35 -21.3 L-18.4 -21.2 -18.6 -21.5 -19.0 -22.4 -16.75 -22.05 Q-15.6 -22.1 -14.55 -22.7 L-14.2 -22.95 Q-13.3 -23.6 -12.95 -24.45 M-12.55 -21.4 L-12.35 -21.5 -11.8 -21.55 -11.75 -21.55 -11.65 -20.9 Q-11.65 -19.55 -12.85 -18.65 -13.4 -18.2 -14.05 -18.0 L-15.15 -17.85 Q-16.1 -17.85 -16.75 -18.35 L-18.45 -19.85 -17.8 -20.2 -17.3 -19.5 -16.8 -18.95 -16.1 -18.7 -14.85 -18.5 -14.7 -18.5 -14.05 -18.65 -13.05 -19.3 -12.45 -20.0 -12.55 -21.4" fill="#282a24" fill-rule="evenodd" stroke="none"/>
    <path d="M-19.4 -34.95 Q-19.8 -34.2 -20.45 -34.0 -21.15 -33.65 -21.7 -34.0 -22.3 -34.3 -22.35 -35.1 -22.45 -35.75 -22.05 -36.5 L-20.9 -37.55 -19.7 -37.5 Q-19.15 -37.15 -19.0 -36.45 -18.95 -35.7 -19.4 -34.95" fill="#eaf4fb" fill-rule="evenodd" stroke="none"/>
    <path d="M-24.0 -34.65 Q-23.9 -36.15 -22.85 -37.2 -21.7 -38.35 -20.1 -38.35 -18.5 -38.35 -17.35 -37.2 L-16.8 -36.5 Q-16.9 -35.55 -17.35 -34.75 L-17.65 -34.25 Q-18.55 -33.05 -20.25 -32.95 L-20.6 -32.95 -20.95 -32.95 -22.75 -33.55 Q-23.7 -34.05 -24.0 -34.65 M-19.4 -34.95 Q-18.95 -35.7 -19.0 -36.45 -19.15 -37.15 -19.7 -37.5 L-20.9 -37.55 -22.05 -36.5 Q-22.45 -35.75 -22.35 -35.1 -22.3 -34.3 -21.7 -34.0 -21.15 -33.65 -20.45 -34.0 -19.8 -34.2 -19.4 -34.95" fill="url(#gradient1)" fill-rule="evenodd" stroke="none"/>
    <path d="M-21.4 -30.75 Q-22.2 -31.05 -22.85 -31.7 L-23.15 -32.0 Q-23.15 -32.7 -22.75 -33.55 L-20.95 -32.95 -21.6 -32.65 -21.7 -31.95 -21.4 -30.75" fill="#6160c3" fill-rule="evenodd" stroke="none"/>
    <path d="M-20.25 -32.95 Q-18.55 -33.05 -17.65 -34.25 L-17.2 -33.7 -17.1 -33.25 Q-17.1 -32.6 -18.1 -31.95 -19.0 -31.35 -19.7 -31.35 -20.7 -31.35 -20.7 -32.45 L-20.4 -32.9 -20.25 -32.95" fill="#1e9efd" fill-rule="evenodd" stroke="none"/>
    <path d="M-16.8 -36.5 Q-16.2 -35.6 -16.2 -34.45 -16.2 -33.15 -16.9 -32.15 L-17.35 -31.7 Q-18.3 -30.75 -19.5 -30.6 L-20.1 -30.55 -21.0 -30.65 -21.4 -30.75 -21.7 -31.95 -21.6 -32.65 -20.95 -32.95 -20.6 -32.95 -20.25 -32.95 -20.4 -32.9 -20.7 -32.45 Q-20.7 -31.35 -19.7 -31.35 -19.0 -31.35 -18.1 -31.95 -17.1 -32.6 -17.1 -33.25 L-17.2 -33.7 -17.65 -34.25 -17.35 -34.75 Q-16.9 -35.55 -16.8 -36.5" fill="#0073c9" fill-rule="evenodd" stroke="none"/>
    <path d="M-13.9 -27.35 L-12.95 -24.45 Q-13.3 -23.6 -14.2 -22.95 L-14.55 -22.7 -15.4 -25.75 Q-14.55 -26.3 -13.9 -27.35 M-19.0 -22.4 L-19.05 -22.6 -20.1 -26.1 Q-19.2 -25.3 -18.15 -25.15 L-17.45 -23.4 -16.75 -22.05 -19.0 -22.4" fill="url(#gradient2)" fill-rule="evenodd" stroke="none"/>
    <path d="M-12.8 -23.45 L-12.65 -22.5 -12.55 -21.4 -12.45 -20.0 -13.05 -19.3 -14.05 -18.65 -14.4 -21.95 -14.15 -22.1 Q-12.85 -23.15 -12.8 -23.45 M-17.8 -20.2 L-18.4 -21.2 -16.35 -21.3 -14.7 -18.5 -14.85 -18.5 -16.1 -18.7 -16.8 -18.95 -17.3 -19.5 -17.8 -20.2" fill="url(#gradient3)" fill-rule="evenodd" stroke="none"/>
    <path d="M-15.95 -30.95 L-14.25 -28.15 Q-14.8 -27.2 -15.75 -26.65 -16.45 -28.4 -17.45 -30.0 -16.95 -30.2 -16.45 -30.55 L-15.95 -30.95 M-20.3 -26.95 L-20.5 -27.7 -20.95 -30.2 -20.95 -30.25 -20.5 -30.05 -19.25 -29.7 -18.5 -26.2 Q-19.45 -26.4 -20.3 -26.95" fill="url(#gradient4)" fill-rule="evenodd" stroke="none"/>
    <path d="M-17.45 -30.0 Q-16.45 -28.4 -15.75 -26.65 L-16.4 -26.4 -18.5 -26.2 -19.25 -29.7 -17.45 -30.0 M-18.15 -25.15 Q-16.95 -25.0 -15.55 -25.7 L-15.4 -25.75 -14.55 -22.7 Q-15.6 -22.1 -16.75 -22.05 L-17.45 -23.4 -18.15 -25.15 M-14.05 -18.65 L-14.7 -18.5 -16.35 -21.3 Q-15.15 -21.5 -14.4 -21.95 L-14.05 -18.65" fill="#655c69" fill-rule="evenodd" stroke="none"/>
    <path d="M-10.7 -21.4 L-9.7 -21.15 -9.7 -21.1 Q-9.7 -20.4 -10.15 -19.55 L-10.8 -18.65 -10.9 -18.6 -11.6 -18.45 -11.65 -18.4 -13.3 -17.95 -12.25 -18.5 Q-10.65 -19.5 -10.65 -20.4 L-10.7 -21.4 M-8.9 -20.85 L-8.05 -20.35 Q-8.1 -20.0 -8.8 -18.95 L-9.6 -18.9 -9.4 -19.2 -8.9 -20.85" fill="#afa694" fill-rule="evenodd" stroke="none"/>
    <path d="M-24.75 -20.85 L-24.75 -20.95 Q-22.65 -20.05 -21.15 -19.8 L-21.5 -19.0 Q-21.5 -18.05 -20.35 -17.3 L-20.0 -17.1 Q-22.7 -17.45 -24.75 -20.85" fill="#877870" fill-rule="evenodd" stroke="none"/>
    <path d="M-9.65 -14.9 L-9.2 -14.05 Q-10.15 -14.45 -11.15 -14.45 L-11.8 -14.4 -12.45 -15.95 Q-11.6 -15.65 -10.95 -15.15 L-9.95 -14.85 -9.65 -14.9 M-8.6 -13.0 L-8.1 -12.1 -8.8 -12.35 -10.35 -12.65 -11.15 -12.55 -11.35 -13.15 -10.45 -13.2 -8.6 -13.0 M-13.1 -11.25 L-13.65 -12.1 -12.85 -12.7 -11.7 -13.05 -11.3 -12.55 -12.15 -12.25 -13.1 -11.25 M-14.15 -12.9 L-14.6 -13.6 -14.65 -14.15 Q-14.65 -14.9 -14.25 -15.4 -13.95 -15.75 -13.6 -15.75 L-12.6 -14.25 -13.5 -13.8 -14.15 -12.9" fill="#c4b8b6" fill-rule="evenodd" stroke="none"/>
    <path d="M-23.15 -32.0 Q-24.0 -33.05 -24.0 -34.45 L-24.0 -34.65 Q-23.7 -34.05 -22.75 -33.55 -23.15 -32.7 -23.15 -32.0" fill="#2a1646" fill-rule="evenodd" stroke="none"/>
    <path d="M-21.6 -9.4 L-20.55 -9.35 -20.5 -8.6 -20.3 -8.3 -20.25 -8.25 -19.85 -7.4 Q-19.5 -7.05 -18.75 -7.0 L-18.25 -6.95 -18.6 -6.45 -19.1 -6.1 -19.3 -6.0 -20.05 -5.8 -21.1 -5.95 -21.7 -6.2 Q-22.65 -6.7 -22.65 -7.75 L-22.6 -7.95 Q-22.55 -8.8 -21.6 -9.4 M-18.25 -11.45 L-17.3 -11.75 -16.25 -11.85 -15.8 -11.75 Q-16.85 -11.65 -17.75 -11.05 -18.75 -10.35 -18.75 -9.7 -18.75 -8.95 -17.75 -8.95 -16.45 -8.95 -15.3 -10.15 L-14.8 -10.75 -14.8 -10.6 -14.85 -10.3 -15.8 -9.4 Q-16.95 -8.55 -18.1 -8.55 L-19.1 -8.65 Q-19.6 -8.85 -19.6 -9.5 -19.6 -10.55 -18.25 -11.45" fill="#d9a226" fill-rule="evenodd" stroke="none"/>
    <path d="M-14.85 -11.0 L-14.45 -10.2 -14.45 -10.15 -14.35 -9.9 Q-14.3 -9.35 -14.8 -8.75 -15.4 -7.95 -16.55 -7.4 -17.35 -7.05 -18.05 -7.0 L-18.25 -6.95 -18.75 -7.0 Q-19.5 -7.05 -19.85 -7.4 L-20.25 -8.25 -20.15 -8.15 -19.2 -7.9 -18.95 -7.85 -18.2 -7.95 -17.0 -8.3 Q-15.85 -8.85 -15.25 -9.65 L-14.85 -10.3 -14.8 -10.6 -14.8 -10.75 -14.85 -11.0" fill="#9f6713" fill-rule="evenodd" stroke="none"/>
    <path d="M-18.05 -7.0 L-17.95 -6.6 Q-17.9 -6.0 -18.35 -5.5 L-18.95 -5.0 Q-19.85 -4.35 -21.3 -4.15 L-21.55 -4.15 -21.95 -4.1 Q-23.3 -4.05 -24.35 -4.5 L-25.3 -5.2 -25.45 -5.5 -25.55 -5.9 -25.6 -6.2 -25.7 -6.6 -25.5 -6.3 -25.45 -6.2 -24.55 -5.55 -23.75 -5.3 -23.0 -5.15 -21.75 -5.2 -21.65 -5.2 Q-20.1 -5.35 -19.15 -6.05 L-19.1 -6.1 -18.6 -6.45 -18.25 -6.95 -18.05 -7.0" fill="#9b5a23" fill-rule="evenodd" stroke="none"/>
    <path d="M-13.15 -0.75 L-12.8 0.6 -12.85 0.95 Q-13.0 1.55 -13.75 2.05 -14.75 2.85 -16.35 3.15 L-19.15 2.95 Q-20.1 2.7 -20.4 2.15 L-20.75 0.8 -20.5 1.2 Q-19.95 1.5 -19.45 1.75 L-16.65 1.95 -15.2 1.55 -14.05 0.85 Q-13.35 0.35 -13.15 -0.2 L-13.15 -0.75 M-22.55 -1.85 Q-23.45 -1.35 -24.65 -1.1 L-27.45 -1.3 Q-28.3 -1.55 -28.65 -2.0 L-28.8 -2.3 -28.8 -2.4 -29.1 -3.25 -28.85 -2.85 Q-28.5 -2.5 -27.8 -2.3 L-25.0 -2.1 -23.85 -2.4 -22.95 -2.8 -22.75 -2.9 -22.65 -3.0 -22.7 -2.4 -22.7 -2.3 -22.6 -2.05 -22.6 -2.0 -22.55 -1.85" fill="#7d4511" fill-rule="evenodd" stroke="none"/>
    <path d="M-27.95 -5.4 L-27.1 -5.8 -26.55 -6.0 -27.0 -5.35 Q-27.0 -3.95 -25.7 -3.25 -24.75 -2.75 -23.6 -2.75 L-23.15 -2.75 -22.75 -2.9 -22.95 -2.8 -23.85 -2.4 -25.9 -2.2 Q-26.75 -2.2 -27.55 -2.85 -28.35 -3.5 -28.35 -4.3 -28.35 -4.9 -27.95 -5.4" fill="#fbd430" fill-rule="evenodd" stroke="none"/>
    <path d="M-22.45 -3.45 L-20.2 -3.25 -20.1 -3.25 -20.3 -2.8 -19.9 -2.2 -20.75 -1.6 -21.2 -0.7 -21.25 -0.75 -21.75 -1.0 -21.55 -1.35 -21.3 -2.15 Q-21.3 -2.75 -21.9 -2.75 L-22.3 -2.65 -22.7 -2.4 -22.65 -3.0 -22.45 -3.45" fill="#e4c916" fill-rule="evenodd" stroke="none"/>
    <path d="M-20.8 0.75 L-20.85 0.55 -20.85 0.4 Q-20.9 -0.05 -20.55 -0.5 L-19.95 -1.1 -19.65 -1.3 -19.7 -1.2 Q-19.7 -0.25 -18.95 0.45 L-19.65 0.25 -20.8 0.75" fill="#e8c90f" fill-rule="evenodd" stroke="none"/>
    <path d="M-26.55 -6.0 L-25.7 -6.2 -25.6 -6.2 -25.55 -5.9 -25.45 -5.5 -25.3 -5.2 -24.35 -4.5 Q-23.3 -4.05 -21.95 -4.1 L-22.45 -3.45 -22.65 -3.0 -22.75 -2.9 -23.15 -2.75 -23.6 -2.75 Q-24.75 -2.75 -25.7 -3.25 -27.0 -3.95 -27.0 -5.35 L-26.55 -6.0 M-24.65 -7.85 L-23.85 -7.8 -22.7 -7.95 -22.6 -7.95 -22.65 -7.75 Q-22.65 -6.7 -21.7 -6.2 L-21.1 -5.95 -21.8 -5.8 Q-22.85 -5.8 -23.75 -6.3 -24.7 -6.8 -24.7 -7.6 L-24.65 -7.85" fill="#e4bd2e" fill-rule="evenodd" stroke="none"/>
    <path d="M9.8 -7.45 L8.85 -7.2 Q8.15 -7.2 7.7 -7.7 L7.5 -8.0 Q8.7 -8.0 9.8 -7.45" fill="#da9f2f" fill-rule="evenodd" stroke="none"/>
    <path d="M-5.85 -9.85 L-5.35 -8.95 -5.3 -8.9 -5.2 -8.75 Q-4.75 -7.85 -5.35 -6.6 -6.0 -5.25 -7.55 -4.25 -9.1 -3.3 -10.6 -3.35 -12.0 -3.35 -12.6 -4.15 L-12.7 -4.3 -12.75 -4.4 -12.75 -4.45 -13.25 -5.2 -12.95 -4.9 Q-12.35 -4.4 -11.25 -4.4 -9.75 -4.35 -8.2 -5.3 -6.65 -6.3 -6.0 -7.65 -5.55 -8.55 -5.7 -9.25 L-5.7 -9.35 -5.85 -9.85 M-20.85 0.4 L-21.0 0.35 Q-21.9 0.0 -22.2 -0.6 L-22.55 -1.85 -22.45 -1.65 -21.75 -1.0 -21.25 -0.75 -21.2 -0.7 -20.55 -0.5 Q-20.9 -0.05 -20.85 0.4" fill="#845b1e" fill-rule="evenodd" stroke="none"/>
    <path d="M-0.15 -3.15 Q0.25 -2.3 1.6 -2.25 2.9 -2.05 4.35 -2.75 L5.85 -3.85 6.7 -3.6 Q5.75 -2.2 4.55 -1.75 L3.45 -1.4 2.1 -1.25 Q1.55 -1.3 0.85 -1.75 0.1 -2.15 -0.15 -3.15" fill="#7e4f12" fill-rule="evenodd" stroke="none"/>
    <path d="M-1.0 -3.05 L-0.5 -2.6 -0.35 -2.5 Q0.4 -1.7 0.35 -0.9 L0.2 -0.2 0.1 -0.05 -0.5 0.0 Q-1.05 0.0 -1.55 -0.4 -2.05 -0.8 -2.05 -1.35 L-1.8 -2.4 Q-1.5 -2.9 -1.0 -3.05" fill="#eea639" fill-rule="evenodd" stroke="none"/>
    <path d="M11.85 -7.4 L12.05 -7.55 12.85 -7.95 13.9 -8.2 13.55 -7.25 13.5 -6.9 Q13.5 -6.25 13.9 -5.8 14.25 -5.35 14.8 -5.35 15.9 -5.35 16.75 -6.45 L16.8 -6.45 17.3 -7.35 Q17.45 -7.3 17.55 -7.2 L18.05 -6.75 18.2 -6.65 18.65 -6.05 Q17.95 -5.85 17.25 -5.45 L16.9 -5.25 Q15.75 -4.55 15.2 -3.6 L14.95 -3.1 14.45 -3.2 Q12.9 -3.6 12.0 -4.6 L11.75 -4.9 Q12.2 -5.4 12.15 -6.0 L12.15 -6.05 11.9 -7.15 11.85 -7.4" fill="#bf7026" fill-rule="evenodd" stroke="none"/>
    <path d="M21.7 -2.1 L22.9 -1.15 22.95 -0.8 22.95 -0.35 22.05 0.7 Q21.05 1.5 19.45 1.8 L16.65 1.6 Q16.0 1.4 15.65 1.1 L15.35 0.65 15.3 0.5 15.25 0.4 15.25 0.25 Q15.2 -0.2 15.55 -0.65 L15.6 -0.7 16.0 -1.1 16.15 -1.25 Q17.15 -2.05 18.75 -2.3 L20.15 -2.4 20.8 -2.35 21.4 -2.2 21.55 -2.15 21.7 -2.1" fill="#e6b546" fill-rule="evenodd" stroke="none"/>
    <path d="M14.95 -1.75 L14.9 -1.85 14.9 -1.9 Q14.7 -2.35 14.85 -2.8 L14.95 -3.1 15.2 -3.6 Q15.75 -4.55 16.9 -5.25 L18.0 -5.45 19.05 -5.25 18.6 -5.25 Q16.85 -4.65 16.85 -3.25 16.85 -2.4 17.85 -2.4 18.95 -2.4 19.9 -3.25 L20.35 -3.65 20.55 -2.7 20.15 -2.4 18.75 -2.3 Q17.15 -2.05 16.15 -1.25 L16.0 -1.1 15.45 -1.25 14.95 -1.75" fill="#d7a831" fill-rule="evenodd" stroke="none"/>
    <path d="M21.65 -5.65 Q21.2 -6.35 19.95 -6.3 L19.8 -6.25 19.65 -6.4 19.35 -6.75 19.15 -7.0 19.1 -7.5 Q19.1 -8.15 20.0 -8.65 20.0 -7.6 21.35 -6.9 22.5 -6.3 23.7 -6.3 L24.7 -6.35 25.2 -6.4 25.25 -6.4 24.65 -5.75 23.4 -4.8 22.4 -4.95 22.1 -5.0 21.95 -5.05 21.85 -5.25 21.7 -5.6 21.65 -5.65" fill="#df9d2c" fill-rule="evenodd" stroke="none"/>
    <path d="M18.8 -6.1 Q18.65 -6.4 18.65 -6.65 L18.65 -6.7 18.9 -7.95 18.95 -7.65 19.15 -7.0 19.35 -6.75 19.65 -6.4 19.8 -6.25 19.2 -6.2 18.8 -6.1 M26.3 -6.0 L26.25 -5.3 26.05 -4.8 24.45 -4.7 23.85 -4.35 Q23.4 -4.15 23.3 -3.7 L23.25 -3.6 22.55 -3.65 22.55 -3.8 21.95 -5.05 22.1 -5.0 22.4 -4.95 23.4 -4.8 24.95 -5.1 Q25.9 -5.4 26.3 -6.0" fill="#80430d" fill-rule="evenodd" stroke="none"/>
    <path d="M5.05 -7.85 Q4.2 -7.2 4.3 -6.4 4.3 -6.0 4.55 -5.65 L4.55 -5.3 Q4.6 -4.4 5.75 -3.9 L5.85 -3.85 4.35 -2.75 Q2.9 -2.05 1.6 -2.25 0.25 -2.3 -0.15 -3.15 L-0.2 -3.2 -0.25 -3.4 -0.3 -3.65 -0.35 -4.5 0.05 -5.35 Q0.7 -6.5 2.15 -7.25 L4.1 -7.85 4.75 -7.85 4.9 -7.85 5.05 -7.85 M10.45 2.25 Q10.05 2.9 9.05 3.2 L6.2 3.3 Q4.65 2.9 3.75 1.9 2.8 0.95 3.05 -0.05 L3.05 -0.1 3.1 -0.2 3.2 -0.35 3.8 -1.05 Q4.1 -1.35 4.6 -1.45 L7.45 -1.55 Q8.55 -1.3 9.3 -0.7 L9.8 -0.25 9.95 -0.15 Q10.85 0.85 10.6 1.8 L10.45 2.25" fill="#b1701d" fill-rule="evenodd" stroke="none"/>
    <path d="M3.05 -0.1 L3.05 -0.05 Q2.8 0.95 3.75 1.9 4.65 2.9 6.2 3.3 L9.05 3.2 Q10.05 2.9 10.45 2.25 10.15 4.25 7.3 4.25 5.6 4.25 4.2 3.35 2.75 2.45 2.75 1.25 L2.75 0.6 3.05 -0.1" fill="#915b16" fill-rule="evenodd" stroke="none"/>
    <path d="M26.05 -4.8 L26.65 -4.7 28.1 -4.1 28.45 -3.8 28.5 -3.7 Q29.25 -2.95 29.05 -2.2 L29.0 -2.05 29.0 -2.0 28.9 -1.8 27.85 -1.15 25.65 -1.05 Q24.45 -1.35 23.8 -2.1 23.25 -2.6 23.2 -3.15 L23.25 -3.5 23.25 -3.55 23.25 -3.6 23.3 -3.7 Q23.4 -4.15 23.85 -4.35 L24.45 -4.7 26.05 -4.8" fill="#bf7a1f" fill-rule="evenodd" stroke="none"/>
    <path d="M29.0 -2.0 L28.65 -0.75 Q28.35 -0.35 27.65 -0.15 L25.45 -0.05 Q24.2 -0.4 23.5 -1.2 22.95 -1.75 22.95 -2.4 L23.25 -3.5 23.2 -3.15 Q23.25 -2.6 23.8 -2.1 24.45 -1.35 25.65 -1.05 L27.85 -1.15 28.9 -1.8 29.0 -2.0 M22.55 -3.65 L22.05 -2.65 21.7 -2.1 21.55 -2.15 21.4 -2.2 20.8 -2.35 20.15 -2.4 20.55 -2.7 21.4 -3.8 21.5 -3.9 21.9 -4.9 21.9 -5.05 21.95 -5.05 22.55 -3.8 22.55 -3.65 M15.6 -0.7 L14.95 -1.75 15.45 -1.25 16.0 -1.1 15.6 -0.7" fill="#985e13" fill-rule="evenodd" stroke="none"/>
    <path d="M14.9 -1.9 L14.6 -1.9 Q13.55 -1.9 12.35 -2.55 11.1 -3.25 10.75 -4.15 L11.15 -4.4 11.75 -4.9 12.0 -4.6 Q12.9 -3.6 14.45 -3.2 L14.95 -3.1 14.85 -2.8 Q14.7 -2.35 14.9 -1.9" fill="#774a10" fill-rule="evenodd" stroke="none"/>
    <path d="M-20.55 -9.35 L-20.2 -10.1 Q-19.6 -10.9 -18.4 -11.4 L-18.25 -11.45 Q-19.6 -10.55 -19.6 -9.5 -19.6 -8.85 -19.1 -8.65 L-18.1 -8.55 Q-16.95 -8.55 -15.8 -9.4 L-14.85 -10.3 -15.25 -9.65 Q-15.85 -8.85 -17.0 -8.3 L-18.2 -7.95 -18.95 -7.85 -19.2 -7.9 -20.15 -8.15 -20.25 -8.25 -20.3 -8.3 -20.5 -8.6 -20.55 -9.35 M-11.4 -9.35 L-10.05 -10.2 -8.95 -10.45 -9.4 -10.25 Q-10.0 -9.9 -10.0 -9.35 -10.0 -8.95 -9.5 -8.65 -9.05 -8.35 -8.65 -8.35 -7.8 -8.35 -7.25 -8.85 -6.85 -9.2 -6.75 -9.6 -6.45 -9.15 -6.45 -8.55 L-6.45 -8.05 -6.5 -8.05 Q-7.45 -7.0 -9.1 -7.0 -10.05 -7.0 -10.75 -7.6 -11.45 -8.2 -11.45 -9.1 L-11.4 -9.35" fill="#edce2e" fill-rule="evenodd" stroke="none"/>
    <path d="M-13.25 -5.2 L-13.45 -5.55 Q-13.85 -6.45 -13.3 -7.7 -12.85 -8.6 -11.95 -9.3 L-11.2 -9.85 -11.4 -9.35 -11.45 -9.1 Q-11.45 -8.2 -10.75 -7.6 -10.05 -7.0 -9.1 -7.0 -7.45 -7.0 -6.5 -8.05 L-6.45 -8.05 -5.7 -9.25 Q-5.55 -8.55 -6.0 -7.65 -6.65 -6.3 -8.2 -5.3 -9.75 -4.35 -11.25 -4.4 -12.35 -4.4 -12.95 -4.9 L-13.25 -5.2 M-15.3 -2.2 L-14.7 -2.05 -14.55 -2.0 Q-13.35 -1.6 -13.15 -0.85 L-13.15 -0.75 -13.15 -0.2 Q-13.35 0.35 -14.05 0.85 L-15.2 1.55 -15.85 1.55 Q-17.1 1.55 -18.25 0.95 L-18.6 0.75 -18.95 0.45 Q-19.7 -0.25 -19.7 -1.2 L-19.65 -1.3 Q-18.75 -1.95 -17.35 -2.15 L-15.3 -2.2" fill="#d59729" fill-rule="evenodd" stroke="none"/>
    <path d="M-15.8 -11.75 Q-15.2 -11.6 -14.95 -11.15 L-14.85 -11.0 -14.8 -10.75 -15.3 -10.15 Q-16.45 -8.95 -17.75 -8.95 -18.75 -8.95 -18.75 -9.7 -18.75 -10.35 -17.75 -11.05 -16.85 -11.65 -15.8 -11.75" fill="#cd861a" fill-rule="evenodd" stroke="none"/>
    <path d="M-25.3 -8.1 L-24.8 -8.55 Q-23.75 -9.25 -22.15 -9.4 L-21.6 -9.4 Q-22.55 -8.8 -22.6 -7.95 L-22.7 -7.95 -23.85 -7.8 -24.65 -7.85 -25.3 -8.1" fill="#cba118" fill-rule="evenodd" stroke="none"/>
    <path d="M-20.75 0.8 L-20.8 0.75 -19.65 0.25 -18.95 0.45 -18.6 0.75 -18.25 0.95 Q-17.1 1.55 -15.85 1.55 L-15.2 1.55 -16.65 1.95 -19.45 1.75 Q-19.95 1.5 -20.5 1.2 L-20.75 0.8 M-29.1 -3.25 L-29.15 -3.35 -29.2 -3.5 -29.2 -3.65 Q-29.25 -4.1 -28.9 -4.55 L-28.3 -5.15 -27.95 -5.4 Q-28.35 -4.9 -28.35 -4.3 -28.35 -3.5 -27.55 -2.85 -26.75 -2.2 -25.9 -2.2 L-23.85 -2.4 -25.0 -2.1 -27.8 -2.3 Q-28.5 -2.5 -28.85 -2.85 L-29.1 -3.25 M-25.7 -6.6 L-25.75 -6.95 Q-25.8 -7.6 -25.3 -8.1 L-24.65 -7.85 -24.7 -7.6 Q-24.7 -6.8 -23.75 -6.3 -22.85 -5.8 -21.8 -5.8 L-21.1 -5.95 -20.05 -5.8 -19.3 -6.0 -19.1 -6.1 -19.15 -6.05 Q-20.1 -5.35 -21.65 -5.2 L-21.75 -5.2 -23.0 -5.15 -23.75 -5.3 -24.55 -5.55 -25.45 -6.2 -25.5 -6.3 -25.7 -6.6 M-22.7 -2.4 L-22.3 -2.65 -21.9 -2.75 Q-21.3 -2.75 -21.3 -2.15 L-21.55 -1.35 -21.75 -1.0 -22.45 -1.65 -22.55 -1.85 -22.6 -2.0 -22.6 -2.05 -22.7 -2.3 -22.7 -2.4" fill="#ffe469" fill-rule="evenodd" stroke="none"/>
    <path d="M-18.35 -5.5 L-16.45 -5.15 Q-15.15 -4.6 -15.0 -3.6 L-14.95 -3.1 -15.3 -2.2 -17.35 -2.15 Q-18.75 -1.95 -19.65 -1.3 L-19.95 -1.1 -20.55 -0.5 -21.2 -0.7 -20.75 -1.6 -19.9 -2.2 -20.3 -2.8 -20.1 -3.25 -20.2 -3.25 -22.45 -3.45 -21.95 -4.1 -21.55 -4.15 -21.3 -4.15 Q-19.85 -4.35 -18.95 -5.0 L-18.35 -5.5" fill="#c47a1b" fill-rule="evenodd" stroke="none"/>
    <path d="M5.05 -7.85 L5.25 -8.0 5.6 -8.2 5.95 -7.6 7.5 -8.0 7.7 -7.7 Q8.15 -7.2 8.85 -7.2 L9.8 -7.45 10.15 -7.25 11.65 -6.2 11.3 -5.8 10.9 -5.5 Q9.9 -4.8 8.3 -4.65 L6.45 -4.7 5.5 -5.0 Q4.85 -5.3 4.55 -5.65 4.3 -6.0 4.3 -6.4 4.2 -7.2 5.05 -7.85 M0.1 -0.05 Q-0.3 0.55 -1.25 0.85 L-4.1 0.95 Q-5.65 0.55 -6.55 -0.45 -7.5 -1.4 -7.25 -2.4 L-7.2 -2.45 -7.2 -2.55 Q-7.05 -3.05 -6.5 -3.4 -6.2 -3.7 -5.7 -3.8 L-2.85 -3.9 Q-1.75 -3.65 -1.0 -3.05 -1.5 -2.9 -1.8 -2.4 L-2.05 -1.35 Q-2.05 -0.8 -1.55 -0.4 -1.05 0.0 -0.5 0.0 L0.1 -0.05" fill="#d28b20" fill-rule="evenodd" stroke="none"/>
    <path d="M16.8 -6.45 L16.75 -6.45 Q15.9 -5.35 14.8 -5.35 14.25 -5.35 13.9 -5.8 13.5 -6.25 13.5 -6.9 L13.55 -7.25 14.3 -7.5 Q15.2 -7.5 16.8 -6.45" fill="#cd9529" fill-rule="evenodd" stroke="none"/>
    <path d="M25.2 -6.4 L24.7 -6.35 23.7 -6.3 Q22.5 -6.3 21.35 -6.9 20.0 -7.6 20.0 -8.65 L20.35 -8.85 22.6 -9.35 24.5 -9.0 Q25.5 -8.0 25.5 -7.1 L25.5 -6.7 25.45 -6.6 25.3 -6.45 25.2 -6.4" fill="#eeab38" fill-rule="evenodd" stroke="none"/>
    <path d="M18.65 -6.05 L18.8 -6.1 19.2 -6.2 19.8 -6.25 19.95 -6.3 Q21.2 -6.35 21.65 -5.65 L21.85 -5.25 21.9 -5.05 21.9 -4.9 21.5 -3.9 21.4 -3.8 20.55 -2.7 20.35 -3.65 19.9 -4.6 19.05 -5.25 18.0 -5.45 16.9 -5.25 17.25 -5.45 Q17.95 -5.85 18.65 -6.05 M23.2 -9.9 L23.35 -9.85 Q24.45 -9.6 25.2 -9.0 L25.45 -8.8 25.7 -8.55 25.85 -8.45 Q26.6 -7.6 26.55 -6.8 L25.25 -6.4 25.2 -6.4 25.3 -6.45 25.45 -6.6 25.5 -6.7 25.5 -7.1 Q25.5 -8.0 24.5 -9.0 L24.3 -9.15 23.2 -9.9" fill="#ffde70" fill-rule="evenodd" stroke="none"/>
    <path d="M19.05 -5.25 L19.9 -4.6 20.35 -3.65 19.9 -3.25 Q18.95 -2.4 17.85 -2.4 16.85 -2.4 16.85 -3.25 16.85 -4.65 18.6 -5.25 L19.05 -5.25" fill="#eebd3f" fill-rule="evenodd" stroke="none"/>
    <path d="M-9.7 -21.15 L-9.65 -21.15 -8.9 -20.85 -9.4 -19.2 -9.6 -18.9 -10.8 -18.65 -10.15 -19.55 Q-9.7 -20.4 -9.7 -21.1 L-9.7 -21.15 M-21.15 -19.8 L-20.15 -19.7 -20.1 -19.7 -20.2 -19.55 -20.2 -19.3 Q-20.2 -17.6 -15.2 -17.6 L-14.35 -17.65 -14.8 -17.5 -15.05 -17.45 -19.9 -17.1 -20.0 -17.1 -20.35 -17.3 Q-21.5 -18.05 -21.5 -19.0 L-21.15 -19.8" fill="#d4cbb7" fill-rule="evenodd" stroke="none"/>
    <path d="M-11.15 -17.45 L-10.6 -16.55 -10.8 -16.55 -12.65 -16.35 -12.95 -17.0 -11.15 -17.45 M-7.8 -11.55 L-7.4 -10.85 -8.05 -10.95 Q-9.55 -10.95 -11.1 -9.95 L-11.2 -9.85 -11.95 -9.3 -12.15 -9.7 -12.35 -10.05 Q-10.9 -11.6 -8.05 -11.6 L-7.8 -11.55 M-15.4 -14.85 L-16.2 -16.0 -14.4 -16.5 -14.1 -16.65 -13.75 -16.0 -15.4 -14.85" fill="#7b6a67" fill-rule="evenodd" stroke="none"/>
    <path d="M-9.2 -14.05 L-8.6 -13.0 -10.45 -13.2 -11.35 -13.15 -11.75 -14.3 -11.8 -14.4 -11.15 -14.45 Q-10.15 -14.45 -9.2 -14.05 M-13.65 -12.1 L-14.15 -12.9 -13.5 -13.8 -12.6 -14.25 -11.7 -13.05 -12.85 -12.7 -13.65 -12.1" fill="#e0d2d0" fill-rule="evenodd" stroke="none"/>
    <path d="M-8.95 -10.45 L-8.15 -10.55 -7.55 -10.5 -6.75 -10.05 -6.75 -9.9 -6.75 -9.6 Q-6.85 -9.2 -7.25 -8.85 -7.8 -8.35 -8.65 -8.35 -9.05 -8.35 -9.5 -8.65 -10.0 -8.95 -10.0 -9.35 -10.0 -9.9 -9.4 -10.25 L-8.95 -10.45" fill="#ffe070" fill-rule="evenodd" stroke="none"/>
    <path d="M11.65 -6.2 L10.15 -7.25 9.8 -7.45 Q8.7 -8.0 7.5 -8.0 L5.95 -7.6 5.6 -8.2 7.3 -8.75 7.9 -8.85 10.65 -8.5 11.0 -8.35 11.85 -7.45 11.85 -7.4 11.9 -7.15 11.9 -7.1 11.9 -6.7 11.65 -6.2 M13.9 -8.2 L15.7 -8.05 Q16.65 -7.85 17.3 -7.35 L16.8 -6.45 Q15.2 -7.5 14.3 -7.5 L13.55 -7.25 13.9 -8.2 M18.9 -7.95 L19.05 -8.55 Q19.2 -9.05 19.7 -9.35 20.0 -9.65 20.5 -9.75 L20.6 -9.75 23.2 -9.9 24.3 -9.15 24.5 -9.0 22.6 -9.35 20.35 -8.85 20.0 -8.65 Q19.1 -8.15 19.1 -7.5 L19.15 -7.0 18.95 -7.65 18.9 -7.95 M26.55 -6.8 L26.5 -6.5 26.3 -6.0 Q25.9 -5.4 24.95 -5.1 L23.4 -4.8 24.65 -5.75 25.25 -6.4 26.55 -6.8" fill="#ffca48" fill-rule="evenodd" stroke="none"/>
    <path d="M-7.4 -10.85 L-6.85 -10.7 -5.95 -9.95 -5.9 -9.9 -5.85 -9.85 -5.7 -9.35 -5.7 -9.25 -6.45 -8.05 -6.45 -8.55 Q-6.45 -9.15 -6.75 -9.6 L-6.75 -9.9 -6.75 -10.05 -7.55 -10.5 -8.15 -10.55 -8.95 -10.45 -10.05 -10.2 -11.4 -9.35 -11.2 -9.85 -11.1 -9.95 Q-9.55 -10.95 -8.05 -10.95 L-7.4 -10.85" fill="#ffeca8" fill-rule="evenodd" stroke="none"/>
  </g>
  <defs>
    <radialGradient cx="0" cy="0" gradientTransform="matrix(0.0198, 0.0, 0.0, 0.0198, -21.5, -18.95)" gradientUnits="userSpaceOnUse" id="gradient0" r="819.2" spreadMethod="pad">
      <stop offset="0.09411764705882353" stop-color="#afa694"/>
      <stop offset="0.42745098039215684" stop-color="#958681"/>
      <stop offset="1.0" stop-color="#726355"/>
    </radialGradient>
    <radialGradient cx="0" cy="0" gradientTransform="matrix(0.0054, 0.0, 0.0, 0.0054, -19.9, -34.05)" gradientUnits="userSpaceOnUse" id="gradient1" r="819.2" spreadMethod="pad">
      <stop offset="0.09411764705882353" stop-color="#33185e"/>
      <stop offset="1.0" stop-color="#1a131a"/>
    </radialGradient>
    <radialGradient cx="0" cy="0" gradientTransform="matrix(0.005, 0.0, 0.0, 0.0152, -16.9, -23.75)" gradientUnits="userSpaceOnUse" id="gradient2" r="819.2" spreadMethod="pad">
      <stop offset="0.09411764705882353" stop-color="#5c545e"/>
      <stop offset="1.0" stop-color="#2c323c"/>
    </radialGradient>
    <radialGradient cx="0" cy="0" gradientTransform="matrix(0.0035, -9.0E-4, 0.0032, 0.0121, -15.3, -20.75)" gradientUnits="userSpaceOnUse" id="gradient3" r="819.2" spreadMethod="pad">
      <stop offset="0.09411764705882353" stop-color="#5c545e"/>
      <stop offset="1.0" stop-color="#2c323c"/>
    </radialGradient>
    <radialGradient cx="0" cy="0" gradientTransform="matrix(0.0063, 0.0, 0.0, 0.0098, -18.9, -27.8)" gradientUnits="userSpaceOnUse" id="gradient4" r="819.2" spreadMethod="pad">
      <stop offset="0.09411764705882353" stop-color="#5c545e"/>
      <stop offset="1.0" stop-color="#2c323c"/>
    </radialGradient>
  </defs>
</svg>
