<?xml version="1.0" encoding="UTF-8" standalone="no"?>
<svg xmlns:ffdec="https://www.free-decompiler.com/flash" xmlns:xlink="http://www.w3.org/1999/xlink" ffdec:objectType="shape" height="7.0px" width="7.0px" xmlns="http://www.w3.org/2000/svg">
  <g transform="matrix(1.0, 0.0, 0.0, 1.0, 3.5, 3.5)">
    <path d="M1.95 -1.95 Q2.75 -1.15 2.75 0.0 2.75 1.15 1.95 1.95 1.15 2.75 0.0 2.75 -1.15 2.75 -1.95 1.95 -2.75 1.15 -2.75 0.0 -2.75 -1.15 -1.95 -1.95 -1.15 -2.75 0.0 -2.75 1.15 -2.75 1.95 -1.95" fill="#c6aba6" fill-rule="evenodd" stroke="none"/>
    <path d="M1.95 -1.95 Q2.75 -1.15 2.75 0.0 2.75 1.15 1.95 1.95 1.15 2.75 0.0 2.75 -1.15 2.75 -1.95 1.95 -2.75 1.15 -2.75 0.0 -2.75 -1.15 -1.95 -1.95 -1.15 -2.75 0.0 -2.75 1.15 -2.75 1.95 -1.95 Z" fill="none" stroke="#3a3429" stroke-linecap="round" stroke-linejoin="bevel" stroke-width="1.5"/>
    <path d="M-2.7 0.35 L-2.15 0.85 -0.65 1.35 -0.3 1.8 0.4 2.05 Q1.05 2.05 1.45 1.6 L1.8 0.65 1.8 0.3 Q2.3 -0.35 2.3 -1.25 L2.3 -1.55 Q2.75 -0.85 2.75 0.0 2.75 1.15 1.95 1.95 1.15 2.75 0.0 2.75 -1.15 2.75 -1.95 1.95 -2.65 1.25 -2.7 0.35" fill="#c6aba6" fill-rule="evenodd" stroke="none"/>
    <path d="M-0.2 -1.55 L-0.15 -1.65 0.1 -1.55 0.05 -1.3 -0.2 -1.55 M0.85 -1.25 Q0.75 -0.85 0.1 -0.45 -0.6 0.0 -1.3 0.0 -2.05 0.0 -2.05 -0.55 -2.05 -1.15 -1.3 -1.7 L-0.65 -2.0 Q-1.0 -1.8 -1.0 -1.4 -1.0 -0.55 -0.1 -0.55 L0.7 -1.0 0.85 -1.25" fill="#f9dbe1" fill-rule="evenodd" stroke="none"/>
    <path d="M-0.65 1.35 L-0.7 1.1 Q-0.7 0.55 -0.3 0.1 0.15 -0.4 0.75 -0.4 L1.4 -0.15 1.65 0.05 1.8 0.2 1.8 0.3 1.8 0.65 1.45 1.6 Q1.05 2.05 0.4 2.05 L-0.3 1.8 -0.65 1.35" fill="#957d78" fill-rule="evenodd" stroke="none"/>
    <path d="M-0.2 -1.55 L0.05 -1.3 0.1 -1.55 -0.15 -1.65 -0.2 -1.55 M-0.65 -2.0 Q-0.45 -2.2 -0.05 -2.25 0.9 -2.4 0.9 -1.6 L0.85 -1.25 0.7 -1.0 -0.1 -0.55 Q-1.0 -0.55 -1.0 -1.4 -1.0 -1.8 -0.65 -2.0" fill="#ffecf0" fill-rule="evenodd" stroke="none"/>
    <path d="M-0.65 -2.0 L-1.3 -1.7 Q-2.05 -1.15 -2.05 -0.55 -2.05 0.0 -1.3 0.0 -0.6 0.0 0.1 -0.45 0.75 -0.85 0.85 -1.25 L0.9 -1.6 Q0.9 -2.4 -0.05 -2.25 -0.45 -2.2 -0.65 -2.0 M-2.7 0.35 L-2.75 0.0 Q-2.75 -1.15 -1.95 -1.95 -1.15 -2.75 0.0 -2.75 1.15 -2.75 1.95 -1.95 L2.3 -1.55 2.3 -1.25 Q2.3 -0.35 1.8 0.3 L1.8 0.2 1.65 0.05 1.4 -0.15 0.75 -0.4 Q0.15 -0.4 -0.3 0.1 -0.7 0.55 -0.7 1.1 L-0.65 1.35 -2.15 0.85 -2.7 0.35" fill="#d9c0bb" fill-rule="evenodd" stroke="none"/>
  </g>
</svg>
