<?xml version="1.0" encoding="UTF-8" standalone="no"?>
<svg xmlns:ffdec="https://www.free-decompiler.com/flash" xmlns:xlink="http://www.w3.org/1999/xlink" ffdec:objectType="shape" height="7.5px" width="8.2px" xmlns="http://www.w3.org/2000/svg">
  <g transform="matrix(1.0, 0.0, 0.0, 1.0, 4.1, 3.75)">
    <path d="M3.2 -1.15 Q3.6 0.0 2.95 1.15 2.35 2.15 1.3 2.6 L0.95 2.75 Q-0.4 3.25 -1.6 2.75 -2.8 2.3 -3.2 1.15 -3.6 0.0 -3.0 -1.15 -2.3 -2.25 -0.95 -2.75 0.35 -3.2 1.55 -2.75 2.8 -2.3 3.2 -1.15" fill="#460300" fill-rule="evenodd" stroke="none"/>
    <path d="M3.2 -1.15 Q3.6 0.0 2.95 1.15 2.35 2.15 1.3 2.6 L0.95 2.75 Q-0.4 3.25 -1.6 2.75 -2.8 2.3 -3.2 1.15 -3.6 0.0 -3.0 -1.15 -2.3 -2.25 -0.95 -2.75 0.35 -3.2 1.55 -2.75 2.8 -2.3 3.2 -1.15 Z" fill="none" stroke="#2e0503" stroke-linecap="round" stroke-linejoin="bevel" stroke-width="1.5"/>
    <path d="M-1.9 0.85 L-2.9 1.7 -3.2 1.15 Q-3.6 0.0 -3.0 -1.15 -2.3 -2.25 -0.95 -2.75 0.35 -3.2 1.55 -2.75 2.8 -2.3 3.2 -1.15 L3.3 -0.9 2.4 -0.75 Q2.0 -1.15 0.7 -1.15 -0.45 -1.15 -1.25 -0.4 -1.9 0.25 -1.9 0.85" fill="#460300" fill-rule="evenodd" stroke="none"/>
    <path d="M-1.9 0.85 L-1.9 0.9 Q-1.9 1.4 -1.4 1.85 L-0.35 2.25 1.0 2.05 1.95 1.3 Q2.5 0.6 2.5 -0.3 L2.5 -0.55 2.4 -0.7 2.4 -0.75 3.3 -0.9 Q3.55 0.1 2.95 1.15 2.35 2.15 1.3 2.6 L0.95 2.75 Q-0.4 3.25 -1.6 2.75 -2.5 2.4 -2.9 1.7 L-1.9 0.85" fill="#870f09" fill-rule="evenodd" stroke="none"/>
    <path d="M2.4 -0.75 L2.4 -0.7 2.5 -0.55 2.5 -0.3 Q2.5 0.6 1.95 1.3 L1.0 2.05 -0.35 2.25 -1.4 1.85 Q-1.9 1.4 -1.9 0.9 L-1.9 0.85 Q-1.9 0.25 -1.25 -0.4 -0.45 -1.15 0.7 -1.15 2.0 -1.15 2.4 -0.75" fill="#ec2117" fill-rule="evenodd" stroke="none"/>
    <path d="M1.1 -1.3 Q1.25 -0.8 0.9 -0.35 0.65 0.25 0.0 0.45 L-1.3 0.5 Q-1.85 0.35 -2.0 -0.15 -2.2 -0.65 -1.9 -1.15 L-0.9 -1.95 0.3 -2.0 Q0.9 -1.8 1.1 -1.3" fill="#ffffff" fill-rule="evenodd" stroke="none"/>
  </g>
</svg>
