<?xml version="1.0" encoding="UTF-8" standalone="no"?>
<svg xmlns:ffdec="https://www.free-decompiler.com/flash" xmlns:xlink="http://www.w3.org/1999/xlink" ffdec:objectType="shape" height="70.25px" width="85.75px" xmlns="http://www.w3.org/2000/svg">
  <g transform="matrix(1.0, 0.0, 0.0, 1.0, 43.85, 12.5)">
    <path d="M15.95 7.4 L15.85 7.05 Q15.35 5.7 15.35 4.4 15.35 2.25 16.6 1.35 L16.9 1.2 25.15 -2.95 Q26.2 -3.15 27.5 -2.45 L28.5 -1.8 30.05 -0.15 30.6 0.7 30.85 1.15 31.7 3.2 31.9 4.05 31.95 5.1 31.75 6.65 31.6 7.05 Q32.4 9.2 32.4 11.55 32.4 13.65 31.45 15.7 30.55 17.7 29.1 19.35 L28.7 19.75 Q28.45 21.95 26.25 22.75 L25.6 22.9 24.9 23.0 24.25 22.9 23.6 22.6 22.75 21.8 Q20.15 21.95 17.9 20.2 15.2 18.1 14.75 16.25 L14.65 15.8 Q14.3 14.1 14.55 12.0 L14.55 11.95 Q14.9 9.45 15.95 7.4 M19.55 11.7 Q19.2 12.55 19.25 13.8 19.25 15.1 20.55 16.3 L21.5 16.95 22.3 17.3 23.2 16.2 23.45 15.95 23.95 15.65 Q24.85 15.2 25.5 15.2 L26.7 15.4 26.9 15.5 27.5 14.25 27.7 12.25 27.7 11.6 Q27.6 10.45 27.2 9.9 L22.9 12.05 22.8 12.15 22.35 12.35 Q21.55 12.6 20.25 12.05 L19.55 11.7" fill="#ffe366" fill-rule="evenodd" stroke="none"/>
    <path d="M15.95 7.4 L15.85 7.05 Q15.35 5.7 15.35 4.4 15.35 2.25 16.6 1.35 L16.9 1.2 25.15 -2.95 Q26.2 -3.15 27.5 -2.45 L28.5 -1.8 30.05 -0.15 30.6 0.7 30.85 1.15 31.7 3.2 31.9 4.05 31.95 5.1 31.75 6.65 31.6 7.05 M28.7 19.75 Q28.45 21.95 26.25 22.75 L25.6 22.9 24.9 23.0 24.25 22.9 23.6 22.6 22.75 21.8 M14.55 12.0 L14.55 11.95 M19.55 11.7 L20.25 12.05 Q21.55 12.6 22.35 12.35 L22.8 12.15 22.9 12.05 27.2 9.9" fill="none" stroke="#592304" stroke-linecap="round" stroke-linejoin="bevel" stroke-width="1.5"/>
    <path d="M31.6 7.05 Q32.4 9.2 32.4 11.55 32.4 13.65 31.45 15.7 30.55 17.7 29.1 19.35 L28.7 19.75 M22.75 21.8 Q20.15 21.95 17.9 20.2 15.2 18.1 14.75 16.25 L14.65 15.8 Q14.3 14.1 14.55 12.0 M14.55 11.95 Q14.9 9.45 15.95 7.4 M27.2 9.9 Q27.6 10.45 27.7 11.6 L27.7 12.25 27.5 14.25 26.9 15.5 26.7 15.4 25.5 15.2 Q24.85 15.2 23.95 15.65 L23.45 15.95 23.2 16.2 22.3 17.3 21.5 16.95 20.55 16.3 Q19.25 15.1 19.25 13.8 19.2 12.55 19.55 11.7" fill="none" stroke="#191512" stroke-linecap="round" stroke-linejoin="bevel" stroke-width="1.5"/>
    <path d="M15.85 7.05 Q15.35 5.7 15.35 4.4 15.35 2.25 16.6 1.35 L16.9 1.2 18.7 1.1 19.8 1.55 Q21.5 2.4 22.7 4.35 22.05 4.5 21.55 5.0 L21.35 4.7 Q20.45 3.25 19.05 3.25 L18.4 3.35 17.85 3.8 17.55 4.05 17.3 4.4 16.05 6.65 15.85 7.05 M21.1 9.8 L21.2 10.2 21.6 11.6 Q21.9 12.05 22.8 12.15 L22.35 12.35 Q21.55 12.6 20.25 12.05 L20.75 10.6 20.9 10.05 21.1 9.8" fill="#8a4314" fill-rule="evenodd" stroke="none"/>
    <path d="M28.7 19.75 Q28.45 21.95 26.25 22.75 L25.6 22.9 24.9 23.0 24.25 22.9 25.0 22.2 Q25.65 21.4 25.9 20.4 26.7 19.5 27.4 19.3 L28.75 19.25 28.7 19.7 28.7 19.75 M23.2 16.2 L23.45 15.95 23.95 15.65 Q24.85 15.2 25.5 15.2 L26.7 15.4 26.9 15.5 27.2 15.65 27.6 16.0 27.85 16.3 27.65 16.5 Q26.75 17.55 25.8 17.55 L25.5 17.55 25.4 17.35 Q24.65 16.15 23.4 16.15 L23.2 16.2" fill="url(#gradient0)" fill-rule="evenodd" stroke="none"/>
    <path d="M31.7 3.2 L31.9 4.05 31.95 5.1 31.75 6.65 31.6 7.05 30.65 8.2 30.55 8.25 30.0 8.5 30.0 7.8 29.8 6.7 Q29.5 5.9 29.0 5.9 27.2 5.9 26.0 7.95 25.2 9.35 24.95 11.05 L22.9 12.05 Q23.85 11.5 24.15 10.25 24.85 9.3 24.9 8.15 24.95 6.1 25.8 5.3 L27.7 4.0 Q29.6 2.85 30.4 2.85 31.25 2.85 31.7 3.2 M16.9 1.2 L19.6 -0.15 21.45 0.4 Q23.15 1.0 23.8 1.0 24.8 1.0 25.6 0.6 26.4 0.2 26.4 -0.3 26.4 -1.55 25.05 -2.55 L24.75 -2.75 25.15 -2.95 Q26.2 -3.15 27.5 -2.45 L28.5 -1.8 Q28.3 -0.65 26.95 0.3 25.1 1.65 22.65 1.65 L21.75 1.6 20.7 1.35 19.05 1.05 18.7 1.1 16.9 1.2" fill="url(#gradient1)" fill-rule="evenodd" stroke="none"/>
    <path d="M30.7 12.6 L30.35 13.7 30.25 13.95 29.7 14.35 Q29.15 14.75 28.7 14.75 L28.25 14.7 27.5 14.25 27.7 12.25 27.7 11.6 28.05 11.35 28.6 11.3 29.65 11.4 Q30.35 11.65 30.7 12.6" fill="url(#gradient2)" fill-rule="evenodd" stroke="none"/>
    <path d="M14.55 12.0 L14.55 11.95 Q14.9 9.45 15.95 7.4 L17.65 4.85 17.85 4.6 Q18.4 3.8 18.9 3.8 19.6 3.8 20.15 4.5 L20.7 5.35 19.7 6.6 Q19.55 6.05 18.35 9.0 L18.2 9.25 16.7 9.3 Q14.8 9.95 14.8 11.2 L14.8 11.85 Q15.05 12.4 16.0 12.45 L15.55 12.55 Q15.2 12.55 14.55 12.0 M17.35 14.45 L17.4 14.65 17.45 14.95 17.4 14.7 17.35 14.45" fill="url(#gradient3)" fill-rule="evenodd" stroke="none"/>
    <path d="M30.0 8.5 L30.55 8.25 30.85 11.4 30.7 12.6 Q30.35 11.65 29.65 11.4 L28.6 11.3 28.05 11.35 27.7 11.6 Q27.6 10.45 27.2 9.9 L30.0 8.5 M30.25 13.95 L29.55 15.3 28.35 17.05 27.95 16.45 27.85 16.3 27.6 16.0 27.2 15.65 26.9 15.5 27.5 14.25 28.25 14.7 28.7 14.75 Q29.15 14.75 29.7 14.35 L30.25 13.95" fill="#3a3429" fill-rule="evenodd" stroke="none"/>
    <path d="M31.6 7.05 Q32.4 9.2 32.4 11.55 32.4 13.65 31.45 15.7 30.55 17.7 29.1 19.35 L28.7 19.75 28.7 19.7 28.75 19.25 28.75 19.15 Q28.7 17.8 28.45 17.25 L28.35 17.05 29.55 15.3 30.25 13.95 30.35 13.7 30.7 12.6 30.85 11.4 30.55 8.25 30.65 8.2 31.6 7.05" fill="#484134" fill-rule="evenodd" stroke="none"/>
    <path d="M28.5 -1.8 L30.05 -0.15 29.75 0.65 Q29.3 1.45 28.2 1.05 L26.75 2.15 Q25.85 2.85 24.7 2.85 23.8 2.85 21.75 1.6 L22.65 1.65 Q25.1 1.65 26.95 0.3 28.3 -0.65 28.5 -1.8 M30.85 1.15 L31.7 3.2 Q31.25 2.85 30.4 2.85 29.6 2.85 27.7 4.0 L25.8 5.3 Q24.95 6.1 24.9 8.15 24.85 9.3 24.15 10.25 L24.25 9.1 Q24.25 7.9 23.85 6.65 24.0 5.65 24.4 4.9 24.8 4.1 25.45 3.5 27.0 2.05 30.85 1.15 M28.35 17.05 L28.45 17.25 Q28.7 17.8 28.75 19.15 L28.75 19.25 27.4 19.3 Q26.7 19.5 25.9 20.4 L26.0 19.35 Q26.0 18.45 25.5 17.55 L25.8 17.55 Q26.75 17.55 27.65 16.5 L27.85 16.3 27.95 16.45 28.35 17.05" fill="#ffe366" fill-rule="evenodd" stroke="none"/>
    <path d="M30.05 -0.15 L30.6 0.7 30.85 1.15 Q27.0 2.05 25.45 3.5 24.8 4.1 24.4 4.9 24.0 5.65 23.85 6.65 L22.9 4.7 22.7 4.35 Q21.5 2.4 19.8 1.55 L18.7 1.1 19.05 1.05 20.7 1.35 21.75 1.6 Q23.8 2.85 24.7 2.85 25.85 2.85 26.75 2.15 L28.2 1.05 Q29.3 1.45 29.75 0.65 L30.05 -0.15" fill="#ffefaa" fill-rule="evenodd" stroke="none"/>
    <path d="M24.25 22.9 L23.6 22.6 22.75 21.8 23.0 21.8 23.95 21.4 Q24.55 21.1 24.6 20.15 L24.5 18.65 23.95 17.85 23.45 17.5 23.2 17.45 22.6 17.35 22.3 17.3 23.2 16.2 23.4 16.15 Q24.65 16.15 25.4 17.35 L25.5 17.55 Q26.0 18.45 26.0 19.35 L25.9 20.4 Q25.65 21.4 25.0 22.2 L24.25 22.9 M24.15 10.25 Q23.85 11.5 22.9 12.05 L22.8 12.15 Q21.9 12.05 21.6 11.6 L21.2 10.2 21.7 9.35 22.15 7.3 Q22.15 6.1 21.55 5.0 22.05 4.5 22.7 4.35 L22.9 4.7 23.85 6.65 Q24.25 7.9 24.25 9.1 L24.15 10.25" fill="#b36e27" fill-rule="evenodd" stroke="none"/>
    <path d="M19.6 -0.15 L24.75 -2.75 25.05 -2.55 Q26.4 -1.55 26.4 -0.3 26.4 0.2 25.6 0.6 24.8 1.0 23.8 1.0 23.15 1.0 21.45 0.4 L19.6 -0.15 M24.95 11.05 Q25.2 9.35 26.0 7.95 27.2 5.9 29.0 5.9 29.5 5.9 29.8 6.7 L30.0 7.8 30.0 8.5 27.2 9.9 24.95 11.05" fill="#cb8336" fill-rule="evenodd" stroke="none"/>
    <path d="M20.7 5.35 L20.95 5.75 21.0 5.85 Q21.65 7.05 21.5 8.4 L19.3 10.3 Q17.65 11.8 17.4 13.35 17.6 14.05 17.4 14.65 L17.35 14.45 17.35 14.35 17.15 13.15 17.25 12.1 16.45 12.75 Q16.05 13.0 16.55 12.4 L17.2 11.6 18.55 10.0 20.1 7.7 Q20.1 6.7 19.7 6.6 L20.7 5.35 M21.5 16.95 L22.3 17.3 22.6 17.35 22.15 17.55 21.5 16.95" fill="#92826d" fill-rule="evenodd" stroke="none"/>
    <path d="M21.5 8.4 L21.1 9.8 20.9 10.05 20.7 10.25 Q20.0 10.65 19.6 11.55 L19.55 11.7 Q19.2 12.55 19.25 13.8 19.25 15.1 20.55 16.3 L21.5 16.95 22.15 17.55 22.2 17.6 Q23.05 18.55 21.7 19.0 20.35 19.5 17.75 15.85 L17.7 15.7 17.45 14.95 17.4 14.65 Q17.6 14.05 17.4 13.35 17.65 11.8 19.3 10.3 L21.5 8.4" fill="#5d4a41" fill-rule="evenodd" stroke="none"/>
    <path d="M22.75 21.8 Q20.15 21.95 17.9 20.2 15.2 18.1 14.75 16.25 L14.65 15.8 Q15.1 16.15 15.95 16.15 16.6 16.15 17.1 15.35 L16.95 16.55 Q16.95 18.3 18.55 19.6 20.0 20.8 21.65 20.8 22.2 20.8 22.8 20.2 23.4 19.6 23.4 18.95 23.4 18.5 22.6 17.85 L22.2 17.6 22.15 17.55 22.6 17.35 23.2 17.45 23.45 17.5 23.95 17.85 24.5 18.65 24.6 20.15 Q24.55 21.1 23.95 21.4 L23.0 21.8 22.75 21.8" fill="#5b5b4e" fill-rule="evenodd" stroke="none"/>
    <path d="M22.2 17.6 L22.6 17.85 Q23.4 18.5 23.4 18.95 23.4 19.6 22.8 20.2 22.2 20.8 21.65 20.8 20.0 20.8 18.55 19.6 16.95 18.3 16.95 16.55 L17.1 15.35 17.1 15.3 17.25 15.0 17.5 15.35 17.7 15.7 17.75 15.85 Q20.35 19.5 21.7 19.0 23.05 18.55 22.2 17.6 M17.75 15.85 L17.45 15.3 17.5 15.35 17.55 15.5 17.75 15.85 17.55 15.5 17.5 15.35 17.45 15.3 17.75 15.85" fill="#87795d" fill-rule="evenodd" stroke="none"/>
    <path d="M14.65 15.8 Q14.3 14.1 14.55 12.0 15.2 12.55 15.55 12.55 L16.0 12.45 16.1 12.45 16.55 12.4 Q16.05 13.0 16.45 12.75 L17.25 12.1 17.15 13.15 17.35 14.35 17.35 14.45 17.4 14.7 17.45 14.95 17.7 15.7 17.5 15.35 17.25 15.0 17.1 15.3 17.1 15.35 Q16.6 16.15 15.95 16.15 15.1 16.15 14.65 15.8" fill="#8b7e6d" fill-rule="evenodd" stroke="none"/>
    <path d="M15.95 7.4 L15.85 7.05 16.05 6.65 17.3 4.4 17.55 4.05 17.85 3.8 18.4 3.35 19.05 3.25 Q20.45 3.25 21.35 4.7 L21.55 5.0 Q22.15 6.1 22.15 7.3 L21.7 9.35 21.2 10.2 21.1 9.8 21.5 8.4 Q21.65 7.05 21.0 5.85 L20.95 5.75 20.7 5.35 20.15 4.5 Q19.6 3.8 18.9 3.8 18.4 3.8 17.85 4.6 L17.65 4.85 15.95 7.4 M19.55 11.7 L19.6 11.55 Q20.0 10.65 20.7 10.25 L20.9 10.05 20.75 10.6 20.25 12.05 19.55 11.7" fill="#592304" fill-rule="evenodd" stroke="none"/>
    <path d="M16.0 12.45 Q15.05 12.4 14.8 11.85 L14.8 11.2 Q14.8 9.95 16.7 9.3 L18.2 9.25 18.35 9.0 Q19.55 6.05 19.7 6.6 20.1 6.7 20.1 7.7 L18.55 10.0 17.2 11.6 16.55 12.4 16.1 12.45 16.0 12.45" fill="#c4c3a4" fill-rule="evenodd" stroke="none"/>
    <path d="M-41.45 24.1 L-41.5 22.85 Q-41.65 18.8 -42.15 17.2 L-41.85 16.85 -41.15 16.1 -40.8 16.25 -40.8 15.7 -40.8 15.35 -40.8 11.65 -40.85 9.2 -40.95 7.4 -41.1 4.8 Q-41.65 -2.6 -43.1 -8.3 L-43.05 -8.3 -36.15 -11.75 -30.45 -8.9 -30.45 -5.25 -31.0 -5.55 -35.8 -3.15 Q-33.95 6.8 -34.35 17.95 L-4.9 32.6 -4.95 27.4 -5.0 24.85 -5.05 22.85 -5.1 19.8 -5.35 15.15 -5.55 12.85 -5.65 11.9 -6.0 9.05 1.05 5.55 8.45 9.25 7.75 12.65 Q7.35 14.4 7.1 16.1 L7.05 16.45 Q5.6 24.8 5.75 31.8 L5.8 32.8 32.55 19.5 Q32.65 10.05 33.8 -0.45 L29.9 -2.4 29.65 -5.6 34.85 -8.2 41.15 -5.05 39.85 3.2 39.75 4.15 Q39.2 8.3 38.95 11.9 38.7 15.2 38.75 18.0 L39.95 17.4 39.85 18.7 38.85 19.2 Q39.85 23.85 40.4 25.6 L34.45 28.4 Q22.1 34.35 9.65 40.8 L6.85 42.25 4.15 43.65 0.75 45.45 0.7 45.45 -3.65 43.1 -7.5 41.0 -9.7 39.85 Q-19.8 34.55 -29.95 29.6 L-35.9 26.75 -39.5 25.05 Q-40.45 24.55 -41.45 24.1 M-35.6 17.85 L-35.65 17.9 -35.6 17.95 -35.6 17.85 M-14.8 28.05 L-14.8 28.3 -14.7 28.3 -14.8 28.05" fill="#8a511a" fill-rule="evenodd" stroke="none"/>
    <path d="M-41.45 24.1 L-41.5 22.85 Q-41.65 18.8 -42.15 17.2 L-41.85 16.85 -41.15 16.1 -40.8 16.25 -40.8 15.7 -40.8 15.35 -40.8 11.65 -40.85 9.2 -40.95 7.4 -41.1 4.8 Q-41.65 -2.6 -43.1 -8.3 L-43.05 -8.3 -36.15 -11.75 -30.45 -8.9 -30.45 -5.25 -31.0 -5.55 -35.8 -3.15 Q-33.95 6.8 -34.35 17.95 L-4.9 32.6 -4.95 27.4 -5.0 24.85 -5.05 22.85 -5.1 19.8 -5.35 15.15 -5.55 12.85 -5.65 11.9 -6.0 9.05 1.05 5.55 8.45 9.25 7.75 12.65 Q7.35 14.4 7.1 16.1 L7.05 16.45 Q5.6 24.8 5.75 31.8 L5.8 32.8 32.55 19.5 Q32.65 10.05 33.8 -0.45 L29.9 -2.4 29.65 -5.6 34.85 -8.2 41.15 -5.05 39.85 3.2 39.75 4.15 Q39.2 8.3 38.95 11.9 38.7 15.2 38.75 18.0 L39.95 17.4 39.85 18.7 38.85 19.2 Q39.85 23.85 40.4 25.6 M0.75 45.45 L0.7 45.45 M-35.6 17.85 L-35.6 17.95 -35.65 17.9 -35.6 17.85 M-14.8 28.05 L-14.8 28.3 -14.7 28.3 -14.8 28.05" fill="none" stroke="#592304" stroke-linecap="round" stroke-linejoin="bevel" stroke-width="1.5"/>
    <path d="M40.4 25.6 L34.45 28.4 Q22.1 34.35 9.65 40.8 L6.85 42.25 4.15 43.65 0.75 45.45 M0.7 45.45 L-3.65 43.1 -7.5 41.0 -9.7 39.85 Q-19.8 34.55 -29.95 29.6 L-35.9 26.75 -39.5 25.05 Q-40.45 24.55 -41.45 24.1" fill="none" stroke="#191512" stroke-linecap="round" stroke-linejoin="bevel" stroke-width="1.5"/>
    <path d="M8.15 10.65 L7.75 12.65 Q7.35 14.4 7.1 16.1 L7.05 16.45 6.35 18.75 Q5.8 20.4 4.75 20.95 L4.3 20.3 3.55 23.1 Q2.85 25.15 1.75 25.15 L1.65 25.15 Q1.85 20.45 2.5 17.55 4.05 10.8 8.15 10.65 M5.75 31.8 L5.8 32.8 5.85 34.4 2.0 36.35 1.65 33.5 1.6 29.3 3.0 27.8 Q3.4 28.6 3.4 29.55 4.65 30.1 5.35 31.05 L5.75 31.8" fill="url(#gradient4)" fill-rule="evenodd" stroke="none"/>
    <path d="M40.7 -2.6 L39.85 3.2 39.75 4.15 38.3 5.8 Q36.85 7.9 35.95 8.4 L35.7 7.95 36.9 1.95 Q37.85 -1.0 40.7 -2.6 M38.95 11.9 L38.8 14.75 Q36.75 14.85 35.6 16.4 35.15 16.95 34.95 17.7 L35.1 12.95 35.35 12.55 Q36.1 11.5 37.7 11.5 38.45 11.5 38.95 11.9" fill="url(#gradient5)" fill-rule="evenodd" stroke="none"/>
    <path d="M33.1 -6.55 Q33.8 -7.2 34.5 -7.2 L34.7 -7.15 36.2 -6.5 Q37.85 -5.9 38.4 -4.75 L37.2 -4.15 35.85 -3.65 34.15 -4.1 Q32.45 -4.7 32.45 -5.55 32.45 -5.95 33.1 -6.55 M0.65 6.45 L1.25 6.5 Q1.4 6.85 3.25 7.9 4.95 9.05 4.95 9.85 4.95 11.3 1.65 11.3 L0.15 11.15 -0.75 10.7 Q-1.55 10.15 -2.75 8.4 -1.55 6.45 0.65 6.45 M-34.85 -10.1 L-34.3 -9.8 -34.15 -9.7 -33.9 -9.55 -34.15 -9.45 Q-34.25 -8.75 -34.95 -7.95 -36.0 -6.75 -37.35 -6.75 -38.3 -6.75 -39.25 -7.2 -40.5 -7.8 -40.55 -8.75 -37.5 -10.5 -36.4 -10.5 -35.75 -10.5 -34.85 -10.1" fill="#ffda5f" fill-rule="evenodd" stroke="none"/>
    <path d="M32.55 19.5 Q32.65 10.05 33.8 -0.45 L29.9 -2.4 29.65 -5.6 Q34.65 -0.55 35.65 -1.1 L35.3 2.3 35.1 4.1 34.45 12.3 34.35 14.45 Q34.2 17.4 34.2 20.3 L32.55 19.5" fill="#8a511a" fill-rule="evenodd" stroke="none"/>
    <path d="M-31.2 19.55 L-6.95 31.6 Q-6.45 32.7 -6.2 34.1 L-6.1 34.55 -7.25 34.0 -7.4 33.9 Q-7.9 31.8 -9.7 30.6 -10.75 29.95 -13.3 29.1 L-13.95 28.9 -17.0 27.35 Q-19.35 26.05 -20.55 25.6 L-24.8 23.75 -25.2 23.55 -27.75 22.25 Q-31.15 20.7 -34.2 20.55 L-36.1 19.6 -34.9 19.55 -32.65 19.4 -31.2 19.55 M-14.8 28.05 L-14.8 28.3 -14.7 28.3 -14.8 28.05" fill="#c0bea3" fill-rule="evenodd" stroke="none"/>
    <path d="M38.75 18.0 L39.95 17.4 39.85 18.7 38.85 19.2 32.15 22.6 31.7 21.9 30.65 21.85 Q29.4 21.85 27.5 22.55 24.95 23.45 21.2 25.5 14.55 29.15 13.1 32.1 L8.35 34.5 Q8.5 33.45 9.2 32.15 L10.25 30.6 32.55 19.5 34.2 20.3 35.2 19.8 38.75 18.0" fill="#867760" fill-rule="evenodd" stroke="none"/>
    <path d="M38.85 19.2 Q39.85 23.85 40.4 25.6 L34.45 28.4 Q34.45 26.85 34.0 26.25 33.5 25.6 32.1 25.6 30.25 25.6 23.6 28.6 17.4 31.35 16.4 32.2 14.75 33.6 10.3 35.55 7.45 37.65 6.85 42.25 L4.15 43.65 0.75 45.45 0.7 45.45 0.9 38.2 8.35 34.5 13.1 32.1 32.15 22.6 38.85 19.2" fill="#545348" fill-rule="evenodd" stroke="none"/>
    <path d="M34.45 28.4 Q22.1 34.35 9.65 40.8 L6.85 42.25 Q7.45 37.65 10.3 35.55 14.75 33.6 16.4 32.2 17.4 31.35 23.6 28.6 30.25 25.6 32.1 25.6 33.5 25.6 34.0 26.25 34.45 26.85 34.45 28.4" fill="#705d4e" fill-rule="evenodd" stroke="none"/>
    <path d="M0.7 45.45 L-3.65 43.1 -7.5 41.0 Q-7.15 40.05 -7.15 39.55 -7.15 36.2 -10.8 33.6 -12.85 32.1 -17.9 30.0 L-24.15 26.4 Q-26.85 24.9 -28.8 24.05 -31.3 22.95 -32.45 22.95 -33.6 22.95 -34.85 24.7 L-35.9 26.75 -39.5 25.05 Q-40.45 24.55 -41.45 24.1 L-41.5 22.85 Q-41.65 18.8 -42.15 17.2 L-41.85 16.85 -36.1 19.6 -34.2 20.55 -27.7 23.7 Q-17.6 28.65 -7.4 33.9 L-7.25 34.0 -6.1 34.55 0.6 38.05 0.9 38.2 0.7 45.45" fill="#806e5b" fill-rule="evenodd" stroke="none"/>
    <path d="M-7.5 41.0 L-9.7 39.85 Q-19.8 34.55 -29.95 29.6 L-35.9 26.75 -34.85 24.7 Q-33.6 22.95 -32.45 22.95 -31.3 22.95 -28.8 24.05 -26.85 24.9 -24.15 26.4 L-17.9 30.0 Q-12.85 32.1 -10.8 33.6 -7.15 36.2 -7.15 39.55 -7.15 40.05 -7.5 41.0" fill="#978775" fill-rule="evenodd" stroke="none"/>
    <path d="M-30.45 -8.9 L-30.45 -5.25 -31.0 -5.55 -35.8 -3.15 Q-33.95 6.8 -34.35 17.95 L-35.6 18.75 -35.6 17.95 -35.6 17.85 Q-35.55 6.35 -36.95 -2.85 L-37.35 -5.45 -30.45 -8.9" fill="#a36a2e" fill-rule="evenodd" stroke="none"/>
    <path d="M29.65 -5.6 L34.85 -8.2 41.15 -5.05 36.8 -2.85 35.95 -2.4 35.85 -2.45 35.65 -1.1 Q34.65 -0.55 29.65 -5.6 M-43.05 -8.3 L-36.15 -11.75 -30.45 -8.9 -37.35 -5.45 -38.3 -5.9 -43.05 -8.3 M-6.0 9.05 L1.05 5.55 8.45 9.25 1.4 12.75 0.35 12.2 Q-2.85 10.65 -6.0 9.05 M33.1 -6.55 Q32.45 -5.95 32.45 -5.55 32.45 -4.7 34.15 -4.1 L35.85 -3.65 37.2 -4.15 38.4 -4.75 Q37.85 -5.9 36.2 -6.5 L34.7 -7.15 34.5 -7.2 Q33.8 -7.2 33.1 -6.55 M0.65 6.45 Q-1.55 6.45 -2.75 8.4 -1.55 10.15 -0.75 10.7 L0.15 11.15 1.65 11.3 Q4.95 11.3 4.95 9.85 4.95 9.05 3.25 7.9 1.4 6.85 1.25 6.5 L0.65 6.45 M-34.85 -10.1 Q-35.75 -10.5 -36.4 -10.5 -37.5 -10.5 -40.55 -8.75 -40.5 -7.8 -39.25 -7.2 -38.3 -6.75 -37.35 -6.75 -36.0 -6.75 -34.95 -7.95 -34.25 -8.75 -34.15 -9.45 L-33.9 -9.55 -34.15 -9.7 -34.3 -9.8 -34.85 -10.1" fill="#fff298" fill-rule="evenodd" stroke="none"/>
    <path d="M-4.9 32.6 L-4.95 27.4 Q-4.15 26.25 -3.8 26.25 -3.5 26.25 -2.95 27.15 L-2.3 28.45 -1.4 28.2 -0.75 30.75 -0.2 33.35 0.1 35.25 0.6 35.15 0.65 35.3 0.7 36.1 0.8 36.95 0.65 36.9 -4.9 34.1 -4.9 32.6 M-5.1 19.8 L-5.35 15.15 -5.55 12.85 -5.65 11.9 -6.0 9.05 Q-2.85 10.65 0.35 12.2 0.7 14.1 0.45 16.3 0.2 18.35 -0.55 20.1 L-1.2 21.4 -2.3 19.85 -3.25 21.2 -4.3 22.3 -5.1 19.8" fill="url(#gradient6)" fill-rule="evenodd" stroke="none"/>
    <path d="M-40.8 16.25 L-40.8 15.7 -40.8 15.35 -40.8 11.65 -40.1 11.5 -39.3 11.6 -38.8 13.05 -38.7 13.1 -38.6 13.25 -38.6 12.8 Q-37.7 13.2 -37.05 14.6 -36.45 15.8 -36.3 16.8 L-36.2 18.45 -40.8 16.25 M-41.1 4.8 Q-41.65 -2.6 -43.1 -8.3 L-43.05 -8.3 -38.3 -5.9 Q-36.85 -0.95 -36.85 2.6 L-36.95 3.5 -37.15 3.9 -37.7 4.25 -39.25 1.85 Q-39.7 4.9 -40.65 4.9 L-41.1 4.8" fill="url(#gradient7)" fill-rule="evenodd" stroke="none"/>
    <path d="M39.75 4.15 Q39.2 8.3 38.95 11.9 38.45 11.5 37.7 11.5 36.1 11.5 35.35 12.55 L35.1 12.95 34.95 17.7 35.05 18.45 35.2 19.8 34.2 20.3 Q34.2 17.4 34.35 14.45 L34.45 12.3 35.1 4.1 35.3 2.3 35.65 -1.1 35.85 -2.45 35.95 -2.4 36.8 -2.85 Q36.15 -0.1 35.9 3.25 L35.5 7.5 35.7 7.95 35.95 8.4 Q36.85 7.9 38.3 5.8 L39.75 4.15" fill="#cd9f2d" fill-rule="evenodd" stroke="none"/>
    <path d="M7.05 16.45 Q5.6 24.8 5.75 31.8 L5.35 31.05 Q4.65 30.1 3.4 29.55 3.4 28.6 3.0 27.8 L1.6 29.3 1.6 28.55 1.65 25.15 1.75 25.15 Q2.85 25.15 3.55 23.1 L4.3 20.3 4.75 20.95 Q5.8 20.4 6.35 18.75 L7.05 16.45" fill="#d0933d" fill-rule="evenodd" stroke="none"/>
    <path d="M1.4 12.75 L0.9 17.0 0.8 18.15 0.55 20.75 Q0.1 26.75 0.4 31.95 L0.6 35.15 0.1 35.25 -0.2 33.35 -0.75 30.75 -0.75 29.1 -0.5 27.55 -0.45 27.3 -0.3 24.9 -0.35 24.05 -0.35 23.8 -0.55 20.1 Q0.2 18.35 0.45 16.3 0.7 14.1 0.35 12.2 L1.4 12.75 M-37.35 -5.45 L-36.95 -2.85 Q-35.55 6.35 -35.6 17.85 L-35.65 17.9 -35.6 17.95 -35.6 18.75 -36.2 18.45 -36.3 16.8 -36.65 11.7 -37.05 5.8 -37.15 3.9 -36.95 3.5 -36.85 2.6 Q-36.85 -0.95 -38.3 -5.9 L-37.35 -5.45" fill="#ffe56d" fill-rule="evenodd" stroke="none"/>
    <path d="M-40.8 11.65 L-40.85 9.2 Q-40.0 9.4 -38.85 10.25 L-38.05 10.85 -37.5 10.85 -36.65 11.7 -36.3 16.8 Q-36.45 15.8 -37.05 14.6 -37.7 13.2 -38.6 12.8 L-38.6 13.25 -38.7 13.1 -38.8 13.05 -39.3 11.6 -40.1 11.5 -40.8 11.65 M-40.95 7.4 L-41.1 4.8 -40.65 4.9 Q-39.7 4.9 -39.25 1.85 L-37.7 4.25 -37.15 3.9 -37.05 5.8 -37.4 6.55 Q-38.3 8.2 -39.45 8.2 -40.1 8.2 -40.95 7.4 M-4.95 27.4 L-5.0 24.85 -4.8 24.75 -3.95 24.7 Q-3.3 24.7 -2.1 25.65 -1.0 26.45 -0.45 27.3 L-0.5 27.55 -0.75 29.1 -0.75 30.75 -1.4 28.2 -2.3 28.45 -2.95 27.15 Q-3.5 26.25 -3.8 26.25 -4.15 26.25 -4.95 27.4 M-5.05 22.85 L-5.1 19.8 -4.3 22.3 -3.25 21.2 -2.3 19.85 -1.2 21.4 -0.55 20.1 -0.35 23.8 Q-0.45 23.3 -0.75 22.95 -1.1 22.5 -1.6 22.5 L-2.75 23.05 -4.05 23.6 -4.8 23.1 -5.05 22.85" fill="#ffe987" fill-rule="evenodd" stroke="none"/>
    <path d="M13.1 32.1 Q14.55 29.15 21.2 25.5 24.95 23.45 27.5 22.55 29.4 21.85 30.65 21.85 L31.7 21.9 32.15 22.6 13.1 32.1" fill="#a1927c" fill-rule="evenodd" stroke="none"/>
    <path d="M5.8 32.8 L10.25 30.6 9.2 32.15 Q8.5 33.45 8.35 34.5 L0.9 38.2 0.6 38.05 0.65 36.9 0.8 36.95 2.0 36.35 5.85 34.4 5.8 32.8" fill="#7b6d57" fill-rule="evenodd" stroke="none"/>
    <path d="M-34.2 20.55 Q-31.15 20.7 -27.75 22.25 L-25.2 23.55 -26.8 23.5 -27.7 23.7 -34.2 20.55" fill="#d4d3b9" fill-rule="evenodd" stroke="none"/>
    <path d="M-41.85 16.85 L-41.15 16.1 -40.8 16.25 -36.2 18.45 -35.6 18.75 -34.35 17.95 -31.2 19.55 -32.65 19.4 -34.9 19.55 -36.1 19.6 -41.85 16.85 M-6.95 31.6 L-4.9 32.6 -4.9 34.1 0.65 36.9 0.6 38.05 -6.1 34.55 -6.2 34.1 Q-6.45 32.7 -6.95 31.6" fill="#a8a68e" fill-rule="evenodd" stroke="none"/>
    <path d="M-40.85 9.2 L-40.95 7.4 Q-40.1 8.2 -39.45 8.2 -38.3 8.2 -37.4 6.55 L-37.05 5.8 -36.65 11.7 -37.5 10.85 -38.05 10.85 -38.85 10.25 Q-40.0 9.4 -40.85 9.2 M-5.0 24.85 L-5.05 22.85 -4.8 23.1 -4.05 23.6 -2.75 23.05 -1.6 22.5 Q-1.1 22.5 -0.75 22.95 -0.45 23.3 -0.35 23.8 L-0.35 24.05 -0.3 24.9 -0.45 27.3 Q-1.0 26.45 -2.1 25.65 -3.3 24.7 -3.95 24.7 L-4.8 24.75 -5.0 24.85" fill="#ffefaa" fill-rule="evenodd" stroke="none"/>
    <path d="M-25.2 23.55 L-24.8 23.75 -20.55 25.6 Q-19.35 26.05 -17.0 27.35 L-13.95 28.9 -13.3 29.1 Q-10.75 29.95 -9.7 30.6 -7.9 31.8 -7.4 33.9 -17.6 28.65 -27.7 23.7 L-26.8 23.5 -25.2 23.55" fill="#e9e8ce" fill-rule="evenodd" stroke="none"/>
    <path d="M41.15 -5.05 L40.7 -2.6 Q37.85 -1.0 36.9 1.95 L35.7 7.95 35.5 7.5 35.9 3.25 Q36.15 -0.1 36.8 -2.85 L41.15 -5.05 M38.8 14.75 L38.75 18.0 35.2 19.8 35.05 18.45 34.95 17.7 Q35.15 16.95 35.6 16.4 36.75 14.85 38.8 14.75 M8.45 9.25 L8.15 10.65 Q4.05 10.8 2.5 17.55 1.85 20.45 1.65 25.15 L1.6 28.55 1.6 29.3 1.65 33.5 2.0 36.35 0.8 36.95 0.7 36.1 0.65 35.3 0.6 35.15 0.4 31.95 Q0.1 26.75 0.55 20.75 L0.8 18.15 0.9 17.0 1.4 12.75 8.45 9.25" fill="#9a5813" fill-rule="evenodd" stroke="none"/>
    <path d="M5.05 36.75 Q6.0 37.8 6.35 40.2 L6.35 40.4 6.15 41.65 6.0 41.95 4.6 43.2 4.6 43.5 4.65 43.7 8.45 41.75 8.85 41.85 9.1 41.95 9.5 42.05 10.35 42.8 Q10.95 43.65 10.95 44.8 10.95 46.15 10.25 47.15 9.45 48.25 8.3 48.25 L7.8 48.0 7.25 48.8 7.1 49.1 7.4 49.2 Q7.7 49.3 8.0 49.55 L8.2 49.7 8.25 49.75 Q8.95 50.45 8.95 51.15 L8.9 51.55 8.85 51.75 9.0 51.9 9.05 51.95 Q9.55 52.65 9.45 53.55 L9.4 53.75 8.0 53.35 7.5 53.1 6.85 53.35 6.5 53.4 5.85 53.25 Q5.8 53.9 5.3 54.3 L4.9 54.5 4.85 55.15 4.8 55.75 4.7 56.2 3.7 55.45 3.5 55.25 3.35 55.1 3.3 55.1 2.75 55.05 Q2.1 54.9 1.7 54.4 L1.3 53.7 1.0 54.45 -0.2 55.2 -0.45 55.25 -0.7 55.25 -1.35 56.2 -2.1 56.85 -2.35 57.0 -2.55 56.3 -2.65 54.7 -3.2 54.25 -3.35 54.0 -3.5 53.6 -3.85 53.7 -4.5 53.85 -4.75 53.85 -5.7 53.55 -5.85 53.6 -7.3 54.3 -7.3 54.15 -7.0 52.55 -7.3 51.85 -7.35 51.4 Q-7.35 50.35 -6.7 49.7 L-6.25 49.35 -6.05 49.25 -5.75 49.15 -6.1 48.75 -6.3 48.45 -6.85 47.65 -7.35 47.9 Q-8.5 47.9 -9.3 46.8 -10.0 45.8 -10.0 44.45 -10.0 43.3 -9.4 42.45 L-8.8 41.85 -8.4 41.65 -7.6 41.3 -3.8 43.3 -3.8 43.25 -4.7 42.4 -5.0 41.95 -5.1 41.65 -5.25 40.65 Q-5.35 39.65 -5.0 38.75 -4.55 37.45 -3.7 36.6 L-3.55 36.45 -3.3 36.2 Q-2.6 35.55 -2.45 35.75 L1.25 35.6 Q4.05 35.6 5.0 36.7 L5.05 36.75" fill="#ffed9a" fill-rule="evenodd" stroke="none"/>
    <path d="M5.05 36.75 Q6.0 37.8 6.35 40.2 L6.35 40.4 6.15 41.65 6.0 41.95 4.6 43.2 4.6 43.5 4.65 43.7 8.45 41.75 8.85 41.85 9.1 41.95 9.5 42.05 10.35 42.8 Q10.95 43.65 10.95 44.8 10.95 46.15 10.25 47.15 9.45 48.25 8.3 48.25 L7.8 48.0 7.25 48.8 7.1 49.1 7.4 49.2 Q7.7 49.3 8.0 49.55 L8.2 49.7 8.25 49.75 Q8.95 50.45 8.95 51.15 L8.9 51.55 8.85 51.75 9.0 51.9 9.05 51.95 Q9.55 52.65 9.45 53.55 L9.4 53.75 8.0 53.35 7.5 53.1 6.85 53.35 6.5 53.4 5.85 53.25 Q5.8 53.9 5.3 54.3 L4.9 54.5 4.85 55.15 4.8 55.75 4.7 56.2 3.7 55.45 3.5 55.25 3.35 55.1 3.3 55.1 2.75 55.05 Q2.1 54.9 1.7 54.4 L1.3 53.7 1.0 54.45 -0.2 55.2 -0.45 55.25 -0.7 55.25 -1.35 56.2 -2.1 56.85 -2.35 57.0 -2.55 56.3 -2.65 54.7 -3.2 54.25 -3.35 54.0 -3.5 53.6 -3.85 53.7 -4.5 53.85 -4.75 53.85 -5.7 53.55 -5.85 53.6 -7.3 54.3 -7.3 54.15 -7.0 52.55 -7.3 51.85 -7.35 51.4 Q-7.35 50.35 -6.7 49.7 L-6.25 49.35 -6.05 49.25 -5.75 49.15 -6.1 48.75 -6.3 48.45 -6.85 47.65 -7.35 47.9 Q-8.5 47.9 -9.3 46.8 -10.0 45.8 -10.0 44.45 -10.0 43.3 -9.4 42.45 L-8.8 41.85 -8.4 41.65 -7.6 41.3 -3.8 43.3 -3.8 43.25 -4.7 42.4 -5.0 41.95 -5.1 41.65 -5.25 40.65 Q-5.35 39.65 -5.0 38.75 -4.55 37.45 -3.7 36.6 L-3.55 36.45 -3.3 36.2 Q-2.6 35.55 -2.45 35.75 L1.25 35.6 Q4.05 35.6 5.0 36.7 L5.05 36.75 Z" fill="none" stroke="#592304" stroke-linecap="round" stroke-linejoin="bevel" stroke-width="1.5"/>
    <path d="M9.1 41.95 L9.5 42.05 10.35 42.8 Q10.95 43.65 10.95 44.8 10.95 46.15 10.25 47.15 9.45 48.25 8.3 48.25 L7.8 48.0 Q7.5 47.75 7.5 47.3 7.5 46.55 7.95 45.85 L7.8 46.4 Q7.8 47.3 8.55 47.3 9.2 47.3 9.55 46.55 L9.75 45.6 9.45 45.15 Q9.35 44.45 8.4 44.45 7.7 44.45 7.2 45.25 6.65 46.0 6.65 47.0 L6.75 48.0 7.25 48.8 7.1 49.1 6.85 49.05 Q6.1 48.55 5.5 47.05 L5.35 46.75 5.25 46.5 6.0 44.6 Q7.15 41.9 8.75 41.9 L9.1 41.95 M-5.75 49.15 L-6.1 48.75 -6.3 48.45 -5.8 47.65 -5.7 46.65 Q-5.7 45.65 -6.25 44.9 -6.75 44.1 -7.45 44.1 -8.4 44.1 -8.5 44.8 L-8.5 44.85 -8.5 44.95 -8.6 45.25 -8.6 45.35 Q-8.6 46.05 -8.1 46.5 -7.65 46.9 -7.25 46.9 -6.75 46.9 -6.55 46.6 L-6.55 46.95 Q-6.55 47.4 -6.85 47.65 L-7.35 47.9 Q-8.5 47.9 -9.3 46.8 -10.0 45.8 -10.0 44.45 -10.0 43.3 -9.4 42.45 L-8.8 41.85 -8.4 41.65 -7.8 41.55 Q-6.2 41.55 -5.05 44.25 L-4.55 45.6 -4.25 46.55 -4.35 47.0 -4.75 49.0 -4.85 49.0 -5.75 49.15" fill="#b76b28" fill-rule="evenodd" stroke="none"/>
    <path d="M4.65 43.7 L8.45 41.75 8.85 41.85 9.1 41.95 8.75 41.9 Q7.15 41.9 6.0 44.6 L5.25 46.5 4.9 45.3 Q4.7 44.6 4.65 43.9 L4.65 43.7 M7.8 48.0 L7.25 48.8 6.75 48.0 6.65 47.0 Q6.65 46.0 7.2 45.25 7.7 44.45 8.4 44.45 9.35 44.45 9.45 45.15 L9.25 45.05 9.1 45.05 Q8.45 45.05 7.95 45.85 7.5 46.55 7.5 47.3 7.5 47.75 7.8 48.0 M-6.3 48.45 L-6.85 47.65 Q-6.55 47.4 -6.55 46.95 L-6.55 46.6 -7.0 45.5 Q-7.5 44.7 -8.15 44.7 L-8.3 44.7 -8.45 44.8 -8.5 44.8 Q-8.4 44.1 -7.45 44.1 -6.75 44.1 -6.25 44.9 -5.7 45.65 -5.7 46.65 L-5.8 47.65 -6.3 48.45 M-8.4 41.65 L-7.6 41.3 -3.8 43.3 -3.95 44.1 -4.2 46.0 -4.25 46.55 -4.55 45.6 -5.05 44.25 Q-6.2 41.55 -7.8 41.55 L-8.4 41.65" fill="#64360d" fill-rule="evenodd" stroke="none"/>
    <path d="M4.6 43.5 L4.65 43.7 4.3 43.95 4.25 43.95 4.2 44.0 Q3.8 44.35 3.8 45.55 3.8 46.45 4.3 48.1 L4.85 49.65 4.45 50.1 4.45 50.2 3.9 48.6 Q3.6 47.25 3.6 46.05 3.6 43.9 4.6 43.5" fill="#935810" fill-rule="evenodd" stroke="none"/>
    <path d="M7.1 49.1 L7.4 49.2 Q7.7 49.3 8.0 49.55 L8.2 49.7 8.3 49.85 8.45 50.45 8.25 51.1 7.65 50.95 Q7.15 50.95 6.85 51.35 L6.8 51.4 Q6.5 51.8 6.5 52.3 L6.35 52.3 6.0 52.25 5.9 52.2 Q5.6 50.5 4.45 50.1 L4.85 49.65 4.3 48.1 Q3.8 46.45 3.8 45.55 3.8 44.35 4.2 44.0 L4.25 43.95 4.3 43.95 4.55 43.85 4.65 43.9 Q4.7 44.6 4.9 45.3 L5.25 46.5 5.35 46.75 5.5 47.05 Q6.1 48.55 6.85 49.05 L7.1 49.1 M8.85 51.75 L9.0 51.9 9.05 51.95 Q9.55 52.65 9.45 53.55 L8.3 53.05 7.2 51.9 7.0 51.6 7.2 51.35 7.5 51.15 7.55 51.15 8.15 51.25 8.85 51.75 M1.15 52.15 L1.25 51.55 1.5 51.15 1.6 51.05 1.8 50.85 1.6 48.65 Q1.6 45.15 2.8 45.15 L3.15 45.2 3.3 47.55 Q3.4 49.6 4.1 50.45 L4.45 50.6 4.55 50.65 4.85 50.9 5.15 51.25 5.5 51.95 5.0 52.9 4.75 53.15 Q4.35 52.85 3.8 52.85 L2.95 53.05 2.8 53.25 2.6 53.65 Q2.05 53.6 1.8 53.35 1.5 53.05 1.15 52.15 M8.8 52.4 Q8.8 51.95 8.2 51.55 L8.0 51.45 Q7.55 51.2 7.55 51.75 L7.8 52.3 8.45 52.75 8.8 52.4 M4.1 50.9 L3.25 50.75 Q2.15 50.75 1.9 51.25 1.75 51.45 1.75 51.7 1.75 52.15 2.2 52.45 L3.0 52.7 Q3.65 52.7 4.15 52.3 L4.6 51.6 4.6 51.5 4.45 51.15 4.25 51.0 4.1 50.9 M4.05 53.45 L4.0 53.4 Q3.55 53.05 3.55 53.65 L3.65 54.25 Q3.8 54.75 4.2 54.75 L4.55 54.6 4.55 54.4 Q4.55 53.95 4.05 53.45" fill="#e29d37" fill-rule="evenodd" stroke="none"/>
    <path d="M-3.8 43.3 L-3.8 43.25 -2.15 44.05 -1.85 44.1 0.85 44.35 0.8 47.45 Q0.8 50.55 1.1 52.55 L0.85 52.2 0.5 51.7 0.05 51.2 -0.05 51.1 0.05 49.45 Q0.05 45.3 -1.4 45.3 -1.7 45.3 -1.9 45.45 L-1.9 45.75 -1.95 47.0 -2.0 48.15 -2.35 50.95 -2.65 50.45 -2.85 50.2 -3.25 49.75 -3.3 49.7 -3.1 48.65 -2.85 46.65 Q-2.85 44.1 -3.9 44.1 L-3.95 44.1 -3.8 43.3" fill="#a16419" fill-rule="evenodd" stroke="none"/>
    <path d="M9.45 45.15 L9.75 45.6 9.55 46.55 Q9.2 47.3 8.55 47.3 7.8 47.3 7.8 46.4 L7.95 45.85 Q8.45 45.05 9.1 45.05 L9.25 45.05 9.45 45.15 M-8.5 44.8 L-8.45 44.8 -8.3 44.7 -8.15 44.7 Q-7.5 44.7 -7.0 45.5 L-6.55 46.6 Q-6.75 46.9 -7.25 46.9 -7.65 46.9 -8.1 46.5 -8.6 46.05 -8.6 45.35 L-8.6 45.25 -8.5 44.95 -8.5 44.85 -8.5 44.8" fill="#d78c23" fill-rule="evenodd" stroke="none"/>
    <path d="M8.2 49.7 L8.25 49.75 Q8.95 50.45 8.95 51.15 L8.9 51.55 8.25 51.1 8.45 50.45 8.3 49.85 8.2 49.7 M9.45 53.55 L9.4 53.75 8.0 53.35 7.5 53.1 Q6.95 52.65 6.9 52.15 L6.9 52.1 7.0 51.6 7.2 51.9 8.3 53.05 9.45 53.55 M6.85 53.35 L6.5 53.4 5.85 53.25 Q5.8 53.9 5.3 54.3 L4.75 53.15 5.0 52.9 5.5 51.95 5.5 51.9 5.5 51.5 5.15 51.25 4.85 50.9 4.55 50.65 4.45 50.6 4.4 50.35 4.45 50.2 4.45 50.1 Q5.6 50.5 5.9 52.2 L6.0 52.25 6.35 52.3 6.5 52.3 Q6.5 53.0 6.85 53.35 M2.75 55.05 Q2.1 54.9 1.7 54.4 L1.3 53.7 1.15 53.05 1.1 52.6 1.1 52.55 1.1 52.35 1.15 52.15 Q1.5 53.05 1.8 53.35 2.05 53.6 2.6 53.65 L2.5 54.0 2.75 55.05" fill="#a64f18" fill-rule="evenodd" stroke="none"/>
    <path d="M-3.7 36.6 L-3.55 36.45 -3.3 36.2 Q-2.6 35.55 -2.45 35.75 L1.25 35.6 Q4.05 35.6 5.0 36.7 L3.95 37.65 0.45 38.15 Q-3.8 38.15 -3.8 36.8 L-3.7 36.6 M6.35 40.4 L6.15 41.65 4.15 40.95 -0.2 40.65 Q-2.8 40.65 -5.1 41.65 L-5.25 40.65 Q-4.55 40.1 -3.05 39.85 L0.8 39.7 5.05 39.9 6.35 40.4 M-6.25 49.35 L-6.05 49.25 -5.75 49.15 -4.85 49.0 -4.75 49.0 -4.55 49.05 -4.25 49.15 -3.3 49.7 -3.25 49.75 -2.85 50.2 -2.7 50.45 -3.35 50.95 -3.35 50.75 -3.35 50.55 -3.45 50.25 -3.8 49.85 Q-4.3 49.4 -5.35 49.4 -6.15 49.4 -6.15 50.2 -6.15 50.65 -5.6 51.1 L-5.85 51.05 -6.35 51.15 -6.7 50.45 -6.25 49.35 M8.8 52.4 L8.45 52.75 7.8 52.3 7.55 51.75 Q7.55 51.2 8.0 51.45 L8.2 51.55 Q8.8 51.95 8.8 52.4 M6.4 49.6 Q5.35 49.65 5.35 50.3 5.35 51.25 6.15 51.25 6.8 51.25 7.25 50.9 L7.65 50.25 7.3 49.7 6.95 49.65 6.8 49.6 Q7.2 49.7 7.2 50.2 7.2 50.75 6.55 50.75 6.15 50.75 6.0 50.5 L5.9 50.2 6.4 49.6 6.8 49.6 6.4 49.6 5.9 50.2 6.0 50.5 Q6.15 50.75 6.55 50.75 7.2 50.75 7.2 50.2 7.2 49.7 6.8 49.6 L6.95 49.65 7.3 49.7 7.65 50.25 7.25 50.9 Q6.8 51.25 6.15 51.25 5.35 51.25 5.35 50.3 5.35 49.65 6.4 49.6 M4.1 50.9 L4.25 51.0 4.45 51.15 4.6 51.5 4.6 51.6 4.15 52.3 Q3.65 52.7 3.0 52.7 L2.2 52.45 Q1.75 52.15 1.75 51.7 1.75 51.45 1.9 51.25 2.15 50.75 3.25 50.75 L4.1 50.9 M2.6 51.6 Q2.85 52.1 3.35 52.1 4.0 52.1 4.0 51.55 4.0 50.85 3.3 50.95 2.6 51.05 2.6 51.6 M-0.05 51.1 L0.05 51.2 0.5 51.7 0.85 52.2 0.55 53.25 Q0.2 54.05 -0.45 54.15 L-0.6 53.9 Q-1.0 53.3 -1.65 53.3 -2.05 53.3 -2.6 53.6 L-2.8 53.75 -2.9 53.65 Q-3.3 53.2 -3.3 52.6 L-3.25 52.3 -3.15 51.85 -2.6 51.2 -3.15 51.85 -2.9 51.45 -2.6 51.2 -2.55 51.1 -2.35 50.95 Q-2.1 50.75 -1.75 50.7 L-1.3 50.65 -1.0 50.7 Q-0.5 50.75 -0.05 51.1 M0.05 51.75 L-0.35 51.5 -0.55 51.4 -1.35 51.15 Q-1.8 51.15 -2.3 51.5 L-2.75 52.1 Q-2.75 53.15 -1.15 53.15 0.1 53.15 0.1 52.1 L0.05 51.75 M4.05 53.45 Q4.55 53.95 4.55 54.4 L4.55 54.6 4.2 54.75 Q3.8 54.75 3.65 54.25 L3.55 53.65 Q3.55 53.05 4.0 53.4 L4.05 53.45 M-4.0 48.5 L-4.25 48.0 -4.1 47.15 -3.7 45.35 Q-3.25 45.9 -3.25 46.6 -3.4 48.5 -4.0 48.5 M-0.45 47.9 L-0.65 49.05 -1.15 49.75 Q-1.6 49.75 -1.6 48.4 -1.6 46.95 -1.1 46.05 -0.45 47.15 -0.45 47.9 M-3.65 51.4 L-3.95 52.45 -4.6 52.35 Q-4.7 51.7 -5.0 51.4 L-4.3 51.55 -3.65 51.4" fill="#ffd751" fill-rule="evenodd" stroke="none"/>
    <path d="M5.0 36.7 L5.05 36.75 Q6.0 37.8 6.35 40.2 L6.35 40.4 5.05 39.9 0.8 39.7 -3.05 39.85 Q-4.55 40.1 -5.25 40.65 -5.35 39.65 -5.0 38.75 -4.55 37.45 -3.7 36.6 L-3.8 36.8 Q-3.8 38.15 0.45 38.15 L3.95 37.65 5.0 36.7 M2.6 51.6 Q2.6 51.05 3.3 50.95 4.0 50.85 4.0 51.55 4.0 52.1 3.35 52.1 2.85 52.1 2.6 51.6 M0.05 51.75 L0.1 52.1 Q0.1 53.15 -1.15 53.15 -2.75 53.15 -2.75 52.1 L-2.3 51.5 Q-1.8 51.15 -1.35 51.15 L-0.55 51.4 -0.35 51.5 0.05 51.75 M-1.65 51.35 Q-2.4 51.45 -2.4 52.25 -2.4 52.75 -1.65 52.75 L-1.1 52.5 -0.9 52.1 Q-0.9 51.3 -1.65 51.35 M-3.35 50.55 L-3.35 50.75 -3.35 50.95 -3.65 51.4 -4.3 51.55 -5.0 51.4 -5.4 51.2 -5.6 51.1 Q-6.15 50.65 -6.15 50.2 -6.15 49.4 -5.35 49.4 -4.3 49.4 -3.8 49.85 L-3.35 50.55 M-4.0 50.5 Q-4.0 50.1 -4.6 49.9 -5.25 49.65 -5.25 50.45 L-5.1 50.8 -4.4 51.05 Q-4.0 51.05 -4.0 50.5" fill="#ffed9a" fill-rule="evenodd" stroke="none"/>
    <path d="M4.6 43.2 L4.6 43.5 Q3.6 43.9 3.6 46.05 3.6 47.25 3.9 48.6 L4.45 50.2 4.4 50.35 4.45 50.6 4.1 50.45 Q3.4 49.6 3.3 47.55 L3.15 45.2 2.8 45.15 Q1.6 45.15 1.6 48.65 L1.8 50.85 1.6 51.05 1.5 51.15 1.25 51.55 1.15 52.15 1.1 52.35 1.1 52.55 Q0.8 50.55 0.8 47.45 L0.85 44.35 3.05 43.9 3.5 43.7 4.6 43.2 M8.9 51.55 L8.85 51.75 8.15 51.25 7.55 51.15 7.5 51.15 7.2 51.35 7.0 51.6 6.9 52.1 6.9 52.15 Q6.95 52.65 7.5 53.1 L6.85 53.35 Q6.5 53.0 6.5 52.3 6.5 51.8 6.8 51.4 L6.85 51.35 Q7.15 50.95 7.65 50.95 L8.25 51.1 8.9 51.55 M5.3 54.3 L4.9 54.5 4.85 55.15 4.8 55.75 4.7 56.2 3.7 55.45 3.5 55.25 3.35 55.1 3.3 55.1 2.75 55.05 2.5 54.0 2.6 53.65 2.8 53.25 2.95 53.05 3.8 52.85 Q4.35 52.85 4.75 53.15 L5.3 54.3 M-0.2 55.2 L-0.45 55.25 -0.7 55.25 -0.65 54.8 -0.85 54.15 -1.05 53.95 Q-1.1 53.75 -1.3 53.7 L-1.65 53.65 -2.25 53.9 -2.35 54.0 -2.65 54.7 -3.2 54.25 -2.8 53.75 -2.6 53.6 Q-2.05 53.3 -1.65 53.3 -1.0 53.3 -0.6 53.9 L-0.45 54.15 Q-0.2 54.6 -0.2 55.2 M-4.75 53.85 L-5.7 53.55 Q-5.15 53.1 -5.15 52.4 L-5.3 51.9 -5.3 51.85 -5.4 51.7 -5.45 51.6 -5.5 51.5 -5.85 51.4 -6.0 51.45 Q-6.55 51.5 -6.95 52.45 L-7.0 52.55 -7.3 51.85 -6.85 51.4 -6.35 51.15 -5.85 51.05 -5.6 51.1 -5.4 51.2 -5.0 51.4 Q-4.7 51.7 -4.6 52.35 L-4.6 52.9 Q-4.6 53.45 -4.75 53.85 M4.9 54.5 L4.65 53.6 4.45 53.3 3.9 53.05 3.8 53.1 Q3.5 53.1 3.35 53.25 L3.2 53.4 3.15 53.45 Q3.15 54.1 4.05 55.05 L4.8 55.75 4.05 55.05 Q3.15 54.1 3.15 53.45 L3.2 53.4 3.35 53.25 Q3.5 53.1 3.8 53.1 L3.9 53.05 4.45 53.3 4.65 53.6 4.9 54.5 M3.2 53.4 L3.1 53.6 3.0 53.9 Q2.9 54.6 3.35 55.1 2.9 54.6 3.0 53.9 L3.1 53.6 3.2 53.4" fill="#592304" fill-rule="evenodd" stroke="none"/>
    <path d="M1.3 53.7 L1.0 54.45 -0.2 55.2 Q-0.2 54.6 -0.45 54.15 0.2 54.05 0.55 53.25 L0.85 52.2 1.1 52.55 1.1 52.6 1.1 52.75 1.15 53.05 1.3 53.7 M-0.7 55.25 L-1.35 56.2 -2.1 56.85 -1.65 56.1 -1.2 55.15 -1.05 54.05 -1.05 53.95 -0.85 54.15 -0.65 54.8 -0.7 55.25 M-3.2 54.25 L-3.35 54.0 -3.5 53.6 -3.85 53.7 -4.5 53.85 -4.75 53.85 Q-4.6 53.45 -4.6 52.9 L-4.6 52.35 -3.95 52.45 -3.65 51.4 -3.35 50.95 -2.7 50.45 -2.65 50.6 -2.55 51.1 -2.6 51.2 -2.9 51.45 -3.15 51.85 -3.25 52.3 -3.3 52.6 Q-3.3 53.2 -2.9 53.65 L-2.8 53.75 -3.2 54.25 M-5.7 53.55 L-5.85 53.6 -7.3 54.3 -7.3 54.15 Q-6.3 53.85 -5.75 53.0 L-5.3 51.9 -5.15 52.4 Q-5.15 53.1 -5.7 53.55 M-7.3 51.85 L-7.35 51.4 Q-7.35 50.35 -6.7 49.7 L-6.25 49.35 -6.7 50.45 -6.35 51.15 -6.85 51.4 -7.3 51.85" fill="#e09b35" fill-rule="evenodd" stroke="none"/>
    <path d="M-1.65 51.35 Q-0.9 51.3 -0.9 52.1 L-1.1 52.5 -1.65 52.75 Q-2.4 52.75 -2.4 52.25 -2.4 51.45 -1.65 51.35 M-4.0 50.5 Q-4.0 51.05 -4.4 51.05 L-5.1 50.8 -5.25 50.45 Q-5.25 49.65 -4.6 49.9 -4.0 50.1 -4.0 50.5 M-2.4 55.2 Q-2.4 54.45 -1.9 54.05 -1.4 53.7 -1.4 54.55 -1.4 55.65 -2.0 55.65 -2.4 55.65 -2.4 55.2 M-5.55 52.2 L-5.75 52.7 Q-5.95 53.05 -6.3 53.05 -6.7 53.05 -6.7 52.65 -6.7 52.15 -6.1 51.8 -5.55 51.4 -5.55 52.2" fill="#fff8d9" fill-rule="evenodd" stroke="none"/>
    <path d="M6.15 41.65 L6.0 41.95 4.65 42.6 4.0 42.85 Q2.15 43.5 0.35 43.5 L-2.55 43.15 -3.75 42.85 -4.7 42.4 -5.0 41.95 -5.1 41.65 Q-2.8 40.65 -0.2 40.65 L4.15 40.95 6.15 41.65" fill="#d4862a" fill-rule="evenodd" stroke="none"/>
    <path d="M6.0 41.95 L4.6 43.2 3.5 43.7 3.05 43.9 0.85 44.35 -1.85 44.1 -2.15 44.05 -3.8 43.25 -4.7 42.4 -3.75 42.85 -2.55 43.15 0.35 43.5 Q2.15 43.5 4.0 42.85 L4.65 42.6 6.0 41.95" fill="#edb84b" fill-rule="evenodd" stroke="none"/>
    <path d="M4.65 43.7 L4.65 43.9 4.55 43.85 4.3 43.95 4.65 43.7 M5.5 51.95 L5.15 51.25 5.5 51.5 5.5 51.9 5.5 51.95" fill="url(#gradient8)" fill-rule="evenodd" stroke="none"/>
    <path d="M1.1 52.6 L1.15 53.05 1.1 52.75 1.1 52.6" fill="url(#gradient9)" fill-rule="evenodd" stroke="none"/>
    <path d="M-2.35 50.95 L-2.0 48.15 -1.95 47.0 -1.9 45.75 -1.9 45.45 Q-1.7 45.3 -1.4 45.3 0.05 45.3 0.05 49.45 L-0.05 51.1 Q-0.5 50.75 -1.0 50.7 L-1.3 50.65 -1.75 50.7 Q-2.1 50.75 -2.35 50.95 M-0.45 47.9 Q-0.45 47.15 -1.1 46.05 -1.6 46.95 -1.6 48.4 -1.6 49.75 -1.15 49.75 L-0.65 49.05 -0.45 47.9" fill="url(#gradient10)" fill-rule="evenodd" stroke="none"/>
    <path d="M-4.25 46.55 L-4.2 46.0 -3.95 44.1 -3.9 44.1 Q-2.85 44.1 -2.85 46.65 L-3.1 48.65 -3.3 49.7 -4.25 49.15 -4.55 49.05 -4.75 49.0 -4.35 47.0 -4.25 46.55 M-2.85 50.2 L-2.65 50.45 -2.35 50.95 -2.55 51.1 -2.65 50.6 -2.7 50.45 -2.85 50.2 M-4.0 48.5 Q-3.4 48.5 -3.25 46.6 -3.25 45.9 -3.7 45.35 L-4.1 47.15 -4.25 48.0 -4.0 48.5 M-3.8 49.85 L-3.45 50.25 -3.35 50.55 -3.8 49.85" fill="url(#gradient11)" fill-rule="evenodd" stroke="none"/>
    <path d="M-2.1 56.85 L-2.35 57.0 -2.55 56.3 -2.65 54.7 -2.35 54.0 -2.25 53.9 -1.65 53.65 -1.3 53.7 Q-1.1 53.75 -1.05 53.95 L-1.05 54.05 -1.2 55.15 -1.65 56.1 -2.1 56.85 M-2.4 55.2 Q-2.4 55.65 -2.0 55.65 -1.4 55.65 -1.4 54.55 -1.4 53.7 -1.9 54.05 -2.4 54.45 -2.4 55.2" fill="url(#gradient12)" fill-rule="evenodd" stroke="none"/>
    <path d="M-7.3 54.15 L-7.0 52.55 -6.95 52.45 Q-6.55 51.5 -6.0 51.45 L-5.85 51.4 -5.5 51.5 -5.45 51.6 -5.4 51.7 -5.3 51.85 -5.3 51.9 -5.75 53.0 Q-6.3 53.85 -7.3 54.15 M-5.55 52.2 Q-5.55 51.4 -6.1 51.8 -6.7 52.15 -6.7 52.65 -6.7 53.05 -6.3 53.05 -5.95 53.05 -5.75 52.7 L-5.55 52.2" fill="url(#gradient13)" fill-rule="evenodd" stroke="none"/>
  </g>
  <defs>
    <radialGradient cx="0" cy="0" gradientTransform="matrix(0.0072, 0.0, 0.0, 0.0072, 26.8, 18.1)" gradientUnits="userSpaceOnUse" id="gradient0" r="819.2" spreadMethod="pad">
      <stop offset="0.08627450980392157" stop-color="#ecd25b"/>
      <stop offset="0.5254901960784314" stop-color="#eea943"/>
      <stop offset="1.0" stop-color="#c9831d"/>
    </radialGradient>
    <radialGradient cx="0" cy="0" gradientTransform="matrix(0.034, -0.0196, 0.0066, 0.0115, 25.8, 1.6)" gradientUnits="userSpaceOnUse" id="gradient1" r="819.2" spreadMethod="pad">
      <stop offset="0.08627450980392157" stop-color="#ecd25b"/>
      <stop offset="0.5254901960784314" stop-color="#eea943"/>
      <stop offset="1.0" stop-color="#c9831d"/>
    </radialGradient>
    <radialGradient cx="0" cy="0" gradientTransform="matrix(0.0087, 0.0, 0.0, 0.0082, 28.0, 13.3)" gradientUnits="userSpaceOnUse" id="gradient2" r="819.2" spreadMethod="pad">
      <stop offset="0.08627450980392157" stop-color="#685b42"/>
      <stop offset="0.5254901960784314" stop-color="#4f483d"/>
      <stop offset="1.0" stop-color="#3c3528"/>
    </radialGradient>
    <radialGradient cx="0" cy="0" gradientTransform="matrix(0.013, 0.0, 0.0, 0.0255, 15.55, 10.65)" gradientUnits="userSpaceOnUse" id="gradient3" r="819.2" spreadMethod="pad">
      <stop offset="0.08627450980392157" stop-color="#b49f92"/>
      <stop offset="0.5254901960784314" stop-color="#897a63"/>
      <stop offset="1.0" stop-color="#5b614c"/>
    </radialGradient>
    <radialGradient cx="0" cy="0" gradientTransform="matrix(0.0248, 0.0, 0.0, 0.0248, 2.2, 28.6)" gradientUnits="userSpaceOnUse" id="gradient4" r="819.2" spreadMethod="pad">
      <stop offset="0.25882352941176473" stop-color="#bd7f27"/>
      <stop offset="0.9058823529411765" stop-color="#b66729"/>
    </radialGradient>
    <radialGradient cx="0" cy="0" gradientTransform="matrix(0.0206, 0.0, 0.0, 0.0206, 37.85, 11.45)" gradientUnits="userSpaceOnUse" id="gradient5" r="819.2" spreadMethod="pad">
      <stop offset="0.25882352941176473" stop-color="#bd7f27"/>
      <stop offset="0.9058823529411765" stop-color="#b66729"/>
    </radialGradient>
    <radialGradient cx="0" cy="0" gradientTransform="matrix(0.0268, 0.0, 0.0, 0.0268, -3.75, 26.2)" gradientUnits="userSpaceOnUse" id="gradient6" r="819.2" spreadMethod="pad">
      <stop offset="0.39215686274509803" stop-color="#ffd05d"/>
      <stop offset="0.9058823529411765" stop-color="#cb933e"/>
    </radialGradient>
    <radialGradient cx="0" cy="0" gradientTransform="matrix(0.025, 0.0, 0.0, 0.025, -42.0, 9.45)" gradientUnits="userSpaceOnUse" id="gradient7" r="819.2" spreadMethod="pad">
      <stop offset="0.39215686274509803" stop-color="#ffd05d"/>
      <stop offset="0.9058823529411765" stop-color="#cb933e"/>
    </radialGradient>
    <radialGradient cx="0" cy="0" gradientTransform="matrix(0.0101, 0.0, 0.0, 0.0101, 7.25, 51.0)" gradientUnits="userSpaceOnUse" id="gradient8" r="819.2" spreadMethod="pad">
      <stop offset="0.08627450980392157" stop-color="#ecd25b"/>
      <stop offset="0.5254901960784314" stop-color="#eea943"/>
      <stop offset="1.0" stop-color="#c9831d"/>
    </radialGradient>
    <radialGradient cx="0" cy="0" gradientTransform="matrix(0.0095, 0.0, 0.0, 0.0095, 3.45, 51.7)" gradientUnits="userSpaceOnUse" id="gradient9" r="819.2" spreadMethod="pad">
      <stop offset="0.08627450980392157" stop-color="#ecd25b"/>
      <stop offset="0.5254901960784314" stop-color="#eea943"/>
      <stop offset="1.0" stop-color="#c9831d"/>
    </radialGradient>
    <radialGradient cx="0" cy="0" gradientTransform="matrix(0.0098, 0.0, 0.0, 0.0098, -0.55, 52.05)" gradientUnits="userSpaceOnUse" id="gradient10" r="819.2" spreadMethod="pad">
      <stop offset="0.08627450980392157" stop-color="#ecd25b"/>
      <stop offset="0.5254901960784314" stop-color="#eea943"/>
      <stop offset="1.0" stop-color="#c9831d"/>
    </radialGradient>
    <radialGradient cx="0" cy="0" gradientTransform="matrix(0.0084, 0.0, 0.0, 0.0084, -4.55, 50.05)" gradientUnits="userSpaceOnUse" id="gradient11" r="819.2" spreadMethod="pad">
      <stop offset="0.08627450980392157" stop-color="#ecd25b"/>
      <stop offset="0.5254901960784314" stop-color="#eea943"/>
      <stop offset="1.0" stop-color="#c9831d"/>
    </radialGradient>
    <radialGradient cx="0" cy="0" gradientTransform="matrix(0.0034, 0.0, 0.0, 0.0034, -1.65, 54.8)" gradientUnits="userSpaceOnUse" id="gradient12" r="819.2" spreadMethod="pad">
      <stop offset="0.08627450980392157" stop-color="#ecd25b"/>
      <stop offset="0.5254901960784314" stop-color="#eea943"/>
      <stop offset="1.0" stop-color="#c9831d"/>
    </radialGradient>
    <radialGradient cx="0" cy="0" gradientTransform="matrix(0.0027, 0.0, 0.0, 0.0027, -6.0, 52.45)" gradientUnits="userSpaceOnUse" id="gradient13" r="819.2" spreadMethod="pad">
      <stop offset="0.08627450980392157" stop-color="#ecd25b"/>
      <stop offset="0.5254901960784314" stop-color="#eea943"/>
      <stop offset="1.0" stop-color="#c9831d"/>
    </radialGradient>
  </defs>
</svg>
