<?xml version="1.0" encoding="UTF-8" standalone="no"?>
<svg xmlns:ffdec="https://www.free-decompiler.com/flash" xmlns:xlink="http://www.w3.org/1999/xlink" ffdec:objectType="shape" height="22.25px" width="20.65px" xmlns="http://www.w3.org/2000/svg">
  <g transform="matrix(1.0, 0.0, 0.0, 1.0, 11.25, 11.1)">
    <path d="M8.55 4.85 L5.25 6.95 4.05 7.35 Q3.05 7.45 2.55 7.0 2.05 6.5 2.0 6.0 L0.45 6.4 0.5 7.05 Q0.5 7.8 0.0 8.5 L-0.95 9.25 -1.65 9.35 -1.9 9.35 -2.1 9.55 Q-2.85 10.3 -3.8 10.4 L-3.85 9.55 -3.8 8.6 -4.3 8.15 -4.7 7.4 Q-5.35 7.8 -5.9 7.8 L-6.6 7.7 -7.65 7.15 -7.75 7.1 -9.3 7.2 -10.5 7.1 -10.4 6.7 -9.8 5.9 -9.4 5.45 -8.7 4.9 -8.5 4.2 Q-8.25 3.6 -7.7 3.15 -6.75 2.4 -5.6 2.4 L-5.2 2.5 -5.15 2.45 Q-4.3 1.3 -3.8 -1.1 L-3.6 -2.25 Q-4.55 -3.05 -4.65 -4.15 L-4.7 -4.65 -4.7 -4.7 -4.7 -5.9 -4.55 -7.45 -4.5 -7.8 Q-4.35 -8.45 -3.6 -9.15 L-3.4 -9.35 Q-2.2 -10.4 -0.95 -10.35 0.25 -10.35 1.35 -8.8 L2.45 -7.05 2.6 -6.6 2.7 -5.9 2.7 -5.7 2.5 -2.35 Q2.05 -0.85 0.8 -0.75 L0.7 -0.75 0.7 0.15 8.0 3.65 8.55 3.9 8.55 4.85" fill="#ffed9a" fill-rule="evenodd" stroke="none"/>
    <path d="M0.7 0.15 L0.7 -0.75 0.8 -0.75 Q2.05 -0.85 2.5 -2.35 L2.7 -5.7 2.7 -5.9 2.6 -6.6 2.45 -7.05 1.35 -8.8 Q0.25 -10.35 -0.95 -10.35 -2.2 -10.4 -3.4 -9.35 L-3.6 -9.15 Q-4.35 -8.45 -4.5 -7.8 L-4.55 -7.45 -4.7 -5.9 -4.7 -4.7 -4.7 -4.65 -4.65 -4.15 Q-4.55 -3.05 -3.6 -2.25 L-3.8 -1.1 Q-4.3 1.3 -5.15 2.45 L-5.2 2.5 -5.6 2.4 Q-6.75 2.4 -7.7 3.15 -8.25 3.6 -8.5 4.2 L-8.7 4.9 -9.4 5.45 -9.8 5.9 -10.4 6.7 -10.5 7.1 -9.3 7.2 -7.75 7.1 -7.65 7.15 -6.6 7.7 -5.9 7.8 Q-5.35 7.8 -4.7 7.4 L-4.3 8.15 -3.8 8.6 -3.85 9.55 -3.8 10.4 Q-2.85 10.3 -2.1 9.55 L-1.9 9.35 -1.65 9.35 -0.95 9.25 0.0 8.5 Q0.5 7.8 0.5 7.05 L0.45 6.4 2.0 6.0 Q2.05 6.5 2.55 7.0 3.05 7.45 4.05 7.35 L5.25 6.95 8.55 4.85" fill="none" stroke="#592304" stroke-linecap="round" stroke-linejoin="bevel" stroke-width="1.5"/>
    <path d="M-4.7 -4.7 L-4.7 -5.9 -4.25 -5.5 -1.95 -4.5 0.0 -3.6 Q1.3 -2.85 1.3 -1.85 L1.3 -1.75 0.65 -1.7 Q-1.35 -1.7 -3.05 -2.95 L-3.4 -3.2 -3.45 -3.05 Q-4.15 -3.65 -4.7 -4.7" fill="#d4862a" fill-rule="evenodd" stroke="none"/>
    <path d="M2.45 -7.05 Q2.25 -6.4 1.7 -6.2 L0.5 -6.15 Q-1.0 -6.15 -2.25 -7.05 -3.5 -7.9 -3.6 -9.15 L-3.4 -9.35 Q-2.2 -10.4 -0.95 -10.35 0.25 -10.35 1.35 -8.8 L2.45 -7.05 M-0.15 5.15 L-0.05 5.8 -0.05 5.9 -0.4 6.3 -1.1 6.35 -2.6 5.9 -3.2 5.1 -3.25 4.85 -3.15 4.55 -2.15 4.25 -2.0 4.25 -1.55 4.3 -1.0 4.5 -0.7 4.55 -0.5 4.7 -0.2 4.9 -0.15 5.15 M-4.75 3.2 L-4.7 3.7 -4.7 4.15 Q-4.8 4.55 -5.4 4.55 L-6.15 4.15 -6.4 3.55 Q-6.55 2.95 -5.55 2.95 -4.9 2.95 -4.75 3.2 M-1.4 1.6 Q-1.0 0.65 -0.55 1.2 L-0.5 1.25 Q-0.2 1.7 -0.2 2.2 -0.05 3.55 -0.8 3.75 L-1.05 3.75 Q-1.6 3.75 -1.6 3.1 L-1.4 1.6 M-8.5 6.2 Q-9.0 6.15 -9.0 5.65 -9.0 5.1 -8.15 4.95 -7.35 4.8 -7.35 5.45 L-7.35 5.55 -7.45 5.8 Q-7.65 6.2 -8.35 6.2 L-8.5 6.2 M-1.95 7.8 L-1.9 8.1 Q-1.9 8.55 -2.25 8.7 L-2.65 8.75 Q-3.15 8.75 -3.15 8.1 -3.15 7.3 -2.5 7.4 -2.05 7.45 -1.95 7.8" fill="#ffd751" fill-rule="evenodd" stroke="none"/>
    <path d="M-3.6 -9.15 Q-3.5 -7.9 -2.25 -7.05 -1.0 -6.15 0.5 -6.15 L1.7 -6.2 Q2.25 -6.4 2.45 -7.05 L2.6 -6.6 2.7 -5.9 2.7 -5.7 2.0 -5.05 0.45 -4.95 Q-0.85 -5.0 -2.65 -5.8 -4.5 -6.65 -4.55 -7.45 L-4.5 -7.8 Q-4.35 -8.45 -3.6 -9.15" fill="#ffed9a" fill-rule="evenodd" stroke="none"/>
    <path d="M2.5 -2.35 Q2.05 -0.85 0.8 -0.75 L0.7 -0.75 Q-0.4 -0.7 -2.0 -1.35 L-2.45 -1.55 -3.6 -2.25 Q-4.55 -3.05 -4.65 -4.15 L-4.7 -4.65 -4.7 -4.7 Q-4.15 -3.65 -3.45 -3.05 L-3.4 -3.2 -3.05 -2.95 Q-1.35 -1.7 0.65 -1.7 L1.3 -1.75 Q1.95 -1.9 2.5 -2.35" fill="#edb84b" fill-rule="evenodd" stroke="none"/>
    <path d="M-3.8 10.35 L-3.85 9.55 -3.8 8.6 Q-3.3 6.85 -2.3 6.85 L-2.05 6.95 -1.9 7.1 -1.85 7.15 -1.95 7.8 Q-2.05 7.45 -2.5 7.4 -3.15 7.3 -3.15 8.1 -3.15 8.75 -2.65 8.75 L-2.25 8.7 -2.9 9.6 -3.8 10.35 M-10.4 6.7 L-9.8 5.9 -9.4 5.45 -8.7 4.9 -7.7 4.7 -7.5 4.75 -7.4 4.75 -7.1 4.85 -6.9 5.2 -7.35 5.55 -7.35 5.45 Q-7.35 4.8 -8.15 4.95 -9.0 5.1 -9.0 5.65 -9.0 6.15 -8.5 6.2 -9.6 6.8 -10.05 6.8 L-10.4 6.7 M-8.5 4.2 Q-8.25 3.6 -7.7 3.15 -6.75 2.4 -5.6 2.4 L-5.2 2.5 -5.15 2.45 -5.05 2.55 Q-4.15 3.4 -4.15 3.8 -4.15 4.3 -4.6 4.9 L-5.7 5.55 -5.95 5.4 -5.95 5.2 Q-5.95 4.0 -7.7 4.0 L-8.5 4.2 M-2.15 4.25 L-1.95 2.1 Q-1.6 0.2 -0.85 0.2 L-0.8 0.2 Q-0.45 0.25 -0.15 1.0 0.2 1.8 0.2 2.65 L0.2 3.0 0.05 3.7 -0.15 4.95 -0.15 5.15 -0.2 4.9 -0.5 4.7 -0.7 4.55 -1.0 4.5 -1.55 4.3 -2.0 4.25 -2.15 4.25 M-0.05 5.9 L-0.35 7.3 -0.35 7.4 -0.8 8.3 -0.8 8.05 -0.8 7.75 Q-0.9 7.25 -1.25 6.9 -1.75 6.35 -2.5 6.35 -3.0 6.35 -3.45 6.75 L-3.55 6.8 -3.95 6.3 -4.15 5.65 -4.05 5.25 -3.85 5.0 -3.3 4.65 -3.15 4.55 -3.25 4.85 -3.2 5.1 -2.6 5.9 -1.1 6.35 -0.4 6.3 -0.05 5.9 M0.5 5.65 L0.45 6.35 0.45 6.4 0.2 6.5 0.2 6.4 0.5 5.65 M-1.4 1.6 L-1.6 3.1 Q-1.6 3.75 -1.05 3.75 L-0.8 3.75 Q-0.05 3.55 -0.2 2.2 -0.2 1.7 -0.5 1.25 L-0.55 1.2 Q-1.0 0.65 -1.4 1.6 M-4.75 3.2 Q-4.9 2.95 -5.55 2.95 -6.55 2.95 -6.4 3.55 L-6.15 4.15 -5.4 4.55 Q-4.8 4.55 -4.7 4.15 L-4.7 3.7 -4.75 3.2" fill="#e29d37" fill-rule="evenodd" stroke="none"/>
    <path d="M5.25 6.95 L4.05 7.35 Q3.05 7.45 2.55 7.0 2.05 6.5 2.0 6.0 L1.95 5.65 2.0 5.3 2.4 5.9 Q2.75 6.25 3.2 6.25 L4.0 6.0 Q4.55 5.7 4.55 5.25 L4.5 4.85 4.6 4.55 Q4.6 4.15 4.2 3.85 3.85 3.6 3.4 3.6 2.35 3.6 1.85 4.35 1.4 5.0 1.35 6.15 L0.45 6.4 0.45 6.35 0.5 5.65 0.5 5.55 0.6 4.2 0.65 2.65 2.1 1.95 4.15 2.0 Q5.65 2.25 5.95 4.1 6.25 5.9 5.65 6.6 L5.25 6.95" fill="#b76b28" fill-rule="evenodd" stroke="none"/>
    <path d="M0.7 0.15 L9.4 4.3 5.25 6.95 5.65 6.6 Q6.25 5.9 5.95 4.1 5.65 2.25 4.15 2.0 L2.1 1.95 0.65 2.65 0.7 0.15 M2.0 6.0 L1.35 6.15 Q1.4 5.0 1.85 4.35 2.35 3.6 3.4 3.6 3.85 3.6 4.2 3.85 4.6 4.15 4.6 4.55 L4.5 4.85 4.2 4.95 4.15 4.55 3.95 4.35 3.4 4.15 Q2.85 4.15 2.4 4.55 2.05 4.9 2.0 5.3 L1.95 5.65 2.0 6.0" fill="#64360d" fill-rule="evenodd" stroke="none"/>
    <path d="M-4.55 -7.45 Q-4.5 -6.65 -2.65 -5.8 -0.85 -5.0 0.45 -4.95 L2.0 -5.05 2.7 -5.7 2.5 -2.35 Q1.95 -1.9 1.3 -1.75 L1.3 -1.85 Q1.3 -2.85 0.0 -3.6 L-1.95 -4.5 -4.25 -5.5 -4.7 -5.9 -4.55 -7.45 M0.7 -0.75 L0.7 0.15 0.65 2.65 0.6 4.2 0.5 5.55 0.5 5.65 0.2 6.4 0.2 6.5 0.45 6.4 0.5 7.05 Q0.5 7.8 0.0 8.5 L-0.95 9.25 -0.8 8.3 -0.35 7.4 -0.35 7.3 -0.05 5.9 -0.05 5.8 -0.15 5.15 -0.15 4.95 0.05 3.7 0.2 3.0 0.2 2.65 Q0.2 1.8 -0.15 1.0 -0.45 0.25 -0.8 0.2 L-0.85 0.2 Q-1.6 0.2 -1.95 2.1 L-2.15 4.25 -3.15 4.55 -2.95 4.0 -2.5 2.25 -2.15 -0.25 -2.0 -1.35 Q-0.4 -0.7 0.7 -0.75 M-1.9 9.35 L-2.1 9.55 Q-2.85 10.3 -3.8 10.4 L-3.8 10.35 -2.9 9.6 -2.25 8.7 Q-1.9 8.55 -1.9 8.1 L-1.95 7.8 -1.85 7.15 Q-1.35 7.6 -1.35 8.15 -1.35 8.7 -1.9 9.35 M-4.3 8.15 L-4.7 7.4 Q-5.35 7.8 -5.9 7.8 L-6.6 7.7 -6.25 6.75 -5.95 5.4 -5.7 5.55 -4.6 4.9 Q-4.15 4.3 -4.15 3.8 -4.15 3.4 -5.05 2.55 L-5.15 2.45 Q-4.3 1.3 -3.8 -1.1 -3.45 -1.05 -3.15 -0.45 L-2.85 0.4 Q-2.85 3.0 -3.65 3.0 L-3.7 3.0 -3.55 3.3 -3.5 3.9 -3.5 4.1 -3.5 4.15 Q-3.55 4.8 -3.95 5.0 L-4.05 5.25 -4.15 5.65 -3.95 6.3 -3.55 6.8 -3.75 7.0 -4.3 8.15 M-7.75 7.1 L-9.3 7.2 -10.5 7.1 -10.4 6.7 -10.05 6.8 Q-9.6 6.8 -8.5 6.2 L-8.35 6.2 Q-7.65 6.2 -7.45 5.8 L-7.35 5.55 -6.9 5.2 -6.85 5.65 Q-6.85 6.65 -7.55 7.0 L-7.75 7.1" fill="#a64f18" fill-rule="evenodd" stroke="none"/>
    <path d="M-0.95 9.25 L-1.65 9.35 -1.9 9.35 Q-1.35 8.7 -1.35 8.15 -1.35 7.6 -1.85 7.15 L-1.9 7.1 -2.05 6.95 -2.3 6.85 Q-3.3 6.85 -3.8 8.6 L-4.3 8.15 -3.75 7.0 -3.55 6.8 -3.45 6.75 Q-3.0 6.35 -2.5 6.35 -1.75 6.35 -1.25 6.9 -0.9 7.25 -0.8 7.75 L-0.8 8.05 -0.8 8.3 -0.95 9.25 M-6.6 7.7 L-7.65 7.15 -7.75 7.1 -7.55 7.0 Q-6.85 6.65 -6.85 5.65 L-6.9 5.2 -7.1 4.85 -7.4 4.75 -7.5 4.75 -7.7 4.7 -8.7 4.9 -8.5 4.2 -7.7 4.0 Q-5.95 4.0 -5.95 5.2 L-5.95 5.4 -6.25 6.75 -6.6 7.7 M-3.8 -1.1 L-3.6 -2.25 -2.45 -1.55 -2.0 -1.35 -2.15 -0.25 -2.5 2.25 -2.95 4.0 -3.15 4.55 -3.3 4.65 -3.85 5.0 -4.05 5.25 -3.95 5.0 Q-3.55 4.8 -3.5 4.15 L-3.5 4.1 -3.5 3.9 -3.55 3.3 -3.7 3.0 -3.65 3.0 Q-2.85 3.0 -2.85 0.4 L-3.15 -0.45 Q-3.45 -1.05 -3.8 -1.1" fill="#592304" fill-rule="evenodd" stroke="none"/>
    <path d="M2.0 5.3 Q2.05 4.9 2.4 4.55 2.85 4.15 3.4 4.15 L3.95 4.35 4.15 4.55 4.2 4.95 4.5 4.85 4.55 5.25 Q4.55 5.7 4.0 6.0 L3.2 6.25 Q2.75 6.25 2.4 5.9 L2.0 5.3" fill="#d78c23" fill-rule="evenodd" stroke="none"/>
  </g>
</svg>
