<?xml version="1.0" encoding="UTF-8" standalone="no"?>
<svg xmlns:ffdec="https://www.free-decompiler.com/flash" xmlns:xlink="http://www.w3.org/1999/xlink" ffdec:objectType="shape" height="6.0px" width="5.8px" xmlns="http://www.w3.org/2000/svg">
  <g transform="matrix(1.0, 0.0, 0.0, 1.0, 2.9, 2.95)">
    <path d="M1.55 -0.75 L2.15 0.65 2.15 1.0 Q2.15 1.8 1.65 2.1 L1.55 2.1 1.3 2.2 -0.05 2.3 -0.35 2.25 -1.15 1.85 -1.85 1.05 -2.0 0.7 -2.05 0.6 Q-2.35 -0.9 -1.65 -1.85 L-1.3 -2.2 0.0 -2.05 0.1 -2.0 0.65 -1.65 1.55 -0.75" fill="#a64f18" fill-rule="evenodd" stroke="none"/>
    <path d="M1.55 -0.75 L2.15 0.65 2.15 1.0 Q2.15 1.8 1.65 2.1 L1.55 2.1 1.3 2.2 -0.05 2.3 -0.35 2.25 -1.15 1.85 -1.85 1.05 -2.0 0.7 -2.05 0.6 Q-2.35 -0.9 -1.65 -1.85 L-1.3 -2.2 0.0 -2.05 0.1 -2.0 0.65 -1.65 1.55 -0.75 Z" fill="none" stroke="#592304" stroke-linecap="round" stroke-linejoin="bevel" stroke-width="1.5"/>
    <path d="M0.0 -1.45 L-0.4 -1.8 -0.5 -1.85 -0.9 -1.75 -1.1 -1.7 -1.75 -1.3 -2.05 -0.45 -1.7 0.55 Q-1.25 1.25 -0.8 1.25 0.4 1.25 0.4 -0.15 0.4 -0.9 0.0 -1.45 M-2.0 0.7 L-2.05 0.6 Q-2.35 -0.9 -1.65 -1.85 L-1.3 -2.2 0.0 -2.05 0.1 -2.0 0.65 -1.65 0.9 -1.35 1.3 -0.2 Q1.3 0.6 0.95 1.15 0.5 1.8 -0.3 1.8 L-1.4 1.5 -2.0 0.7" fill="#ffd751" fill-rule="evenodd" stroke="none"/>
    <path d="M-2.0 0.7 L-1.4 1.5 -0.3 1.8 Q0.5 1.8 0.95 1.15 1.3 0.6 1.3 -0.2 L0.9 -1.35 0.65 -1.65 1.55 -0.75 1.6 -0.6 1.75 0.15 Q1.75 1.1 1.2 1.7 0.65 2.25 -0.15 2.25 L-0.35 2.25 -1.15 1.85 -1.85 1.05 -2.0 0.7" fill="#a64f18" fill-rule="evenodd" stroke="none"/>
    <path d="M1.55 -0.75 L2.15 0.65 2.15 1.0 Q2.15 1.8 1.65 2.1 L1.55 2.1 1.3 2.2 -0.05 2.3 -0.35 2.25 -0.15 2.25 Q0.65 2.25 1.2 1.7 1.75 1.1 1.75 0.15 L1.6 -0.6 1.55 -0.75" fill="#d4862a" fill-rule="evenodd" stroke="none"/>
    <path d="M0.0 -1.45 Q0.4 -0.9 0.4 -0.15 0.4 1.25 -0.8 1.25 -1.25 1.25 -1.7 0.55 L-2.05 -0.45 -1.75 -1.3 -1.1 -1.7 -0.9 -1.75 -0.5 -1.85 -0.4 -1.8 0.0 -1.45 M-1.5 -0.55 Q-1.5 0.15 -0.95 0.15 -0.25 0.15 -0.25 -0.5 L-0.85 -1.3 -1.5 -0.55" fill="#ffed9a" fill-rule="evenodd" stroke="none"/>
    <path d="M-1.5 -0.55 L-0.85 -1.3 -0.25 -0.5 Q-0.25 0.15 -0.95 0.15 -1.5 0.15 -1.5 -0.55" fill="#fff8d9" fill-rule="evenodd" stroke="none"/>
  </g>
</svg>
