<?xml version="1.0" encoding="UTF-8" standalone="no"?>
<svg xmlns:ffdec="https://www.free-decompiler.com/flash" xmlns:xlink="http://www.w3.org/1999/xlink" ffdec:objectType="shape" height="56.2px" width="94.05px" xmlns="http://www.w3.org/2000/svg">
  <g transform="matrix(1.0, 0.0, 0.0, 1.0, 33.5, -17.95)">
    <path d="M42.25 40.35 L37.85 35.3 37.55 35.15 31.8 32.65 Q27.25 35.25 18.5 38.8 14.5 44.55 10.05 49.0 L9.75 48.95 9.7 50.35 7.85 57.05 7.75 57.1 7.8 57.1 16.65 60.4 Q20.85 61.9 25.35 58.15 L29.2 51.75 40.35 46.2 44.85 48.4 46.0 47.6 Q46.3 45.85 42.25 40.35 M44.2 39.25 Q49.8 44.15 59.8 44.8 L58.95 53.6 Q54.6 54.2 50.5 55.3 L43.5 52.15 35.55 55.95 35.4 56.15 31.25 63.95 27.15 66.8 26.75 67.1 Q23.0 69.95 19.4 73.4 -7.7 58.35 -30.85 48.35 -31.1 42.7 -32.75 38.6 L-26.9 35.15 -26.9 35.25 -26.85 35.15 -26.8 35.1 -26.85 35.1 -23.15 28.9 -12.0 23.35 -7.75 25.45 -7.35 25.0 Q-6.25 24.35 -5.15 23.8 L-4.75 23.55 Q0.55 20.65 5.9 18.7 L6.25 18.8 12.15 21.75 19.25 24.35 23.65 28.4 24.7 27.95 25.2 28.15 31.0 31.05 38.1 33.7 44.2 39.25 M-13.1 48.85 L0.1 55.4 2.2 46.1 2.8 45.1 Q6.6 39.5 10.6 35.25 L11.5 34.3 Q16.6 31.3 23.65 28.4 18.05 26.8 12.95 23.35 8.4 25.95 -0.35 29.5 -4.35 35.25 -8.8 39.7 L-11.1 47.8 -13.1 48.85 -13.15 48.8 -13.2 48.85 -13.1 48.85 M19.95 64.95 L19.8 64.9 19.4 65.0 19.95 64.95 M-21.9 37.8 L-22.45 38.6 -22.7 39.55 Q-22.75 40.3 -20.8 41.35 L-17.95 42.75 -16.65 36.8 -15.3 34.8 -12.95 31.5 -12.55 31.0 -12.4 30.8 -11.35 29.5 -10.25 28.15 -12.65 29.35 -17.85 31.5 -17.9 31.5 -17.95 31.65 -21.45 37.4 -21.8 37.75 -21.9 37.8" fill="#23201b" fill-rule="evenodd" stroke="none"/>
    <path d="M42.25 40.35 L37.85 35.3 37.55 35.15 31.8 32.65 Q27.25 35.25 18.5 38.8 14.5 44.55 10.05 49.0 L9.75 48.95 9.7 50.35 7.85 57.05 7.75 57.1 7.8 57.1 16.65 60.4 Q20.85 61.9 25.35 58.15 L29.2 51.75 40.35 46.2 44.85 48.4 46.0 47.6 Q46.3 45.85 42.25 40.35 M30.05 60.5 L30.55 60.75 M19.95 64.95 L19.4 65.0 19.8 64.9 19.95 64.95 M-21.9 37.8 L-22.45 38.6 -22.7 39.55 Q-22.75 40.3 -20.8 41.35 L-17.95 42.75 -16.65 36.8 -15.3 34.8 -12.95 31.5 -12.55 31.0 -12.4 30.8 -11.35 29.5 -10.25 28.15 -12.65 29.35 -17.85 31.5 -17.9 31.5 -17.95 31.65 -21.45 37.4 -21.8 37.75 -21.9 37.8" fill="none" stroke="#191512" stroke-linecap="round" stroke-linejoin="bevel" stroke-width="1.5"/>
    <path d="M19.25 24.35 L12.15 21.75 6.25 18.8 5.9 18.7 Q0.55 20.65 -4.75 23.55 L-5.15 23.8 Q-6.25 24.35 -7.35 25.0 L-7.75 25.45 -12.0 23.35 -23.15 28.9 -26.85 35.1 -26.8 35.1 -26.85 35.15 -26.9 35.25 -26.9 35.15 -32.75 38.6 Q-31.1 42.7 -30.85 48.35 -7.7 58.35 19.4 73.4 23.0 69.95 26.75 67.1 L27.15 66.8 31.25 63.95 35.4 56.15 35.55 55.95 43.5 52.15 50.5 55.3 Q54.6 54.2 58.95 53.6 L59.8 44.8 Q49.8 44.15 44.2 39.25" fill="none" stroke="#191512" stroke-linecap="round" stroke-linejoin="bevel" stroke-width="1.5"/>
    <path d="M23.65 28.4 L19.25 24.35" fill="none" stroke="#191512" stroke-linecap="round" stroke-linejoin="bevel" stroke-width="1.5"/>
    <path d="M44.2 39.25 L38.1 33.7 31.0 31.05 25.2 28.15 24.7 27.95 23.65 28.4" fill="none" stroke="#191512" stroke-linecap="butt" stroke-linejoin="bevel" stroke-width="1.5"/>
    <path d="M23.65 28.4 Q16.6 31.3 11.5 34.3 L10.6 35.25 Q6.6 39.5 2.8 45.1 L2.2 46.1 0.1 55.4 -13.1 48.85 -13.2 48.85 -13.15 48.8 -13.1 48.85 -11.1 47.8 -8.8 39.7 Q-4.35 35.25 -0.35 29.5 8.4 25.95 12.95 23.35 18.05 26.8 23.65 28.4" fill="none" stroke="#191512" stroke-linecap="round" stroke-linejoin="bevel" stroke-width="1.5"/>
    <path d="M43.5 52.15 L45.6 51.1 50.5 55.3 43.5 52.15" fill="#343129" fill-rule="evenodd" stroke="none"/>
    <path d="M-18.7 46.05 L-32.75 38.6 -26.9 35.15 -26.9 35.25 -26.85 35.15 -26.8 35.1 -21.9 37.8 -22.45 38.6 -22.7 39.55 Q-22.75 40.3 -20.8 41.35 L-17.95 42.75 -18.7 46.05" fill="url(#gradient0)" fill-rule="evenodd" stroke="none"/>
    <path d="M17.7 37.2 Q15.35 39.05 7.7 48.85 L2.2 46.1 2.8 45.1 Q6.6 39.5 10.6 35.25 L11.5 34.3 17.7 37.2" fill="url(#gradient1)" fill-rule="evenodd" stroke="none"/>
    <path d="M7.7 48.85 L5.6 58.15 0.1 55.4 2.2 46.1 7.7 48.85 M-11.15 39.55 L-13.15 48.8 -18.7 46.05 -17.95 42.75 -16.65 36.8 -11.15 39.55 M34.45 54.35 L30.6 60.75 30.55 60.75 30.05 60.5 25.35 58.15 29.2 51.75 34.45 54.35 M-26.8 35.1 L-26.85 35.1 -23.15 28.9 -17.9 31.5 -17.95 31.65 -21.45 37.4 -21.8 37.75 -21.9 37.8 -26.8 35.1" fill="#8e8974" fill-rule="evenodd" stroke="none"/>
    <path d="M42.25 40.35 L44.2 39.25 Q49.8 44.15 59.8 44.8 L49.7 51.15 45.6 48.8 44.85 48.4 46.0 47.6 Q46.3 45.85 42.25 40.35" fill="#928c6c" fill-rule="evenodd" stroke="none"/>
    <path d="M44.2 39.25 L42.25 40.35 37.85 35.3 37.55 35.15 31.8 32.65 Q27.25 35.25 18.5 38.8 14.5 44.55 10.05 49.0 L9.75 48.95 9.7 50.35 7.85 57.05 7.75 57.1 5.65 58.15 5.6 58.15 7.7 48.85 Q15.35 39.05 17.7 37.2 25.45 34.6 31.0 31.05 L38.1 33.7 44.2 39.25" fill="url(#gradient2)" fill-rule="evenodd" stroke="none"/>
    <path d="M12.15 21.75 L19.25 24.35 23.65 28.4 Q18.05 26.8 12.95 23.35 8.4 25.95 -0.35 29.5 -4.35 35.25 -8.8 39.7 L-11.1 47.8 -13.1 48.85 -13.15 48.8 -11.15 39.55 Q-3.5 29.75 -1.15 27.9 L1.6 26.95 Q7.6 24.65 12.15 21.75" fill="url(#gradient3)" fill-rule="evenodd" stroke="none"/>
    <path d="M5.65 58.15 L7.75 57.1 7.8 57.1 16.65 60.4 Q20.85 61.9 25.35 58.15 L30.05 60.5 30.55 60.75 21.9 64.15 19.8 64.9 Q11.7 62.25 5.65 58.15" fill="url(#gradient4)" fill-rule="evenodd" stroke="none"/>
    <path d="M5.6 58.15 L5.65 58.15 Q11.7 62.25 19.8 64.9 L19.4 65.0 19.95 64.95 Q18.4 70.45 19.4 73.4 -7.7 58.35 -30.85 48.35 -31.1 42.7 -32.75 38.6 L-18.7 46.05 -13.15 48.8 -13.2 48.85 -13.1 48.85 0.1 55.4 5.6 58.15" fill="url(#gradient5)" fill-rule="evenodd" stroke="none"/>
    <path d="M45.6 48.8 L49.7 51.15 59.8 44.8 58.95 53.6 Q54.6 54.2 50.5 55.3 L45.6 51.1 43.5 52.15 35.55 55.95 35.4 56.15 31.25 63.95 27.15 66.8 26.75 67.1 Q23.0 69.95 19.4 73.4 18.4 70.45 19.95 64.95 L19.8 64.9 21.9 64.15 30.55 60.75 30.6 60.75 34.45 54.35 Q42.05 51.5 45.6 48.8" fill="url(#gradient6)" fill-rule="evenodd" stroke="none"/>
    <path d="M44.85 48.4 L45.6 48.8 Q42.05 51.5 34.45 54.35 L29.2 51.75 40.35 46.2 44.85 48.4" fill="url(#gradient7)" fill-rule="evenodd" stroke="none"/>
    <path d="M31.0 31.05 Q25.45 34.6 17.7 37.2 L11.5 34.3 Q16.6 31.3 23.65 28.4 L24.7 27.95 25.2 28.15 31.0 31.05" fill="url(#gradient8)" fill-rule="evenodd" stroke="none"/>
    <path d="M-7.35 25.0 Q-6.25 24.35 -5.15 23.8 L-4.75 23.55 Q0.55 20.65 5.9 18.7 L6.25 18.8 12.15 21.75 Q7.6 24.65 1.6 26.95 L-1.15 27.9 -7.35 25.0" fill="url(#gradient9)" fill-rule="evenodd" stroke="none"/>
    <path d="M-23.15 28.9 L-12.0 23.35 -7.75 25.45 -9.9 27.75 -10.25 28.15 -12.65 29.35 -17.85 31.5 -17.9 31.5 -23.15 28.9" fill="url(#gradient10)" fill-rule="evenodd" stroke="none"/>
    <path d="M-1.15 27.9 Q-3.5 29.75 -11.15 39.55 L-16.65 36.8 -15.3 34.8 -12.95 31.5 -12.55 31.0 -12.4 30.8 -11.35 29.5 -10.25 28.15 -9.9 27.75 -7.75 25.45 -7.35 25.0 -1.15 27.9" fill="url(#gradient11)" fill-rule="evenodd" stroke="none"/>
    <path d="M29.7 31.85 L25.15 34.25 25.1 34.3 21.55 34.75 20.95 34.75 23.95 33.9 Q27.5 32.6 27.5 31.1 27.5 30.45 25.45 29.25 L23.7 28.35 23.65 28.35 24.05 28.2 24.7 27.95 25.2 28.15 31.0 31.05 29.7 31.85 M17.7 37.2 L17.65 37.25 17.5 37.4 16.85 38.0 16.45 38.35 14.4 40.7 16.6 36.7 17.7 37.2 M32.3 57.85 L32.3 57.75 33.65 54.0 29.2 51.75 31.1 50.85 32.75 52.25 Q33.55 52.8 34.5 52.8 36.75 52.8 39.85 51.45 43.15 50.05 43.15 48.8 43.15 48.25 40.95 47.3 L39.95 46.9 39.85 46.4 40.35 46.2 45.6 48.8 43.2 50.4 42.1 51.0 41.0 51.55 40.85 51.65 37.4 53.2 37.1 53.3 37.0 53.35 34.45 54.35 32.3 57.85 M1.4 25.9 Q3.25 25.55 5.8 24.3 9.15 22.6 8.15 21.3 7.15 20.0 6.25 19.75 L4.75 19.15 5.9 18.7 6.25 18.8 12.15 21.75 10.85 22.55 6.3 24.95 4.75 25.05 Q2.7 25.85 1.4 25.9 M-1.15 27.9 L-1.2 27.95 -3.5 30.25 -2.05 27.5 -1.15 27.9 M-19.2 30.85 Q-21.2 29.9 -23.15 28.9 L-19.05 26.9 -19.35 27.75 -19.4 28.65 -19.25 30.8 -19.2 30.85" fill="#e5e4c9" fill-rule="evenodd" stroke="none"/>
    <path d="M32.3 57.75 Q32.0 56.7 31.3 55.8 30.1 54.25 28.3 54.25 L27.65 54.4 29.2 51.75 33.65 54.0 32.3 57.75 M-12.4 43.3 L-13.25 42.3 Q-14.75 40.75 -16.15 40.75 -16.75 40.75 -17.65 41.3 L-16.65 36.8 -12.1 39.1 -12.4 43.3 M6.4 52.1 L6.05 51.45 Q4.8 49.25 2.9 49.25 2.5 49.25 1.55 49.9 L1.3 50.1 2.2 46.1 6.9 48.45 6.4 52.1 M-19.2 30.85 L-17.9 31.5 -17.95 31.65 -20.05 35.1 Q-20.15 34.0 -20.65 33.1 -21.6 31.4 -23.4 31.4 -23.95 31.4 -24.65 31.85 L-24.9 31.95 -24.95 32.0 -25.0 32.0 -23.15 28.9 Q-21.2 29.9 -19.2 30.85" fill="#7b7765" fill-rule="evenodd" stroke="none"/>
    <path d="M44.2 39.25 L42.25 40.35 37.85 35.3 37.55 35.15 31.8 32.65 29.85 33.7 30.0 32.65 29.7 31.85 31.0 31.05 38.1 33.7 44.2 39.25 M8.25 48.15 L9.1 49.55 9.3 49.8 9.05 50.05 9.7 50.35 7.85 57.05 7.75 57.1 5.65 58.15 5.6 58.15 5.75 57.45 7.7 48.85 8.0 48.5 8.25 48.15 M30.55 60.75 L30.6 60.75 32.3 57.85 34.45 54.35 37.0 53.35 Q34.7 55.0 32.55 59.0 31.45 61.0 30.2 62.1 29.2 62.95 28.05 63.25 20.1 65.35 20.05 72.8 L19.4 73.4 Q18.4 70.45 19.95 64.95 L19.8 64.9 21.9 64.15 25.95 62.6 27.45 62.05 29.55 61.15 30.55 60.75 M45.6 48.8 L49.55 51.05 49.7 51.15 59.8 44.8 59.25 50.9 Q58.45 50.05 56.9 50.05 55.4 50.05 54.2 50.7 L50.6 52.65 47.65 50.4 Q46.75 49.8 45.35 49.8 L43.75 50.2 43.2 50.4 45.6 48.8 M12.15 21.75 L19.25 24.35 23.6 28.35 22.65 28.1 Q17.6 26.5 12.95 23.35 L11.8 24.0 11.7 23.7 Q11.6 22.95 10.85 22.55 L12.15 21.75 M-9.4 37.35 Q-9.15 38.35 -8.6 38.7 L-7.9 38.8 -8.8 39.7 -11.1 47.8 -13.1 48.85 -13.15 48.8 -12.65 46.6 -11.15 39.55 -9.4 37.35" fill="#463d35" fill-rule="evenodd" stroke="none"/>
    <path d="M12.2 43.25 L8.8 47.45 8.25 48.15 8.0 48.5 7.7 48.85 6.9 48.45 2.2 46.1 2.8 45.1 6.15 40.5 6.85 40.85 Q5.75 42.55 5.55 44.1 5.65 44.65 6.1 45.1 6.6 45.65 7.15 45.65 8.55 45.65 11.45 42.95 L12.2 43.25 M8.9 59.0 Q16.25 62.55 18.25 63.15 L15.35 62.75 Q13.05 62.25 10.75 61.15 L10.1 60.85 9.3 60.4 7.25 59.2 8.6 59.05 8.9 59.0 M19.45 63.25 Q21.2 63.05 24.75 61.85 L28.45 60.35 28.95 59.95 30.55 60.75 29.55 61.15 27.45 62.05 25.95 62.6 21.35 63.25 19.45 63.25 M19.4 73.4 L19.05 73.2 18.9 72.4 Q18.4 69.9 18.4 68.9 L18.45 68.2 18.5 67.75 18.8 64.55 19.8 64.9 19.4 65.0 19.95 64.95 Q18.4 70.45 19.4 73.4 M-32.75 38.6 L-28.3 36.0 -28.9 36.85 -29.0 37.7 Q-29.0 39.15 -25.55 41.5 L-21.05 44.8 -32.75 38.6 M-16.65 36.8 L-15.3 34.8 -12.95 31.5 -12.55 31.0 -12.4 30.8 -12.3 30.7 -12.05 30.35 -11.2 30.85 Q-13.05 33.55 -13.05 35.1 L-12.8 36.35 -12.25 36.9 Q-9.95 36.9 -6.8 33.2 L-6.3 33.5 -8.75 36.5 -9.4 37.35 -11.15 39.55 Q-11.6 39.3 -12.1 39.1 L-16.65 36.8" fill="#dbd7c5" fill-rule="evenodd" stroke="none"/>
    <path d="M49.55 51.05 Q50.95 50.4 52.15 49.2 L52.65 48.7 Q53.85 47.2 53.85 45.55 L53.85 45.15 53.75 44.0 53.7 43.95 59.55 44.8 59.8 44.8 49.7 51.15 49.55 51.05" fill="#c6bfac" fill-rule="evenodd" stroke="none"/>
    <path d="M44.2 39.25 L44.55 39.55 44.95 39.85 48.1 41.85 49.25 42.45 48.15 43.15 Q45.95 44.9 46.0 47.0 L46.0 47.1 45.85 46.35 43.3 41.8 42.65 40.85 42.25 40.35 44.2 39.25 M7.75 57.1 L7.8 57.1 12.5 58.85 10.65 58.9 8.9 59.0 8.6 59.05 7.25 59.2 5.65 58.15 7.75 57.1 M28.45 60.35 L27.9 60.0 Q26.25 59.15 24.85 59.15 L23.6 59.45 25.35 58.15 28.95 59.95 28.45 60.35 M-20.45 45.15 Q-21.15 43.55 -22.5 41.8 -24.05 39.85 -24.05 38.65 L-23.95 38.05 -25.2 37.15 -27.55 35.55 -26.9 35.15 -26.9 35.25 -26.85 35.15 -26.8 35.1 -21.9 37.8 -22.45 38.6 -22.7 39.55 Q-22.75 40.3 -20.8 41.35 L-17.95 42.75 -18.7 46.05 -20.4 45.15 -20.45 45.15" fill="#7b7658" fill-rule="evenodd" stroke="none"/>
    <path d="M-10.25 28.15 L-12.65 29.35 -13.2 29.6 -16.35 30.95 Q-14.75 28.05 -14.75 26.55 -14.75 25.8 -15.15 24.95 L-12.0 23.35 -7.75 25.45 -9.9 27.75 -10.25 28.15" fill="#93846c" fill-rule="evenodd" stroke="none"/>
    <path d="M25.1 34.3 Q21.7 35.85 17.7 37.2 L16.6 36.7 16.05 36.45 12.7 34.9 11.5 34.3 11.6 34.25 11.7 34.2 13.35 33.25 14.1 32.85 14.9 32.45 14.85 32.9 Q14.85 33.85 15.95 34.45 17.0 35.0 18.4 35.0 L20.95 34.75 21.55 34.75 25.1 34.3 M-7.35 25.0 Q-6.25 24.35 -5.15 23.8 L-4.75 23.55 -3.8 23.05 -3.95 23.3 -4.0 23.95 Q-4.0 25.0 -2.9 25.6 -2.0 26.15 0.2 26.05 L1.4 25.9 Q2.7 25.85 4.75 25.05 L6.3 24.95 1.6 26.95 -1.15 27.9 -2.05 27.5 -2.6 27.2 -6.7 25.3 -7.35 25.0" fill="#eeeddd" fill-rule="evenodd" stroke="none"/>
    <path d="M14.4 40.7 L12.2 43.25 11.45 42.95 12.5 41.95 13.55 40.9 14.7 38.75 16.05 36.45 16.6 36.7 14.4 40.7 M-12.05 30.35 L-11.7 29.95 -11.35 29.5 -10.25 28.15 -9.9 27.75 -7.75 25.45 -7.35 25.0 -6.7 25.3 Q-9.65 28.5 -11.2 30.85 L-12.05 30.35 M-3.5 30.25 L-3.55 30.3 -6.3 33.5 -6.8 33.2 -6.0 32.2 -2.6 27.2 -2.05 27.5 -3.5 30.25 M6.15 40.5 L7.25 39.1 7.3 39.0 10.6 35.25 10.7 35.15 11.0 34.8 11.35 34.5 11.45 34.35 11.5 34.3 12.7 34.9 Q9.7 37.45 8.35 38.9 L6.85 40.85 6.15 40.5" fill="#ccc6b4" fill-rule="evenodd" stroke="none"/>
    <path d="M18.25 63.15 L18.8 63.25 19.45 63.25 21.35 63.25 25.95 62.6 21.9 64.15 19.8 64.9 18.8 64.55 Q14.45 63.1 10.75 61.15 13.05 62.25 15.35 62.75 L18.25 63.15" fill="#f5f1e1" fill-rule="evenodd" stroke="none"/>
    <path d="M-12.65 46.45 L-12.4 43.3 -12.1 39.1 Q-11.6 39.3 -11.15 39.55 L-12.65 46.6 -12.65 46.45 M5.75 57.45 L6.4 52.1 6.9 48.45 7.7 48.85 5.75 57.45" fill="#d1cebd" fill-rule="evenodd" stroke="none"/>
    <path d="M18.5 67.75 Q17.95 66.75 15.55 65.25 12.4 63.35 10.2 63.35 8.2 63.35 7.6 64.35 7.3 64.95 7.15 66.75 -8.25 58.55 -22.3 52.15 L-21.4 51.15 Q-20.55 50.05 -20.3 49.15 -21.25 46.55 -22.6 45.3 -23.25 44.7 -25.75 43.6 -28.7 42.35 -30.45 42.35 L-31.55 42.45 -32.75 38.6 -21.05 44.8 -20.45 45.15 -20.4 45.15 -18.7 46.05 -16.25 47.25 Q-15.65 46.65 -14.75 46.4 L-12.65 46.45 -12.65 46.6 -13.15 48.8 -13.2 48.85 -13.1 48.85 0.1 55.4 0.7 52.7 Q2.55 53.35 3.25 54.65 L4.15 57.45 5.6 58.15 5.65 58.15 7.25 59.2 9.3 60.4 10.1 60.85 10.75 61.15 Q14.45 63.1 18.8 64.55 L18.5 67.75" fill="#746d5b" fill-rule="evenodd" stroke="none"/>
    <path d="M-22.3 52.15 L-23.8 51.45 Q-23.15 50.65 -23.15 49.45 -23.15 48.0 -24.4 46.8 -25.85 45.4 -28.2 45.4 L-31.0 45.95 Q-31.2 44.1 -31.55 42.45 L-30.45 42.35 Q-28.7 42.35 -25.75 43.6 -23.25 44.7 -22.6 45.3 -21.25 46.55 -20.3 49.15 -20.55 50.05 -21.4 51.15 L-22.3 52.15" fill="#867967" fill-rule="evenodd" stroke="none"/>
    <path d="M-23.8 51.45 L-30.85 48.35 -31.0 45.95 -28.2 45.4 Q-25.85 45.4 -24.4 46.8 -23.15 48.0 -23.15 49.45 -23.15 50.65 -23.8 51.45 M9.6 67.55 Q10.85 66.85 12.35 66.85 14.9 66.85 16.35 68.9 17.3 70.3 17.6 72.4 L9.2 67.85 9.6 67.55" fill="#988a77" fill-rule="evenodd" stroke="none"/>
    <path d="M52.65 48.7 L52.2 48.85 50.35 49.1 Q47.95 49.1 47.95 47.0 47.95 46.05 48.7 45.4 49.6 44.55 51.25 44.55 L52.4 44.6 53.85 45.15 53.85 45.55 Q53.85 47.2 52.65 48.7" fill="#a39d7b" fill-rule="evenodd" stroke="none"/>
  </g>
  <defs>
    <radialGradient cx="0" cy="0" gradientTransform="matrix(0.0165, 0.0, 0.0, 0.0165, -29.7, 38.15)" gradientUnits="userSpaceOnUse" id="gradient0" r="819.2" spreadMethod="pad">
      <stop offset="0.0" stop-color="#d5d2c2"/>
      <stop offset="0.023529411764705882" stop-color="#d4d1c0"/>
      <stop offset="0.6666666666666666" stop-color="#aa9c85"/>
    </radialGradient>
    <radialGradient cx="0" cy="0" gradientTransform="matrix(0.019, 0.0, 0.0, 0.019, 6.05, 46.6)" gradientUnits="userSpaceOnUse" id="gradient1" r="819.2" spreadMethod="pad">
      <stop offset="0.0" stop-color="#d5d2c2"/>
      <stop offset="0.023529411764705882" stop-color="#d4d1c0"/>
      <stop offset="0.6666666666666666" stop-color="#aa9c85"/>
    </radialGradient>
    <radialGradient cx="0" cy="0" gradientTransform="matrix(0.0386, 0.0, 0.0, 0.0386, 12.9, 43.95)" gradientUnits="userSpaceOnUse" id="gradient2" r="819.2" spreadMethod="pad">
      <stop offset="0.050980392156862744" stop-color="#574c42"/>
      <stop offset="0.7176470588235294" stop-color="#5f5f46"/>
    </radialGradient>
    <radialGradient cx="0" cy="0" gradientTransform="matrix(0.039, 0.0, 0.0, 0.039, -7.1, 37.1)" gradientUnits="userSpaceOnUse" id="gradient3" r="819.2" spreadMethod="pad">
      <stop offset="0.050980392156862744" stop-color="#574c42"/>
      <stop offset="0.7176470588235294" stop-color="#5f5f46"/>
    </radialGradient>
    <radialGradient cx="0" cy="0" gradientTransform="matrix(0.0331, 0.0, 0.0, 0.0201, 20.55, 65.0)" gradientUnits="userSpaceOnUse" id="gradient4" r="819.2" spreadMethod="pad">
      <stop offset="0.0" stop-color="#d5d2c2"/>
      <stop offset="0.023529411764705882" stop-color="#d4d1c0"/>
      <stop offset="0.6666666666666666" stop-color="#aa9c85"/>
    </radialGradient>
    <radialGradient cx="0" cy="0" gradientTransform="matrix(0.0698, 0.0241, -0.0043, 0.0125, 4.5, 62.9)" gradientUnits="userSpaceOnUse" id="gradient5" r="819.2" spreadMethod="pad">
      <stop offset="0.0" stop-color="#8a7b69"/>
      <stop offset="0.5686274509803921" stop-color="#777360"/>
      <stop offset="1.0" stop-color="#746955"/>
    </radialGradient>
    <radialGradient cx="0" cy="0" gradientTransform="matrix(0.1072, 0.0, 0.0, 0.0543, 22.4, 68.95)" gradientUnits="userSpaceOnUse" id="gradient6" r="819.2" spreadMethod="pad">
      <stop offset="0.050980392156862744" stop-color="#574c42"/>
      <stop offset="0.7176470588235294" stop-color="#5f5f46"/>
    </radialGradient>
    <radialGradient cx="0" cy="0" gradientTransform="matrix(0.0292, 0.0, 0.0, 0.0164, 32.65, 52.4)" gradientUnits="userSpaceOnUse" id="gradient7" r="819.2" spreadMethod="pad">
      <stop offset="0.0" stop-color="#d5d2c2"/>
      <stop offset="0.023529411764705882" stop-color="#d4d1c0"/>
      <stop offset="0.6666666666666666" stop-color="#aa9c85"/>
    </radialGradient>
    <radialGradient cx="0" cy="0" gradientTransform="matrix(0.042, 0.0, 0.0, 0.0193, 16.6, 35.3)" gradientUnits="userSpaceOnUse" id="gradient8" r="819.2" spreadMethod="pad">
      <stop offset="0.0" stop-color="#d5d2c2"/>
      <stop offset="0.023529411764705882" stop-color="#d4d1c0"/>
      <stop offset="0.6666666666666666" stop-color="#aa9c85"/>
    </radialGradient>
    <radialGradient cx="0" cy="0" gradientTransform="matrix(0.0372, 0.0, 0.0, 0.0196, -3.65, 24.75)" gradientUnits="userSpaceOnUse" id="gradient9" r="819.2" spreadMethod="pad">
      <stop offset="0.0" stop-color="#d5d2c2"/>
      <stop offset="0.023529411764705882" stop-color="#d4d1c0"/>
      <stop offset="0.6666666666666666" stop-color="#aa9c85"/>
    </radialGradient>
    <radialGradient cx="0" cy="0" gradientTransform="matrix(0.0162, 0.0, 0.0, 0.0162, -22.6, 30.0)" gradientUnits="userSpaceOnUse" id="gradient10" r="819.2" spreadMethod="pad">
      <stop offset="0.0" stop-color="#d5d2c2"/>
      <stop offset="0.023529411764705882" stop-color="#d4d1c0"/>
      <stop offset="0.6666666666666666" stop-color="#aa9c85"/>
    </radialGradient>
    <radialGradient cx="0" cy="0" gradientTransform="matrix(0.0192, 0.0, 0.0, 0.0192, -12.35, 36.05)" gradientUnits="userSpaceOnUse" id="gradient11" r="819.2" spreadMethod="pad">
      <stop offset="0.0" stop-color="#d5d2c2"/>
      <stop offset="0.023529411764705882" stop-color="#d4d1c0"/>
      <stop offset="0.6666666666666666" stop-color="#aa9c85"/>
    </radialGradient>
  </defs>
</svg>
