<?xml version="1.0" encoding="UTF-8" standalone="no"?>
<svg xmlns:ffdec="https://www.free-decompiler.com/flash" xmlns:xlink="http://www.w3.org/1999/xlink" ffdec:objectType="shape" height="37.5px" width="68.7px" xmlns="http://www.w3.org/2000/svg">
  <g transform="matrix(1.0, 0.0, 0.0, 1.0, 23.35, -19.45)">
    <path d="M-1.0 25.6 Q7.75 22.05 12.3 19.45 17.4 22.9 23.0 24.5 15.95 27.4 10.85 30.4 L9.95 31.35 Q2.15 28.5 -1.0 25.6" fill="url(#gradient0)" fill-rule="evenodd" stroke="none"/>
    <path d="M9.95 31.35 Q5.95 35.6 2.15 41.2 -4.75 39.35 -9.45 35.8 -5.0 31.35 -1.0 25.6 2.15 28.5 9.95 31.35" fill="url(#gradient1)" fill-rule="evenodd" stroke="none"/>
    <path d="M37.2 31.4 Q39.8 40.25 43.05 43.95 L39.7 42.3 39.2 42.5 Q34.9 37.95 31.15 28.75 L37.2 31.4" fill="#ac1438" fill-rule="evenodd" stroke="none"/>
    <path d="M37.2 31.4 L41.6 36.45 Q45.65 41.95 45.35 43.7 L44.2 44.5 43.05 43.95 Q39.8 40.25 37.2 31.4 M2.15 41.2 L1.55 42.2 -0.55 51.5 -13.75 44.95 -11.75 43.9 -9.45 35.8 Q-4.75 39.35 2.15 41.2" fill="#76132e" fill-rule="evenodd" stroke="none"/>
    <path d="M-15.95 30.9 L-17.3 32.9 -18.6 38.85 -21.45 37.45 Q-23.4 36.4 -23.35 35.65 L-23.1 34.7 -22.55 33.9 -22.4 34.0 -22.1 33.5 Q-17.9 32.75 -15.95 30.9" fill="#871728" fill-rule="evenodd" stroke="none"/>
    <path d="M-22.1 33.5 L-18.6 27.75 -13.6 27.6 -15.95 30.9 Q-17.9 32.75 -22.1 33.5" fill="#d01e4e" fill-rule="evenodd" stroke="none"/>
    <path d="M-18.6 27.75 L-18.55 27.6 -18.5 27.6 -13.3 25.45 -10.9 24.25 -12.0 25.6 -13.05 26.9 -13.2 27.1 -13.6 27.6 -18.6 27.75" fill="#9d242d" fill-rule="evenodd" stroke="none"/>
    <path d="M39.2 42.5 L29.65 47.3 Q23.05 43.9 17.85 34.9 26.6 31.35 31.15 28.75 34.9 37.95 39.2 42.5" fill="url(#gradient2)" fill-rule="evenodd" stroke="none"/>
    <path d="M29.65 47.3 L28.55 47.85 24.7 54.25 Q18.5 52.7 14.2 49.65 L12.05 47.95 9.4 45.1 Q13.85 40.65 17.85 34.9 23.05 43.9 29.65 47.3" fill="url(#gradient3)" fill-rule="evenodd" stroke="none"/>
    <path d="M24.7 54.25 Q20.2 58.0 16.0 56.5 L7.15 53.2 7.2 53.15 9.4 45.1 12.05 47.95 14.2 49.65 Q18.5 52.7 24.7 54.25" fill="url(#gradient4)" fill-rule="evenodd" stroke="none"/>
    <path d="M-18.6 27.75 L-13.6 27.6 -15.95 30.9 -17.35 31.95 -17.0 30.95 Q-17.0 30.4 -17.55 29.4 -18.2 28.3 -18.8 28.3 L-18.9 28.3 -18.6 27.75" fill="#b8254f" fill-rule="evenodd" stroke="none"/>
    <path d="M-18.6 27.75 L-18.55 27.6 -18.5 27.6 -13.3 25.45 -10.9 24.25 -12.0 25.6 -13.05 26.9 -13.2 27.1 -13.6 27.6 -18.6 27.75" fill="#76132e" fill-rule="evenodd" stroke="none"/>
    <path d="M-23.1 34.7 L-22.85 34.35 -22.5 34.35 Q-21.0 34.35 -20.1 35.5 -19.25 36.5 -19.25 37.95 L-19.35 38.55 -21.45 37.45 Q-23.4 36.4 -23.35 35.65 L-23.1 34.7" fill="#a41b29" fill-rule="evenodd" stroke="none"/>
    <path d="M9.4 45.1 L12.05 47.95 14.2 49.65 Q16.05 50.95 18.25 52.0 L22.05 53.5 24.7 54.25 22.6 55.75 Q19.7 57.4 16.9 56.75 18.4 56.45 18.7 55.95 L18.85 54.3 18.85 53.8 Q13.4 51.1 11.45 51.1 10.6 51.1 9.25 51.75 8.55 52.1 8.1 52.55 L7.7 52.95 7.2 53.15 9.4 45.1" fill="#951b28" fill-rule="evenodd" stroke="none"/>
    <path d="M25.5 47.1 Q25.3 45.3 22.2 42.6 18.6 39.55 15.55 39.55 15.0 39.55 13.95 40.1 L17.85 34.9 Q21.7 41.5 26.25 45.15 L26.25 45.75 Q26.1 46.55 25.5 47.1" fill="#9a1a3b" fill-rule="evenodd" stroke="none"/>
    <path d="M40.8 40.65 Q41.9 42.65 43.05 43.95 L39.7 42.3 39.2 42.5 Q37.6 40.8 36.05 38.45 33.5 34.5 31.15 28.75 L37.2 31.4 37.85 33.45 37.3 33.25 Q36.85 33.25 36.5 33.8 36.15 34.3 36.15 34.65 36.15 35.9 38.0 38.35 39.45 40.3 40.8 40.65" fill="#931936" fill-rule="evenodd" stroke="none"/>
    <path d="M43.05 43.95 Q41.9 42.65 40.8 40.65 39.25 37.75 37.85 33.45 L37.2 31.4 41.6 36.45 41.4 36.6 Q41.1 36.9 41.1 37.25 41.1 39.4 42.85 41.2 L45.35 43.65 45.35 43.7 44.2 44.5 43.05 43.95 M2.15 41.2 L1.55 42.2 -0.55 51.5 -3.5 50.05 Q-2.6 49.5 -1.9 48.35 -0.8 46.65 -0.8 45.65 -0.8 43.95 -1.45 42.4 L-2.95 39.5 1.0 40.9 2.15 41.2 M-6.05 38.0 Q-8.55 37.95 -10.9 41.0 L-9.45 35.8 -6.05 38.0" fill="#5b1326" fill-rule="evenodd" stroke="none"/>
    <path d="M9.4 45.1 L11.05 43.45 Q16.95 51.2 24.15 52.45 L23.45 53.05 23.0 53.25 22.05 53.5 18.25 52.0 Q16.05 50.95 14.2 49.65 L12.05 47.95 9.4 45.1" fill="#e9578e" fill-rule="evenodd" stroke="none"/>
    <path d="M26.25 45.15 Q21.7 41.5 17.85 34.9 26.6 31.35 31.15 28.75 33.5 34.5 36.05 38.45 34.1 37.5 32.7 34.45 31.05 30.8 30.3 30.8 L25.9 33.25 Q21.6 35.85 21.6 36.8 21.6 38.35 24.15 41.75 L26.3 44.55 27.35 45.95 26.25 45.15" fill="#e95384" fill-rule="evenodd" stroke="none"/>
    <path d="M-1.0 25.6 L8.05 21.65 6.55 22.8 Q4.3 24.75 4.3 26.15 4.3 27.8 6.65 28.55 9.0 29.25 9.0 29.95 L8.8 30.95 Q1.9 28.3 -1.0 25.6" fill="#ff80a7" fill-rule="evenodd" stroke="none"/>
    <path d="M13.4 22.55 Q15.75 22.55 18.05 23.7 L21.1 25.3 Q17.55 26.85 14.5 28.4 10.9 28.0 10.9 25.0 10.9 23.6 11.45 23.1 12.0 22.55 13.4 22.55" fill="#e24d7b" fill-rule="evenodd" stroke="none"/>
    <path d="M8.8 30.95 L9.95 31.35 Q5.95 35.6 2.15 41.2 L1.0 40.9 2.45 39.0 Q4.6 36.0 4.6 34.5 4.6 32.85 2.45 31.05 0.4 29.4 -1.1 29.4 -2.45 29.4 -4.05 30.35 L-3.85 29.5 -1.0 25.6 Q1.9 28.3 8.8 30.95" fill="#c92a60" fill-rule="evenodd" stroke="none"/>
    <path d="M-2.95 39.5 L-6.05 38.0 -9.45 35.8 Q-7.2 33.55 -5.1 31.0 L-4.05 30.35 -4.65 31.95 Q-5.0 32.8 -5.0 33.8 -5.0 36.4 -2.65 37.8 -0.6 39.0 2.4 39.0 L2.45 39.0 1.0 40.9 -2.95 39.5" fill="#ec528c" fill-rule="evenodd" stroke="none"/>
    <path d="M30.45 46.9 Q28.75 45.25 28.75 43.4 28.75 42.0 31.0 41.2 32.55 40.65 33.8 40.65 36.0 40.65 36.9 41.4 L38.25 43.0 30.45 46.9" fill="#bd2951" fill-rule="evenodd" stroke="none"/>
    <path d="M25.5 47.1 Q26.1 46.55 26.25 45.75 L26.25 45.15 27.35 45.95 29.65 47.3 28.55 47.85 24.7 54.25 22.05 53.5 23.0 53.25 23.45 53.05 23.6 52.95 24.4 52.45 24.15 52.45 Q24.8 51.75 25.1 50.75 25.5 49.55 25.5 47.3 L25.5 47.1" fill="#871633" fill-rule="evenodd" stroke="none"/>
  </g>
  <defs>
    <radialGradient cx="0" cy="0" gradientTransform="matrix(0.0172, 0.0, 0.0, 0.0172, 8.95, 25.25)" gradientUnits="userSpaceOnUse" id="gradient0" r="819.2" spreadMethod="pad">
      <stop offset="0.023529411764705882" stop-color="#ee668f"/>
      <stop offset="0.8235294117647058" stop-color="#f74e83"/>
    </radialGradient>
    <radialGradient cx="0" cy="0" gradientTransform="matrix(0.0302, 0.0, 0.0, 0.0198, -5.25, 42.65)" gradientUnits="userSpaceOnUse" id="gradient1" r="819.2" spreadMethod="pad">
      <stop offset="0.0" stop-color="#ee668f"/>
      <stop offset="0.5254901960784314" stop-color="#de3d7b"/>
      <stop offset="1.0" stop-color="#de2f65"/>
    </radialGradient>
    <radialGradient cx="0" cy="0" gradientTransform="matrix(0.0336, 0.0, 0.0, 0.0192, 26.4, 34.35)" gradientUnits="userSpaceOnUse" id="gradient2" r="819.2" spreadMethod="pad">
      <stop offset="0.023529411764705882" stop-color="#e3447a"/>
      <stop offset="0.8235294117647058" stop-color="#c8254f"/>
    </radialGradient>
    <radialGradient cx="0" cy="0" gradientTransform="matrix(0.0368, 0.031, -0.0117, 0.0139, 13.4, 47.65)" gradientUnits="userSpaceOnUse" id="gradient3" r="819.2" spreadMethod="pad">
      <stop offset="0.08627450980392157" stop-color="#d53772"/>
      <stop offset="0.6705882352941176" stop-color="#af2044"/>
      <stop offset="1.0" stop-color="#ac1c3a"/>
    </radialGradient>
    <radialGradient cx="0" cy="0" gradientTransform="matrix(0.0421, 0.0125, -0.0042, 0.0142, 13.4, 56.85)" gradientUnits="userSpaceOnUse" id="gradient4" r="819.2" spreadMethod="pad">
      <stop offset="0.08627450980392157" stop-color="#c9295a"/>
      <stop offset="0.6705882352941176" stop-color="#a01a24"/>
    </radialGradient>
  </defs>
</svg>
