<?xml version="1.0" encoding="UTF-8" standalone="no"?>
<svg xmlns:ffdec="https://www.free-decompiler.com/flash" xmlns:xlink="http://www.w3.org/1999/xlink" ffdec:objectType="shape" height="34.55px" width="44.5px" xmlns="http://www.w3.org/2000/svg">
  <g transform="matrix(1.0, 0.0, 0.0, 1.0, 22.25, 17.25)">
    <path d="M-20.85 -7.25 L-20.4 -7.85 -19.6 -7.8 -17.55 -7.8 -13.4 -8.15 Q-11.8 -8.4 -11.3 -8.85 L-10.8 -8.6 -12.95 -7.75 Q-15.35 -7.05 -17.65 -7.05 L-20.85 -7.25 M-20.5 -5.35 L-22.25 -5.6 -21.8 -6.1 -20.85 -5.9 -18.95 -5.85 Q-13.35 -5.85 -8.65 -7.65 L-8.3 -7.5 -7.45 -7.2 -9.95 -6.2 Q-13.05 -5.05 -17.5 -5.05 L-20.5 -5.35 M-14.3 -0.6 L-11.25 -0.45 -11.65 0.15 -15.55 0.35 -20.5 0.8 -21.45 0.3 -19.05 -0.35 -14.3 -0.6 M-17.25 -2.9 L-19.4 -3.25 -12.95 -2.6 -11.65 -2.6 -9.45 -2.75 -9.5 -2.65 -11.4 -2.4 -11.45 -2.5 -11.6 -2.4 -11.4 -2.4 Q-11.4 -2.05 -14.0 -2.4 L-17.25 -2.9" fill="#9a2a52" fill-rule="evenodd" stroke="none"/>
    <path d="M-8.25 -13.6 L-6.95 -14.15 -4.2 -14.55 -0.85 -14.0 Q0.7 -13.45 0.7 -12.6 0.7 -10.85 -4.5 -10.85 L-9.35 -11.3 -11.35 -11.75 -12.55 -12.15 -13.1 -12.25 -13.7 -12.35 -14.1 -12.4 -15.85 -12.85 -14.4 -13.45 -11.0 -12.55 -5.95 -11.7 Q-0.95 -11.65 -0.95 -12.7 -0.95 -13.05 -2.15 -13.5 L-4.8 -14.0 -5.85 -13.85 -6.65 -13.7 -6.55 -13.3 Q-6.15 -13.2 -5.8 -12.85 L-7.55 -13.05 -8.25 -13.6 M-6.05 -17.25 L-5.3 -17.15 -2.9 -16.95 -1.4 -17.1 0.25 -16.2 -1.25 -16.1 -7.1 -16.75 -6.05 -17.25" fill="#a13355" fill-rule="evenodd" stroke="none"/>
    <path d="M15.95 -7.45 L14.95 -4.15 Q16.05 0.25 17.45 3.4 18.35 5.5 19.15 6.55 L18.55 6.85 Q14.85 0.8 14.7 -3.35 14.25 -1.55 14.25 -0.05 14.25 1.55 14.85 4.75 L15.75 8.25 15.05 8.6 Q12.55 7.3 11.4 5.8 10.15 4.2 9.5 1.3 L8.7 -3.05 8.2 -5.8 10.1 -6.65 9.7 -3.2 Q9.7 -1.4 10.35 1.3 10.85 3.65 11.4 4.8 11.85 5.85 13.1 6.95 14.35 8.05 15.0 8.05 13.75 3.8 13.75 1.0 13.75 -1.1 14.2 -3.1 L14.55 -4.35 15.75 -7.9 15.95 -7.45 M3.05 11.05 Q5.8 11.05 8.7 12.4 L10.5 13.3 10.1 13.95 Q5.45 11.65 2.3 11.65 L-1.05 12.15 -1.5 11.85 0.25 11.45 3.05 11.05 M8.15 5.3 Q5.0 6.9 -2.05 6.9 L-4.55 6.85 -5.95 6.45 -5.6 6.05 -3.05 6.45 -0.15 6.5 5.45 5.85 Q7.1 5.45 7.85 4.95 L8.15 5.3 M4.05 3.55 L-0.75 4.25 -2.45 4.2 -3.7 4.0 -3.05 3.3 -2.95 3.15 -1.35 3.35 0.4 3.55 Q2.3 3.55 3.9 2.85 L5.35 2.15 6.0 2.9 4.05 3.55" fill="#851a38" fill-rule="evenodd" stroke="none"/>
    <path d="M21.1 -2.25 L22.1 -3.85 22.25 -3.35 21.8 -2.6 Q20.9 -0.9 20.9 0.55 L21.15 2.05 20.3 0.75 20.1 0.45 Q20.2 -0.5 21.1 -2.25 M1.7 15.8 Q-1.0 16.95 -3.2 17.3 L-5.85 16.35 -4.25 16.4 Q-1.3 16.4 0.15 15.75 L3.0 14.35 3.9 14.7 1.7 15.8" fill="#741326" fill-rule="evenodd" stroke="none"/>
  </g>
</svg>
