<?xml version="1.0" encoding="UTF-8" standalone="no"?>
<svg xmlns:ffdec="https://www.free-decompiler.com/flash" xmlns:xlink="http://www.w3.org/1999/xlink" ffdec:objectType="shape" height="27.0px" width="29.95px" xmlns="http://www.w3.org/2000/svg">
  <g transform="matrix(1.0, 0.0, 0.0, 1.0, 22.6, -42.35)">
    <path d="M0.7 53.4 Q0.4 55.1 0.05 55.3 L0.1 55.3 Q1.15 55.35 1.9 56.3 L2.45 57.2 2.65 58.0 3.1 58.25 4.25 59.4 4.35 59.6 4.4 60.1 4.15 60.95 4.15 61.0 5.25 62.25 6.0 63.8 6.2 64.0 Q6.7 64.8 6.6 65.85 6.4 68.7 4.25 68.6 3.25 68.55 2.55 68.0 1.85 67.4 1.95 66.5 2.0 65.8 2.2 65.6 L2.2 65.55 2.15 65.45 2.25 65.5 Q2.6 64.75 3.25 64.85 L3.6 64.9 Q3.35 64.6 2.7 64.45 L1.3 64.5 1.05 64.85 Q0.35 65.9 -2.3 66.35 L-9.15 67.45 -13.45 63.1 Q-15.5 60.75 -16.6 58.75 -17.7 56.7 -17.6 55.5 L-17.2 54.6 -17.05 54.4 -17.35 53.8 -17.4 53.75 -17.55 53.6 -17.55 53.7 -17.6 53.9 Q-17.65 54.9 -18.8 55.4 L-19.6 55.6 Q-20.45 55.7 -21.15 54.95 -21.85 54.15 -21.85 53.15 -21.8 52.1 -20.95 51.35 L-20.9 51.3 -19.55 50.1 -18.0 49.8 -17.15 50.0 -16.95 50.05 -16.7 50.1 -16.65 50.15 -16.45 49.45 Q-16.0 48.5 -14.9 48.55 L-14.75 48.4 Q-14.1 47.65 -13.35 47.65 L-12.8 47.65 -12.3 47.8 -12.25 47.8 -12.1 47.6 -11.95 47.4 -11.8 47.2 -11.85 47.0 -11.9 46.0 Q-11.8 45.0 -10.75 44.15 L-10.15 43.8 Q-9.7 43.55 -9.25 43.55 L-7.8 43.1 Q-6.65 43.0 -5.75 44.55 -4.95 45.85 -5.0 46.65 -3.75 46.05 -2.6 46.1 -1.15 46.2 0.05 47.2 1.3 48.3 1.2 49.7 L0.7 53.4" fill="#83461f" fill-rule="evenodd" stroke="none"/>
    <path d="M0.7 53.4 Q0.4 55.1 0.05 55.3 L0.1 55.3 Q1.15 55.35 1.9 56.3 L2.45 57.2 2.65 58.0 3.1 58.25 4.25 59.4 4.35 59.6 4.4 60.1 4.15 60.95 4.15 61.0 5.25 62.25 6.0 63.8 6.2 64.0 Q6.7 64.8 6.6 65.85 6.4 68.7 4.25 68.6 3.25 68.55 2.55 68.0 1.85 67.4 1.95 66.5 2.0 65.8 2.2 65.6 L2.2 65.55 2.15 65.45 2.25 65.5 Q2.6 64.75 3.25 64.85 L3.6 64.9 Q3.35 64.6 2.7 64.45 L1.3 64.5 1.05 64.85 Q0.35 65.9 -2.3 66.35 L-9.15 67.45 -13.45 63.1 Q-15.5 60.75 -16.6 58.75 -17.7 56.7 -17.6 55.5 L-17.2 54.6 -17.05 54.4 -17.35 53.8 -17.4 53.75 -17.55 53.6 -17.55 53.7 -17.6 53.9 Q-17.65 54.9 -18.8 55.4 L-19.6 55.6 Q-20.45 55.7 -21.15 54.95 -21.85 54.15 -21.85 53.15 -21.8 52.1 -20.95 51.35 L-20.9 51.3 -19.55 50.1 -18.0 49.8 -17.15 50.0 -16.95 50.05 -16.7 50.1 -16.65 50.15 -16.45 49.45 Q-16.0 48.5 -14.9 48.55 L-14.75 48.4 Q-14.1 47.65 -13.35 47.65 L-12.8 47.65 -12.3 47.8 -12.25 47.8 -12.1 47.6 -11.95 47.4 -11.8 47.2 -11.85 47.0 -11.9 46.0 Q-11.8 45.0 -10.75 44.15 L-10.15 43.8 Q-9.7 43.55 -9.25 43.55 L-7.8 43.1 Q-6.65 43.0 -5.75 44.55 -4.95 45.85 -5.0 46.65 -3.75 46.05 -2.6 46.1 -1.15 46.2 0.05 47.2 1.3 48.3 1.2 49.7 L0.7 53.4 Z" fill="none" stroke="#592304" stroke-linecap="round" stroke-linejoin="bevel" stroke-width="1.5"/>
    <path d="M0.05 51.4 L0.1 50.7 Q0.25 49.2 -0.55 48.05 -1.35 46.85 -2.7 46.75 -4.45 46.7 -5.55 48.15 -6.55 49.35 -6.6 51.0 L-7.05 50.6 Q-6.55 48.55 -6.4 47.2 -6.3 45.85 -6.75 44.8 -7.3 43.75 -8.5 43.55 L-9.25 43.55 -7.8 43.1 Q-6.65 43.0 -5.75 44.55 -4.95 45.85 -5.0 46.65 -3.75 46.05 -2.6 46.1 -1.15 46.2 0.05 47.2 1.3 48.3 1.2 49.7 L0.7 53.4 Q0.4 55.1 0.05 55.3 L-0.15 55.3 -0.25 55.35 -0.25 55.4 -0.3 55.45 -0.3 55.4 -0.3 55.35 -0.45 53.55 -0.45 53.4 Q-1.1 54.15 -2.4 54.15 -3.4 54.15 -4.05 53.1 L-4.65 51.55 -4.7 51.35 -4.75 50.45 -4.6 49.9 Q-4.3 49.05 -3.7 49.05 -3.45 49.05 -3.0 49.35 L-3.7 49.55 -3.8 49.6 Q-4.15 49.9 -4.2 50.6 -4.25 51.4 -3.55 52.4 -2.9 53.35 -2.15 53.45 -1.45 53.6 -0.7 52.95 L-0.55 52.75 -0.25 52.25 0.05 51.4 M2.2 65.6 L2.2 65.55 2.25 65.6 2.2 65.6 M2.25 65.5 Q2.6 64.75 3.25 64.85 L3.6 64.9 3.7 65.05 3.75 66.0 Q3.85 66.25 3.3 66.1 L2.25 65.5 M-17.55 53.6 L-17.55 53.65 -17.75 53.45 -17.55 53.6 M-17.55 53.7 L-17.6 53.9 Q-17.65 54.9 -18.8 55.4 L-18.6 55.2 Q-18.4 54.95 -18.75 54.15 L-18.85 54.15 -19.3 53.75 Q-19.45 53.25 -18.9 53.15 -18.5 53.0 -17.55 53.7 M-20.8 51.25 L-19.55 50.1 -18.0 49.8 -17.15 50.0 -16.95 50.05 -16.7 50.1 -16.65 50.25 -16.7 50.4 -15.85 53.1 -14.8 53.05 -15.4 52.5 Q-15.95 51.85 -15.9 51.15 -15.85 50.2 -15.05 50.25 L-14.85 50.3 -14.65 50.6 -15.0 50.5 Q-15.45 50.45 -15.55 51.3 -15.6 52.25 -14.6 52.3 -13.45 52.35 -13.35 50.95 -13.15 48.6 -14.9 48.55 L-14.75 48.4 -14.2 48.45 Q-13.55 48.6 -13.35 48.85 L-13.2 49.0 Q-12.85 49.3 -12.8 49.65 L-12.8 50.8 Q-12.85 51.7 -13.25 52.5 L-13.7 53.1 Q-12.75 53.3 -11.85 54.15 L-11.75 54.25 Q-10.6 55.35 -10.7 56.5 L-10.95 57.5 -11.7 58.4 -12.05 58.7 -13.65 59.05 -14.2 58.95 -14.7 58.65 -15.2 58.2 Q-15.8 57.45 -15.75 56.75 -15.65 55.65 -14.4 55.75 L-14.15 55.8 Q-14.0 55.85 -13.85 56.0 L-14.05 55.95 -14.8 56.1 -15.15 56.75 Q-15.2 57.35 -14.5 58.0 -13.8 58.55 -13.25 58.6 -12.55 58.65 -12.0 58.05 L-11.75 57.8 -11.4 56.9 Q-11.3 55.6 -12.1 54.7 L-12.25 54.55 Q-13.15 53.65 -14.5 53.55 L-15.65 53.65 -16.15 53.85 -16.4 52.95 Q-16.45 52.45 -16.85 51.75 -17.3 51.0 -17.9 50.65 -18.45 50.25 -19.3 50.4 -20.05 50.6 -20.8 51.25 M-12.25 47.8 L-12.1 47.6 -11.95 47.4 -11.8 47.2 -11.55 47.95 Q-11.1 48.9 -10.15 49.05 -9.2 49.15 -8.65 48.5 -8.15 47.85 -8.1 47.3 L-8.1 47.25 Q-8.05 46.7 -8.45 46.4 L-8.5 46.35 -8.75 46.15 -9.35 46.0 -9.3 45.95 -9.15 45.95 -8.65 45.9 Q-7.4 45.9 -7.4 47.05 -7.4 48.05 -8.0 48.9 L-8.45 49.4 Q-8.85 49.7 -9.25 49.8 L-9.6 49.8 Q-10.85 49.8 -12.2 47.85 L-12.15 47.8 -12.25 47.8" fill="#83461f" fill-rule="evenodd" stroke="none"/>
    <path d="M-5.3 56.75 L-5.95 57.55 -6.65 57.9 -7.15 57.9 Q-5.85 57.2 -5.3 56.75 M-6.65 61.95 L-6.45 63.8 -7.45 63.2 -7.25 62.9 -7.15 62.15 -7.2 61.6 -6.65 61.95 M-10.45 61.4 L-11.25 60.9 -11.4 60.8 -9.65 60.0 -9.7 60.05 -8.65 60.7 -8.75 60.7 Q-9.7 60.7 -10.45 61.4 M-8.55 53.3 L-8.2 54.5 Q-8.75 54.5 -9.45 55.0 L-9.85 55.35 -10.1 54.6 Q-9.4 53.4 -8.55 53.3" fill="#905702" fill-rule="evenodd" stroke="none"/>
    <path d="M-8.0 50.15 Q-8.5 50.85 -8.6 51.95 L-8.55 53.3 Q-9.4 53.4 -10.1 54.6 L-10.25 52.65 Q-10.15 51.15 -9.35 50.5 -8.75 50.1 -8.0 50.15 M-7.55 55.7 L-7.55 55.75 -9.65 60.0 -11.4 60.8 -9.15 56.5 -9.2 56.5 -7.55 55.7" fill="#6b3a00" fill-rule="evenodd" stroke="none"/>
    <path d="M-6.6 51.0 L-5.6 52.45 -5.4 52.85 -5.0 54.55 -5.0 55.4 -5.3 56.75 Q-5.85 57.2 -7.15 57.9 L-6.65 61.95 -7.2 61.6 -8.65 60.7 -9.7 60.05 -9.65 60.0 -7.55 55.75 -7.55 55.7 -8.05 54.9 -8.2 54.5 -8.55 53.3 -8.6 51.95 Q-8.5 50.85 -8.0 50.15 L-7.35 50.4 -7.05 50.6 -6.6 51.0" fill="#2c131e" fill-rule="evenodd" stroke="none"/>
    <path d="M-6.6 51.0 Q-6.55 49.35 -5.55 48.15 -4.45 46.7 -2.7 46.75 -1.35 46.85 -0.55 48.05 0.25 49.2 0.1 50.7 L0.05 51.4 -0.05 51.0 Q-0.35 50.35 -1.0 49.9 -1.85 49.35 -2.95 49.35 L-3.0 49.35 Q-3.45 49.05 -3.7 49.05 -4.3 49.05 -4.6 49.9 L-4.75 50.45 -4.7 51.35 -4.65 51.55 -4.7 51.7 Q-4.7 52.85 -4.0 53.8 -3.2 54.8 -2.15 54.8 -0.85 54.8 -0.45 53.55 L-0.3 55.35 -0.3 55.4 Q-1.4 55.55 -2.4 56.65 -3.5 57.9 -3.6 59.35 L-3.6 59.6 -4.15 59.8 -4.6 60.1 -5.35 60.9 -4.6 60.1 -4.15 59.8 -3.6 59.6 -1.55 59.25 -0.85 59.3 -0.35 59.6 -0.4 59.25 Q-0.3 58.25 0.3 57.65 0.9 57.0 1.85 57.0 L2.45 57.2 2.65 58.0 1.45 57.95 Q0.55 58.1 0.4 58.85 0.25 59.55 0.45 60.0 L1.35 60.75 1.95 60.9 2.35 60.65 Q2.75 60.1 2.4 59.4 L2.65 59.5 Q3.05 59.65 3.05 60.2 L2.6 60.95 2.4 61.2 2.2 61.85 2.15 62.15 2.15 62.45 3.0 62.15 3.1 62.1 3.65 61.8 4.15 61.0 5.25 62.25 6.0 63.8 5.9 63.7 Q5.2 62.8 4.0 62.75 2.45 62.65 1.45 63.25 L1.35 62.7 1.35 62.95 Q1.25 62.9 1.3 62.7 L1.05 61.9 1.0 61.8 1.1 62.5 Q1.1 64.8 -1.0 65.5 L-5.95 66.15 -9.3 66.15 -9.1 66.35 -8.85 66.4 -8.45 66.75 -9.0 66.4 -9.1 66.35 -9.35 66.25 Q-9.5 66.15 -9.3 66.15 L-10.85 64.8 Q-13.3 62.7 -14.75 60.85 L-16.7 58.6 Q-17.7 56.65 -17.6 55.5 L-17.2 54.6 -17.05 54.4 -16.6 54.0 -16.15 53.85 -15.65 53.65 -14.5 53.55 Q-13.15 53.65 -12.25 54.55 L-12.1 54.7 Q-11.3 55.6 -11.4 56.9 L-11.75 57.8 Q-11.75 57.1 -12.35 56.5 -13.05 55.8 -14.0 55.8 L-14.05 55.8 Q-14.45 55.5 -15.05 55.5 -15.75 55.5 -16.1 55.85 -16.4 56.1 -16.4 56.65 L-16.5 57.1 Q-16.5 57.9 -15.3 58.7 -14.15 59.45 -13.15 59.45 -12.3 59.45 -11.85 59.1 -11.35 58.65 -10.95 57.5 L-10.7 56.5 Q-10.6 55.35 -11.75 54.25 L-10.95 52.75 Q-10.8 52.25 -10.8 51.05 L-10.8 50.15 -11.05 49.55 Q-10.55 50.0 -10.1 50.0 L-9.25 49.8 Q-8.85 49.7 -8.45 49.4 L-8.0 48.9 Q-7.4 48.05 -7.4 47.05 -7.4 45.9 -8.65 45.9 L-9.15 45.95 -9.45 45.8 -10.0 45.8 Q-10.65 45.8 -11.2 46.15 L-11.6 46.55 -11.85 47.0 -11.9 46.0 Q-11.8 45.0 -10.75 44.15 L-10.15 43.8 Q-9.7 43.55 -9.25 43.55 L-8.5 43.55 Q-7.3 43.75 -6.75 44.8 -6.3 45.85 -6.4 47.2 -6.55 48.55 -7.05 50.6 L-7.35 50.4 -8.0 50.15 Q-8.75 50.1 -9.35 50.5 -10.15 51.15 -10.25 52.65 L-10.1 54.6 -9.85 55.35 -9.75 55.6 -9.2 56.5 -9.15 56.5 -11.4 60.8 -11.25 60.9 Q-10.9 61.15 -11.55 61.0 -12.2 60.85 -10.0 62.55 -7.8 64.25 -5.5 65.4 L-5.85 63.1 Q-5.7 63.95 -4.8 64.6 -3.8 65.3 -2.55 65.3 -1.75 65.3 -1.1 64.85 L-0.7 64.65 Q-0.4 64.4 -0.4 63.95 -0.4 63.55 -0.75 62.95 -1.15 62.15 -1.75 62.2 L-1.65 62.4 Q-1.65 62.15 -1.45 62.4 L-0.95 63.35 Q-0.8 63.9 -1.6 64.35 -2.45 64.8 -3.25 64.75 L-3.4 64.75 Q-4.15 64.65 -4.85 64.0 -5.8 63.2 -5.7 62.0 L-5.35 60.9 -5.6 61.25 -5.95 62.45 -5.95 62.6 -6.6 58.4 Q-5.4 58.0 -5.0 57.2 -4.6 56.5 -4.6 55.2 -4.6 53.75 -5.4 52.85 L-5.6 52.45 -6.6 51.0 M0.0 60.85 Q-0.65 60.25 -1.05 60.1 L-1.35 60.05 Q-2.1 60.05 -2.1 60.65 -2.1 61.5 0.05 62.6 0.55 62.6 0.7 62.3 L0.75 61.95 0.65 61.65 0.6 61.55 0.0 60.85 M1.0 61.8 L0.75 61.45 0.15 60.7 -0.1 60.55 Q-0.55 60.25 -1.05 60.1 -0.55 60.25 -0.1 60.55 L0.15 60.7 0.75 61.45 1.0 61.8 M-12.7 49.3 L-12.75 48.95 -12.7 48.95 -12.7 49.3 M-9.8 44.0 L-9.95 44.05 -10.35 44.6 Q-10.35 45.1 -9.75 45.4 L-8.7 45.6 Q-8.05 45.6 -7.65 45.2 -7.35 44.85 -7.35 44.55 L-7.4 44.3 -7.75 44.1 -8.1 43.95 -8.8 43.8 -9.25 43.7 Q-9.65 43.75 -9.8 44.0 M-8.3 44.1 L-7.95 44.2 -7.95 44.25 -8.3 44.1 M-4.1 47.75 Q-4.1 48.95 -1.55 49.35 -0.7 49.35 -0.7 48.65 L-0.7 48.35 -0.75 48.2 -0.95 47.9 Q-1.15 47.65 -1.6 47.4 -2.3 47.0 -2.85 47.0 -4.1 47.0 -4.1 47.75 M-1.35 60.05 L-1.75 60.0 Q-2.75 59.95 -3.85 60.55 L-4.65 61.2 Q-4.3 60.85 -3.9 60.85 -3.1 60.85 -2.4 61.45 L-1.75 62.2 -2.4 61.45 Q-3.1 60.85 -3.9 60.85 -4.3 60.85 -4.65 61.2 L-3.85 60.55 Q-2.75 59.95 -1.75 60.0 L-1.35 60.05 M-4.65 61.2 L-4.9 61.7 -4.95 62.15 Q-4.95 63.05 -4.35 63.55 -3.8 64.1 -2.95 64.15 -2.1 64.2 -1.6 63.75 -1.3 63.4 -1.55 62.75 L-1.65 62.4 -1.55 62.75 Q-1.3 63.4 -1.6 63.75 -2.1 64.2 -2.95 64.15 -3.8 64.1 -4.35 63.55 -4.95 63.05 -4.95 62.15 L-4.9 61.7 -4.65 61.2 M-13.5 55.6 Q-12.6 55.6 -12.55 55.1 L-12.55 55.05 -12.6 54.7 -13.4 53.95 Q-14.1 53.6 -14.75 53.6 L-15.3 53.75 Q-15.7 53.95 -15.7 54.2 -15.7 54.75 -14.95 55.2 -14.25 55.6 -13.5 55.6 M-12.55 57.45 L-12.55 57.25 -12.75 56.8 Q-12.4 57.1 -12.55 57.45" fill="url(#gradient0)" fill-rule="evenodd" stroke="none"/>
    <path d="M-17.05 54.4 L-17.35 53.8 -17.4 53.75 -17.55 53.6 -17.75 53.45 -17.55 53.65 -17.55 53.7 Q-18.5 53.0 -18.9 53.15 -19.45 53.25 -19.3 53.75 L-18.85 54.15 -18.75 54.15 Q-18.4 54.95 -18.6 55.2 L-18.8 55.4 -19.6 55.6 Q-20.45 55.7 -21.15 54.95 -21.85 54.15 -21.85 53.15 -21.8 52.1 -20.95 51.35 L-20.9 51.3 -20.8 51.25 Q-20.05 50.6 -19.3 50.4 -18.45 50.25 -17.9 50.65 -17.3 51.0 -16.85 51.75 -16.45 52.45 -16.4 52.95 L-16.15 53.85 -16.6 54.0 -17.05 54.4 M-19.7 51.5 Q-20.2 51.65 -20.55 52.0 -21.05 52.55 -21.05 53.35 L-20.6 54.45 Q-20.2 54.85 -19.8 54.85 -19.35 54.85 -19.35 54.4 L-19.55 53.9 -19.75 53.4 Q-19.75 53.1 -19.15 52.9 -18.6 52.65 -18.55 52.3 L-18.05 52.35 Q-17.45 52.35 -17.45 51.85 -17.45 51.05 -18.45 50.8 -19.45 50.5 -19.45 51.25 L-19.35 51.45 -19.7 51.5" fill="url(#gradient1)" fill-rule="evenodd" stroke="none"/>
    <path d="M6.0 63.8 L6.2 64.0 Q6.7 64.8 6.6 65.85 6.4 68.7 4.25 68.6 3.25 68.55 2.55 68.0 1.85 67.4 1.95 66.5 2.0 65.8 2.2 65.6 L2.25 65.6 2.2 65.55 2.15 65.45 2.25 65.5 3.3 66.1 Q3.85 66.25 3.75 66.0 L3.7 65.05 3.6 64.9 Q3.35 64.6 2.7 64.45 L1.3 64.5 1.35 64.2 1.45 63.25 Q2.45 62.65 4.0 62.75 5.2 62.8 5.9 63.7 L6.0 63.8 M3.15 67.6 L3.7 67.7 Q4.45 67.7 5.05 67.1 5.6 66.5 5.6 65.8 L5.45 65.1 Q5.85 65.0 5.85 64.6 5.85 63.55 4.5 63.1 3.1 62.6 3.1 63.6 3.35 64.65 4.2 65.0 L4.1 65.5 Q3.95 66.55 3.5 66.65 L3.35 66.6 3.25 66.6 2.7 66.45 2.45 66.5 2.4 66.7 Q2.4 67.05 2.85 67.4 L3.15 67.6 M3.7 63.85 L3.65 63.85 3.6 63.55 3.65 63.55 3.7 63.85" fill="url(#gradient2)" fill-rule="evenodd" stroke="none"/>
    <path d="M-7.45 63.2 L-10.45 61.4 Q-9.7 60.7 -8.75 60.7 L-8.65 60.7 -7.2 61.6 -7.15 62.15 -7.25 62.9 -7.45 63.2 M-8.2 54.5 L-8.05 54.9 -7.55 55.7 -9.2 56.5 -9.75 55.6 -9.85 55.35 -9.45 55.0 Q-8.75 54.5 -8.2 54.5" fill="#a86a0d" fill-rule="evenodd" stroke="none"/>
    <path d="M1.05 58.75 Q1.15 58.35 1.55 58.45 2.1 58.55 2.1 59.05 L2.1 59.2 Q2.05 59.7 1.7 59.7 1.0 59.7 1.0 59.0 L1.05 58.75 M-10.45 46.15 L-10.4 46.15 -10.35 46.1 -10.4 46.15 -10.45 46.15 Q-10.9 46.25 -10.9 46.8 -10.9 47.3 -10.4 47.3 L-9.95 47.05 -9.8 46.7 Q-9.8 46.0 -10.35 46.1 L-9.85 46.05 Q-8.85 46.05 -8.45 46.8 -8.55 47.65 -9.9 47.65 -11.05 47.65 -11.05 46.85 -11.05 46.3 -10.45 46.15 M-8.6 44.05 L-8.55 44.05 -8.3 44.1 -7.95 44.25 -7.95 44.5 Q-7.95 45.1 -8.55 45.1 -9.2 45.1 -9.3 44.75 -8.6 44.75 -8.6 44.2 L-8.6 44.05 M-1.75 48.9 L-1.8 48.9 Q-2.6 48.9 -2.6 48.1 -2.6 47.6 -2.05 47.6 L-1.6 47.7 Q-2.0 47.75 -2.0 48.3 L-1.75 48.9 M-0.85 50.35 L-0.8 50.4 -0.7 51.1 Q-0.7 52.15 -1.75 52.15 -2.3 52.15 -2.95 51.65 -3.65 51.1 -3.65 50.5 -3.65 49.65 -2.65 49.65 -1.45 49.65 -0.85 50.35 M-1.6 50.35 Q-2.15 50.35 -2.15 50.95 -2.15 51.6 -1.5 51.6 -1.0 51.6 -1.05 50.95 -1.05 50.4 -1.6 50.35 M-3.75 61.5 L-3.45 61.45 Q-3.0 61.45 -2.85 61.85 L-2.85 62.15 Q-2.85 62.75 -3.35 62.75 -4.1 62.75 -4.1 62.05 -4.1 61.65 -3.75 61.5 M-13.6 54.1 L-13.4 54.1 Q-12.75 54.25 -12.75 54.75 L-13.0 55.1 -13.45 55.35 -14.0 54.9 -14.05 54.65 Q-14.05 54.1 -13.6 54.1 M-13.4 57.85 Q-13.8 57.7 -13.8 57.25 L-13.4 56.8 Q-12.6 56.75 -12.6 57.35 L-12.7 57.65 -12.7 57.7 -13.05 57.9 -13.4 57.85" fill="#ffdf80" fill-rule="evenodd" stroke="none"/>
    <path d="M-5.95 62.6 L-5.95 62.45 -5.6 61.25 -5.35 60.9 -5.7 62.0 Q-5.8 63.2 -4.85 64.0 -4.15 64.65 -3.4 64.75 L-2.4 65.0 -1.1 64.85 Q-1.75 65.3 -2.55 65.3 -3.8 65.3 -4.8 64.6 -5.7 63.95 -5.85 63.1 L-5.85 63.05 -5.9 62.75 -5.9 62.7 -5.95 62.6 M-3.0 49.35 L-2.95 49.35 Q-1.85 49.35 -1.0 49.9 -0.35 50.35 -0.05 51.0 -0.3 51.9 -0.65 52.25 -1.1 52.7 -1.95 52.7 -2.6 52.7 -3.3 52.1 -4.05 51.45 -4.05 50.65 L-3.8 49.6 -3.7 49.55 -3.0 49.35 M0.0 61.2 L0.2 61.45 0.25 61.6 0.25 61.7 -0.15 61.95 -0.9 61.65 Q-1.3 61.3 -1.3 60.95 L-1.0 60.65 Q-0.5 60.65 0.0 61.2 M3.5 66.65 Q3.9 66.8 3.9 67.2 3.9 67.6 3.35 67.6 L3.15 67.6 2.85 67.4 2.75 67.05 Q2.75 66.55 3.25 66.6 L3.35 66.6 3.5 66.65 M4.45 63.15 Q5.15 63.3 5.15 63.85 5.15 64.35 4.7 64.35 3.85 64.35 3.7 63.6 3.7 63.0 4.45 63.15 M-11.6 46.55 L-11.2 46.15 Q-10.65 45.8 -10.0 45.8 L-9.45 45.8 -9.15 45.95 -9.3 45.95 -9.35 46.0 -8.75 46.15 -8.5 46.35 -8.45 46.4 Q-8.05 46.7 -8.1 47.25 L-8.1 47.3 -8.55 47.85 Q-9.15 48.3 -9.85 48.3 -10.7 48.3 -11.1 47.85 -11.45 47.45 -11.6 46.55 M-10.95 57.5 Q-11.35 58.65 -11.85 59.1 -12.3 59.45 -13.15 59.45 -14.15 59.45 -15.3 58.7 -16.5 57.9 -16.5 57.1 L-16.4 56.65 -16.4 56.7 Q-16.4 57.3 -15.55 58.05 L-14.7 58.65 -14.2 58.95 -13.65 59.05 -12.05 58.7 -11.7 58.4 -10.95 57.5 M-0.85 50.35 Q-1.45 49.65 -2.65 49.65 -3.65 49.65 -3.65 50.5 -3.65 51.1 -2.95 51.65 -2.3 52.15 -1.75 52.15 -0.7 52.15 -0.7 51.1 L-0.8 50.4 -0.85 50.35 M-2.85 61.85 L-2.8 61.9 -2.65 62.3 -2.55 62.8 Q-2.55 63.6 -3.25 63.6 L-4.05 63.25 -4.5 62.4 Q-4.5 61.55 -3.75 61.5 -4.1 61.65 -4.1 62.05 -4.1 62.75 -3.35 62.75 -2.85 62.75 -2.85 62.15 L-2.85 61.85 M-14.0 54.9 L-14.5 54.75 -14.85 54.3 Q-14.85 53.9 -14.2 53.9 -13.8 53.9 -13.6 54.1 -14.05 54.1 -14.05 54.65 L-14.0 54.9 M-18.2 52.05 Q-18.85 52.05 -18.9 51.4 -18.9 50.85 -18.35 51.1 -17.85 51.3 -17.85 51.7 -17.85 52.05 -18.2 52.05 M-19.7 53.95 Q-19.7 54.5 -20.05 54.5 L-20.6 54.1 -20.75 53.55 Q-20.75 53.05 -20.2 53.3 -19.7 53.5 -19.7 53.95 M-12.75 56.8 L-12.55 57.25 -12.55 57.45 -12.7 57.7 -12.7 57.65 -12.6 57.35 Q-12.6 56.75 -13.4 56.8 L-13.8 57.25 Q-13.8 57.7 -13.4 57.85 L-14.2 57.6 Q-14.8 57.25 -14.8 56.8 -14.8 56.25 -13.95 56.25 -13.5 56.25 -13.0 56.6 L-12.75 56.8" fill="#ffd751" fill-rule="evenodd" stroke="none"/>
    <path d="M-0.05 51.0 L0.05 51.4 -0.25 52.25 -0.55 52.75 -0.7 52.95 Q-1.45 53.6 -2.15 53.45 -2.9 53.35 -3.55 52.4 -4.25 51.4 -4.2 50.6 -4.15 49.9 -3.8 49.6 L-4.05 50.65 Q-4.05 51.45 -3.3 52.1 -2.6 52.7 -1.95 52.7 -1.1 52.7 -0.65 52.25 -0.3 51.9 -0.05 51.0 M-11.8 47.2 L-11.85 47.0 -11.6 46.55 Q-11.45 47.45 -11.1 47.85 -10.7 48.3 -9.85 48.3 -9.15 48.3 -8.55 47.85 L-8.1 47.3 Q-8.15 47.85 -8.65 48.5 -9.2 49.15 -10.15 49.05 -11.1 48.9 -11.55 47.95 L-11.8 47.2" fill="#eebd40" fill-rule="evenodd" stroke="none"/>
    <path d="M-0.45 53.55 Q-0.85 54.8 -2.15 54.8 -3.2 54.8 -4.0 53.8 -4.7 52.85 -4.7 51.7 L-4.65 51.55 -4.05 53.1 Q-3.4 54.15 -2.4 54.15 -1.1 54.15 -0.45 53.4 L-0.45 53.55 M-12.8 47.65 L-12.3 47.8 -12.25 47.8 -12.15 47.8 -12.2 47.85 Q-10.85 49.8 -9.6 49.8 L-9.25 49.8 -10.1 50.0 Q-10.55 50.0 -11.05 49.55 L-11.25 49.4 -12.8 47.65" fill="#f6d46a" fill-rule="evenodd" stroke="none"/>
    <path d="M-8.8 43.8 L-8.1 43.95 -7.75 44.1 -7.4 44.3 -7.35 44.55 Q-7.35 44.85 -7.65 45.2 -8.05 45.6 -8.7 45.6 L-9.75 45.4 Q-10.35 45.1 -10.35 44.6 L-9.95 44.05 -9.8 44.0 -9.9 44.3 Q-9.9 44.75 -9.3 44.75 -9.2 45.1 -8.55 45.1 -7.95 45.1 -7.95 44.5 L-7.95 44.25 -7.95 44.2 -8.3 44.1 -8.55 44.05 -8.6 44.05 -8.8 43.8 M-4.1 47.75 Q-4.1 47.0 -2.85 47.0 -2.3 47.0 -1.6 47.4 -1.15 47.65 -0.95 47.9 L-0.75 48.2 -0.7 48.35 -0.7 48.65 Q-0.7 49.35 -1.55 49.35 -4.1 48.95 -4.1 47.75 M-1.6 47.7 L-2.05 47.6 Q-2.6 47.6 -2.6 48.1 -2.6 48.9 -1.8 48.9 L-1.75 48.9 -1.45 49.0 -1.1 48.7 -0.95 48.25 Q-0.95 47.65 -1.45 47.65 L-1.6 47.7" fill="#f6d56c" fill-rule="evenodd" stroke="none"/>
    <path d="M0.0 55.8 L0.45 55.85 0.7 56.2 0.05 57.2 Q-0.65 57.85 -1.5 57.85 -2.35 57.85 -2.35 57.25 -2.35 56.7 -1.65 56.25 -0.95 55.8 0.0 55.8 M2.1 59.2 L2.2 59.7 Q2.2 60.15 1.7 60.15 L1.2 59.85 Q0.9 59.5 0.9 59.2 0.9 58.85 1.05 58.75 L1.0 59.0 Q1.0 59.7 1.7 59.7 2.05 59.7 2.1 59.2 M-12.7 49.3 L-12.7 48.95 -12.5 48.75 Q-12.1 48.75 -11.75 49.35 -11.35 49.95 -11.35 50.5 -11.35 51.25 -11.7 51.25 -12.55 51.25 -12.7 49.3 M-15.15 50.85 L-15.0 50.75 Q-14.05 50.75 -14.05 51.5 -14.05 51.95 -14.4 51.95 L-14.95 51.7 -15.25 51.1 -15.15 50.85" fill="#f0c44e" fill-rule="evenodd" stroke="none"/>
    <path d="M0.0 60.85 L0.6 61.55 0.65 61.65 0.75 61.95 0.7 62.3 Q0.55 62.6 0.05 62.6 -2.1 61.5 -2.1 60.65 -2.1 60.05 -1.35 60.05 L-1.05 60.1 Q-0.65 60.25 0.0 60.85 M0.0 61.2 Q-0.5 60.65 -1.0 60.65 L-1.3 60.95 Q-1.3 61.3 -0.9 61.65 L-0.15 61.95 0.25 61.7 0.25 61.6 0.2 61.45 0.0 61.2 M-14.05 55.8 L-14.0 55.8 Q-13.05 55.8 -12.35 56.5 -11.75 57.1 -11.75 57.8 L-12.0 58.05 Q-12.55 58.65 -13.25 58.6 -13.8 58.55 -14.5 58.0 -15.2 57.35 -15.15 56.75 L-14.8 56.1 -14.05 55.95 -13.85 56.0 Q-14.0 55.85 -14.15 55.8 L-14.05 55.8 M-2.85 61.85 Q-3.0 61.45 -3.45 61.45 L-3.75 61.5 Q-4.5 61.55 -4.5 62.4 L-4.05 63.25 -3.25 63.6 Q-2.55 63.6 -2.55 62.8 L-2.65 62.3 -2.8 61.9 -2.85 61.85 M-14.0 54.9 L-13.45 55.35 -13.0 55.1 -12.75 54.75 Q-12.75 54.25 -13.4 54.1 L-13.6 54.1 Q-13.8 53.9 -14.2 53.9 -14.85 53.9 -14.85 54.3 L-14.5 54.75 -14.0 54.9 M-13.5 55.6 Q-14.25 55.6 -14.95 55.2 -15.7 54.75 -15.7 54.2 -15.7 53.95 -15.3 53.75 L-14.75 53.6 Q-14.1 53.6 -13.4 53.95 L-12.6 54.7 -12.55 55.05 -12.55 55.1 Q-12.6 55.6 -13.5 55.6 M-12.75 56.8 L-13.0 56.6 Q-13.5 56.25 -13.95 56.25 -14.8 56.25 -14.8 56.8 -14.8 57.25 -14.2 57.6 L-13.4 57.85 -13.05 57.9 -12.7 57.7 -12.55 57.45 Q-12.4 57.1 -12.75 56.8" fill="#edbb3d" fill-rule="evenodd" stroke="none"/>
    <path d="M-16.7 50.1 L-16.65 50.15 -16.45 49.45 -16.15 49.4 Q-15.8 49.4 -15.3 49.8 L-14.85 50.3 -15.05 50.25 Q-15.85 50.2 -15.9 51.15 -15.95 51.85 -15.4 52.5 L-14.8 53.05 -15.85 53.1 -16.7 50.4 -16.65 50.25 -16.7 50.1 M2.65 59.5 L2.85 59.4 Q3.9 59.4 3.9 60.8 L3.65 61.8 3.1 62.1 3.0 62.15 2.15 62.45 2.15 62.15 2.2 61.85 2.4 61.2 2.6 60.95 3.05 60.2 Q3.05 59.65 2.65 59.5 M-16.4 56.65 Q-16.4 56.1 -16.1 55.85 -15.75 55.5 -15.05 55.5 -14.45 55.5 -14.05 55.8 L-14.15 55.8 -14.4 55.75 Q-15.65 55.65 -15.75 56.75 -15.8 57.45 -15.2 58.2 L-14.7 58.65 -15.55 58.05 Q-16.4 57.3 -16.4 56.7 L-16.4 56.65 M-3.4 64.75 L-3.25 64.75 Q-2.45 64.8 -1.6 64.35 -0.8 63.9 -0.95 63.35 L-1.45 62.4 Q-1.65 62.15 -1.65 62.4 L-1.75 62.2 Q-1.15 62.15 -0.75 62.95 -0.4 63.55 -0.4 63.95 -0.4 64.4 -0.7 64.65 L-1.1 64.85 -2.4 65.0 -3.4 64.75" fill="#ce8124" fill-rule="evenodd" stroke="none"/>
    <path d="M2.65 58.0 L3.1 58.25 4.25 59.4 4.35 59.6 4.4 60.1 4.15 60.95 4.15 61.0 3.65 61.8 3.9 60.8 Q3.9 59.4 2.85 59.4 L2.65 59.5 2.4 59.4 Q2.75 60.1 2.35 60.65 L1.95 60.9 1.35 60.75 0.45 60.0 Q0.25 59.55 0.4 58.85 0.55 58.1 1.45 57.95 L2.65 58.0 M-16.45 49.45 Q-16.0 48.5 -14.9 48.55 -13.15 48.6 -13.35 50.95 -13.45 52.35 -14.6 52.3 -15.6 52.25 -15.55 51.3 -15.45 50.45 -15.0 50.5 L-14.65 50.6 -14.85 50.3 -15.3 49.8 Q-15.8 49.4 -16.15 49.4 L-16.45 49.45 M2.1 59.2 L2.1 59.05 Q2.1 58.55 1.55 58.45 1.15 58.35 1.05 58.75 0.9 58.85 0.9 59.2 0.9 59.5 1.2 59.85 L1.7 60.15 Q2.2 60.15 2.2 59.7 L2.1 59.2 M-15.15 50.85 L-15.25 51.1 -14.95 51.7 -14.4 51.95 Q-14.05 51.95 -14.05 51.5 -14.05 50.75 -15.0 50.75 L-15.15 50.85" fill="#e9b232" fill-rule="evenodd" stroke="none"/>
    <path d="M-3.6 59.6 L-3.6 59.35 Q-3.5 57.9 -2.4 56.65 -1.4 55.55 -0.3 55.4 L-0.3 55.45 -0.25 55.4 -0.25 55.35 -0.15 55.3 0.05 55.3 0.1 55.3 Q1.15 55.35 1.9 56.3 L2.45 57.2 1.85 57.0 Q0.9 57.0 0.3 57.65 -0.3 58.25 -0.4 59.25 L-0.35 59.6 -0.85 59.3 -1.55 59.25 -3.6 59.6 M-14.75 48.4 Q-14.1 47.65 -13.35 47.65 L-12.8 47.65 -11.25 49.4 -11.05 49.55 -10.8 50.15 -10.8 51.05 Q-10.8 52.25 -10.95 52.75 L-11.75 54.25 -11.85 54.15 Q-12.75 53.3 -13.7 53.1 L-13.25 52.5 Q-12.85 51.7 -12.8 50.8 L-12.8 49.65 Q-12.85 49.3 -13.2 49.0 L-13.35 48.85 Q-13.55 48.6 -14.2 48.45 L-14.75 48.4 M0.0 55.8 Q-0.95 55.8 -1.65 56.25 -2.35 56.7 -2.35 57.25 -2.35 57.85 -1.5 57.85 -0.65 57.85 0.05 57.2 L0.7 56.2 0.45 55.85 0.0 55.8 M-12.7 48.95 L-12.75 48.95 -12.7 49.3 Q-12.55 51.25 -11.7 51.25 -11.35 51.25 -11.35 50.5 -11.35 49.95 -11.75 49.35 -12.1 48.75 -12.5 48.75 L-12.7 48.95" fill="#e9b132" fill-rule="evenodd" stroke="none"/>
    <path d="M3.5 66.65 Q3.95 66.55 4.1 65.5 L4.2 65.0 Q3.35 64.65 3.1 63.6 3.1 62.6 4.5 63.1 5.85 63.55 5.85 64.6 5.85 65.0 5.45 65.1 L5.6 65.8 Q5.6 66.5 5.05 67.1 4.45 67.7 3.7 67.7 L3.15 67.6 3.35 67.6 Q3.9 67.6 3.9 67.2 3.9 66.8 3.5 66.65 M2.85 67.4 Q2.4 67.05 2.4 66.7 L2.45 66.5 2.7 66.45 3.25 66.6 Q2.75 66.55 2.75 67.05 L2.85 67.4 M3.7 63.85 L3.65 63.55 3.6 63.55 3.65 63.85 3.7 63.85 M4.45 63.15 Q3.7 63.0 3.7 63.6 3.85 64.35 4.7 64.35 5.15 64.35 5.15 63.85 5.15 63.3 4.45 63.15 M-19.7 51.5 L-19.35 51.45 -19.45 51.25 Q-19.45 50.5 -18.45 50.8 -17.45 51.05 -17.45 51.85 -17.45 52.35 -18.05 52.35 L-18.55 52.3 Q-18.6 52.65 -19.15 52.9 -19.75 53.1 -19.75 53.4 L-19.55 53.9 -19.35 54.4 Q-19.35 54.85 -19.8 54.85 -20.2 54.85 -20.6 54.45 L-21.05 53.35 Q-21.05 52.55 -20.55 52.0 -20.2 51.65 -19.7 51.5 M-18.2 52.05 Q-17.85 52.05 -17.85 51.7 -17.85 51.3 -18.35 51.1 -18.9 50.85 -18.9 51.4 -18.85 52.05 -18.2 52.05 M-19.7 53.95 Q-19.7 53.5 -20.2 53.3 -20.75 53.05 -20.75 53.55 L-20.6 54.1 -20.05 54.5 Q-19.7 54.5 -19.7 53.95" fill="#e7ae31" fill-rule="evenodd" stroke="none"/>
    <path d="M-10.45 46.15 Q-11.05 46.3 -11.05 46.85 -11.05 47.65 -9.9 47.65 -8.55 47.65 -8.45 46.8 -8.85 46.05 -9.85 46.05 L-10.35 46.1 Q-9.8 46.0 -9.8 46.7 L-9.95 47.05 -10.4 47.3 Q-10.9 47.3 -10.9 46.8 -10.9 46.25 -10.45 46.15 M-8.8 43.8 L-8.6 44.05 -8.6 44.2 Q-8.6 44.75 -9.3 44.75 -9.9 44.75 -9.9 44.3 L-9.8 44.0 Q-9.65 43.75 -9.25 43.7 L-8.8 43.8 M-1.6 47.7 L-1.45 47.65 Q-0.95 47.65 -0.95 48.25 L-1.1 48.7 -1.45 49.0 -1.75 48.9 -2.0 48.3 Q-2.0 47.75 -1.6 47.7 M-1.6 50.35 Q-1.05 50.4 -1.05 50.95 -1.0 51.6 -1.5 51.6 -2.15 51.6 -2.15 50.95 -2.15 50.35 -1.6 50.35" fill="#fff2cb" fill-rule="evenodd" stroke="none"/>
    <path d="M-5.4 52.85 Q-4.6 53.75 -4.6 55.2 -4.6 56.5 -5.0 57.2 -5.4 58.0 -6.6 58.4 L-5.95 62.6 -5.9 62.7 -5.9 62.75 -5.85 63.05 -5.85 63.1 -5.5 65.4 Q-7.8 64.25 -10.0 62.55 -12.2 60.85 -11.55 61.0 -10.9 61.15 -11.25 60.9 L-10.45 61.4 -7.45 63.2 -6.45 63.8 -6.65 61.95 -7.15 57.9 -6.65 57.9 -5.95 57.55 -5.3 56.75 -5.0 55.4 -5.0 54.55 -5.4 52.85" fill="#ffdf7e" fill-rule="evenodd" stroke="none"/>
    <path d="M1.3 64.5 L1.05 64.85 Q0.35 65.9 -2.3 66.35 L-9.15 67.45 -13.45 63.1 Q-15.5 60.75 -16.6 58.75 L-16.7 58.6 -14.75 60.85 Q-13.3 62.7 -10.85 64.8 L-9.3 66.15 Q-9.5 66.15 -9.35 66.25 L-9.1 66.35 -9.0 66.4 -8.45 66.75 -8.85 66.4 -9.1 66.35 -9.3 66.15 -5.95 66.15 -1.0 65.5 Q1.1 64.8 1.1 62.5 L1.0 61.8 1.05 61.9 1.3 62.7 Q1.25 62.9 1.35 62.95 L1.35 62.7 1.45 63.25 1.35 64.2 1.3 64.5" fill="#fcd34e" fill-rule="evenodd" stroke="none"/>
  </g>
  <defs>
    <radialGradient cx="0" cy="0" gradientTransform="matrix(0.0319, 0.0, 0.0, 0.0244, -5.9, 47.8)" gradientUnits="userSpaceOnUse" id="gradient0" r="819.2" spreadMethod="pad">
      <stop offset="0.08627450980392157" stop-color="#f7d76f"/>
      <stop offset="0.5254901960784314" stop-color="#ecb634"/>
      <stop offset="1.0" stop-color="#ce8124"/>
    </radialGradient>
    <radialGradient cx="0" cy="0" gradientTransform="matrix(0.0072, 0.0, 0.0, 0.0072, -21.4, 47.5)" gradientUnits="userSpaceOnUse" id="gradient1" r="819.2" spreadMethod="pad">
      <stop offset="0.08627450980392157" stop-color="#f7d76f"/>
      <stop offset="0.5254901960784314" stop-color="#ecb634"/>
      <stop offset="1.0" stop-color="#ce8124"/>
    </radialGradient>
    <radialGradient cx="0" cy="0" gradientTransform="matrix(0.0092, 0.0, 0.0, 0.0092, 9.8, 62.7)" gradientUnits="userSpaceOnUse" id="gradient2" r="819.2" spreadMethod="pad">
      <stop offset="0.08627450980392157" stop-color="#f7d76f"/>
      <stop offset="0.5254901960784314" stop-color="#ecb634"/>
      <stop offset="1.0" stop-color="#ce8124"/>
    </radialGradient>
  </defs>
</svg>
