<?xml version="1.0" encoding="UTF-8" standalone="no"?>
<svg xmlns:ffdec="https://www.free-decompiler.com/flash" xmlns:xlink="http://www.w3.org/1999/xlink" ffdec:objectType="shape" height="5.5px" width="7.5px" xmlns="http://www.w3.org/2000/svg">
  <g transform="matrix(1.0, 0.0, 0.0, 1.0, 3.75, 3.25)">
    <path d="M-2.15 -1.75 Q-1.25 -2.5 0.0 -2.5 1.05 -2.5 1.85 -1.95 L2.1 -1.75 2.4 -1.45 Q2.9 -0.9 3.0 -0.25 L3.0 0.0 3.0 0.05 Q2.95 0.65 2.1 1.05 L0.0 1.5 -2.15 1.05 Q-2.95 0.65 -3.0 0.05 L-3.0 0.0 -2.85 -0.7 -2.75 -0.95 -2.25 -1.65 -2.15 -1.75 M1.05 -1.9 Q0.7 -2.25 0.0 -2.25 -1.45 -2.25 -1.45 -1.25 L-1.25 -0.8 Q-0.9 -0.45 -0.25 -0.45 0.45 -0.45 0.9 -0.85 L1.25 -1.4 1.05 -1.9 1.25 -1.4 0.9 -0.85 Q0.45 -0.45 -0.25 -0.45 -0.9 -0.45 -1.25 -0.8 L-1.45 -1.25 Q-1.45 -2.25 0.0 -2.25 0.7 -2.25 1.05 -1.9 M0.8 -1.65 Q0.8 -2.15 0.25 -2.15 -0.45 -2.15 -0.45 -1.6 -0.45 -1.1 0.15 -1.1 0.8 -1.1 0.8 -1.65 0.8 -1.1 0.15 -1.1 -0.45 -1.1 -0.45 -1.6 -0.45 -2.15 0.25 -2.15 0.8 -2.15 0.8 -1.65 M-2.25 -1.65 L-2.4 -1.15 Q-2.4 -0.5 -1.6 -0.05 -0.9 0.35 -0.05 0.35 L1.5 -0.05 Q2.4 -0.5 2.4 -1.3 L2.4 -1.45 2.4 -1.3 Q2.4 -0.5 1.5 -0.05 L-0.05 0.35 Q-0.9 0.35 -1.6 -0.05 -2.4 -0.5 -2.4 -1.15 L-2.25 -1.65 M-2.85 -0.7 Q-2.45 1.1 0.05 1.1 L2.05 0.7 3.0 -0.25 2.05 0.7 0.05 1.1 Q-2.45 1.1 -2.85 -0.7" fill="#e9d37a" fill-rule="evenodd" stroke="none"/>
    <path d="M0.8 -1.65 Q0.8 -1.1 0.15 -1.1 -0.45 -1.1 -0.45 -1.6 -0.45 -2.15 0.25 -2.15 0.8 -2.15 0.8 -1.65 M1.05 -1.9 L1.25 -1.4 0.9 -0.85 Q0.45 -0.45 -0.25 -0.45 -0.9 -0.45 -1.25 -0.8 L-1.45 -1.25 Q-1.45 -2.25 0.0 -2.25 0.7 -2.25 1.05 -1.9" fill="none" stroke="#592304" stroke-linecap="round" stroke-linejoin="bevel" stroke-width="1.5"/>
    <path d="M-2.15 -1.75 Q-1.25 -2.5 0.0 -2.5 1.05 -2.5 1.85 -1.95 L2.1 -1.75" fill="none" stroke="#592304" stroke-linecap="round" stroke-linejoin="bevel" stroke-width="1.5"/>
    <path d="M-2.25 -1.65 L-2.15 -1.75" fill="none" stroke="#592304" stroke-linecap="round" stroke-linejoin="bevel" stroke-width="1.5"/>
    <path d="M2.1 -1.75 L2.4 -1.45" fill="none" stroke="#592304" stroke-linecap="butt" stroke-linejoin="bevel" stroke-width="1.5"/>
    <path d="M2.4 -1.45 Q2.9 -0.9 3.0 -0.25 L3.0 0.0 3.0 0.05 Q2.95 0.65 2.1 1.05 L0.0 1.5 -2.15 1.05 Q-2.95 0.65 -3.0 0.05 L-3.0 0.0 -2.85 -0.7 -2.75 -0.95 -2.25 -1.65 -2.4 -1.15 Q-2.4 -0.5 -1.6 -0.05 -0.9 0.35 -0.05 0.35 L1.5 -0.05 Q2.4 -0.5 2.4 -1.3 L2.4 -1.45 M3.0 -0.25 L2.05 0.7 0.05 1.1 Q-2.45 1.1 -2.85 -0.7" fill="none" stroke="#592304" stroke-linecap="round" stroke-linejoin="bevel" stroke-width="1.5"/>
    <path d="M2.4 -1.45 Q2.9 -0.9 3.0 -0.25 L2.05 0.7 0.05 1.1 Q-2.45 1.1 -2.85 -0.7 L-2.75 -0.95 -2.25 -1.65 -2.4 -1.15 Q-2.4 -0.5 -1.6 -0.05 -0.9 0.35 -0.05 0.35 L1.5 -0.05 Q2.4 -0.5 2.4 -1.3 L2.4 -1.45" fill="#a64f18" fill-rule="evenodd" stroke="none"/>
    <path d="M1.05 -1.9 L1.25 -1.4 0.9 -0.85 Q0.45 -0.45 -0.25 -0.45 -0.9 -0.45 -1.25 -0.8 L-1.45 -1.25 Q-1.45 -2.25 0.0 -2.25 0.7 -2.25 1.05 -1.9 M0.8 -1.65 Q0.8 -2.15 0.25 -2.15 -0.45 -2.15 -0.45 -1.6 -0.45 -1.1 0.15 -1.1 0.8 -1.1 0.8 -1.65" fill="#ffed9a" fill-rule="evenodd" stroke="none"/>
    <path d="M0.8 -1.65 Q0.8 -1.1 0.15 -1.1 -0.45 -1.1 -0.45 -1.6 -0.45 -2.15 0.25 -2.15 0.8 -2.15 0.8 -1.65" fill="#fff8d9" fill-rule="evenodd" stroke="none"/>
    <path d="M-2.25 -1.65 L-2.15 -1.75 Q-1.25 -2.5 0.0 -2.5 1.05 -2.5 1.85 -1.95 L2.1 -1.75 2.4 -1.45 2.4 -1.3 Q2.4 -0.5 1.5 -0.05 L-0.05 0.35 Q-0.9 0.35 -1.6 -0.05 -2.4 -0.5 -2.4 -1.15 L-2.25 -1.65 M1.05 -1.9 Q0.7 -2.25 0.0 -2.25 -1.45 -2.25 -1.45 -1.25 L-1.25 -0.8 Q-0.9 -0.45 -0.25 -0.45 0.45 -0.45 0.9 -0.85 L1.25 -1.4 1.05 -1.9" fill="#ffd751" fill-rule="evenodd" stroke="none"/>
    <path d="M3.0 -0.25 L3.0 0.0 3.0 0.05 Q2.95 0.65 2.1 1.05 L0.0 1.5 -2.15 1.05 Q-2.95 0.65 -3.0 0.05 L-3.0 0.0 -2.85 -0.7 Q-2.45 1.1 0.05 1.1 L2.05 0.7 3.0 -0.25" fill="#d4862a" fill-rule="evenodd" stroke="none"/>
  </g>
</svg>
