<?xml version="1.0" encoding="UTF-8" standalone="no"?>
<svg xmlns:ffdec="https://www.free-decompiler.com/flash" xmlns:xlink="http://www.w3.org/1999/xlink" ffdec:objectType="shape" height="7.25px" width="6.8px" xmlns="http://www.w3.org/2000/svg">
  <g transform="matrix(1.0, 0.0, 0.0, 1.0, 3.4, 3.6)">
    <path d="M2.65 -1.05 Q2.65 0.1 1.95 1.2 1.25 2.3 0.25 2.7 L-1.15 2.9 -1.2 2.85 -1.8 2.4 Q-2.4 1.85 -2.55 1.0 -2.85 -0.25 -2.15 -1.35 -1.45 -2.45 -0.25 -2.85 L1.3 -2.75 1.5 -2.7 1.6 -2.7 1.95 -2.5 2.25 -2.25 2.35 -2.15 2.65 -1.05" fill="#ffd751" fill-rule="evenodd" stroke="none"/>
    <path d="M2.65 -1.05 Q2.65 0.1 1.95 1.2 1.25 2.3 0.25 2.7 L-1.15 2.9 -1.2 2.85 -1.8 2.4 Q-2.4 1.85 -2.55 1.0 -2.85 -0.25 -2.15 -1.35 -1.45 -2.45 -0.25 -2.85 L1.3 -2.75 1.5 -2.7 1.6 -2.7 1.95 -2.5 2.25 -2.25 2.35 -2.15 2.65 -1.05 Z" fill="none" stroke="#592304" stroke-linecap="round" stroke-linejoin="bevel" stroke-width="1.5"/>
    <path d="M-2.4 -0.85 L-2.15 -1.35 Q-1.45 -2.45 -0.25 -2.85 L1.1 -2.8 1.4 -2.2 Q1.4 -1.2 0.85 -0.25 0.2 0.95 -0.8 0.95 -2.4 0.95 -2.4 -0.7 L-2.4 -0.85 M0.75 -1.5 Q0.75 -2.3 0.3 -2.4 L-0.3 -2.35 -0.4 -2.35 -1.15 -1.55 -1.45 -0.8 Q-1.45 0.1 -0.55 0.1 0.05 0.1 0.45 -0.55 L0.75 -1.5" fill="#ffd751" fill-rule="evenodd" stroke="none"/>
    <path d="M0.75 -1.5 L0.45 -0.55 Q0.05 0.1 -0.55 0.1 -1.45 0.1 -1.45 -0.8 L-1.15 -1.55 -0.4 -2.35 -0.3 -2.35 0.3 -2.4 Q0.75 -2.3 0.75 -1.5 M0.0 -0.7 Q0.6 -0.7 0.6 -1.45 0.6 -2.1 -0.15 -2.1 -0.9 -2.1 -0.9 -1.45 -0.9 -0.7 0.0 -0.7" fill="#ffed9a" fill-rule="evenodd" stroke="none"/>
    <path d="M2.0 -2.45 L2.25 -2.25 2.35 -2.15 2.65 -1.05 Q2.65 0.1 1.95 1.2 1.25 2.3 0.25 2.7 L-1.15 2.9 -1.2 2.85 -1.8 2.4 -2.55 1.05 -2.1 1.6 Q-1.45 2.1 -0.5 2.1 0.65 2.1 1.4 0.95 2.15 -0.15 2.15 -1.65 L2.0 -2.45" fill="#d4862a" fill-rule="evenodd" stroke="none"/>
    <path d="M-2.55 1.05 L-2.55 1.0 Q-2.75 0.15 -2.5 -0.6 L-2.4 -0.85 -2.4 -0.7 Q-2.4 0.95 -0.8 0.95 0.2 0.95 0.85 -0.25 1.4 -1.2 1.4 -2.2 L1.1 -2.8 1.3 -2.75 1.5 -2.7 1.6 -2.7 1.95 -2.5 2.0 -2.45 2.15 -1.65 Q2.15 -0.15 1.4 0.95 0.65 2.1 -0.5 2.1 -1.45 2.1 -2.1 1.6 L-2.55 1.05" fill="#a64f18" fill-rule="evenodd" stroke="none"/>
    <path d="M0.0 -0.7 Q-0.9 -0.7 -0.9 -1.45 -0.9 -2.1 -0.15 -2.1 0.6 -2.1 0.6 -1.45 0.6 -0.7 0.0 -0.7" fill="#fff8d9" fill-rule="evenodd" stroke="none"/>
  </g>
</svg>
