<?xml version="1.0" encoding="UTF-8" standalone="no"?>
<svg xmlns:ffdec="https://www.free-decompiler.com/flash" xmlns:xlink="http://www.w3.org/1999/xlink" ffdec:objectType="shape" height="79.0px" width="73.6px" xmlns="http://www.w3.org/2000/svg">
  <g transform="matrix(1.0, 0.0, 0.0, 1.0, 49.25, -22.2)">
    <path d="M-3.1 28.65 L0.6 32.3 2.9 34.6 3.2 34.95 Q5.0 37.05 5.75 39.15 L5.0 39.45 5.75 39.25 5.9 39.6 5.95 39.4 6.25 39.05 7.15 38.95 7.8 39.25 8.1 39.45 Q9.6 39.85 10.75 41.95 11.75 43.8 11.75 45.15 L11.65 46.3 11.5 46.4 Q10.9 46.4 9.75 44.85 L9.5 44.5 Q9.15 44.9 8.6 44.95 L8.3 44.9 6.95 45.25 5.45 45.1 5.4 45.15 5.25 45.95 4.95 46.25 4.75 46.3 Q4.15 46.45 3.25 46.0 L2.75 45.8 2.2 46.15 1.3 46.3 Q0.25 46.2 -0.75 45.3 L-0.8 45.25 Q-0.55 45.75 -1.05 47.15 L-2.25 50.1 Q-2.85 51.15 -4.45 50.7 -5.95 50.35 -7.25 49.1 L-7.65 48.7 -7.65 48.65 Q-8.5 47.8 -9.15 46.55 -9.45 47.15 -10.75 47.3 -12.25 47.55 -13.2 46.45 L-14.3 44.85 -14.9 43.85 -15.3 43.05 Q-15.9 41.55 -15.5 40.8 -15.35 40.35 -15.0 40.15 L-14.9 40.05 -14.9 39.8 -14.95 39.5 -14.95 39.25 -15.0 39.2 -15.55 38.85 -16.05 38.35 Q-16.7 37.65 -16.95 36.6 L-17.0 36.35 Q-18.0 35.4 -17.95 34.35 L-17.8 33.75 -17.9 33.7 -18.1 33.5 -18.3 33.4 -19.15 32.7 Q-19.95 32.0 -20.4 31.1 L-21.05 29.1 -21.05 29.0 Q-21.5 27.75 -21.05 27.0 -20.6 26.35 -19.6 26.45 L-19.0 26.6 -18.65 26.75 -18.55 26.75 Q-16.9 27.55 -16.5 27.9 -16.1 28.25 -15.85 28.8 L-15.55 28.55 Q-15.0 28.2 -14.05 28.0 L-13.9 27.95 -9.15 27.85 -3.4 28.8 -3.35 28.85 -3.1 28.65 M5.7 43.15 Q5.95 43.55 6.7 44.0 8.1 44.95 8.55 44.25 8.75 43.95 8.45 43.5 L8.85 43.25 8.85 43.2 9.05 42.25 8.95 41.8 Q8.7 40.85 8.05 40.2 L7.5 39.75 8.05 40.2 Q8.7 40.85 8.95 41.8 L9.05 42.25 8.85 43.2 8.85 43.25 8.45 43.5 Q8.75 43.95 8.55 44.25 8.1 44.95 6.7 44.0 5.95 43.55 5.7 43.15 M7.15 40.55 Q6.7 40.1 6.9 39.8 7.0 39.65 7.15 39.65 7.0 39.65 6.9 39.8 6.7 40.1 7.15 40.55 M4.4 39.5 Q4.15 38.2 2.15 35.7 L-0.1 32.9 2.15 35.7 Q4.15 38.2 4.4 39.5 M2.5 37.8 Q2.2 36.9 1.5 36.15 0.35 35.05 -0.85 34.65 L-2.5 34.75 -0.85 34.65 Q0.35 35.05 1.5 36.15 2.2 36.9 2.5 37.8 M-0.1 32.9 L-3.35 28.85 -0.1 32.9" fill="#592304" fill-rule="evenodd" stroke="none"/>
    <path d="M7.15 39.65 Q7.0 39.65 6.9 39.8 6.7 40.1 7.15 40.55 M7.5 39.75 L8.05 40.2 Q8.7 40.85 8.95 41.8 L9.05 42.25 8.85 43.2 8.85 43.25 8.45 43.5 Q8.75 43.95 8.55 44.25 8.1 44.95 6.7 44.0 5.95 43.55 5.7 43.15 M-2.5 34.75 L-0.85 34.65 Q0.35 35.05 1.5 36.15 2.2 36.9 2.5 37.8" fill="none" stroke="#592304" stroke-linecap="round" stroke-linejoin="bevel" stroke-width="1.5"/>
    <path d="M-3.1 28.65 L0.6 32.3 2.9 34.6 3.2 34.95 M-0.1 32.9 L2.15 35.7 Q4.15 38.2 4.4 39.5" fill="none" stroke="#592304" stroke-linecap="round" stroke-linejoin="bevel" stroke-width="1.5"/>
    <path d="M-3.35 28.85 L-3.1 28.65 M-3.35 28.85 L-0.1 32.9" fill="none" stroke="#592304" stroke-linecap="round" stroke-linejoin="bevel" stroke-width="1.5"/>
    <path d="M3.2 34.95 Q5.0 37.05 5.75 39.15 L5.0 39.45 5.75 39.25 5.9 39.6 5.95 39.4 6.25 39.05 7.15 38.95 7.8 39.25 8.1 39.45 Q9.6 39.85 10.75 41.95 11.75 43.8 11.75 45.15 L11.65 46.3 11.5 46.4 Q10.9 46.4 9.75 44.85 L9.5 44.5 Q9.15 44.9 8.6 44.95 L8.3 44.9 6.95 45.25 5.45 45.1 5.4 45.15 5.25 45.95 4.95 46.25 4.75 46.3 Q4.15 46.45 3.25 46.0 L2.75 45.8 2.2 46.15 1.3 46.3 Q0.25 46.2 -0.75 45.3 L-0.8 45.25 Q-0.55 45.75 -1.05 47.15 L-2.25 50.1 Q-2.85 51.15 -4.45 50.7 -5.95 50.35 -7.25 49.1 L-7.65 48.7 -7.65 48.65 Q-8.5 47.8 -9.15 46.55 -9.45 47.15 -10.75 47.3 -12.25 47.55 -13.2 46.45 L-14.3 44.85 -14.9 43.85 -15.3 43.05 Q-15.9 41.55 -15.5 40.8 -15.35 40.35 -15.0 40.15 L-14.9 40.05 -14.9 39.8 -14.95 39.5 -14.95 39.25 -15.0 39.2 -15.55 38.85 -16.05 38.35 Q-16.7 37.65 -16.95 36.6 L-17.0 36.35 Q-18.0 35.4 -17.95 34.35 L-17.8 33.75 -17.9 33.7 -18.1 33.5 -18.3 33.4 -19.15 32.7 Q-19.95 32.0 -20.4 31.1 L-21.05 29.1 -21.05 29.0 Q-21.5 27.75 -21.05 27.0 -20.6 26.35 -19.6 26.45 L-19.0 26.6 -18.65 26.75 -18.55 26.75 Q-16.9 27.55 -16.5 27.9 -16.1 28.25 -15.85 28.8 L-15.55 28.55 Q-15.0 28.2 -14.05 28.0 L-13.9 27.95 -9.15 27.85 -3.4 28.8 -3.35 28.85" fill="none" stroke="#592304" stroke-linecap="butt" stroke-linejoin="bevel" stroke-width="1.5"/>
    <path d="M2.5 37.8 L1.45 36.5 Q0.95 36.0 0.5 35.8 -0.25 35.2 -1.15 35.0 -2.35 34.7 -2.8 35.6 L-3.0 36.65 -3.05 36.15 -2.8 35.05 -2.75 34.95 -2.7 34.9 -2.65 34.9 -2.5 34.75 -0.85 34.65 Q0.35 35.05 1.5 36.15 2.2 36.9 2.5 37.8 M-1.35 37.7 Q-1.95 36.95 -1.6 36.35 L-0.8 36.2 Q-0.25 36.4 0.05 36.7 0.7 37.3 0.35 37.85 L0.0 38.15 -0.3 38.25 -0.4 38.25 -0.25 38.05 Q0.05 37.65 -0.4 37.2 -1.05 36.55 -1.4 37.0 L-1.35 37.7 M2.3 41.15 L2.25 41.2 2.15 41.25 1.85 41.25 Q1.2 41.15 0.75 40.7 0.5 40.45 0.6 40.25 L1.3 40.15 2.05 40.6 Q2.35 40.9 2.3 41.15 M7.55 44.1 Q7.3 44.45 6.65 43.9 5.95 43.35 6.2 42.95 6.65 42.6 7.4 43.35 7.8 43.75 7.55 44.1 M-6.1 46.5 L-6.7 45.8 -6.75 45.65 -6.5 44.7 Q-6.1 44.15 -5.2 44.4 -4.25 44.65 -3.7 45.2 -2.95 46.0 -2.75 46.7 -2.6 47.25 -2.75 48.05 L-4.1 47.95 Q-5.1 47.55 -6.1 46.55 L-6.1 46.5 M-11.35 32.75 L-11.7 32.65 -12.65 32.0 Q-13.4 31.25 -13.15 30.9 -12.95 30.6 -12.3 30.9 L-11.5 31.45 -12.1 31.5 -11.95 32.15 Q-11.3 32.9 -11.0 32.5 L-10.9 32.2 -10.9 32.45 -11.0 32.6 -11.35 32.75 M-19.85 27.75 L-19.5 27.45 Q-19.1 27.45 -18.85 27.7 -18.55 28.05 -18.8 28.4 -19.0 28.7 -19.55 28.4 -20.1 28.05 -19.85 27.75 M-18.15 31.6 L-18.9 31.55 Q-19.5 31.2 -19.25 30.85 -18.9 30.45 -18.3 31.05 -18.0 31.35 -18.15 31.6 M-13.3 32.9 L-13.5 33.0 Q-13.7 33.35 -13.3 33.75 -13.6 33.75 -13.95 33.4 L-14.35 32.55 Q-14.2 32.35 -13.85 32.55 L-13.3 32.9 M-13.9 42.35 L-13.65 42.6 Q-12.8 43.5 -12.05 43.35 -11.8 42.65 -13.0 41.45 -14.0 40.4 -14.35 40.95 L-14.3 41.65 -14.3 41.7 -14.2 41.95 -14.1 42.05 -14.1 42.1 -14.0 42.25 -13.95 42.3 -13.9 42.35 M-13.1 43.3 L-13.4 43.1 -13.9 42.6 -14.8 41.35 -15.0 40.65 Q-14.4 40.2 -13.95 40.25 -13.4 40.35 -12.65 41.1 -12.05 41.75 -11.7 42.55 L-11.55 43.3 -11.55 43.35 Q-11.75 43.75 -12.25 43.6 L-12.3 43.6 -12.65 43.55 -13.2 43.15 -13.1 43.3 M-5.1 45.0 Q-5.95 44.8 -6.2 45.2 -6.6 45.75 -5.7 46.65 -4.65 47.7 -3.8 47.8 L-3.75 47.8 -3.35 47.45 Q-2.85 46.75 -3.75 45.8 -4.25 45.3 -5.1 45.0" fill="#ffd751" fill-rule="evenodd" stroke="none"/>
    <path d="M5.7 43.15 Q5.4 42.75 5.65 42.4 L6.4 42.2 7.25 42.45 7.4 42.05 Q7.75 41.15 7.4 40.7 L8.0 40.75 7.65 39.95 7.5 39.75 8.05 40.2 Q8.7 40.85 8.95 41.8 L9.05 42.25 8.85 43.2 8.85 43.25 8.45 43.5 Q8.75 43.95 8.55 44.25 8.1 44.95 6.7 44.0 5.95 43.55 5.7 43.15 M6.1 42.9 L6.15 42.95 6.3 42.8 6.25 42.75 6.1 42.9 M7.55 44.1 Q7.8 43.75 7.4 43.35 6.65 42.6 6.2 42.95 5.95 43.35 6.65 43.9 7.3 44.45 7.55 44.1 M-19.85 27.75 Q-20.1 28.05 -19.55 28.4 -19.0 28.7 -18.8 28.4 -18.55 28.05 -18.85 27.7 -19.1 27.45 -19.5 27.45 L-19.85 27.75 M-18.5 27.7 Q-18.1 28.1 -18.3 28.4 L-18.65 28.55 -19.1 28.75 -18.75 29.65 Q-18.4 30.25 -18.55 30.55 L-18.05 30.95 Q-17.5 31.5 -17.75 31.85 -18.1 32.35 -19.1 31.65 -20.1 30.95 -19.75 30.45 L-19.6 30.4 -19.9 30.05 -20.4 28.95 Q-20.6 28.1 -20.25 27.55 -20.0 27.15 -19.35 27.25 -18.85 27.35 -18.5 27.7 M-18.15 31.6 Q-18.0 31.35 -18.3 31.05 -18.9 30.45 -19.25 30.85 -19.5 31.2 -18.9 31.55 L-18.15 31.6" fill="#e7ae31" fill-rule="evenodd" stroke="none"/>
    <path d="M-14.05 28.0 L-13.9 27.95 -9.15 27.85 -3.4 28.8 -3.35 28.85 -0.1 32.9 2.15 35.7 Q4.15 38.2 4.4 39.5 L3.8 39.5 3.35 38.2 2.9 37.45 1.85 36.0 -0.65 33.1 -1.15 32.55 -4.1 29.55 -6.1 29.05 Q-9.2 28.25 -11.35 28.2 L-13.8 28.05 -14.05 28.0 M-3.85 29.55 L-4.1 29.45 Q-4.3 29.35 -4.1 29.55 L-3.85 29.55 M-3.65 29.75 L-3.05 29.9 -3.75 29.6 -3.8 29.6 -3.65 29.75" fill="#fcd34e" fill-rule="evenodd" stroke="none"/>
    <path d="M0.5 35.8 Q0.95 36.0 1.45 36.5 L2.5 37.8 2.8 38.3 2.7 39.05 2.2 39.35 1.95 39.4 1.35 39.4 0.8 39.0 0.9 38.95 1.1 39.1 1.7 39.1 2.0 38.95 Q2.35 38.7 1.85 37.7 L0.6 35.95 0.5 35.8 M-17.95 34.35 L-17.8 33.75 -17.9 33.7 -17.75 33.65 -17.75 33.5 -15.8 32.45 -14.85 33.4 -15.65 33.25 Q-16.45 33.2 -16.7 33.7 -17.1 34.4 -16.35 35.05 L-16.15 35.25 -16.75 35.15 Q-17.4 35.0 -17.7 34.7 L-17.95 34.35 M3.4 44.8 L4.1 44.65 Q4.25 44.4 4.0 43.75 L4.0 43.45 Q3.9 43.05 4.05 42.8 L4.15 42.55 4.3 42.35 4.9 43.3 5.0 43.4 5.35 44.15 5.1 45.05 Q4.45 46.0 3.55 45.05 L3.4 44.8" fill="#ce8124" fill-rule="evenodd" stroke="none"/>
    <path d="M0.5 35.8 L0.6 35.95 1.85 37.7 Q2.35 38.7 2.0 38.95 L1.7 39.1 1.1 39.1 0.9 38.95 1.2 38.8 1.25 38.8 Q1.7 38.6 1.6 38.1 L0.55 36.6 Q-0.2 35.9 -0.9 35.75 -1.7 35.55 -2.1 36.15 L-2.25 36.5 -2.3 36.9 -2.25 37.1 -1.75 37.95 -1.5 38.2 Q-0.9 38.75 -0.15 38.9 L0.8 39.0 1.35 39.4 1.95 39.4 2.2 39.35 2.7 39.05 2.8 38.3 3.35 38.2 3.8 39.5 4.4 39.5 4.4 39.7 4.45 40.2 Q4.9 40.95 5.7 41.5 L6.5 42.0 6.7 42.0 6.35 41.7 Q5.85 41.3 5.8 40.65 L5.75 40.4 5.65 40.3 5.75 40.3 5.75 40.25 5.9 39.6 5.95 39.4 6.25 39.05 7.15 38.95 7.8 39.25 7.5 39.75 7.15 39.65 6.45 39.7 6.4 39.85 6.6 40.15 7.15 40.55 Q6.7 40.1 6.9 39.8 7.0 39.65 7.15 39.65 7.0 39.65 6.9 39.8 6.7 40.1 7.15 40.55 L6.6 40.15 6.4 39.85 6.45 39.7 7.15 39.65 7.5 39.75 7.65 39.95 8.0 40.75 7.4 40.7 Q7.75 41.15 7.4 42.05 L7.25 42.45 6.4 42.2 5.65 42.4 Q5.4 42.75 5.7 43.15 L5.55 43.25 6.1 43.8 Q7.15 44.85 8.15 44.9 L8.3 44.9 6.95 45.25 5.45 45.1 5.35 44.15 5.0 43.4 4.9 43.3 4.3 42.35 4.15 42.55 4.05 42.8 Q3.9 43.05 4.0 43.45 L4.0 43.75 Q4.25 44.4 4.1 44.65 L3.4 44.8 3.15 44.65 Q3.8 44.45 3.7 43.75 L3.45 43.2 2.8 42.8 Q2.1 42.3 1.7 42.45 1.35 42.6 1.1 43.2 0.95 43.8 1.65 44.7 L2.75 45.8 2.2 46.15 1.6 45.75 Q0.75 44.9 0.55 43.9 0.25 42.95 0.6 42.2 L0.8 42.05 0.8 42.0 0.7 42.0 0.2 41.75 -0.2 41.3 -0.25 41.3 -0.4 41.15 -0.6 40.95 -0.65 40.9 -2.05 39.1 -2.15 39.3 Q-2.7 40.3 -2.3 42.15 L-1.4 44.4 -1.05 44.9 -1.0 44.85 -1.0 44.95 -0.95 45.1 -0.8 45.25 Q-0.55 45.75 -1.05 47.15 L-2.25 50.1 Q-2.85 51.15 -4.45 50.7 -5.95 50.35 -7.25 49.1 L-7.65 48.7 -7.65 48.65 Q-8.5 47.8 -9.15 46.55 -9.45 47.15 -10.75 47.3 -12.25 47.55 -13.2 46.45 L-14.3 44.85 -13.6 45.5 Q-12.45 46.45 -11.5 46.25 -10.95 46.05 -10.55 45.6 L-10.1 44.9 Q-9.65 43.85 -9.15 42.05 L-8.55 42.15 Q-9.25 43.3 -8.9 45.05 -8.6 46.85 -7.25 48.35 L-7.05 48.55 Q-5.8 49.7 -4.55 49.6 -3.35 49.55 -2.8 48.4 L-2.55 47.9 -2.4 47.05 -2.45 46.45 -2.5 46.2 -2.9 45.25 -3.5 44.55 Q-4.25 43.9 -5.25 43.95 -6.3 44.05 -6.65 44.65 -6.9 45.15 -6.75 45.65 L-6.7 45.8 -6.1 46.5 -6.65 46.25 -6.9 46.1 Q-7.4 45.55 -7.3 44.75 L-7.15 44.25 -6.7 43.65 -6.6 43.6 Q-6.3 43.2 -5.4 43.05 -4.3 42.95 -3.45 43.85 L-2.55 44.95 -2.5 45.05 Q-2.15 45.6 -2.05 46.1 L-1.95 46.0 Q-1.9 45.4 -2.1 44.85 L-2.9 43.65 Q-3.85 42.7 -5.0 42.6 L-5.5 42.7 -5.7 41.85 Q-5.25 41.65 -4.95 41.15 -4.35 40.3 -4.4 39.45 -4.35 38.55 -5.25 37.15 L-5.55 37.45 -5.95 37.05 -7.25 37.05 -7.3 38.15 -8.4 36.15 -9.25 36.25 -9.45 36.3 -10.05 36.6 Q-10.7 37.0 -11.05 37.8 -11.6 38.9 -11.2 40.05 L-11.05 40.35 -11.45 40.6 -12.1 39.7 Q-12.5 39.3 -13.15 39.15 L-12.65 39.0 -12.25 38.35 -11.65 37.1 Q-11.5 36.5 -11.65 35.35 L-11.75 35.35 -12.05 35.3 -12.1 35.25 -13.3 34.8 -13.4 34.75 -13.9 34.4 Q-13.75 34.75 -13.75 35.2 -13.75 36.1 -14.1 36.75 -14.35 37.4 -14.65 37.5 L-15.25 37.6 -15.5 37.55 -16.4 37.05 -16.95 36.6 -17.0 36.35 Q-15.4 37.9 -14.55 36.15 -14.2 35.5 -14.5 34.85 L-15.05 34.1 Q-15.95 33.2 -16.35 33.9 -16.6 34.6 -16.2 34.95 L-15.85 35.25 -16.15 35.25 -16.35 35.05 Q-17.1 34.4 -16.7 33.7 -16.45 33.2 -15.65 33.25 L-14.85 33.4 -15.8 32.45 -17.75 33.5 -17.75 33.65 -17.9 33.7 -18.1 33.5 -18.3 33.4 -19.15 32.7 Q-19.95 32.0 -20.4 31.1 L-21.05 29.1 -20.05 31.15 -18.7 32.25 -17.3 32.45 Q-16.6 32.35 -16.35 32.05 -16.0 31.8 -15.7 31.7 L-16.0 31.15 -16.25 30.45 -16.3 30.25 -16.25 29.2 -15.9 28.8 -15.7 29.4 -15.4 29.7 -14.8 30.1 -14.65 29.55 -14.65 29.5 -13.3 29.35 -12.25 29.75 Q-12.0 29.75 -11.7 30.0 L-11.15 30.45 Q-10.3 31.2 -9.9 32.05 L-9.75 32.6 -9.55 33.2 Q-9.45 33.55 -9.5 33.85 L-9.4 33.25 -9.5 33.85 Q-9.45 33.55 -9.55 33.2 L-9.75 32.6 -9.9 32.05 Q-10.3 31.2 -11.15 30.45 L-11.7 30.0 Q-12.0 29.75 -12.25 29.75 L-13.3 29.35 -14.65 29.5 -14.5 29.15 Q-14.3 28.85 -13.85 28.9 L-12.75 29.15 Q-11.4 29.7 -10.5 30.6 -9.75 31.35 -9.5 32.0 L-9.4 33.25 -8.35 33.8 Q-5.95 35.0 -4.5 35.8 L-4.45 35.85 -4.0 36.1 -3.0 36.7 -3.0 36.65 -2.8 35.6 Q-2.35 34.7 -1.15 35.0 -0.25 35.2 0.5 35.8 M-14.9 40.05 L-14.9 39.8 -14.95 39.5 -14.95 39.3 Q-12.85 39.15 -11.75 40.25 L-11.45 40.6 -10.9 41.6 -10.75 42.3 Q-10.6 43.45 -11.05 44.1 -11.55 44.9 -12.65 43.8 L-13.1 43.3 -13.2 43.15 -12.65 43.55 -12.3 43.6 -12.25 43.6 Q-11.75 43.75 -11.55 43.35 L-11.55 43.3 Q-11.35 42.95 -11.5 42.05 -11.7 41.1 -12.55 40.3 -13.45 39.5 -14.3 39.75 L-14.9 40.05 M7.15 40.55 L7.2 40.65 7.4 40.7 7.2 40.65 7.15 40.55 M1.65 41.45 L1.85 41.55 2.55 41.55 2.65 41.55 2.85 41.4 2.95 41.15 2.5 40.35 1.15 39.8 -0.25 39.75 Q-0.55 40.15 0.15 40.8 L0.45 41.0 0.55 41.1 1.65 41.45 M-14.55 33.15 L-14.35 33.35 -13.1 34.3 -11.9 34.7 -11.75 34.7 Q-10.65 34.85 -10.1 33.9 -9.95 33.5 -10.05 32.95 L-10.15 32.55 Q-10.35 31.65 -11.0 31.1 -11.5 30.6 -12.35 30.35 L-13.4 30.5 -13.55 30.65 Q-13.7 30.95 -13.45 31.35 L-12.9 32.1 -12.8 32.2 -12.7 32.3 -12.9 32.25 -12.95 32.2 -13.0 32.2 -13.85 31.65 -14.0 31.85 -14.05 31.8 -15.15 31.85 -15.0 32.5 -14.6 33.1 -14.55 33.15 M-12.25 29.75 Q-12.6 29.6 -12.9 29.6 -13.75 29.55 -14.05 30.1 L-14.1 30.35 -14.75 30.1 -14.8 30.1 -14.75 30.1 -14.1 30.35 -14.05 30.1 Q-13.75 29.55 -12.9 29.6 -12.6 29.6 -12.25 29.75 M-17.35 28.25 Q-16.55 29.65 -16.95 30.3 L-17.0 30.5 Q-18.15 30.1 -18.45 29.65 -18.85 29.1 -18.55 28.9 -18.15 28.75 -17.95 29.05 L-17.85 29.15 Q-17.2 28.9 -17.25 28.5 L-17.35 28.25 M-17.05 30.5 L-17.05 30.55 -17.25 30.5 -17.05 30.5" fill="#83461f" fill-rule="evenodd" stroke="none"/>
    <path d="M0.9 38.95 L0.8 39.0 -0.15 38.9 Q-0.9 38.75 -1.5 38.2 L-1.75 37.95 -2.25 37.1 -2.3 36.9 -2.25 36.5 -2.1 36.15 Q-1.7 35.55 -0.9 35.75 -0.2 35.9 0.55 36.6 L1.6 38.1 Q1.7 38.6 1.25 38.8 L1.2 38.8 0.9 38.95 M-0.4 38.25 L-0.3 38.25 0.0 38.15 0.35 37.85 Q0.7 37.3 0.05 36.7 -0.25 36.4 -0.8 36.2 L-1.6 36.35 Q-1.95 36.95 -1.35 37.7 L-1.05 37.95 -0.4 38.25 M2.3 41.15 Q2.35 40.9 2.05 40.6 L1.3 40.15 0.6 40.25 Q0.5 40.45 0.75 40.7 1.2 41.15 1.85 41.25 L2.15 41.25 2.25 41.2 2.3 41.15 M1.65 41.45 L0.55 41.1 0.45 41.0 0.15 40.8 Q-0.55 40.15 -0.25 39.75 L1.15 39.8 2.5 40.35 2.95 41.15 2.85 41.4 2.65 41.55 2.55 41.55 1.85 41.55 1.65 41.45 M-14.55 33.15 L-14.6 33.1 -15.0 32.5 -15.15 31.85 -14.05 31.8 -14.0 31.85 -12.6 32.85 Q-11.8 33.65 -11.95 34.05 L-12.0 34.1 -12.2 34.25 -13.25 34.05 -14.55 33.15 M-13.3 33.75 L-13.15 33.95 Q-12.5 34.45 -12.3 34.15 L-12.35 33.65 -12.65 33.05 Q-13.0 32.7 -13.3 32.9 L-13.85 32.55 Q-14.2 32.35 -14.35 32.55 L-13.95 33.4 Q-13.6 33.75 -13.3 33.75" fill="#edbb3d" fill-rule="evenodd" stroke="none"/>
    <path d="M-9.45 36.3 L-9.25 36.25 -8.4 36.15 -7.3 38.15 -8.05 38.25 -8.4 38.4 Q-8.9 37.9 -9.25 36.9 L-9.45 36.3" fill="#a86a0d" fill-rule="evenodd" stroke="none"/>
    <path d="M-9.45 36.3 L-9.25 36.9 Q-8.9 37.9 -8.4 38.4 L-9.25 38.85 Q-9.95 38.05 -10.05 36.6 L-9.45 36.3 M-5.95 37.05 L-5.55 37.45 -5.5 37.5 -5.0 38.35 Q-4.8 38.9 -4.85 39.5 L-5.95 37.05" fill="#905702" fill-rule="evenodd" stroke="none"/>
    <path d="M-8.4 38.4 L-8.05 38.25 -7.3 38.15 -7.25 37.05 -5.95 37.05 -4.85 39.5 -5.2 40.65 -5.55 41.2 -6.7 42.0 -7.0 42.1 -8.55 42.15 -9.15 42.05 -9.5 41.9 -10.2 41.5 Q-10.3 40.55 -9.9 39.7 L-9.25 38.85 -8.4 38.4" fill="#2c131e" fill-rule="evenodd" stroke="none"/>
    <path d="M-5.55 37.45 L-5.25 37.15 Q-4.35 38.55 -4.4 39.45 -4.35 40.3 -4.95 41.15 -5.25 41.65 -5.7 41.85 L-6.7 42.0 -5.55 41.2 -5.2 40.65 -4.85 39.5 Q-4.8 38.9 -5.0 38.35 L-5.5 37.5 -5.55 37.45" fill="#ffdf7e" fill-rule="evenodd" stroke="none"/>
    <path d="M-0.4 38.25 L-1.05 37.95 -1.35 37.7 -1.4 37.0 Q-1.05 36.55 -0.4 37.2 0.05 37.65 -0.25 38.05 L-0.4 38.25 M2.75 44.5 L2.7 44.6 2.0 44.5 1.65 43.85 1.75 43.6 Q2.05 43.15 2.65 43.8 3.0 44.1 2.75 44.5 M-11.5 31.45 L-11.15 31.7 -10.9 32.2 -11.0 32.5 Q-11.3 32.9 -11.95 32.15 L-12.1 31.5 -11.5 31.45 M-13.3 32.9 Q-13.0 32.7 -12.65 33.05 L-12.35 33.65 -12.3 34.15 Q-12.5 34.45 -13.15 33.95 L-13.3 33.75 Q-13.7 33.35 -13.5 33.0 L-13.3 32.9 M-14.3 41.65 L-14.35 40.95 Q-14.0 40.4 -13.0 41.45 -11.8 42.65 -12.05 43.35 -12.8 43.5 -13.65 42.6 L-13.9 42.35 Q-13.6 42.65 -13.3 42.2 L-13.3 41.8 -13.6 41.25 Q-14.05 40.8 -14.25 41.15 L-14.3 41.65 M-13.75 43.95 Q-13.55 43.85 -12.95 44.4 -12.45 44.95 -12.7 45.35 L-12.8 45.5 -13.2 45.3 -13.4 45.1 -13.45 45.05 -13.4 44.95 Q-13.15 44.55 -13.75 43.95 M-5.1 45.0 Q-4.25 45.3 -3.75 45.8 -2.85 46.75 -3.35 47.45 L-3.75 47.8 -3.8 47.8 Q-4.65 47.7 -5.7 46.65 -6.6 45.75 -6.2 45.2 -5.95 44.8 -5.1 45.0 M-5.65 48.95 L-6.1 48.55 Q-6.55 48.1 -6.35 47.75 -5.95 47.2 -5.25 47.9 L-5.2 47.95 -5.75 48.15 Q-6.0 48.5 -5.65 48.95 M-4.65 46.25 Q-4.9 46.65 -4.45 47.15 L-3.7 47.2 Q-3.35 46.8 -3.8 46.35 -4.35 45.8 -4.65 46.25" fill="#ffdf80" fill-rule="evenodd" stroke="none"/>
    <path d="M2.2 46.15 L1.3 46.3 Q0.25 46.2 -0.75 45.3 L-0.8 45.25 -0.95 45.1 -1.0 44.95 -1.0 44.85 -1.05 44.9 -1.4 44.4 -2.3 42.15 Q-2.7 40.3 -2.15 39.3 L-2.05 39.1 -0.65 40.9 -0.6 40.95 -0.4 41.15 -0.25 41.3 -0.2 41.3 0.2 41.75 0.7 42.0 0.8 42.0 0.8 42.05 0.6 42.2 Q0.25 42.95 0.55 43.9 0.75 44.9 1.6 45.75 L2.2 46.15 M-15.55 38.85 L-16.05 38.35 Q-16.7 37.65 -16.95 36.6 L-16.4 37.05 -15.5 37.55 -15.25 37.6 -14.65 37.5 Q-14.35 37.4 -14.1 36.75 -13.75 36.1 -13.75 35.2 -13.75 34.75 -13.9 34.4 L-13.4 34.75 -13.3 34.8 -12.1 35.25 -12.05 35.3 -11.75 35.35 -11.65 35.35 Q-11.5 36.5 -11.65 37.1 L-12.25 38.35 -12.65 39.0 -13.15 39.15 -13.4 39.1 -15.55 38.85 M0.2 45.25 Q0.4 45.0 0.05 44.0 -0.25 42.95 -1.0 42.15 -1.75 41.4 -2.0 41.8 -2.25 42.15 -1.85 43.1 L-0.6 44.85 -0.2 45.25 0.2 45.25 M-14.85 38.1 L-14.8 38.35 Q-14.45 38.7 -13.85 38.65 -13.25 38.6 -13.0 38.25 -12.65 37.75 -12.95 37.45 -13.7 36.65 -14.7 37.85 L-14.9 38.05 -14.85 38.1" fill="#e9b132" fill-rule="evenodd" stroke="none"/>
    <path d="M-10.05 36.6 Q-9.95 38.05 -9.25 38.85 L-9.9 39.7 Q-10.3 40.55 -10.2 41.5 L-11.05 40.35 -11.2 40.05 Q-11.6 38.9 -11.05 37.8 -10.7 37.0 -10.05 36.6" fill="#6b3a00" fill-rule="evenodd" stroke="none"/>
    <path d="M5.45 45.1 L5.4 45.15 5.25 45.95 4.95 46.25 4.75 46.3 Q4.15 46.45 3.25 46.0 L2.75 45.8 1.65 44.7 Q0.95 43.8 1.1 43.2 1.35 42.6 1.7 42.45 2.1 42.3 2.8 42.8 L3.45 43.2 3.7 43.75 Q3.8 44.45 3.15 44.65 L3.4 44.8 3.55 45.05 Q4.45 46.0 5.1 45.05 L5.35 44.15 5.45 45.1 M-17.0 36.35 Q-18.0 35.4 -17.95 34.35 L-17.7 34.7 Q-17.4 35.0 -16.75 35.15 L-16.15 35.25 -15.85 35.25 -16.2 34.95 Q-16.6 34.6 -16.35 33.9 -15.95 33.2 -15.05 34.1 L-14.5 34.85 Q-14.2 35.5 -14.55 36.15 -15.4 37.9 -17.0 36.35 M2.75 44.5 L3.1 44.25 Q3.3 43.95 2.85 43.5 2.65 43.25 2.3 43.25 L1.7 43.45 1.65 43.85 2.0 44.5 2.7 44.6 2.75 44.5 M-16.15 34.35 L-16.2 34.6 -16.1 34.75 Q-15.25 35.6 -14.9 35.1 -14.7 34.8 -15.0 34.5 -15.25 34.3 -15.6 34.2 L-16.15 34.35" fill="#e9b232" fill-rule="evenodd" stroke="none"/>
    <path d="M1.65 43.85 L1.7 43.45 2.3 43.25 Q2.65 43.25 2.85 43.5 3.3 43.95 3.1 44.25 L2.75 44.5 Q3.0 44.1 2.65 43.8 2.05 43.15 1.75 43.6 L1.65 43.85 M0.2 45.25 L-0.2 45.25 -0.6 44.85 -1.85 43.1 Q-2.25 42.15 -2.0 41.8 -1.75 41.4 -1.0 42.15 -0.25 42.95 0.05 44.0 0.4 45.0 0.2 45.25 M-16.15 34.35 L-15.6 34.2 Q-15.25 34.3 -15.0 34.5 -14.7 34.8 -14.9 35.1 -15.25 35.6 -16.1 34.75 L-16.2 34.6 -16.15 34.35 M-14.7 37.85 Q-13.7 36.65 -12.95 37.45 -12.65 37.75 -13.0 38.25 -13.25 38.6 -13.85 38.65 -14.45 38.7 -14.8 38.35 L-14.85 38.1 -14.7 37.85" fill="#f0c44e" fill-rule="evenodd" stroke="none"/>
    <path d="M-13.9 42.35 L-13.95 42.3 -14.0 42.25 -14.1 42.1 -14.1 42.05 -14.2 41.95 -14.3 41.7 -14.3 41.65 -14.25 41.15 Q-14.05 40.8 -13.6 41.25 L-13.3 41.8 -13.3 42.2 Q-13.6 42.65 -13.9 42.35 M-13.7 45.1 L-13.75 45.05 -14.2 44.75 -14.55 44.0 -14.5 43.7 Q-14.3 43.4 -13.75 43.95 -13.15 44.55 -13.4 44.95 L-13.45 45.05 -13.7 45.1 M-5.2 47.95 L-4.9 48.15 Q-4.75 48.35 -4.75 48.7 -4.7 48.95 -4.8 49.1 L-5.55 49.05 -5.65 48.95 Q-6.0 48.5 -5.75 48.15 L-5.2 47.95 M-4.65 46.25 Q-4.35 45.8 -3.8 46.35 -3.35 46.8 -3.7 47.2 L-4.45 47.15 Q-4.9 46.65 -4.65 46.25" fill="#fff2cb" fill-rule="evenodd" stroke="none"/>
    <path d="M-15.0 40.15 L-14.9 40.05 -14.3 39.75 Q-13.45 39.5 -12.55 40.3 -11.7 41.1 -11.5 42.05 -11.35 42.95 -11.55 43.3 L-11.7 42.55 Q-12.05 41.75 -12.65 41.1 -13.4 40.35 -13.95 40.25 -14.4 40.2 -15.0 40.65 L-15.0 40.15 M-6.75 45.65 Q-6.9 45.15 -6.65 44.65 -6.3 44.05 -5.25 43.95 -4.25 43.9 -3.5 44.55 L-2.9 45.25 -2.5 46.2 -2.45 46.45 -2.4 47.05 -2.55 47.9 -2.75 48.05 Q-2.6 47.25 -2.75 46.7 -2.95 46.0 -3.7 45.2 -4.25 44.65 -5.2 44.4 -6.1 44.15 -6.5 44.7 L-6.75 45.65" fill="#eebd40" fill-rule="evenodd" stroke="none"/>
    <path d="M-14.95 39.3 L-14.95 39.25 -15.0 39.2 -15.55 38.85 -13.4 39.1 -13.15 39.15 Q-12.5 39.3 -12.1 39.7 L-11.45 40.6 -11.75 40.25 Q-12.85 39.15 -14.95 39.3 M-5.5 42.7 L-5.0 42.6 Q-3.85 42.7 -2.9 43.65 L-2.1 44.85 Q-1.9 45.4 -1.95 46.0 L-2.05 46.1 Q-2.15 45.6 -2.5 45.05 L-2.55 44.95 -3.45 43.85 Q-4.3 42.95 -5.4 43.05 -6.3 43.2 -6.6 43.6 L-6.55 43.45 Q-6.2 42.85 -5.5 42.7" fill="#f6d46a" fill-rule="evenodd" stroke="none"/>
    <path d="M-14.55 44.0 L-14.65 43.85 -14.75 43.1 -13.85 43.15 -12.85 43.95 Q-12.25 44.5 -12.1 45.15 -12.0 45.65 -12.15 45.85 L-12.3 45.95 -12.7 45.8 -13.05 45.55 -13.7 45.1 -13.45 45.05 -13.4 45.1 -13.2 45.3 -12.85 45.55 -12.8 45.5 -12.7 45.35 Q-12.45 44.95 -12.95 44.4 -13.55 43.85 -13.75 43.95 -14.3 43.4 -14.5 43.7 L-14.55 44.0 M-5.2 47.95 L-5.25 47.9 Q-5.95 47.2 -6.35 47.75 -6.55 48.1 -6.1 48.55 L-5.65 48.95 -5.55 49.05 -4.8 49.1 Q-4.7 48.95 -4.75 48.7 -4.75 48.35 -4.9 48.15 L-5.2 47.95 M-7.1 48.25 Q-8.2 47.15 -7.85 46.65 L-6.8 46.55 Q-6.05 46.85 -4.85 47.8 -4.1 48.6 -4.45 49.1 L-4.55 49.3 -4.7 49.35 -4.95 49.35 -5.8 49.15 -7.1 48.25" fill="#f6d56c" fill-rule="evenodd" stroke="none"/>
    <path d="M-2.5 34.75 L-2.65 34.9 -2.7 34.9 -2.75 34.95 -3.15 35.35 -3.25 35.4 -4.0 36.1 -4.45 35.85 -4.5 35.8 Q-5.95 35.0 -8.35 33.8 L-8.35 31.25 -8.2 31.35 Q-7.8 31.45 -8.4 30.95 -9.1 30.5 -6.35 31.3 -3.65 32.15 -1.1 33.45 L-2.5 34.75 M-12.9 32.25 L-12.7 32.3 -12.8 32.2 -12.9 32.1 -13.45 31.35 Q-13.7 30.95 -13.55 30.65 L-13.4 30.5 -12.35 30.35 Q-11.5 30.6 -11.0 31.1 -10.35 31.65 -10.15 32.55 L-10.05 32.95 Q-10.35 33.45 -11.15 33.3 -12.1 33.1 -12.9 32.25 M-11.5 31.45 L-12.3 30.9 Q-12.95 30.6 -13.15 30.9 -13.4 31.25 -12.65 32.0 L-11.7 32.65 -11.35 32.75 Q-10.9 32.85 -10.9 32.45 L-10.9 32.2 -11.15 31.7 -11.5 31.45" fill="#d89429" fill-rule="evenodd" stroke="none"/>
    <path d="M-3.35 28.85 L-3.1 28.65 0.6 32.3 2.9 34.6 3.2 34.95 Q5.0 37.05 5.75 39.15 L5.0 39.45 5.75 39.25 5.9 39.6 5.75 40.25 5.75 40.3 5.65 40.3 5.75 40.4 5.8 40.65 Q5.85 41.3 6.35 41.7 L6.7 42.0 6.5 42.0 5.7 41.5 Q4.9 40.95 4.45 40.2 L4.4 39.7 4.4 39.5 Q4.15 38.2 2.15 35.7 L-0.1 32.9 -3.35 28.85 M8.1 39.45 Q9.6 39.85 10.75 41.95 11.75 43.8 11.75 45.15 L11.65 46.3 11.5 46.4 Q10.9 46.4 9.75 44.85 L9.5 44.5 9.75 44.05 Q10.85 41.95 8.9 40.1 L8.1 39.45 M-18.65 26.75 L-18.55 26.75 Q-16.9 27.55 -16.5 27.9 -16.1 28.25 -15.85 28.8 L-15.9 28.8 -16.25 29.2 -16.3 30.25 -16.25 30.45 -16.75 30.6 -16.85 30.6 -17.05 30.55 -17.05 30.5 -17.0 30.5 -16.95 30.3 Q-16.55 29.65 -17.35 28.25 L-17.95 27.35 -18.65 26.75" fill="#592304" fill-rule="evenodd" stroke="none"/>
    <path d="M7.8 39.25 L8.1 39.45 8.9 40.1 Q10.85 41.95 9.75 44.05 L9.5 44.5 Q9.15 44.9 8.6 44.95 L8.3 44.9 8.15 44.9 Q7.15 44.85 6.1 43.8 L5.55 43.25 5.7 43.15 Q5.95 43.55 6.7 44.0 8.1 44.95 8.55 44.25 8.75 43.95 8.45 43.5 L8.85 43.25 8.85 43.2 9.05 42.25 8.95 41.8 Q8.7 40.85 8.05 40.2 L7.5 39.75 7.8 39.25 M6.1 42.9 L6.25 42.75 6.3 42.8 6.15 42.95 6.1 42.9" fill="url(#gradient0)" fill-rule="evenodd" stroke="none"/>
    <path d="M2.8 38.3 L2.5 37.8 Q2.2 36.9 1.5 36.15 0.35 35.05 -0.85 34.65 L-2.5 34.75 -1.1 33.45 Q-3.65 32.15 -6.35 31.3 -9.1 30.5 -8.4 30.95 -7.8 31.45 -8.2 31.35 L-8.35 31.25 -8.35 33.8 -9.4 33.25 -9.5 32.0 Q-9.75 31.35 -10.5 30.6 -11.4 29.7 -12.75 29.15 L-13.85 28.9 Q-14.3 28.85 -14.5 29.15 L-14.65 29.5 -14.65 29.55 -14.8 30.1 -15.4 29.7 -15.7 29.4 -15.9 28.8 -15.85 28.8 -15.55 28.55 Q-15.0 28.2 -14.05 28.0 L-13.8 28.05 -11.35 28.2 Q-9.2 28.25 -6.1 29.05 L-4.1 29.55 -1.15 32.55 -0.65 33.1 1.85 36.0 2.9 37.45 3.35 38.2 2.8 38.3 M-2.75 34.95 L-2.8 35.05 -3.05 36.15 -3.0 36.65 -3.0 36.7 -4.0 36.1 -3.25 35.4 -3.15 35.35 -2.75 34.95 M-14.3 44.85 L-14.9 43.85 -15.3 43.05 Q-15.9 41.55 -15.5 40.8 -15.35 40.35 -15.0 40.15 L-15.0 40.65 -14.8 41.35 -13.9 42.6 -13.4 43.1 -13.1 43.3 -12.65 43.8 Q-11.55 44.9 -11.05 44.1 -10.6 43.45 -10.75 42.3 L-10.9 41.6 -11.45 40.6 -11.05 40.35 -10.2 41.5 -9.5 41.9 -9.15 42.05 Q-9.65 43.85 -10.1 44.9 L-10.55 45.6 Q-10.95 46.05 -11.5 46.25 -12.45 46.45 -13.6 45.5 L-14.3 44.85 M-3.85 29.55 L-4.1 29.55 Q-4.3 29.35 -4.1 29.45 L-3.85 29.55 M-3.65 29.75 L-3.8 29.6 -3.75 29.6 -3.05 29.9 -3.65 29.75 M-10.05 32.95 Q-9.95 33.5 -10.1 33.9 -10.65 34.85 -11.75 34.7 L-11.9 34.7 -13.1 34.3 -14.35 33.35 -14.55 33.15 -13.25 34.05 -12.2 34.25 -12.0 34.1 -11.95 34.05 Q-11.8 33.65 -12.6 32.85 L-14.0 31.85 -13.85 31.65 -13.0 32.2 -12.95 32.2 -12.9 32.25 Q-12.1 33.1 -11.15 33.3 -10.35 33.45 -10.05 32.95 M-5.7 41.85 L-5.5 42.7 Q-6.2 42.85 -6.55 43.45 L-6.6 43.6 -6.7 43.65 -7.15 44.25 -7.3 44.75 Q-7.4 45.55 -6.9 46.1 L-6.65 46.25 -6.1 46.5 -6.1 46.55 Q-5.1 47.55 -4.1 47.95 L-2.75 48.05 -2.55 47.9 -2.8 48.4 Q-3.35 49.55 -4.55 49.6 -5.8 49.7 -7.05 48.55 L-7.25 48.35 Q-8.6 46.85 -8.9 45.05 -9.25 43.3 -8.55 42.15 L-7.0 42.1 -6.7 42.0 -5.7 41.85 M-10.9 32.45 Q-10.9 32.85 -11.35 32.75 L-11.0 32.6 -10.9 32.45 M-14.85 38.1 L-14.9 38.05 -14.7 37.85 -14.85 38.1 M-13.7 45.1 L-13.05 45.55 -12.7 45.8 -12.3 45.95 -12.15 45.85 Q-12.0 45.65 -12.1 45.15 -12.25 44.5 -12.85 43.95 L-13.85 43.15 -14.75 43.1 -14.65 43.85 -14.55 44.0 -14.2 44.75 -13.75 45.05 -13.7 45.1 M-12.8 45.5 L-12.85 45.55 -13.2 45.3 -12.8 45.5 M-7.1 48.25 L-5.8 49.15 -4.95 49.35 -4.7 49.35 -4.55 49.3 -4.45 49.1 Q-4.1 48.6 -4.85 47.8 -6.05 46.85 -6.8 46.55 L-7.85 46.65 Q-8.2 47.15 -7.1 48.25" fill="url(#gradient1)" fill-rule="evenodd" stroke="none"/>
    <path d="M-21.05 29.1 L-21.05 29.0 Q-21.5 27.75 -21.05 27.0 -20.6 26.35 -19.6 26.45 L-19.0 26.6 -18.65 26.75 -17.95 27.35 -17.35 28.25 -17.25 28.5 Q-17.2 28.9 -17.85 29.15 L-17.95 29.05 Q-18.15 28.75 -18.55 28.9 -18.85 29.1 -18.45 29.65 -18.15 30.1 -17.0 30.5 L-17.05 30.5 -17.25 30.5 -17.05 30.55 -16.85 30.6 -16.75 30.6 -16.25 30.45 -16.0 31.15 -15.7 31.7 Q-16.0 31.8 -16.35 32.05 -16.6 32.35 -17.3 32.45 L-18.7 32.25 -20.05 31.15 -21.05 29.1 M-18.5 27.7 Q-18.85 27.35 -19.35 27.25 -20.0 27.15 -20.25 27.55 -20.6 28.1 -20.4 28.95 L-19.9 30.05 -19.6 30.4 -19.75 30.45 Q-20.1 30.95 -19.1 31.65 -18.1 32.35 -17.75 31.85 -17.5 31.5 -18.05 30.95 L-18.55 30.55 Q-18.4 30.25 -18.75 29.65 L-19.1 28.75 -18.65 28.55 -18.3 28.4 Q-18.1 28.1 -18.5 27.7" fill="url(#gradient2)" fill-rule="evenodd" stroke="none"/>
    <path d="M18.95 49.05 L23.6 55.05 17.75 65.55 21.0 71.65 19.55 74.7 Q18.65 76.6 18.1 78.25 17.3 80.5 17.1 82.35 L17.0 83.55 11.0 84.75 8.15 100.45 8.15 100.4 -44.4 74.25 -48.4 68.7 -48.45 68.65 -48.35 68.5 -47.45 68.9 -48.5 67.9 Q-47.4 66.3 -46.45 64.3 -44.85 61.0 -43.6 56.55 L-36.55 55.35 -36.0 52.6 -34.55 48.7 -33.45 46.45 -33.45 46.4 -33.25 46.0 -37.85 39.1 -36.4 34.25 -34.65 27.65 -34.5 27.2 -33.45 22.95 18.7 48.95 18.95 49.05 M9.5 51.65 L-25.3 34.35 -26.75 42.95 -26.7 43.0 -23.8 49.8 -24.35 50.95 -24.4 51.0 -25.3 52.9 Q-26.9 56.55 -27.4 59.3 L-27.6 61.3 -33.6 62.5 -36.2 67.8 -36.55 67.9 -36.3 68.05 -1.1 84.9 Q-0.1 82.5 0.8 79.5 L1.0 78.8 8.0 77.7 8.05 77.55 8.45 75.35 Q8.9 73.4 9.95 71.05 L11.25 68.35 6.7 61.45 6.75 61.35 7.05 60.3 7.2 59.8 8.7 54.6 9.35 52.45 9.4 52.15 9.5 51.65 M-25.8 49.95 L-25.7 49.75 -26.05 49.6 -25.8 49.95" fill="#463d35" fill-rule="evenodd" stroke="none"/>
    <path d="M18.95 49.05 L23.6 55.05 17.75 65.55 21.0 71.65 19.55 74.7 Q18.65 76.6 18.1 78.25 17.3 80.5 17.1 82.35 L17.0 83.55 11.0 84.75 8.15 100.45 8.15 100.4 -44.4 74.25 -48.4 68.7 -48.45 68.65 -48.35 68.5 -47.45 68.9 -48.5 67.9 Q-47.4 66.3 -46.45 64.3 -44.85 61.0 -43.6 56.55 L-36.55 55.35 -36.0 52.6 -34.55 48.7 -33.45 46.45 -33.45 46.4 -33.25 46.0 -37.85 39.1 -36.4 34.25 -34.65 27.65 -34.5 27.2 -33.45 22.95 18.7 48.95 18.95 49.05 M9.5 51.65 L-25.3 34.35 -26.75 42.95 -26.7 43.0 -23.8 49.8 -24.35 50.95 -24.4 51.0 -25.3 52.9 Q-26.9 56.55 -27.4 59.3 L-27.6 61.3 -33.6 62.5 -36.2 67.8 -36.55 67.9 -36.3 68.05 -1.1 84.9 Q-0.1 82.5 0.8 79.5 L1.0 78.8 8.0 77.7 8.05 77.55 8.45 75.35 Q8.9 73.4 9.95 71.05 L11.25 68.35 6.7 61.45 6.75 61.35 7.05 60.3 7.2 59.8 8.7 54.6 9.35 52.45 9.4 52.15 9.5 51.65 M-25.8 49.95 L-25.7 49.75 -26.05 49.6 -25.8 49.95 Z" fill="none" stroke="#191512" stroke-linecap="round" stroke-linejoin="bevel" stroke-width="1.5"/>
    <path d="M17.1 48.15 L16.6 53.5 Q15.3 61.35 11.9 61.35 10.7 61.35 9.55 59.7 8.5 58.15 8.5 56.75 L8.7 54.6 9.35 52.45 9.4 52.15 9.5 51.65 9.95 49.9 -9.05 40.45 -10.75 38.8 -12.9 37.3 -15.45 35.75 Q-17.85 34.1 -22.2 32.1 -26.3 30.2 -27.2 30.2 -28.3 30.2 -29.95 34.4 -31.55 38.6 -32.85 38.6 -34.5 38.6 -35.5 37.0 -36.2 35.9 -36.4 34.25 L-34.65 27.65 -34.5 27.2 -33.45 22.95 17.1 48.15 M-1.4 91.9 L-13.3 85.95 -13.3 85.85 Q-13.3 84.85 -14.55 83.2 -15.6 81.8 -16.6 81.05 L-17.65 79.25 -18.05 78.45 -10.2 82.35 -6.65 85.2 Q-3.9 87.15 -2.75 87.15 -0.95 87.15 0.45 84.7 1.8 82.25 3.3 82.25 4.2 82.25 5.05 83.7 L5.6 84.85 5.85 86.35 Q5.85 88.65 4.0 90.25 2.05 91.9 -1.0 91.9 L-1.4 91.9 M-45.5 66.1 Q-45.3 64.65 -44.55 63.4 -43.3 61.35 -41.05 61.35 -38.45 61.35 -37.95 63.45 L-37.65 65.35 -37.75 65.7 Q-38.05 65.15 -38.45 64.9 -39.2 64.45 -41.85 64.45 -43.2 64.45 -44.55 65.3 L-45.5 66.1" fill="#d2cebd" fill-rule="evenodd" stroke="none"/>
    <path d="M-36.55 55.35 L-36.0 52.6 Q-33.75 52.85 -30.95 55.05 L-28.6 57.15 -28.95 59.05 -28.95 59.1 Q-32.7 57.25 -36.5 55.35 L-36.55 55.35 M-34.55 48.7 L-33.45 46.45 -33.45 46.4 -33.25 46.0 -26.05 49.6 -25.8 49.95 -25.9 50.2 -27.15 52.8 -30.2 51.8 Q-33.05 50.5 -34.55 48.7 M9.95 71.05 L11.25 68.35 11.1 68.1 18.9 72.0 17.45 75.1 17.3 75.1 Q11.6 73.55 9.95 71.05 M16.1 78.95 L15.65 81.35 8.05 77.55 8.45 75.35 8.6 75.3 Q11.5 75.3 14.4 77.5 L16.1 78.95" fill="#b5aa95" fill-rule="evenodd" stroke="none"/>
    <path d="M6.75 61.35 L14.35 65.1 16.6 68.5 17.2 69.45 Q14.1 67.35 10.75 65.85 L9.6 65.85 6.7 61.45 6.75 61.35 M-38.7 55.75 L-36.55 55.35 -36.5 55.35 Q-32.7 57.25 -28.95 59.1 L-32.85 59.7 Q-37.25 59.6 -38.7 55.75 M-34.85 43.6 L-37.85 39.1 -30.25 42.85 -28.1 46.35 -29.95 45.2 Q-32.85 43.55 -34.15 43.55 L-34.85 43.6 M15.65 81.35 L13.65 81.7 Q5.15 81.65 4.85 78.25 L8.0 77.7 8.05 77.55 15.65 81.35" fill="#7b7765" fill-rule="evenodd" stroke="none"/>
    <path d="M16.25 67.5 Q16.1 67.15 16.1 66.65 L16.2 65.45 17.75 65.55 16.85 67.1 16.25 67.5 M19.55 74.7 Q18.65 76.6 18.1 78.25 L17.8 78.2 Q16.95 78.05 16.6 77.3 L17.45 75.1 Q18.05 75.05 19.15 74.45 L19.55 74.7 M17.1 82.35 L17.0 83.55 11.0 84.75 8.15 100.45 8.15 100.4 5.2 96.6 Q7.4 89.1 9.4 86.1 L9.6 85.85 10.8 84.45 Q12.7 82.65 15.35 82.35 L16.5 82.25 17.1 82.35 M-29.0 38.65 L-27.65 41.05 -26.65 42.4 -26.75 42.95 -26.7 43.0 -23.8 49.8 -24.35 50.95 -24.4 51.0 -25.3 52.9 Q-26.9 56.55 -27.4 59.3 L-27.6 61.3 -33.6 62.5 -34.9 65.2 Q-36.35 64.85 -37.15 63.95 L-35.95 60.2 -32.85 59.7 -28.95 59.1 -28.95 59.05 -28.6 57.15 Q-28.2 55.2 -27.15 52.8 L-25.9 50.2 -25.8 49.95 -25.7 49.75 -26.05 49.6 -28.1 46.35 -30.25 42.85 -29.0 38.65 M-36.55 67.9 L-36.3 68.05 -1.1 84.9 -1.8 86.5 -10.2 82.35 -18.05 78.45 -38.55 68.25 -36.55 67.9" fill="#574c42" fill-rule="evenodd" stroke="none"/>
    <path d="M-33.25 46.0 L-34.85 43.6 -34.15 43.55 Q-32.85 43.55 -29.95 45.2 L-28.1 46.35 -26.05 49.6 -33.25 46.0 M-9.05 40.45 L9.95 49.9 9.5 51.65 -25.3 34.35 -27.05 31.45 -9.05 40.45 M11.1 68.1 L9.6 65.85 10.75 65.85 Q14.1 67.35 17.2 69.45 L18.9 72.0 11.1 68.1" fill="#988a77" fill-rule="evenodd" stroke="none"/>
    <path d="M14.35 65.1 L14.65 64.1 15.05 62.8 18.7 49.0 18.7 48.95 18.95 49.05 21.85 52.75 Q19.9 55.25 18.2 59.0 17.15 61.35 16.65 63.25 L16.45 64.05 16.2 65.3 16.2 65.45 16.1 66.65 Q16.1 67.15 16.25 67.5 L16.3 67.6 16.6 68.5 14.35 65.1 M18.1 78.25 Q17.3 80.5 17.1 82.35 L16.5 82.25 15.35 82.35 Q12.7 82.65 10.8 84.45 L9.6 85.85 9.4 86.1 Q7.4 89.1 5.2 96.6 L8.15 100.4 -44.4 74.25 -48.4 68.7 -48.45 68.65 -48.35 68.5 -47.45 68.9 -43.7 70.75 -13.3 85.95 -1.4 91.9 3.4 94.3 Q5.85 90.95 7.75 85.35 L8.65 82.45 13.65 81.7 15.65 81.35 16.1 78.95 16.6 77.3 Q16.95 78.05 17.8 78.2 L18.1 78.25 M-27.05 31.45 L-25.3 34.35 -26.65 42.4 -27.65 41.05 -29.0 38.65 -27.05 31.45 M-34.9 65.2 L-36.2 67.8 -36.55 67.9 -38.55 68.25 -38.85 68.1 -37.75 65.7 -37.65 65.35 -37.15 63.95 Q-36.35 64.85 -34.9 65.2" fill="#463d35" fill-rule="evenodd" stroke="none"/>
    <path d="M-36.0 52.6 L-34.55 48.7 Q-33.05 50.5 -30.2 51.8 L-27.15 52.8 Q-28.2 55.2 -28.6 57.15 L-30.95 55.05 Q-33.75 52.85 -36.0 52.6 M17.45 75.1 L16.6 77.3 16.1 78.95 14.4 77.5 Q11.5 75.3 8.6 75.3 L8.45 75.35 Q8.9 73.4 9.95 71.05 11.6 73.55 17.3 75.1 L17.45 75.1" fill="#d2cfbe" fill-rule="evenodd" stroke="none"/>
    <path d="M18.7 48.95 L18.7 49.0 15.05 62.8 14.65 64.1 14.35 65.1 6.75 61.35 7.05 60.3 7.2 59.8 8.7 54.6 8.5 56.75 Q8.5 58.15 9.55 59.7 10.7 61.35 11.9 61.35 15.3 61.35 16.6 53.5 L17.1 48.15 18.7 48.95 M-47.45 68.9 L-48.5 67.9 Q-47.4 66.3 -46.45 64.3 -44.85 61.0 -43.6 56.55 L-43.3 56.5 -35.95 60.2 -37.15 63.95 -37.65 65.35 -37.95 63.45 Q-38.45 61.35 -41.05 61.35 -43.3 61.35 -44.55 63.4 -45.3 64.65 -45.5 66.1 L-45.55 67.1 Q-45.55 67.95 -44.65 69.3 L-43.7 70.75 -47.45 68.9 M-37.85 39.1 L-36.4 34.25 Q-36.2 35.9 -35.5 37.0 -34.5 38.6 -32.85 38.6 -31.55 38.6 -29.95 34.4 -28.3 30.2 -27.2 30.2 -26.3 30.2 -22.2 32.1 -17.85 34.1 -15.45 35.75 L-12.9 37.3 -10.75 38.8 -9.05 40.45 -27.05 31.45 -29.0 38.65 -30.25 42.85 -37.85 39.1 M8.65 82.45 L7.75 85.35 Q5.85 90.95 3.4 94.3 L-1.4 91.9 -1.0 91.9 Q2.05 91.9 4.0 90.25 5.85 88.65 5.85 86.35 L5.6 84.85 5.05 83.7 Q4.2 82.25 3.3 82.25 1.8 82.25 0.45 84.7 -0.95 87.15 -2.75 87.15 -3.9 87.15 -6.65 85.2 L-10.2 82.35 -1.8 86.5 -1.1 84.9 Q-0.1 82.5 0.8 79.5 L1.0 78.8 1.3 78.75 8.65 82.45" fill="#e5e4c9" fill-rule="evenodd" stroke="none"/>
    <path d="M16.6 68.5 L16.3 67.6 16.25 67.5 16.85 67.1 17.75 65.55 16.2 65.45 16.2 65.3 16.45 64.05 16.65 63.25 Q17.15 61.35 18.2 59.0 19.9 55.25 21.85 52.75 L23.6 55.05 17.75 65.55 21.0 71.65 19.55 74.7 19.15 74.45 Q18.05 75.05 17.45 75.1 L18.9 72.0 17.2 69.45 16.6 68.5" fill="#5c5944" fill-rule="evenodd" stroke="none"/>
    <path d="M-43.3 56.5 L-38.7 55.75 Q-37.25 59.6 -32.85 59.7 L-35.95 60.2 -43.3 56.5 M13.65 81.7 L8.65 82.45 1.3 78.75 4.85 78.25 Q5.15 81.65 13.65 81.7" fill="#746d5b" fill-rule="evenodd" stroke="none"/>
    <path d="M-13.3 85.95 L-43.7 70.75 -44.65 69.3 Q-45.55 67.95 -45.55 67.1 L-45.5 66.1 -44.55 65.3 Q-43.2 64.45 -41.85 64.45 -39.2 64.45 -38.45 64.9 -38.05 65.15 -37.75 65.7 L-38.85 68.1 -38.55 68.25 -18.05 78.45 -17.65 79.25 -16.6 81.05 Q-15.6 81.8 -14.55 83.2 -13.3 84.85 -13.3 85.85 L-13.3 85.95" fill="#978775" fill-rule="evenodd" stroke="none"/>
  </g>
  <defs>
    <radialGradient cx="0" cy="0" gradientTransform="matrix(0.0081, 0.0083, 0.0042, -0.0062, 11.15, 49.05)" gradientUnits="userSpaceOnUse" id="gradient0" r="819.2" spreadMethod="pad">
      <stop offset="0.08627450980392157" stop-color="#f7d76f"/>
      <stop offset="0.5254901960784314" stop-color="#ecb634"/>
      <stop offset="1.0" stop-color="#ce8124"/>
    </radialGradient>
    <radialGradient cx="0" cy="0" gradientTransform="matrix(0.0282, 0.0288, 0.011, -0.0164, -9.4, 44.95)" gradientUnits="userSpaceOnUse" id="gradient1" r="819.2" spreadMethod="pad">
      <stop offset="0.08627450980392157" stop-color="#f7d76f"/>
      <stop offset="0.5254901960784314" stop-color="#ecb634"/>
      <stop offset="1.0" stop-color="#ce8124"/>
    </radialGradient>
    <radialGradient cx="0" cy="0" gradientTransform="matrix(0.0063, 0.0065, 0.0032, -0.0048, -23.2, 31.2)" gradientUnits="userSpaceOnUse" id="gradient2" r="819.2" spreadMethod="pad">
      <stop offset="0.08627450980392157" stop-color="#f7d76f"/>
      <stop offset="0.5254901960784314" stop-color="#ecb634"/>
      <stop offset="1.0" stop-color="#ce8124"/>
    </radialGradient>
  </defs>
</svg>
