<?xml version="1.0" encoding="UTF-8" standalone="no"?>
<svg xmlns:ffdec="https://www.free-decompiler.com/flash" xmlns:xlink="http://www.w3.org/1999/xlink" ffdec:objectType="shape" height="50.55px" width="47.55px" xmlns="http://www.w3.org/2000/svg">
  <g transform="matrix(1.0, 0.0, 0.0, 1.0, 23.8, 25.25)">
    <path d="M19.1 -1.4 Q15.55 -3.0 12.1 -4.7 L1.75 -9.7 -2.65 -11.8 Q-4.35 -12.75 -7.05 -14.65 -8.45 -15.6 -11.25 -16.85 -12.85 -18.05 -12.5 -20.5 L-11.45 -20.55 Q-6.55 -20.55 -0.3 -17.25 L9.95 -11.15 Q12.8 -9.5 16.9 -7.8 19.6 -6.4 19.6 -3.95 19.6 -2.7 19.2 -1.7 L19.1 -1.4" fill="#f05f8b" fill-rule="evenodd" stroke="none"/>
    <path d="M20.4 5.8 L22.5 6.85 22.95 7.55 Q21.4 10.9 20.05 12.45 17.45 15.5 13.45 15.5 L13.35 15.5 -15.1 1.7 -14.9 -0.3 -14.45 -2.25 -12.75 -2.35 Q-6.1 -2.35 3.95 4.1 L10.95 8.55 Q14.5 10.55 16.7 10.55 18.25 10.55 19.4 8.95 20.4 7.55 20.4 6.15 L20.4 5.8" fill="#df4074" fill-rule="evenodd" stroke="none"/>
    <path d="M13.35 15.5 L13.45 15.5 Q17.45 15.5 20.05 12.45 21.4 10.9 22.95 7.55 L23.75 8.75 Q20.85 14.35 20.55 17.95 L20.5 18.1 19.15 18.35 15.55 16.6 13.35 15.5" fill="#bd2951" fill-rule="evenodd" stroke="none"/>
    <path d="M-15.1 1.7 L13.35 15.5 15.55 16.6 12.8 16.9 Q11.4 16.9 -2.35 10.3 L-12.9 5.15 -18.35 2.35 -15.1 1.7" fill="#871633" fill-rule="evenodd" stroke="none"/>
    <path d="M-18.35 2.35 L-12.9 5.15 -2.35 10.3 Q11.4 16.9 12.8 16.9 L15.55 16.6 19.15 18.35 13.5 19.2 13.3 19.9 11.45 19.0 -12.1 7.2 -20.85 2.85 -18.35 2.35" fill="#5b1326" fill-rule="evenodd" stroke="none"/>
    <path d="M18.15 4.7 Q18.1 3.3 17.4 1.95 16.4 0.0 14.65 -0.5 12.7 -1.1 10.45 -2.6 L6.9 -5.0 2.75 -6.7 Q-0.15 -7.65 -1.5 -8.3 -3.6 -9.25 -7.4 -11.3 -10.25 -12.75 -12.85 -13.5 L-14.2 -16.6 18.55 -0.3 19.4 0.1 19.7 0.2 19.55 0.7 19.25 1.75 19.2 1.85 22.5 6.85 20.4 5.8 18.15 4.7" fill="#931936" fill-rule="evenodd" stroke="none"/>
    <path d="M18.15 4.7 L20.4 5.8 20.4 6.15 Q20.4 7.55 19.4 8.95 18.25 10.55 16.7 10.55 14.5 10.55 10.95 8.55 L3.95 4.1 Q-6.1 -2.35 -12.75 -2.35 L-14.45 -2.25 Q-13.65 -5.05 -11.9 -8.6 L-11.85 -8.65 -11.3 -9.8 18.15 4.7" fill="#e75484" fill-rule="evenodd" stroke="none"/>
    <path d="M-9.2 15.45 Q-9.25 13.4 -9.7 12.05 -10.2 10.55 -11.4 8.8 -4.8 11.65 -2.15 13.25 1.45 15.4 5.65 17.1 L8.75 19.5 10.55 20.9 10.0 21.5 Q9.3 22.05 7.8 22.05 5.35 22.05 -3.95 17.95 L-9.2 15.45" fill="#e95384" fill-rule="evenodd" stroke="none"/>
    <path d="M10.55 20.9 L11.45 19.0 13.3 19.9 11.4 25.3 -3.95 17.95 Q5.35 22.05 7.8 22.05 9.3 22.05 10.0 21.5 L10.55 20.9" fill="#c94670" fill-rule="evenodd" stroke="none"/>
    <path d="M18.55 -0.3 L-14.2 -16.6 -14.25 -16.65 -13.65 -20.25 -12.5 -20.5 Q-12.85 -18.05 -11.25 -16.85 -8.45 -15.6 -7.05 -14.65 -4.35 -12.75 -2.65 -11.8 L1.75 -9.7 12.1 -4.7 Q15.55 -3.0 19.1 -1.4 L18.55 -0.3" fill="#ff80a7" fill-rule="evenodd" stroke="none"/>
    <path d="M19.7 0.2 L19.4 0.1 18.55 -0.3 19.1 -1.4 19.2 -1.7 Q19.6 -2.7 19.6 -3.95 19.6 -6.4 16.9 -7.8 12.8 -9.5 9.95 -11.15 L-0.3 -17.25 Q-6.55 -20.55 -11.45 -20.55 L-12.5 -20.5 -13.65 -20.25 -12.8 -25.25 22.0 -7.95 21.9 -7.45 19.7 0.2" fill="#e24d7b" fill-rule="evenodd" stroke="none"/>
    <path d="M-12.85 -13.5 Q-10.25 -12.75 -7.4 -11.3 -3.6 -9.25 -1.5 -8.3 -0.15 -7.65 2.75 -6.7 L6.9 -5.0 10.45 -2.6 Q12.7 -1.1 14.65 -0.5 16.4 0.0 17.4 1.95 18.1 3.3 18.15 4.7 L-11.3 -9.8 -12.85 -13.5" fill="#b22248" fill-rule="evenodd" stroke="none"/>
    <path d="M-11.4 8.8 L-12.1 7.2 11.45 19.0 10.55 20.9 8.75 19.5 5.65 17.1 Q1.45 15.4 -2.15 13.25 -4.8 11.65 -11.4 8.8" fill="#f7769d" fill-rule="evenodd" stroke="none"/>
    <path d="M-22.25 5.3 L-21.35 5.25 Q-19.5 5.25 -11.85 8.6 L-11.4 8.8 Q-10.2 10.55 -9.7 12.05 -9.25 13.4 -9.2 15.45 L-23.8 8.45 -23.7 8.2 -22.25 5.3" fill="#c63c57" fill-rule="evenodd" stroke="none"/>
    <path d="M-11.4 8.8 L-11.85 8.6 Q-19.5 5.25 -21.35 5.25 L-22.25 5.3 -21.1 2.9 -20.85 2.85 -12.1 7.2 -11.4 8.8" fill="#d95f78" fill-rule="evenodd" stroke="none"/>
  </g>
</svg>
