<?xml version="1.0" encoding="UTF-8" standalone="no"?>
<svg xmlns:ffdec="https://www.free-decompiler.com/flash" xmlns:xlink="http://www.w3.org/1999/xlink" ffdec:objectType="shape" height="41.2px" width="37.95px" xmlns="http://www.w3.org/2000/svg">
  <g transform="matrix(1.0, 0.0, 0.0, 1.0, 18.95, 20.6)">
    <path d="M2.25 -10.65 L-5.35 -11.8 -7.5 -11.75 -8.4 -11.6 -10.95 -12.9 -9.85 -13.15 -7.1 -13.25 Q-4.0 -13.25 2.4 -12.0 L10.5 -10.75 12.1 -10.75 13.05 -10.3 12.2 -10.0 9.4 -9.55 Q7.65 -9.55 2.25 -10.65 M-8.65 -19.35 Q-12.4 -20.5 -15.4 -19.35 L-15.2 -20.4 -14.4 -20.55 -12.55 -20.6 -9.65 -20.2 -7.2 -19.8 -6.3 -19.9 -5.05 -19.3 -8.65 -19.35 M-13.85 -3.2 Q-11.3 -3.2 -7.8 -4.15 L-5.4 -4.8 -2.7 -3.5 -6.7 -2.75 -12.1 -2.35 -15.4 -2.4 -15.8 -2.45 -15.5 -3.25 -13.85 -3.2 M-4.95 0.7 L2.9 1.5 9.2 2.4 13.55 4.55 4.75 2.75 -5.45 1.3 -8.25 1.75 Q-9.25 2.2 -9.25 2.95 -9.25 5.45 -2.5 7.65 3.2 9.5 6.8 9.5 L8.55 9.5 Q9.2 9.4 9.2 8.6 9.2 7.3 6.1 6.25 L2.6 5.4 4.55 5.2 Q6.4 5.2 8.55 6.05 11.25 7.1 11.25 8.7 11.25 10.75 6.9 10.75 3.35 10.75 -2.7 8.7 -10.3 6.15 -10.3 2.95 -10.3 1.75 -8.0 1.1 L-4.95 0.7 M-12.7 14.45 L-15.8 14.35 -18.95 12.85 -12.4 13.4 -5.45 12.65 -4.4 13.15 -7.0 13.65 Q-9.75 14.45 -12.7 14.45 M-2.95 19.15 L2.2 18.75 7.4 19.05 8.65 19.7 7.9 19.6 5.1 19.55 0.3 20.0 -2.7 20.6 -5.1 19.45 -2.95 19.15 M19.0 8.75 Q19.0 11.45 17.1 13.45 15.1 15.55 11.3 16.6 L9.35 15.65 9.7 15.65 Q13.25 15.65 15.75 12.6 17.8 10.1 17.8 8.05 L17.65 6.55 18.45 6.95 18.55 7.2 19.0 8.75" fill="#871633" fill-rule="evenodd" stroke="none"/>
  </g>
</svg>
