<?xml version="1.0" encoding="UTF-8" standalone="no"?>
<svg xmlns:ffdec="https://www.free-decompiler.com/flash" xmlns:xlink="http://www.w3.org/1999/xlink" ffdec:objectType="shape" height="183.35px" width="288.25px" xmlns="http://www.w3.org/2000/svg">
  <g transform="matrix(1.0, 0.0, 0.0, 1.0, -172.8, -127.05)">
    <path d="M190.65 193.5 L190.65 162.2 Q190.65 152.2 200.65 152.2 L280.65 152.2 Q290.65 152.2 290.65 162.2 L290.65 193.5 Q290.65 203.5 280.65 203.5 L200.65 203.5 Q190.65 203.5 190.65 193.5" fill="#ffffff" fill-opacity="0.49803922" fill-rule="evenodd" stroke="none"/>
    <path d="M302.8 240.4 Q307.8 240.4 307.8 245.4 L307.8 305.4 Q307.8 310.4 302.8 310.4 L177.8 310.4 Q172.8 310.4 172.8 305.4 L172.8 245.4 Q172.8 240.4 177.8 240.4 L302.8 240.4" fill="#ffffff" fill-opacity="0.49803922" fill-rule="evenodd" stroke="none"/>
    <path d="M396.05 182.05 L396.05 137.05 Q396.05 127.05 406.05 127.05 L451.05 127.05 Q461.05 127.05 461.05 137.05 L461.05 182.05 Q461.05 192.05 451.05 192.05 L406.05 192.05 Q396.05 192.05 396.05 182.05" fill="#ffffff" fill-opacity="0.49803922" fill-rule="evenodd" stroke="none"/>
  </g>
</svg>
