<?xml version="1.0" encoding="UTF-8" standalone="no"?>
<svg xmlns:ffdec="https://www.free-decompiler.com/flash" xmlns:xlink="http://www.w3.org/1999/xlink" ffdec:objectType="shape" height="57.95px" width="57.95px" xmlns="http://www.w3.org/2000/svg">
  <g transform="matrix(1.0, 0.0, 0.0, 1.0, 0.0, 0.0)">
    <path d="M52.95 5.5 L54.5 7.75 Q55.95 10.65 55.95 15.0 L55.95 42.95 Q55.95 47.3 54.5 50.25 L53.1 52.3 Q49.85 55.95 42.95 55.95 L15.0 55.95 Q8.1 55.95 4.9 52.35 L3.5 50.3 Q2.15 47.7 2.05 43.95 L2.0 42.95 2.0 15.0 Q2.0 10.95 3.4 8.2 3.95 7.1 4.7 6.3 L5.7 5.25 5.8 5.2 Q8.3 2.7 12.7 2.15 L15.0 2.0 42.95 2.0 Q49.65 2.0 52.95 5.5 M54.95 16.65 L54.95 14.55 Q54.7 3.0 42.95 3.0 L15.0 3.0 12.8 3.15 Q8.7 3.65 6.4 6.0 L6.35 6.0 Q3.1 8.8 3.0 14.6 L3.0 17.65 3.0 40.25 3.0 42.7 3.0 43.05 3.05 43.85 Q3.4 54.95 15.0 54.95 L42.95 54.95 Q54.55 54.95 54.95 43.7 L54.95 42.45 54.95 40.95 54.95 16.65" fill="#000000" fill-opacity="0.3019608" fill-rule="evenodd" stroke="none"/>
    <path d="M52.95 5.5 Q49.65 2.0 42.95 2.0 L15.0 2.0 12.7 2.15 Q8.3 2.7 5.8 5.2 L5.7 5.25 4.7 6.3 Q3.95 7.1 3.4 8.2 2.0 10.95 2.0 15.0 L2.0 42.95 2.05 43.95 Q2.15 47.7 3.5 50.3 L4.9 52.35 Q8.1 55.95 15.0 55.95 L42.95 55.95 Q49.85 55.95 53.1 52.3 L54.5 50.25 Q55.95 47.3 55.95 42.95 L55.95 15.0 Q55.95 10.65 54.5 7.75 L52.95 5.5 M42.95 1.0 Q49.15 1.0 52.65 3.75 56.95 7.2 56.95 15.0 L56.95 42.95 Q56.95 50.75 52.65 54.2 49.15 56.95 42.95 56.95 L15.0 56.95 Q8.75 56.95 5.3 54.2 1.3 51.0 1.05 44.05 L1.0 42.95 1.0 15.0 Q1.0 8.0 4.9 4.65 L5.05 4.5 5.3 4.35 Q7.95 1.75 12.6 1.15 L15.0 1.0 42.95 1.0" fill="#000000" fill-opacity="0.2" fill-rule="evenodd" stroke="none"/>
    <path d="M43.3 0.0 L44.85 0.1 Q57.95 1.0 57.95 15.0 L57.95 42.95 Q57.95 57.1 44.6 57.9 L15.0 57.95 14.8 57.95 13.2 57.9 Q0.5 57.05 0.05 44.1 L0.0 42.95 0.0 15.0 Q0.0 7.4 4.35 3.8 L4.4 3.75 4.7 3.55 Q7.55 0.8 12.5 0.15 L14.15 0.05 42.95 0.0 43.15 0.0 43.3 0.0 M42.95 1.0 L15.0 1.0 12.6 1.15 Q7.95 1.75 5.3 4.35 L5.05 4.5 4.9 4.65 Q1.0 8.0 1.0 15.0 L1.0 42.95 1.05 44.05 Q1.3 51.0 5.3 54.2 8.75 56.95 15.0 56.95 L42.95 56.95 Q49.15 56.95 52.65 54.2 56.95 50.75 56.95 42.95 L56.95 15.0 Q56.95 7.2 52.65 3.75 49.15 1.0 42.95 1.0" fill="#000000" fill-opacity="0.101960786" fill-rule="evenodd" stroke="none"/>
    <path d="M54.95 40.95 L54.95 42.45 54.85 42.45 54.95 40.95 M3.0 42.7 L3.0 40.25 3.05 40.85 3.2 42.65 3.1 42.7 3.0 42.7" fill="url(#gradient0)" fill-rule="evenodd" stroke="none"/>
    <path d="M3.0 17.65 Q3.05 16.15 3.25 14.9 L3.1 14.85 Q3.55 10.2 6.35 7.75 L6.4 7.75 Q8.7 5.4 12.8 4.9 L15.0 4.75 42.95 4.75 Q54.25 4.75 54.9 16.3 L54.95 16.65 54.95 40.95 54.85 42.45 54.95 42.45 Q54.3 53.25 42.95 53.25 L15.0 53.25 Q3.7 53.25 3.1 42.7 L3.2 42.65 3.05 40.85 3.0 40.25 3.0 17.65 M42.95 6.5 L15.0 6.5 13.35 6.6 12.95 6.7 Q10.35 7.05 8.9 8.45 L8.4 8.9 Q6.55 10.85 6.5 14.6 L6.5 43.05 6.55 43.45 6.55 43.75 6.55 43.8 Q6.65 46.45 7.7 48.2 L8.25 48.9 Q9.9 50.95 13.35 51.35 L44.65 51.35 Q48.05 50.95 49.75 48.9 L50.3 48.15 Q51.35 46.35 51.45 43.6 L51.45 14.65 Q51.25 6.5 42.95 6.5" fill="url(#gradient1)" fill-rule="evenodd" stroke="none"/>
    <path d="M54.95 42.45 L54.95 43.7 Q54.55 54.95 42.95 54.95 L15.0 54.95 Q3.4 54.95 3.05 43.85 L3.0 43.05 3.0 42.7 3.1 42.7 Q3.7 53.25 15.0 53.25 L42.95 53.25 Q54.3 53.25 54.95 42.45" fill="#a19878" fill-rule="evenodd" stroke="none"/>
    <path d="M3.0 17.65 L3.0 14.6 Q3.1 8.8 6.35 6.0 L6.4 6.0 Q8.7 3.65 12.8 3.15 L15.0 3.0 42.95 3.0 Q54.7 3.0 54.95 14.55 L54.95 16.65 54.9 16.3 Q54.25 4.75 42.95 4.75 L15.0 4.75 12.8 4.9 Q8.7 5.4 6.4 7.75 L6.35 7.75 Q3.55 10.2 3.1 14.85 L3.25 14.9 Q3.05 16.15 3.0 17.65" fill="#fbfaf7" fill-rule="evenodd" stroke="none"/>
    <path d="M50.45 14.65 Q50.25 7.5 42.95 7.5 L15.0 7.5 13.55 7.6 13.35 7.65 Q10.95 7.95 9.6 9.2 L9.15 9.6 Q7.55 11.35 7.5 14.6 L7.5 43.05 7.55 43.2 7.55 43.35 7.55 43.75 Q7.85 50.45 15.0 50.45 L42.95 50.45 Q50.15 50.45 50.45 43.55 L50.45 14.65 M42.95 6.5 Q51.25 6.5 51.45 14.65 L51.45 43.6 Q51.35 46.35 50.3 48.15 L49.75 48.9 Q48.05 50.95 44.65 51.35 L13.35 51.35 Q9.9 50.95 8.25 48.9 L7.7 48.2 Q6.65 46.45 6.55 43.8 L6.55 43.75 6.55 43.45 6.5 43.05 6.5 14.6 Q6.55 10.85 8.4 8.9 L8.9 8.45 Q10.35 7.05 12.95 6.7 L13.35 6.6 15.0 6.5 42.95 6.5" fill="url(#gradient2)" fill-rule="evenodd" stroke="none"/>
    <path d="M50.45 14.65 L50.45 43.55 Q50.15 50.45 42.95 50.45 L15.0 50.45 Q7.85 50.45 7.55 43.75 L7.55 43.35 7.55 43.2 7.5 43.05 7.5 14.6 Q7.55 11.35 9.15 9.6 L9.6 9.2 Q10.95 7.95 13.35 7.65 L13.55 7.6 15.0 7.5 42.95 7.5 Q50.25 7.5 50.45 14.65" fill="#b8b18f" fill-rule="evenodd" stroke="none"/>
    <path d="M54.95 16.65 L54.95 14.55 Q54.7 3.0 42.95 3.0 L15.0 3.0 12.8 3.15 Q8.7 3.65 6.4 6.0 L6.35 6.0 Q3.1 8.8 3.0 14.6 L3.0 17.65 3.0 40.25 3.0 42.7 3.0 43.05 3.05 43.85 Q3.4 54.95 15.0 54.95 L42.95 54.95 Q54.55 54.95 54.95 43.7 L54.95 42.45 54.95 40.95 54.95 16.65 Z" fill="none" stroke="#000000" stroke-linecap="round" stroke-linejoin="bevel" stroke-opacity="0.3019608" stroke-width="1.0"/>
    <path d="M50.45 15.65 Q50.25 8.5 42.95 8.5 L15.0 8.5 13.55 8.6 13.35 8.65 Q10.95 8.95 9.6 10.2 L9.6 10.15 9.05 10.65 9.15 10.6 Q7.6 12.3 7.5 15.5 L7.5 14.6 Q7.55 11.35 9.15 9.6 L9.05 9.65 9.6 9.15 9.6 9.2 Q10.95 7.95 13.35 7.65 L13.55 7.6 15.0 7.5 42.95 7.5 Q50.25 7.5 50.45 14.65 L50.45 15.65" fill="#000000" fill-opacity="0.3019608" fill-rule="evenodd" stroke="none"/>
    <path d="M7.5 15.5 Q7.6 12.3 9.15 10.6 L9.05 10.65 9.6 10.15 9.6 10.2 Q10.95 8.95 13.35 8.65 L13.55 8.6 15.0 8.5 42.95 8.5 Q50.25 8.5 50.45 15.65 L50.45 16.65 Q50.25 9.5 42.95 9.5 L15.0 9.5 13.55 9.6 13.35 9.65 Q10.95 9.95 9.6 11.2 L9.6 11.15 9.05 11.65 9.15 11.6 Q7.6 13.3 7.5 16.45 L7.5 15.5" fill="#000000" fill-opacity="0.2" fill-rule="evenodd" stroke="none"/>
    <path d="M7.5 16.45 Q7.6 13.3 9.15 11.6 L9.05 11.65 9.6 11.15 9.6 11.2 Q10.95 9.95 13.35 9.65 L13.55 9.6 15.0 9.5 42.95 9.5 Q50.25 9.5 50.45 16.65 L50.45 17.65 Q50.25 10.5 42.95 10.5 L15.0 10.5 13.55 10.6 13.35 10.65 Q10.95 10.95 9.6 12.2 L9.6 12.15 9.05 12.65 9.15 12.6 Q7.6 14.3 7.5 17.45 L7.5 16.45" fill="#000000" fill-opacity="0.101960786" fill-rule="evenodd" stroke="none"/>
  </g>
  <defs>
    <linearGradient gradientTransform="matrix(0.0, 0.0292, -0.0992, 0.0, 129.65, 28.6)" gradientUnits="userSpaceOnUse" id="gradient0" spreadMethod="pad" x1="-819.2" x2="819.2">
      <stop offset="0.0" stop-color="#b6ac9e"/>
      <stop offset="1.0" stop-color="#7a726b"/>
    </linearGradient>
    <linearGradient gradientTransform="matrix(0.0, 0.0292, -0.0992, 0.0, 129.65, 28.6)" gradientUnits="userSpaceOnUse" id="gradient1" spreadMethod="pad" x1="-819.2" x2="819.2">
      <stop offset="0.0" stop-color="#e5e2d4"/>
      <stop offset="1.0" stop-color="#c1b890"/>
    </linearGradient>
    <linearGradient gradientTransform="matrix(0.0, 0.0266, -0.0274, 0.0, 29.0, 29.15)" gradientUnits="userSpaceOnUse" id="gradient2" spreadMethod="pad" x1="-819.2" x2="819.2">
      <stop offset="0.0" stop-color="#a19878"/>
      <stop offset="1.0" stop-color="#e4e1d3"/>
    </linearGradient>
  </defs>
</svg>
