<?xml version="1.0" encoding="UTF-8" standalone="no"?>
<svg xmlns:ffdec="https://www.free-decompiler.com/flash" xmlns:xlink="http://www.w3.org/1999/xlink" ffdec:objectType="shape" height="42.0px" width="42.0px" xmlns="http://www.w3.org/2000/svg">
  <g transform="matrix(1.0, 0.0, 0.0, 1.0, -7.95, -7.95)">
    <path d="M46.95 40.9 L46.95 40.7 46.95 38.35 46.95 37.75 46.95 21.05 46.95 17.3 Q46.95 13.9 45.4 12.45 43.95 10.95 40.55 10.95 L37.75 10.95 37.5 10.95 19.95 10.95 17.35 10.95 15.6 11.1 Q13.55 11.4 12.5 12.5 10.95 13.95 10.95 17.35 L10.95 40.75 10.95 40.85 11.0 40.9 10.95 40.95 11.05 42.25 Q11.3 44.4 12.5 45.5 13.9 46.85 16.95 46.95 L40.9 46.95 Q44.05 46.85 45.4 45.5 46.35 44.55 46.75 42.9 L46.95 41.15 46.95 40.9 M9.0 42.2 L8.95 42.05 8.95 42.15 9.0 42.2 M41.85 7.95 Q46.1 7.95 47.95 9.9 49.95 11.75 49.95 16.0 L49.95 42.0 49.95 42.2 49.95 42.55 49.75 44.65 49.75 44.7 Q49.2 46.85 47.95 48.05 L47.95 48.1 Q46.2 49.85 42.3 49.95 L15.6 49.95 Q11.75 49.85 10.0 48.1 L9.95 48.1 Q8.4 46.65 8.05 43.85 L7.95 42.3 7.95 42.15 7.95 42.05 7.95 16.05 Q7.95 11.8 9.95 9.95 11.35 8.5 13.95 8.1 L13.95 8.15 16.05 7.95 41.85 7.95" fill="#3d220d" fill-rule="evenodd" stroke="none"/>
    <path d="M11.0 40.9 L10.95 40.85 10.95 40.75 10.95 17.35 Q10.95 13.95 12.5 12.5 13.55 11.4 15.6 11.1 L17.35 10.95 19.95 10.95 37.5 10.95 37.75 10.95 40.55 10.95 Q43.95 10.95 45.4 12.45 46.95 13.9 46.95 17.3 L46.95 21.05 46.95 37.75 46.95 38.35 46.95 40.7 46.95 40.9 46.9 40.9 46.25 41.95 45.5 42.55 44.55 42.75 43.75 42.9 42.9 42.95 15.7 42.95 15.35 42.95 15.05 42.95 14.75 42.95 Q13.0 42.9 12.1 42.25 L11.9 42.1 11.0 40.9" fill="#ff8811" fill-rule="evenodd" stroke="none"/>
    <path d="M11.0 40.9 L11.9 42.1 12.1 42.25 Q13.0 42.9 14.75 42.95 L15.05 42.95 15.35 42.95 15.7 42.95 42.9 42.95 43.75 42.9 44.55 42.75 45.5 42.55 46.25 41.95 46.9 40.9 46.95 40.9 46.95 41.15 46.75 42.9 Q46.35 44.55 45.4 45.5 44.05 46.85 40.9 46.95 L16.95 46.95 Q13.9 46.85 12.5 45.5 11.3 44.4 11.05 42.25 L10.95 40.95 11.0 40.9" fill="#db6f02" fill-rule="evenodd" stroke="none"/>
    <path d="M45.1 16.1 L45.3 16.1 45.3 16.2 45.1 16.1" fill="#fd8839" fill-rule="evenodd" stroke="none"/>
    <path d="M42.65 18.6 Q42.65 17.9 42.05 17.25 41.45 16.65 40.55 16.65 39.65 16.65 39.05 17.25 38.6 17.65 38.55 18.25 L38.5 18.25 38.5 17.5 38.55 17.0 Q38.6 16.4 39.05 16.0 39.65 15.4 40.55 15.4 41.45 15.4 42.05 16.0 42.65 16.65 42.65 17.5 L42.65 18.6 M42.65 25.8 L43.55 25.8 Q44.45 25.75 45.1 26.4 L45.15 26.45 Q45.7 27.1 45.7 27.9 L45.6 28.5 45.1 27.65 Q44.45 27.05 43.55 27.1 L14.6 27.1 Q13.65 27.05 13.05 27.65 L12.55 28.5 12.5 27.9 Q12.5 27.1 13.0 26.45 L13.05 26.4 Q13.65 25.75 14.6 25.8 L20.6 25.8 20.6 26.05 37.5 26.05 37.5 25.8 38.5 25.8 38.5 26.05 42.65 26.05 42.65 25.8 M31.85 33.2 L31.85 31.95 42.65 31.95 42.65 33.2 31.85 33.2 M15.55 33.2 L15.55 31.95 26.35 31.95 26.35 33.2 15.55 33.2 M26.35 36.95 L26.5 37.35 27.2 37.95 27.85 38.3 28.55 38.4 29.15 38.4 29.7 38.4 30.5 38.25 31.1 37.95 31.75 37.35 31.85 37.0 31.85 38.3 31.75 38.6 31.1 39.25 29.15 39.7 Q28.0 39.7 27.2 39.25 L26.5 38.6 26.35 38.2 26.35 36.95 M20.6 17.9 L20.6 16.65 Q29.1 13.6 37.5 16.65 L37.5 17.9 Q29.1 14.85 20.6 17.9 M15.55 18.35 L15.55 17.5 Q15.45 16.6 16.1 16.0 16.7 15.4 17.6 15.4 18.45 15.4 19.05 16.0 L19.7 17.0 19.7 17.5 19.7 18.25 19.05 17.25 Q18.45 16.65 17.6 16.65 16.7 16.65 16.1 17.25 15.65 17.7 15.55 18.35 M28.0 35.0 L27.85 34.8 27.85 34.75 27.8 34.35 27.8 34.25 Q27.8 33.9 28.0 33.7 L28.25 33.35 Q28.6 32.95 29.15 32.95 29.6 32.95 30.0 33.35 L30.25 33.7 30.4 34.25 30.4 34.35 30.35 34.75 30.35 34.8 30.25 35.0 30.25 34.95 30.0 34.6 Q29.6 34.25 29.15 34.25 28.6 34.25 28.25 34.6 L28.0 34.95 28.0 35.0" fill="#2e1505" fill-rule="evenodd" stroke="none"/>
    <path d="M42.65 25.8 L42.65 26.05 38.5 26.05 38.5 25.8 42.65 25.8 M37.5 25.8 L37.5 26.05 20.6 26.05 20.6 25.8 37.5 25.8 M28.0 35.0 L28.0 34.95 28.25 34.6 Q28.6 34.25 29.15 34.25 29.6 34.25 30.0 34.6 L30.25 34.95 30.25 35.0 30.0 35.3 29.8 35.45 29.7 35.55 29.7 37.35 29.15 37.4 28.55 37.35 28.55 35.55 28.35 35.45 28.25 35.3 28.0 35.0" fill="url(#gradient0)" fill-rule="evenodd" stroke="none"/>
    <path d="M38.5 18.25 L38.55 18.25 Q38.6 17.65 39.05 17.25 39.65 16.65 40.55 16.65 41.45 16.65 42.05 17.25 42.65 17.9 42.65 18.6 L42.65 24.8 38.5 24.8 38.5 18.25 M12.55 28.5 L13.05 27.65 Q13.65 27.05 14.6 27.1 L43.55 27.1 Q44.45 27.05 45.1 27.65 L45.6 28.5 45.1 29.35 Q44.45 30.05 43.55 30.05 L14.6 30.05 Q13.7 30.05 13.05 29.35 L12.55 28.5 M42.65 33.2 L42.65 41.5 15.55 41.5 15.55 33.2 26.35 33.2 26.35 36.95 26.35 38.2 26.5 38.6 27.2 39.25 Q28.0 39.7 29.15 39.7 L31.1 39.25 31.75 38.6 31.85 38.3 31.85 37.0 31.85 33.2 42.65 33.2 M20.6 17.9 Q29.1 14.85 37.5 17.9 L37.5 24.8 20.6 24.8 20.6 17.9 M15.55 18.35 Q15.65 17.7 16.1 17.25 16.7 16.65 17.6 16.65 18.45 16.65 19.05 17.25 L19.7 18.25 19.7 24.8 15.55 24.8 15.55 18.75 15.55 18.35" fill="#512809" fill-rule="evenodd" stroke="none"/>
  </g>
  <defs>
    <linearGradient gradientTransform="matrix(0.0, 0.0133, -0.0159, 0.0, -4.75, 28.9)" gradientUnits="userSpaceOnUse" id="gradient0" spreadMethod="pad" x1="-819.2" x2="819.2">
      <stop offset="0.0" stop-color="#512809"/>
      <stop offset="1.0" stop-color="#3f220b"/>
    </linearGradient>
  </defs>
</svg>
