<?xml version="1.0" encoding="UTF-8" standalone="no"?>
<svg xmlns:ffdec="https://www.free-decompiler.com/flash" xmlns:xlink="http://www.w3.org/1999/xlink" ffdec:objectType="shape" height="42.0px" width="42.0px" xmlns="http://www.w3.org/2000/svg">
  <g transform="matrix(1.0, 0.0, 0.0, 1.0, -7.95, -7.95)">
    <path d="M48.95 42.2 L48.95 42.0 48.95 39.4 48.95 38.7 48.95 20.15 48.95 16.0 Q48.95 12.25 47.25 10.6 45.6 8.95 41.85 8.95 L38.75 8.95 38.45 8.95 18.95 8.95 16.05 8.95 14.1 9.1 Q11.85 9.45 10.65 10.65 8.95 12.3 8.95 16.05 L8.95 42.05 8.95 42.15 9.0 42.2 9.0 42.25 8.95 42.3 9.05 43.7 Q9.35 46.1 10.65 47.35 12.25 48.85 15.6 48.95 L42.25 48.95 Q45.7 48.85 47.25 47.35 48.3 46.3 48.75 44.45 L48.95 42.5 48.95 42.2 M47.95 9.9 Q49.95 11.75 49.95 16.0 L49.95 42.0 49.95 42.2 49.95 42.55 49.75 44.65 49.75 44.7 Q49.2 46.85 47.95 48.05 L47.95 48.1 Q46.2 49.85 42.3 49.95 L15.6 49.95 Q11.75 49.85 10.0 48.1 L9.95 48.1 Q8.4 46.65 8.05 43.85 L7.95 42.3 7.95 42.15 7.95 42.05 7.95 16.05 Q7.95 11.8 9.95 9.95 11.35 8.5 13.95 8.1 L13.95 8.15 16.05 7.95 41.85 7.95 Q46.1 7.95 47.95 9.9" fill="#3d220d" fill-rule="evenodd" stroke="none"/>
    <path d="M9.0 42.25 L9.0 42.2 8.95 42.15 8.95 42.05 8.95 16.05 Q8.95 12.3 10.65 10.65 11.85 9.45 14.1 9.1 L16.05 8.95 18.95 8.95 38.45 8.95 38.75 8.95 41.85 8.95 Q45.6 8.95 47.25 10.6 48.95 12.25 48.95 16.0 L48.95 20.15 48.95 38.7 48.95 39.4 48.95 42.0 48.95 42.2 48.9 42.25 48.15 43.4 Q47.85 43.85 47.35 44.05 L46.3 44.3 45.4 44.45 44.45 44.5 14.2 44.5 13.85 44.5 13.5 44.5 13.15 44.5 Q11.25 44.45 10.2 43.7 L10.0 43.55 Q9.35 43.0 9.0 42.25" fill="#ff6100" fill-rule="evenodd" stroke="none"/>
    <path d="M9.0 42.25 Q9.35 43.0 10.0 43.55 L10.2 43.7 Q11.25 44.45 13.15 44.5 L13.5 44.5 13.85 44.5 14.2 44.5 44.45 44.5 45.4 44.45 46.3 44.3 47.35 44.05 Q47.85 43.85 48.15 43.4 L48.9 42.25 48.95 42.2 48.95 42.5 48.75 44.45 Q48.3 46.3 47.25 47.35 45.7 48.85 42.25 48.95 L15.6 48.95 Q12.25 48.85 10.65 47.35 9.35 46.1 9.05 43.7 L8.95 42.3 9.0 42.25" fill="#db4302" fill-rule="evenodd" stroke="none"/>
    <path d="M44.55 10.65 L45.75 11.35 Q46.4 11.95 46.75 12.9 L47.1 14.8 46.9 14.65 45.95 14.05 Q45.25 13.6 44.55 13.3 L43.7 13.0 41.25 12.6 16.3 12.6 13.85 13.0 13.0 13.3 11.6 14.05 10.65 14.65 10.45 14.8 10.8 12.9 Q11.15 11.95 11.8 11.35 L13.0 10.65 15.35 10.35 42.2 10.35 44.55 10.65" fill="#fd8839" fill-rule="evenodd" stroke="none"/>
    <path d="M44.2 17.5 Q44.2 16.75 43.5 16.05 42.85 15.35 41.85 15.35 40.85 15.35 40.15 16.05 39.65 16.5 39.6 17.15 L39.55 17.15 39.55 16.3 39.6 15.75 Q39.65 15.1 40.15 14.65 40.85 13.95 41.85 13.95 42.85 13.95 43.5 14.65 44.2 15.35 44.2 16.3 L44.2 17.5 M47.45 28.55 L46.9 27.6 Q46.2 26.9 45.2 26.95 L13.0 26.95 Q11.95 26.9 11.3 27.6 L10.75 28.55 10.65 27.85 Q10.65 26.95 11.25 26.25 L11.3 26.2 Q11.95 25.5 13.0 25.55 L19.7 25.55 19.7 25.8 38.45 25.8 38.45 25.55 39.55 25.55 39.55 25.8 44.2 25.8 44.2 25.55 45.2 25.55 Q46.2 25.5 46.9 26.2 L46.95 26.25 Q47.55 26.95 47.55 27.85 L47.45 28.55 M32.15 33.75 L32.15 32.35 44.2 32.35 44.2 33.75 32.15 33.75 M14.05 33.75 L14.05 32.35 26.05 32.35 26.05 33.75 14.05 33.75 M26.05 37.9 L26.25 38.35 27.0 39.05 27.75 39.4 28.5 39.55 29.15 39.55 29.8 39.55 30.65 39.35 31.35 39.05 32.05 38.35 32.15 38.0 32.15 39.4 32.05 39.75 31.35 40.45 29.15 40.95 Q27.9 40.95 27.0 40.45 L26.25 39.75 26.05 39.3 26.05 37.9 M19.7 16.75 L19.7 15.35 Q29.1 11.95 38.45 15.35 L38.45 16.75 Q29.1 13.35 19.7 16.75 M14.05 17.25 L14.05 16.3 Q13.95 15.3 14.65 14.65 15.35 13.95 16.35 13.95 17.3 13.95 17.95 14.65 L18.65 15.75 18.7 16.3 18.7 17.15 18.65 17.15 17.95 16.05 Q17.3 15.35 16.35 15.35 15.35 15.35 14.65 16.05 14.15 16.55 14.05 17.25 M27.9 35.75 L27.75 35.55 27.75 35.5 27.7 35.05 27.7 34.9 27.9 34.3 28.15 33.9 Q28.55 33.5 29.15 33.5 29.7 33.5 30.1 33.9 L30.4 34.3 30.55 34.9 30.55 35.05 30.5 35.45 30.5 35.55 30.4 35.75 30.4 35.7 30.1 35.3 Q29.7 34.9 29.15 34.9 28.55 34.9 28.15 35.3 L27.9 35.7 27.9 35.75" fill="#2e1505" fill-rule="evenodd" stroke="none"/>
    <path d="M44.2 25.55 L44.2 25.8 39.55 25.8 39.55 25.55 44.2 25.55 M38.45 25.55 L38.45 25.8 19.7 25.8 19.7 25.55 38.45 25.55 M27.9 35.75 L27.9 35.7 28.15 35.3 Q28.55 34.9 29.15 34.9 29.7 34.9 30.1 35.3 L30.4 35.7 30.4 35.75 30.1 36.1 29.9 36.25 29.8 36.35 29.8 38.35 29.15 38.4 28.5 38.35 28.5 36.35 28.3 36.25 28.15 36.1 27.9 35.75" fill="url(#gradient0)" fill-rule="evenodd" stroke="none"/>
    <path d="M39.55 17.15 L39.6 17.15 Q39.65 16.5 40.15 16.05 40.85 15.35 41.85 15.35 42.85 15.35 43.5 16.05 44.2 16.75 44.2 17.5 L44.2 24.4 39.55 24.4 39.55 17.15 M10.75 28.55 L11.3 27.6 Q11.95 26.9 13.0 26.95 L45.2 26.95 Q46.2 26.9 46.9 27.6 L47.45 28.55 46.9 29.5 Q46.15 30.25 45.2 30.25 L13.0 30.25 Q12.0 30.25 11.3 29.5 L10.75 28.55 M44.2 33.75 L44.2 42.95 14.05 42.95 14.05 33.75 26.05 33.75 26.05 37.9 26.05 39.3 26.25 39.75 27.0 40.45 Q27.9 40.95 29.15 40.95 L31.35 40.45 32.05 39.75 32.15 39.4 32.15 38.0 32.15 33.75 44.2 33.75 M38.45 16.75 L38.45 24.4 19.7 24.4 19.7 16.75 Q29.1 13.35 38.45 16.75 M14.05 17.25 Q14.15 16.55 14.65 16.05 15.35 15.35 16.35 15.35 17.3 15.35 17.95 16.05 L18.65 17.15 18.7 17.15 18.7 24.4 14.05 24.4 14.05 17.7 14.05 17.25" fill="#512809" fill-rule="evenodd" stroke="none"/>
  </g>
  <defs>
    <linearGradient gradientTransform="matrix(0.0, 0.0148, -0.0177, 0.0, -8.5, 29.0)" gradientUnits="userSpaceOnUse" id="gradient0" spreadMethod="pad" x1="-819.2" x2="819.2">
      <stop offset="0.0" stop-color="#512809"/>
      <stop offset="1.0" stop-color="#3f220b"/>
    </linearGradient>
  </defs>
</svg>
