<?xml version="1.0" encoding="UTF-8" standalone="no"?>
<svg xmlns:ffdec="https://www.free-decompiler.com/flash" xmlns:xlink="http://www.w3.org/1999/xlink" ffdec:objectType="shape" height="24.6px" width="26.3px" xmlns="http://www.w3.org/2000/svg">
  <g transform="matrix(1.0, 0.0, 0.0, 1.0, 0.15, 0.15)">
    <path d="M25.45 3.8 L25.45 3.0 Q25.4 2.0 25.0 1.4 24.25 0.35 22.35 0.3 L3.65 0.3 2.65 0.45 Q1.95 0.55 1.5 0.9 0.55 1.75 0.55 3.0 L0.55 3.7 Q0.6 2.55 1.5 1.8 1.95 1.45 2.65 1.3 L3.65 1.2 22.35 1.2 23.75 1.4 Q25.4 1.9 25.45 3.8 M25.7 1.4 L26.0 2.7 26.0 21.6 Q25.95 24.25 22.9 24.3 L3.05 24.3 1.95 24.15 1.5 24.0 Q0.0 23.45 0.0 21.6 L0.0 2.7 Q0.05 0.25 2.65 0.05 L2.95 0.0 23.0 0.0 Q25.1 0.1 25.7 1.4 M23.25 1.85 L23.2 1.85 22.6 1.95 22.45 2.0 Q21.75 2.4 21.75 3.35 L21.75 21.7 21.9 22.15 22.2 22.45 23.2 22.8 23.25 22.8 Q23.85 22.8 24.25 22.45 L24.55 22.15 24.7 21.7 24.7 3.25 Q24.65 2.35 24.05 2.0 L23.25 1.85 M21.2 3.2 L21.05 2.9 20.65 2.45 Q19.9 1.85 18.5 1.8 L4.4 1.8 Q3.3 1.85 2.65 2.25 2.05 2.6 1.75 3.25 1.35 3.5 1.3 4.5 L1.3 20.15 Q1.3 21.15 1.75 21.75 2.5 22.8 4.4 22.8 L18.55 22.8 Q19.95 22.8 20.7 22.25 L20.95 22.05 Q21.7 21.35 21.7 20.15 L21.7 4.25 Q21.5 3.4 21.2 3.2 M20.75 21.7 Q21.45 21.05 21.5 19.8 21.5 21.05 20.8 21.7 L20.7 21.75 20.75 21.7 M21.35 3.5 L21.3 3.45 21.25 3.3 21.35 3.5" fill="url(#gradient0)" fill-rule="evenodd" stroke="none"/>
    <path d="M25.45 3.8 Q25.4 1.9 23.75 1.4 L22.35 1.2 3.65 1.2 2.65 1.3 Q1.95 1.45 1.5 1.8 0.6 2.55 0.55 3.7 L0.55 3.0 Q0.55 1.75 1.5 0.9 1.95 0.55 2.65 0.45 L3.65 0.3 22.35 0.3 Q24.25 0.35 25.0 1.4 25.4 2.0 25.45 3.0 L25.45 3.8" fill="#c1beb7" fill-rule="evenodd" stroke="none"/>
    <path d="M24.15 2.8 Q23.8 2.5 23.25 2.5 22.75 2.5 22.35 2.8 L22.1 3.15 22.1 21.75 22.05 21.4 22.1 21.85 22.35 22.15 Q22.7 22.5 23.2 22.5 L23.25 22.5 Q23.75 22.5 24.1 22.15 L24.35 21.8 24.4 21.55 24.4 3.15 24.15 2.8 M23.25 1.85 L24.05 2.0 Q24.65 2.35 24.7 3.25 L24.7 21.7 24.55 22.15 24.25 22.45 Q23.85 22.8 23.25 22.8 L23.2 22.8 22.2 22.45 21.9 22.15 21.75 21.7 21.75 3.35 Q21.75 2.4 22.45 2.0 L22.6 1.95 23.2 1.85 23.25 1.85 M1.75 3.25 L1.8 3.2 1.55 3.8 1.5 4.5 1.5 19.9 1.65 20.75 1.95 21.4 1.95 21.45 2.75 22.15 3.95 22.5 18.45 22.5 19.7 22.35 20.8 21.7 Q21.5 21.05 21.5 19.8 L21.5 4.25 21.4 3.6 21.35 3.55 21.35 3.5 21.25 3.3 21.2 3.2 Q21.5 3.4 21.7 4.25 L21.7 20.15 Q21.7 21.35 20.95 22.05 L20.7 22.25 Q19.95 22.8 18.55 22.8 L4.4 22.8 Q2.5 22.8 1.75 21.75 1.3 21.15 1.3 20.15 L1.3 4.5 Q1.35 3.5 1.75 3.25" fill="url(#gradient1)" fill-rule="evenodd" stroke="none"/>
    <path d="M20.7 21.75 L20.8 21.7 19.7 22.35 19.75 22.3 Q20.25 22.05 20.7 21.75" fill="url(#gradient2)" fill-rule="evenodd" stroke="none"/>
    <path d="M1.95 21.4 L1.95 5.85 Q1.95 4.6 2.65 3.95 3.4 3.2 5.0 3.2 L17.75 3.2 Q20.2 3.25 20.7 4.95 L20.8 5.85 20.8 21.2 20.75 21.7 20.7 21.75 Q20.25 22.05 19.75 22.3 L19.7 22.35 18.45 22.5 3.95 22.5 2.75 22.15 1.95 21.45 1.95 21.4" fill="#ede7d3" fill-rule="evenodd" stroke="none"/>
    <path d="M1.75 3.25 Q2.05 2.6 2.65 2.25 3.3 1.85 4.4 1.8 L18.5 1.8 Q19.9 1.85 20.65 2.45 L21.05 2.9 21.2 3.2 21.25 3.3 21.3 3.45 21.35 3.5 21.35 3.55 21.4 3.6 21.5 4.25 21.5 19.8 Q21.45 21.05 20.75 21.7 L20.8 21.2 20.8 5.85 20.7 4.95 Q20.2 3.25 17.75 3.2 L5.0 3.2 Q3.4 3.2 2.65 3.95 1.95 4.6 1.95 5.85 L1.95 21.4 1.65 20.75 1.5 19.9 1.5 4.5 1.55 3.8 1.8 3.2 1.75 3.25" fill="#cccccc" fill-rule="evenodd" stroke="none"/>
    <path d="M24.15 2.8 L24.4 3.15 24.4 21.55 24.35 21.8 24.1 22.15 Q23.75 22.5 23.25 22.5 L23.2 22.5 Q22.7 22.5 22.35 22.15 L22.1 21.85 22.05 21.4 22.1 21.75 22.1 3.15 22.35 2.8 Q22.75 2.5 23.25 2.5 23.8 2.5 24.15 2.8" fill="#ffffff" fill-rule="evenodd" stroke="none"/>
    <path d="M25.7 1.4 Q25.1 0.1 23.0 0.0 L2.95 0.0 2.65 0.05 Q0.05 0.25 0.0 2.7 L0.0 21.6 Q0.0 23.45 1.5 24.0 L1.95 24.15 3.05 24.3 22.9 24.3 Q25.95 24.25 26.0 21.6 L26.0 2.7 25.7 1.4 Z" ffdec:has-small-stroke="true" ffdec:original-stroke-width="0.3" fill="none" stroke="#000000" stroke-linecap="butt" stroke-linejoin="miter-clip" stroke-miterlimit="3.0" stroke-opacity="0.3019608" stroke-width="1.0"/>
  </g>
  <defs>
    <linearGradient gradientTransform="matrix(0.0, -0.0133, 0.0148, 0.0, 12.35, 13.45)" gradientUnits="userSpaceOnUse" id="gradient0" spreadMethod="pad" x1="-819.2" x2="819.2">
      <stop offset="0.011764705882352941" stop-color="#8e8179"/>
      <stop offset="0.17254901960784313" stop-color="#766759"/>
      <stop offset="0.6313725490196078" stop-color="#a5a097"/>
      <stop offset="1.0" stop-color="#a7a299"/>
    </linearGradient>
    <linearGradient gradientTransform="matrix(0.0, -0.0118, 0.0143, 0.0, 13.0, 13.05)" gradientUnits="userSpaceOnUse" id="gradient1" spreadMethod="pad" x1="-819.2" x2="819.2">
      <stop offset="0.0" stop-color="#c2bbb6"/>
      <stop offset="1.0" stop-color="#a6a198"/>
    </linearGradient>
    <linearGradient gradientTransform="matrix(0.0, -0.0125, 0.0124, 0.0, 11.35, 12.7)" gradientUnits="userSpaceOnUse" id="gradient2" spreadMethod="pad" x1="-819.2" x2="819.2">
      <stop offset="0.0" stop-color="#ffffff" stop-opacity="0.3019608"/>
      <stop offset="1.0" stop-color="#ffffff" stop-opacity="0.0"/>
    </linearGradient>
  </defs>
</svg>
