<?xml version="1.0" encoding="UTF-8" standalone="no"?>
<svg xmlns:ffdec="https://www.free-decompiler.com/flash" xmlns:xlink="http://www.w3.org/1999/xlink" ffdec:objectType="shape" height="71.05px" width="174.0px" xmlns="http://www.w3.org/2000/svg">
  <g transform="matrix(1.0, 0.0, 0.0, 1.0, -53.0, -318.05)">
    <path d="M53.0 339.8 L227.0 339.8 227.0 389.1 53.0 389.1 53.0 339.8" fill="#514a3c" fill-rule="evenodd" stroke="none"/>
    <path d="M74.0 321.95 L78.1 322.8 Q82.7 323.5 85.45 322.65 88.15 321.9 90.2 321.85 L91.75 321.95 91.05 324.0 Q85.65 325.6 79.25 323.95 76.1 323.1 74.0 321.95 M140.55 325.85 L139.7 324.6 138.8 325.85 139.5 326.2 139.7 326.6 139.9 326.2 140.55 325.85 M141.65 330.05 L140.5 331.9 Q141.8 333.4 145.1 333.55 150.95 333.8 154.5 330.05 158.65 325.75 165.7 322.0 174.0 317.6 179.9 318.1 186.2 318.65 186.8 324.3 187.0 326.6 185.75 328.3 184.45 330.1 181.95 330.3 177.65 330.65 175.45 327.75 L174.3 325.2 Q175.4 327.4 177.55 328.25 L181.65 328.4 Q183.7 327.75 184.2 326.05 184.7 324.2 182.75 322.2 178.95 318.2 169.75 322.1 161.95 325.4 155.75 331.35 150.95 335.95 145.0 335.1 141.7 334.6 139.7 332.8 137.7 334.6 134.35 335.1 128.4 335.95 123.55 331.35 117.4 325.35 109.65 322.1 100.45 318.2 96.65 322.2 94.7 324.2 95.15 326.05 95.65 327.75 97.7 328.4 L101.85 328.25 Q104.2 327.3 105.25 324.7 105.0 326.25 103.9 327.75 101.65 330.65 97.35 330.3 94.95 330.1 93.55 328.3 92.35 326.6 92.55 324.3 93.15 318.65 99.4 318.1 105.3 317.6 113.7 322.0 120.7 325.75 124.85 330.05 128.45 333.8 134.25 333.55 137.55 333.4 138.85 331.9 L137.7 330.05 Q136.35 327.1 139.05 323.8 L136.35 320.4 139.65 323.15 Q141.25 321.5 143.05 320.4 L140.3 323.85 Q142.95 327.1 141.65 330.05 M98.4 322.05 L102.45 322.35 Q106.75 322.6 108.3 322.3 L111.4 323.85 Q104.25 324.6 97.35 323.85 L98.4 322.05 M180.95 322.05 L181.95 323.85 172.4 324.15 168.0 323.85 171.0 322.3 Q173.55 322.8 180.95 322.05 M193.9 322.65 Q196.6 323.5 201.25 322.8 L205.4 321.95 Q203.3 323.1 200.1 323.95 193.75 325.6 188.35 324.0 L187.55 321.95 189.1 321.85 Q191.2 321.9 193.9 322.65" fill="#29261f" fill-opacity="0.8" fill-rule="evenodd" stroke="none"/>
  </g>
</svg>
