<?xml version="1.0" encoding="UTF-8" standalone="no"?>
<svg xmlns:ffdec="https://www.free-decompiler.com/flash" xmlns:xlink="http://www.w3.org/1999/xlink" ffdec:objectType="shape" height="15.6px" width="17.75px" xmlns="http://www.w3.org/2000/svg">
  <g transform="matrix(1.0, 0.0, 0.0, 1.0, -0.05, -3.85)">
    <path d="M16.05 4.0 L16.8 3.9 17.5 3.85 17.7 3.85 17.75 3.85 17.8 3.85 17.8 3.9 17.35 5.35 17.05 6.1 17.05 6.2 16.65 7.05 15.35 8.95 12.6 11.8 13.1 12.35 13.4 12.0 14.85 11.55 14.9 11.6 14.55 11.95 13.1 13.7 14.35 14.9 14.45 14.85 14.6 15.05 14.75 15.15 15.5 15.9 15.45 15.9 15.7 16.1 15.45 16.4 15.7 16.15 15.7 16.1 15.75 16.2 Q16.45 16.1 16.85 16.5 17.3 16.85 17.3 17.5 17.25 18.15 16.8 18.7 16.35 19.25 15.7 19.35 15.05 19.45 14.65 19.0 14.2 18.65 14.2 18.0 L14.2 17.9 12.35 16.35 12.25 16.2 12.1 16.1 11.55 15.6 9.7 17.85 9.6 17.75 9.7 17.8 9.65 17.75 9.85 16.25 9.85 16.2 9.9 16.25 10.05 16.05 10.15 15.9 8.95 15.0 7.65 15.95 7.75 16.1 7.9 16.3 7.95 16.35 8.15 17.85 8.1 17.9 6.25 15.65 5.7 16.2 5.55 16.25 5.45 16.4 3.9 17.75 3.6 17.95 3.6 18.1 Q3.6 18.7 3.15 19.1 2.75 19.55 2.05 19.4 L1.0 18.8 Q0.5 18.25 0.5 17.6 0.5 16.95 0.9 16.55 1.35 16.2 2.0 16.25 L2.05 16.25 2.1 16.2 2.3 15.95 2.3 15.9 3.3 14.95 3.4 14.95 4.65 13.75 2.9 11.65 2.9 11.6 4.4 12.05 4.7 12.4 5.3 11.75 2.45 8.95 1.2 7.05 0.8 6.2 0.8 6.1 0.5 5.35 0.05 3.9 0.1 3.85 0.15 3.85 0.35 3.85 1.05 3.9 1.75 3.95 Q3.6 4.25 5.2 5.35 L6.85 6.55 8.95 8.35 10.95 6.55 12.6 5.35 Q14.2 4.3 16.05 4.0" fill="#514a3c" fill-rule="evenodd" stroke="none"/>
  </g>
</svg>
