<?xml version="1.0" encoding="UTF-8" standalone="no"?>
<svg xmlns:ffdec="https://www.free-decompiler.com/flash" xmlns:xlink="http://www.w3.org/1999/xlink" ffdec:objectType="shape" height="40.0px" width="43.0px" xmlns="http://www.w3.org/2000/svg">
  <g transform="matrix(1.0, 0.0, 0.0, 1.0, 0.0, 0.0)">
    <path d="M43.0 40.0 L0.0 40.0 0.0 0.0 43.0 0.0 43.0 40.0 M33.3 6.6 L33.25 6.65 33.0 6.6 31.9 6.75 31.85 6.75 30.75 6.95 Q27.85 7.6 25.25 9.45 L25.25 9.5 22.7 11.65 22.65 11.65 17.3 17.05 Q17.05 17.1 17.0 17.3 L13.7 21.05 13.45 20.8 13.25 20.7 9.95 19.7 9.65 19.7 Q9.45 19.75 9.4 19.9 L9.3 20.2 9.45 20.5 12.95 24.1 10.1 27.1 10.0 27.15 9.9 27.4 9.85 27.5 9.85 27.6 9.65 27.6 Q8.6 27.5 7.9 28.25 L7.85 28.25 Q7.0 29.0 7.05 30.25 L7.05 30.3 Q7.3 31.5 8.1 32.4 8.9 33.4 10.2 33.5 11.5 33.65 12.4 32.7 L12.35 32.75 Q13.0 32.15 13.0 30.95 L16.4 27.55 20.1 31.3 20.4 31.45 20.7 31.4 20.9 31.15 20.95 30.85 20.0 27.35 19.85 27.1 19.65 26.95 Q22.0 25.1 23.9 22.85 L23.95 22.85 30.6 15.75 30.65 15.75 32.5 12.5 32.55 12.45 33.05 11.0 33.0 11.05 33.05 10.85 33.55 9.55 34.05 7.25 34.05 7.15 Q34.05 6.4 33.5 6.55 L33.3 6.6" fill="#ffffff" fill-opacity="0.0" fill-rule="evenodd" stroke="none"/>
    <path d="M33.3 6.6 L33.5 6.55 Q34.05 6.4 34.05 7.15 L34.05 7.25 33.55 9.55 33.05 10.85 33.0 11.05 33.05 11.0 32.55 12.45 32.5 12.5 30.65 15.75 30.6 15.75 23.95 22.85 23.9 22.85 Q22.0 25.1 19.65 26.95 L19.85 27.1 20.0 27.35 20.95 30.85 20.9 31.15 20.7 31.4 20.4 31.45 20.1 31.3 16.4 27.55 13.0 30.95 Q13.0 32.15 12.35 32.75 L12.4 32.7 Q11.5 33.65 10.2 33.5 8.9 33.4 8.1 32.4 7.3 31.5 7.05 30.3 L7.05 30.25 Q7.0 29.0 7.85 28.25 L7.9 28.25 Q8.6 27.5 9.65 27.6 L9.85 27.6 9.85 27.5 9.9 27.4 10.0 27.15 10.1 27.1 12.95 24.1 9.45 20.5 9.3 20.2 9.4 19.9 Q9.45 19.75 9.65 19.7 L9.95 19.7 13.25 20.7 13.45 20.8 13.7 21.05 17.0 17.3 Q17.05 17.1 17.3 17.05 L22.65 11.65 22.7 11.65 25.25 9.5 25.25 9.45 Q27.85 7.6 30.75 6.95 L31.85 6.75 31.9 6.75 33.0 6.6 33.25 6.65 33.3 6.6 M33.45 7.1 L33.35 7.0 33.1 7.1 32.0 7.2 30.85 7.4 Q28.0 8.0 25.6 9.85 L23.0 12.0 17.55 17.45 17.45 17.55 13.7 21.7 13.1 21.05 9.75 20.1 10.7 21.05 13.65 24.05 13.05 24.65 10.4 27.45 10.35 27.45 10.4 27.5 9.8 28.0 Q8.85 27.85 8.2 28.5 7.55 29.1 7.6 30.15 7.65 31.15 8.5 32.0 9.15 32.8 10.3 32.95 11.3 33.05 11.95 32.3 12.5 31.75 12.5 30.75 L16.4 26.85 20.45 30.85 20.1 29.6 19.5 27.4 18.9 26.85 18.95 26.85 23.6 22.5 30.2 15.4 32.05 12.2 32.6 10.8 32.65 10.55 33.0 9.35 33.55 7.1 33.55 7.0 33.45 7.1" fill="#483e39" fill-rule="evenodd" stroke="none"/>
    <path d="M33.45 7.1 L33.55 7.0 33.55 7.1 33.0 9.35 32.65 10.55 32.6 10.8 32.05 12.2 30.2 15.4 23.6 22.5 18.95 26.85 17.6 25.45 17.4 25.3 Q18.0 24.95 18.2 24.2 18.35 23.55 18.0 22.95 L17.75 22.6 20.75 19.55 20.85 19.6 33.45 7.1" fill="#acb9b9" fill-rule="evenodd" stroke="none"/>
    <path d="M13.7 21.7 L17.45 17.55 17.55 17.45 23.0 12.0 25.6 9.85 Q28.0 8.0 30.85 7.4 L32.0 7.2 33.1 7.1 33.35 7.0 33.45 7.1 20.85 19.6 20.75 19.55 17.75 22.6 16.95 22.05 Q16.2 21.85 15.55 22.3 L15.0 22.9 13.7 21.7" fill="#ffffff" fill-rule="evenodd" stroke="none"/>
    <path d="M20.1 29.6 L20.45 30.85 16.4 26.85 13.65 24.05 10.7 21.05 12.2 21.45 14.55 24.05 15.5 25.0 16.5 25.95 20.1 29.6 M11.0 29.6 L11.0 29.35 11.7 30.05 11.75 30.65 Q11.8 31.45 11.45 31.8 10.9 32.35 10.2 32.2 9.45 32.15 8.95 31.55 L8.35 30.45 Q8.2 29.7 8.85 29.25 L8.85 29.35 Q8.85 29.9 9.25 30.15 9.65 30.6 10.05 30.5 L10.7 30.35 Q11.15 30.0 11.0 29.6" fill="#000000" fill-rule="evenodd" stroke="none"/>
    <path d="M18.95 26.85 L18.9 26.85 19.5 27.4 20.1 29.6 16.5 25.95 15.5 25.0 14.55 24.05 12.2 21.45 10.7 21.05 9.75 20.1 13.1 21.05 13.7 21.7 15.0 22.9 15.55 22.3 Q16.2 21.85 16.95 22.05 L17.75 22.6 18.0 22.95 Q18.35 23.55 18.2 24.2 18.0 24.95 17.4 25.3 L17.55 25.45 17.6 25.45 18.95 26.85 M12.5 30.75 Q12.5 31.75 11.95 32.3 11.3 33.05 10.3 32.95 9.15 32.8 8.5 32.0 7.65 31.15 7.6 30.15 7.55 29.1 8.2 28.5 8.85 27.85 9.8 28.0 L12.5 30.35 12.5 30.75 M10.65 29.1 L10.35 28.8 10.0 28.6 9.8 28.5 9.5 28.6 Q9.45 28.6 9.35 28.7 9.1 28.8 9.25 29.05 L9.15 29.25 9.4 29.85 10.0 30.0 10.55 29.85 10.7 29.4 10.65 29.1 M11.0 29.6 Q11.15 30.0 10.7 30.35 L10.05 30.5 Q9.65 30.6 9.25 30.15 8.85 29.9 8.85 29.35 L8.85 29.25 Q8.2 29.7 8.35 30.45 L8.95 31.55 Q9.45 32.15 10.2 32.2 10.9 32.35 11.45 31.8 11.8 31.45 11.75 30.65 L11.7 30.05 11.0 29.35 11.0 29.6" fill="#2d2f39" fill-rule="evenodd" stroke="none"/>
    <path d="M16.4 26.85 L12.5 30.75 12.5 30.35 9.8 28.0 10.4 28.25 11.45 28.6 11.8 28.5 11.6 27.2 12.55 28.05 Q13.65 28.05 13.95 27.05 L14.35 25.95 13.05 24.65 13.65 24.05 16.4 26.85" fill="#24160f" fill-rule="evenodd" stroke="none"/>
    <path d="M17.4 25.3 L17.6 25.45 17.55 25.45 17.4 25.3" fill="#62a3ac" fill-rule="evenodd" stroke="none"/>
    <path d="M9.8 28.0 L10.4 27.5 10.35 27.45 10.4 27.45 13.05 24.65 14.35 25.95 13.95 27.05 Q13.65 28.05 12.55 28.05 L11.6 27.2 11.8 28.5 11.45 28.6 10.4 28.25 9.8 28.0" fill="#6b4825" fill-rule="evenodd" stroke="none"/>
    <path d="M10.65 29.1 L10.7 29.4 10.55 29.85 10.0 30.0 9.4 29.85 9.15 29.25 9.25 29.05 Q9.1 28.8 9.35 28.7 9.45 28.6 9.5 28.6 L9.8 28.5 10.0 28.6 10.35 28.8 10.65 29.1" fill="#6f6f6f" fill-rule="evenodd" stroke="none"/>
  </g>
</svg>
