<?xml version="1.0" encoding="UTF-8" standalone="no"?>
<svg xmlns:ffdec="https://www.free-decompiler.com/flash" xmlns:xlink="http://www.w3.org/1999/xlink" ffdec:objectType="shape" height="25.65px" width="26.75px" xmlns="http://www.w3.org/2000/svg">
  <g transform="matrix(1.0, 0.0, 0.0, 1.0, 1.0, 0.95)">
    <path d="M23.85 7.75 Q24.2 7.75 24.5 8.0 L24.75 8.65 24.5 9.3 19.1 14.65 20.15 22.65 20.0 23.25 19.45 23.65 18.8 23.5 12.4 19.65 6.0 23.5 5.35 23.65 4.8 23.25 4.6 22.65 5.65 14.65 0.3 9.3 0.0 8.65 Q0.0 8.3 0.3 8.0 0.55 7.75 0.9 7.75 L7.6 7.75 11.6 0.5 Q11.75 0.15 12.05 0.05 L12.7 0.05 13.2 0.5 17.15 7.75 23.85 7.75" fill="#2b1509" fill-rule="evenodd" stroke="none"/>
    <path d="M23.85 7.75 L17.15 7.75 13.2 0.5 12.7 0.05 12.05 0.05 Q11.75 0.15 11.6 0.5 L7.6 7.75 0.9 7.75 Q0.55 7.75 0.3 8.0 0.0 8.3 0.0 8.65 L0.3 9.3 5.65 14.65 4.6 22.65 4.8 23.25 5.35 23.65 6.0 23.5 12.4 19.65 18.8 23.5 19.45 23.65 20.0 23.25 20.15 22.65 19.1 14.65 24.5 9.3 24.75 8.65 24.5 8.0 Q24.2 7.75 23.85 7.75 Z" fill="none" stroke="#2b1509" stroke-linecap="butt" stroke-linejoin="miter-clip" stroke-miterlimit="3.0" stroke-width="2.0"/>
    <path d="M21.0 8.6 L21.55 8.6 21.0 8.6 M23.85 7.75 Q24.2 7.75 24.5 8.0 L24.75 8.65 24.5 9.3 19.1 14.65 20.15 22.65 20.0 23.25 19.45 23.65 18.8 23.5 12.4 19.65 6.0 23.5 5.35 23.65 4.8 23.25 4.6 22.65 5.65 14.65 0.3 9.3 0.0 8.65 Q0.0 8.3 0.3 8.0 0.55 7.75 0.9 7.75 L7.6 7.75 11.6 0.5 Q11.75 0.15 12.05 0.05 L12.7 0.05 13.2 0.5 17.15 7.75 23.85 7.75 M12.6 2.4 L12.1 2.4 11.75 2.8 8.55 8.6 3.9 8.6 8.55 8.6 11.75 2.8 12.1 2.4 12.6 2.4 M16.2 8.6 L19.25 8.6 16.2 8.6 M3.2 8.6 Q2.9 8.6 2.7 8.8 2.45 9.0 2.45 9.3 L2.7 9.8 7.0 14.1 6.5 18.0 6.25 19.85 6.15 20.5 6.3 21.0 6.75 21.3 7.25 21.2 12.4 18.1 17.5 21.2 18.05 21.3 18.45 21.0 18.6 20.5 17.75 14.1 19.9 11.95 Q10.5 15.75 3.9 8.6 L3.2 8.6 1.35 8.6 3.2 8.6" fill="#ffb437" fill-rule="evenodd" stroke="none"/>
    <path d="M7.0 14.1 L2.7 9.8 2.45 9.3 Q2.45 9.0 2.7 8.8 2.9 8.6 3.2 8.6 L3.9 8.6 Q10.5 15.75 19.9 11.95 L17.75 14.1 18.6 20.5 18.45 21.0 18.05 21.3 17.5 21.2 12.4 18.1 7.25 21.2 6.75 21.3 6.3 21.0 6.15 20.5 6.25 19.85 6.5 18.0 7.0 14.1" fill="#f49302" fill-rule="evenodd" stroke="none"/>
    <path d="M21.55 8.6 L21.0 8.6 M19.25 8.6 L16.2 8.6 M3.9 8.6 L8.55 8.6 11.75 2.8 12.1 2.4 12.6 2.4 M7.0 14.1 L6.5 18.0 M6.25 19.85 L6.15 20.5 M3.9 8.6 L3.2 8.6 1.35 8.6" fill="none" stroke="#fecb81" stroke-linecap="butt" stroke-linejoin="miter-clip" stroke-miterlimit="3.0" stroke-width="1.0"/>
  </g>
</svg>
