<?xml version="1.0" encoding="UTF-8" standalone="no"?>
<svg xmlns:ffdec="https://www.free-decompiler.com/flash" xmlns:xlink="http://www.w3.org/1999/xlink" ffdec:objectType="shape" height="244.8px" width="312.35px" xmlns="http://www.w3.org/2000/svg">
  <g transform="matrix(1.0, 0.0, 0.0, 1.0, -295.6, -138.8)">
    <path d="M603.6 175.75 L295.6 175.75 295.6 138.8 603.6 138.8 603.6 175.75 M460.9 209.8 L606.95 209.8 606.95 246.75 460.9 246.75 460.9 209.8 M441.7 246.75 L295.65 246.75 295.65 209.8 441.7 209.8 441.7 246.75 M441.7 383.6 L295.65 383.6 295.65 346.65 441.7 346.65 441.7 383.6 M461.9 346.65 L607.95 346.65 607.95 383.6 461.9 383.6 461.9 346.65 M441.7 315.4 L295.65 315.4 295.65 278.4 441.7 278.4 441.7 315.4 M459.9 279.55 L605.95 279.55 605.95 316.5 459.9 316.5 459.9 279.55" fill="#ffffff" fill-rule="evenodd" stroke="none"/>
    <path d="M312.7 203.3 L592.65 203.3" fill="none" stroke="#784b01" stroke-linecap="butt" stroke-linejoin="miter-clip" stroke-miterlimit="3.0" stroke-width="1.0"/>
  </g>
</svg>
