<?xml version="1.0" encoding="UTF-8" standalone="no"?>
<svg xmlns:ffdec="https://www.free-decompiler.com/flash" xmlns:xlink="http://www.w3.org/1999/xlink" ffdec:objectType="shape" height="70.0px" width="734.75px" xmlns="http://www.w3.org/2000/svg">
  <g transform="matrix(1.0, 0.0, 0.0, 1.0, 386.5, -5.5)">
    <path d="M277.3 65.25 L277.3 66.7 Q277.3 75.5 267.7 75.5 L47.05 75.5 Q37.3 75.5 37.3 66.7 L37.3 65.25 277.3 65.25 M277.3 14.35 L277.3 16.05 37.3 16.05 37.3 14.35 Q37.3 5.5 47.05 5.5 L267.7 5.5 Q277.3 5.5 277.3 14.35" fill="#af4300" fill-rule="evenodd" stroke="none"/>
    <path d="M275.5 16.0 L274.85 16.0 274.85 42.2 261.55 44.35 233.65 46.3 Q220.1 46.5 206.35 46.0 182.4 45.2 157.55 42.15 L133.4 40.35 105.3 39.25 105.3 39.2 105.25 39.25 Q96.25 39.0 87.4 39.2 L58.2 40.7 47.15 42.0 47.15 23.2 Q47.15 16.95 41.25 16.15 L41.25 16.05 Q42.3 11.55 48.2 11.55 L87.4 11.55 105.25 11.55 105.3 11.6 105.3 11.55 206.35 11.55 233.7 11.55 266.65 11.55 Q272.5 11.55 273.55 16.05 L273.55 16.15 273.7 17.75 273.7 15.5 Q273.7 8.9 266.65 8.9 L233.7 8.9 233.7 7.2 267.7 7.2 Q275.5 7.2 275.5 14.35 L275.5 16.0 M39.15 16.0 L39.15 14.35 Q39.15 7.2 47.0 7.2 L105.25 7.2 105.25 8.9 87.4 8.9 48.2 8.9 Q41.0 8.9 41.0 15.5 L41.0 16.15 40.45 16.05 40.05 16.05 39.75 16.0 39.15 16.0" fill="url(#gradient0)" fill-rule="evenodd" stroke="none"/>
    <path d="M233.7 8.9 L266.65 8.9 Q273.7 8.9 273.7 15.5 L273.7 17.75 273.55 16.15 273.55 16.05 Q272.5 11.55 266.65 11.55 L233.7 11.55 233.7 8.9" fill="url(#gradient1)" fill-rule="evenodd" stroke="none"/>
    <path d="M274.85 42.2 L274.85 66.0 275.5 66.0 275.5 66.7 Q275.5 73.8 267.7 73.8 L105.3 73.8 105.3 73.75 105.25 73.8 47.0 73.8 Q39.15 73.8 39.15 66.7 L39.15 66.0 40.95 66.0 Q45.9 65.2 46.8 60.95 47.15 59.75 47.15 58.25 L47.15 42.0 58.2 40.7 87.4 39.2 Q96.25 39.0 105.25 39.25 L105.3 39.3 105.3 39.25 133.4 40.35 157.55 42.15 Q182.4 45.2 206.35 46.0 220.1 46.5 233.65 46.3 L261.55 44.35 274.85 42.2" fill="url(#gradient2)" fill-rule="evenodd" stroke="none"/>
    <path d="M233.7 11.55 L206.35 11.55 206.35 8.9 233.7 8.9 233.7 11.55" fill="url(#gradient3)" fill-rule="evenodd" stroke="none"/>
    <path d="M105.3 8.9 L105.3 7.2 233.7 7.2 233.7 8.9 206.35 8.9 105.3 8.9" fill="url(#gradient4)" fill-rule="evenodd" stroke="none"/>
    <path d="M105.3 11.55 L105.3 8.9 206.35 8.9 206.35 11.55 105.3 11.55" fill="url(#gradient5)" fill-rule="evenodd" stroke="none"/>
    <path d="M105.25 8.9 L105.25 11.55 87.4 11.55 87.4 8.9 105.25 8.9" fill="url(#gradient6)" fill-rule="evenodd" stroke="none"/>
    <path d="M87.4 8.9 L87.4 11.55 48.2 11.55 Q42.3 11.55 41.25 16.05 L41.25 16.15 41.0 16.15 41.0 15.5 Q41.0 8.9 48.2 8.9 L87.4 8.9" fill="url(#gradient7)" fill-rule="evenodd" stroke="none"/>
    <path d="M275.5 16.0 L348.25 16.0 348.25 66.0 275.5 66.0 274.85 66.0 274.85 42.2 274.85 16.0 275.5 16.0" fill="url(#gradient8)" fill-rule="evenodd" stroke="none"/>
    <path d="M32.3 66.0 L-386.5 66.0 -386.5 16.0 32.3 16.0 32.3 66.0" fill="url(#gradient9)" fill-rule="evenodd" stroke="none"/>
    <path d="M39.15 66.0 L32.3 66.0 32.3 16.0 39.15 16.0 39.75 16.0 40.05 16.05 40.35 16.1 40.6 16.1 41.0 16.15 Q47.0 17.1 47.0 23.3 L47.0 58.9 46.8 60.95 Q45.9 65.2 40.95 66.0 L39.15 66.0" fill="url(#gradient10)" fill-rule="evenodd" stroke="none"/>
    <path d="M70.0 35.1 L68.5 36.05 Q67.15 37.4 67.15 39.1 L67.4 40.1 Q67.65 41.3 68.65 42.25 L68.85 42.4 Q69.9 43.3 71.35 43.5 L71.3 43.35 Q70.2 41.2 70.0 38.75 L70.0 35.1 M100.7 35.9 Q100.05 35.25 99.15 35.0 L99.15 38.75 Q99.0 41.2 97.9 43.35 L97.9 43.55 Q99.45 43.35 100.7 42.25 101.65 41.35 102.0 40.15 L102.0 39.1 Q102.0 37.25 100.65 35.9 L100.7 35.9 M99.15 30.0 L99.3 30.05 Q102.3 30.45 104.5 32.5 L104.55 32.5 Q107.45 35.25 107.45 39.1 L107.3 40.45 Q106.9 43.4 104.55 45.7 L104.5 45.75 Q101.35 48.45 97.25 48.45 L93.95 48.05 93.95 48.1 Q91.8 49.6 89.4 50.5 L89.4 52.75 91.65 52.75 92.4 53.0 92.75 53.7 92.75 56.5 92.4 57.15 91.65 57.45 77.4 57.45 76.85 57.3 76.5 56.95 76.3 56.5 76.5 53.7 Q76.5 53.25 76.85 53.0 L77.55 52.75 79.85 52.75 79.85 50.45 Q77.4 49.7 75.2 48.1 L72.05 48.45 Q69.55 48.45 67.65 47.6 L67.7 47.6 Q66.2 46.95 64.85 45.7 62.4 43.4 61.9 40.45 L61.8 39.1 Q61.8 35.25 64.85 32.5 L64.9 32.45 Q66.05 31.5 67.65 30.8 L67.7 30.75 Q68.7 30.3 69.85 30.1 L70.0 30.05 70.0 28.85 Q70.0 28.45 70.3 28.2 70.6 27.9 71.05 27.9 L98.1 27.9 Q98.55 27.9 98.85 28.2 L99.15 28.85 99.15 30.0" fill="url(#gradient11)" fill-rule="evenodd" stroke="none"/>
    <path d="M103.0 40.25 L103.0 41.45 Q103.0 43.8 101.35 45.3 99.6 46.9 97.2 46.9 L96.0 46.8 96.0 44.4 97.2 44.45 Q99.6 44.45 101.35 42.85 102.55 41.75 103.0 40.25 M106.2 40.25 Q105.85 37.55 103.65 35.5 101.7 33.7 98.95 33.35 L99.05 33.35 98.05 33.1 98.05 31.2 71.0 31.2 71.0 33.1 70.1 33.35 70.25 33.35 68.05 33.9 Q66.6 34.5 65.5 35.5 63.3 37.55 62.9 40.25 L62.75 39.05 Q62.75 35.65 65.5 33.1 66.6 32.25 68.05 31.6 69.0 31.1 70.25 30.95 L71.0 30.7 71.0 28.8 98.05 28.8 98.05 30.7 98.95 30.95 Q101.7 31.3 103.65 33.1 106.3 35.65 106.3 39.05 L106.2 40.25 M80.85 53.6 L80.85 56.05 77.4 56.05 77.45 53.6 80.85 53.6 M91.6 56.05 L88.3 56.05 88.3 53.6 91.6 53.6 91.6 56.05 M73.1 44.3 L73.1 46.8 72.0 46.9 Q69.55 46.9 68.05 45.5 L67.8 45.3 Q66.05 43.8 66.05 41.45 L66.3 40.25 Q66.6 41.75 67.8 42.85 L68.05 43.05 Q69.55 44.4 72.0 44.45 L73.1 44.3" fill="#2e1505" fill-rule="evenodd" stroke="none"/>
    <path d="M103.0 40.25 L103.0 39.05 Q103.0 36.85 101.35 35.25 100.05 34.05 98.45 33.85 L98.3 33.85 98.05 33.7 98.05 38.65 Q97.9 40.95 96.85 43.0 L96.0 44.4 96.0 46.8 97.2 46.9 Q99.6 46.9 101.35 45.3 103.0 43.8 103.0 41.45 L103.0 40.25 M62.9 40.25 Q63.3 37.55 65.5 35.5 66.6 34.5 68.05 33.9 L70.25 33.35 70.1 33.35 71.0 33.1 71.0 31.2 98.05 31.2 98.05 33.1 99.05 33.35 98.95 33.35 Q101.7 33.7 103.65 35.5 105.85 37.55 106.2 40.25 105.85 43.0 103.65 44.95 100.9 47.5 97.2 47.5 L93.9 47.0 93.7 47.0 93.25 47.3 Q91.05 48.9 88.55 49.7 L88.3 49.7 88.3 53.6 88.3 56.05 91.6 56.05 91.6 56.45 77.4 56.45 77.4 56.05 80.85 56.05 80.85 53.6 80.85 49.8 80.8 49.7 Q78.1 49.0 75.8 47.3 L75.5 47.0 75.15 47.0 72.0 47.5 Q69.8 47.5 68.05 46.7 66.7 46.1 65.5 44.95 63.3 43.0 62.9 40.25 M73.1 44.3 L72.85 44.1 72.25 43.0 Q71.2 40.95 71.0 38.65 L71.0 33.85 Q70.9 33.7 70.9 33.85 69.25 34.05 68.05 35.15 L67.8 35.25 Q66.05 36.85 66.05 39.05 L66.3 40.25 66.05 41.45 Q66.05 43.8 67.8 45.3 L68.05 45.5 Q69.55 46.9 72.0 46.9 L73.1 46.8 73.1 44.3" fill="#512809" fill-rule="evenodd" stroke="none"/>
  </g>
  <defs>
    <linearGradient gradientTransform="matrix(0.0, -0.008, 0.0852, 0.0, 108.95, 11.55)" gradientUnits="userSpaceOnUse" id="gradient0" spreadMethod="pad" x1="-819.2" x2="819.2">
      <stop offset="0.0" stop-color="#ffd800"/>
      <stop offset="1.0" stop-color="#f9b500"/>
    </linearGradient>
    <linearGradient gradientTransform="matrix(0.0, 0.0032, -0.0751, 0.0, 199.45, 12.35)" gradientUnits="userSpaceOnUse" id="gradient1" spreadMethod="pad" x1="-819.2" x2="819.2">
      <stop offset="0.0" stop-color="#feeba3"/>
      <stop offset="1.0" stop-color="#fdd000"/>
    </linearGradient>
    <linearGradient gradientTransform="matrix(0.0, 0.0096, -0.4209, 0.0, 183.2, 65.9)" gradientUnits="userSpaceOnUse" id="gradient2" spreadMethod="pad" x1="-819.2" x2="819.2">
      <stop offset="0.0" stop-color="#f59900"/>
      <stop offset="1.0" stop-color="#fabc00"/>
    </linearGradient>
    <linearGradient gradientTransform="matrix(0.0, 0.0032, -0.0915, 0.0, 192.1, 12.35)" gradientUnits="userSpaceOnUse" id="gradient3" spreadMethod="pad" x1="-819.2" x2="819.2">
      <stop offset="0.0" stop-color="#feeba3"/>
      <stop offset="1.0" stop-color="#fdd000"/>
    </linearGradient>
    <linearGradient gradientTransform="matrix(0.0, -0.008, 0.1037, 0.0, 109.8, 11.55)" gradientUnits="userSpaceOnUse" id="gradient4" spreadMethod="pad" x1="-819.2" x2="819.2">
      <stop offset="0.0" stop-color="#ffd800"/>
      <stop offset="1.0" stop-color="#f9b500"/>
    </linearGradient>
    <linearGradient gradientTransform="matrix(0.0, 0.0032, -0.3728, 0.0, 159.45, 12.35)" gradientUnits="userSpaceOnUse" id="gradient5" spreadMethod="pad" x1="-819.2" x2="819.2">
      <stop offset="0.0" stop-color="#feeba3"/>
      <stop offset="1.0" stop-color="#fdd000"/>
    </linearGradient>
    <linearGradient gradientTransform="matrix(0.0, 0.0032, -0.3062, 0.0, 149.8, 12.35)" gradientUnits="userSpaceOnUse" id="gradient6" spreadMethod="pad" x1="-819.2" x2="819.2">
      <stop offset="0.0" stop-color="#feeba3"/>
      <stop offset="1.0" stop-color="#fdd000"/>
    </linearGradient>
    <linearGradient gradientTransform="matrix(0.0, 0.0032, -0.0751, 0.0, 102.75, 12.35)" gradientUnits="userSpaceOnUse" id="gradient7" spreadMethod="pad" x1="-819.2" x2="819.2">
      <stop offset="0.0" stop-color="#feeba3"/>
      <stop offset="1.0" stop-color="#fdd000"/>
    </linearGradient>
    <linearGradient gradientTransform="matrix(0.0355, 0.0, 0.0, 0.0305, 313.4, 41.05)" gradientUnits="userSpaceOnUse" id="gradient8" spreadMethod="pad" x1="-819.2" x2="819.2">
      <stop offset="0.0" stop-color="#000000" stop-opacity="0.5019608"/>
      <stop offset="1.0" stop-color="#000000" stop-opacity="0.0"/>
    </linearGradient>
    <linearGradient gradientTransform="matrix(-0.4418, 0.0, 0.0, -0.0305, 144.4, 41.05)" gradientUnits="userSpaceOnUse" id="gradient9" spreadMethod="pad" x1="-819.2" x2="819.2">
      <stop offset="0.0" stop-color="#000000" stop-opacity="0.5019608"/>
      <stop offset="1.0" stop-color="#000000" stop-opacity="0.2"/>
    </linearGradient>
    <linearGradient gradientTransform="matrix(-0.0134, 0.0, 0.0, -0.0305, 35.7, 41.05)" gradientUnits="userSpaceOnUse" id="gradient10" spreadMethod="pad" x1="-819.2" x2="819.2">
      <stop offset="0.0" stop-color="#000000" stop-opacity="0.5019608"/>
      <stop offset="1.0" stop-color="#000000" stop-opacity="0.2"/>
    </linearGradient>
    <linearGradient gradientTransform="matrix(0.0, 0.0173, -0.0278, 0.0, 84.65, 42.8)" gradientUnits="userSpaceOnUse" id="gradient11" spreadMethod="pad" x1="-819.2" x2="819.2">
      <stop offset="0.0" stop-color="#f59900"/>
      <stop offset="1.0" stop-color="#ffd800"/>
    </linearGradient>
  </defs>
</svg>
