<?xml version="1.0" encoding="UTF-8" standalone="no"?>
<svg xmlns:ffdec="https://www.free-decompiler.com/flash" xmlns:xlink="http://www.w3.org/1999/xlink" ffdec:objectType="shape" height="24.4px" width="32.35px" xmlns="http://www.w3.org/2000/svg">
  <g transform="matrix(1.0, 0.0, 0.0, 1.0, 1.0, 1.0)">
    <path d="M27.7 3.6 L26.05 5.0 Q27.3 6.4 27.8 8.05 L29.1 7.6 30.1 10.85 28.35 11.15 28.35 11.25 Q28.35 15.8 24.25 19.1 20.05 22.4 14.2 22.4 9.6 22.4 6.05 20.35 L4.2 19.1 Q0.0 15.8 0.0 11.25 0.0 6.55 4.2 3.3 L6.05 2.05 Q7.8 1.05 9.75 0.55 L14.2 0.0 Q19.55 0.0 23.45 2.65 L25.0 1.0 27.7 3.6 M21.7 4.7 Q18.6 2.4 14.25 2.4 11.9 2.4 9.75 3.1 7.9 3.75 6.3 4.95 L6.05 5.15 Q3.05 7.7 3.05 11.25 3.05 14.8 6.05 17.3 L6.3 17.5 Q9.65 20.1 14.25 20.1 18.9 20.1 22.2 17.5 25.3 15.05 25.45 11.65 L23.95 11.95 23.3 9.6 25.15 8.95 Q24.75 7.8 23.95 6.75 L22.5 7.95 20.5 6.1 21.7 4.7 M17.1 3.45 L18.1 7.3 Q11.95 8.45 11.75 11.85 11.85 14.45 15.3 14.55 L15.3 11.4 19.6 11.4 19.6 17.4 Q14.8 18.4 10.6 17.0 5.45 14.9 7.1 10.1 9.75 4.75 17.1 3.45" fill="#2b1509" fill-rule="evenodd" stroke="none"/>
    <path d="M27.7 3.6 L25.0 1.0 23.45 2.65 Q19.55 0.0 14.2 0.0 L9.75 0.55 Q7.8 1.05 6.05 2.05 L4.2 3.3 Q0.0 6.55 0.0 11.25 0.0 15.8 4.2 19.1 L6.05 20.35 Q9.6 22.4 14.2 22.4 20.05 22.4 24.25 19.1 28.35 15.8 28.35 11.25 L28.35 11.15 30.1 10.85 29.1 7.6 27.8 8.05 Q27.3 6.4 26.05 5.0 L27.7 3.6 M21.7 4.7 Q18.6 2.4 14.25 2.4 11.9 2.4 9.75 3.1 7.9 3.75 6.3 4.95 L6.05 5.15 Q3.05 7.7 3.05 11.25 3.05 14.8 6.05 17.3 L6.3 17.5 Q9.65 20.1 14.25 20.1 18.9 20.1 22.2 17.5 25.3 15.05 25.45 11.65 L23.95 11.95 23.3 9.6 25.15 8.95 Q24.75 7.8 23.95 6.75 L22.5 7.95 20.5 6.1 21.7 4.7 M17.1 3.45 Q9.75 4.75 7.1 10.1 5.45 14.9 10.6 17.0 14.8 18.4 19.6 17.4 L19.6 11.4 15.3 11.4 15.3 14.55 Q11.85 14.45 11.75 11.85 11.95 8.45 18.1 7.3 L17.1 3.45 Z" fill="none" stroke="#2b1509" stroke-linecap="butt" stroke-linejoin="miter-clip" stroke-miterlimit="3.0" stroke-width="2.0"/>
    <path d="M27.7 3.6 L26.05 5.0 Q27.3 6.4 27.8 8.05 L29.1 7.6 30.1 10.85 28.35 11.15 28.35 11.25 Q28.35 15.8 24.25 19.1 20.05 22.4 14.2 22.4 8.35 22.4 4.2 19.1 0.0 15.8 0.0 11.25 0.0 6.55 4.2 3.3 6.75 1.3 9.75 0.55 L14.2 0.0 Q19.55 0.0 23.45 2.65 L25.0 1.0 27.7 3.6 M21.7 4.7 Q18.6 2.4 14.25 2.4 11.9 2.4 9.75 3.1 7.9 3.75 6.3 4.95 3.05 7.55 3.05 11.25 3.05 14.95 6.3 17.5 9.65 20.1 14.25 20.1 18.9 20.1 22.2 17.5 25.3 15.05 25.45 11.65 L23.95 11.95 23.3 9.6 25.15 8.95 Q24.75 7.8 23.95 6.75 L22.5 7.95 20.5 6.1 21.7 4.7 M15.3 11.4 L19.6 11.4 19.6 17.4 Q14.8 18.4 10.6 17.0 5.45 14.9 7.1 10.1 9.75 4.75 17.1 3.45 L18.1 7.3 Q11.95 8.45 11.75 11.85 11.85 14.45 15.3 14.55 L15.3 11.4" fill="#54bcbc" fill-rule="evenodd" stroke="none"/>
    <path d="M21.7 4.7 L20.5 6.1 22.5 7.95 23.95 6.75 Q24.75 7.8 25.15 8.95 L23.3 9.6 23.95 11.95 25.45 11.65 Q25.3 15.05 22.2 17.5 18.9 20.1 14.25 20.1 9.65 20.1 6.3 17.5 3.05 14.95 3.05 11.25 3.05 7.55 6.3 4.95 7.9 3.75 9.75 3.1 11.9 2.4 14.25 2.4 18.6 2.4 21.7 4.7 M15.3 11.4 L15.3 14.55 Q11.85 14.45 11.75 11.85 11.95 8.45 18.1 7.3 L17.1 3.45 Q9.75 4.75 7.1 10.1 5.45 14.9 10.6 17.0 14.8 18.4 19.6 17.4 L19.6 11.4 15.3 11.4" fill="#1d3638" fill-rule="evenodd" stroke="none"/>
  </g>
</svg>
