<?xml version="1.0" encoding="UTF-8" standalone="no"?>
<svg xmlns:ffdec="https://www.free-decompiler.com/flash" xmlns:xlink="http://www.w3.org/1999/xlink" ffdec:objectType="shape" height="204.95px" width="517.4px" xmlns="http://www.w3.org/2000/svg">
  <g transform="matrix(1.0, 0.0, 0.0, 1.0, -111.1, -48.85)">
    <path d="M597.15 59.2 L616.2 60.0 611.25 50.0 627.75 61.25 611.9 77.35 615.55 66.25 597.3 71.25 597.15 59.2" fill="url(#gradient0)" fill-rule="evenodd" stroke="none"/>
    <path d="M136.8 233.65 L140.4 253.3 117.8 253.3 128.25 248.1 111.95 238.6 120.4 230.05 133.2 244.15 136.8 233.65" fill="url(#gradient1)" fill-rule="evenodd" stroke="none"/>
    <path d="M597.15 59.2 L616.2 60.0 611.25 50.0 627.75 61.25 611.9 77.35 615.55 66.25 597.3 71.25 597.15 59.2 M136.8 233.65 L140.4 253.3 117.8 253.3 128.25 248.1 111.95 238.6 120.4 230.05 133.2 244.15 136.8 233.65 Z" fill="none" stroke="#ffff99" stroke-linecap="butt" stroke-linejoin="miter-clip" stroke-miterlimit="3.0" stroke-opacity="0.7019608" stroke-width="1.0"/>
  </g>
  <defs>
    <linearGradient gradientTransform="matrix(0.0122, -0.0124, 0.0101, 0.0099, 609.45, 63.25)" gradientUnits="userSpaceOnUse" id="gradient0" spreadMethod="pad" x1="-819.2" x2="819.2">
      <stop offset="0.0" stop-color="#ffe233"/>
      <stop offset="1.0" stop-color="#ff2a00"/>
    </linearGradient>
    <linearGradient gradientTransform="matrix(0.0174, 0.0, 0.0, 0.0142, 126.15, 241.65)" gradientUnits="userSpaceOnUse" id="gradient1" spreadMethod="pad" x1="-819.2" x2="819.2">
      <stop offset="0.0" stop-color="#ffe233"/>
      <stop offset="1.0" stop-color="#ff2a00"/>
    </linearGradient>
  </defs>
</svg>
