<?xml version="1.0" encoding="UTF-8" standalone="no"?>
<svg xmlns:ffdec="https://www.free-decompiler.com/flash" xmlns:xlink="http://www.w3.org/1999/xlink" ffdec:objectType="shape" height="93.0px" width="427.5px" xmlns="http://www.w3.org/2000/svg">
  <g transform="matrix(1.0, 0.0, 0.0, 1.0, 0.0, 0.0)">
    <path d="M427.4 29.1 L427.5 30.05 427.5 66.7 Q427.5 70.2 427.05 73.25 423.9 93.0 400.9 93.0 L48.1 93.0 21.2 92.7 Q3.2 90.6 0.5 73.25 0.0 70.2 0.0 66.7 L0.0 30.05 0.15 29.1 0.0 28.1 0.0 26.45 Q0.0 0.0 26.55 0.0 L400.9 0.0 Q427.5 0.0 427.5 26.45 L427.4 29.1 M422.95 73.25 Q423.5 70.25 423.5 66.7 L423.5 26.45 Q423.5 4.0 400.9 4.0 L26.55 4.0 Q4.0 4.0 4.0 26.45 L4.0 66.7 Q4.0 70.25 4.6 73.25 7.15 86.65 21.2 88.65 L28.25 89.0 400.9 89.0 Q419.85 89.0 422.95 73.25" fill="#514a3c" fill-rule="evenodd" stroke="none"/>
    <path d="M422.95 73.25 Q419.85 89.0 400.9 89.0 L28.25 89.0 21.2 88.65 Q7.15 86.65 4.6 73.25 4.0 70.25 4.0 66.7 L4.0 26.45 Q4.0 4.0 26.55 4.0 L400.9 4.0 Q423.5 4.0 423.5 26.45 L423.5 66.7 Q423.5 70.25 422.95 73.25" fill="#c9bf9d" fill-rule="evenodd" stroke="none"/>
    <path d="M113.55 47.1 L113.9 47.9 113.9 51.65 117.65 51.65 Q118.2 51.65 118.55 52.0 L118.85 52.85 118.85 55.3 118.55 56.15 Q118.2 56.5 117.65 56.5 L113.9 56.5 113.9 60.2 Q113.9 60.7 113.55 61.05 113.25 61.4 112.75 61.4 L110.2 61.4 Q109.7 61.4 109.35 61.05 109.0 60.7 109.0 60.2 L109.0 56.5 105.25 56.5 Q104.8 56.5 104.45 56.15 104.05 55.8 104.05 55.3 L104.05 52.85 Q104.05 52.35 104.45 52.0 104.8 51.65 105.25 51.65 L109.0 51.65 109.0 47.9 Q109.0 47.45 109.35 47.1 109.7 46.75 110.2 46.75 L112.75 46.75 Q113.25 46.75 113.55 47.1" fill="#514a3c" fill-rule="evenodd" stroke="none"/>
    <path d="M322.65 54.8 Q323.15 54.8 323.5 55.2 L323.8 56.0 323.8 58.45 323.5 59.35 Q323.15 59.65 322.65 59.65 L310.8 59.65 Q310.3 59.65 309.95 59.35 309.6 59.0 309.6 58.45 L309.6 56.0 Q309.6 55.5 309.95 55.2 310.3 54.8 310.8 54.8 L322.65 54.8 M322.65 48.45 Q323.15 48.45 323.5 48.8 L323.8 49.65 323.8 52.15 323.5 53.0 Q323.15 53.35 322.65 53.35 L310.8 53.35 Q310.3 53.35 309.95 53.0 309.6 52.6 309.6 52.15 L309.6 49.65 Q309.6 49.2 309.95 48.8 310.3 48.45 310.8 48.45 L322.65 48.45" fill="#514a3c" fill-rule="evenodd" stroke="none"/>
    <path d="M215.7 47.1 L216.05 47.9 216.05 51.65 219.8 51.65 Q220.35 51.65 220.7 52.0 221.0 52.35 221.0 52.85 L221.0 55.3 220.7 56.15 219.8 56.5 216.05 56.5 216.05 60.2 Q216.05 60.7 215.7 61.05 215.4 61.4 214.9 61.4 L212.35 61.4 Q211.85 61.4 211.5 61.05 211.15 60.7 211.15 60.2 L211.15 56.5 207.4 56.5 Q206.95 56.5 206.6 56.15 206.2 55.8 206.2 55.3 L206.2 52.85 Q206.2 52.35 206.6 52.0 206.95 51.65 207.4 51.65 L211.15 51.65 211.15 47.9 Q211.15 47.45 211.5 47.1 211.85 46.75 212.35 46.75 L214.9 46.75 Q215.4 46.75 215.7 47.1" fill="#514a3c" fill-rule="evenodd" stroke="none"/>
    <path d="M65.35 14.25 L65.55 14.45 Q67.75 16.75 67.75 19.9 67.75 23.05 65.55 25.3 L63.25 26.95 63.1 27.0 62.0 29.0 61.6 27.35 60.8 29.0 60.15 27.4 60.15 27.35 60.1 27.35 59.5 28.95 58.65 27.3 58.25 28.95 57.2 26.95 57.1 26.95 54.7 25.25 Q52.45 23.0 52.45 19.85 52.45 16.65 54.7 14.4 L54.9 14.2 55.1 14.05 Q57.65 11.55 58.95 9.05 59.9 7.3 60.15 5.45 L60.15 5.6 Q60.35 7.35 61.25 9.15 62.6 11.65 65.2 14.15 L65.35 14.25 M65.75 19.85 Q64.9 19.0 63.55 19.0 62.25 19.0 61.4 19.85 60.55 20.75 60.55 22.0 60.55 23.35 61.4 24.25 62.25 25.1 63.55 25.1 64.9 25.1 65.75 24.25 66.65 23.35 66.65 22.0 66.65 20.75 65.75 19.85 M54.5 19.8 Q53.55 20.7 53.55 21.95 53.55 23.25 54.5 24.2 55.4 25.05 56.65 25.05 57.95 25.05 58.85 24.2 59.7 23.25 59.7 21.95 59.7 20.7 58.85 19.8 57.95 18.95 56.65 18.95 55.4 18.95 54.5 19.8" fill="#514a3c" fill-rule="evenodd" stroke="none"/>
    <path d="M75.55 19.5 Q76.7 19.5 77.6 20.4 78.45 21.25 78.45 22.4 78.45 23.4 77.85 24.2 L77.5 24.7 77.65 24.5 Q74.75 28.75 67.2 28.95 L66.4 28.95 Q72.2 27.4 72.7 22.8 L72.7 21.9 Q72.85 21.05 73.5 20.4 74.35 19.5 75.55 19.5 M47.6 21.9 L47.6 22.8 Q48.1 27.4 53.9 28.95 L53.1 28.95 Q45.75 28.75 42.8 24.7 L42.45 24.2 Q41.85 23.4 41.85 22.4 41.85 21.25 42.7 20.4 43.55 19.5 44.75 19.5 45.95 19.5 46.8 20.4 47.45 21.05 47.6 21.9" fill="#514a3c" fill-rule="evenodd" stroke="none"/>
    <path d="M40.95 26.75 L41.2 26.95 41.35 27.15 Q43.15 28.75 45.35 28.85 L40.35 28.85 Q39.95 28.85 39.6 28.55 39.3 28.2 39.3 27.75 39.3 27.3 39.6 26.95 39.95 26.65 40.4 26.65 L40.95 26.75 M79.9 26.65 Q80.35 26.65 80.65 26.95 81.0 27.3 81.0 27.75 L80.65 28.55 Q80.35 28.85 79.95 28.85 L74.95 28.85 Q77.1 28.75 78.95 27.15 L79.1 26.95 79.35 26.75 79.9 26.65" fill="#514a3c" fill-rule="evenodd" stroke="none"/>
    <path d="M86.1 29.55 L34.1 29.55 34.1 5.6 86.1 5.6 86.1 29.55" fill="#ffffff" fill-opacity="0.0" fill-rule="evenodd" stroke="none"/>
    <path d="M162.65 5.9 Q166.55 5.9 169.3 8.6 172.0 11.3 172.0 15.1 172.0 18.95 169.3 21.7 166.55 24.3 162.65 24.3 158.85 24.3 156.15 21.7 153.4 18.95 153.4 15.1 153.4 11.3 156.15 8.6 158.85 5.9 162.65 5.9 M168.1 9.7 Q165.8 7.4 162.6 7.4 159.5 7.4 157.25 9.7 154.9 11.95 154.9 15.1 154.9 18.35 157.25 20.5 159.5 22.8 162.6 22.8 165.8 22.8 168.1 20.5 170.35 18.35 170.35 15.1 170.35 11.95 168.1 9.7 M162.6 21.15 Q156.25 16.45 157.25 13.65 158.0 11.1 159.75 11.1 161.25 11.25 162.65 13.2 163.9 11.25 165.4 11.1 167.2 11.1 168.0 13.65 168.9 16.45 162.6 21.15" fill="#514a3c" fill-rule="evenodd" stroke="none"/>
    <path d="M169.35 23.4 L169.8 23.0 Q170.5 25.4 172.6 26.65 174.9 27.95 177.3 27.3 179.75 26.65 181.05 24.4 182.3 22.2 181.65 19.8 181.0 17.3 178.7 15.95 176.6 14.7 174.15 15.45 L173.3 15.7 173.3 14.4 173.85 14.2 Q176.8 13.45 179.4 15.0 182.1 16.5 183.0 19.45 183.7 22.4 182.2 25.05 180.65 27.7 177.7 28.55 174.75 29.25 172.05 27.75 169.7 26.35 168.75 23.85 L169.25 23.55 169.35 23.4 M172.7 18.95 L173.05 17.8 175.35 19.15 178.45 16.65 177.85 20.6 181.0 22.4 177.2 23.35 175.95 26.8 174.1 24.15 170.8 23.85 173.25 21.05 172.7 18.95 M147.9 17.2 Q148.55 17.9 148.3 19.4 L148.25 19.5 Q148.1 20.75 149.5 21.25 149.15 20.3 149.55 19.7 150.0 18.2 149.35 17.75 150.5 17.7 151.35 19.0 L151.4 19.05 Q151.85 19.6 151.65 21.3 152.45 20.4 152.25 19.2 153.95 20.95 154.1 22.95 153.9 25.4 151.95 26.25 149.25 27.7 147.15 25.2 145.95 23.55 146.55 22.5 146.95 23.35 147.05 23.0 147.45 22.5 146.85 21.75 146.1 20.7 146.95 19.45 148.05 18.4 147.0 17.15 L146.35 16.9 147.8 17.15 147.9 17.2 M148.65 15.25 Q147.45 15.4 146.35 16.05 145.2 16.7 144.55 17.6 143.75 18.55 143.5 19.7 142.8 22.2 144.05 24.45 145.35 26.7 147.85 27.3 150.3 28.0 152.5 26.7 154.75 25.4 155.35 22.95 L155.4 22.8 156.45 23.75 Q155.55 26.35 153.1 27.8 150.4 29.4 147.5 28.45 144.5 27.75 143.0 25.1 141.4 22.4 142.25 19.4 L142.45 18.8 Q143.25 16.3 145.7 14.9 148.05 13.55 150.75 14.0 L152.15 14.45 152.05 15.05 152.05 15.1 152.15 15.75 151.0 15.4 148.65 15.25" fill="#514a3c" fill-rule="evenodd" stroke="none"/>
    <path d="M188.5 29.25 L136.5 29.25 136.5 5.3 188.5 5.3 188.5 29.25" fill="#ffffff" fill-opacity="0.0" fill-rule="evenodd" stroke="none"/>
    <path d="M269.25 6.8 Q271.35 5.55 274.35 18.1 274.8 20.7 274.5 22.6 L274.15 23.75 Q273.9 24.8 273.15 25.55 L273.15 25.6 270.6 27.3 270.25 27.4 269.9 27.45 Q268.0 28.1 266.55 27.95 265.55 27.9 264.7 27.45 263.95 27.2 263.2 26.65 261.55 25.5 260.25 23.15 254.65 11.55 257.45 11.05 L259.45 11.1 Q261.25 11.25 264.35 10.1 267.05 9.2 268.1 8.0 L269.25 6.8 M272.8 19.25 L272.7 19.1 272.65 19.05 271.8 20.15 271.8 20.25 Q270.5 21.65 268.95 22.3 L268.95 22.4 264.8 22.9 263.2 22.8 263.1 22.8 262.95 22.95 263.0 23.05 Q263.55 24.35 264.5 25.1 265.35 25.8 266.6 25.85 L266.7 25.85 Q268.0 25.95 269.8 25.3 L269.95 25.2 270.1 25.2 270.2 25.15 270.35 25.1 Q271.65 24.45 272.35 23.65 L272.4 23.65 Q273.1 22.8 273.15 21.8 L273.15 21.75 Q273.3 20.6 272.8 19.25 M266.1 17.7 Q265.65 16.4 264.5 15.85 L262.15 15.7 Q260.95 16.1 260.45 17.3 259.85 18.45 260.35 19.7 L260.35 19.75 260.75 20.55 Q260.95 20.8 261.3 20.85 L261.85 20.75 262.1 20.25 262.0 19.6 261.8 19.25 Q261.55 18.6 261.85 18.0 262.1 17.4 262.7 17.25 L263.85 17.35 Q264.45 17.55 264.65 18.2 L264.7 18.65 265.05 19.2 265.05 19.25 265.55 19.4 266.05 19.2 266.25 18.6 266.25 18.55 266.1 17.7 M272.35 15.45 Q271.9 14.15 270.85 13.6 L270.85 13.55 Q269.9 12.9 268.95 13.3 267.95 13.6 267.55 14.75 267.1 15.85 267.6 17.15 L268.0 18.0 268.45 18.4 268.45 18.35 268.85 18.25 269.05 17.8 268.95 17.2 268.95 17.15 268.75 16.75 Q268.5 16.1 268.75 15.55 L268.75 15.6 Q268.95 14.95 269.5 14.85 L270.5 14.9 271.2 15.9 271.3 16.25 271.3 16.3 271.55 16.9 Q271.7 17.1 272.0 17.1 L272.05 17.1 272.35 16.95 272.35 16.9 272.55 16.4 272.55 16.35 272.35 15.45" fill="#514a3c" fill-rule="evenodd" stroke="none"/>
    <path d="M251.55 20.25 L251.75 20.5 Q252.9 22.95 254.45 23.9 L254.5 23.6 Q254.85 21.4 256.1 20.55 257.3 19.65 259.4 20.1 L259.7 20.35 259.75 20.65 259.6 21.0 259.2 21.05 Q257.6 20.65 256.65 21.3 255.7 22.0 255.4 23.75 L255.3 24.3 Q257.35 25.0 260.15 23.2 L260.45 23.1 260.8 23.35 260.85 23.65 260.65 24.0 Q257.45 26.05 255.05 25.25 253.65 28.8 249.05 28.25 L248.7 28.1 248.6 27.75 248.8 27.45 249.1 27.35 Q253.0 27.8 254.2 24.85 252.3 23.8 250.9 20.9 L250.9 20.5 251.15 20.25 251.55 20.25" fill="#514a3c" fill-rule="evenodd" stroke="none"/>
    <path d="M250.5 28.7 L249.85 28.45 249.6 27.8 Q249.6 27.4 249.85 27.15 250.15 26.85 250.5 26.85 250.9 26.85 251.15 27.15 251.45 27.4 251.45 27.8 L251.15 28.45 250.5 28.7" fill="#514a3c" fill-rule="evenodd" stroke="none"/>
    <path d="M251.85 22.55 L251.2 22.3 250.95 21.65 Q250.95 21.25 251.2 21.0 251.5 20.7 251.85 20.7 252.25 20.7 252.5 21.0 L252.8 21.65 252.5 22.3 251.85 22.55" fill="#514a3c" fill-rule="evenodd" stroke="none"/>
    <path d="M290.45 29.9 L238.45 29.9 238.45 5.95 290.45 5.95 290.45 29.9" fill="#ffffff" fill-opacity="0.0" fill-rule="evenodd" stroke="none"/>
    <path d="M84.3 21.9 Q93.3 21.9 93.3 30.9 L93.3 77.5 Q93.3 86.5 84.3 86.5 L36.3 86.5 Q27.3 86.5 27.3 77.5 L27.3 30.9 Q27.3 21.9 36.3 21.9 L40.9 21.9 40.85 22.4 Q40.85 23.2 41.15 23.9 L36.3 23.9 Q29.3 23.9 29.3 30.9 L29.3 77.5 Q29.3 84.5 36.3 84.5 L84.3 84.5 Q91.3 84.5 91.3 77.5 L91.3 30.9 Q91.3 23.9 84.3 23.9 L79.2 23.9 79.45 22.4 79.45 21.9 84.3 21.9" fill="url(#gradient0)" fill-rule="evenodd" stroke="none"/>
    <path d="M187.1 21.9 Q196.1 21.9 196.1 30.9 L196.1 77.5 Q196.1 86.5 187.1 86.5 L139.1 86.5 Q130.1 86.5 130.1 77.5 L130.1 30.9 Q130.1 21.9 139.1 21.9 L141.0 21.9 Q141.05 22.9 141.4 23.9 L139.1 23.9 Q132.1 23.9 132.1 30.9 L132.1 77.5 Q132.1 84.5 139.1 84.5 L187.1 84.5 Q194.1 84.5 194.1 77.5 L194.1 30.9 Q194.1 23.9 187.1 23.9 L183.8 23.9 184.2 21.9 187.1 21.9" fill="url(#gradient1)" fill-rule="evenodd" stroke="none"/>
    <path d="M295.7 31.2 Q295.7 24.2 288.7 24.2 L275.1 24.2 275.1 24.1 275.15 24.0 275.5 22.85 275.5 22.75 275.6 22.2 288.7 22.2 Q297.7 22.2 297.7 31.2 L297.7 77.8 Q297.7 86.8 288.7 86.8 L240.7 86.8 Q231.7 86.8 231.7 77.8 L231.7 31.2 Q231.7 22.2 240.7 22.2 L250.0 22.2 250.45 22.95 251.35 23.5 252.0 24.2 240.7 24.2 Q233.7 24.2 233.7 31.2 L233.7 77.8 Q233.7 84.8 240.7 84.8 L288.7 84.8 Q295.7 84.8 295.7 77.8 L295.7 31.2" fill="url(#gradient2)" fill-rule="evenodd" stroke="none"/>
    <path d="M385.2 15.65 L385.3 16.35 384.9 16.9 378.85 20.75 379.3 27.6 379.1 28.3 378.45 28.6 377.8 28.4 372.45 24.1 366.05 26.55 365.35 26.5 364.85 26.0 Q364.7 25.65 364.85 25.3 L367.45 18.95 362.9 13.4 Q362.65 13.1 362.7 12.7 362.7 12.35 363.0 12.1 363.3 11.85 363.65 11.9 L370.55 12.3 374.35 6.55 Q374.6 6.2 374.95 6.15 L375.35 6.15 375.65 6.25 376.1 6.8 377.9 13.5 384.6 15.25 Q385.0 15.3 385.2 15.65" fill="#514a3c" fill-rule="evenodd" stroke="none"/>
    <path d="M353.4 19.35 L353.7 19.05 357.55 17.4 358.05 13.25 358.25 12.85 Q358.3 12.75 358.4 12.75 L358.65 12.7 359.05 12.9 361.85 16.0 363.45 15.65 365.35 18.0 364.35 19.7 365.4 21.45 364.4 23.8 361.8 23.25 359.0 26.3 358.6 26.5 358.2 26.35 358.0 26.0 357.65 21.85 353.7 20.1 353.4 19.8 353.4 19.35" fill="#514a3c" fill-rule="evenodd" stroke="none"/>
    <path d="M352.35 22.65 L352.7 22.65 354.55 23.6 356.35 22.45 356.6 22.45 356.7 22.5 356.75 22.9 356.4 24.9 356.95 25.35 357.0 26.1 357.3 26.85 355.8 27.0 355.05 29.0 354.85 29.1 354.7 29.1 354.5 29.0 353.6 27.1 351.45 26.95 351.25 26.85 351.15 26.7 351.25 26.45 352.75 25.0 352.3 23.0 352.3 22.8 352.35 22.65" fill="#514a3c" fill-rule="evenodd" stroke="none"/>
    <path d="M351.45 22.5 Q351.25 22.85 351.35 23.25 L351.55 24.2 343.1 24.2 Q336.1 24.2 336.1 31.2 L336.1 77.8 Q336.1 84.8 343.1 84.8 L391.1 84.8 Q398.1 84.8 398.1 77.8 L398.1 31.2 Q398.1 24.2 391.1 24.2 L380.1 24.2 380.0 22.2 391.1 22.2 Q400.1 22.2 400.1 31.2 L400.1 77.8 Q400.1 86.8 391.1 86.8 L343.1 86.8 Q334.1 86.8 334.1 77.8 L334.1 31.2 Q334.1 22.2 343.1 22.2 L351.45 22.2 351.45 22.5" fill="url(#gradient3)" fill-rule="evenodd" stroke="none"/>
    <path d="M351.45 22.5 L351.45 22.2 351.7 22.2 351.45 22.5" fill="#514a3c" fill-rule="evenodd" stroke="none"/>
  </g>
  <defs>
    <linearGradient gradientTransform="matrix(0.0, 0.019, -0.0403, 0.0, 61.1, 69.7)" gradientUnits="userSpaceOnUse" id="gradient0" spreadMethod="pad" x1="-819.2" x2="819.2">
      <stop offset="0.0" stop-color="#514a3c"/>
      <stop offset="1.0" stop-color="#b0a789"/>
    </linearGradient>
    <linearGradient gradientTransform="matrix(0.0, 0.019, -0.0403, 0.0, 61.1, 69.7)" gradientUnits="userSpaceOnUse" id="gradient1" spreadMethod="pad" x1="-819.2" x2="819.2">
      <stop offset="0.0" stop-color="#514a3c"/>
      <stop offset="1.0" stop-color="#b0a789"/>
    </linearGradient>
    <linearGradient gradientTransform="matrix(0.0, 0.019, -0.0403, 0.0, 61.1, 69.7)" gradientUnits="userSpaceOnUse" id="gradient2" spreadMethod="pad" x1="-819.2" x2="819.2">
      <stop offset="0.0" stop-color="#514a3c"/>
      <stop offset="1.0" stop-color="#b0a789"/>
    </linearGradient>
    <linearGradient gradientTransform="matrix(0.0, 0.019, -0.0403, 0.0, 61.1, 69.7)" gradientUnits="userSpaceOnUse" id="gradient3" spreadMethod="pad" x1="-819.2" x2="819.2">
      <stop offset="0.0" stop-color="#514a3c"/>
      <stop offset="1.0" stop-color="#b0a789"/>
    </linearGradient>
  </defs>
</svg>
