<?xml version="1.0" encoding="UTF-8" standalone="no"?>
<svg xmlns:ffdec="https://www.free-decompiler.com/flash" xmlns:xlink="http://www.w3.org/1999/xlink" ffdec:objectType="shape" height="24.7px" width="40.0px" xmlns="http://www.w3.org/2000/svg">
  <g transform="matrix(1.0, 0.0, 0.0, 1.0, 0.0, 0.0)">
    <path d="M39.6 4.5 L39.9 5.95 40.0 7.45 39.9 7.95 Q38.9 12.7 35.35 12.8 L34.65 12.7 31.8 12.7 Q31.45 13.55 30.15 13.55 L30.1 13.55 Q29.75 15.65 28.6 17.45 L28.5 17.55 28.3 17.85 28.0 18.2 27.4 18.85 27.15 19.1 25.95 20.2 26.25 23.2 26.2 23.4 26.1 23.6 25.95 23.75 25.8 23.75 25.45 23.65 23.25 22.15 22.25 24.4 22.0 24.6 21.85 24.7 21.7 24.7 21.35 24.45 20.2 22.75 19.95 22.45 18.6 24.45 18.35 24.7 18.25 24.7 18.2 24.7 17.95 24.6 17.7 24.4 16.65 22.15 14.55 23.65 14.2 23.75 13.9 23.65 13.85 23.6 13.8 23.4 13.75 23.2 14.05 20.2 12.75 19.1 11.45 17.55 11.4 17.45 10.4 15.45 9.9 13.6 9.9 13.55 8.85 13.35 8.2 12.7 5.4 12.7 4.65 12.8 Q1.0 12.7 0.0 7.45 0.0 5.8 0.45 4.45 2.7 10.1 7.2 9.05 L7.25 8.9 Q7.65 7.0 8.9 5.7 L9.8 5.7 9.55 6.15 8.85 7.65 Q8.55 8.45 8.4 9.3 9.25 10.0 9.45 9.65 L10.15 7.8 Q10.65 6.35 12.1 4.95 L12.45 5.0 11.55 6.1 Q10.05 8.2 9.85 10.75 10.2 12.7 21.55 12.15 29.3 11.2 24.4 2.6 25.95 3.35 27.15 4.65 L27.6 5.1 28.0 5.0 Q29.45 6.4 29.95 7.8 L30.65 9.65 Q30.85 10.0 31.7 9.3 31.3 7.65 30.5 6.15 L30.25 5.7 31.15 5.7 Q32.4 7.0 32.85 8.9 L32.85 9.05 Q37.4 10.1 39.6 4.5 M28.65 15.15 L28.65 14.8 20.3 14.8 20.25 15.15 20.25 15.45 Q20.3 16.55 20.95 17.45 L21.5 18.1 Q22.75 19.35 24.45 19.35 26.2 19.35 27.4 18.1 L28.0 17.45 28.3 16.85 Q28.65 16.1 28.65 15.15 M21.15 20.5 L21.1 20.3 20.45 18.9 20.2 18.65 20.0 18.65 19.85 18.65 19.65 18.9 18.95 20.3 18.9 20.5 19.0 20.7 19.25 20.8 20.0 20.05 20.05 19.85 Q20.05 20.35 20.7 20.85 L20.85 20.8 21.1 20.7 21.15 20.5 M18.5 18.1 L19.0 17.45 Q19.65 16.55 19.7 15.45 L19.7 15.15 19.7 14.8 11.35 14.8 11.3 15.15 11.3 15.45 Q11.35 16.55 12.0 17.45 L12.55 18.1 Q13.8 19.35 15.5 19.35 17.25 19.35 18.5 18.1" fill="#404040" fill-rule="evenodd" stroke="none"/>
    <path d="M28.65 15.15 Q28.65 16.1 28.3 16.85 L28.0 17.45 27.4 18.1 Q26.2 19.35 24.45 19.35 22.75 19.35 21.5 18.1 L20.95 17.45 Q20.3 16.55 20.25 15.45 L20.25 15.15 20.3 14.8 28.65 14.8 28.65 15.15 M21.15 20.5 L21.1 20.7 20.85 20.8 20.7 20.85 Q20.05 20.35 20.05 19.85 L20.0 20.05 19.25 20.8 19.0 20.7 18.9 20.5 18.95 20.3 19.65 18.9 19.85 18.65 20.0 18.65 20.2 18.65 20.45 18.9 21.1 20.3 21.15 20.5 M18.5 18.1 Q17.25 19.35 15.5 19.35 13.8 19.35 12.55 18.1 L12.0 17.45 Q11.35 16.55 11.3 15.45 L11.3 15.15 11.35 14.8 19.7 14.8 19.7 15.15 19.7 15.45 Q19.65 16.55 19.0 17.45 L18.5 18.1" fill="#1d0c05" fill-rule="evenodd" stroke="none"/>
    <path d="M18.2 5.35 Q18.2 5.95 17.65 6.4 17.05 6.8 16.2 6.8 15.4 6.8 14.85 6.4 14.25 5.95 14.25 5.35 14.25 4.75 14.85 4.35 15.4 3.9 16.2 3.9 17.05 3.9 17.65 4.35 18.2 4.75 18.2 5.35" fill="#cccccc" fill-rule="evenodd" stroke="none"/>
    <path d="M0.45 4.45 Q1.3 1.55 4.0 0.0 4.25 2.1 4.9 3.4 5.45 4.4 6.2 5.0 6.9 5.55 7.85 5.7 L8.9 5.7 Q7.65 7.0 7.25 8.9 L7.2 9.05 Q2.7 10.1 0.45 4.45 M9.8 5.7 L9.95 5.45 10.1 5.25 10.25 5.0 12.1 4.95 Q10.65 6.35 10.15 7.8 L9.45 9.65 Q9.25 10.0 8.4 9.3 8.55 8.45 8.85 7.65 L9.55 6.15 9.8 5.7 M12.45 5.0 L12.75 4.65 Q14.8 2.6 17.4 2.0 L19.95 1.7 22.6 2.0 24.4 2.6 Q29.3 11.2 21.55 12.15 10.2 12.7 9.85 10.75 10.05 8.2 11.55 6.1 L12.45 5.0 M28.0 5.0 Q29.4 4.65 29.85 5.0 L30.0 5.25 30.1 5.45 30.25 5.7 30.5 6.15 Q31.3 7.65 31.7 9.3 30.85 10.0 30.65 9.65 L29.95 7.8 Q29.45 6.4 28.0 5.0 M31.15 5.7 L32.15 5.7 Q33.1 5.55 33.85 5.0 34.6 4.4 35.15 3.4 35.75 2.1 36.0 0.0 38.75 1.55 39.6 4.5 37.4 10.1 32.85 9.05 L32.85 8.9 Q32.4 7.0 31.15 5.7 M18.2 5.35 Q18.2 4.75 17.65 4.35 17.05 3.9 16.2 3.9 15.4 3.9 14.85 4.35 14.25 4.75 14.25 5.35 14.25 5.95 14.85 6.4 15.4 6.8 16.2 6.8 17.05 6.8 17.65 6.4 18.2 5.95 18.2 5.35" fill="#999999" fill-rule="evenodd" stroke="none"/>
  </g>
</svg>
