<?xml version="1.0" encoding="UTF-8" standalone="no"?>
<svg xmlns:ffdec="https://www.free-decompiler.com/flash" xmlns:xlink="http://www.w3.org/1999/xlink" ffdec:objectType="shape" height="18.0px" width="18.0px" xmlns="http://www.w3.org/2000/svg">
  <g transform="matrix(1.0, 0.0, 0.0, 1.0, 0.5, 0.5)">
    <path d="M17.0 15.0 Q17.0 17.0 15.0 17.0 L2.0 17.0 Q0.0 17.0 0.0 15.0 L0.0 2.0 Q0.0 0.0 2.0 0.0 L15.0 0.0 Q17.0 0.0 17.0 2.0 L17.0 15.0" fill="#e3e0ca" fill-opacity="0.29803923" fill-rule="evenodd" stroke="none"/>
    <path d="M17.0 15.0 L17.0 2.0 Q17.0 0.0 15.0 0.0 L2.0 0.0 Q0.0 0.0 0.0 2.0 L0.0 15.0 Q0.0 17.0 2.0 17.0 L15.0 17.0 Q17.0 17.0 17.0 15.0 Z" fill="none" stroke="#93866c" stroke-linecap="butt" stroke-linejoin="miter-clip" stroke-miterlimit="3.0" stroke-opacity="0.3019608" stroke-width="1.0"/>
  </g>
</svg>
