<?xml version="1.0" encoding="UTF-8" standalone="no"?>
<svg xmlns:ffdec="https://www.free-decompiler.com/flash" xmlns:xlink="http://www.w3.org/1999/xlink" ffdec:objectType="shape" height="53.0px" width="68.0px" xmlns="http://www.w3.org/2000/svg">
  <g transform="matrix(1.0, 0.0, 0.0, 1.0, 0.0, 0.0)">
    <path d="M0.0 7.6 Q0.0 0.0 7.6 0.0 L68.0 0.0 68.0 53.0 7.6 53.0 Q0.0 53.0 0.0 45.45 L0.0 7.6" fill="#bfb5ac" fill-rule="evenodd" stroke="none"/>
    <path d="M68.0 0.65 L68.0 5.65 8.0 5.65 Q1.35 5.65 1.2 12.15 L1.2 7.45 Q1.2 0.65 8.0 0.65 L68.0 0.65" fill="url(#gradient0)" fill-rule="evenodd" stroke="none"/>
    <path d="M54.05 33.75 Q60.7 33.95 68.0 31.6 L68.0 51.55 8.0 51.55 Q1.2 51.55 1.2 44.75 L1.2 30.9 Q1.3 27.95 5.25 26.05 8.65 24.4 12.2 24.5 20.95 24.7 27.4 26.1 33.1 27.45 40.2 30.55 47.1 33.5 54.05 33.75" fill="url(#gradient1)" fill-rule="evenodd" stroke="none"/>
    <path d="M52.5 22.15 L52.6 20.15 51.9 15.45 Q51.55 14.1 50.4 14.05 49.3 14.05 48.8 15.25 L47.8 17.35 47.8 17.4 47.1 18.35 45.5 18.7 44.65 18.7 44.85 17.7 Q44.85 16.3 43.7 15.3 42.55 14.35 40.95 14.35 39.4 14.35 38.25 15.3 L38.05 15.45 Q37.8 14.45 37.0 13.65 35.95 12.75 34.75 12.7 L34.5 12.75 34.2 12.65 34.05 12.65 Q32.6 12.7 31.5 13.65 30.6 14.4 30.45 15.4 L30.3 15.3 Q29.1 14.35 27.55 14.35 25.95 14.35 24.8 15.3 23.65 16.3 23.65 17.7 L23.85 18.7 23.0 18.7 21.4 18.35 20.65 17.35 19.75 15.3 Q19.3 14.05 18.1 14.05 17.0 14.1 16.6 15.4 L16.5 15.45 15.9 20.15 Q15.75 21.25 16.0 22.15 16.15 23.1 16.9 23.8 17.85 24.9 19.6 25.15 L19.4 25.25 19.4 25.3 Q18.45 26.1 18.3 27.3 L18.25 27.6 18.55 28.9 19.4 30.1 Q20.4 30.9 21.75 31.0 21.1 31.85 21.1 32.95 L21.3 34.2 22.2 35.35 Q23.1 36.1 24.4 36.3 L24.4 37.75 Q24.4 39.0 25.45 39.95 26.55 40.85 28.0 40.85 29.4 40.85 30.5 39.95 31.5 39.0 31.5 37.75 L31.5 36.75 34.2 36.95 34.45 36.9 34.75 36.95 36.9 36.75 36.9 37.75 Q36.9 39.0 38.05 39.95 39.0 40.85 40.5 40.85 41.95 40.85 43.05 39.95 44.1 39.05 44.1 37.75 L44.1 36.3 Q45.4 36.1 46.35 35.35 L47.25 34.2 47.5 33.4 47.5 32.95 Q47.5 31.85 46.75 31.0 48.1 30.9 49.05 30.1 L50.0 28.9 50.25 27.6 50.25 27.25 Q50.05 26.1 49.05 25.3 L48.9 25.2 48.9 25.15 Q50.6 24.9 51.55 23.8 L51.6 23.8 Q52.3 23.1 52.5 22.15 M20.6 14.95 L21.5 16.95 21.9 17.65 22.75 17.8 22.75 17.7 Q22.75 15.9 24.2 14.65 25.6 13.35 27.55 13.35 28.9 13.35 30.0 14.05 L31.0 12.95 Q31.95 12.1 33.15 11.85 L34.0 11.75 34.2 11.8 34.45 11.75 34.5 11.75 Q36.25 11.8 37.6 12.95 L37.65 12.95 38.5 13.95 Q39.55 13.35 40.95 13.35 42.9 13.35 44.25 14.65 L44.3 14.7 Q45.75 15.95 45.75 17.7 L45.75 17.8 46.6 17.55 46.95 17.1 46.95 16.95 47.9 15.05 47.95 14.85 Q48.7 13.05 50.4 13.15 L50.5 13.15 Q52.35 13.15 52.8 15.3 L52.8 15.4 53.5 20.1 Q53.9 22.8 52.35 24.45 L50.6 25.65 Q51.15 26.5 51.15 27.6 51.15 29.4 49.7 30.75 L49.65 30.85 48.2 31.65 48.4 32.95 Q48.4 34.65 46.95 36.05 L46.95 36.1 45.0 37.05 45.0 37.75 Q45.0 39.45 43.65 40.75 42.3 41.75 40.5 41.75 38.65 41.75 37.45 40.65 36.0 39.4 36.0 37.85 L32.4 37.85 Q32.4 39.4 31.15 40.65 L31.1 40.75 Q29.8 41.75 28.0 41.75 26.2 41.75 24.9 40.75 L24.85 40.65 Q23.4 39.4 23.4 37.75 L23.4 37.05 21.6 36.05 Q20.2 34.65 20.2 32.95 20.2 32.2 20.35 31.65 L18.85 30.85 18.8 30.75 Q17.35 29.4 17.35 27.6 17.35 26.5 17.9 25.65 L16.2 24.45 Q14.6 22.8 14.95 20.1 L14.95 20.05 15.6 15.4 15.75 15.0 Q16.4 13.15 18.0 13.15 L18.1 13.15 Q19.9 13.05 20.6 14.85 L20.55 14.85 20.6 14.95 M41.7 27.15 L41.6 26.1 41.55 25.85 41.0 24.35 Q40.4 23.45 39.55 23.4 38.9 23.5 38.35 24.35 L38.2 24.55 Q37.6 25.35 37.5 26.5 L37.6 28.05 Q37.7 29.15 38.3 30.05 L38.4 30.15 Q38.95 30.9 39.55 30.95 L39.7 30.95 Q40.4 30.9 41.0 30.05 L41.0 30.1 Q41.7 28.9 41.7 27.15 M36.7 28.2 L36.6 26.45 Q36.75 24.9 37.5 23.8 L37.6 23.8 Q38.5 22.5 39.5 22.45 40.75 22.5 41.7 23.8 L42.45 25.65 42.5 25.65 42.7 27.15 42.6 28.05 41.7 30.6 Q40.8 31.8 39.75 31.85 L39.5 31.85 Q38.5 31.85 37.5 30.6 L37.5 30.55 Q36.85 29.55 36.7 28.2 M25.95 28.0 L25.9 27.0 26.0 25.65 26.7 23.75 Q27.7 22.5 28.9 22.45 30.15 22.45 31.05 23.8 31.8 24.9 31.95 26.45 L31.95 28.2 31.8 28.85 31.05 30.6 Q30.15 31.8 28.95 31.85 L28.9 31.85 Q27.7 31.85 26.7 30.55 26.05 29.45 25.95 28.0 M30.3 24.35 Q29.65 23.4 28.9 23.4 28.15 23.45 27.5 24.35 L26.9 25.9 26.9 26.1 26.8 27.0 26.8 27.15 Q26.8 28.85 27.5 30.1 28.15 30.9 28.9 30.95 L28.95 30.95 30.3 30.1 Q31.05 28.9 31.05 27.15 L31.05 26.5 Q30.9 25.25 30.3 24.35" fill="url(#gradient2)" fill-rule="evenodd" stroke="none"/>
    <path d="M16.0 22.15 Q15.75 21.25 15.9 20.15 L16.5 15.45 16.6 15.4 Q17.0 14.1 18.1 14.05 19.3 14.05 19.75 15.3 L20.65 17.35 21.4 18.35 23.0 18.7 23.85 18.7 23.65 17.7 Q23.65 16.3 24.8 15.3 25.95 14.35 27.55 14.35 29.1 14.35 30.3 15.3 L30.45 15.4 Q30.6 14.4 31.5 13.65 32.6 12.7 34.05 12.65 L34.2 12.65 34.5 12.75 34.75 12.7 Q35.95 12.75 37.0 13.65 37.8 14.45 38.05 15.45 L38.25 15.3 Q39.4 14.35 40.95 14.35 42.55 14.35 43.7 15.3 44.85 16.3 44.85 17.7 L44.65 18.7 45.5 18.7 47.1 18.35 47.8 17.4 47.8 17.35 48.8 15.25 Q49.3 14.05 50.4 14.05 51.55 14.1 51.9 15.45 L52.6 20.15 52.5 22.15 51.9 18.0 51.9 17.95 Q51.55 16.55 50.4 16.5 49.3 16.5 48.8 17.7 L47.8 19.8 47.8 19.85 47.1 20.85 45.5 21.15 44.65 21.15 44.85 20.15 44.65 19.25 Q44.4 18.4 43.7 17.8 42.55 16.8 40.95 16.8 39.4 16.8 38.25 17.75 L38.25 17.8 38.05 17.95 Q37.8 16.9 37.0 16.15 35.95 15.3 34.75 15.15 L34.5 15.25 34.2 15.1 34.05 15.1 Q32.6 15.15 31.5 16.15 30.6 16.85 30.45 17.8 L30.3 17.8 Q29.1 16.8 27.55 16.8 25.95 16.8 24.8 17.8 24.15 18.35 23.85 19.15 L23.65 20.15 23.85 21.15 23.0 21.15 21.4 20.85 20.65 19.8 19.75 17.75 Q19.3 16.5 18.1 16.5 17.0 16.55 16.6 17.85 L16.5 18.0 16.0 22.15 M49.05 25.3 Q50.05 26.1 50.25 27.25 L50.25 27.6 50.0 28.9 49.05 27.75 48.9 27.6 48.9 25.3 49.05 25.3 M46.75 31.0 Q47.5 31.85 47.5 32.95 L47.5 33.4 47.25 34.2 46.75 33.45 46.75 31.0 M21.3 34.2 L21.1 32.95 Q21.1 31.85 21.75 31.0 L21.75 33.45 21.3 34.2 M18.55 28.9 L18.25 27.6 18.3 27.3 Q18.45 26.1 19.4 25.3 L19.6 25.3 19.4 27.75 Q18.8 28.25 18.55 28.9 M42.6 28.05 L42.7 28.85 Q42.7 30.9 41.7 32.25 40.8 33.45 39.75 33.6 L39.5 33.6 Q38.5 33.55 37.5 32.25 L37.5 32.2 Q36.85 31.25 36.7 29.85 L36.6 28.2 36.7 28.2 Q36.85 29.55 37.5 30.55 L37.5 30.6 Q38.5 31.85 39.5 31.85 L39.75 31.85 Q40.8 31.8 41.7 30.6 L42.6 28.05 M31.95 28.85 Q31.95 30.9 31.05 32.25 30.15 33.45 28.95 33.6 L28.9 33.6 Q27.7 33.55 26.7 32.2 25.9 30.85 25.9 28.85 L25.95 28.0 Q26.05 29.45 26.7 30.55 27.7 31.85 28.9 31.85 L28.95 31.85 Q30.15 31.8 31.05 30.6 L31.8 28.85 31.95 28.85" fill="#9b3206" fill-rule="evenodd" stroke="none"/>
    <path d="M52.5 22.15 Q52.3 23.1 51.6 23.8 L51.55 23.8 Q50.6 24.9 48.9 25.15 L48.9 25.2 49.05 25.3 48.9 25.3 48.9 27.6 49.05 27.75 50.0 28.9 49.05 30.1 Q48.1 30.9 46.75 31.0 L46.75 33.45 47.25 34.2 46.35 35.35 Q45.4 36.1 44.1 36.3 L44.1 37.75 Q44.1 39.05 43.05 39.95 41.95 40.85 40.5 40.85 39.0 40.85 38.05 39.95 36.9 39.0 36.9 37.75 L36.9 36.75 34.75 36.95 34.45 36.9 34.2 36.95 31.5 36.75 31.5 37.75 Q31.5 39.0 30.5 39.95 29.4 40.85 28.0 40.85 26.55 40.85 25.45 39.95 24.4 39.0 24.4 37.75 L24.4 36.3 Q23.1 36.1 22.2 35.35 L21.3 34.2 21.75 33.45 21.75 31.0 Q20.4 30.9 19.4 30.1 L18.55 28.9 Q18.8 28.25 19.4 27.75 L19.6 25.3 19.6 25.15 Q17.85 24.9 16.9 23.8 16.15 23.1 16.0 22.15 L16.5 18.0 16.6 17.85 Q17.0 16.55 18.1 16.5 19.3 16.5 19.75 17.75 L20.65 19.8 21.4 20.85 23.0 21.15 23.85 21.15 23.65 20.15 23.85 19.15 Q24.15 18.35 24.8 17.8 25.95 16.8 27.55 16.8 29.1 16.8 30.3 17.8 L30.45 17.8 Q30.6 16.85 31.5 16.15 32.6 15.15 34.05 15.1 L34.2 15.1 34.5 15.25 34.75 15.15 Q35.95 15.3 37.0 16.15 37.8 16.9 38.05 17.95 L38.25 17.8 38.25 17.75 Q39.4 16.8 40.95 16.8 42.55 16.8 43.7 17.8 44.4 18.4 44.65 19.25 L44.85 20.15 44.65 21.15 45.5 21.15 47.1 20.85 47.8 19.85 47.8 19.8 48.8 17.7 Q49.3 16.5 50.4 16.5 51.55 16.55 51.9 17.95 L51.9 18.0 52.5 22.15 M42.6 28.05 L42.7 27.15 42.5 25.65 42.45 25.65 41.7 23.8 Q40.75 22.5 39.5 22.45 38.5 22.5 37.6 23.8 L37.5 23.8 Q36.75 24.9 36.6 26.45 L36.7 28.2 36.6 28.2 36.7 29.85 Q36.85 31.25 37.5 32.2 L37.5 32.25 Q38.5 33.55 39.5 33.6 L39.75 33.6 Q40.8 33.45 41.7 32.25 42.7 30.9 42.7 28.85 L42.6 28.05 M31.95 28.2 L31.95 26.45 Q31.8 24.9 31.05 23.8 30.15 22.45 28.9 22.45 27.7 22.5 26.7 23.75 L26.0 25.65 25.9 27.0 25.95 28.0 25.9 28.85 Q25.9 30.85 26.7 32.2 27.7 33.55 28.9 33.6 L28.95 33.6 Q30.15 33.45 31.05 32.25 31.95 30.9 31.95 28.85 L31.95 28.2" fill="url(#gradient3)" fill-rule="evenodd" stroke="none"/>
    <path d="M20.6 14.95 L20.55 14.85 20.6 14.85 20.6 14.95" fill="url(#gradient4)" fill-rule="evenodd" stroke="none"/>
    <path d="M19.4 25.3 L19.4 25.25 19.6 25.15 19.6 25.3 19.4 25.3 M31.95 28.2 L31.95 28.85 31.8 28.85 31.95 28.2" fill="#521b03" fill-rule="evenodd" stroke="none"/>
  </g>
  <defs>
    <linearGradient gradientTransform="matrix(0.0433, 8.0E-4, -1.0E-4, 0.0077, 40.45, 6.45)" gradientUnits="userSpaceOnUse" id="gradient0" spreadMethod="pad" x1="-819.2" x2="819.2">
      <stop offset="0.0" stop-color="#ffffff" stop-opacity="0.3019608"/>
      <stop offset="1.0" stop-color="#ffffff" stop-opacity="0.0"/>
    </linearGradient>
    <linearGradient gradientTransform="matrix(0.0, -0.0241, 0.041, 0.0, 34.8, 29.9)" gradientUnits="userSpaceOnUse" id="gradient1" spreadMethod="pad" x1="-819.2" x2="819.2">
      <stop offset="0.0" stop-color="#000000" stop-opacity="0.15294118"/>
      <stop offset="1.0" stop-color="#000000" stop-opacity="0.0"/>
    </linearGradient>
    <linearGradient gradientTransform="matrix(0.0, 0.0196, -0.0236, 0.0, 34.75, 32.7)" gradientUnits="userSpaceOnUse" id="gradient2" spreadMethod="pad" x1="-819.2" x2="819.2">
      <stop offset="0.0" stop-color="#ffffff" stop-opacity="0.0"/>
      <stop offset="1.0" stop-color="#ffffff" stop-opacity="0.4"/>
    </linearGradient>
    <linearGradient color-interpolation="linearRGB" gradientTransform="matrix(0.0, 0.0262, -0.0262, 0.0, 117.75, 35.25)" gradientUnits="userSpaceOnUse" id="gradient3" spreadMethod="pad" x1="-819.2" x2="819.2">
      <stop offset="0.0" stop-color="#f99533"/>
      <stop offset="1.0" stop-color="#f7541e"/>
    </linearGradient>
    <linearGradient gradientTransform="matrix(0.0, 0.0208, -0.0236, 0.0, 34.3, 31.6)" gradientUnits="userSpaceOnUse" id="gradient4" spreadMethod="pad" x1="-819.2" x2="819.2">
      <stop offset="0.0" stop-color="#ffffff" stop-opacity="0.0"/>
      <stop offset="1.0" stop-color="#ffffff" stop-opacity="0.4"/>
    </linearGradient>
  </defs>
</svg>
