<?xml version="1.0" encoding="UTF-8" standalone="no"?>
<svg xmlns:ffdec="https://www.free-decompiler.com/flash" xmlns:xlink="http://www.w3.org/1999/xlink" ffdec:objectType="shape" height="177.2px" width="255.85px" xmlns="http://www.w3.org/2000/svg">
  <g transform="matrix(1.0, 0.0, 0.0, 1.0, -290.85, -92.9)">
    <path d="M540.55 92.9 L540.55 110.9 510.0 110.9 510.0 92.9 540.55 92.9 M509.0 138.1 L539.55 138.1 539.55 156.05 509.0 156.05 509.0 138.1 M462.45 223.65 L442.85 223.65 442.85 205.7 462.45 205.7 462.45 223.65 M448.2 229.1 L546.7 229.1 546.4 247.05 447.9 247.05 448.2 229.1 M428.1 252.15 L488.35 252.15 488.35 270.1 428.1 270.1 428.1 252.15 M546.65 224.05 L516.1 224.05 516.1 206.1 546.65 206.1 546.65 224.05 M312.95 202.6 L312.95 220.6 290.85 220.6 290.85 202.6 312.95 202.6" fill="#ffffff" fill-rule="evenodd" stroke="none"/>
  </g>
</svg>
