<?xml version="1.0" encoding="UTF-8" standalone="no"?>
<svg xmlns:ffdec="https://www.free-decompiler.com/flash" xmlns:xlink="http://www.w3.org/1999/xlink" ffdec:objectType="shape" height="53.0px" width="68.0px" xmlns="http://www.w3.org/2000/svg">
  <g transform="matrix(1.0, 0.0, 0.0, 1.0, 0.0, 0.0)">
    <path d="M22.25 53.0 L7.6 53.0 Q0.0 53.0 0.0 45.45 L0.0 7.6 Q0.0 0.0 7.6 0.0 L68.0 0.0 68.0 0.1 22.7 0.1 Q15.0 0.1 15.0 7.65 L15.0 45.45 Q15.0 52.75 22.25 53.0" fill="#ffffff" fill-opacity="0.0" fill-rule="evenodd" stroke="none"/>
    <path d="M22.25 53.0 Q15.0 52.75 15.0 45.45 L15.0 7.65 Q15.0 0.1 22.7 0.1 L68.0 0.1 68.0 53.0 22.25 53.0" fill="#7b6962" fill-rule="evenodd" stroke="none"/>
    <path d="M42.8 26.5 Q48.55 27.8 55.65 30.9 61.8 33.5 68.0 34.0 L68.0 51.85 23.3 51.85 Q16.45 51.85 16.45 45.05 L16.45 31.25 Q16.55 28.3 20.55 26.45 23.95 24.75 27.55 24.85 36.3 25.05 42.8 26.5" fill="url(#gradient0)" fill-rule="evenodd" stroke="none"/>
    <path d="M68.0 0.0 L68.0 52.95 56.9 52.95 56.9 0.0 68.0 0.0" fill="url(#gradient1)" fill-rule="evenodd" stroke="none"/>
    <path d="M57.55 23.0 L57.6 21.35 57.05 17.45 Q56.75 16.3 55.8 16.25 54.85 16.25 54.45 17.25 L53.6 19.0 53.6 19.05 53.05 19.85 51.7 20.15 51.0 20.15 51.15 19.3 Q51.15 18.15 50.2 17.3 49.25 16.5 47.9 16.5 46.6 16.5 45.65 17.3 L45.5 17.45 Q45.3 16.6 44.6 15.95 43.75 15.2 42.75 15.15 L42.55 15.2 42.3 15.1 42.15 15.1 Q40.95 15.15 40.05 15.95 39.3 16.55 39.15 17.4 L39.05 17.3 Q38.05 16.5 36.75 16.5 35.4 16.5 34.45 17.3 33.5 18.15 33.5 19.3 L33.65 20.15 32.95 20.15 31.6 19.85 31.0 19.0 30.25 17.3 Q29.85 16.25 28.85 16.25 27.95 16.3 27.6 17.4 L27.55 17.45 27.05 21.35 Q26.9 22.25 27.1 23.0 27.25 23.8 27.85 24.4 28.65 25.3 30.1 25.5 L29.95 25.6 29.95 25.65 Q29.15 26.3 29.05 27.3 L29.0 27.55 29.25 28.65 29.95 29.65 Q30.8 30.3 31.9 30.4 31.35 31.1 31.35 32.0 L31.4 32.4 31.55 33.05 32.3 34.0 Q33.05 34.65 34.1 34.8 L34.1 36.0 Q34.1 37.05 35.0 37.85 35.9 38.6 37.1 38.6 38.3 38.6 39.2 37.85 40.05 37.05 40.05 36.0 L40.05 35.2 42.3 35.35 42.5 35.3 42.75 35.35 44.55 35.2 44.55 36.0 Q44.55 37.05 45.5 37.85 46.3 38.6 47.55 38.6 48.75 38.6 49.65 37.85 50.55 37.1 50.55 36.0 L50.55 34.8 Q51.6 34.65 52.4 34.0 L53.15 33.05 53.35 32.4 53.35 32.0 Q53.35 31.1 52.75 30.4 53.85 30.3 54.65 29.65 L55.45 28.65 55.65 27.55 55.65 27.25 Q55.5 26.3 54.65 25.65 L54.55 25.55 54.55 25.5 Q55.95 25.3 56.75 24.4 L56.8 24.4 Q57.35 23.8 57.55 23.0 M30.9 16.95 L31.7 18.7 32.05 19.25 32.75 19.4 32.75 19.3 Q32.75 17.8 33.95 16.75 35.1 15.7 36.75 15.7 37.85 15.7 38.8 16.25 L39.6 15.35 Q40.4 14.65 41.4 14.45 L42.1 14.35 42.3 14.4 42.5 14.35 42.55 14.35 Q44.0 14.4 45.1 15.35 L45.15 15.35 45.85 16.2 Q46.75 15.7 47.9 15.7 49.55 15.7 50.65 16.75 L50.7 16.8 Q51.9 17.85 51.9 19.3 L51.9 19.4 52.6 19.2 52.9 18.8 52.9 18.7 53.7 17.1 53.75 16.95 Q54.35 15.45 55.8 15.5 L55.85 15.5 Q57.4 15.5 57.8 17.3 L57.8 17.4 58.35 21.3 Q58.7 23.55 57.4 24.95 L55.95 25.95 Q56.4 26.65 56.4 27.55 56.4 29.05 55.2 30.2 L55.15 30.25 53.95 30.95 54.1 32.0 Q54.1 33.45 52.9 34.6 L52.9 34.65 51.3 35.45 51.3 36.0 Q51.3 37.45 50.15 38.5 49.05 39.35 47.55 39.35 46.0 39.35 45.0 38.45 43.8 37.4 43.8 36.1 L40.8 36.1 Q40.8 37.4 39.75 38.45 L39.7 38.5 Q38.6 39.35 37.1 39.35 35.6 39.35 34.55 38.5 L34.5 38.45 Q33.3 37.4 33.3 36.0 L33.3 35.45 31.8 34.6 Q30.6 33.45 30.6 32.0 30.6 31.4 30.75 30.95 L29.5 30.25 29.45 30.2 Q28.25 29.05 28.25 27.55 28.25 26.65 28.7 25.95 L27.3 24.95 Q25.95 23.55 26.25 21.3 L26.25 21.25 26.8 17.4 26.9 17.05 Q27.45 15.5 28.8 15.5 L28.85 15.5 Q30.35 15.45 30.95 16.95 L30.9 16.95 M44.35 28.05 L44.3 26.6 Q44.4 25.3 45.05 24.4 L45.1 24.4 Q45.85 23.3 46.7 23.25 47.75 23.3 48.55 24.4 L49.15 25.95 49.2 25.95 49.35 27.2 49.3 27.95 48.55 30.05 Q47.8 31.05 46.9 31.1 L46.7 31.1 Q45.85 31.1 45.05 30.05 L45.05 30.0 Q44.5 29.2 44.35 28.05 M48.55 27.2 L48.45 26.3 48.4 26.1 47.95 24.85 Q47.45 24.1 46.75 24.05 46.2 24.15 45.75 24.85 L45.6 25.0 Q45.1 25.7 45.05 26.65 L45.1 27.95 Q45.2 28.85 45.7 29.6 L45.8 29.7 46.75 30.35 46.85 30.35 47.95 29.6 47.95 29.65 Q48.55 28.65 48.55 27.2 M35.4 27.9 L35.35 27.05 35.45 25.95 36.05 24.35 Q36.85 23.3 37.85 23.25 38.9 23.25 39.65 24.4 40.3 25.3 40.4 26.6 L40.4 28.05 39.65 30.05 Q38.9 31.05 37.9 31.1 L37.85 31.1 Q36.85 31.1 36.05 30.0 35.5 29.1 35.4 27.9 M39.65 26.65 Q39.55 25.6 39.05 24.85 38.5 24.05 37.85 24.05 37.25 24.1 36.7 24.85 L36.2 26.15 36.2 26.3 36.1 27.05 36.1 27.2 Q36.1 28.6 36.7 29.65 37.25 30.3 37.85 30.35 L37.9 30.35 39.05 29.65 Q39.65 28.65 39.65 27.2 L39.65 26.65" fill="url(#gradient2)" fill-rule="evenodd" stroke="none"/>
    <path d="M27.1 23.0 Q26.9 22.25 27.05 21.35 L27.55 17.45 27.6 17.4 Q27.95 16.3 28.85 16.25 29.85 16.25 30.25 17.3 L31.0 19.0 31.6 19.85 32.95 20.15 33.65 20.15 33.5 19.3 Q33.5 18.15 34.45 17.3 35.4 16.5 36.75 16.5 38.05 16.5 39.05 17.3 L39.15 17.4 Q39.3 16.55 40.05 15.95 40.95 15.15 42.15 15.1 L42.3 15.1 42.55 15.2 42.75 15.15 Q43.75 15.2 44.6 15.95 45.3 16.6 45.5 17.45 L45.65 17.3 Q46.6 16.5 47.9 16.5 49.25 16.5 50.2 17.3 51.15 18.15 51.15 19.3 L51.0 20.15 51.7 20.15 53.05 19.85 53.6 19.05 53.6 19.0 54.45 17.25 Q54.85 16.25 55.8 16.25 56.75 16.3 57.05 17.45 L57.6 21.35 57.55 23.0 57.05 19.55 57.05 19.5 Q56.75 18.35 55.8 18.3 54.85 18.3 54.45 19.3 L53.6 21.05 53.6 21.1 53.05 21.95 51.7 22.2 51.0 22.2 51.15 21.35 51.0 20.6 Q50.8 19.9 50.2 19.4 49.25 18.55 47.9 18.55 46.6 18.55 45.65 19.35 L45.65 19.4 45.5 19.5 Q45.3 18.65 44.6 18.0 43.75 17.3 42.75 17.2 L42.55 17.25 42.3 17.15 42.15 17.15 Q40.95 17.2 40.05 18.0 39.3 18.6 39.15 19.4 L39.05 19.4 Q38.05 18.55 36.75 18.55 35.4 18.55 34.45 19.4 33.9 19.85 33.65 20.5 33.5 20.9 33.5 21.35 L33.65 22.2 32.95 22.2 31.6 21.95 31.0 21.05 30.25 19.35 Q29.85 18.3 28.85 18.3 27.95 18.35 27.6 19.45 L27.55 19.55 27.1 23.0 M54.65 25.65 Q55.5 26.3 55.65 27.25 L55.65 27.55 55.45 28.65 54.65 27.7 54.55 27.55 54.55 25.65 54.65 25.65 M52.75 30.4 Q53.35 31.1 53.35 32.0 L53.35 32.4 53.15 33.05 52.75 32.45 52.75 30.4 M31.55 33.05 L31.4 32.4 31.35 32.0 Q31.35 31.1 31.9 30.4 L31.9 32.45 31.55 33.05 M29.25 28.65 L29.0 27.55 29.05 27.3 Q29.15 26.3 29.95 25.65 L29.95 25.6 30.1 25.5 29.95 27.7 Q29.45 28.1 29.25 28.65 M49.3 27.95 L49.35 28.6 Q49.35 30.3 48.55 31.45 47.8 32.45 46.9 32.55 L46.7 32.55 Q45.85 32.5 45.05 31.45 L45.05 31.4 Q44.5 30.6 44.35 29.45 L44.3 28.05 44.35 28.05 Q44.5 29.2 45.05 30.0 L45.05 30.05 Q45.85 31.1 46.7 31.1 L46.9 31.1 Q47.8 31.05 48.55 30.05 L49.3 27.95 M40.4 28.05 L40.4 28.6 Q40.4 30.3 39.65 31.45 38.9 32.45 37.9 32.55 L37.85 32.55 Q36.85 32.5 36.05 31.4 35.35 30.25 35.35 28.6 L35.35 28.45 35.4 27.9 Q35.5 29.1 36.05 30.0 36.85 31.1 37.85 31.1 L37.9 31.1 Q38.9 31.05 39.65 30.05 L40.4 28.05" fill="#13100f" fill-rule="evenodd" stroke="none"/>
    <path d="M57.55 23.0 Q57.35 23.8 56.8 24.4 L56.75 24.4 Q55.95 25.3 54.55 25.5 L54.55 25.55 54.65 25.65 54.55 25.65 54.55 27.55 54.65 27.7 55.45 28.65 54.65 29.65 Q53.85 30.3 52.75 30.4 L52.75 32.45 53.15 33.05 52.4 34.0 Q51.6 34.65 50.55 34.8 L50.55 36.0 Q50.55 37.1 49.65 37.85 48.75 38.6 47.55 38.6 46.3 38.6 45.5 37.85 44.55 37.05 44.55 36.0 L44.55 35.2 42.75 35.35 42.5 35.3 42.3 35.35 40.05 35.2 40.05 36.0 Q40.05 37.05 39.2 37.85 38.3 38.6 37.1 38.6 35.9 38.6 35.0 37.85 34.1 37.05 34.1 36.0 L34.1 34.8 Q33.05 34.65 32.3 34.0 L31.55 33.05 31.9 32.45 31.9 30.4 Q30.8 30.3 29.95 29.65 L29.25 28.65 Q29.45 28.1 29.95 27.7 L30.1 25.5 Q28.65 25.3 27.85 24.4 27.25 23.8 27.1 23.0 L27.55 19.55 27.6 19.45 Q27.95 18.35 28.85 18.3 29.85 18.3 30.25 19.35 L31.0 21.05 31.6 21.95 32.95 22.2 33.65 22.2 33.5 21.35 Q33.5 20.9 33.65 20.5 33.9 19.85 34.45 19.4 35.4 18.55 36.75 18.55 38.05 18.55 39.05 19.4 L39.15 19.4 Q39.3 18.6 40.05 18.0 40.95 17.2 42.15 17.15 L42.3 17.15 42.55 17.25 42.75 17.2 Q43.75 17.3 44.6 18.0 45.3 18.65 45.5 19.5 L45.65 19.4 45.65 19.35 Q46.6 18.55 47.9 18.55 49.25 18.55 50.2 19.4 50.8 19.9 51.0 20.6 L51.15 21.35 51.0 22.2 51.7 22.2 53.05 21.95 53.6 21.1 53.6 21.05 54.45 19.3 Q54.85 18.3 55.8 18.3 56.75 18.35 57.05 19.5 L57.05 19.55 57.55 23.0 M49.3 27.95 L49.35 27.2 49.2 25.95 49.15 25.95 48.55 24.4 Q47.75 23.3 46.7 23.25 45.85 23.3 45.1 24.4 L45.05 24.4 Q44.4 25.3 44.3 26.6 L44.35 28.05 44.3 28.05 44.35 29.45 Q44.5 30.6 45.05 31.4 L45.05 31.45 Q45.85 32.5 46.7 32.55 L46.9 32.55 Q47.8 32.45 48.55 31.45 49.35 30.3 49.35 28.6 L49.3 27.95 M40.4 28.05 L40.4 26.6 Q40.3 25.3 39.65 24.4 38.9 23.25 37.85 23.25 36.85 23.3 36.05 24.35 L35.45 25.95 35.35 27.05 35.4 27.9 35.35 28.45 35.35 28.6 Q35.35 30.25 36.05 31.4 36.85 32.5 37.85 32.55 L37.9 32.55 Q38.9 32.45 39.65 31.45 40.4 30.3 40.4 28.6 L40.4 28.05" fill="#322c28" fill-rule="evenodd" stroke="none"/>
    <path d="M30.9 16.95 L30.95 16.95 30.95 17.0 30.9 16.95" fill="url(#gradient3)" fill-rule="evenodd" stroke="none"/>
  </g>
  <defs>
    <linearGradient gradientTransform="matrix(0.0, -0.0241, 0.0413, 0.0, 50.25, 30.25)" gradientUnits="userSpaceOnUse" id="gradient0" spreadMethod="pad" x1="-819.2" x2="819.2">
      <stop offset="0.0" stop-color="#000000" stop-opacity="0.15294118"/>
      <stop offset="1.0" stop-color="#000000" stop-opacity="0.0"/>
    </linearGradient>
    <linearGradient gradientTransform="matrix(-0.0044, 0.0, 0.0, -0.0323, 64.05, 26.5)" gradientUnits="userSpaceOnUse" id="gradient1" spreadMethod="pad" x1="-819.2" x2="819.2">
      <stop offset="0.0" stop-color="#000000" stop-opacity="0.3019608"/>
      <stop offset="1.0" stop-color="#000000" stop-opacity="0.0"/>
    </linearGradient>
    <linearGradient gradientTransform="matrix(0.0, 0.0163, -0.0197, 0.0, 42.75, 31.8)" gradientUnits="userSpaceOnUse" id="gradient2" spreadMethod="pad" x1="-819.2" x2="819.2">
      <stop offset="0.0" stop-color="#ffffff" stop-opacity="0.0"/>
      <stop offset="1.0" stop-color="#ffffff" stop-opacity="0.4"/>
    </linearGradient>
    <linearGradient gradientTransform="matrix(0.0, 0.0173, -0.0197, 0.0, 42.35, 30.9)" gradientUnits="userSpaceOnUse" id="gradient3" spreadMethod="pad" x1="-819.2" x2="819.2">
      <stop offset="0.0" stop-color="#ffffff" stop-opacity="0.0"/>
      <stop offset="1.0" stop-color="#ffffff" stop-opacity="0.4"/>
    </linearGradient>
  </defs>
</svg>
