<?xml version="1.0" encoding="UTF-8" standalone="no"?>
<svg xmlns:ffdec="https://www.free-decompiler.com/flash" xmlns:xlink="http://www.w3.org/1999/xlink" ffdec:objectType="shape" height="53.0px" width="68.0px" xmlns="http://www.w3.org/2000/svg">
  <g transform="matrix(1.0, 0.0, 0.0, 1.0, 0.0, 0.0)">
    <path d="M0.0 45.45 L0.0 7.6 Q0.0 0.0 7.6 0.0 L68.0 0.0 68.0 53.0 7.6 53.0 Q0.0 53.0 0.0 45.45" fill="#bfb5ac" fill-rule="evenodd" stroke="none"/>
    <path d="M68.0 0.65 L68.0 5.65 8.0 5.65 Q1.35 5.65 1.2 12.15 L1.2 7.45 Q1.2 0.65 8.0 0.65 L68.0 0.65" fill="url(#gradient0)" fill-rule="evenodd" stroke="none"/>
    <path d="M54.05 33.75 Q60.7 33.95 68.0 31.6 L68.0 51.55 8.0 51.55 Q1.2 51.55 1.2 44.75 L1.2 30.9 Q1.3 27.95 5.25 26.05 8.65 24.4 12.2 24.5 20.95 24.7 27.4 26.1 33.1 27.45 40.2 30.55 47.1 33.5 54.05 33.75" fill="url(#gradient1)" fill-rule="evenodd" stroke="none"/>
    <path d="M48.35 38.45 L48.3 38.5 48.2 39.05 Q47.2 41.15 44.5 41.4 L44.4 41.4 24.6 41.4 24.45 41.4 Q21.9 41.15 20.9 39.2 L20.75 38.95 20.3 37.35 20.3 37.25 20.3 23.55 Q20.3 23.15 20.55 22.85 20.25 22.55 20.25 22.15 L20.25 19.25 Q20.25 18.9 20.4 18.65 20.85 15.05 24.55 14.8 L25.6 14.8 25.6 13.8 Q25.6 12.75 26.25 12.15 27.0 11.45 27.95 11.45 28.85 11.45 29.6 12.15 30.25 12.75 30.25 13.8 L30.25 14.8 38.75 14.8 38.75 13.8 Q38.75 12.75 39.4 12.15 40.1 11.45 41.0 11.45 42.0 11.45 42.7 12.15 43.35 12.75 43.35 13.8 L43.35 14.8 44.4 14.8 44.5 14.8 Q48.1 15.05 48.65 18.65 L48.7 19.25 48.7 22.15 48.5 22.85 48.7 23.55 48.65 37.25 48.65 37.35 48.5 38.5 48.35 38.45 M37.45 30.65 L39.55 28.1 39.55 27.3 39.55 25.6 29.4 25.6 29.4 27.3 29.4 28.85 35.4 28.85 34.0 30.55 Q33.2 31.7 32.7 32.85 31.8 34.9 31.45 38.1 L31.7 38.1 35.1 38.1 Q35.35 35.8 35.85 34.3 36.4 32.25 37.45 30.65" fill="url(#gradient2)" fill-rule="evenodd" stroke="none"/>
    <path d="M48.35 38.45 L48.5 38.5 48.3 38.95 48.35 38.45" fill="#ff0000" fill-rule="evenodd" stroke="none"/>
    <path d="M42.15 15.55 L41.85 14.75 Q41.45 14.4 41.0 14.4 40.55 14.4 40.2 14.75 39.9 15.05 39.9 15.55 L39.9 13.8 Q39.9 13.3 40.2 13.0 40.55 12.65 41.0 12.65 41.45 12.65 41.85 13.0 L42.15 13.8 42.15 15.55 M43.3 17.75 L43.3 16.0 44.35 16.0 Q47.05 16.2 47.45 18.95 L47.5 19.25 47.5 21.0 47.45 20.7 Q47.05 17.95 44.35 17.75 L43.3 17.75 M41.6 22.15 L40.45 22.15 Q39.9 22.05 39.45 21.6 38.75 20.95 38.75 20.0 L38.75 18.55 Q38.75 19.2 39.45 19.85 L39.95 20.2 41.0 20.45 42.15 20.2 42.6 19.85 Q43.3 19.2 43.3 18.55 L43.3 20.0 Q43.3 20.95 42.6 21.6 L41.6 22.15 M28.5 22.15 L27.4 22.15 Q26.8 22.05 26.3 21.6 25.65 20.95 25.65 20.0 L25.65 18.55 Q25.65 19.2 26.3 19.85 L26.85 20.2 27.95 20.45 29.0 20.2 29.5 19.85 Q30.15 19.2 30.15 18.55 L30.15 20.0 Q30.15 20.95 29.5 21.6 L28.5 22.15 M21.45 21.0 L21.45 19.25 21.5 18.95 Q21.85 16.2 24.55 16.0 L25.65 16.0 25.65 17.75 24.55 17.75 Q21.85 17.95 21.5 20.7 L21.45 21.0 M30.15 17.75 L30.15 16.0 38.75 16.0 38.75 17.75 30.15 17.75 M21.5 25.3 L21.5 23.9 21.5 23.55 35.5 23.55 35.6 23.55 47.5 23.55 47.5 23.9 47.5 25.3 35.6 25.3 35.5 25.3 21.5 25.3 M26.8 15.55 L26.8 13.8 Q26.8 13.3 27.1 13.0 27.45 12.65 27.95 12.65 28.35 12.65 28.7 13.0 L29.0 13.8 29.0 15.55 28.7 14.75 Q28.35 14.4 27.95 14.4 27.45 14.4 27.1 14.75 26.8 15.05 26.8 15.55 M39.55 28.1 L39.55 29.85 37.45 32.4 Q36.35 34.0 35.8 36.05 35.35 37.55 35.1 39.85 L31.4 39.85 31.4 38.1 31.65 38.1 35.1 38.1 Q35.35 35.8 35.8 34.3 36.35 32.25 37.45 30.65 L39.55 28.1 M33.95 30.55 L29.4 30.55 29.4 28.85 35.4 28.85 33.95 30.55" fill="#9b3206" fill-rule="evenodd" stroke="none"/>
    <path d="M39.9 15.55 Q39.9 15.05 40.2 14.75 40.55 14.4 41.0 14.4 41.45 14.4 41.85 14.75 L42.15 15.55 42.15 18.3 41.85 19.0 Q41.45 19.4 41.0 19.4 40.55 19.4 40.2 19.0 39.9 18.7 39.9 18.3 L39.9 15.55 M43.3 17.75 L44.35 17.75 Q47.05 17.95 47.45 20.7 L47.5 21.0 47.5 22.15 41.6 22.15 42.6 21.6 Q43.3 20.95 43.3 20.0 L43.3 18.55 43.3 18.5 43.3 18.45 43.3 18.4 43.3 18.35 43.3 17.75 M40.45 22.15 L28.5 22.15 29.5 21.6 Q30.15 20.95 30.15 20.0 L30.15 18.55 30.15 18.5 30.15 18.45 30.15 18.4 30.15 18.35 30.15 17.75 38.75 17.75 38.75 18.35 38.75 18.4 38.75 18.45 38.75 18.5 38.75 18.55 38.75 20.0 Q38.75 20.95 39.45 21.6 39.9 22.05 40.45 22.15 M27.4 22.15 L21.45 22.15 21.45 21.0 21.5 20.7 Q21.85 17.95 24.55 17.75 L25.65 17.75 25.65 18.35 25.65 18.4 25.65 18.45 25.65 18.5 25.65 18.55 25.65 20.0 Q25.65 20.95 26.3 21.6 26.8 22.05 27.4 22.15 M21.5 25.3 L35.5 25.3 35.6 25.3 47.5 25.3 47.45 37.25 47.15 38.45 47.05 38.5 Q46.35 40.0 44.35 40.2 L24.55 40.2 Q22.6 40.0 21.85 38.5 L21.8 38.45 21.5 37.25 21.5 25.3 M26.8 15.55 Q26.8 15.05 27.1 14.75 27.45 14.4 27.95 14.4 28.35 14.4 28.7 14.75 L29.0 15.55 29.0 18.3 28.7 19.0 Q28.35 19.4 27.95 19.4 27.45 19.4 27.1 19.0 26.8 18.7 26.8 18.3 L26.8 15.55 M31.4 38.1 L31.4 39.85 35.1 39.85 Q35.35 37.55 35.8 36.05 36.35 34.0 37.45 32.4 L39.55 29.85 39.55 28.1 39.55 27.3 39.55 25.6 29.4 25.6 29.4 27.3 29.4 28.85 29.4 30.55 33.95 30.55 Q33.15 31.7 32.7 32.85 31.8 34.9 31.4 38.1" fill="url(#gradient3)" fill-rule="evenodd" stroke="none"/>
  </g>
  <defs>
    <linearGradient gradientTransform="matrix(0.0433, 8.0E-4, -1.0E-4, 0.0077, 40.45, 6.45)" gradientUnits="userSpaceOnUse" id="gradient0" spreadMethod="pad" x1="-819.2" x2="819.2">
      <stop offset="0.0" stop-color="#ffffff" stop-opacity="0.3019608"/>
      <stop offset="1.0" stop-color="#ffffff" stop-opacity="0.0"/>
    </linearGradient>
    <linearGradient gradientTransform="matrix(0.0, -0.0241, 0.041, 0.0, 34.8, 29.9)" gradientUnits="userSpaceOnUse" id="gradient1" spreadMethod="pad" x1="-819.2" x2="819.2">
      <stop offset="0.0" stop-color="#000000" stop-opacity="0.15294118"/>
      <stop offset="1.0" stop-color="#000000" stop-opacity="0.0"/>
    </linearGradient>
    <linearGradient gradientTransform="matrix(0.0, 0.0171, -0.0134, 0.0, -3.65, 28.85)" gradientUnits="userSpaceOnUse" id="gradient2" spreadMethod="pad" x1="-819.2" x2="819.2">
      <stop offset="0.0" stop-color="#ffffff" stop-opacity="0.0"/>
      <stop offset="1.0" stop-color="#ffffff" stop-opacity="0.4"/>
    </linearGradient>
    <linearGradient gradientTransform="matrix(0.0, 0.0244, -0.0244, 0.0, 12.9, 33.05)" gradientUnits="userSpaceOnUse" id="gradient3" spreadMethod="pad" x1="-819.2" x2="819.2">
      <stop offset="0.0" stop-color="#f99533"/>
      <stop offset="1.0" stop-color="#f7541e"/>
    </linearGradient>
  </defs>
</svg>
