<?xml version="1.0" encoding="UTF-8" standalone="no"?>
<svg xmlns:ffdec="https://www.free-decompiler.com/flash" xmlns:xlink="http://www.w3.org/1999/xlink" ffdec:objectType="shape" height="17.65px" width="120.35px" xmlns="http://www.w3.org/2000/svg">
  <g transform="matrix(1.0, 0.0, 0.0, 1.0, 0.0, -0.55)">
    <path d="M0.0 9.1 L0.05 8.65 0.1 10.45 0.0 10.45 0.0 9.1" fill="url(#gradient0)" fill-rule="evenodd" stroke="none"/>
    <path d="M119.85 7.85 L119.85 9.0 119.8 10.45 Q119.5 13.35 117.45 15.35 115.8 16.95 113.65 17.5 L113.5 17.55 113.3 17.6 112.9 17.65 110.5 17.65 109.3 17.65 108.1 17.65 106.45 17.65 94.2 17.7 93.8 17.7 92.65 17.7 92.65 17.2 25.8 17.2 25.8 17.65 25.8 17.7 24.7 17.65 23.6 17.65 7.9 17.65 7.55 17.6 Q5.2 17.1 3.4 15.35 1.6 13.6 1.15 11.2 L1.0 7.85 1.15 7.85 1.2 7.45 Q1.65 5.2 3.4 3.45 5.0 1.85 7.05 1.3 L8.9 1.05 68.0 1.05 68.35 1.05 111.9 1.05 113.75 1.3 Q115.8 1.8 117.45 3.45 119.35 5.35 119.75 7.85 L119.85 7.85 M24.7 17.65 L25.8 17.65 24.7 17.65" fill="#c9bf9d" fill-rule="evenodd" stroke="none"/>
    <path d="M119.85 7.85 L119.85 9.0 119.8 10.45 Q119.5 13.35 117.45 15.35 115.8 16.95 113.65 17.5 L113.5 17.55 113.3 17.6 112.9 17.65 110.5 17.65 109.3 17.65 108.1 17.65 106.45 17.65 94.2 17.7 93.8 17.7 92.65 17.7 25.8 17.65 24.7 17.65 23.6 17.65 7.9 17.65 7.55 17.6 Q5.2 17.1 3.4 15.35 1.6 13.6 1.15 11.2 L1.0 7.85 M1.15 7.85 L1.2 7.45 Q1.65 5.2 3.4 3.45 5.0 1.85 7.05 1.3 L8.9 1.05 68.0 1.05 68.35 1.05 111.9 1.05 113.75 1.3 Q115.8 1.8 117.45 3.45 119.35 5.35 119.75 7.85" fill="none" stroke="#514a3c" stroke-linecap="round" stroke-linejoin="bevel" stroke-width="1.0"/>
  </g>
  <defs>
    <linearGradient gradientTransform="matrix(0.0, -0.3436, 0.5615, 0.0, -1171.9, 0.1)" gradientUnits="userSpaceOnUse" id="gradient0" spreadMethod="pad" x1="-819.2" x2="819.2">
      <stop offset="0.0" stop-color="#ffffff" stop-opacity="0.3019608"/>
      <stop offset="1.0" stop-color="#000000" stop-opacity="0.3019608"/>
    </linearGradient>
  </defs>
</svg>
