<?xml version="1.0" encoding="UTF-8" standalone="no"?>
<svg xmlns:ffdec="https://www.free-decompiler.com/flash" xmlns:xlink="http://www.w3.org/1999/xlink" ffdec:objectType="shape" height="120.5px" width="120.85px" xmlns="http://www.w3.org/2000/svg">
  <g transform="matrix(1.0, 0.0, 0.0, 1.0, 0.0, -2.9)">
    <path d="M65.35 3.25 L66.9 3.25 66.9 2.9 67.1 2.95 111.9 2.95 114.05 3.25 114.0 3.25 Q116.3 3.8 118.15 5.65 120.75 8.25 120.85 11.9 L120.85 114.55 Q120.75 118.25 118.15 120.8 115.95 122.9 113.05 123.35 L92.65 123.4 92.65 122.4 93.8 122.4 94.2 122.4 94.3 122.4 105.3 122.35 106.45 122.35 108.1 122.35 109.3 122.35 110.5 122.35 112.9 122.35 113.3 122.3 113.5 122.25 113.65 122.2 Q115.8 121.65 117.45 120.05 119.75 117.8 119.85 114.5 L119.85 11.9 Q119.75 8.65 117.45 6.35 115.8 4.7 113.75 4.2 L111.9 3.95 68.35 3.95 68.0 3.95 8.9 3.95 7.05 4.2 Q5.0 4.75 3.4 6.35 1.65 8.1 1.2 10.35 L1.0 12.05 1.0 114.4 1.15 115.9 Q1.6 118.3 3.4 120.05 5.2 121.8 7.55 122.3 L7.9 122.35 23.6 122.35 24.7 122.35 25.8 122.4 25.8 123.4 7.75 123.35 Q4.9 122.9 2.7 120.8 0.65 118.8 0.2 116.1 L0.15 116.05 0.0 114.5 0.0 12.0 Q0.05 11.05 0.25 10.2 L0.25 10.15 Q0.75 7.6 2.7 5.65 4.5 3.85 6.8 3.25 L8.9 2.95 54.1 2.95 54.15 2.95 54.15 3.25 55.75 3.25 66.8 3.95 Q65.95 3.7 65.35 3.25" fill="url(#gradient0)" fill-rule="evenodd" stroke="none"/>
    <path d="M65.35 3.25 Q65.95 3.7 66.8 3.95 L55.75 3.25 65.35 3.25 M25.8 122.4 L24.7 122.35 23.6 122.35 7.9 122.35 7.55 122.3 Q5.2 121.8 3.4 120.05 1.6 118.3 1.15 115.9 L1.0 114.4 1.0 12.05 1.2 10.35 Q1.65 8.1 3.4 6.35 5.0 4.75 7.05 4.2 L8.9 3.95 68.0 3.95 68.35 3.95 111.9 3.95 113.75 4.2 Q115.8 4.7 117.45 6.35 119.75 8.65 119.85 11.9 L119.85 114.5 Q119.75 117.8 117.45 120.05 115.8 121.65 113.65 122.2 L113.5 122.25 113.3 122.3 112.9 122.35 110.5 122.35 109.3 122.35 108.1 122.35 106.45 122.35 105.3 122.35 94.3 122.4 94.2 122.4 93.8 122.4 92.65 122.4 92.65 121.9 25.8 121.9 25.8 122.35 25.8 122.4 M24.7 122.35 L25.8 122.35 24.7 122.35" fill="#c9bf9d" fill-rule="evenodd" stroke="none"/>
    <path d="M24.7 122.35 L23.6 122.35 7.9 122.35 7.55 122.3 Q5.2 121.8 3.4 120.05 1.6 118.3 1.15 115.9 L1.0 114.4 1.0 12.05 1.2 10.35 Q1.65 8.1 3.4 6.35 5.0 4.75 7.05 4.2 L8.9 3.95 68.0 3.95 68.35 3.95 111.9 3.95 113.75 4.2 Q115.8 4.7 117.45 6.35 119.75 8.65 119.85 11.9 L119.85 114.5 Q119.75 117.8 117.45 120.05 115.8 121.65 113.65 122.2 L113.5 122.25 113.3 122.3 112.9 122.35 110.5 122.35 109.3 122.35 M25.8 122.35 L24.7 122.35" fill="none" stroke="#514a3c" stroke-linecap="round" stroke-linejoin="bevel" stroke-width="2.0"/>
    <path d="M108.1 122.35 L106.45 122.35" fill="none" stroke="#514a3c" stroke-linecap="round" stroke-linejoin="bevel" stroke-width="2.0"/>
    <path d="M106.45 122.35 L105.3 122.35 94.3 122.4 94.2 122.4 93.8 122.4 92.65 122.4 25.8 122.35" fill="none" stroke="#514a3c" stroke-linecap="butt" stroke-linejoin="bevel" stroke-width="2.0"/>
  </g>
  <defs>
    <linearGradient gradientTransform="matrix(0.0, -0.3436, 0.5615, 0.0, -1171.9, 3.0)" gradientUnits="userSpaceOnUse" id="gradient0" spreadMethod="pad" x1="-819.2" x2="819.2">
      <stop offset="0.0" stop-color="#ffffff" stop-opacity="0.3019608"/>
      <stop offset="1.0" stop-color="#000000" stop-opacity="0.3019608"/>
    </linearGradient>
  </defs>
</svg>
