<?xml version="1.0" encoding="UTF-8" standalone="no"?>
<svg xmlns:ffdec="https://www.free-decompiler.com/flash" xmlns:xlink="http://www.w3.org/1999/xlink" ffdec:objectType="shape" height="30.0px" width="32.0px" xmlns="http://www.w3.org/2000/svg">
  <g transform="matrix(1.0, 0.0, 0.0, 1.0, 1.0, 0.0)">
    <path d="M23.9 9.95 Q23.9 9.05 24.5 8.25 L24.75 7.85 Q25.5 7.1 26.55 7.0 L26.95 6.95 Q28.2 6.95 29.1 7.85 30.0 8.8 30.0 9.95 L29.95 10.6 Q29.8 11.5 29.1 12.2 28.35 12.85 27.45 13.0 L27.15 14.65 25.25 22.2 24.2 26.3 5.65 26.3 4.3 20.35 4.2 20.0 4.05 19.4 2.9 14.55 2.6 13.0 Q1.65 12.85 0.95 12.2 0.25 11.5 0.05 10.6 L0.05 10.5 0.0 9.95 Q0.0 9.3 0.3 8.8 0.5 8.3 0.95 7.85 L2.05 7.15 3.15 6.95 Q3.8 6.95 4.45 7.35 L5.25 7.85 Q6.2 8.8 6.2 9.95 L6.15 10.6 Q5.95 11.5 5.25 12.2 4.75 12.7 4.15 12.85 L4.5 13.95 4.65 14.15 4.85 14.5 6.15 16.15 6.3 16.3 Q7.55 17.15 9.4 16.95 13.2 16.45 13.95 12.6 L13.95 12.15 14.0 11.0 14.2 11.0 Q13.4 10.8 12.8 10.25 12.2 9.55 12.0 8.65 L12.0 8.55 11.95 8.1 Q11.95 7.35 12.3 6.7 12.5 6.25 12.8 5.95 13.2 5.65 13.55 5.45 L13.85 5.3 15.0 5.0 16.15 5.3 16.45 5.45 17.15 5.95 Q18.05 6.8 18.05 8.1 L18.0 8.65 Q17.85 9.55 17.15 10.25 L16.0 11.0 16.1 12.2 16.15 12.55 16.2 12.8 Q16.65 14.9 18.0 15.9 19.05 16.7 20.65 16.95 23.8 17.4 25.3 14.2 L25.45 13.95 25.85 12.9 25.85 12.85 Q25.3 12.7 24.75 12.2 24.15 11.5 23.95 10.6 L23.9 9.95" fill="#331400" fill-rule="evenodd" stroke="none"/>
    <path d="M23.9 9.95 L23.95 10.6 Q24.15 11.5 24.75 12.2 25.3 12.7 25.85 12.85 L25.85 12.9 25.45 13.95 25.3 14.2 Q23.8 17.4 20.65 16.95 19.05 16.7 18.0 15.9 16.65 14.9 16.2 12.8 L16.15 12.55 16.1 12.2 16.0 11.0 17.15 10.25 Q17.85 9.55 18.0 8.65 L18.05 8.1 Q18.05 6.8 17.15 5.95 L16.45 5.45 16.15 5.3 15.0 5.0 13.85 5.3 13.55 5.45 Q13.2 5.65 12.8 5.95 12.5 6.25 12.3 6.7 11.95 7.35 11.95 8.1 L12.0 8.55 12.0 8.65 Q12.2 9.55 12.8 10.25 13.4 10.8 14.2 11.0 L14.0 11.0 13.95 12.15 13.95 12.6 Q13.2 16.45 9.4 16.95 7.55 17.15 6.3 16.3 L6.15 16.15 4.85 14.5 4.65 14.15 4.5 13.95 4.15 12.85 Q4.75 12.7 5.25 12.2 5.95 11.5 6.15 10.6 L6.2 9.95 Q6.2 8.8 5.25 7.85 L4.45 7.35 Q3.8 6.95 3.15 6.95 L2.05 7.15 0.95 7.85 Q0.5 8.3 0.3 8.8 0.0 9.3 0.0 9.95 L0.05 10.5 0.05 10.6 Q0.25 11.5 0.95 12.2 1.65 12.85 2.6 13.0 L2.9 14.55 4.05 19.4 4.2 20.0 4.3 20.35 5.65 26.3 24.2 26.3 25.25 22.2 27.15 14.65 27.45 13.0 Q28.35 12.85 29.1 12.2 29.8 11.5 29.95 10.6 L30.0 9.95 Q30.0 8.8 29.1 7.85 28.2 6.95 26.95 6.95 L26.55 7.0 Q25.5 7.1 24.75 7.85 L24.5 8.25 Q23.9 9.05 23.9 9.95 Z" fill="none" stroke="#3d220d" stroke-linecap="round" stroke-linejoin="bevel" stroke-width="2.0"/>
    <path d="M24.5 8.25 L24.75 7.85 Q25.5 7.1 26.55 7.0 26.55 7.6 26.15 8.05 L25.2 8.4 24.5 8.25 M0.3 8.8 Q0.5 8.3 0.95 7.85 L2.05 7.15 Q2.4 7.2 2.6 7.45 3.0 7.85 3.0 8.45 3.0 9.05 2.6 9.4 2.2 9.8 1.65 9.8 1.05 9.8 0.65 9.4 L0.3 8.8 M6.3 16.3 Q7.55 17.15 9.4 16.95 13.2 16.45 13.95 12.6 L14.25 12.6 14.5 12.65 Q13.7 16.9 9.9 17.3 7.75 17.65 6.3 16.3 M12.3 6.7 Q12.5 6.25 12.8 5.95 L13.85 5.3 14.6 5.1 14.75 5.75 14.4 6.8 13.35 7.15 Q12.75 7.15 12.4 6.8 L12.3 6.7 M18.0 15.9 Q19.05 16.7 20.65 16.95 23.8 17.4 25.3 14.2 L25.7 14.35 Q24.15 17.65 20.95 17.15 19.15 16.95 18.0 15.9" fill="#fff4cc" fill-rule="evenodd" stroke="none"/>
    <path d="M23.9 9.95 Q23.9 9.05 24.5 8.25 L25.2 8.4 26.15 8.05 Q26.55 7.6 26.55 7.0 L26.95 6.95 Q28.2 6.95 29.1 7.85 29.5 9.25 28.05 10.35 25.9 11.6 23.9 9.95 M4.3 20.35 L4.2 20.0 4.05 19.4 2.9 14.55 2.95 14.55 4.65 14.15 4.85 14.5 6.15 16.15 6.3 16.3 Q7.75 17.65 9.9 17.3 13.7 16.9 14.5 12.65 L16.15 12.55 16.2 12.8 Q16.65 14.9 18.0 15.9 19.15 16.95 20.95 17.15 24.15 17.65 25.7 14.35 L26.2 14.5 Q23.6 22.95 4.3 20.35 M0.05 10.5 L0.0 9.95 Q0.0 9.3 0.3 8.8 L0.65 9.4 Q1.05 9.8 1.65 9.8 2.2 9.8 2.6 9.4 3.0 9.05 3.0 8.45 3.0 7.85 2.6 7.45 2.4 7.2 2.05 7.15 L3.15 6.95 Q3.8 6.95 4.45 7.35 5.95 10.35 3.2 11.4 1.4 11.75 0.05 10.5 M12.0 8.55 L11.95 8.1 Q11.95 7.35 12.3 6.7 L12.4 6.8 Q12.75 7.15 13.35 7.15 L14.4 6.8 14.75 5.75 14.6 5.1 15.0 5.0 16.15 5.3 17.15 5.95 Q17.4 8.85 15.2 9.5 L15.2 9.55 Q13.0 10.0 12.0 8.55" fill="#fec344" fill-rule="evenodd" stroke="none"/>
    <path d="M25.3 14.2 L25.45 13.95 25.85 12.9 25.85 12.85 Q25.3 12.7 24.75 12.2 24.15 11.5 23.95 10.6 L23.9 9.95 Q25.9 11.6 28.05 10.35 29.5 9.25 29.1 7.85 30.0 8.8 30.0 9.95 L29.95 10.6 Q29.8 11.5 29.1 12.2 28.35 12.85 27.45 13.0 L27.15 14.65 25.25 22.2 24.2 26.3 5.65 26.3 4.3 20.35 Q23.6 22.95 26.2 14.5 L25.7 14.35 25.3 14.2 M2.9 14.55 L2.6 13.0 Q1.65 12.85 0.95 12.2 0.25 11.5 0.05 10.6 L0.05 10.5 Q1.4 11.75 3.2 11.4 5.95 10.35 4.45 7.35 L5.25 7.85 Q6.2 8.8 6.2 9.95 L6.15 10.6 Q5.95 11.5 5.25 12.2 4.75 12.7 4.15 12.85 L4.5 13.95 4.65 14.15 2.95 14.55 2.9 14.55 M13.95 12.6 L13.95 12.15 14.0 11.0 14.2 11.0 Q13.4 10.8 12.8 10.25 12.2 9.55 12.0 8.65 L12.0 8.55 Q13.0 10.0 15.2 9.55 L15.2 9.5 Q17.4 8.85 17.15 5.95 18.05 6.8 18.05 8.1 L18.0 8.65 Q17.85 9.55 17.15 10.25 L16.0 11.0 16.1 12.2 16.15 12.55 14.5 12.65 14.25 12.6 13.95 12.6" fill="#d75500" fill-rule="evenodd" stroke="none"/>
    <path d="M30.0 0.0 L30.0 30.0 0.0 30.0 0.0 0.0 30.0 0.0" fill="#ffffff" fill-opacity="0.0" fill-rule="evenodd" stroke="none"/>
  </g>
</svg>
