<?xml version="1.0" encoding="UTF-8" standalone="no"?>
<svg xmlns:ffdec="https://www.free-decompiler.com/flash" xmlns:xlink="http://www.w3.org/1999/xlink" ffdec:objectType="shape" height="53.0px" width="68.0px" xmlns="http://www.w3.org/2000/svg">
  <g transform="matrix(1.0, 0.0, 0.0, 1.0, 0.0, 0.0)">
    <path d="M22.25 53.0 L7.6 53.0 Q0.0 53.0 0.0 45.45 L0.0 7.6 Q0.0 0.0 7.6 0.0 L68.0 0.0 68.0 0.1 22.7 0.1 Q15.0 0.1 15.0 7.65 L15.0 45.45 Q15.0 52.75 22.25 53.0" fill="#ffffff" fill-opacity="0.0" fill-rule="evenodd" stroke="none"/>
    <path d="M22.25 53.0 Q15.0 52.75 15.0 45.45 L15.0 7.65 Q15.0 0.1 22.7 0.1 L68.0 0.1 68.0 53.0 22.25 53.0" fill="#7b6962" fill-rule="evenodd" stroke="none"/>
    <path d="M42.8 26.5 Q48.55 27.8 55.65 30.9 61.8 33.5 68.0 34.0 L68.0 51.85 23.3 51.85 Q16.45 51.85 16.45 45.05 L16.45 31.25 Q16.55 28.3 20.55 26.45 23.95 24.75 27.55 24.85 36.3 25.05 42.8 26.5" fill="url(#gradient0)" fill-rule="evenodd" stroke="none"/>
    <path d="M68.0 0.0 L68.0 52.95 56.9 52.95 56.9 0.0 68.0 0.0" fill="url(#gradient1)" fill-rule="evenodd" stroke="none"/>
    <path d="M48.35 17.35 L48.35 15.9 48.1 15.25 Q47.8 14.95 47.4 14.95 47.05 14.95 46.75 15.25 46.5 15.5 46.5 15.9 L46.5 17.35 46.5 19.65 46.75 20.25 Q47.05 20.55 47.4 20.55 47.8 20.55 48.1 20.25 L48.35 19.65 48.35 17.35 M53.5 36.4 L53.45 36.45 53.35 36.9 Q52.55 38.65 50.3 38.85 L50.2 38.85 33.75 38.85 33.65 38.85 Q31.5 38.65 30.7 37.0 L30.55 36.8 30.2 35.5 30.2 35.4 30.2 24.0 30.4 23.45 30.15 22.85 30.15 20.45 30.25 19.95 Q30.65 16.95 33.7 16.75 L33.75 16.75 34.6 16.75 34.6 15.9 Q34.6 15.05 35.15 14.55 35.75 13.95 36.55 13.95 37.3 13.95 37.9 14.55 38.45 15.05 38.45 15.9 L38.45 16.75 45.5 16.75 45.5 15.9 Q45.5 15.05 46.05 14.55 46.65 13.95 47.4 13.95 48.2 13.95 48.8 14.55 49.35 15.05 49.35 15.9 L49.35 16.75 50.2 16.75 50.3 16.75 Q53.3 16.95 53.75 19.95 L53.8 20.45 53.8 22.85 53.6 23.45 53.8 24.0 53.75 35.4 53.75 35.5 53.6 36.45 53.5 36.4 M52.8 21.9 L52.8 20.45 52.75 20.2 Q52.45 17.9 50.2 17.75 L49.3 17.75 49.3 19.2 49.3 19.65 49.3 19.7 49.3 19.75 49.3 19.8 49.3 19.85 Q49.3 20.4 48.75 20.95 L48.35 21.25 47.4 21.45 46.55 21.25 46.1 20.95 Q45.55 20.4 45.55 19.85 L45.55 19.8 45.55 19.75 45.55 19.7 45.55 19.65 45.55 19.2 45.55 17.75 38.4 17.75 38.4 19.2 38.4 19.65 38.4 19.7 38.4 19.75 38.4 19.8 38.4 19.85 Q38.4 20.4 37.85 20.95 L37.45 21.25 36.55 21.45 35.65 21.25 35.2 20.95 Q34.65 20.4 34.65 19.85 L34.65 19.8 34.65 19.75 34.65 19.7 34.65 19.65 34.65 19.2 34.65 17.75 33.75 17.75 Q31.5 17.9 31.2 20.2 L31.15 20.45 31.15 21.9 31.15 22.85 36.1 22.85 37.0 22.85 46.95 22.85 47.9 22.85 52.8 22.85 52.8 21.9 M52.8 25.45 L52.8 24.3 52.8 24.0 42.9 24.0 42.85 24.0 31.2 24.0 31.2 24.3 31.2 25.45 31.2 35.4 31.45 36.4 31.5 36.45 Q32.1 37.7 33.75 37.85 L50.2 37.85 Q51.85 37.7 52.45 36.45 L52.5 36.4 52.75 35.4 52.8 25.45 M37.45 17.35 L37.45 15.9 37.2 15.25 Q36.9 14.95 36.55 14.95 36.15 14.95 35.85 15.25 35.6 15.5 35.6 15.9 L35.6 17.35 35.6 19.65 35.85 20.25 36.55 20.55 37.2 20.25 37.45 19.65 37.45 17.35" fill="url(#gradient2)" fill-rule="evenodd" stroke="none"/>
    <path d="M53.5 36.4 L53.6 36.45 53.45 36.8 53.5 36.4" fill="#ff0000" fill-rule="evenodd" stroke="none"/>
    <path d="M46.5 17.35 L46.5 15.9 Q46.5 15.5 46.75 15.25 47.05 14.95 47.4 14.95 47.8 14.95 48.1 15.25 L48.35 15.9 48.35 17.35 48.1 16.7 Q47.8 16.4 47.4 16.4 47.05 16.4 46.75 16.7 46.5 16.95 46.5 17.35 M49.3 19.2 L49.3 17.75 50.2 17.75 Q52.45 17.9 52.75 20.2 L52.8 20.45 52.8 21.9 52.75 21.65 Q52.45 19.35 50.2 19.2 L49.3 19.2 M47.9 22.85 L46.95 22.85 46.1 22.4 Q45.55 21.85 45.55 21.05 L45.55 19.85 Q45.55 20.4 46.1 20.95 L46.55 21.25 47.4 21.45 48.35 21.25 48.75 20.95 Q49.3 20.4 49.3 19.85 L49.3 21.05 Q49.3 21.85 48.75 22.4 L47.9 22.85 M37.0 22.85 L36.1 22.85 35.2 22.4 Q34.65 21.85 34.65 21.05 L34.65 19.85 Q34.65 20.4 35.2 20.95 L35.65 21.25 36.55 21.45 37.45 21.25 37.85 20.95 Q38.4 20.4 38.4 19.85 L38.4 21.05 Q38.4 21.85 37.85 22.4 L37.0 22.85 M31.15 21.9 L31.15 20.45 31.2 20.2 Q31.5 17.9 33.75 17.75 L34.65 17.75 34.65 19.2 33.75 19.2 Q31.5 19.35 31.2 21.65 L31.15 21.9 M38.4 19.2 L38.4 17.75 45.55 17.75 45.55 19.2 38.4 19.2 M31.2 25.45 L31.2 24.3 31.2 24.0 42.85 24.0 42.9 24.0 52.8 24.0 52.8 24.3 52.8 25.45 42.9 25.45 42.85 25.45 31.2 25.45 M46.2 27.8 L46.2 29.25 Q45.15 30.25 44.45 31.35 43.55 32.7 43.1 34.4 42.7 35.65 42.5 37.55 L39.45 37.55 39.45 36.1 39.65 36.1 42.5 36.1 Q42.7 34.2 43.1 32.95 43.55 31.25 44.45 29.9 45.15 28.8 46.2 27.8 M41.55 29.85 L37.75 29.85 37.75 28.4 42.75 28.4 41.55 29.85 M35.6 17.35 L35.6 15.9 Q35.6 15.5 35.85 15.25 36.15 14.95 36.55 14.95 36.9 14.95 37.2 15.25 L37.45 15.9 37.45 17.35 37.2 16.7 Q36.9 16.4 36.55 16.4 36.15 16.4 35.85 16.7 35.6 16.95 35.6 17.35" fill="#13100f" fill-rule="evenodd" stroke="none"/>
    <path d="M46.5 17.35 Q46.5 16.95 46.75 16.7 47.05 16.4 47.4 16.4 47.8 16.4 48.1 16.7 L48.35 17.35 48.35 19.65 48.1 20.25 Q47.8 20.55 47.4 20.55 47.05 20.55 46.75 20.25 L46.5 19.65 46.5 17.35 M52.8 21.9 L52.8 22.85 47.9 22.85 48.75 22.4 Q49.3 21.85 49.3 21.05 L49.3 19.85 49.3 19.8 49.3 19.75 49.3 19.7 49.3 19.65 49.3 19.2 50.2 19.2 Q52.45 19.35 52.75 21.65 L52.8 21.9 M46.95 22.85 L37.0 22.85 37.85 22.4 Q38.4 21.85 38.4 21.05 L38.4 19.85 38.4 19.8 38.4 19.75 38.4 19.7 38.4 19.65 38.4 19.2 45.55 19.2 45.55 19.65 45.55 19.7 45.55 19.75 45.55 19.8 45.55 19.85 45.55 21.05 Q45.55 21.85 46.1 22.4 L46.95 22.85 M36.1 22.85 L31.15 22.85 31.15 21.9 31.2 21.65 Q31.5 19.35 33.75 19.2 L34.65 19.2 34.65 19.65 34.65 19.7 34.65 19.75 34.65 19.8 34.65 19.85 34.65 21.05 Q34.65 21.85 35.2 22.4 L36.1 22.85 M31.2 25.45 L42.85 25.45 42.9 25.45 52.8 25.45 52.75 35.4 52.5 36.4 52.45 36.45 Q51.85 37.7 50.2 37.85 L33.75 37.85 Q32.1 37.7 31.5 36.45 L31.45 36.4 31.2 35.4 31.2 25.45 M46.2 27.8 L46.2 27.15 46.2 25.7 37.75 25.7 37.75 27.15 37.75 28.4 37.75 29.85 41.55 29.85 40.5 31.75 Q39.75 33.45 39.45 36.1 L39.45 37.55 42.5 37.55 Q42.7 35.65 43.1 34.4 43.55 32.7 44.45 31.35 45.15 30.25 46.2 29.25 L46.2 27.8 M35.6 17.35 Q35.6 16.95 35.85 16.7 36.15 16.4 36.55 16.4 36.9 16.4 37.2 16.7 L37.45 17.35 37.45 19.65 37.2 20.25 36.55 20.55 35.85 20.25 35.6 19.65 35.6 17.35" fill="#322c28" fill-rule="evenodd" stroke="none"/>
  </g>
  <defs>
    <linearGradient gradientTransform="matrix(0.0, -0.0241, 0.0413, 0.0, 50.25, 30.25)" gradientUnits="userSpaceOnUse" id="gradient0" spreadMethod="pad" x1="-819.2" x2="819.2">
      <stop offset="0.0" stop-color="#000000" stop-opacity="0.15294118"/>
      <stop offset="1.0" stop-color="#000000" stop-opacity="0.0"/>
    </linearGradient>
    <linearGradient gradientTransform="matrix(-0.0044, 0.0, 0.0, -0.0323, 64.05, 26.5)" gradientUnits="userSpaceOnUse" id="gradient1" spreadMethod="pad" x1="-819.2" x2="819.2">
      <stop offset="0.0" stop-color="#000000" stop-opacity="0.3019608"/>
      <stop offset="1.0" stop-color="#000000" stop-opacity="0.0"/>
    </linearGradient>
    <linearGradient gradientTransform="matrix(0.0, 0.0142, -0.0111, 0.0, 10.3, 28.4)" gradientUnits="userSpaceOnUse" id="gradient2" spreadMethod="pad" x1="-819.2" x2="819.2">
      <stop offset="0.0" stop-color="#ffffff" stop-opacity="0.0"/>
      <stop offset="1.0" stop-color="#ffffff" stop-opacity="0.4"/>
    </linearGradient>
  </defs>
</svg>
