<?xml version="1.0" encoding="UTF-8" standalone="no"?>
<svg xmlns:ffdec="https://www.free-decompiler.com/flash" xmlns:xlink="http://www.w3.org/1999/xlink" ffdec:objectType="shape" height="294.0px" width="423.0px" xmlns="http://www.w3.org/2000/svg">
  <g transform="matrix(1.0, 0.0, 0.0, 1.0, 5.0, 5.0)">
    <path d="M398.0 0.0 L15.0 0.0 Q0.0 0.0 0.0 15.0 L0.0 269.0 Q0.0 284.0 15.0 284.0 L398.0 284.0 Q413.0 284.0 413.0 269.0 L413.0 15.0 Q413.0 0.0 398.0 0.0 Z" fill="none" stroke="#b3ac90" stroke-linecap="butt" stroke-linejoin="miter-clip" stroke-miterlimit="3.0" stroke-width="10.0"/>
    <path d="M398.0 0.0 Q413.0 0.0 413.0 15.0 L413.0 269.0 Q413.0 284.0 398.0 284.0 L15.0 284.0 Q0.0 284.0 0.0 269.0 L0.0 15.0 Q0.0 0.0 15.0 0.0 L398.0 0.0" fill="#b3ac90" fill-rule="evenodd" stroke="none"/>
    <path d="M398.0 0.0 L15.0 0.0 Q0.0 0.0 0.0 15.0 L0.0 269.0 Q0.0 284.0 15.0 284.0 L398.0 284.0 Q413.0 284.0 413.0 269.0 L413.0 15.0 Q413.0 0.0 398.0 0.0 Z" fill="none" stroke="url(#gradient0)" stroke-linecap="butt" stroke-linejoin="miter-clip" stroke-miterlimit="3.0" stroke-width="5.0"/>
    <path d="M398.0 0.0 L15.0 0.0 Q0.0 0.0 0.0 15.0 L0.0 269.0 Q0.0 284.0 15.0 284.0 L398.0 284.0 Q413.0 284.0 413.0 269.0 L413.0 15.0 Q413.0 0.0 398.0 0.0 Z" fill="none" stroke="#b3ac90" stroke-linecap="butt" stroke-linejoin="miter-clip" stroke-miterlimit="3.0" stroke-width="10.0"/>
    <path d="M398.0 0.0 Q413.0 0.0 413.0 15.0 L413.0 269.0 Q413.0 284.0 398.0 284.0 L15.0 284.0 Q0.0 284.0 0.0 269.0 L0.0 15.0 Q0.0 0.0 15.0 0.0 L398.0 0.0" fill="#b3ac90" fill-rule="evenodd" stroke="none"/>
    <path d="M398.0 0.0 L15.0 0.0 Q0.0 0.0 0.0 15.0 L0.0 269.0 Q0.0 284.0 15.0 284.0 L398.0 284.0 Q413.0 284.0 413.0 269.0 L413.0 15.0 Q413.0 0.0 398.0 0.0 Z" fill="none" stroke="url(#gradient1)" stroke-linecap="butt" stroke-linejoin="miter-clip" stroke-miterlimit="3.0" stroke-width="5.0"/>
  </g>
  <defs>
    <linearGradient gradientTransform="matrix(0.2553, -0.1125, 0.0639, 0.1449, 206.5, 128.5)" gradientUnits="userSpaceOnUse" id="gradient0" spreadMethod="pad" x1="-819.2" x2="819.2">
      <stop offset="0.0" stop-color="#ffcc00"/>
      <stop offset="0.06666666666666667" stop-color="#ffff1a"/>
      <stop offset="0.13333333333333333" stop-color="#ffffde"/>
      <stop offset="0.21176470588235294" stop-color="#986c16"/>
      <stop offset="0.4" stop-color="#ffcc00"/>
      <stop offset="0.47058823529411764" stop-color="#ffff0b"/>
      <stop offset="0.5372549019607843" stop-color="#ffffd4"/>
      <stop offset="0.6196078431372549" stop-color="#8c5a08"/>
      <stop offset="0.792156862745098" stop-color="#f9c600"/>
      <stop offset="0.8666666666666667" stop-color="#ffff22"/>
      <stop offset="0.9333333333333333" stop-color="#ffffde"/>
      <stop offset="1.0" stop-color="#885302"/>
    </linearGradient>
    <linearGradient gradientTransform="matrix(0.2553, -0.1125, 0.0639, 0.1449, 206.5, 128.5)" gradientUnits="userSpaceOnUse" id="gradient1" spreadMethod="pad" x1="-819.2" x2="819.2">
      <stop offset="0.0" stop-color="#ffcc00"/>
      <stop offset="0.06666666666666667" stop-color="#ffff1a"/>
      <stop offset="0.13333333333333333" stop-color="#ffffde"/>
      <stop offset="0.21176470588235294" stop-color="#986c16"/>
      <stop offset="0.4" stop-color="#ffcc00"/>
      <stop offset="0.47058823529411764" stop-color="#ffff0b"/>
      <stop offset="0.5372549019607843" stop-color="#ffffd4"/>
      <stop offset="0.6196078431372549" stop-color="#8c5a08"/>
      <stop offset="0.792156862745098" stop-color="#f9c600"/>
      <stop offset="0.8666666666666667" stop-color="#ffff22"/>
      <stop offset="0.9333333333333333" stop-color="#ffffde"/>
      <stop offset="1.0" stop-color="#885302"/>
    </linearGradient>
  </defs>
</svg>
