<?xml version="1.0" encoding="UTF-8" standalone="no"?>
<svg xmlns:ffdec="https://www.free-decompiler.com/flash" xmlns:xlink="http://www.w3.org/1999/xlink" ffdec:objectType="shape" height="64.0px" width="58.5px" xmlns="http://www.w3.org/2000/svg">
  <g transform="matrix(1.0, 0.0, 0.0, 1.0, 2.15, 1.95)">
    <path d="M44.1 24.0 Q48.45 26.95 50.0 31.4 51.5 35.85 49.25 39.25 L47.95 40.8 46.0 42.7 46.1 42.8 47.0 44.25 47.65 45.5 Q47.9 45.75 47.7 46.25 L53.9 54.65 54.35 55.8 54.25 57.15 Q53.85 58.55 52.65 59.4 51.4 60.25 50.0 60.0 48.65 59.8 47.95 58.7 L42.4 49.4 41.65 49.15 41.6 49.05 41.55 48.95 40.15 46.4 40.0 46.1 39.75 46.15 37.9 48.2 Q31.4 54.7 22.2 54.7 13.0 54.7 6.5 48.2 0.5 42.15 0.05 33.9 L0.0 33.9 0.2 31.6 Q1.65 17.25 8.35 8.25 10.0 5.95 11.8 4.3 16.5 0.0 22.2 0.05 29.95 0.0 36.0 8.25 40.6 14.5 42.75 23.2 L44.1 24.0 Z" fill="none" stroke="#432c23" stroke-linecap="butt" stroke-linejoin="miter-clip" stroke-miterlimit="3.0" stroke-width="4.0"/>
    <path d="M44.4 33.8 Q43.95 42.15 37.9 48.15 31.4 54.65 22.25 54.65 13.05 54.65 6.55 48.15 0.5 42.15 0.1 33.85 L0.05 33.85 0.25 31.6 Q1.7 17.25 8.4 8.2 10.05 5.95 11.85 4.3 16.55 -0.05 22.25 0.0 30.0 -0.05 36.05 8.2 41.6 15.75 43.6 27.0 L44.2 31.6 44.4 33.8" fill="url(#gradient0)" fill-rule="evenodd" stroke="none"/>
    <path d="M32.55 11.65 Q37.55 18.35 38.65 29.05 L38.75 30.7 38.3 33.9 Q37.25 38.1 33.95 41.4 29.1 46.3 22.25 46.3 15.4 46.3 10.55 41.4 6.05 36.9 5.7 30.75 L5.85 29.05 Q6.0 27.45 6.3 25.95 7.7 17.35 11.95 11.65 16.4 5.45 22.25 5.5 28.0 5.45 32.55 11.65" fill="url(#gradient1)" fill-rule="evenodd" stroke="none"/>
    <path d="M20.7 5.85 Q20.1 6.45 19.2 6.45 18.3 6.45 17.7 5.85 17.05 5.2 17.05 4.35 17.05 3.45 17.7 2.85 18.3 2.2 19.2 2.2 20.1 2.2 20.7 2.85 21.3 3.45 21.3 4.35 21.3 5.2 20.7 5.85 M24.65 12.95 Q24.05 12.25 23.05 12.25 21.0 12.25 19.4 13.85 17.75 15.5 17.7 17.7 17.6 20.2 20.55 21.45 L27.15 23.15 Q31.65 24.2 33.75 25.95 36.75 28.45 36.75 33.15 36.55 36.85 33.0 40.9 29.4 44.9 22.65 45.15 15.95 45.45 12.15 40.35 10.45 37.65 10.6 34.55 10.7 31.2 12.2 29.3 13.65 27.35 16.25 27.35 18.85 27.35 20.75 29.4 22.05 30.85 22.85 33.15 L21.4 32.3 19.85 31.7 Q18.45 31.7 17.75 32.2 17.0 32.7 17.0 33.8 16.95 35.4 19.05 36.1 L22.55 36.6 Q25.75 36.6 27.8 35.15 29.95 33.6 29.95 31.0 30.0 28.1 27.15 26.5 25.75 25.7 20.95 24.3 16.65 23.05 14.85 21.7 12.1 19.6 12.2 15.95 12.5 13.55 14.85 10.25 17.2 6.95 23.1 7.0 27.8 6.95 30.75 11.2 31.75 12.6 31.75 13.65 31.7 15.5 30.3 16.9 28.7 18.55 26.15 18.55 L22.5 18.25 Q24.15 17.9 24.65 17.45 25.25 16.85 25.3 15.05 25.3 13.7 24.65 12.95 M9.65 24.45 Q10.65 24.45 11.35 25.15 12.05 25.85 12.05 26.85 12.05 27.75 11.5 28.4 L11.35 28.55 10.35 29.15 9.65 29.25 Q8.75 29.25 8.05 28.65 L7.95 28.55 Q7.2 27.85 7.2 26.85 7.2 25.85 7.95 25.15 L8.5 24.7 9.65 24.45 M15.2 24.35 L15.5 25.1 15.3 25.7 15.2 25.8 14.5 26.1 Q14.05 26.1 13.75 25.8 13.45 25.5 13.45 25.1 13.45 24.65 13.75 24.35 L14.05 24.15 14.5 24.05 Q14.9 24.05 15.2 24.35 M30.95 46.1 Q31.35 45.5 32.05 45.5 32.75 45.5 33.3 46.1 L33.7 46.95 33.75 47.4 33.3 48.85 Q32.75 49.35 32.05 49.35 L31.25 49.15 30.95 48.85 Q30.4 48.2 30.4 47.4 30.4 46.65 30.95 46.1 M34.35 44.1 Q34.35 43.75 34.6 43.55 34.8 43.3 35.15 43.3 L35.75 43.55 35.85 43.7 35.95 44.1 35.75 44.7 35.15 44.9 34.8 44.85 34.6 44.7 34.35 44.1 M25.0 46.3 L25.2 45.75 Q25.45 45.5 25.8 45.5 L26.4 45.75 26.45 45.9 26.6 46.3 26.4 46.9 25.8 47.15 25.45 47.05 25.2 46.9 25.0 46.3" fill="url(#gradient2)" fill-rule="evenodd" stroke="none"/>
    <path d="M15.2 31.85 Q17.15 33.75 19.5 35.2 22.15 36.85 25.25 37.8 28.25 38.8 31.4 38.8 34.45 38.8 37.25 39.7 39.15 40.25 39.45 41.95 39.65 43.0 39.15 43.9 38.35 45.25 37.15 46.4 35.0 48.5 32.3 50.05 29.7 51.45 26.8 52.1 L20.65 52.55 Q17.4 52.35 14.45 51.15 11.9 50.2 9.75 48.55 7.55 46.9 5.9 44.75 4.1 42.3 3.0 39.55 L2.7 38.35 Q2.3 35.55 2.9 32.8 3.4 30.35 5.7 29.15 6.5 28.75 7.5 28.65 10.45 28.65 12.9 30.1 14.15 30.85 15.2 31.85" fill="#292501" fill-opacity="0.3019608" fill-rule="evenodd" stroke="none"/>
    <path d="M26.9 2.6 Q30.45 4.25 34.3 8.9 38.1 13.5 39.85 18.35 41.6 23.2 40.3 25.55 39.0 27.85 35.4 26.25 31.9 24.7 28.05 20.05 24.2 15.4 22.5 10.55 20.75 5.7 22.0 3.35 23.3 1.1 26.9 2.6" fill="#ffffff" fill-opacity="0.3529412" fill-rule="evenodd" stroke="none"/>
    <path d="M31.4 9.4 Q32.25 8.95 33.85 10.4 35.3 11.7 36.65 14.1 38.0 16.5 38.45 18.6 38.75 20.55 37.9 21.0 37.1 21.45 35.65 20.15 34.05 18.7 32.7 16.3 31.35 13.9 31.05 11.95 30.6 9.85 31.4 9.4" fill="#ffffff" fill-rule="evenodd" stroke="none"/>
    <path d="M25.4 3.95 L27.5 4.1 Q28.8 4.65 30.05 6.15 31.25 7.65 31.7 9.15 32.0 10.55 31.35 11.1 L29.35 11.05 Q27.95 10.4 26.75 8.9 25.5 7.4 25.15 6.0 24.7 4.55 25.4 3.95" fill="#ffffff" fill-rule="evenodd" stroke="none"/>
    <path d="M30.0 25.9 L29.8 26.25 29.75 26.2 30.0 25.9" fill="#ffffff" fill-rule="evenodd" stroke="none"/>
    <path d="M48.0 40.75 L46.1 42.65 44.65 42.55 Q46.6 42.0 48.0 40.75" fill="#425357" fill-rule="evenodd" stroke="none"/>
    <path d="M48.65 33.7 Q48.5 30.8 47.05 28.6 46.0 27.0 43.2 25.35 L43.0 25.25 43.2 25.3 43.05 25.2 Q39.45 22.85 35.6 23.1 31.9 23.4 30.0 25.9 L29.75 26.2 29.8 26.25 29.3 27.1 Q28.05 29.6 29.15 32.8 30.4 36.55 34.1 39.0 L36.05 40.15 Q38.85 41.35 41.7 41.15 L43.85 40.75 44.85 40.4 46.5 39.3 46.75 39.05 47.55 38.05 Q48.55 36.55 48.65 34.8 L48.65 33.7 48.65 33.65 48.6 33.7 48.65 33.65 48.65 33.7 M28.8 24.15 L29.0 23.85 Q31.25 21.65 35.0 21.35 39.75 21.05 44.15 24.0 48.5 26.9 50.05 31.35 51.6 35.85 49.3 39.2 L48.0 40.75 Q46.6 42.0 44.65 42.55 L44.5 42.6 42.85 42.9 42.3 42.95 Q39.6 43.15 37.0 42.25 39.6 43.15 42.3 42.95 L42.85 42.9 44.5 42.6 44.65 42.55 Q43.6 42.8 42.5 43.45 43.6 42.8 44.65 42.55 L46.1 42.65 46.15 42.75 47.05 44.25 47.7 45.45 Q47.3 45.0 46.15 45.25 45.0 45.55 43.75 46.3 L42.65 45.45 42.6 45.35 Q41.85 44.45 42.5 43.45 L42.25 43.6 Q41.0 44.35 40.4 45.15 40.0 45.7 40.05 46.05 L39.05 46.15 Q36.15 46.35 33.35 45.3 31.65 44.65 29.95 43.55 27.65 42.0 26.1 40.05 L27.5 40.3 28.85 40.0 30.35 38.8 Q33.3 40.95 36.85 42.2 L37.0 42.25 35.0 41.0 32.4 39.2 Q30.8 38.15 28.35 34.85 L28.25 34.65 27.7 33.9 27.65 33.9 27.25 33.0 27.25 32.9 Q26.6 31.0 26.65 29.3 26.7 27.0 28.05 25.05 L28.8 24.15" fill="#7b8b91" fill-rule="evenodd" stroke="none"/>
    <path d="M43.05 25.2 L43.2 25.3 43.0 25.25 43.2 25.35 Q46.0 27.0 47.05 28.6 48.5 30.8 48.65 33.7 L48.65 34.8 Q48.55 36.55 47.55 38.05 L46.75 39.05 46.7 39.0 46.5 39.3 44.85 40.4 Q46.0 37.9 44.95 34.75 43.7 31.0 40.0 28.55 L39.25 28.05 Q39.85 26.7 41.2 25.95 L41.6 25.8 Q42.35 25.45 43.05 25.2 M48.6 33.65 Q48.25 31.6 46.8 29.45 45.4 27.2 43.2 25.35 45.4 27.2 46.8 29.45 48.25 31.6 48.6 33.65 M41.55 48.9 L40.2 46.35 40.05 46.05 Q40.0 45.7 40.4 45.15 41.0 44.35 42.25 43.6 L42.5 43.45 Q41.85 44.45 42.6 45.35 L42.65 45.45 43.75 46.3 Q42.5 47.05 41.95 47.85 L41.55 48.6 41.55 48.9 M26.1 40.05 Q24.75 38.3 24.05 36.15 22.5 31.7 24.75 28.3 L25.7 27.15 28.8 24.15 28.05 25.05 Q26.7 27.0 26.65 29.3 26.6 31.0 27.25 32.9 L27.25 33.0 27.65 33.9 27.7 33.9 Q29.25 37.5 30.35 38.8 L28.85 40.0 27.5 40.3 26.1 40.05" fill="#637075" fill-rule="evenodd" stroke="none"/>
    <path d="M43.05 25.2 Q42.35 25.45 41.6 25.8 L41.2 25.95 Q39.85 26.7 39.25 28.05 L38.2 27.5 Q36.75 26.7 33.55 26.35 L32.4 26.35 32.25 26.4 Q30.6 26.5 29.3 27.1 L29.8 26.25 30.0 25.9 Q31.9 23.4 35.6 23.1 39.45 22.85 43.05 25.2 M47.7 45.45 Q47.95 45.75 47.75 46.2 L53.95 54.6 54.4 55.75 54.3 57.1 Q53.95 58.55 52.75 59.35 51.45 60.2 50.05 60.0 48.7 59.8 48.0 58.7 L42.45 49.35 41.7 49.1 41.55 48.9 41.55 48.6 41.65 49.0 41.55 48.6 41.95 47.85 Q42.5 47.05 43.75 46.3 45.0 45.55 46.15 45.25 47.3 45.0 47.7 45.45 M43.45 47.25 L44.5 48.8 44.55 48.95 46.4 52.15 Q49.8 57.7 51.6 58.05 L52.8 57.95 Q53.85 57.5 54.4 55.75 53.85 57.5 52.8 57.95 L51.6 58.05 Q49.8 57.7 46.4 52.15 L44.55 48.95 44.5 48.8 43.45 47.25 M43.45 47.2 L44.25 46.7 44.75 46.4 Q45.35 46.1 45.95 45.95 L46.35 45.8 Q47.1 45.65 47.45 45.8 L47.75 46.2 47.45 45.8 Q47.1 45.65 46.35 45.8 L45.95 45.95 Q45.35 46.1 44.75 46.4 L44.25 46.7 43.45 47.2 M42.45 49.35 L42.1 48.8 42.5 48.05 43.3 47.3 42.5 48.05 42.1 48.8 42.45 49.35" fill="#434b4f" fill-rule="evenodd" stroke="none"/>
    <path d="M27.7 33.9 L28.25 34.65 28.35 34.85 Q30.8 38.15 32.4 39.2 L35.0 41.0 37.0 42.25 36.85 42.2 Q33.3 40.95 30.35 38.8 29.25 37.5 27.7 33.9 M36.9 42.2 L36.85 42.2 36.9 42.2" fill="#93a5ad" fill-rule="evenodd" stroke="none"/>
    <path d="M51.95 57.1 Q52.85 57.1 53.2 56.65 L53.4 55.6 Q53.4 54.35 46.9 48.1 50.35 53.55 50.35 55.3 L50.5 56.2 Q50.9 57.1 51.95 57.1" fill="#b3b03e" fill-rule="evenodd" stroke="none"/>
    <path d="M51.95 57.1 Q50.9 57.1 50.5 56.2 L50.35 55.3 Q50.35 53.55 46.9 48.1 53.4 54.35 53.4 55.6 L53.2 56.65 Q52.85 57.1 51.95 57.1" fill="#ded74d" fill-rule="evenodd" stroke="none"/>
    <path d="M44.1 24.0 Q48.45 26.95 50.0 31.4 51.5 35.85 49.25 39.25 L47.95 40.8 46.0 42.7 46.1 42.8 47.0 44.25 47.65 45.5 Q47.9 45.75 47.7 46.25 L53.9 54.65 54.35 55.8 54.25 57.15 Q53.85 58.55 52.65 59.4 51.4 60.25 50.0 60.0 48.65 59.8 47.95 58.7 L42.4 49.4 41.65 49.15 41.6 49.05 41.55 48.95 40.15 46.4 40.0 46.1 39.75 46.15 37.9 48.2 Q31.4 54.7 22.2 54.7 13.0 54.7 6.5 48.2 0.5 42.15 0.05 33.9 L0.0 33.9 0.2 31.6 Q1.65 17.25 8.35 8.25 10.0 5.95 11.8 4.3 16.5 0.0 22.2 0.05 29.95 0.0 36.0 8.25 40.6 14.5 42.75 23.2 L44.1 24.0 Z" fill="none" stroke="#432c23" stroke-linecap="butt" stroke-linejoin="miter-clip" stroke-miterlimit="3.0" stroke-width="4.0"/>
    <path d="M44.4 33.8 Q43.95 42.15 37.9 48.15 31.4 54.65 22.25 54.65 13.05 54.65 6.55 48.15 0.5 42.15 0.1 33.85 L0.05 33.85 0.25 31.6 Q1.7 17.25 8.4 8.2 10.05 5.95 11.85 4.3 16.55 -0.05 22.25 0.0 30.0 -0.05 36.05 8.2 41.6 15.75 43.6 27.0 L44.2 31.6 44.4 33.8" fill="url(#gradient3)" fill-rule="evenodd" stroke="none"/>
    <path d="M32.55 11.65 Q37.55 18.35 38.65 29.05 L38.75 30.7 38.3 33.9 Q37.25 38.1 33.95 41.4 29.1 46.3 22.25 46.3 15.4 46.3 10.55 41.4 6.05 36.9 5.7 30.75 L5.85 29.05 Q6.0 27.45 6.3 25.95 7.7 17.35 11.95 11.65 16.4 5.45 22.25 5.5 28.0 5.45 32.55 11.65" fill="url(#gradient4)" fill-rule="evenodd" stroke="none"/>
    <path d="M20.7 5.85 Q20.1 6.45 19.2 6.45 18.3 6.45 17.7 5.85 17.05 5.2 17.05 4.35 17.05 3.45 17.7 2.85 18.3 2.2 19.2 2.2 20.1 2.2 20.7 2.85 21.3 3.45 21.3 4.35 21.3 5.2 20.7 5.85 M24.65 12.95 Q24.05 12.25 23.05 12.25 21.0 12.25 19.4 13.85 17.75 15.5 17.7 17.7 17.6 20.2 20.55 21.45 L27.15 23.15 Q31.65 24.2 33.75 25.95 36.75 28.45 36.75 33.15 36.55 36.85 33.0 40.9 29.4 44.9 22.65 45.15 15.95 45.45 12.15 40.35 10.45 37.65 10.6 34.55 10.7 31.2 12.2 29.3 13.65 27.35 16.25 27.35 18.85 27.35 20.75 29.4 22.05 30.85 22.85 33.15 L21.4 32.3 19.85 31.7 Q18.45 31.7 17.75 32.2 17.0 32.7 17.0 33.8 16.95 35.4 19.05 36.1 L22.55 36.6 Q25.75 36.6 27.8 35.15 29.95 33.6 29.95 31.0 30.0 28.1 27.15 26.5 25.75 25.7 20.95 24.3 16.65 23.05 14.85 21.7 12.1 19.6 12.2 15.95 12.5 13.55 14.85 10.25 17.2 6.95 23.1 7.0 27.8 6.95 30.75 11.2 31.75 12.6 31.75 13.65 31.7 15.5 30.3 16.9 28.7 18.55 26.15 18.55 L22.5 18.25 Q24.15 17.9 24.65 17.45 25.25 16.85 25.3 15.05 25.3 13.7 24.65 12.95 M9.65 24.45 Q10.65 24.45 11.35 25.15 12.05 25.85 12.05 26.85 12.05 27.75 11.5 28.4 L11.35 28.55 10.35 29.15 9.65 29.25 Q8.75 29.25 8.05 28.65 L7.95 28.55 Q7.2 27.85 7.2 26.85 7.2 25.85 7.95 25.15 L8.5 24.7 9.65 24.45 M15.2 24.35 L15.5 25.1 15.3 25.7 15.2 25.8 14.5 26.1 Q14.05 26.1 13.75 25.8 13.45 25.5 13.45 25.1 13.45 24.65 13.75 24.35 L14.05 24.15 14.5 24.05 Q14.9 24.05 15.2 24.35 M30.95 46.1 Q31.35 45.5 32.05 45.5 32.75 45.5 33.3 46.1 L33.7 46.95 33.75 47.4 33.3 48.85 Q32.75 49.35 32.05 49.35 L31.25 49.15 30.95 48.85 Q30.4 48.2 30.4 47.4 30.4 46.65 30.95 46.1 M34.35 44.1 Q34.35 43.75 34.6 43.55 34.8 43.3 35.15 43.3 L35.75 43.55 35.85 43.7 35.95 44.1 35.75 44.7 35.15 44.9 34.8 44.85 34.6 44.7 34.35 44.1 M25.0 46.3 L25.2 45.75 Q25.45 45.5 25.8 45.5 L26.4 45.75 26.45 45.9 26.6 46.3 26.4 46.9 25.8 47.15 25.45 47.05 25.2 46.9 25.0 46.3" fill="url(#gradient5)" fill-rule="evenodd" stroke="none"/>
    <path d="M15.2 31.85 Q17.15 33.75 19.5 35.2 22.15 36.85 25.25 37.8 28.25 38.8 31.4 38.8 34.45 38.8 37.25 39.7 39.15 40.25 39.45 41.95 39.65 43.0 39.15 43.9 38.35 45.25 37.15 46.4 35.0 48.5 32.3 50.05 29.7 51.45 26.8 52.1 L20.65 52.55 Q17.4 52.35 14.45 51.15 11.9 50.2 9.75 48.55 7.55 46.9 5.9 44.75 4.1 42.3 3.0 39.55 L2.7 38.35 Q2.3 35.55 2.9 32.8 3.4 30.35 5.7 29.15 6.5 28.75 7.5 28.65 10.45 28.65 12.9 30.1 14.15 30.85 15.2 31.85" fill="#292501" fill-opacity="0.3019608" fill-rule="evenodd" stroke="none"/>
    <path d="M26.9 2.6 Q30.45 4.25 34.3 8.9 38.1 13.5 39.85 18.35 41.6 23.2 40.3 25.55 39.0 27.85 35.4 26.25 31.9 24.7 28.05 20.05 24.2 15.4 22.5 10.55 20.75 5.7 22.0 3.35 23.3 1.1 26.9 2.6" fill="#ffffff" fill-opacity="0.3529412" fill-rule="evenodd" stroke="none"/>
    <path d="M31.4 9.4 Q32.25 8.95 33.85 10.4 35.3 11.7 36.65 14.1 38.0 16.5 38.45 18.6 38.75 20.55 37.9 21.0 37.1 21.45 35.65 20.15 34.05 18.7 32.7 16.3 31.35 13.9 31.05 11.95 30.6 9.85 31.4 9.4" fill="#ffffff" fill-rule="evenodd" stroke="none"/>
    <path d="M25.4 3.95 L27.5 4.1 Q28.8 4.65 30.05 6.15 31.25 7.65 31.7 9.15 32.0 10.55 31.35 11.1 L29.35 11.05 Q27.95 10.4 26.75 8.9 25.5 7.4 25.15 6.0 24.7 4.55 25.4 3.95" fill="#ffffff" fill-rule="evenodd" stroke="none"/>
    <path d="M30.0 25.9 L29.8 26.25 29.75 26.2 30.0 25.9" fill="#ffffff" fill-rule="evenodd" stroke="none"/>
    <path d="M48.0 40.75 L46.1 42.65 44.65 42.55 Q46.6 42.0 48.0 40.75" fill="#425357" fill-rule="evenodd" stroke="none"/>
    <path d="M48.65 33.7 Q48.5 30.8 47.05 28.6 46.0 27.0 43.2 25.35 L43.0 25.25 43.2 25.3 43.05 25.2 Q39.45 22.85 35.6 23.1 31.9 23.4 30.0 25.9 L29.75 26.2 29.8 26.25 29.3 27.1 Q28.05 29.6 29.15 32.8 30.4 36.55 34.1 39.0 L36.05 40.15 Q38.85 41.35 41.7 41.15 L43.85 40.75 44.85 40.4 46.5 39.3 46.75 39.05 47.55 38.05 Q48.55 36.55 48.65 34.8 L48.65 33.7 48.65 33.65 48.6 33.7 48.65 33.65 48.65 33.7 M28.8 24.15 L29.0 23.85 Q31.25 21.65 35.0 21.35 39.75 21.05 44.15 24.0 48.5 26.9 50.05 31.35 51.6 35.85 49.3 39.2 L48.0 40.75 Q46.6 42.0 44.65 42.55 L44.5 42.6 42.85 42.9 42.3 42.95 Q39.6 43.15 37.0 42.25 39.6 43.15 42.3 42.95 L42.85 42.9 44.5 42.6 44.65 42.55 Q43.6 42.8 42.5 43.45 43.6 42.8 44.65 42.55 L46.1 42.65 46.15 42.75 47.05 44.25 47.7 45.45 Q47.3 45.0 46.15 45.25 45.0 45.55 43.75 46.3 L42.65 45.45 42.6 45.35 Q41.85 44.45 42.5 43.45 L42.25 43.6 Q41.0 44.35 40.4 45.15 40.0 45.7 40.05 46.05 L39.05 46.15 Q36.15 46.35 33.35 45.3 31.65 44.65 29.95 43.55 27.65 42.0 26.1 40.05 L27.5 40.3 28.85 40.0 30.35 38.8 Q33.3 40.95 36.85 42.2 L37.0 42.25 35.0 41.0 32.4 39.2 Q30.8 38.15 28.35 34.85 L28.25 34.65 27.7 33.9 27.65 33.9 27.25 33.0 27.25 32.9 Q26.6 31.0 26.65 29.3 26.7 27.0 28.05 25.05 L28.8 24.15" fill="#7b8b91" fill-rule="evenodd" stroke="none"/>
    <path d="M43.05 25.2 L43.2 25.3 43.0 25.25 43.2 25.35 Q46.0 27.0 47.05 28.6 48.5 30.8 48.65 33.7 L48.65 34.8 Q48.55 36.55 47.55 38.05 L46.75 39.05 46.7 39.0 46.5 39.3 44.85 40.4 Q46.0 37.9 44.95 34.75 43.7 31.0 40.0 28.55 L39.25 28.05 Q39.85 26.7 41.2 25.95 L41.6 25.8 Q42.35 25.45 43.05 25.2 M48.6 33.65 Q48.25 31.6 46.8 29.45 45.4 27.2 43.2 25.35 45.4 27.2 46.8 29.45 48.25 31.6 48.6 33.65 M41.55 48.9 L40.2 46.35 40.05 46.05 Q40.0 45.7 40.4 45.15 41.0 44.35 42.25 43.6 L42.5 43.45 Q41.85 44.45 42.6 45.35 L42.65 45.45 43.75 46.3 Q42.5 47.05 41.95 47.85 L41.55 48.6 41.55 48.9 M26.1 40.05 Q24.75 38.3 24.05 36.15 22.5 31.7 24.75 28.3 L25.7 27.15 28.8 24.15 28.05 25.05 Q26.7 27.0 26.65 29.3 26.6 31.0 27.25 32.9 L27.25 33.0 27.65 33.9 27.7 33.9 Q29.25 37.5 30.35 38.8 L28.85 40.0 27.5 40.3 26.1 40.05" fill="#637075" fill-rule="evenodd" stroke="none"/>
    <path d="M43.05 25.2 Q42.35 25.45 41.6 25.8 L41.2 25.95 Q39.85 26.7 39.25 28.05 L38.2 27.5 Q36.75 26.7 33.55 26.35 L32.4 26.35 32.25 26.4 Q30.6 26.5 29.3 27.1 L29.8 26.25 30.0 25.9 Q31.9 23.4 35.6 23.1 39.45 22.85 43.05 25.2 M47.7 45.45 Q47.95 45.75 47.75 46.2 L53.95 54.6 54.4 55.75 54.3 57.1 Q53.95 58.55 52.75 59.35 51.45 60.2 50.05 60.0 48.7 59.8 48.0 58.7 L42.45 49.35 41.7 49.1 41.55 48.9 41.55 48.6 41.65 49.0 41.55 48.6 41.95 47.85 Q42.5 47.05 43.75 46.3 45.0 45.55 46.15 45.25 47.3 45.0 47.7 45.45 M43.45 47.25 L44.5 48.8 44.55 48.95 46.4 52.15 Q49.8 57.7 51.6 58.05 L52.8 57.95 Q53.85 57.5 54.4 55.75 53.85 57.5 52.8 57.95 L51.6 58.05 Q49.8 57.7 46.4 52.15 L44.55 48.95 44.5 48.8 43.45 47.25 M43.45 47.2 L44.25 46.7 44.75 46.4 Q45.35 46.1 45.95 45.95 L46.35 45.8 Q47.1 45.65 47.45 45.8 L47.75 46.2 47.45 45.8 Q47.1 45.65 46.35 45.8 L45.95 45.95 Q45.35 46.1 44.75 46.4 L44.25 46.7 43.45 47.2 M42.45 49.35 L42.1 48.8 42.5 48.05 43.3 47.3 42.5 48.05 42.1 48.8 42.45 49.35" fill="#434b4f" fill-rule="evenodd" stroke="none"/>
    <path d="M27.7 33.9 L28.25 34.65 28.35 34.85 Q30.8 38.15 32.4 39.2 L35.0 41.0 37.0 42.25 36.85 42.2 Q33.3 40.95 30.35 38.8 29.25 37.5 27.7 33.9 M36.9 42.2 L36.85 42.2 36.9 42.2" fill="#93a5ad" fill-rule="evenodd" stroke="none"/>
    <path d="M51.95 57.1 Q52.85 57.1 53.2 56.65 L53.4 55.6 Q53.4 54.35 46.9 48.1 50.35 53.55 50.35 55.3 L50.5 56.2 Q50.9 57.1 51.95 57.1" fill="#b3b03e" fill-rule="evenodd" stroke="none"/>
    <path d="M51.95 57.1 Q50.9 57.1 50.5 56.2 L50.35 55.3 Q50.35 53.55 46.9 48.1 53.4 54.35 53.4 55.6 L53.2 56.65 Q52.85 57.1 51.95 57.1" fill="#ded74d" fill-rule="evenodd" stroke="none"/>
    <path d="M36.9 25.05 Q39.1 25.4 41.2 26.65 L42.0 27.1 Q45.65 29.55 46.95 33.3 47.9 36.1 47.05 38.4 L46.7 39.0 46.5 39.3 44.85 40.4 43.85 40.75 41.7 41.15 Q38.85 41.35 36.05 40.15 L34.1 39.0 Q30.4 36.55 29.15 32.8 28.2 30.05 29.0 27.75 L29.4 27.1 29.6 26.8 Q31.35 25.25 34.15 24.95 L33.8 25.3 33.55 26.35 33.65 26.85 Q33.95 27.7 34.85 28.3 35.65 28.85 36.6 28.8 37.5 28.75 37.95 28.1 L38.2 27.5 38.1 26.55 Q37.8 25.7 36.95 25.1 L36.9 25.05" fill="#a7d6d4" fill-opacity="0.5019608" fill-rule="evenodd" stroke="none"/>
    <path d="M34.15 24.95 Q34.55 24.65 35.15 24.6 36.05 24.55 36.9 25.05 L36.95 25.1 Q37.8 25.7 38.1 26.55 L38.2 27.5 37.95 28.1 Q37.5 28.75 36.6 28.8 35.65 28.85 34.85 28.3 33.95 27.7 33.65 26.85 L33.55 26.35 33.8 25.3 34.15 24.95" fill="#ffffff" fill-rule="evenodd" stroke="none"/>
    <path d="M47.05 38.4 Q47.9 36.1 46.95 33.3 45.65 29.55 42.0 27.1 L41.2 26.65 Q39.1 25.4 36.9 25.05 36.05 24.55 35.15 24.6 34.55 24.65 34.15 24.95 31.35 25.25 29.6 26.8 L29.4 27.1 29.0 27.75 29.3 27.1 29.8 26.25 30.0 25.9 Q31.8 24.3 34.75 24.1 38.3 23.85 41.6 25.8 L42.4 26.25 Q46.05 28.7 47.35 32.45 48.45 35.8 47.05 38.4" fill="#e3fffe" fill-opacity="0.5019608" fill-rule="evenodd" stroke="none"/>
    <path d="M36.9 25.05 Q39.1 25.4 41.2 26.65 L42.0 27.1 Q45.65 29.55 46.95 33.3 47.9 36.1 47.05 38.4 L46.7 39.0 46.5 39.3 44.85 40.4 43.85 40.75 41.7 41.15 Q38.85 41.35 36.05 40.15 L34.1 39.0 Q30.4 36.55 29.15 32.8 28.2 30.05 29.0 27.75 L29.4 27.1 29.6 26.8 Q31.35 25.25 34.15 24.95 L33.8 25.3 33.55 26.35 33.65 26.85 Q33.95 27.7 34.85 28.3 35.65 28.85 36.6 28.8 37.5 28.75 37.95 28.1 L38.2 27.5 38.1 26.55 Q37.8 25.7 36.95 25.1 L36.9 25.05" fill="#a7d6d4" fill-opacity="0.5019608" fill-rule="evenodd" stroke="none"/>
    <path d="M34.15 24.95 Q34.55 24.65 35.15 24.6 36.05 24.55 36.9 25.05 L36.95 25.1 Q37.8 25.7 38.1 26.55 L38.2 27.5 37.95 28.1 Q37.5 28.75 36.6 28.8 35.65 28.85 34.85 28.3 33.95 27.7 33.65 26.85 L33.55 26.35 33.8 25.3 34.15 24.95" fill="#ffffff" fill-rule="evenodd" stroke="none"/>
    <path d="M47.05 38.4 Q47.9 36.1 46.95 33.3 45.65 29.55 42.0 27.1 L41.2 26.65 Q39.1 25.4 36.9 25.05 36.05 24.55 35.15 24.6 34.55 24.65 34.15 24.95 31.35 25.25 29.6 26.8 L29.4 27.1 29.0 27.75 29.3 27.1 29.8 26.25 30.0 25.9 Q31.8 24.3 34.75 24.1 38.3 23.85 41.6 25.8 L42.4 26.25 Q46.05 28.7 47.35 32.45 48.45 35.8 47.05 38.4" fill="#e3fffe" fill-opacity="0.5019608" fill-rule="evenodd" stroke="none"/>
  </g>
  <defs>
    <radialGradient cx="0" cy="0" gradientTransform="matrix(0.0409, -0.0141, 0.0184, 0.0533, 26.4, 11.95)" gradientUnits="userSpaceOnUse" id="gradient0" r="819.2" spreadMethod="pad">
      <stop offset="0.0" stop-color="#a09c2a"/>
      <stop offset="1.0" stop-color="#49471e"/>
    </radialGradient>
    <radialGradient cx="0" cy="0" gradientTransform="matrix(0.0211, -0.0122, 0.0202, 0.0349, 16.6, 38.35)" gradientUnits="userSpaceOnUse" id="gradient1" r="819.2" spreadMethod="pad">
      <stop offset="0.0" stop-color="#b3b02a" stop-opacity="0.5019608"/>
      <stop offset="1.0" stop-color="#59551f" stop-opacity="0.5019608"/>
    </radialGradient>
    <radialGradient cx="0" cy="0" gradientTransform="matrix(0.0455, 0.0, 0.0, 0.0455, 25.9, 7.65)" gradientUnits="userSpaceOnUse" id="gradient2" r="819.2" spreadMethod="pad">
      <stop offset="0.0" stop-color="#efed31"/>
      <stop offset="1.0" stop-color="#f0ec32" stop-opacity="0.3019608"/>
    </radialGradient>
    <radialGradient cx="0" cy="0" gradientTransform="matrix(0.0409, -0.0141, 0.0184, 0.0533, 26.4, 11.95)" gradientUnits="userSpaceOnUse" id="gradient3" r="819.2" spreadMethod="pad">
      <stop offset="0.0" stop-color="#a09c2a"/>
      <stop offset="1.0" stop-color="#49471e"/>
    </radialGradient>
    <radialGradient cx="0" cy="0" gradientTransform="matrix(0.0211, -0.0122, 0.0202, 0.0349, 16.6, 38.35)" gradientUnits="userSpaceOnUse" id="gradient4" r="819.2" spreadMethod="pad">
      <stop offset="0.0" stop-color="#b3b02a" stop-opacity="0.5019608"/>
      <stop offset="1.0" stop-color="#59551f" stop-opacity="0.5019608"/>
    </radialGradient>
    <radialGradient cx="0" cy="0" gradientTransform="matrix(0.0455, 0.0, 0.0, 0.0455, 25.9, 7.65)" gradientUnits="userSpaceOnUse" id="gradient5" r="819.2" spreadMethod="pad">
      <stop offset="0.0" stop-color="#efed31"/>
      <stop offset="1.0" stop-color="#f0ec32" stop-opacity="0.3019608"/>
    </radialGradient>
  </defs>
</svg>
