<?xml version="1.0" encoding="UTF-8" standalone="no"?>
<svg xmlns:ffdec="https://www.free-decompiler.com/flash" xmlns:xlink="http://www.w3.org/1999/xlink" ffdec:objectType="shape" height="41.2px" width="41.2px" xmlns="http://www.w3.org/2000/svg">
  <g transform="matrix(1.0, 0.0, 0.0, 1.0, 20.6, 20.6)">
    <path d="M10.55 -10.6 Q15.0 -6.2 15.0 0.0 15.0 6.25 10.55 10.6 6.2 15.0 0.0 15.0 -6.25 15.0 -10.65 10.6 -15.0 6.25 -15.0 0.0 -15.0 -6.2 -10.65 -10.6 -6.25 -15.0 0.0 -15.0 6.2 -15.0 10.55 -10.6" fill="#bb6005" fill-opacity="0.9490196" fill-rule="evenodd" stroke="none"/>
    <path d="M10.55 -10.6 Q15.0 -6.2 15.0 0.0 15.0 6.25 10.55 10.6 6.2 15.0 0.0 15.0 -6.25 15.0 -10.65 10.6 -15.0 6.25 -15.0 0.0 -15.0 -6.2 -10.65 -10.6 -6.25 -15.0 0.0 -15.0 6.2 -15.0 10.55 -10.6 Z" fill="none" stroke="url(#gradient0)" stroke-linecap="butt" stroke-linejoin="miter-clip" stroke-miterlimit="3.0" stroke-width="11.25"/>
  </g>
  <defs>
    <radialGradient cx="0" cy="0" gradientTransform="matrix(0.0254, 0.0, 0.0, 0.0247, 0.0, 0.0)" gradientUnits="userSpaceOnUse" id="gradient0" r="819.2" spreadMethod="pad">
      <stop offset="0.0" stop-color="#5b5959"/>
      <stop offset="1.0" stop-color="#272727"/>
    </radialGradient>
  </defs>
</svg>
