<?xml version="1.0" encoding="UTF-8" standalone="no"?>
<svg xmlns:ffdec="https://www.free-decompiler.com/flash" xmlns:xlink="http://www.w3.org/1999/xlink" ffdec:objectType="shape" height="57.4px" width="48.35px" xmlns="http://www.w3.org/2000/svg">
  <g transform="matrix(1.0, 0.0, 0.0, 1.0, 1.6, 7.9)">
    <path d="M10.9 -7.65 Q10.3 -7.65 10.0 -7.05 L10.0 21.65 2.7 21.65 0.85 22.1 Q0.35 22.15 -0.1 22.55 -1.1 23.5 -1.35 25.05 L-1.1 27.2 -0.2 29.05 0.85 30.1 17.85 44.85 Q20.4 46.65 22.55 46.75 L22.95 46.75 Q24.95 46.55 27.3 44.8 L44.4 30.1 46.4 26.85 46.5 26.05 46.5 49.5 -1.4 49.5 -1.4 -7.65 10.9 -7.65 M12.55 -6.7 L11.9 -7.35 11.15 -7.65 32.5 -7.65 31.1 -7.1 21.6 1.75 12.55 -6.7 M32.85 -7.65 L46.5 -7.65 46.5 25.05 Q46.45 23.35 45.35 22.55 L44.65 22.1 42.5 21.65 33.75 21.65 33.75 -6.25 Q33.6 -7.55 32.85 -7.65" fill="#ffffff" fill-opacity="0.0" fill-rule="evenodd" stroke="none"/>
    <path d="M10.0 21.65 L11.05 21.65 Q12.45 21.45 12.55 19.55 L12.55 -6.7 21.6 1.75 31.1 -7.1 32.5 -7.65 32.55 -7.65 32.55 20.15 Q32.6 21.55 33.75 21.65 L42.5 21.65 44.65 22.1 45.35 22.55 Q46.45 23.35 46.5 25.05 L46.5 26.05 46.4 26.85 44.4 30.1 Q45.65 27.3 45.55 25.6 45.5 24.15 44.35 23.55 L27.3 38.1 Q24.85 40.05 22.6 40.1 20.3 40.05 17.85 38.25 L0.7 23.55 Q-0.65 24.3 -0.65 26.2 -0.8 27.35 -0.2 29.05 L-1.1 27.2 -1.35 25.05 Q-1.1 23.5 -0.1 22.55 0.35 22.15 0.85 22.1 L2.7 21.65 10.0 21.65 M13.65 -0.85 L21.6 6.45 31.65 -2.35 31.65 -5.25 21.6 3.65 13.65 -3.75 13.65 -0.85" fill="#ff8811" fill-rule="evenodd" stroke="none"/>
    <path d="M10.0 21.65 L10.0 -7.05 Q10.3 -7.65 10.9 -7.65 L11.15 -7.65 11.9 -7.35 12.55 -6.7 12.55 19.55 Q12.45 21.45 11.05 21.65 L10.0 21.65 M32.55 -7.65 L32.85 -7.65 Q33.6 -7.55 33.75 -6.25 L33.75 21.65 Q32.6 21.55 32.55 20.15 L32.55 -7.65 M-0.2 29.05 Q-0.8 27.35 -0.65 26.2 -0.65 24.3 0.7 23.55 L17.85 38.25 Q20.3 40.05 22.6 40.1 24.85 40.05 27.3 38.1 L44.35 23.55 Q45.5 24.15 45.55 25.6 45.65 27.3 44.4 30.1 L27.3 44.8 Q24.95 46.55 22.95 46.75 L22.55 46.75 Q20.4 46.65 17.85 44.85 L0.85 30.1 -0.2 29.05" fill="#ad5a07" fill-rule="evenodd" stroke="none"/>
    <path d="M13.65 -0.85 L13.65 -3.75 21.6 3.65 31.65 -5.25 31.65 -2.35 21.6 6.45 13.65 -0.85" fill="#f7a654" fill-rule="evenodd" stroke="none"/>
    <path d="M12.55 -6.7 L11.9 -7.35 11.15 -7.65 10.9 -7.65 M32.55 -7.65 L32.85 -7.65 Q33.6 -7.55 33.75 -6.25 L33.75 21.65 42.5 21.65 44.65 22.1 45.35 22.55 Q46.45 23.35 46.5 25.05 L46.5 26.05" ffdec:has-small-stroke="true" ffdec:original-stroke-width="0.5" fill="none" stroke="#3d220d" stroke-linecap="butt" stroke-linejoin="miter-clip" stroke-miterlimit="3.0" stroke-width="1.0"/>
    <path d="M10.9 -7.65 Q10.3 -7.65 10.0 -7.05 L10.0 21.65 2.7 21.65 0.85 22.1 Q0.35 22.15 -0.1 22.55 -1.1 23.5 -1.35 25.05 L-1.1 27.2 -0.2 29.05 0.85 30.1 17.85 44.85 Q20.4 46.65 22.55 46.75 L22.95 46.75 Q24.95 46.55 27.3 44.8 L44.4 30.1 46.4 26.85 46.5 26.05" ffdec:has-small-stroke="true" ffdec:original-stroke-width="0.5" fill="none" stroke="#000000" stroke-linecap="butt" stroke-linejoin="miter-clip" stroke-miterlimit="3.0" stroke-width="1.0"/>
    <path d="M32.5 -7.65 L32.55 -7.65 M32.5 -7.65 L31.1 -7.1 21.6 1.75 12.55 -6.7" ffdec:has-small-stroke="true" ffdec:original-stroke-width="0.5" fill="none" stroke="#3d220d" stroke-linecap="butt" stroke-linejoin="miter-clip" stroke-miterlimit="3.0" stroke-width="1.0"/>
  </g>
</svg>
