<?xml version="1.0" encoding="UTF-8" standalone="no"?>
<svg xmlns:ffdec="https://www.free-decompiler.com/flash" xmlns:xlink="http://www.w3.org/1999/xlink" ffdec:objectType="shape" height="20.0px" width="20.0px" xmlns="http://www.w3.org/2000/svg">
  <g transform="matrix(1.0, 0.0, 0.0, 1.0, 0.0, 0.0)">
    <path d="M20.0 20.0 L0.0 20.0 0.0 0.0 20.0 0.0 20.0 20.0" fill="#396b80" fill-opacity="0.0" fill-rule="evenodd" stroke="none"/>
    <path d="M17.2 8.3 Q17.0 10.35 16.45 12.1 15.8 14.0 14.75 15.45 L13.3 17.0 12.2 17.8 10.25 18.7 8.65 18.0 8.3 17.8 7.2 17.0 Q5.1 15.2 4.05 12.1 3.55 10.35 3.3 8.3 L3.05 4.95 3.05 4.7 6.8 3.5 9.55 2.15 10.15 1.75 10.25 1.65 13.7 3.5 17.5 4.7 17.5 4.9 17.2 8.3 Z" fill="none" stroke="#3d220d" stroke-linecap="butt" stroke-linejoin="miter-clip" stroke-miterlimit="3.0" stroke-width="1.5"/>
    <path d="M10.4 2.7 L11.4 3.45 Q13.0 4.45 14.8 4.8 L16.55 5.05 16.3 8.35 15.55 12.1 Q14.5 15.2 12.4 16.95 L12.15 17.15 10.5 18.25 10.0 18.45 8.35 17.35 8.1 17.15 7.0 16.05 Q5.75 14.6 5.05 12.55 L4.95 12.3 4.9 12.1 3.95 5.25 5.35 5.1 5.7 5.0 Q7.5 4.65 9.1 3.65 L10.4 2.7" fill="#ff8811" fill-rule="evenodd" stroke="none"/>
    <path d="M10.15 1.75 L10.25 1.65 13.7 3.5 17.5 4.7 17.5 4.9 17.2 8.3 Q17.0 10.35 16.45 12.1 15.8 14.0 14.75 15.45 L13.3 17.0 12.2 17.8 10.25 18.7 9.9 18.55 9.9 18.5 10.0 18.45 10.5 18.25 12.15 17.15 12.4 16.95 Q14.5 15.2 15.55 12.1 L16.3 8.35 16.55 5.05 14.8 4.8 Q13.0 4.45 11.4 3.45 L10.4 2.7 10.55 2.3 10.35 2.1 10.15 1.75" fill="#ad5a07" fill-rule="evenodd" stroke="none"/>
    <path d="M9.9 18.55 L8.65 18.0 8.3 17.8 7.2 17.0 Q5.1 15.2 4.05 12.1 3.55 10.35 3.3 8.3 L3.05 4.95 3.05 4.7 6.8 3.5 9.55 2.15 10.15 1.75 10.35 2.1 10.55 2.3 10.4 2.7 9.1 3.65 Q7.5 4.65 5.7 5.0 L5.35 5.1 3.95 5.25 4.9 12.1 4.95 12.3 5.05 12.55 Q5.75 14.6 7.0 16.05 L8.1 17.15 8.35 17.35 10.0 18.45 9.9 18.5 9.9 18.55" fill="#eca45d" fill-rule="evenodd" stroke="none"/>
  </g>
</svg>
