<?xml version="1.0" encoding="UTF-8" standalone="no"?>
<svg xmlns:ffdec="https://www.free-decompiler.com/flash" xmlns:xlink="http://www.w3.org/1999/xlink" ffdec:objectType="shape" height="24.95px" width="102.25px" xmlns="http://www.w3.org/2000/svg">
  <g transform="matrix(1.0, 0.0, 0.0, 1.0, 0.0, 0.0)">
    <path d="M102.25 7.05 L102.25 17.95 Q102.25 24.95 95.2 24.95 L7.1 24.95 Q0.0 24.95 0.0 17.95 L0.0 7.05 Q0.0 0.0 7.1 0.0 L95.2 0.0 Q102.25 0.0 102.25 7.05 M100.75 12.4 L100.75 7.05 Q100.75 1.5 95.2 1.5 L7.1 1.5 Q1.5 1.5 1.5 7.05 L1.5 13.25 1.5 17.95 Q1.5 23.5 7.1 23.5 L95.2 23.5 Q100.75 23.5 100.75 17.95 L100.75 12.4" fill="#af4300" fill-rule="evenodd" stroke="none"/>
    <path d="M1.5 13.25 L1.5 7.05 Q1.5 1.5 7.1 1.5 L95.2 1.5 Q100.75 1.5 100.75 7.05 L100.75 12.4 94.2 14.15 Q84.95 15.9 75.5 15.75 L71.95 15.6 Q62.45 15.1 52.85 12.7 L52.2 12.45 Q30.55 8.4 10.35 11.35 6.6 11.95 2.85 12.9 L1.5 13.25 M94.45 4.85 Q99.35 4.85 99.5 9.65 L99.5 7.95 Q99.5 2.85 94.45 2.85 L7.95 2.85 Q2.85 2.85 2.85 7.95 L2.85 9.65 Q3.0 4.85 7.95 4.85 L94.45 4.85" fill="url(#gradient0)" fill-rule="evenodd" stroke="none"/>
    <path d="M1.5 13.25 L2.85 12.9 Q6.6 11.95 10.35 11.35 30.55 8.4 52.2 12.45 L52.85 12.7 Q62.45 15.1 71.95 15.6 L75.5 15.75 Q84.95 15.9 94.2 14.15 L100.75 12.4 100.75 17.95 Q100.75 23.5 95.2 23.5 L7.1 23.5 Q1.5 23.5 1.5 17.95 L1.5 13.25" fill="url(#gradient1)" fill-rule="evenodd" stroke="none"/>
    <path d="M94.45 4.85 L7.95 4.85 Q3.0 4.85 2.85 9.65 L2.85 7.95 Q2.85 2.85 7.95 2.85 L94.45 2.85 Q99.5 2.85 99.5 7.95 L99.5 9.65 Q99.35 4.85 94.45 4.85" fill="url(#gradient2)" fill-rule="evenodd" stroke="none"/>
  </g>
  <defs>
    <linearGradient gradientTransform="matrix(0.0, -0.0062, 0.0606, 0.0, 51.1, 4.9)" gradientUnits="userSpaceOnUse" id="gradient0" spreadMethod="pad" x1="-819.2" x2="819.2">
      <stop offset="0.0" stop-color="#ffd800"/>
      <stop offset="1.0" stop-color="#f9b500"/>
    </linearGradient>
    <linearGradient gradientTransform="matrix(0.0, 0.0074, -0.0603, 0.0, 50.1, 17.35)" gradientUnits="userSpaceOnUse" id="gradient1" spreadMethod="pad" x1="-819.2" x2="819.2">
      <stop offset="0.0" stop-color="#f59900"/>
      <stop offset="1.0" stop-color="#fabc00"/>
    </linearGradient>
    <linearGradient gradientTransform="matrix(0.0, 0.0025, -0.0534, 0.0, 46.7, 5.5)" gradientUnits="userSpaceOnUse" id="gradient2" spreadMethod="pad" x1="-819.2" x2="819.2">
      <stop offset="0.0" stop-color="#feeba3"/>
      <stop offset="1.0" stop-color="#fdd000"/>
    </linearGradient>
  </defs>
</svg>
