<?xml version="1.0" encoding="UTF-8" standalone="no"?>
<svg xmlns:ffdec="https://www.free-decompiler.com/flash" xmlns:xlink="http://www.w3.org/1999/xlink" ffdec:objectType="shape" height="53.0px" width="68.0px" xmlns="http://www.w3.org/2000/svg">
  <g transform="matrix(1.0, 0.0, 0.0, 1.0, 0.0, 0.0)">
    <path d="M0.0 45.45 L0.0 7.6 Q0.0 0.0 7.6 0.0 L68.0 0.0 68.0 53.0 7.6 53.0 Q0.0 53.0 0.0 45.45" fill="#bfb5ac" fill-rule="evenodd" stroke="none"/>
    <path d="M68.0 0.65 L68.0 5.65 8.0 5.65 Q1.35 5.65 1.2 12.15 L1.2 7.45 Q1.2 0.65 8.0 0.65 L68.0 0.65" fill="url(#gradient0)" fill-rule="evenodd" stroke="none"/>
    <path d="M54.05 33.75 Q60.7 33.95 68.0 31.6 L68.0 51.55 8.0 51.55 Q1.2 51.55 1.2 44.75 L1.2 30.9 Q1.3 27.95 5.25 26.05 8.65 24.4 12.2 24.5 20.95 24.7 27.4 26.1 33.1 27.45 40.2 30.55 47.1 33.5 54.05 33.75" fill="url(#gradient1)" fill-rule="evenodd" stroke="none"/>
    <path d="M38.95 26.2 L40.0 24.85 Q42.0 22.05 43.25 18.85 44.2 16.55 44.65 14.15 L44.9 12.3 38.4 12.2 38.1 12.15 37.25 15.15 37.85 15.05 38.2 14.9 38.1 15.05 38.05 15.1 37.65 15.55 36.95 16.1 35.7 18.85 35.45 19.45 33.9 21.75 Q32.9 22.75 32.0 22.9 L31.65 23.0 30.9 23.0 30.6 22.9 30.65 18.35 30.65 16.5 29.65 16.7 29.45 16.7 29.45 16.55 31.3 15.55 31.4 14.05 31.5 12.2 31.45 12.2 23.95 13.25 23.7 16.7 23.8 16.75 24.5 16.95 23.8 17.15 23.7 17.15 23.45 17.2 22.85 17.4 22.55 23.45 22.7 23.5 23.75 23.7 23.7 23.9 22.5 24.8 21.8 39.25 21.85 39.75 22.2 40.4 23.05 40.8 30.05 41.05 Q31.35 41.05 31.45 39.9 L31.45 39.25 31.45 31.1 32.45 30.45 33.25 32.35 35.3 32.8 35.4 32.8 33.8 33.75 34.3 35.15 34.6 35.15 35.4 35.15 34.7 36.3 35.2 37.4 36.0 39.4 Q36.55 40.6 37.9 40.65 L44.35 41.0 Q45.6 41.1 45.9 39.95 46.15 39.1 45.85 37.7 L45.6 36.7 38.95 26.2 M47.05 40.3 Q46.5 42.35 44.3 42.2 L37.85 41.8 Q35.75 41.7 34.95 39.9 L33.65 36.75 Q33.45 36.4 33.6 36.05 L33.25 35.6 32.65 34.15 32.65 39.25 32.65 40.1 32.65 40.15 Q32.4 42.25 30.05 42.25 L23.05 42.0 22.7 41.95 21.5 41.35 21.35 41.15 20.75 40.15 20.75 40.05 20.65 39.25 21.35 24.75 21.55 24.1 21.4 23.4 21.7 17.3 Q21.7 16.85 22.1 16.5 22.3 16.3 22.55 16.25 L22.75 13.2 23.1 12.5 Q23.35 12.15 23.75 12.1 L31.3 11.0 31.45 11.0 31.5 11.0 32.15 11.2 32.6 11.65 32.7 12.3 32.45 15.7 32.05 16.45 31.8 16.6 31.75 21.8 33.05 21.0 33.05 20.9 34.4 19.05 34.65 18.45 34.7 18.35 35.8 15.7 36.05 15.3 36.1 14.8 37.0 11.8 Q37.2 11.3 37.6 11.1 L38.55 11.0 44.95 11.15 45.55 11.4 45.95 11.85 46.05 12.5 45.85 14.3 45.85 14.4 Q45.3 16.9 44.35 19.35 43.05 22.55 41.0 25.5 L40.4 26.35 46.6 36.05 46.8 36.45 47.0 37.4 47.0 37.45 Q47.35 39.25 47.0 40.3 L47.05 40.3" fill="url(#gradient2)" fill-rule="evenodd" stroke="none"/>
    <path d="M44.65 14.15 Q44.2 16.55 43.25 18.85 42.0 22.05 40.0 24.85 L38.95 26.2 38.95 28.05 45.6 38.5 45.9 39.95 Q45.6 41.1 44.35 41.0 L37.9 40.65 Q36.55 40.6 36.0 39.4 L35.2 37.4 35.4 37.0 35.4 35.15 34.6 35.15 35.3 34.75 35.4 32.8 35.3 32.8 33.25 32.35 32.45 30.45 31.45 31.1 31.45 39.25 31.45 39.9 Q31.35 41.05 30.05 41.05 L23.05 40.8 22.2 40.4 21.85 39.75 22.5 26.65 23.4 26.0 23.85 25.55 23.8 25.5 23.85 23.7 23.75 23.7 22.7 23.5 22.85 19.2 23.45 19.05 23.7 18.95 24.4 18.85 24.5 16.95 23.8 16.75 23.95 15.1 31.4 14.05 31.3 15.55 29.45 16.55 28.95 16.8 29.0 18.6 29.45 18.55 29.5 18.5 29.65 18.5 30.65 18.35 30.6 22.9 30.6 24.75 30.9 24.8 31.65 24.8 32.0 24.75 Q32.9 24.55 33.9 23.55 L34.65 22.7 35.45 21.25 35.7 20.7 36.95 17.9 37.75 17.3 38.05 16.9 38.2 16.8 38.1 16.75 38.1 16.25 38.1 15.95 38.1 15.05 38.2 14.9 37.85 15.05 38.1 13.95 38.4 14.05 44.65 14.15" fill="url(#gradient3)" fill-rule="evenodd" stroke="none"/>
    <path d="M38.95 26.2 L45.6 36.7 45.85 37.7 Q46.15 39.1 45.9 39.95 L45.6 38.5 38.95 28.05 38.95 26.2 M35.2 37.4 L34.7 36.3 35.4 35.15 35.4 37.0 35.2 37.4 M34.6 35.15 L34.3 35.15 33.8 33.75 35.4 32.8 35.3 34.75 34.6 35.15 M21.85 39.75 L21.8 39.25 22.5 24.8 23.7 23.9 23.85 23.7 23.8 25.5 23.85 25.55 23.4 26.0 22.5 26.65 21.85 39.75 M22.7 23.5 L22.55 23.45 22.85 17.4 23.45 17.2 23.7 17.15 23.8 17.15 24.5 16.95 24.4 18.85 23.7 18.95 23.45 19.05 22.85 19.2 22.7 23.5 M23.8 16.75 L23.7 16.7 23.95 13.25 31.45 12.2 31.5 12.2 31.4 14.05 23.95 15.1 23.8 16.75 M29.45 16.7 L29.65 16.7 30.65 16.5 30.65 18.35 29.65 18.5 29.5 18.5 29.45 18.55 29.0 18.6 28.95 16.8 29.45 16.7 M30.6 22.9 L30.9 23.0 31.65 23.0 32.0 22.9 Q32.9 22.75 33.9 21.75 L35.45 19.45 35.7 18.85 36.95 16.1 37.65 15.55 38.05 15.1 38.1 15.05 38.1 15.95 38.1 16.25 38.1 16.75 38.2 16.8 38.05 16.9 37.75 17.3 36.95 17.9 35.7 20.7 35.45 21.25 34.65 22.7 33.9 23.55 Q32.9 24.55 32.0 24.75 L31.65 24.8 30.9 24.8 30.6 24.75 30.6 22.9 M37.85 15.05 L37.25 15.15 38.1 12.15 38.4 12.2 44.9 12.3 44.65 14.15 38.4 14.05 38.1 13.95 37.85 15.05 M47.05 40.3 L47.0 40.3 47.05 40.25 47.05 40.3" fill="#9b3206" fill-rule="evenodd" stroke="none"/>
  </g>
  <defs>
    <linearGradient gradientTransform="matrix(0.0433, 8.0E-4, -1.0E-4, 0.0077, 40.45, 6.45)" gradientUnits="userSpaceOnUse" id="gradient0" spreadMethod="pad" x1="-819.2" x2="819.2">
      <stop offset="0.0" stop-color="#ffffff" stop-opacity="0.3019608"/>
      <stop offset="1.0" stop-color="#ffffff" stop-opacity="0.0"/>
    </linearGradient>
    <linearGradient gradientTransform="matrix(0.0, -0.0241, 0.041, 0.0, 34.8, 29.9)" gradientUnits="userSpaceOnUse" id="gradient1" spreadMethod="pad" x1="-819.2" x2="819.2">
      <stop offset="0.0" stop-color="#000000" stop-opacity="0.15294118"/>
      <stop offset="1.0" stop-color="#000000" stop-opacity="0.0"/>
    </linearGradient>
    <linearGradient gradientTransform="matrix(0.0, 0.0095, -0.0191, 0.0, 28.15, 33.2)" gradientUnits="userSpaceOnUse" id="gradient2" spreadMethod="pad" x1="-819.2" x2="819.2">
      <stop offset="0.0" stop-color="#ffffff" stop-opacity="0.0"/>
      <stop offset="1.0" stop-color="#ffffff" stop-opacity="0.4"/>
    </linearGradient>
    <linearGradient gradientTransform="matrix(0.0, 0.0263, -0.0263, 0.0, 32.65, 33.35)" gradientUnits="userSpaceOnUse" id="gradient3" spreadMethod="pad" x1="-819.2" x2="819.2">
      <stop offset="0.0" stop-color="#f99533"/>
      <stop offset="1.0" stop-color="#f7541e"/>
    </linearGradient>
  </defs>
</svg>
