<?xml version="1.0" encoding="UTF-8" standalone="no"?>
<svg xmlns:ffdec="https://www.free-decompiler.com/flash" xmlns:xlink="http://www.w3.org/1999/xlink" ffdec:objectType="shape" height="180.25px" width="141.35px" xmlns="http://www.w3.org/2000/svg">
  <g transform="matrix(1.0, 0.0, 0.0, 1.0, -186.15, -2.2)">
    <path d="M317.3 32.8 L317.75 36.5 317.75 121.35 317.3 126.6 Q316.25 142.65 300.1 143.45 L214.25 143.45 Q197.5 142.65 197.2 124.85 L197.2 34.75 Q197.5 16.9 214.25 16.1 L300.1 16.1 Q316.1 16.9 317.3 32.8" fill="#04ada8" fill-rule="evenodd" stroke="none"/>
    <path d="M197.8 110.2 L318.35 110.2 318.35 136.6 197.8 136.6 197.8 110.2" fill="#000000" fill-opacity="0.5019608" fill-rule="evenodd" stroke="none"/>
    <path d="M316.75 23.45 L316.75 23.6 316.6 23.45 316.9 24.05 317.05 24.65 317.2 24.9 317.5 24.75 318.95 28.45 319.25 29.9 319.55 34.15 319.55 121.7 Q319.4 129.75 315.15 134.1 L313.7 135.45 Q309.15 138.95 301.1 139.1 L212.55 139.1 Q201.4 138.95 197.05 132.2 194.4 128.15 194.25 121.7 L194.25 34.15 Q194.4 30.2 195.3 27.25 L196.0 25.35 197.2 23.3 Q196.6 24.75 196.15 26.4 L195.7 28.45 195.7 28.85 Q195.4 30.35 195.4 31.95 L195.55 31.95 Q195.55 30.35 195.85 28.85 L195.85 28.45 196.3 26.55 197.6 23.45 199.2 20.1 Q203.45 14.85 212.65 14.4 L301.1 14.4 Q313.1 15.0 316.75 23.45 M315.3 37.05 L315.45 37.05 315.3 36.05 314.85 32.65 Q313.7 18.05 298.2 17.3 L215.0 17.3 Q198.8 18.05 198.5 34.4 L198.5 117.15 Q198.8 133.55 215.0 134.25 L298.2 134.25 Q313.85 133.55 314.85 118.75 315.3 116.45 315.3 113.95 L315.3 37.05 M317.05 127.55 L317.8 125.05 318.35 120.1 317.5 125.8 317.05 127.1 317.05 127.55 M195.55 122.0 L195.55 122.3 196.75 127.25 197.6 129.0 196.45 125.8 195.55 120.1 195.4 120.1 195.55 122.0" fill="#685539" fill-rule="evenodd" stroke="none"/>
    <path d="M316.75 23.6 L316.9 23.9 317.05 24.05 317.35 24.75 317.2 24.9 317.05 24.65 316.9 24.05 316.6 23.45 316.75 23.6" fill="#4f3d2f" fill-rule="evenodd" stroke="none"/>
    <path d="M327.0 20.25 L327.0 131.35 Q326.85 143.35 318.35 147.15 L315.75 148.0 Q312.8 148.9 309.0 148.9 L204.8 148.9 Q201.1 148.9 198.2 148.0 L195.55 147.15 Q186.8 143.35 186.65 131.35 L186.65 20.25 Q186.8 13.5 189.55 9.4 193.8 2.85 204.8 2.7 L309.0 2.7 Q319.95 2.85 324.2 9.4 326.85 13.5 327.0 20.25 M316.9 23.9 L316.75 23.45 Q313.1 15.0 301.1 14.4 L212.65 14.4 Q203.45 14.85 199.2 20.1 L197.6 23.45 197.2 23.3 196.0 25.35 195.3 27.25 Q194.4 30.2 194.25 34.15 L194.25 121.7 Q194.4 128.15 197.05 132.2 201.4 138.95 212.55 139.1 L301.1 139.1 Q309.15 138.95 313.7 135.45 L315.15 134.1 Q319.4 129.75 319.55 121.7 L319.55 34.15 319.25 29.9 318.95 28.45 317.5 24.75 317.35 24.75 317.05 24.05 316.9 23.9 M323.2 22.3 Q322.9 5.05 305.05 4.75 L208.0 4.75 Q190.15 5.05 189.85 22.3 L189.85 27.55 Q190.3 10.75 208.0 10.45 L305.05 10.45 Q322.75 10.75 323.2 27.55 L323.2 22.3" fill="#d7d0b9" fill-rule="evenodd" stroke="none"/>
    <path d="M316.75 23.45 L316.9 23.9 316.75 23.6 316.75 23.45" fill="#291812" fill-rule="evenodd" stroke="none"/>
    <path d="M317.35 24.75 L317.5 24.75 317.2 24.9 317.35 24.75" fill="#5f5753" fill-rule="evenodd" stroke="none"/>
    <path d="M315.3 36.05 L315.45 37.05 315.3 37.05 315.3 36.05" fill="#302b28" fill-rule="evenodd" stroke="none"/>
    <path d="M323.2 22.3 L323.2 27.55 Q322.75 10.75 305.05 10.45 L208.0 10.45 Q190.3 10.75 189.85 27.55 L189.85 22.3 Q190.15 5.05 208.0 4.75 L305.05 4.75 Q322.9 5.05 323.2 22.3" fill="#eae7db" fill-rule="evenodd" stroke="none"/>
    <path d="M197.2 23.3 L197.6 23.45 196.3 26.55 196.15 26.4 Q196.6 24.75 197.2 23.3" fill="url(#gradient0)" fill-rule="evenodd" stroke="none"/>
    <path d="M196.15 26.4 L196.3 26.55 195.85 28.45 195.85 28.85 Q195.55 30.35 195.55 31.95 L195.4 31.95 Q195.4 30.35 195.7 28.85 L195.7 28.45 196.15 26.4 M195.55 122.0 L195.4 120.1 195.55 120.1 196.45 125.8 197.6 129.0 196.75 127.25 195.55 122.3 195.55 122.0 M317.05 127.55 L317.05 127.1 317.5 125.8 318.35 120.1 317.8 125.05 317.05 127.55" fill="url(#gradient1)" fill-rule="evenodd" stroke="none"/>
    <path d="M327.0 20.25 L327.0 131.35 Q326.85 143.35 318.35 147.15 L315.75 148.0 Q312.8 148.9 309.0 148.9 L204.8 148.9 Q201.1 148.9 198.2 148.0 L195.55 147.15 Q186.8 143.35 186.65 131.35 L186.65 20.25 Q186.8 13.5 189.55 9.4 193.8 2.85 204.8 2.7 L309.0 2.7 Q319.95 2.85 324.2 9.4 326.85 13.5 327.0 20.25 Z" fill="none" stroke="#000000" stroke-linecap="butt" stroke-linejoin="miter-clip" stroke-miterlimit="3.0" stroke-opacity="0.3019608" stroke-width="1.0"/>
    <path d="M302.3 22.75 Q307.1 25.2 309.15 30.75 L310.05 34.7 310.05 36.45 309.9 36.05 309.0 35.15 Q307.1 32.95 303.45 31.35 294.4 26.7 281.8 30.6 279.5 31.35 275.95 33.1 270.4 35.75 262.1 41.15 256.8 44.5 252.6 47.45 L237.95 56.35 Q224.95 64.25 216.9 66.0 207.4 68.5 202.6 62.8 L201.85 61.6 201.85 40.0 Q201.7 35.3 202.6 32.4 L203.0 31.2 Q204.35 27.55 206.7 25.2 208.6 23.0 211.5 22.0 211.5 21.85 211.65 21.85 214.0 20.95 216.6 20.4 L291.75 20.25 297.45 20.95 Q300.1 21.4 302.3 22.75" fill="#ffffff" fill-opacity="0.15294118" fill-rule="evenodd" stroke="none"/>
    <path d="M301.1 14.4 Q313.1 15.0 316.75 23.45 L316.6 23.45 316.9 24.05 317.95 27.55 318.35 31.95 318.35 120.1 317.5 125.8 316.3 129.0 315.75 129.0 315.75 129.9 314.15 131.95 313.7 132.35 Q309.3 136.9 300.4 137.05 L213.4 137.05 Q202.45 136.9 198.2 130.2 L198.2 130.05 198.05 130.05 196.45 125.8 195.55 120.1 195.55 31.95 Q195.55 29.6 196.0 27.55 198.2 15.0 212.65 14.4 L301.1 14.4 M314.85 32.65 Q313.7 18.05 298.2 17.3 L215.0 17.3 Q198.8 18.05 198.5 34.4 L198.5 117.15 Q198.8 133.55 215.0 134.25 L298.2 134.25 Q313.85 133.55 314.85 118.75 315.3 116.45 315.3 113.95 L315.3 36.05 314.85 32.65" fill="#766245" fill-rule="evenodd" stroke="none"/>
    <path d="M219.6 143.8 L294.4 143.8 Q300.5 143.85 305.0 148.25 L306.8 145.4 308.25 146.85 310.35 149.75 308.1 152.2 Q309.55 154.55 310.3 157.2 L311.85 156.4 Q312.55 159.2 312.65 162.3 L310.95 162.7 310.95 162.85 Q310.95 170.8 306.05 176.35 301.25 181.9 294.4 181.95 L219.6 181.95 Q212.8 181.9 207.95 176.35 203.0 170.8 203.0 162.85 L203.0 162.7 201.35 162.3 Q201.4 159.2 202.2 156.4 L203.7 157.2 Q204.5 154.55 205.85 152.2 L203.6 149.75 Q204.55 148.25 205.8 146.85 L207.15 145.4 208.95 148.25 Q213.5 143.85 219.6 143.8 M212.85 153.35 L212.8 153.7 212.35 154.15 212.35 154.2 Q211.2 155.45 210.55 156.85 L210.25 157.15 209.85 157.2 209.4 157.05 208.8 156.3 Q208.25 157.45 207.95 158.75 L209.2 159.4 209.4 159.7 209.45 160.05 Q209.2 161.4 209.2 162.85 L209.25 163.9 209.15 164.3 208.85 164.5 208.4 164.55 207.45 164.35 Q207.9 169.3 211.1 172.95 214.65 177.0 219.6 177.05 L294.4 177.05 Q299.35 177.0 303.0 172.95 306.15 169.3 306.55 164.35 L305.6 164.55 305.2 164.5 304.95 164.3 304.8 163.9 304.85 162.85 304.55 160.05 304.55 159.7 304.9 159.4 306.1 158.75 305.2 156.3 304.55 157.05 304.2 157.2 303.75 157.15 303.45 156.85 Q302.8 155.45 301.7 154.2 L301.65 154.15 301.05 153.35 301.25 153.0 302.0 151.75 Q298.75 148.75 294.4 148.7 L219.6 148.7 Q215.25 148.75 212.05 151.75 L212.85 153.0 212.85 153.35" fill="#d7d0b9" fill-rule="evenodd" stroke="none"/>
    <path d="M212.85 153.35 L212.85 153.0 212.05 151.75 Q215.25 148.75 219.6 148.7 L294.4 148.7 Q298.75 148.75 302.0 151.75 L301.25 153.0 301.05 153.35 301.65 154.15 301.7 154.2 Q302.8 155.45 303.45 156.85 L303.75 157.15 304.2 157.2 304.55 157.05 305.2 156.3 306.1 158.75 304.9 159.4 304.55 159.7 304.55 160.05 304.85 162.85 304.8 163.9 304.95 164.3 305.2 164.5 305.6 164.55 306.55 164.35 Q306.15 169.3 303.0 172.95 299.35 177.0 294.4 177.05 L219.6 177.05 Q214.65 177.0 211.1 172.95 207.9 169.3 207.45 164.35 L208.4 164.55 208.85 164.5 209.15 164.3 209.25 163.9 209.2 162.85 Q209.2 161.4 209.45 160.05 L209.4 159.7 209.2 159.4 207.95 158.75 Q208.25 157.45 208.8 156.3 L209.4 157.05 209.85 157.2 210.25 157.15 210.55 156.85 Q211.2 155.45 212.35 154.2 L212.35 154.15 212.8 153.7 212.85 153.35" fill="#b6a47c" fill-rule="evenodd" stroke="none"/>
    <path d="M212.85 153.35 L212.85 153.0 212.05 151.75 Q215.25 148.75 219.6 148.7 L294.4 148.7 Q298.75 148.75 302.0 151.75 L301.25 153.0 301.05 153.35 301.65 154.15 301.7 154.2 Q302.8 155.45 303.45 156.85 L303.75 157.15 304.2 157.2 304.55 157.05 305.2 156.3 306.1 158.75 304.9 159.4 304.55 159.7 304.55 160.05 304.85 162.85 304.8 163.9 304.95 164.3 305.2 164.5 305.6 164.55 306.55 164.35 Q306.15 169.3 303.0 172.95 299.35 177.0 294.4 177.05 L219.6 177.05 Q214.65 177.0 211.1 172.95 207.9 169.3 207.45 164.35 L208.4 164.55 208.85 164.5 209.15 164.3 209.25 163.9 209.2 162.85 Q209.2 161.4 209.45 160.05 L209.4 159.7 209.2 159.4 207.95 158.75 Q208.25 157.45 208.8 156.3 L209.4 157.05 209.85 157.2 210.25 157.15 210.55 156.85 Q211.2 155.45 212.35 154.2 L212.35 154.15 212.8 153.7 212.85 153.35" fill="none" stroke="#766245" stroke-linecap="butt" stroke-linejoin="miter-clip" stroke-miterlimit="3.0" stroke-width="1.5"/>
    <path d="M219.6 143.8 L294.4 143.8 Q300.5 143.85 305.0 148.25 L306.8 145.4 308.25 146.85 310.35 149.75 308.1 152.2 Q309.55 154.55 310.3 157.2 L311.85 156.4 Q312.55 159.2 312.65 162.3 L310.95 162.7 310.95 162.85 Q310.95 170.8 306.05 176.35 301.25 181.9 294.4 181.95 L219.6 181.95 Q212.8 181.9 207.95 176.35 203.0 170.8 203.0 162.85 L203.0 162.7 201.35 162.3 Q201.4 159.2 202.2 156.4 L203.7 157.2 Q204.5 154.55 205.85 152.2 L203.6 149.75 Q204.55 148.25 205.8 146.85 L207.15 145.4 208.95 148.25 Q213.5 143.85 219.6 143.8 Z" fill="none" stroke="url(#gradient2)" stroke-linecap="butt" stroke-linejoin="miter-clip" stroke-miterlimit="3.0" stroke-width="1.0"/>
  </g>
  <defs>
    <linearGradient gradientTransform="matrix(0.0, 0.0927, -0.0857, 0.0, 256.8, 105.9)" gradientUnits="userSpaceOnUse" id="gradient0" spreadMethod="pad" x1="-819.2" x2="819.2">
      <stop offset="0.0" stop-color="#2e2724"/>
      <stop offset="1.0" stop-color="#443a35"/>
    </linearGradient>
    <linearGradient gradientTransform="matrix(0.0, -0.0865, 0.0871, 0.0, 259.3, 90.1)" gradientUnits="userSpaceOnUse" id="gradient1" spreadMethod="pad" x1="-819.2" x2="819.2">
      <stop offset="0.011764705882352941" stop-color="#8e8179"/>
      <stop offset="0.17254901960784313" stop-color="#766759"/>
      <stop offset="0.6313725490196078" stop-color="#a5a097"/>
      <stop offset="1.0" stop-color="#a7a299"/>
    </linearGradient>
    <linearGradient gradientTransform="matrix(3.0E-4, -0.0626, 0.0261, 1.0E-4, 256.95, 162.85)" gradientUnits="userSpaceOnUse" id="gradient2" spreadMethod="pad" x1="-819.2" x2="819.2">
      <stop offset="0.0" stop-color="#000000" stop-opacity="0.3019608"/>
      <stop offset="1.0" stop-color="#000000" stop-opacity="0.0"/>
    </linearGradient>
  </defs>
</svg>
