<?xml version="1.0" encoding="UTF-8" standalone="no"?>
<svg xmlns:ffdec="https://www.free-decompiler.com/flash" xmlns:xlink="http://www.w3.org/1999/xlink" ffdec:objectType="shape" height="32.0px" width="32.05px" xmlns="http://www.w3.org/2000/svg">
  <g transform="matrix(1.0, 0.0, 0.0, 1.0, 0.0, -0.05)">
    <path d="M31.0 1.8 L30.05 3.5 29.4 2.85 29.35 1.95 30.5 1.3 31.0 1.8 M30.95 10.2 L31.3 11.2 31.45 11.6 31.75 13.05 31.85 13.6 32.0 15.4 32.05 16.05 32.0 16.6 31.9 18.1 31.45 20.4 31.0 21.85 30.05 23.8 30.05 23.85 29.95 24.0 28.25 26.4 28.2 26.45 28.1 26.55 27.35 27.35 27.3 27.4 26.3 28.3 25.65 28.85 24.95 29.35 24.75 29.5 23.15 30.4 21.85 31.0 20.85 31.35 20.5 31.45 19.0 31.8 18.45 31.9 16.65 32.05 16.0 32.05 15.45 32.05 14.0 31.95 11.65 31.5 10.2 31.05 8.25 30.1 8.2 30.1 8.05 30.0 5.65 28.3 5.6 28.2 5.5 28.15 4.7 27.4 4.65 27.35 3.75 26.35 3.2 25.7 2.7 25.0 2.55 24.75 1.65 23.2 1.05 21.9 0.7 20.9 0.6 20.5 0.25 19.05 0.15 18.5 0.0 16.7 0.0 16.05 0.0 15.5 0.1 14.0 Q0.25 12.8 0.55 11.7 L1.0 10.25 1.95 8.25 2.05 8.1 3.75 5.7 3.85 5.6 3.9 5.55 4.65 4.75 4.7 4.7 5.7 3.8 6.35 3.25 7.05 2.75 7.3 2.6 8.85 1.65 10.15 1.1 11.15 0.75 11.55 0.6 13.0 0.3 13.6 0.2 15.35 0.05 16.0 0.05 16.55 0.05 18.05 0.15 20.35 0.6 21.8 1.05 Q22.8 1.45 23.8 2.0 L23.95 2.1 26.35 3.8 26.45 3.85 26.5 3.95 27.3 4.7 27.35 4.75 28.3 5.75 28.8 6.4 29.35 7.1 29.5 7.3 30.4 8.9 30.95 10.2 M3.15 2.95 L4.05 2.8 4.7 4.05 4.2 4.55 2.55 3.55 3.15 2.95 M29.25 4.05 L28.0 4.75 27.5 4.25 28.5 2.6 29.1 3.2 29.25 4.05 M2.85 2.65 L1.95 2.7 1.25 1.55 1.75 1.05 3.45 2.0 2.85 2.65 M2.0 28.6 L2.6 29.25 2.7 30.15 1.55 30.8 1.05 30.3 2.0 28.6 M2.95 28.9 L2.8 28.0 4.0 27.35 4.5 27.85 3.5 29.5 2.95 28.9 M30.1 29.4 L30.75 30.5 30.25 31.0 28.6 30.05 29.2 29.45 30.1 29.4 M29.45 28.55 L28.85 29.15 28.0 29.3 27.3 28.05 27.8 27.55 29.45 28.55" fill="#000000" fill-rule="evenodd" stroke="none"/>
  </g>
</svg>
