<?xml version="1.0" encoding="UTF-8" standalone="no"?>
<svg xmlns:ffdec="https://www.free-decompiler.com/flash" xmlns:xlink="http://www.w3.org/1999/xlink" ffdec:objectType="shape" height="46.8px" width="46.8px" xmlns="http://www.w3.org/2000/svg">
  <g transform="matrix(1.0, 0.0, 0.0, 1.0, 23.65, 23.3)">
    <path d="M-0.25 -23.3 Q9.45 -23.3 16.3 -16.45 23.1 -9.6 23.15 0.1 23.1 9.8 16.3 16.7 9.45 23.5 -0.25 23.5 L-0.5 23.5 Q-10.05 23.45 -16.8 16.7 -23.65 9.8 -23.65 0.1 -23.65 -9.6 -16.8 -16.45 -10.0 -23.3 -0.25 -23.3" fill="url(#gradient0)" fill-rule="evenodd" stroke="none"/>
    <path d="M-0.25 -23.3 Q9.45 -23.3 16.3 -16.45 23.1 -9.6 23.15 0.1 23.1 9.8 16.3 16.7 9.45 23.5 -0.25 23.5 L-0.5 23.5 Q-10.05 23.45 -16.8 16.7 -23.65 9.8 -23.65 0.1 -23.65 -9.6 -16.8 -16.45 -10.0 -23.3 -0.25 -23.3 Z" ffdec:has-small-stroke="true" ffdec:original-stroke-width="0.05" fill="none" stroke="#000000" stroke-linecap="butt" stroke-linejoin="miter-clip" stroke-miterlimit="3.0" stroke-opacity="0.3137255" stroke-width="1.0"/>
    <path d="M5.2 -6.05 Q6.45 -9.2 9.65 -9.4 12.8 -9.6 16.0 -6.75 19.2 -3.9 20.55 0.35 21.9 4.55 20.6 7.7 19.35 10.85 16.2 11.05 13.0 11.25 9.8 8.4 L8.8 7.4 Q9.1 5.25 10.7 5.8 11.45 6.1 13.0 7.45 14.5 8.75 16.7 8.8 18.9 8.85 19.7 6.15 20.55 3.45 19.15 -0.2 17.75 -3.85 14.95 -6.35 12.15 -8.85 9.2 -8.4 6.4 -7.95 5.25 -5.8 L5.2 -6.05 M8.55 -0.7 L8.85 0.95 Q8.75 1.9 7.5 1.5 L7.25 0.7 Q6.5 -1.75 7.4 -3.35 8.35 -5.0 10.4 -4.8 12.4 -4.65 14.4 -2.8 16.35 -1.0 17.1 1.45 17.8 3.9 16.9 5.55 15.95 7.15 13.9 7.0 L13.8 6.9 Q15.25 6.85 16.25 5.5 17.25 4.05 16.6 1.95 15.95 -0.25 14.35 -1.95 12.7 -3.65 11.0 -3.9 9.3 -4.2 8.75 -3.05 8.2 -1.85 8.55 -0.7 M1.85 8.55 Q0.7 9.35 -0.45 9.3 L-0.5 9.3 Q-1.65 9.2 -2.6 8.45 -3.6 7.65 -3.7 6.95 -3.85 6.25 -2.85 6.0 L-0.5 5.75 -0.4 5.75 2.1 5.95 Q3.15 6.25 3.05 7.0 2.95 7.7 1.85 8.55 M-10.35 -9.4 Q-7.2 -9.2 -5.9 -6.05 L-5.95 -5.8 Q-7.15 -7.95 -9.9 -8.4 -12.9 -8.85 -15.65 -6.35 -18.5 -3.85 -19.9 -0.2 -21.3 3.45 -20.45 6.15 -19.65 8.85 -17.4 8.8 -15.25 8.75 -13.7 7.45 L-11.4 5.8 Q-9.85 5.25 -9.55 7.4 L-10.55 8.4 Q-13.75 11.25 -16.9 11.05 -20.1 10.85 -21.35 7.7 -22.65 4.55 -21.3 0.35 -19.95 -3.9 -16.75 -6.75 -13.55 -9.6 -10.35 -9.4 M-11.75 -3.9 Q-13.45 -3.65 -15.05 -1.95 -16.7 -0.25 -17.3 1.95 -17.95 4.05 -16.95 5.5 -16.0 6.85 -14.5 6.9 L-14.65 7.0 Q-16.7 7.15 -17.6 5.55 -18.55 3.9 -17.8 1.45 -17.1 -1.0 -15.1 -2.8 -13.15 -4.65 -11.1 -4.8 -9.1 -5.0 -8.15 -3.35 -7.25 -1.75 -7.95 0.7 L-8.25 1.5 Q-9.5 1.9 -9.6 0.95 L-9.3 -0.7 Q-8.95 -1.85 -9.5 -3.05 -10.05 -4.2 -11.75 -3.9" fill="#000000" fill-rule="evenodd" stroke="none"/>
    <path d="M1.8 -2.6 Q1.75 -4.55 2.35 -6.25 L2.95 -7.55 Q4.9 -11.15 8.9 -11.15 12.85 -11.15 16.55 -7.55 20.25 -3.95 21.5 1.1 22.7 6.15 20.75 9.75 18.85 13.35 14.85 13.35 10.85 13.35 7.15 9.75 3.5 6.15 2.25 1.1 1.8 -0.7 1.8 -2.35 L1.8 -2.6 M5.2 -6.05 L5.25 -5.8 Q6.4 -7.95 9.2 -8.4 12.15 -8.85 14.95 -6.35 17.75 -3.85 19.15 -0.2 20.55 3.45 19.7 6.15 18.9 8.85 16.7 8.8 14.5 8.75 13.0 7.45 11.45 6.1 10.7 5.8 9.1 5.25 8.8 7.4 L9.8 8.4 Q13.0 11.25 16.2 11.05 19.35 10.85 20.6 7.7 21.9 4.55 20.55 0.35 19.2 -3.9 16.0 -6.75 12.8 -9.6 9.65 -9.4 6.45 -9.2 5.2 -6.05 M8.55 -0.7 Q8.2 -1.85 8.75 -3.05 9.3 -4.2 11.0 -3.9 12.7 -3.65 14.35 -1.95 15.95 -0.25 16.6 1.95 17.25 4.05 16.25 5.5 15.25 6.85 13.8 6.9 L13.9 7.0 Q15.95 7.15 16.9 5.55 17.8 3.9 17.1 1.45 16.35 -1.0 14.4 -2.8 12.4 -4.65 10.4 -4.8 8.35 -5.0 7.4 -3.35 6.5 -1.75 7.25 0.7 L7.5 1.5 Q8.75 1.9 8.85 0.95 L8.55 -0.7 M11.4 2.25 Q9.3 2.25 7.2 3.8 L6.45 4.35 7.2 3.8 Q9.3 2.25 11.4 2.25" fill="url(#gradient1)" fill-rule="evenodd" stroke="none"/>
    <path d="M-10.35 -9.4 Q-13.55 -9.6 -16.75 -6.75 -19.95 -3.9 -21.3 0.35 -22.65 4.55 -21.35 7.7 -20.1 10.85 -16.9 11.05 -13.75 11.25 -10.55 8.4 L-9.55 7.4 Q-9.85 5.25 -11.4 5.8 L-13.7 7.45 Q-15.25 8.75 -17.4 8.8 -19.65 8.85 -20.45 6.15 -21.3 3.45 -19.9 -0.2 -18.5 -3.85 -15.65 -6.35 -12.9 -8.85 -9.9 -8.4 -7.15 -7.95 -5.95 -5.8 L-5.9 -6.05 Q-7.2 -9.2 -10.35 -9.4 M-11.75 -3.9 Q-10.05 -4.2 -9.5 -3.05 -8.95 -1.85 -9.3 -0.7 L-9.6 0.95 Q-9.5 1.9 -8.25 1.5 L-7.95 0.7 Q-7.25 -1.75 -8.15 -3.35 -9.1 -5.0 -11.1 -4.8 -13.15 -4.65 -15.1 -2.8 -17.1 -1.0 -17.8 1.45 -18.55 3.9 -17.6 5.55 -16.7 7.15 -14.65 7.0 L-14.5 6.9 Q-16.0 6.85 -16.95 5.5 -17.95 4.05 -17.3 1.95 -16.7 -0.25 -15.05 -1.95 -13.45 -3.65 -11.75 -3.9 M-2.5 -2.6 L-2.5 -2.35 Q-2.55 -0.7 -3.0 1.1 -4.25 6.15 -7.9 9.75 -11.6 13.35 -15.6 13.35 -19.6 13.35 -21.5 9.75 -23.45 6.15 -22.2 1.1 -21.0 -3.95 -17.25 -7.55 -13.6 -11.15 -9.6 -11.15 -5.65 -11.15 -3.65 -7.55 L-3.1 -6.25 Q-2.5 -4.55 -2.5 -2.6 M-12.15 2.25 Q-10.05 2.25 -7.9 3.8 L-7.2 4.35 -7.9 3.8 Q-10.05 2.25 -12.15 2.25" fill="url(#gradient2)" fill-rule="evenodd" stroke="none"/>
    <path d="M6.45 4.35 L7.2 3.8 Q9.3 2.25 11.4 2.25" fill="none" stroke="#f5f5ef" stroke-linecap="butt" stroke-linejoin="miter-clip" stroke-miterlimit="3.0" stroke-width="1.5"/>
    <path d="M-7.2 4.35 L-7.9 3.8 Q-10.05 2.25 -12.15 2.25" fill="none" stroke="#f5f5ef" stroke-linecap="butt" stroke-linejoin="miter-clip" stroke-miterlimit="3.0" stroke-width="1.5"/>
  </g>
  <defs>
    <linearGradient gradientTransform="matrix(-1.0E-4, -0.019, 0.0285, -1.0E-4, -0.75, -5.9)" gradientUnits="userSpaceOnUse" id="gradient0" spreadMethod="pad" x1="-819.2" x2="819.2">
      <stop offset="0.027450980392156862" stop-color="#f5f5ef"/>
      <stop offset="1.0" stop-color="#e8e7d9"/>
    </linearGradient>
    <linearGradient gradientTransform="matrix(0.0, -0.0151, 0.015, 0.0, 10.85, -3.6)" gradientUnits="userSpaceOnUse" id="gradient1" spreadMethod="pad" x1="-819.2" x2="819.2">
      <stop offset="0.0" stop-color="#4e4f31"/>
      <stop offset="1.0" stop-color="#040000"/>
    </linearGradient>
    <linearGradient gradientTransform="matrix(0.0, -0.0151, -0.015, 0.0, -11.6, -3.6)" gradientUnits="userSpaceOnUse" id="gradient2" spreadMethod="pad" x1="-819.2" x2="819.2">
      <stop offset="0.0" stop-color="#4e4f31"/>
      <stop offset="1.0" stop-color="#040000"/>
    </linearGradient>
  </defs>
</svg>
