<?xml version="1.0" encoding="UTF-8" standalone="no"?>
<svg xmlns:ffdec="https://www.free-decompiler.com/flash" xmlns:xlink="http://www.w3.org/1999/xlink" ffdec:objectType="shape" height="53.0px" width="68.0px" xmlns="http://www.w3.org/2000/svg">
  <g transform="matrix(1.0, 0.0, 0.0, 1.0, 0.0, 0.0)">
    <path d="M22.25 53.0 L7.6 53.0 Q0.0 53.0 0.0 45.45 L0.0 7.6 Q0.0 0.0 7.6 0.0 L68.0 0.0 68.0 0.1 22.7 0.1 Q15.0 0.1 15.0 7.65 L15.0 45.45 Q15.0 52.75 22.25 53.0" fill="#ffffff" fill-opacity="0.0" fill-rule="evenodd" stroke="none"/>
    <path d="M22.25 53.0 Q15.0 52.75 15.0 45.45 L15.0 7.65 Q15.0 0.1 22.7 0.1 L68.0 0.1 68.0 53.0 22.25 53.0" fill="#7b6962" fill-rule="evenodd" stroke="none"/>
    <path d="M42.8 26.5 Q48.55 27.8 55.65 30.9 61.8 33.5 68.0 34.0 L68.0 51.85 23.3 51.85 Q16.45 51.85 16.45 45.05 L16.45 31.25 Q16.55 28.3 20.55 26.45 23.95 24.75 27.55 24.85 36.3 25.05 42.8 26.5" fill="url(#gradient0)" fill-rule="evenodd" stroke="none"/>
    <path d="M68.0 0.0 L68.0 52.95 56.9 52.95 56.9 0.0 68.0 0.0" fill="url(#gradient1)" fill-rule="evenodd" stroke="none"/>
    <path d="M54.4 38.2 Q53.9 39.95 52.05 39.8 L46.55 39.5 Q44.8 39.4 44.1 37.85 L43.0 35.2 42.95 34.6 42.65 34.2 42.15 33.0 42.15 37.3 42.15 37.95 42.15 38.05 42.15 38.1 Q41.95 39.85 39.95 39.85 L34.0 39.65 33.7 39.6 32.7 39.1 32.55 38.95 32.05 38.1 32.05 38.0 31.95 37.3 32.55 25.0 32.75 24.45 32.6 23.85 32.85 18.7 Q32.85 18.3 33.2 18.0 33.35 17.85 33.6 17.8 L33.75 15.2 34.05 14.6 Q34.25 14.3 34.6 14.25 L41.0 13.35 41.15 13.35 41.2 13.35 41.75 13.5 42.1 13.9 42.2 14.45 42.0 17.3 41.65 17.95 41.45 18.1 41.4 22.5 Q41.9 22.35 42.5 21.8 L42.5 21.75 43.65 20.15 43.85 19.65 43.9 19.55 44.85 17.3 45.05 17.0 45.1 16.55 45.85 14.0 46.35 13.4 47.15 13.35 52.6 13.45 53.1 13.65 53.45 14.05 53.55 14.6 53.35 16.15 53.35 16.2 52.1 20.4 Q51.0 23.15 49.25 25.65 L48.75 26.35 54.0 34.6 54.15 34.95 54.35 35.75 54.35 35.8 Q54.65 37.3 54.35 38.2 L54.4 38.2 M52.35 16.0 L52.55 14.45 47.05 14.35 46.8 14.3 46.05 16.85 46.55 16.75 46.8 16.7 46.85 16.65 46.8 16.75 46.75 16.8 46.4 17.2 45.8 17.65 44.75 20.0 44.55 20.5 43.2 22.45 41.6 23.45 41.3 23.5 40.65 23.5 40.4 23.45 40.45 19.55 40.45 18.0 39.6 18.15 39.45 18.15 39.45 18.05 41.0 17.2 41.1 15.9 41.2 14.35 41.15 14.35 34.75 15.25 34.55 18.15 34.65 18.2 35.25 18.4 34.65 18.55 34.55 18.55 34.35 18.6 33.85 18.75 33.6 23.9 33.7 23.95 34.6 24.1 34.55 24.3 34.3 24.5 33.55 25.05 32.95 37.3 33.0 37.75 33.3 38.3 34.0 38.65 39.95 38.85 Q41.05 38.85 41.15 37.85 L41.15 37.3 41.15 30.4 42.0 29.85 42.65 31.45 44.4 31.85 44.5 31.85 43.15 32.65 43.55 33.85 43.8 33.85 44.5 33.85 43.9 34.8 44.3 35.75 45.0 37.45 Q45.45 38.45 46.6 38.5 L52.1 38.8 Q53.15 38.9 53.4 37.9 L53.35 36.0 53.15 35.15 47.5 26.25 48.4 25.1 Q50.1 22.7 51.15 20.0 51.95 18.05 52.35 16.0" fill="url(#gradient2)" fill-rule="evenodd" stroke="none"/>
    <path d="M46.55 16.75 L46.05 16.85 46.8 14.3 47.05 14.35 52.55 14.45 52.35 16.0 47.05 15.9 46.8 15.85 46.55 16.75 M47.5 26.25 L53.15 35.15 53.35 36.0 53.4 37.9 53.15 36.7 47.5 27.8 47.5 26.25 M44.3 35.75 L43.9 34.8 44.5 33.85 44.5 35.4 44.3 35.75 M43.8 33.85 L43.55 33.85 43.15 32.65 44.5 31.85 44.4 33.5 43.8 33.85 M33.0 37.75 L32.95 37.3 33.55 25.05 34.3 24.5 34.55 24.3 34.7 24.1 34.65 25.65 34.7 25.7 34.3 26.05 33.55 26.6 33.0 37.75 M33.7 23.95 L33.6 23.9 33.85 18.75 34.35 18.6 34.55 18.55 34.65 18.55 35.25 18.4 35.15 19.95 35.15 20.0 34.55 20.1 34.35 20.15 33.85 20.3 33.7 23.95 M34.65 18.2 L34.55 18.15 34.75 15.25 41.15 14.35 41.2 14.35 41.1 15.9 34.75 16.8 34.65 18.2 M39.45 18.15 L39.6 18.15 40.45 18.0 40.45 19.55 39.6 19.7 39.5 19.7 39.45 19.75 39.05 19.8 39.0 18.25 39.45 18.15 M40.4 23.45 L40.65 23.5 41.3 23.5 41.6 23.45 43.2 22.45 44.55 20.5 44.75 20.0 45.8 17.65 46.4 17.2 46.75 16.8 46.8 16.75 46.8 17.55 46.8 17.8 46.8 18.2 46.85 18.25 46.75 18.35 46.5 18.7 45.8 19.2 44.75 21.55 44.55 22.05 43.85 23.25 43.2 24.0 41.6 25.0 41.3 25.05 40.65 25.05 40.4 25.0 40.4 23.45" fill="#13100f" fill-rule="evenodd" stroke="none"/>
    <path d="M52.35 16.0 Q51.95 18.05 51.15 20.0 50.1 22.7 48.4 25.1 L47.5 26.25 47.5 27.8 53.15 36.7 53.4 37.9 Q53.15 38.9 52.1 38.8 L46.6 38.5 Q45.45 38.45 45.0 37.45 L44.3 35.75 44.5 35.4 44.5 33.85 43.8 33.85 44.4 33.5 44.5 31.85 44.4 31.85 42.65 31.45 42.0 29.85 41.15 30.4 41.15 37.3 41.15 37.85 Q41.05 38.85 39.95 38.85 L34.0 38.65 33.3 38.3 33.0 37.75 33.55 26.6 34.3 26.05 34.7 25.7 34.65 25.65 34.7 24.1 34.65 24.1 34.6 24.1 33.7 23.95 33.85 20.3 34.35 20.15 34.55 20.1 35.15 20.0 35.15 19.95 35.25 18.4 34.65 18.2 34.75 16.8 41.1 15.9 41.0 17.2 39.45 18.05 39.0 18.25 39.05 19.8 39.45 19.75 39.5 19.7 39.6 19.7 40.45 19.55 40.4 23.45 40.4 25.0 40.65 25.05 41.3 25.05 41.6 25.0 43.2 24.0 43.85 23.25 44.55 22.05 44.75 21.55 45.8 19.2 46.5 18.7 46.75 18.35 46.85 18.25 46.8 18.2 46.8 17.8 46.8 17.55 46.8 16.75 46.85 16.65 46.8 16.7 46.55 16.75 46.8 15.85 47.05 15.9 52.35 16.0" fill="#322c28" fill-rule="evenodd" stroke="none"/>
    <path d="M54.4 38.2 L54.35 38.2 54.4 38.15 54.4 38.2" fill="#00ff00" fill-rule="evenodd" stroke="none"/>
  </g>
  <defs>
    <linearGradient gradientTransform="matrix(0.0, -0.0241, 0.0413, 0.0, 50.25, 30.25)" gradientUnits="userSpaceOnUse" id="gradient0" spreadMethod="pad" x1="-819.2" x2="819.2">
      <stop offset="0.0" stop-color="#000000" stop-opacity="0.15294118"/>
      <stop offset="1.0" stop-color="#000000" stop-opacity="0.0"/>
    </linearGradient>
    <linearGradient gradientTransform="matrix(-0.0044, 0.0, 0.0, -0.0323, 64.05, 26.5)" gradientUnits="userSpaceOnUse" id="gradient1" spreadMethod="pad" x1="-819.2" x2="819.2">
      <stop offset="0.0" stop-color="#000000" stop-opacity="0.3019608"/>
      <stop offset="1.0" stop-color="#000000" stop-opacity="0.0"/>
    </linearGradient>
    <linearGradient gradientTransform="matrix(0.0, 0.0081, -0.0162, 0.0, 30.85, 32.2)" gradientUnits="userSpaceOnUse" id="gradient2" spreadMethod="pad" x1="-819.2" x2="819.2">
      <stop offset="0.0" stop-color="#ffffff" stop-opacity="0.0"/>
      <stop offset="1.0" stop-color="#ffffff" stop-opacity="0.4"/>
    </linearGradient>
  </defs>
</svg>
