<?xml version="1.0" encoding="UTF-8" standalone="no"?>
<svg xmlns:ffdec="https://www.free-decompiler.com/flash" xmlns:xlink="http://www.w3.org/1999/xlink" ffdec:objectType="shape" height="17.55px" width="31.6px" xmlns="http://www.w3.org/2000/svg">
  <g transform="matrix(1.0, 0.0, 0.0, 1.0, -4.75, -4.75)">
    <path d="M34.0 12.3 L33.0 13.3 34.7 12.7 35.3 12.95 35.45 13.25 36.35 15.65 36.2 16.0 Q34.3 15.2 32.35 15.7 28.6 16.6 21.95 20.45 15.3 24.25 9.55 20.2 6.65 18.15 4.85 17.75 L4.75 17.7 5.25 15.8 5.25 15.75 6.65 14.8 5.75 14.4 6.2 13.5 8.15 13.6 6.65 12.35 Q7.8 10.75 9.3 9.25 L9.5 9.05 9.55 8.95 10.2 9.35 10.6 8.15 10.75 8.05 12.65 8.05 13.0 7.45 14.1 8.35 13.4 6.75 13.65 6.2 Q15.05 5.55 16.6 5.2 L18.2 5.85 17.95 5.0 20.7 4.75 20.8 4.75 24.9 5.2 25.95 6.45 26.4 5.65 27.35 5.95 27.25 7.9 28.6 6.55 Q30.5 7.5 32.2 9.05 L32.3 9.15 31.85 9.75 33.2 10.1 33.35 10.2 33.35 12.0 34.0 12.3" fill="url(#gradient0)" fill-rule="evenodd" stroke="none"/>
  </g>
  <defs>
    <radialGradient cx="0" cy="0" gradientTransform="matrix(0.0598, 0.0, 0.0, 0.0377, 14.6, -6.95)" gradientUnits="userSpaceOnUse" id="gradient0" r="819.2" spreadMethod="pad">
      <stop offset="0.4745098039215686" stop-color="#ffffff" stop-opacity="0.77254903"/>
      <stop offset="1.0" stop-color="#ffffff" stop-opacity="0.0"/>
    </radialGradient>
  </defs>
</svg>
