<?xml version="1.0" encoding="UTF-8" standalone="no"?>
<svg xmlns:ffdec="https://www.free-decompiler.com/flash" xmlns:xlink="http://www.w3.org/1999/xlink" ffdec:objectType="shape" height="53.0px" width="68.0px" xmlns="http://www.w3.org/2000/svg">
  <g transform="matrix(1.0, 0.0, 0.0, 1.0, 0.0, 0.0)">
    <path d="M0.0 45.45 L0.0 7.6 Q0.0 0.0 7.6 0.0 L68.0 0.0 68.0 53.0 7.6 53.0 Q0.0 53.0 0.0 45.45" fill="#bfb5ac" fill-rule="evenodd" stroke="none"/>
    <path d="M68.0 0.65 L68.0 5.65 8.0 5.65 Q1.35 5.65 1.2 12.15 L1.2 7.45 Q1.2 0.65 8.0 0.65 L68.0 0.65" fill="url(#gradient0)" fill-rule="evenodd" stroke="none"/>
    <path d="M54.05 33.75 Q60.7 33.95 68.0 31.6 L68.0 51.55 8.0 51.55 Q1.2 51.55 1.2 44.75 L1.2 30.9 Q1.3 27.95 5.25 26.05 8.65 24.4 12.2 24.5 20.95 24.7 27.4 26.1 33.1 27.45 40.2 30.55 47.1 33.5 54.05 33.75" fill="url(#gradient1)" fill-rule="evenodd" stroke="none"/>
    <path d="M41.05 29.4 Q40.95 29.75 41.2 30.1 L41.15 29.85 41.05 29.45 41.05 29.4 M45.1 24.05 L44.75 24.1 44.7 24.55 46.0 24.35 Q47.15 24.05 47.55 23.05 L47.6 22.7 Q47.6 21.9 47.25 21.65 47.25 22.6 46.65 23.25 46.05 23.95 45.1 24.05 M47.25 16.95 L47.35 16.95 Q49.65 16.95 50.85 18.35 52.25 19.8 52.25 22.9 L52.2 23.3 52.2 23.35 Q51.9 25.2 50.9 26.5 49.5 28.35 46.75 28.95 L46.55 28.95 46.35 28.95 46.3 28.95 45.65 29.1 45.65 29.25 Q45.65 30.2 45.05 30.85 44.4 31.6 43.4 31.6 42.55 31.6 41.85 31.05 L41.75 30.95 41.35 30.45 Q39.45 32.1 37.05 32.65 L37.05 32.95 Q38.55 33.05 39.7 34.2 L40.3 34.85 40.4 35.05 Q40.35 34.9 40.7 34.9 L40.75 34.9 40.85 34.9 41.05 34.95 Q41.75 35.05 42.35 35.65 43.1 36.35 43.1 37.5 L42.8 38.2 42.1 38.5 27.45 38.5 26.75 38.2 Q26.45 37.9 26.45 37.5 26.45 36.35 27.2 35.65 27.8 35.05 28.5 34.95 L28.95 34.85 29.05 34.85 29.25 34.85 29.7 34.25 29.75 34.2 Q30.95 33.05 32.5 32.95 L32.5 32.65 Q30.1 32.1 28.2 30.4 L27.85 30.9 27.75 31.05 Q27.0 31.6 26.1 31.6 25.2 31.6 24.5 30.9 L24.45 30.85 Q23.85 30.2 23.85 29.25 L23.85 29.1 23.15 28.95 23.0 28.95 22.8 28.95 Q18.0 27.95 17.4 23.35 L17.3 22.95 17.3 22.9 Q17.2 17.0 22.15 16.95 L22.3 16.95 Q23.85 16.95 24.9 17.55 25.45 14.65 28.7 14.5 L29.2 14.45 40.3 14.45 40.95 14.5 Q44.1 14.7 44.7 17.55 45.65 16.95 47.25 16.95 M43.35 25.75 L43.1 26.4 43.6 26.0 43.35 25.75 M21.9 22.65 L22.0 22.95 Q22.3 24.05 23.6 24.35 L24.9 24.55 24.85 24.05 24.4 24.05 22.95 23.3 22.9 23.25 Q22.25 22.55 22.3 21.65 21.95 21.9 21.9 22.65" fill="url(#gradient2)" fill-rule="evenodd" stroke="none"/>
    <path d="M51.2 22.9 L51.25 22.9 51.2 23.1 51.2 22.9" fill="#13100f" fill-rule="evenodd" stroke="none"/>
    <path d="M18.3 22.9 L18.4 22.9 18.35 23.1 18.3 22.9" fill="#000000" fill-rule="evenodd" stroke="none"/>
    <path d="M18.4 22.9 Q18.8 19.45 22.15 19.35 L22.3 19.35 Q24.2 19.35 25.1 20.4 L25.75 21.45 25.75 20.35 Q25.75 17.05 28.75 16.9 L29.2 16.85 40.3 16.85 40.75 16.9 Q43.8 17.05 43.8 20.35 L43.8 21.45 Q44.0 20.85 44.45 20.4 45.3 19.35 47.25 19.35 L47.35 19.35 Q49.15 19.35 50.1 20.4 50.95 21.3 51.2 22.9 L51.2 23.1 51.2 23.2 Q50.95 24.8 50.1 25.9 48.9 27.45 46.55 27.95 L46.3 27.95 Q45.4 28.0 44.95 28.35 44.65 28.65 44.65 29.25 44.65 29.8 44.3 30.2 43.95 30.6 43.4 30.6 42.9 30.6 42.45 30.25 L42.1 29.65 42.1 29.55 42.05 29.35 Q42.0 28.65 42.1 28.1 L41.15 29.2 Q39.0 31.4 36.05 31.8 L35.15 31.85 35.05 31.85 34.45 31.85 33.5 31.8 Q30.55 31.4 28.4 29.2 L27.45 28.1 27.45 29.35 27.1 30.25 26.1 30.6 Q25.6 30.6 25.2 30.2 24.85 29.8 24.85 29.25 L24.6 28.35 Q24.15 28.0 23.2 27.95 L23.0 27.95 Q18.85 27.1 18.35 23.1 L18.4 22.9 M48.55 23.2 L48.6 22.8 Q48.6 20.8 47.25 20.55 L46.3 20.85 Q46.15 21.1 46.25 21.65 L45.9 22.6 Q45.55 23.0 45.0 23.05 L44.05 22.75 43.8 22.4 43.8 23.15 Q43.75 24.85 43.1 26.4 L43.05 26.45 43.1 26.45 43.1 27.7 Q44.05 26.75 46.05 26.65 48.25 26.2 48.6 24.1 L48.55 23.2 M28.2 37.5 L28.75 37.3 28.8 37.3 28.95 37.25 29.05 37.25 29.8 37.25 30.45 36.3 Q31.5 35.3 32.95 35.3 L33.5 35.3 33.5 33.95 34.45 34.05 35.05 34.05 35.15 34.05 36.05 33.95 36.05 35.3 36.6 35.3 Q38.0 35.3 39.0 36.3 L39.7 37.25 40.5 37.25 40.65 37.25 40.7 37.3 40.75 37.3 41.35 37.5 28.2 37.5 M26.4 26.35 Q25.8 24.8 25.75 23.15 L25.75 22.4 25.45 22.75 Q25.05 23.1 24.5 23.05 24.0 23.0 23.65 22.6 23.25 22.2 23.3 21.65 L23.2 20.85 22.3 20.55 Q20.9 20.8 20.9 22.8 L21.0 23.2 20.9 24.1 Q21.25 26.2 23.5 26.65 25.4 26.75 26.45 27.7 L26.3 27.35 26.4 26.35" fill="url(#gradient3)" fill-rule="evenodd" stroke="none"/>
    <path d="M18.3 22.9 Q18.2 18.05 22.15 17.95 L22.3 17.95 Q24.2 17.95 25.1 19.0 L25.75 20.05 25.75 18.95 Q25.75 15.65 28.75 15.5 L29.2 15.45 40.3 15.45 40.75 15.5 Q43.8 15.65 43.8 18.95 L43.8 20.05 Q44.0 19.45 44.45 19.0 45.3 17.95 47.25 17.95 L47.35 17.95 Q49.15 17.95 50.1 19.0 51.25 20.25 51.25 22.9 L51.2 22.9 Q50.95 21.3 50.1 20.4 49.15 19.35 47.35 19.35 L47.25 19.35 Q45.3 19.35 44.45 20.4 44.0 20.85 43.8 21.45 L43.8 20.35 Q43.8 17.05 40.75 16.9 L40.3 16.85 29.2 16.85 28.75 16.9 Q25.75 17.05 25.75 20.35 L25.75 21.45 25.1 20.4 Q24.2 19.35 22.3 19.35 L22.15 19.35 Q18.8 19.45 18.4 22.9 L18.3 22.9 M43.1 26.4 Q43.35 26.15 43.65 26.0 44.55 25.45 46.05 25.35 48.05 24.95 48.55 23.2 L48.6 24.1 Q48.25 26.2 46.05 26.65 44.05 26.75 43.1 27.7 L43.1 26.45 43.1 26.4 M28.2 37.5 L27.45 37.5 Q27.45 36.8 27.9 36.35 28.3 35.95 28.75 35.9 L28.8 35.9 28.95 35.85 29.05 35.85 29.8 35.85 30.45 34.9 Q31.5 33.9 32.95 33.9 L33.5 33.9 33.5 32.55 34.45 32.65 35.05 32.65 35.15 32.65 36.05 32.55 36.05 33.9 36.6 33.9 Q38.0 33.9 39.0 34.9 L39.7 35.85 40.5 35.85 40.65 35.85 40.7 35.9 40.75 35.9 Q41.25 35.95 41.65 36.35 42.1 36.8 42.1 37.5 L41.35 37.5 40.75 37.3 40.7 37.3 40.65 37.25 40.5 37.25 39.7 37.25 39.0 36.3 Q38.0 35.3 36.6 35.3 L36.05 35.3 36.05 33.95 35.15 34.05 35.05 34.05 34.45 34.05 33.5 33.95 33.5 35.3 32.95 35.3 Q31.5 35.3 30.45 36.3 L29.8 37.25 29.05 37.25 28.95 37.25 28.8 37.3 28.75 37.3 28.2 37.5 M26.4 26.35 L26.3 27.35 26.45 27.7 Q25.4 26.75 23.5 26.65 21.25 26.2 20.9 24.1 L21.0 23.2 Q21.45 24.95 23.5 25.35 25.0 25.45 25.95 26.0 L26.4 26.35" fill="#9b3206" fill-rule="evenodd" stroke="none"/>
  </g>
  <defs>
    <linearGradient gradientTransform="matrix(0.0433, 8.0E-4, -1.0E-4, 0.0077, 40.45, 6.45)" gradientUnits="userSpaceOnUse" id="gradient0" spreadMethod="pad" x1="-819.2" x2="819.2">
      <stop offset="0.0" stop-color="#ffffff" stop-opacity="0.3019608"/>
      <stop offset="1.0" stop-color="#ffffff" stop-opacity="0.0"/>
    </linearGradient>
    <linearGradient gradientTransform="matrix(0.0, -0.0241, 0.041, 0.0, 34.8, 29.9)" gradientUnits="userSpaceOnUse" id="gradient1" spreadMethod="pad" x1="-819.2" x2="819.2">
      <stop offset="0.0" stop-color="#000000" stop-opacity="0.15294118"/>
      <stop offset="1.0" stop-color="#000000" stop-opacity="0.0"/>
    </linearGradient>
    <linearGradient gradientTransform="matrix(0.0, 0.0142, -0.0111, 0.0, -29.7, 28.4)" gradientUnits="userSpaceOnUse" id="gradient2" spreadMethod="pad" x1="-819.2" x2="819.2">
      <stop offset="0.0" stop-color="#ffffff" stop-opacity="0.0"/>
      <stop offset="1.0" stop-color="#ffffff" stop-opacity="0.4"/>
    </linearGradient>
    <linearGradient gradientTransform="matrix(0.0, 0.0244, -0.0244, 0.0, -19.1, 33.05)" gradientUnits="userSpaceOnUse" id="gradient3" spreadMethod="pad" x1="-819.2" x2="819.2">
      <stop offset="0.0" stop-color="#f99533"/>
      <stop offset="1.0" stop-color="#f7541e"/>
    </linearGradient>
  </defs>
</svg>
