<?xml version="1.0" encoding="UTF-8" standalone="no"?>
<svg xmlns:ffdec="https://www.free-decompiler.com/flash" xmlns:xlink="http://www.w3.org/1999/xlink" ffdec:objectType="shape" height="41.5px" width="41.5px" xmlns="http://www.w3.org/2000/svg">
  <g transform="matrix(1.0, 0.0, 0.0, 1.0, -0.05, -0.05)">
    <path d="M30.8 3.1 L30.85 3.15 33.8 5.25 31.75 6.1 31.65 6.15 Q30.8 5.5 29.95 5.0 L28.95 4.45 30.7 3.2 30.8 3.1 M36.4 7.9 L36.9 8.45 36.8 8.5 35.5 10.0 34.35 8.6 36.35 7.95 36.4 7.9 M38.45 12.95 L39.15 12.1 39.6 13.05 38.45 12.95 M13.05 2.0 L12.95 3.15 12.1 2.45 13.05 2.0 M7.9 5.2 L8.45 4.75 8.5 4.8 10.0 6.15 8.6 7.3 7.95 5.3 7.9 5.2 M3.15 10.75 L5.25 7.8 6.1 9.9 6.15 10.0 5.0 11.7 4.45 12.7 3.2 10.95 3.05 10.85 3.15 10.8 3.15 10.75 M2.0 28.55 L3.15 28.65 2.45 29.55 2.0 28.55 M4.75 33.15 L6.15 31.6 7.3 33.0 5.3 33.7 5.2 33.75 4.7 33.15 4.75 33.15 M9.95 35.45 L11.7 36.65 12.7 37.2 10.9 38.45 10.85 38.5 10.75 38.45 7.8 36.4 9.85 35.55 9.95 35.45 M37.15 28.95 L38.45 30.7 38.5 30.75 38.45 30.85 36.4 33.8 35.55 31.75 35.45 31.65 36.65 29.95 37.15 28.95 M33.75 36.4 L33.15 36.9 31.6 35.5 33.0 34.35 33.7 36.35 33.75 36.4 M28.65 38.45 L29.55 39.15 28.6 39.6 28.65 38.45" fill="#2d2d2d" fill-rule="evenodd" stroke="none"/>
    <path d="M40.95 23.25 L39.0 22.4 38.95 22.35 39.0 20.9 40.95 21.65 41.05 21.65 40.95 23.25 M34.2 5.6 L35.1 6.4 35.25 6.55 36.1 7.5 34.1 8.2 34.0 8.25 33.75 7.95 33.7 7.9 32.05 6.5 34.1 5.65 34.2 5.6 M27.55 6.85 L27.15 7.2 27.0 7.5 26.2 7.1 26.15 7.1 25.85 7.0 25.7 6.95 24.85 6.7 24.15 6.5 22.7 6.25 22.65 6.25 21.4 6.2 20.8 6.15 20.15 6.2 19.15 6.25 18.7 6.3 18.75 6.0 18.55 5.35 18.55 5.25 18.45 4.75 20.8 4.55 24.9 5.1 25.25 5.05 25.35 5.0 25.8 5.6 25.75 5.75 25.7 6.15 25.9 6.45 26.3 6.5 26.6 6.25 26.85 5.7 27.45 5.95 27.55 5.95 27.55 6.85 M27.85 7.9 L29.0 6.75 Q30.7 7.75 32.25 9.25 L32.05 9.35 31.85 9.65 31.9 10.0 32.2 10.25 33.6 10.65 33.85 10.65 33.85 11.8 33.75 11.85 Q33.55 11.9 33.45 12.05 L33.4 12.45 33.6 12.75 34.15 13.05 34.25 13.1 34.65 13.15 34.75 13.1 34.8 13.25 35.05 13.55 35.5 13.75 36.55 16.6 36.75 16.9 36.8 16.9 36.55 17.45 36.15 17.55 36.0 17.6 35.4 17.8 Q35.25 17.8 35.2 17.9 L34.9 16.65 34.5 15.4 34.45 15.3 33.95 14.25 33.75 13.85 33.75 13.8 33.6 13.6 33.3 13.15 33.2 12.85 33.1 12.7 32.5 11.9 32.45 11.85 32.4 11.8 32.0 11.3 31.95 11.25 31.65 10.9 31.6 10.85 31.2 10.45 31.15 10.4 30.5 9.8 29.3 8.8 28.0 8.0 27.85 7.9 M36.65 25.3 L36.0 25.8 35.85 25.7 35.45 25.7 35.15 25.95 35.15 26.3 35.4 26.6 35.9 26.85 35.7 27.45 35.65 27.55 34.8 27.5 34.4 27.15 34.15 27.0 34.5 26.15 34.55 26.1 34.6 25.95 34.65 25.7 34.95 24.85 34.95 24.8 35.1 24.2 35.1 24.15 35.35 22.7 35.35 22.65 35.45 21.35 35.45 21.3 35.45 20.8 35.45 20.25 35.45 20.2 35.35 19.15 35.3 18.7 35.65 18.75 36.25 18.55 36.35 18.55 36.85 18.45 37.05 20.8 Q37.0 22.95 36.55 24.9 L36.6 25.25 36.65 25.3 M31.0 33.85 L29.8 33.85 29.8 33.7 29.5 33.4 29.15 33.4 28.85 33.65 28.6 34.2 28.5 34.3 28.5 34.7 28.5 34.75 28.35 34.8 28.3 34.8 28.05 35.1 27.9 35.5 25.05 36.55 Q24.85 36.6 24.75 36.75 L24.7 36.8 24.15 36.55 24.05 36.15 24.05 36.1 24.0 36.05 23.85 35.4 23.7 35.15 24.95 34.9 26.25 34.5 26.3 34.45 27.4 33.95 27.8 33.75 28.0 33.65 28.55 33.25 28.55 33.3 28.85 33.1 28.9 33.1 29.7 32.5 29.8 32.4 30.3 32.0 30.35 31.95 30.7 31.65 30.75 31.6 31.15 31.2 31.2 31.15 31.85 30.5 32.8 29.3 32.85 29.25 33.65 27.95 33.7 27.85 34.9 29.0 32.35 32.25 32.3 32.05 32.0 31.85 31.6 31.9 31.4 32.2 31.0 33.6 31.0 33.85 M16.3 36.65 L15.8 36.05 15.95 35.8 15.9 35.4 15.65 35.15 15.25 35.15 15.0 35.45 14.75 35.9 14.2 35.7 14.05 35.65 14.1 34.8 14.5 34.35 14.6 34.15 15.45 34.45 15.65 34.6 15.9 34.65 16.75 34.95 16.85 34.95 17.45 35.1 18.95 35.35 20.3 35.4 20.7 35.45 20.9 35.45 21.35 35.4 22.45 35.35 22.5 35.35 22.9 35.3 22.9 35.65 23.05 36.3 23.1 36.4 23.2 36.85 20.8 37.05 16.75 36.55 16.35 36.6 16.3 36.65 M7.75 31.0 L7.75 29.8 7.9 29.8 8.2 29.55 8.25 29.15 8.0 28.85 7.45 28.55 7.35 28.5 6.95 28.5 6.85 28.55 6.85 28.3 6.8 28.3 Q6.7 28.1 6.5 28.05 L6.15 27.9 Q5.45 26.5 5.1 25.05 L4.85 24.75 4.8 24.7 5.05 24.15 5.5 24.05 5.55 24.0 6.25 23.85 6.45 23.75 6.75 24.95 7.15 26.2 7.65 27.4 7.85 27.8 7.9 27.8 8.0 28.0 8.3 28.5 8.55 28.9 9.1 29.7 9.2 29.8 9.6 30.3 10.0 30.75 10.4 31.15 10.45 31.2 11.15 31.85 12.3 32.8 12.35 32.85 13.65 33.65 13.7 33.7 12.6 34.85 Q10.9 33.85 9.4 32.35 L9.55 32.3 9.8 32.0 9.75 31.6 9.45 31.4 8.05 31.0 7.75 31.0 M5.0 16.3 L5.6 15.8 5.8 15.9 6.2 15.95 6.45 15.65 6.5 15.3 6.2 15.0 5.7 14.75 5.95 14.2 5.95 14.05 6.8 14.05 7.25 14.5 7.5 14.6 7.15 15.4 7.0 15.75 6.95 15.9 6.7 16.75 6.5 17.5 6.25 18.95 6.2 20.2 6.15 20.8 6.2 21.45 6.25 22.45 6.3 22.9 6.0 22.9 5.35 23.05 5.2 23.1 4.75 23.2 4.55 20.8 Q4.55 18.6 5.1 16.75 L5.05 16.35 5.0 16.3 M10.65 7.75 L11.8 7.75 11.8 7.85 12.05 8.2 12.4 8.25 12.75 8.05 13.05 7.45 13.1 7.4 13.15 7.0 13.1 6.85 13.25 6.85 13.3 6.85 13.55 6.6 13.75 6.15 Q15.05 5.45 16.6 5.1 L16.9 4.85 16.9 4.8 17.45 5.05 17.55 5.45 17.6 5.6 17.8 6.25 17.9 6.45 16.65 6.75 16.7 6.75 15.4 7.15 15.45 7.15 14.25 7.65 13.85 7.85 13.8 7.9 13.65 8.0 13.15 8.3 12.75 8.5 12.7 8.5 11.9 9.1 11.85 9.15 11.8 9.2 11.3 9.6 10.95 9.95 10.85 10.05 10.45 10.4 10.5 10.4 10.4 10.45 9.8 11.15 8.8 12.3 Q8.3 12.95 7.95 13.65 L7.95 13.7 6.75 12.6 Q7.75 10.85 9.25 9.35 L9.35 9.55 9.65 9.8 10.0 9.75 10.25 9.45 10.65 8.05 10.65 7.75 M30.35 2.85 L28.5 4.15 28.45 4.2 27.65 3.85 28.35 1.9 Q29.35 2.3 30.35 2.85 M22.85 2.75 L23.4 1.3 24.15 2.9 22.85 2.75 M21.65 0.55 L23.1 0.65 22.4 2.6 22.35 2.7 20.9 2.6 21.65 0.65 21.65 0.55 M40.3 15.2 L40.7 16.65 38.6 16.4 38.5 16.4 38.45 16.1 38.5 16.1 40.3 15.0 40.3 15.15 40.3 15.2 M33.65 13.7 L34.8 13.25 33.65 13.7 M33.6 13.6 L34.15 13.05 33.6 13.6 M38.9 22.85 L40.35 23.5 38.7 24.2 38.9 22.85 M16.4 3.05 L16.4 3.1 16.1 3.2 16.1 3.15 15.0 1.35 15.15 1.3 15.2 1.3 16.65 0.95 16.4 3.05 M13.05 7.45 L13.65 8.0 13.05 7.45 M13.7 7.95 L13.3 6.85 13.7 7.95 M10.7 10.3 L10.8 10.25 10.75 10.3 10.7 10.3 M8.25 7.6 L7.95 7.9 7.85 8.0 6.5 9.55 5.65 7.5 5.6 7.45 6.5 6.5 6.55 6.4 6.55 6.35 7.5 5.5 8.2 7.55 8.25 7.6 M4.25 13.2 L3.9 13.95 1.95 13.25 1.9 13.25 2.85 11.3 4.15 13.1 4.25 13.2 M2.9 17.5 Q2.75 18.1 2.75 18.75 L1.35 18.3 2.9 17.5 M2.6 20.75 L0.65 20.0 0.55 19.95 0.65 18.55 2.65 19.25 2.7 19.25 2.6 20.75 M7.95 27.9 L6.85 28.3 7.95 27.9 M7.45 28.55 L8.0 28.0 7.45 28.55 M3.15 25.55 L1.35 26.6 1.3 26.45 0.9 24.95 3.05 25.2 3.1 25.2 3.2 25.5 3.15 25.55 M7.95 33.75 L9.55 35.15 7.5 36.0 7.45 36.05 6.5 35.15 5.55 34.1 7.55 33.45 7.65 33.4 7.85 33.6 7.9 33.65 7.95 33.75 M19.25 38.95 L20.75 39.0 20.0 40.95 19.95 41.05 18.55 40.95 19.25 39.0 19.25 38.95 M18.25 40.3 L17.45 38.75 18.75 38.9 18.25 40.3 M13.2 37.4 L14.0 37.7 13.25 39.7 11.3 38.8 13.1 37.5 13.2 37.4 M37.8 27.7 L39.7 28.35 38.8 30.3 37.5 28.55 37.4 28.45 37.75 27.65 37.8 27.7 M31.35 30.8 L31.3 30.95 31.3 30.85 31.35 30.8 M35.15 32.1 L36.0 34.1 36.05 34.2 35.25 35.05 35.15 35.15 34.1 36.1 33.45 34.15 33.35 34.0 33.65 33.75 33.7 33.7 33.75 33.7 35.15 32.1 M27.9 33.7 L28.35 34.8 27.9 33.7 M28.6 34.2 L28.0 33.65 28.6 34.2 M25.55 38.5 L26.65 40.25 26.45 40.3 24.95 40.7 25.2 38.65 25.2 38.5 25.55 38.45 25.55 38.5" fill="#000000" fill-rule="evenodd" stroke="none"/>
    <path d="M40.0 2.55 L38.75 4.7 38.0 3.9 37.9 2.75 39.35 1.9 40.0 2.55 M2.55 1.6 L4.7 2.85 3.9 3.6 2.75 3.7 1.9 2.25 2.55 1.6 M1.6 39.05 L2.85 36.9 3.6 37.7 3.7 38.85 2.25 39.7 1.6 39.05 M39.7 39.35 L39.05 40.0 36.9 38.75 37.7 38.0 38.85 37.9 39.7 39.35" fill="#413934" fill-rule="evenodd" stroke="none"/>
    <path d="M35.55 5.7 L36.8 3.55 37.55 4.35 37.75 5.45 36.2 6.35 35.55 5.7 M5.45 3.85 L6.35 5.4 5.7 6.05 3.6 4.8 4.35 4.05 5.45 3.85 M5.4 35.25 L6.05 35.9 4.8 38.0 4.05 37.25 3.85 36.15 5.4 35.25 M35.9 35.55 L38.05 36.8 37.25 37.55 36.15 37.75 35.25 36.2 35.9 35.55" fill="#2c2723" fill-rule="evenodd" stroke="none"/>
    <path d="M33.85 10.65 L33.95 10.6 34.2 10.3 34.15 9.9 Q34.0 9.75 33.85 9.7 L32.9 9.4 33.0 9.3 33.15 8.95 33.0 8.6 Q31.2 6.8 29.15 5.65 L28.85 5.6 28.55 5.75 27.55 6.85 27.55 5.95 27.8 5.9 28.1 5.65 28.05 5.25 27.8 5.0 26.8 4.6 26.45 4.6 Q26.25 4.65 26.2 4.8 L25.8 5.6 25.35 5.0 25.5 4.75 25.45 4.35 Q25.3 4.2 25.15 4.15 L20.8 3.55 17.7 3.85 17.4 4.1 17.3 4.45 17.45 5.05 16.9 4.8 16.95 4.5 16.7 4.2 16.35 4.15 Q14.6 4.55 13.15 5.3 L12.9 5.55 12.65 6.15 12.65 6.5 12.7 6.6 12.55 6.6 Q12.35 6.65 12.25 6.85 L11.9 7.5 11.8 7.75 10.65 7.75 10.6 7.65 10.3 7.45 9.9 7.5 9.7 7.8 9.4 8.75 9.3 8.6 8.95 8.45 Q8.75 8.45 8.6 8.6 6.8 10.4 5.65 12.45 5.55 12.6 5.6 12.8 L5.75 13.1 6.8 14.05 5.95 14.05 5.9 13.8 5.65 13.55 5.25 13.55 5.0 13.85 4.6 14.85 4.6 15.2 4.85 15.45 5.6 15.8 5.0 16.3 4.75 16.15 4.35 16.2 4.15 16.5 Q3.55 18.5 3.55 20.8 3.55 22.4 3.85 23.9 L4.0 24.15 4.25 24.3 4.5 24.3 5.05 24.15 4.8 24.7 4.5 24.7 Q4.3 24.7 4.2 24.9 L4.15 25.3 Q4.55 26.95 5.3 28.5 L5.6 28.75 6.2 29.0 6.6 28.95 6.65 29.1 6.9 29.4 7.55 29.75 7.75 29.8 7.75 31.0 7.65 31.05 7.45 31.35 7.5 31.7 7.8 31.95 8.8 32.2 8.65 32.3 Q8.5 32.45 8.5 32.65 L8.65 33.0 Q10.4 34.8 12.45 35.95 L12.8 36.0 13.1 35.85 14.1 34.8 14.05 35.65 13.8 35.7 13.55 36.0 13.55 36.35 13.85 36.65 14.85 37.05 15.2 37.0 15.5 36.75 15.8 36.05 16.3 36.65 Q16.15 36.7 16.15 36.9 L16.2 37.25 16.5 37.5 20.8 38.05 20.85 38.05 23.9 37.75 24.15 37.65 24.3 37.4 24.3 37.1 24.15 36.55 24.7 36.8 24.7 37.15 24.9 37.45 25.3 37.5 28.45 36.3 28.65 36.2 28.75 36.0 29.0 35.4 28.95 35.05 28.95 35.0 29.15 35.0 29.4 34.7 29.75 34.05 29.8 33.85 31.0 33.85 31.05 33.95 31.35 34.2 31.7 34.15 31.95 33.85 32.2 32.9 32.3 33.0 32.65 33.15 33.0 33.0 Q34.8 31.15 35.95 29.15 L36.0 28.85 35.85 28.55 34.8 27.5 35.65 27.55 35.7 27.8 36.0 28.1 36.35 28.05 36.65 27.8 37.05 26.8 37.05 26.45 36.8 26.15 36.0 25.8 36.65 25.3 36.9 25.5 37.25 25.45 37.5 25.15 38.05 20.8 37.75 17.75 37.65 17.5 37.45 17.35 37.15 17.3 36.55 17.45 36.8 16.9 37.15 16.95 37.45 16.7 37.5 16.35 Q37.0 14.6 36.3 13.15 L36.1 12.9 35.5 12.65 35.1 12.65 35.0 12.7 35.0 12.55 34.75 12.25 34.1 11.9 33.85 11.8 33.85 10.65 M33.75 8.7 L35.25 10.55 36.05 11.7 Q37.15 13.5 37.75 15.65 L37.75 15.6 37.9 16.05 38.05 16.75 Q38.45 18.55 38.5 20.5 L38.5 20.8 38.4 22.5 38.15 24.6 37.4 27.3 37.4 27.25 36.9 28.35 36.2 29.7 35.0 31.4 33.45 33.3 Q33.3 33.3 33.3 33.4 L32.95 33.75 31.05 35.25 29.95 36.05 Q28.05 37.15 26.0 37.75 L25.55 37.9 24.9 38.05 21.1 38.5 20.8 38.5 19.15 38.4 17.05 38.15 14.35 37.35 13.25 36.9 11.95 36.2 10.2 35.0 8.35 33.45 8.3 33.35 7.9 32.95 6.35 31.05 5.55 29.95 5.6 29.95 Q4.45 28.05 3.85 26.0 L3.85 25.95 3.7 25.55 3.55 24.95 3.55 24.9 Q3.15 23.05 3.1 21.1 L3.1 20.8 3.2 19.15 3.2 19.1 Q3.25 18.05 3.45 17.05 L4.3 14.35 4.75 13.25 5.45 11.95 6.6 10.2 8.3 8.3 8.35 8.15 8.65 7.9 8.7 7.9 10.55 6.35 Q11.1 5.9 11.7 5.6 L11.7 5.55 Q13.5 4.45 15.65 3.85 L16.05 3.7 16.1 3.7 16.7 3.55 20.5 3.1 20.8 3.1 22.5 3.2 24.55 3.45 27.3 4.25 28.35 4.75 29.7 5.45 31.4 6.6 33.3 8.2 33.4 8.35 33.75 8.7" fill="#e9decf" fill-rule="evenodd" stroke="none"/>
    <path d="M40.85 17.75 L41.05 20.0 41.05 20.8 41.05 21.15 39.1 20.4 39.0 20.35 38.6 16.9 40.75 17.15 40.8 17.15 40.85 17.75 M37.85 9.75 L38.95 11.6 38.85 11.65 37.75 13.0 37.7 13.15 37.8 13.35 37.95 13.4 39.7 13.55 39.8 13.55 40.1 14.5 38.3 15.6 38.25 15.5 Q37.65 13.3 36.45 11.45 L36.45 11.4 35.8 10.45 35.85 10.35 37.2 8.85 37.65 9.5 37.7 9.55 37.85 9.75 M27.2 3.7 L24.7 2.95 24.7 2.85 23.65 0.7 26.35 1.25 27.95 1.75 27.2 3.7 M20.85 0.55 L21.15 0.55 20.4 2.5 20.35 2.6 16.9 3.0 17.15 0.95 17.15 0.85 17.75 0.75 20.0 0.55 20.05 0.55 20.8 0.55 20.85 0.55 M38.8 24.7 L40.9 23.8 40.35 26.35 39.85 27.95 37.95 27.25 37.9 27.25 38.65 24.7 38.8 24.7 M15.5 3.35 Q13.3 3.95 11.45 5.15 L10.45 5.8 8.85 4.45 9.5 4.0 9.55 3.95 9.75 3.75 Q10.65 3.15 11.65 2.7 L11.75 2.8 13.0 3.85 13.15 3.9 13.35 3.85 13.4 3.7 13.55 1.95 13.55 1.85 Q14.0 1.6 14.5 1.5 L14.55 1.6 15.6 3.3 15.45 3.4 15.5 3.35 M1.75 13.7 L3.75 14.45 2.95 16.9 2.85 16.95 0.75 18.0 1.25 15.3 1.75 13.7 M0.55 20.45 L2.5 21.25 2.6 21.25 Q2.65 23.05 3.0 24.7 L0.9 24.45 0.85 24.45 0.75 23.9 0.75 23.85 0.55 21.6 0.55 20.85 0.55 20.8 0.55 20.45 M3.35 26.15 Q3.95 28.25 5.15 30.2 L5.8 31.15 5.75 31.2 4.4 32.75 3.95 32.1 3.75 31.85 2.7 30.0 2.8 29.9 3.85 28.6 3.9 28.45 3.85 28.3 3.7 28.2 1.95 28.05 1.85 28.05 1.5 27.1 1.55 27.1 3.35 26.0 3.4 26.15 3.35 26.15 M16.95 38.8 L18.0 40.9 15.3 40.35 13.7 39.9 14.45 37.9 16.95 38.65 16.95 38.8 M31.25 35.85 L32.75 37.2 32.1 37.65 31.85 37.9 Q30.9 38.45 30.0 38.95 L29.95 38.85 28.6 37.75 28.45 37.7 28.3 37.8 28.2 37.95 28.05 39.7 28.05 39.8 27.15 40.1 27.1 40.1 26.0 38.3 26.1 38.25 26.15 38.25 Q28.25 37.65 30.2 36.5 L30.2 36.45 Q30.65 36.1 31.2 35.8 L31.25 35.85 M21.25 39.0 L24.7 38.65 24.45 40.75 24.45 40.8 23.9 40.85 21.6 41.05 20.8 41.05 20.5 41.05 21.25 39.1 21.25 39.0" fill="#241742" fill-rule="evenodd" stroke="none"/>
    <path d="M30.5 11.15 L30.85 11.5 31.2 11.9 31.6 12.4 31.65 12.45 31.7 12.5 32.25 13.25 32.4 13.6 32.45 13.65 32.9 14.3 32.85 14.3 33.05 14.7 33.55 15.7 33.95 16.95 34.2 18.2 34.3 18.75 34.35 19.25 34.45 20.25 34.45 20.8 34.45 21.25 34.35 22.55 34.1 23.95 34.15 23.9 33.95 24.65 33.7 25.5 33.65 25.6 33.6 25.8 33.15 26.85 32.75 27.5 32.8 27.45 32.0 28.7 31.1 29.85 30.5 30.45 30.45 30.5 30.1 30.85 29.7 31.2 29.3 31.55 29.25 31.6 29.2 31.6 28.95 31.85 28.4 32.2 28.35 32.25 28.0 32.45 27.95 32.45 27.3 32.9 27.35 32.85 26.95 33.05 25.9 33.55 24.65 33.95 24.7 33.95 23.4 34.25 23.45 34.2 22.85 34.3 22.35 34.35 21.35 34.4 20.8 34.45 20.3 34.4 19.1 34.35 17.65 34.1 17.7 34.15 17.0 33.95 16.1 33.7 15.9 33.55 15.8 33.55 14.7 33.1 14.8 33.15 14.15 32.75 14.15 32.8 12.9 32.0 11.8 31.1 11.15 30.5 11.1 30.45 10.7 30.05 10.4 29.7 10.05 29.3 10.05 29.25 10.0 29.2 9.8 28.95 9.4 28.35 9.35 28.3 9.25 28.1 9.15 27.95 8.75 27.3 8.75 27.35 8.55 26.95 8.1 25.85 8.05 25.8 7.7 24.7 7.7 24.65 7.4 23.45 7.3 22.85 7.25 22.4 7.25 22.35 7.2 21.35 7.2 21.3 7.15 20.8 7.2 20.4 7.2 20.3 7.25 19.1 7.5 17.65 7.65 17.05 7.95 16.1 7.95 16.0 8.1 15.8 Q8.25 15.25 8.55 14.75 L8.55 14.7 8.85 14.1 9.6 12.9 10.55 11.8 11.1 11.15 11.15 11.1 11.55 10.75 11.65 10.65 11.9 10.4 12.4 10.0 12.45 9.95 12.5 9.9 13.3 9.35 Q13.35 9.25 13.5 9.25 L13.65 9.15 14.3 8.75 14.7 8.55 15.8 8.1 15.8 8.05 16.95 7.7 18.2 7.4 18.75 7.3 19.2 7.25 19.25 7.25 20.25 7.2 20.35 7.2 20.8 7.15 21.2 7.2 21.3 7.2 22.55 7.25 23.95 7.5 24.0 7.5 24.55 7.65 25.5 7.95 25.65 7.95 25.85 8.05 26.9 8.5 27.5 8.85 28.75 9.6 28.7 9.6 29.8 10.5 29.85 10.55 30.45 11.1 30.5 11.15 M30.85 16.25 L30.45 15.95 31.5 17.45 30.85 16.25 M10.9 11.25 L10.75 11.3 10.8 11.25 10.9 11.25 M15.95 11.15 L17.5 10.1 Q16.85 10.35 16.25 10.75 L15.95 11.15 M10.75 25.35 L11.15 25.65 10.1 24.15 10.75 25.35 M25.35 30.85 L25.65 30.45 24.15 31.5 25.35 30.85 M30.3 30.85 L30.35 30.75 30.35 30.8 30.3 30.85" fill="#cecce1" fill-rule="evenodd" stroke="none"/>
    <path d="M30.85 16.25 L31.5 17.45 30.45 15.95 30.85 16.25 M15.95 11.15 L16.25 10.75 Q16.85 10.35 17.5 10.1 L15.95 11.15 M10.75 25.35 L10.1 24.15 11.15 25.65 10.75 25.35 M25.35 30.85 L24.15 31.5 25.65 30.45 25.35 30.85" fill="#ecf2f1" fill-rule="evenodd" stroke="none"/>
    <path d="M27.55 6.85 L28.55 5.75 28.85 5.6 29.15 5.65 Q31.2 6.8 33.0 8.6 L33.15 8.95 33.0 9.3 32.9 9.4 33.85 9.7 Q34.0 9.75 34.15 9.9 L34.2 10.3 33.95 10.6 33.85 10.65 33.6 10.65 32.2 10.25 31.9 10.0 31.85 9.65 32.05 9.35 32.25 9.25 Q30.7 7.75 29.0 6.75 L27.85 7.9 27.5 8.05 27.15 7.9 27.0 7.55 27.0 7.5 27.15 7.2 27.55 6.85 M36.55 17.45 L37.15 17.3 37.45 17.35 37.65 17.5 37.75 17.75 38.05 20.8 37.5 25.15 37.25 25.45 36.9 25.5 36.65 25.3 36.6 25.25 36.55 24.9 Q37.0 22.95 37.05 20.8 L36.85 18.45 36.35 18.55 36.25 18.55 36.0 18.5 35.75 18.15 35.85 17.8 36.0 17.6 36.15 17.55 36.55 17.45 M36.0 25.8 L36.8 26.15 37.05 26.45 37.05 26.8 36.65 27.8 36.35 28.05 36.0 28.1 35.7 27.8 35.65 27.55 35.7 27.45 35.9 26.85 35.4 26.6 35.15 26.3 35.15 25.95 35.45 25.7 35.85 25.7 36.0 25.8 M34.8 27.5 L35.85 28.55 36.0 28.85 35.95 29.15 Q34.8 31.15 33.0 33.0 L32.65 33.15 32.3 33.0 32.2 32.9 31.95 33.85 31.7 34.15 31.35 34.2 31.05 33.95 31.0 33.85 31.0 33.6 31.4 32.2 31.6 31.9 32.0 31.85 32.3 32.05 32.35 32.25 34.9 29.0 33.7 27.85 33.55 27.55 Q33.55 27.3 33.7 27.15 33.8 27.0 34.05 27.0 L34.15 27.0 34.4 27.15 34.8 27.5 M24.15 36.55 L24.3 37.1 24.3 37.4 24.15 37.65 23.9 37.75 20.85 38.05 20.8 38.05 16.5 37.5 16.2 37.25 16.15 36.9 Q16.15 36.7 16.3 36.65 L16.35 36.6 16.75 36.55 20.8 37.05 23.2 36.85 23.1 36.4 23.05 36.3 23.1 36.05 23.4 35.8 23.8 35.8 24.0 36.05 24.05 36.1 24.05 36.15 24.15 36.55 M15.8 36.05 L15.5 36.75 15.2 37.0 14.85 37.05 13.85 36.65 13.55 36.35 13.55 36.0 13.8 35.7 14.05 35.65 14.2 35.7 14.75 35.9 15.0 35.45 15.25 35.15 15.65 35.15 15.9 35.4 15.95 35.8 15.8 36.05 M14.1 34.8 L13.1 35.85 12.8 36.0 12.45 35.95 Q10.4 34.8 8.65 33.0 L8.5 32.65 Q8.5 32.45 8.65 32.3 L8.8 32.2 7.8 31.95 7.5 31.7 7.45 31.35 7.65 31.05 7.75 31.0 8.05 31.0 9.45 31.4 9.75 31.6 9.8 32.0 9.55 32.3 9.4 32.35 Q10.9 33.85 12.6 34.85 L13.7 33.7 13.75 33.65 Q13.85 33.5 14.1 33.5 L14.45 33.65 14.6 34.0 14.6 34.15 14.5 34.35 14.1 34.8 M5.05 24.15 L4.5 24.3 4.25 24.3 4.0 24.15 3.85 23.9 Q3.55 22.4 3.55 20.8 3.55 18.5 4.15 16.5 L4.35 16.2 4.75 16.15 5.0 16.3 5.05 16.35 5.1 16.75 Q4.55 18.6 4.55 20.8 L4.75 23.2 5.2 23.1 5.35 23.05 5.6 23.1 5.85 23.4 5.8 23.8 5.55 24.0 5.5 24.05 5.05 24.15 M5.6 15.8 L4.85 15.45 4.6 15.2 4.6 14.85 5.0 13.85 5.25 13.55 5.65 13.55 5.9 13.8 5.95 14.05 5.95 14.2 5.7 14.75 6.2 15.0 6.5 15.3 6.45 15.65 6.2 15.95 5.8 15.9 5.6 15.8 M6.8 14.05 L5.75 13.1 5.6 12.8 Q5.55 12.6 5.65 12.45 6.8 10.4 8.6 8.6 8.75 8.45 8.95 8.45 L9.3 8.6 9.4 8.75 9.7 7.8 9.9 7.5 10.3 7.45 10.6 7.65 10.65 7.75 10.65 8.05 10.25 9.45 10.0 9.75 9.65 9.8 9.35 9.55 9.25 9.35 Q7.75 10.85 6.75 12.6 L7.95 13.7 7.95 13.75 8.1 14.1 8.0 14.45 7.65 14.6 7.5 14.6 7.25 14.5 6.8 14.05 M17.45 5.05 L17.3 4.45 17.4 4.1 17.7 3.85 20.8 3.55 25.15 4.15 Q25.3 4.2 25.45 4.35 L25.5 4.75 25.35 5.0 25.25 5.05 24.9 5.1 20.8 4.55 18.45 4.75 18.55 5.25 18.55 5.35 18.5 5.65 18.15 5.85 17.8 5.8 17.6 5.6 17.55 5.45 17.45 5.05 M25.8 5.6 L26.2 4.8 Q26.25 4.65 26.45 4.6 L26.8 4.6 27.8 5.0 28.05 5.25 28.1 5.65 27.8 5.9 27.55 5.95 27.45 5.95 26.85 5.7 26.6 6.25 26.3 6.5 25.9 6.45 25.7 6.15 25.75 5.75 25.8 5.6" fill="#2e2b4a" fill-rule="evenodd" stroke="none"/>
    <path d="M27.0 7.5 L27.0 7.55 27.15 7.9 27.5 8.05 27.85 7.9 28.0 8.0 29.3 8.8 30.5 9.8 31.15 10.4 31.2 10.45 31.6 10.85 31.65 10.9 31.95 11.25 32.0 11.3 32.4 11.8 32.45 11.85 32.5 11.9 33.1 12.7 33.2 12.85 33.3 13.15 33.6 13.6 33.75 13.8 33.75 13.85 33.95 14.25 34.45 15.3 34.5 15.4 34.9 16.65 35.2 17.9 35.1 18.0 35.05 18.4 35.25 18.7 35.3 18.7 35.35 19.15 35.45 20.2 35.45 20.25 35.45 20.8 35.45 21.3 35.45 21.35 35.35 22.65 35.35 22.7 35.1 24.15 35.1 24.2 34.95 24.8 34.95 24.85 34.65 25.7 34.6 25.95 34.55 26.1 34.5 26.15 34.15 27.0 34.05 27.0 Q33.8 27.0 33.7 27.15 33.55 27.3 33.55 27.55 L33.7 27.85 33.65 27.95 32.85 29.25 32.8 29.3 31.85 30.5 31.2 31.15 31.15 31.2 30.75 31.6 30.7 31.65 30.35 31.95 30.3 32.0 29.8 32.4 29.7 32.5 28.9 33.1 28.85 33.1 28.55 33.3 28.55 33.25 28.0 33.65 27.8 33.75 27.4 33.95 26.3 34.45 26.25 34.5 24.95 34.9 23.7 35.15 23.6 35.1 23.25 35.05 Q23.05 35.1 22.95 35.25 L22.9 35.3 22.5 35.35 22.45 35.35 21.35 35.4 20.9 35.45 20.7 35.45 20.3 35.4 18.95 35.35 17.45 35.1 16.85 34.95 16.75 34.95 15.9 34.65 15.65 34.6 15.45 34.45 14.6 34.15 14.6 34.0 14.45 33.65 14.1 33.5 Q13.85 33.5 13.75 33.65 L13.7 33.7 13.65 33.65 12.35 32.85 12.3 32.8 11.15 31.85 10.45 31.2 10.4 31.15 10.0 30.75 9.6 30.3 9.2 29.8 9.1 29.7 8.55 28.9 8.3 28.5 8.0 28.0 7.9 27.8 7.85 27.8 7.65 27.4 7.15 26.2 6.75 24.95 6.45 23.75 6.55 23.6 6.6 23.25 6.35 22.95 6.3 22.9 6.25 22.45 6.2 21.45 6.15 20.8 6.2 20.2 6.25 18.95 6.5 17.5 6.7 16.75 6.95 15.9 7.0 15.75 7.15 15.4 7.5 14.6 7.65 14.6 8.0 14.45 8.1 14.1 7.95 13.75 7.95 13.7 7.95 13.65 Q8.3 12.95 8.8 12.3 L9.8 11.15 10.4 10.45 10.5 10.4 10.45 10.4 10.85 10.05 10.95 9.95 11.3 9.6 11.8 9.2 11.85 9.15 11.9 9.1 12.7 8.5 12.75 8.5 13.15 8.3 13.65 8.0 13.8 7.9 13.85 7.85 14.25 7.65 15.45 7.15 15.4 7.15 16.7 6.75 16.65 6.75 17.9 6.45 18.0 6.55 18.4 6.6 18.7 6.35 18.7 6.3 19.15 6.25 20.15 6.2 20.8 6.15 21.4 6.2 22.65 6.25 22.7 6.25 24.15 6.5 24.85 6.7 25.7 6.95 25.85 7.0 26.15 7.1 26.2 7.1 27.0 7.5 M30.5 11.15 L30.45 11.1 29.85 10.55 29.8 10.5 28.7 9.6 28.75 9.6 27.5 8.85 26.9 8.5 25.85 8.05 25.65 7.95 25.5 7.95 24.55 7.65 24.0 7.5 23.95 7.5 22.55 7.25 21.3 7.2 21.2 7.2 20.8 7.15 20.35 7.2 20.25 7.2 19.25 7.25 19.2 7.25 18.75 7.3 18.2 7.4 16.95 7.7 15.8 8.05 15.8 8.1 14.7 8.55 14.3 8.75 13.65 9.15 13.5 9.25 Q13.35 9.25 13.3 9.35 L12.5 9.9 12.45 9.95 12.4 10.0 11.9 10.4 11.65 10.65 11.55 10.75 11.15 11.1 11.1 11.15 10.55 11.8 9.6 12.9 8.85 14.1 8.55 14.7 8.55 14.75 Q8.25 15.25 8.1 15.8 L7.95 16.0 7.95 16.1 7.65 17.05 7.5 17.65 7.25 19.1 7.2 20.3 7.2 20.4 7.15 20.8 7.2 21.3 7.2 21.35 7.25 22.35 7.25 22.4 7.3 22.85 7.4 23.45 7.7 24.65 7.7 24.7 8.05 25.8 8.1 25.85 8.55 26.95 8.75 27.35 8.75 27.3 9.15 27.95 9.25 28.1 9.35 28.3 9.4 28.35 9.8 28.95 10.0 29.2 10.05 29.25 10.05 29.3 10.4 29.7 10.7 30.05 11.1 30.45 11.15 30.5 11.8 31.1 12.9 32.0 14.15 32.8 14.15 32.75 14.8 33.15 14.7 33.1 15.8 33.55 15.9 33.55 16.1 33.7 17.0 33.95 17.7 34.15 17.65 34.1 19.1 34.35 20.3 34.4 20.8 34.45 21.35 34.4 22.35 34.35 22.85 34.3 23.45 34.2 23.4 34.25 24.7 33.95 24.65 33.95 25.9 33.55 26.95 33.05 27.35 32.85 27.3 32.9 27.95 32.45 28.0 32.45 28.35 32.25 28.4 32.2 28.95 31.85 29.2 31.6 29.25 31.6 29.3 31.55 29.7 31.2 30.1 30.85 30.45 30.5 30.5 30.45 31.1 29.85 32.0 28.7 32.8 27.45 32.75 27.5 33.15 26.85 33.6 25.8 33.65 25.6 33.7 25.5 33.95 24.65 34.15 23.9 34.1 23.95 34.35 22.55 34.45 21.25 34.45 20.8 34.45 20.25 34.35 19.25 34.3 18.75 34.2 18.2 33.95 16.95 33.55 15.7 33.05 14.7 32.85 14.3 32.9 14.3 32.45 13.65 32.4 13.6 32.25 13.25 31.7 12.5 31.65 12.45 31.6 12.4 31.2 11.9 30.85 11.5 30.5 11.15 M10.7 10.3 L10.75 10.3 10.8 10.25 10.7 10.3 M10.9 11.25 L10.8 11.25 10.75 11.3 10.9 11.25 M31.35 30.8 L31.3 30.85 31.3 30.95 31.35 30.8 M30.3 30.85 L30.35 30.8 30.35 30.75 30.3 30.85" fill="#141210" fill-rule="evenodd" stroke="none"/>
    <path d="M33.85 11.8 L34.1 11.9 34.75 12.25 35.0 12.55 35.0 12.7 35.1 12.65 35.5 12.65 36.1 12.9 36.3 13.15 Q37.0 14.6 37.5 16.35 L37.45 16.7 37.15 16.95 36.8 16.9 36.75 16.9 36.55 16.6 35.5 13.75 35.05 13.55 34.8 13.25 34.75 13.1 34.65 13.15 34.25 13.1 34.15 13.05 33.6 12.75 33.4 12.45 33.45 12.05 Q33.55 11.9 33.75 11.85 L33.85 11.8 M29.8 33.85 L29.75 34.05 29.4 34.7 29.15 35.0 28.95 35.0 28.95 35.05 29.0 35.4 28.75 36.0 28.65 36.2 28.45 36.3 25.3 37.5 24.9 37.45 24.7 37.15 24.7 36.8 24.75 36.75 Q24.85 36.6 25.05 36.55 L27.9 35.5 28.05 35.1 28.3 34.8 28.35 34.8 28.5 34.75 28.5 34.7 28.5 34.3 28.6 34.2 28.85 33.65 29.15 33.4 29.5 33.4 29.8 33.7 29.8 33.85 M7.75 29.8 L7.55 29.75 6.9 29.4 6.65 29.1 6.6 28.95 6.2 29.0 5.6 28.75 5.3 28.5 Q4.55 26.95 4.15 25.3 L4.2 24.9 Q4.3 24.7 4.5 24.7 L4.8 24.7 4.85 24.75 5.1 25.05 Q5.45 26.5 6.15 27.9 L6.5 28.05 Q6.7 28.1 6.8 28.3 L6.85 28.3 6.85 28.55 6.95 28.5 7.35 28.5 7.45 28.55 8.0 28.85 8.25 29.15 8.2 29.55 7.9 29.8 7.75 29.8 M11.8 7.75 L11.9 7.5 12.25 6.85 Q12.35 6.65 12.55 6.6 L12.7 6.6 12.65 6.5 12.65 6.15 12.9 5.55 13.15 5.3 Q14.6 4.55 16.35 4.15 L16.7 4.2 16.95 4.5 16.9 4.8 16.9 4.85 16.6 5.1 Q15.05 5.45 13.75 6.15 L13.55 6.6 13.3 6.85 13.25 6.85 13.1 6.85 13.15 7.0 13.1 7.4 13.05 7.45 12.75 8.05 12.4 8.25 12.05 8.2 11.8 7.85 11.8 7.75" fill="#3f3a65" fill-rule="evenodd" stroke="none"/>
    <path d="M18.55 5.35 L18.75 6.0 18.7 6.3 18.7 6.35 18.4 6.6 18.0 6.55 17.9 6.45 17.8 6.25 17.6 5.6 17.8 5.8 18.15 5.85 18.5 5.65 18.55 5.35 M36.0 17.6 L35.85 17.8 35.75 18.15 36.0 18.5 36.25 18.55 35.65 18.75 35.3 18.7 35.25 18.7 35.05 18.4 35.1 18.0 35.2 17.9 Q35.25 17.8 35.4 17.8 L36.0 17.6 M6.3 22.9 L6.35 22.95 6.6 23.25 6.55 23.6 6.45 23.75 6.25 23.85 5.55 24.0 5.8 23.8 5.85 23.4 5.6 23.1 5.35 23.05 6.0 22.9 6.3 22.9 M22.9 35.3 L22.95 35.25 Q23.05 35.1 23.25 35.05 L23.6 35.1 23.7 35.15 23.85 35.4 24.0 36.05 23.8 35.8 23.4 35.8 23.1 36.05 23.05 36.3 22.9 35.65 22.9 35.3" fill="#222222" fill-rule="evenodd" stroke="none"/>
    <path d="M40.85 17.75 L40.8 17.15 40.75 17.15 38.6 16.9 39.0 20.35 39.1 20.4 41.05 21.15 41.05 20.8 41.05 20.0 40.85 17.75 M40.65 14.55 L40.65 14.5 40.8 15.05 41.25 16.9 41.25 16.95 41.35 17.7 41.55 20.0 41.55 20.8 41.55 21.5 41.45 23.45 40.85 26.5 40.25 28.35 39.05 30.9 39.0 30.95 38.9 31.1 38.85 31.15 36.7 34.2 36.7 34.25 36.6 34.35 36.5 34.45 35.55 35.5 35.45 35.55 35.4 35.55 34.15 36.7 34.2 36.7 33.3 37.4 32.4 38.05 32.2 38.25 32.15 38.25 30.1 39.45 28.4 40.2 27.1 40.65 26.6 40.8 24.7 41.25 23.95 41.35 21.6 41.55 20.8 41.55 20.1 41.55 18.2 41.4 15.15 40.85 13.25 40.25 Q11.95 39.75 10.75 39.05 L10.7 39.0 10.5 38.9 10.45 38.85 7.4 36.7 7.25 36.55 7.1 36.45 6.15 35.5 4.95 34.2 4.9 34.15 4.2 33.3 3.55 32.4 3.4 32.2 3.35 32.15 2.2 30.05 2.2 30.1 1.45 28.4 0.95 27.05 0.8 26.55 0.85 26.6 0.35 24.7 0.25 23.95 0.05 21.65 0.05 20.85 0.05 20.1 Q0.05 19.1 0.2 18.2 0.35 16.6 0.75 15.15 1.0 14.15 1.4 13.25 1.85 11.95 2.6 10.75 L2.6 10.8 2.75 10.45 4.9 7.4 5.0 7.3 5.1 7.2 5.2 7.15 6.05 6.2 6.15 6.1 7.45 4.95 7.45 4.9 8.3 4.2 Q8.7 3.85 9.25 3.55 L9.45 3.35 9.5 3.35 Q10.5 2.7 11.55 2.2 12.35 1.7 13.25 1.45 L13.2 1.45 14.55 0.95 15.05 0.8 15.05 0.85 16.9 0.35 16.95 0.35 17.65 0.25 20.0 0.05 20.8 0.05 21.5 0.05 21.55 0.05 23.45 0.15 26.5 0.75 28.35 1.4 Q29.6 1.85 30.9 2.6 L30.85 2.6 31.15 2.75 34.2 4.9 34.25 4.95 34.45 5.15 35.5 6.1 35.55 6.15 36.7 7.45 37.4 8.3 38.1 9.25 38.25 9.45 39.45 11.5 40.2 13.2 40.65 14.55 M40.95 23.25 L41.05 21.65 40.95 21.65 39.0 20.9 38.95 22.35 39.0 22.4 40.95 23.25 M30.8 3.1 L30.7 3.2 28.95 4.45 29.95 5.0 Q30.8 5.5 31.65 6.15 L31.75 6.1 33.8 5.25 30.85 3.15 30.8 3.1 M34.2 5.6 L34.1 5.65 32.05 6.5 33.7 7.9 33.75 7.95 34.0 8.25 34.1 8.2 36.1 7.5 35.25 6.55 35.1 6.4 34.2 5.6 M33.75 8.7 L33.4 8.35 33.3 8.2 31.4 6.6 29.7 5.45 28.35 4.75 27.3 4.25 24.55 3.45 22.5 3.2 20.8 3.1 20.5 3.1 16.7 3.55 16.1 3.7 16.05 3.7 15.65 3.85 Q13.5 4.45 11.7 5.55 L11.7 5.6 Q11.1 5.9 10.55 6.35 L8.7 7.9 8.65 7.9 8.35 8.15 8.3 8.3 6.6 10.2 5.45 11.95 4.75 13.25 4.3 14.35 3.45 17.05 Q3.25 18.05 3.2 19.1 L3.2 19.15 3.1 20.8 3.1 21.1 Q3.15 23.05 3.55 24.9 L3.55 24.95 3.7 25.55 3.85 25.95 3.85 26.0 Q4.45 28.05 5.6 29.95 L5.55 29.95 6.35 31.05 7.9 32.95 8.3 33.35 8.35 33.45 10.2 35.0 11.95 36.2 13.25 36.9 14.35 37.35 17.05 38.15 19.15 38.4 20.8 38.5 21.1 38.5 24.9 38.05 25.55 37.9 26.0 37.75 Q28.05 37.15 29.95 36.05 L31.05 35.25 32.95 33.75 33.3 33.4 Q33.3 33.3 33.45 33.3 L35.0 31.4 36.2 29.7 36.9 28.35 37.4 27.25 37.4 27.3 38.15 24.6 38.4 22.5 38.5 20.8 38.5 20.5 Q38.45 18.55 38.05 16.75 L37.9 16.05 37.75 15.6 37.75 15.65 Q37.15 13.5 36.05 11.7 L35.25 10.55 33.75 8.7 M36.4 7.9 L36.35 7.95 34.35 8.6 35.5 10.0 36.8 8.5 36.9 8.45 36.4 7.9 M37.85 9.75 L37.7 9.55 37.65 9.5 37.2 8.85 35.85 10.35 35.8 10.45 36.45 11.4 36.45 11.45 Q37.65 13.3 38.25 15.5 L38.3 15.6 40.1 14.5 39.8 13.55 39.7 13.55 37.95 13.4 37.8 13.35 37.7 13.15 37.75 13.0 38.85 11.65 38.95 11.6 37.85 9.75 M30.35 2.85 Q29.35 2.3 28.35 1.9 L27.65 3.85 28.45 4.2 28.5 4.15 30.35 2.85 M27.2 3.7 L27.95 1.75 26.35 1.25 23.65 0.7 24.7 2.85 24.7 2.95 27.2 3.7 M21.65 0.55 L21.65 0.65 20.9 2.6 22.35 2.7 22.4 2.6 23.1 0.65 21.65 0.55 M22.85 2.75 L24.15 2.9 23.4 1.3 22.85 2.75 M20.85 0.55 L20.8 0.55 20.05 0.55 20.0 0.55 17.75 0.75 17.15 0.85 17.15 0.95 16.9 3.0 20.35 2.6 20.4 2.5 21.15 0.55 20.85 0.55 M40.3 15.2 L40.3 15.15 40.3 15.0 38.5 16.1 38.45 16.1 38.5 16.4 38.6 16.4 40.7 16.65 40.3 15.2 M38.45 12.95 L39.6 13.05 39.15 12.1 38.45 12.95 M38.8 24.7 L38.65 24.7 37.9 27.25 37.95 27.25 39.85 27.95 40.35 26.35 40.9 23.8 38.8 24.7 M16.4 3.05 L16.65 0.95 15.2 1.3 15.15 1.3 15.0 1.35 16.1 3.15 16.1 3.2 16.4 3.1 16.4 3.05 M38.9 22.85 L38.7 24.2 40.35 23.5 38.9 22.85 M15.5 3.35 L15.45 3.4 15.6 3.3 14.55 1.6 14.5 1.5 Q14.0 1.6 13.55 1.85 L13.55 1.95 13.4 3.7 13.35 3.85 13.15 3.9 13.0 3.85 11.75 2.8 11.65 2.7 Q10.65 3.15 9.75 3.75 L9.55 3.95 9.5 4.0 8.85 4.45 10.45 5.8 11.45 5.15 Q13.3 3.95 15.5 3.35 M13.05 2.0 L12.1 2.45 12.95 3.15 13.05 2.0 M7.9 5.2 L7.95 5.3 8.6 7.3 10.0 6.15 8.5 4.8 8.45 4.75 7.9 5.2 M3.15 10.75 L3.15 10.8 3.05 10.85 3.2 10.95 4.45 12.7 5.0 11.7 6.15 10.0 6.1 9.9 5.25 7.8 3.15 10.75 M8.25 7.6 L8.2 7.55 7.5 5.5 6.55 6.35 6.55 6.4 6.5 6.5 5.6 7.45 5.65 7.5 6.5 9.55 7.85 8.0 7.95 7.9 8.25 7.6 M4.25 13.2 L4.15 13.1 2.85 11.3 1.9 13.25 1.95 13.25 3.9 13.95 4.25 13.2 M1.75 13.7 L1.25 15.3 0.75 18.0 2.85 16.95 2.95 16.9 3.75 14.45 1.75 13.7 M2.6 20.75 L2.7 19.25 2.65 19.25 0.65 18.55 0.55 19.95 0.65 20.0 2.6 20.75 M2.9 17.5 L1.35 18.3 2.75 18.75 Q2.75 18.1 2.9 17.5 M0.55 20.45 L0.55 20.8 0.55 20.85 0.55 21.6 0.75 23.85 0.75 23.9 0.85 24.45 0.9 24.45 3.0 24.7 Q2.65 23.05 2.6 21.25 L2.5 21.25 0.55 20.45 M3.35 26.15 L3.4 26.15 3.35 26.0 1.55 27.1 1.5 27.1 1.85 28.05 1.95 28.05 3.7 28.2 3.85 28.3 3.9 28.45 3.85 28.6 2.8 29.9 2.7 30.0 3.75 31.85 3.95 32.1 4.4 32.75 5.75 31.2 5.8 31.15 5.15 30.2 Q3.95 28.25 3.35 26.15 M3.15 25.55 L3.2 25.5 3.1 25.2 3.05 25.2 0.9 24.95 1.3 26.45 1.35 26.6 3.15 25.55 M4.75 33.15 L4.7 33.15 5.2 33.75 5.3 33.7 7.3 33.0 6.15 31.6 4.75 33.15 M2.0 28.55 L2.45 29.55 3.15 28.65 2.0 28.55 M7.95 33.75 L7.9 33.65 7.85 33.6 7.65 33.4 7.55 33.45 5.55 34.1 6.5 35.15 7.45 36.05 7.5 36.0 9.55 35.15 7.95 33.75 M9.95 35.45 L9.85 35.55 7.8 36.4 10.75 38.45 10.85 38.5 10.9 38.45 12.7 37.2 11.7 36.65 9.95 35.45 M19.25 38.95 L19.25 39.0 18.55 40.95 19.95 41.05 20.0 40.95 20.75 39.0 19.25 38.95 M16.95 38.8 L16.95 38.65 14.45 37.9 13.7 39.9 15.3 40.35 18.0 40.9 16.95 38.8 M13.2 37.4 L13.1 37.5 11.3 38.8 13.25 39.7 14.0 37.7 13.2 37.4 M18.25 40.3 L18.75 38.9 17.45 38.75 18.25 40.3 M37.8 27.7 L37.75 27.65 37.4 28.45 37.5 28.55 38.8 30.3 39.7 28.35 37.8 27.7 M37.15 28.95 L36.65 29.95 35.45 31.65 35.55 31.75 36.4 33.8 38.45 30.85 38.5 30.75 38.45 30.7 37.15 28.95 M35.15 32.1 L33.75 33.7 33.7 33.7 33.65 33.75 33.35 34.0 33.45 34.15 34.1 36.1 35.15 35.15 35.25 35.05 36.05 34.2 36.0 34.1 35.15 32.1 M31.25 35.85 L31.2 35.8 Q30.65 36.1 30.2 36.45 L30.2 36.5 Q28.25 37.65 26.15 38.25 L26.1 38.25 26.0 38.3 27.1 40.1 27.15 40.1 28.05 39.8 28.05 39.7 28.2 37.95 28.3 37.8 28.45 37.7 28.6 37.75 29.95 38.85 30.0 38.95 Q30.9 38.45 31.85 37.9 L32.1 37.65 32.75 37.2 31.25 35.85 M33.75 36.4 L33.7 36.35 33.0 34.35 31.6 35.5 33.15 36.9 33.75 36.4 M28.65 38.45 L28.6 39.6 29.55 39.15 28.65 38.45 M25.55 38.5 L25.55 38.45 25.2 38.5 25.2 38.65 24.95 40.7 26.45 40.3 26.65 40.25 25.55 38.5 M21.25 39.0 L21.25 39.1 20.5 41.05 20.8 41.05 21.6 41.05 23.9 40.85 24.45 40.8 24.45 40.75 24.7 38.65 21.25 39.0" fill="#ebe3cb" fill-rule="evenodd" stroke="none"/>
    <path d="M34.0 12.3 L33.0 13.3 34.7 12.65 35.3 12.95 35.45 13.25 36.35 15.6 36.25 16.0 Q34.3 15.15 32.35 15.7 28.6 16.6 21.95 20.4 15.3 24.25 9.55 20.15 6.65 18.2 4.85 17.75 L4.8 17.65 Q4.9 16.7 5.25 15.8 L5.25 15.75 6.65 14.8 5.75 14.4 6.2 13.5 8.2 13.55 6.65 12.35 Q7.8 10.75 9.25 9.3 L9.45 9.1 9.55 9.1 9.6 8.95 10.25 9.35 10.6 8.1 10.75 8.05 12.65 8.05 13.0 7.4 14.15 8.4 13.45 6.8 13.7 6.2 Q15.1 5.55 16.65 5.25 L18.25 5.8 17.9 5.0 20.75 4.75 20.8 4.75 24.9 5.2 25.95 6.45 26.4 5.6 27.35 5.95 27.25 7.85 28.6 6.5 Q30.5 7.55 32.2 9.1 L32.35 9.15 31.9 9.7 33.25 10.1 33.35 10.25 33.35 11.95 34.0 12.3" fill="url(#gradient0)" fill-rule="evenodd" stroke="none"/>
    <path d="M25.7 11.1 L24.75 11.55 25.25 10.95 25.3 10.95 Q25.75 10.55 25.7 11.1 M17.35 15.5 Q18.8 16.0 20.1 17.9 L20.5 18.5 19.9 18.1 Q17.35 16.15 17.35 15.5" fill="#784b01" fill-rule="evenodd" stroke="none"/>
    <path d="M25.25 10.95 L24.75 11.55 25.7 11.1 27.25 12.95 26.15 13.8 Q24.05 16.7 21.65 16.9 23.15 13.5 24.6 11.55 22.4 13.7 17.35 15.5 L14.6 15.7 Q18.1 14.0 20.4 11.75 22.75 9.85 25.25 10.95 M17.65 23.6 L18.25 23.75 17.65 23.65 17.65 23.6" fill="#985f01" fill-rule="evenodd" stroke="none"/>
    <path d="M14.6 15.7 L17.35 15.5 Q22.4 13.7 24.6 11.55 23.15 13.5 21.65 16.9 24.05 16.7 26.15 13.8 L27.25 13.05 28.1 14.85 28.65 18.45 28.95 18.75 29.05 18.8 27.55 19.9 27.25 19.1 27.15 18.7 26.05 19.55 26.55 20.7 24.55 22.25 24.15 21.4 24.15 21.35 24.0 21.0 22.95 21.8 23.5 23.1 21.8 24.4 21.8 24.35 20.75 24.2 21.8 24.35 21.8 24.4 20.75 24.2 20.75 26.65 20.75 29.35 18.25 28.9 Q16.45 27.5 16.95 26.4 L17.4 24.3 16.95 26.4 Q16.45 27.5 18.25 28.9 L17.95 28.85 14.3 28.25 13.9 28.15 13.9 24.75 13.9 23.8 13.9 23.05 14.0 22.95 13.75 22.95 13.15 17.3 13.15 17.25 14.6 15.7 M20.5 18.55 Q20.1 21.2 21.35 23.65 L21.8 24.35 21.35 23.65 Q20.1 21.2 20.5 18.55 M20.5 18.5 L20.1 17.9 Q18.8 16.0 17.35 15.5 17.35 16.15 19.9 18.1 L20.5 18.5 M14.0 20.85 L14.0 22.95 14.0 20.85 Q14.6 15.3 18.0 19.65 L19.3 21.55 Q18.95 20.2 18.95 18.85 L18.95 18.45 Q16.6 14.8 14.05 17.7 L14.0 20.85 M20.4 23.9 L19.85 22.9 19.3 21.55 19.85 22.9 20.4 23.9 M15.3 23.2 L14.0 22.95 15.3 23.2 M15.7 23.45 L15.2 23.3 15.2 23.25 15.45 20.65 17.45 21.0 17.4 21.5 17.45 21.0 15.45 20.65 15.2 23.25 15.2 23.3 15.7 23.45 15.65 23.9 17.4 24.3 17.6 24.3 17.65 23.65 18.25 23.75 17.65 23.6 17.85 21.6 17.4 21.5 17.25 23.65 15.7 23.45 M13.9 23.05 L15.2 23.25 13.9 23.05 M14.2 24.1 L13.9 24.75 14.2 24.1" fill="#835201" fill-rule="evenodd" stroke="none"/>
    <path d="M27.55 19.9 L28.05 21.1 27.0 21.9 27.0 21.95 26.9 21.55 26.85 21.4 26.55 20.7 26.05 19.55 27.15 18.7 27.25 19.1 27.55 19.9 M22.95 21.8 L24.0 21.0 24.15 21.35 24.15 21.4 24.55 22.25 24.85 23.1 24.95 23.35 23.9 24.2 23.8 24.0 23.5 23.1 22.95 21.8" fill="#fedc76" fill-rule="evenodd" stroke="none"/>
    <path d="M27.0 21.95 L27.0 24.1 20.75 29.35 20.75 26.65 23.8 24.0 23.9 24.2 24.95 23.35 24.85 23.1 26.85 21.4 26.9 21.55 27.0 21.95" fill="#644300" fill-rule="evenodd" stroke="none"/>
    <path d="M24.55 22.25 L26.55 20.7 26.85 21.4 24.85 23.1 24.55 22.25 M20.75 24.2 L21.8 24.4 23.5 23.1 23.8 24.0 20.75 26.65 20.75 24.2" fill="#4f3100" fill-rule="evenodd" stroke="none"/>
    <path d="M27.0 24.1 L27.15 24.1 30.35 25.05 27.65 30.1 22.65 33.5 20.8 32.5 20.2 32.2 20.45 31.45 Q20.45 30.5 18.15 28.95 L17.95 28.85 18.15 28.95 Q20.45 30.5 20.45 31.45 L20.2 32.2 13.35 28.5 14.3 28.25 17.95 28.85 18.25 28.9 18.7 29.2 Q21.0 30.75 21.05 31.7 L20.8 32.5 21.05 31.7 Q21.0 30.75 18.7 29.2 L18.25 28.9 20.75 29.35 27.0 24.1" fill="#000000" fill-opacity="0.21176471" fill-rule="evenodd" stroke="none"/>
    <path d="M14.0 20.85 L14.05 17.7 Q16.6 14.8 18.95 18.45 L18.95 18.85 Q18.95 20.2 19.3 21.55 L18.0 19.65 Q14.6 15.3 14.0 20.85" fill="#3f2701" fill-rule="evenodd" stroke="none"/>
    <path d="M15.7 23.45 L17.25 23.65 17.4 21.5 17.85 21.6 17.65 23.6 17.65 23.65 17.6 24.3 17.4 24.3 15.65 23.9 15.7 23.45" fill="#333333" fill-rule="evenodd" stroke="none"/>
    <path d="M25.25 10.95 Q22.75 9.85 20.4 11.75 18.1 14.0 14.6 15.7 L17.35 15.5 Q18.8 16.0 20.1 17.9 L20.5 18.5 M27.25 12.95 L25.7 11.1 Q25.75 10.55 25.3 10.95 L25.25 10.95 M27.25 13.05 L28.1 14.85 28.65 18.45 28.95 18.75 29.05 18.8 27.55 19.9 M27.0 21.95 L27.0 24.1 20.75 29.35 20.75 26.65 20.75 24.2 21.8 24.35 21.35 23.65 Q20.1 21.2 20.5 18.55 M20.8 32.5 L19.5 33.65 Q17.95 34.7 13.9 33.75 M24.55 22.25 L26.55 20.7 M21.8 24.4 L21.8 24.35 M21.8 24.4 L23.5 23.1 M14.6 15.7 L13.15 17.25 13.15 17.3 13.75 22.95 M14.0 22.95 L14.0 20.85 14.05 17.7 Q16.6 14.8 18.95 18.45 L18.95 18.85 Q18.95 20.2 19.3 21.55 L19.85 22.9 20.4 23.9 M13.9 23.8 L13.9 23.05 14.0 22.95 M17.4 24.3 L16.95 26.4 Q16.45 27.5 18.25 28.9 L20.75 29.35 M18.25 28.9 L17.95 28.85 14.3 28.25 13.9 28.15 13.9 24.75 13.9 23.8 M20.8 32.5 L21.05 31.7 Q21.0 30.75 18.7 29.2 L18.25 28.9 M13.9 24.75 Q12.45 28.1 12.35 28.6 12.2 29.0 9.55 29.65 M13.9 24.75 L14.2 24.1" fill="none" stroke="#382301" stroke-linecap="butt" stroke-linejoin="miter-clip" stroke-miterlimit="3.0" stroke-width="1.0"/>
    <path d="M27.55 19.9 L28.05 21.1 M22.95 21.8 L24.0 21.0 24.15 21.35 24.15 21.4 24.55 22.25 24.85 23.1 24.95 23.35 M26.05 19.55 L27.15 18.7 27.25 19.1 27.55 19.9" fill="none" stroke="#ffffcc" stroke-linecap="butt" stroke-linejoin="miter-clip" stroke-miterlimit="3.0" stroke-width="1.0"/>
    <path d="M28.05 21.1 L27.0 21.9 27.0 21.95 26.9 21.55 26.85 21.4 26.55 20.7 26.05 19.55 M23.5 23.1 L22.95 21.8 M23.8 24.0 L23.5 23.1 M24.95 23.35 L23.9 24.2 23.8 24.0" fill="none" stroke="#2f2300" stroke-linecap="butt" stroke-linejoin="miter-clip" stroke-miterlimit="3.0" stroke-width="1.5"/>
    <path d="M17.4 21.5 L17.45 21.0 15.45 20.65 15.2 23.25 15.2 23.3 15.7 23.45 17.25 23.65 17.4 21.5" fill="none" stroke="#835201" stroke-linecap="butt" stroke-linejoin="miter-clip" stroke-miterlimit="3.0" stroke-width="2.0"/>
    <path d="M17.4 21.5 L17.85 21.6 17.65 23.6 17.65 23.65 17.6 24.3 17.4 24.3 15.65 23.9 15.7 23.45" fill="none" stroke="#333333" stroke-linecap="butt" stroke-linejoin="miter-clip" stroke-miterlimit="3.0" stroke-width="2.0"/>
    <path d="M13.9 33.75 L13.3 33.7 M17.95 28.85 L18.15 28.95 Q20.45 30.5 20.45 31.45 L20.2 32.2 18.95 33.4 Q17.45 34.4 13.9 33.75 M13.9 23.8 L12.1 28.1 Q11.95 28.6 9.3 29.15" fill="none" stroke="#5d3e00" stroke-linecap="butt" stroke-linejoin="miter-clip" stroke-miterlimit="3.0" stroke-width="2.0"/>
  </g>
  <defs>
    <radialGradient cx="0" cy="0" gradientTransform="matrix(0.0598, 0.0, 0.0, 0.0377, 12.75, -4.45)" gradientUnits="userSpaceOnUse" id="gradient0" r="819.2" spreadMethod="pad">
      <stop offset="0.4745098039215686" stop-color="#ffffff" stop-opacity="0.77254903"/>
      <stop offset="1.0" stop-color="#ffffff" stop-opacity="0.0"/>
    </radialGradient>
  </defs>
</svg>
