<?xml version="1.0" encoding="UTF-8" standalone="no"?>
<svg xmlns:ffdec="https://www.free-decompiler.com/flash" xmlns:xlink="http://www.w3.org/1999/xlink" ffdec:objectType="shape" height="28.4px" width="18.45px" xmlns="http://www.w3.org/2000/svg">
  <g transform="matrix(1.0, 0.0, 0.0, 1.0, -0.05, 0.0)">
    <path d="M14.2 11.1 L14.25 11.2 14.25 11.05 14.45 10.55 14.65 10.45 14.65 10.6 14.7 10.8 15.35 11.5 16.05 11.9 16.2 11.9 16.05 11.9 15.35 11.5 14.7 10.8 14.65 10.6 14.65 10.45 14.75 10.15 15.1 10.05 15.1 9.95 Q15.0 9.75 15.15 9.6 L15.85 8.95 Q16.3 8.5 16.6 9.05 L17.05 10.15 16.95 10.95 16.85 11.0 16.75 11.05 16.65 11.05 16.4 11.05 16.55 11.1 16.9 11.1 16.9 11.2 16.9 11.75 16.75 11.85 16.6 11.9 16.2 11.9 16.45 11.95 16.55 11.95 16.6 11.95 Q16.75 12.4 16.45 12.65 L16.15 12.8 Q18.25 15.0 18.45 18.15 18.75 21.85 15.85 24.5 L15.15 25.1 14.95 25.05 14.05 25.85 13.75 26.2 Q16.9 28.85 18.1 27.45 L18.1 27.6 Q17.9 28.3 16.85 28.4 L14.45 27.9 13.55 27.5 12.25 26.9 11.95 26.8 9.5 27.15 9.25 27.15 9.0 27.15 6.55 26.8 6.25 26.9 5.0 27.5 4.1 27.9 1.7 28.4 Q0.6 28.3 0.45 27.6 L0.4 27.45 Q1.55 28.85 4.75 26.2 L4.5 25.85 3.6 25.05 3.35 25.1 2.7 24.5 Q-0.2 21.85 0.05 18.15 0.3 15.0 2.35 12.8 L2.1 12.65 Q1.8 12.4 1.9 11.95 L1.95 11.95 2.1 11.95 2.3 11.9 2.45 11.9 3.2 11.5 3.8 10.8 3.85 10.6 3.9 10.45 4.1 10.55 4.25 11.05 4.25 11.2 4.3 11.1 4.3 11.2 3.75 12.15 2.85 12.75 2.8 12.75 2.4 12.8 2.65 13.3 3.35 13.35 4.3 12.8 4.85 11.85 Q5.0 11.35 4.7 11.1 L4.55 11.0 Q6.35 9.75 7.7 9.65 L8.85 9.55 8.9 7.75 8.85 7.75 8.65 4.6 6.55 5.75 9.2 0.1 9.2 0.0 9.3 0.0 9.35 0.0 9.35 0.1 11.95 5.75 9.9 4.6 9.7 7.75 9.7 9.55 10.8 9.65 Q12.15 9.75 14.0 11.0 13.85 11.0 13.8 11.1 13.55 11.35 13.65 11.85 L14.25 12.8 15.15 13.35 15.95 13.3 16.1 12.8 15.7 12.75 15.65 12.75 14.75 12.15 14.2 11.2 14.2 11.1 M15.1 10.05 L15.15 10.1 15.35 10.4 15.4 10.45 15.65 10.7 15.65 10.75 15.85 10.85 16.0 10.9 16.4 11.05 16.0 10.9 15.85 10.85 15.65 10.75 15.65 10.7 15.4 10.45 15.35 10.4 15.15 10.1 15.1 10.05 M15.35 11.5 L16.2 11.9 15.35 11.5 M4.8 18.25 Q4.15 18.85 4.2 19.75 4.15 20.65 4.8 21.25 5.45 21.85 6.35 21.85 7.15 21.85 7.8 21.25 8.4 20.65 8.45 19.75 L8.4 19.3 8.3 19.25 8.35 19.45 8.0 20.25 7.2 20.55 Q6.7 20.5 6.45 20.25 6.1 19.9 6.1 19.45 6.1 18.95 6.45 18.65 L6.45 18.6 5.0 18.1 4.8 18.25 M7.55 24.05 Q6.75 24.15 6.0 23.6 L6.45 24.8 6.7 25.25 7.2 25.65 7.3 25.5 7.55 24.05 M13.55 18.1 L12.1 18.6 12.1 18.65 12.4 19.45 12.1 20.25 11.3 20.55 10.5 20.25 Q10.2 19.9 10.2 19.45 L10.25 19.25 10.2 19.3 Q10.05 19.5 10.05 19.75 10.05 20.65 10.75 21.25 11.35 21.85 12.25 21.85 13.1 21.85 13.75 21.25 14.4 20.65 14.4 19.75 14.4 18.85 13.75 18.25 L13.55 18.1 M10.95 24.05 L11.25 25.5 11.3 25.65 11.8 25.25 12.1 24.8 12.6 23.6 10.95 24.05" fill="#000000" fill-rule="evenodd" stroke="none"/>
    <path d="M14.2 11.1 L14.2 11.2 14.75 12.15 15.65 12.75 15.7 12.75 16.1 12.8 15.95 13.3 15.15 13.35 14.25 12.8 13.65 11.85 Q13.55 11.35 13.8 11.1 13.85 11.0 14.0 11.0 L14.15 10.95 14.2 11.1 M4.55 11.0 L4.7 11.1 Q5.0 11.35 4.85 11.85 L4.3 12.8 3.35 13.35 2.65 13.3 2.4 12.8 2.8 12.75 2.85 12.75 3.75 12.15 4.3 11.2 4.3 11.1 4.35 10.95 4.55 11.0 M3.9 10.45 L3.85 10.6 3.8 10.8 3.2 11.5 2.3 11.9 1.9 11.9 1.85 11.85 1.65 11.75 Q1.4 11.5 1.65 11.2 L1.65 11.1 1.95 11.1 2.1 11.05 2.15 11.05 2.5 10.9 2.7 10.85 2.85 10.75 2.85 10.7 3.15 10.45 3.25 10.4 3.4 10.1 3.8 10.15 3.9 10.45 M3.35 25.1 L3.6 25.05 4.5 25.85 4.75 26.2 Q1.55 28.85 0.4 27.45 0.35 26.85 1.05 26.2 1.9 25.5 3.25 25.1 L3.35 25.1 M18.1 27.45 Q16.9 28.85 13.75 26.2 L14.05 25.85 14.95 25.05 15.15 25.1 15.25 25.1 Q16.6 25.5 17.45 26.2 18.2 26.85 18.1 27.45" fill="#ffcc00" fill-rule="evenodd" stroke="none"/>
    <path d="M4.8 18.25 L5.0 18.1 6.45 18.6 6.45 18.65 Q6.1 18.95 6.1 19.45 6.1 19.9 6.45 20.25 6.7 20.5 7.2 20.55 L8.0 20.25 8.35 19.45 8.3 19.25 8.4 19.3 8.45 19.75 Q8.4 20.65 7.8 21.25 7.15 21.85 6.35 21.85 5.45 21.85 4.8 21.25 4.15 20.65 4.2 19.75 4.15 18.85 4.8 18.25 M7.55 24.05 L7.3 25.5 7.2 25.65 6.7 25.25 6.45 24.8 6.0 23.6 Q6.75 24.15 7.55 24.05 M10.95 24.05 L12.6 23.6 12.1 24.8 11.8 25.25 11.3 25.65 11.25 25.5 10.95 24.05 M13.55 18.1 L13.75 18.25 Q14.4 18.85 14.4 19.75 14.4 20.65 13.75 21.25 13.1 21.85 12.25 21.85 11.35 21.85 10.75 21.25 10.05 20.65 10.05 19.75 10.05 19.5 10.2 19.3 L10.25 19.25 10.2 19.45 Q10.2 19.9 10.5 20.25 L11.3 20.55 12.1 20.25 12.4 19.45 12.1 18.65 12.1 18.6 13.55 18.1" fill="#ffffcc" fill-rule="evenodd" stroke="none"/>
  </g>
</svg>
