<?xml version="1.0" encoding="UTF-8" standalone="no"?>
<svg xmlns:ffdec="https://www.free-decompiler.com/flash" xmlns:xlink="http://www.w3.org/1999/xlink" ffdec:objectType="shape" height="53.0px" width="68.0px" xmlns="http://www.w3.org/2000/svg">
  <g transform="matrix(1.0, 0.0, 0.0, 1.0, 0.0, 0.0)">
    <path d="M22.25 53.0 L7.6 53.0 Q0.0 53.0 0.0 45.45 L0.0 7.6 Q0.0 0.0 7.6 0.0 L68.0 0.0 68.0 0.1 22.7 0.1 Q15.0 0.1 15.0 7.65 L15.0 45.45 Q15.0 52.75 22.25 53.0" fill="#ffffff" fill-opacity="0.0" fill-rule="evenodd" stroke="none"/>
    <path d="M22.25 53.0 Q15.0 52.75 15.0 45.45 L15.0 7.65 Q15.0 0.1 22.7 0.1 L68.0 0.1 68.0 53.0 22.25 53.0" fill="#7b6962" fill-rule="evenodd" stroke="none"/>
    <path d="M42.8 26.5 Q48.55 27.8 55.65 30.9 61.8 33.5 68.0 34.0 L68.0 51.85 23.3 51.85 Q16.45 51.85 16.45 45.05 L16.45 31.25 Q16.55 28.3 20.55 26.45 23.95 24.75 27.55 24.85 36.3 25.05 42.8 26.5" fill="url(#gradient0)" fill-rule="evenodd" stroke="none"/>
    <path d="M68.0 0.0 L68.0 52.95 56.9 52.95 56.9 0.0 68.0 0.0" fill="url(#gradient1)" fill-rule="evenodd" stroke="none"/>
    <path d="M54.25 21.65 Q54.25 22.6 53.65 23.25 53.05 23.95 52.1 24.05 L51.75 24.1 51.7 24.55 53.0 24.35 Q54.15 24.05 54.55 23.05 L54.6 22.7 Q54.6 21.9 54.25 21.65 M47.3 14.45 L47.95 14.5 Q51.1 14.7 51.7 17.55 52.65 16.95 54.25 16.95 L54.35 16.95 Q56.65 16.95 57.85 18.35 59.25 19.8 59.25 22.9 L59.2 23.3 59.2 23.35 Q58.9 25.2 57.9 26.5 56.5 28.35 53.75 28.95 L53.55 28.95 53.35 28.95 53.3 28.95 52.65 29.1 52.65 29.25 Q52.65 30.2 52.05 30.85 51.4 31.6 50.4 31.6 49.55 31.6 48.85 31.05 L48.75 30.95 48.35 30.45 Q46.45 32.1 44.05 32.65 L44.05 32.95 Q45.55 33.05 46.7 34.2 L47.3 34.85 47.4 35.05 Q47.35 34.9 47.7 34.9 L47.75 34.9 47.85 34.9 48.05 34.95 Q48.75 35.05 49.35 35.65 50.1 36.35 50.1 37.5 L49.8 38.2 49.1 38.5 34.45 38.5 33.75 38.2 Q33.45 37.9 33.45 37.5 33.45 36.35 34.2 35.65 34.8 35.05 35.5 34.95 L35.95 34.85 36.05 34.85 36.25 34.85 36.7 34.25 36.75 34.2 Q37.95 33.05 39.5 32.95 L39.5 32.65 Q37.1 32.1 35.2 30.4 L34.85 30.9 34.75 31.05 Q34.0 31.6 33.1 31.6 32.2 31.6 31.5 30.9 L31.45 30.85 Q30.85 30.2 30.85 29.25 L30.85 29.1 30.15 28.95 30.0 28.95 29.8 28.95 Q25.0 27.95 24.4 23.35 L24.3 22.95 24.3 22.9 Q24.2 17.0 29.15 16.95 L29.3 16.95 Q30.85 16.95 31.9 17.55 32.45 14.65 35.7 14.5 L36.2 14.45 47.3 14.45 M50.05 26.45 L50.1 26.4 50.05 26.45 M50.1 26.4 L50.6 26.0 50.35 25.75 50.1 26.4 M29.95 23.3 L29.9 23.25 Q29.25 22.55 29.3 21.65 28.95 21.9 28.9 22.65 L29.0 22.95 Q29.3 24.05 30.6 24.35 L31.9 24.55 31.85 24.05 31.4 24.05 Q30.55 23.95 29.95 23.3 M48.05 29.45 L48.05 29.4 Q47.95 29.75 48.2 30.1 L48.15 29.85 48.05 29.45" fill="url(#gradient2)" fill-rule="evenodd" stroke="none"/>
    <path d="M58.2 23.15 Q58.0 21.35 57.1 20.4 56.15 19.35 54.35 19.35 L54.25 19.35 Q52.3 19.35 51.45 20.4 51.0 20.85 50.8 21.45 L50.8 20.35 Q50.8 17.05 47.75 16.9 L47.3 16.85 36.2 16.85 35.75 16.9 Q32.75 17.05 32.75 20.35 L32.75 21.45 32.1 20.4 Q31.2 19.35 29.3 19.35 L29.15 19.35 Q25.8 19.45 25.4 22.9 L25.3 22.9 Q25.2 18.05 29.15 17.95 L29.3 17.95 Q31.2 17.95 32.1 19.0 L32.75 20.05 32.75 18.95 Q32.75 15.65 35.75 15.5 L36.2 15.45 47.3 15.45 47.75 15.5 Q50.8 15.65 50.8 18.95 L50.8 20.05 Q51.0 19.45 51.45 19.0 52.3 17.95 54.25 17.95 L54.35 17.95 Q56.15 17.95 57.1 19.0 58.25 20.25 58.25 22.9 L58.2 23.1 58.2 23.15 M50.1 26.4 L50.65 26.0 Q51.55 25.45 53.05 25.35 55.05 24.95 55.55 23.2 L55.6 24.1 Q55.25 26.2 53.05 26.65 51.05 26.75 50.1 27.7 L50.1 26.45 50.1 26.4 M35.2 37.5 L34.45 37.5 Q34.45 36.8 34.9 36.35 35.3 35.95 35.75 35.9 L35.8 35.9 35.95 35.85 36.05 35.85 36.8 35.85 37.45 34.9 Q38.5 33.9 39.95 33.9 L40.5 33.9 40.5 32.55 41.45 32.65 42.05 32.65 42.15 32.65 43.05 32.55 43.05 33.9 43.6 33.9 Q45.0 33.9 46.0 34.9 L46.7 35.85 47.5 35.85 47.65 35.85 47.7 35.9 47.75 35.9 Q48.25 35.95 48.65 36.35 49.1 36.8 49.1 37.5 L48.35 37.5 47.75 37.3 47.7 37.3 47.65 37.25 47.5 37.25 46.7 37.25 46.0 36.3 Q45.0 35.3 43.6 35.3 L43.05 35.3 43.05 33.95 42.15 34.05 42.05 34.05 41.45 34.05 40.5 33.95 40.5 35.3 39.95 35.3 Q38.5 35.3 37.45 36.3 L36.8 37.25 36.05 37.25 35.95 37.25 35.8 37.3 35.75 37.3 35.2 37.5 M33.4 26.35 L33.3 27.35 33.45 27.7 Q32.4 26.75 30.5 26.65 28.25 26.2 27.9 24.1 L28.0 23.2 Q28.45 24.95 30.5 25.35 32.0 25.45 32.95 26.0 L33.4 26.35" fill="#13100f" fill-rule="evenodd" stroke="none"/>
    <path d="M25.4 22.9 Q25.8 19.45 29.15 19.35 L29.3 19.35 Q31.2 19.35 32.1 20.4 L32.75 21.45 32.75 20.35 Q32.75 17.05 35.75 16.9 L36.2 16.85 47.3 16.85 47.75 16.9 Q50.8 17.05 50.8 20.35 L50.8 21.45 Q51.0 20.85 51.45 20.4 52.3 19.35 54.25 19.35 L54.35 19.35 Q56.15 19.35 57.1 20.4 58.0 21.35 58.2 23.15 L58.2 23.2 Q57.95 24.8 57.1 25.9 55.9 27.45 53.55 27.95 L53.3 27.95 Q52.4 28.0 51.95 28.35 51.65 28.65 51.65 29.25 L51.3 30.2 Q50.95 30.6 50.4 30.6 L49.45 30.25 49.1 29.65 49.1 29.55 49.05 29.35 Q49.0 28.65 49.1 28.1 L48.15 29.2 Q46.0 31.4 43.05 31.8 L42.15 31.85 42.05 31.85 41.45 31.85 40.5 31.8 Q37.55 31.4 35.4 29.2 L34.45 28.1 34.45 29.35 34.1 30.25 33.1 30.6 Q32.6 30.6 32.2 30.2 31.85 29.8 31.85 29.25 L31.6 28.35 Q31.15 28.0 30.2 27.95 L30.0 27.95 Q25.85 27.1 25.35 23.1 L25.4 22.9 M49.1 29.5 L49.1 29.55 49.1 29.5 M55.55 23.2 L55.6 22.8 Q55.6 20.8 54.25 20.55 53.65 20.6 53.3 20.85 53.15 21.1 53.25 21.65 L52.9 22.6 Q52.55 23.0 52.0 23.05 51.5 23.1 51.05 22.75 L50.8 22.4 50.8 23.15 Q50.75 24.85 50.1 26.4 L50.05 26.45 50.1 26.45 50.1 27.7 Q51.05 26.75 53.05 26.65 55.25 26.2 55.6 24.1 L55.55 23.2 M35.2 37.5 L35.75 37.3 35.8 37.3 35.95 37.25 36.05 37.25 36.8 37.25 37.45 36.3 Q38.5 35.3 39.95 35.3 L40.5 35.3 40.5 33.95 41.45 34.05 42.05 34.05 42.15 34.05 43.05 33.95 43.05 35.3 43.6 35.3 Q45.0 35.3 46.0 36.3 L46.7 37.25 47.5 37.25 47.65 37.25 47.7 37.3 47.75 37.3 48.35 37.5 35.2 37.5 M33.4 26.35 Q32.8 24.8 32.75 23.15 L32.75 22.4 32.45 22.75 Q32.05 23.1 31.5 23.05 31.0 23.0 30.65 22.6 30.25 22.2 30.3 21.65 L30.2 20.85 29.3 20.55 Q27.9 20.8 27.9 22.8 L28.0 23.2 27.9 24.1 Q28.25 26.2 30.5 26.65 32.4 26.75 33.45 27.7 L33.3 27.35 33.4 26.35 33.45 26.4 33.4 26.35" fill="#322c28" fill-rule="evenodd" stroke="none"/>
    <path d="M25.3 22.9 L25.4 22.9 25.35 23.1 25.3 22.9" fill="#000000" fill-rule="evenodd" stroke="none"/>
  </g>
  <defs>
    <linearGradient gradientTransform="matrix(0.0, -0.0241, 0.0413, 0.0, 50.25, 30.25)" gradientUnits="userSpaceOnUse" id="gradient0" spreadMethod="pad" x1="-819.2" x2="819.2">
      <stop offset="0.0" stop-color="#000000" stop-opacity="0.15294118"/>
      <stop offset="1.0" stop-color="#000000" stop-opacity="0.0"/>
    </linearGradient>
    <linearGradient gradientTransform="matrix(-0.0044, 0.0, 0.0, -0.0323, 64.05, 26.5)" gradientUnits="userSpaceOnUse" id="gradient1" spreadMethod="pad" x1="-819.2" x2="819.2">
      <stop offset="0.0" stop-color="#000000" stop-opacity="0.3019608"/>
      <stop offset="1.0" stop-color="#000000" stop-opacity="0.0"/>
    </linearGradient>
    <linearGradient gradientTransform="matrix(0.0, 0.0142, -0.0111, 0.0, -22.7, 28.4)" gradientUnits="userSpaceOnUse" id="gradient2" spreadMethod="pad" x1="-819.2" x2="819.2">
      <stop offset="0.0" stop-color="#ffffff" stop-opacity="0.0"/>
      <stop offset="1.0" stop-color="#ffffff" stop-opacity="0.4"/>
    </linearGradient>
  </defs>
</svg>
