<?xml version="1.0" encoding="UTF-8" standalone="no"?>
<svg xmlns:ffdec="https://www.free-decompiler.com/flash" xmlns:xlink="http://www.w3.org/1999/xlink" ffdec:objectType="shape" height="104.25px" width="344.05px" xmlns="http://www.w3.org/2000/svg">
  <g transform="matrix(1.0, 0.0, 0.0, 1.0, -221.0, -247.85)">
    <path d="M230.25 250.05 L229.8 250.45 230.3 251.25 230.65 251.15 230.9 252.0 230.45 252.1 Q230.45 253.35 229.35 254.2 228.25 255.1 226.65 255.1 225.45 255.1 224.5 254.55 L224.0 254.2 Q222.9 253.35 222.9 252.1 222.9 250.85 224.0 250.0 L224.5 249.65 225.5 249.25 226.65 249.1 Q228.1 249.1 229.15 249.8 L229.55 249.35 230.25 250.05 M229.6 251.5 L229.25 250.9 228.9 251.25 228.35 250.75 228.65 250.35 Q227.85 249.75 226.7 249.75 L225.5 249.95 Q225.0 250.1 224.55 250.45 L224.5 250.5 Q223.7 251.15 223.7 252.1 223.7 253.05 224.5 253.75 L224.55 253.8 Q225.45 254.5 226.7 254.5 227.9 254.5 228.8 253.8 229.6 253.15 229.65 252.2 L229.25 252.3 229.1 251.65 229.6 251.5 M227.7 251.05 Q226.1 251.35 226.0 252.25 226.05 252.95 226.95 253.0 L226.95 252.15 228.1 252.15 228.1 253.75 225.7 253.65 Q224.35 253.1 224.8 251.8 225.5 250.35 227.45 250.0 L227.7 251.05" fill="#2b1509" fill-rule="evenodd" stroke="none"/>
    <path d="M230.25 250.05 L229.55 249.35 229.15 249.8 Q228.1 249.1 226.65 249.1 L225.5 249.25 224.5 249.65 224.0 250.0 Q222.9 250.85 222.9 252.1 222.9 253.35 224.0 254.2 L224.5 254.55 Q225.45 255.1 226.65 255.1 228.25 255.1 229.35 254.2 230.45 253.35 230.45 252.1 L230.9 252.0 230.65 251.15 230.3 251.25 229.8 250.45 230.25 250.05 M229.6 251.5 L229.25 250.9 228.9 251.25 228.35 250.75 228.65 250.35 Q227.85 249.75 226.7 249.75 L225.5 249.95 Q225.0 250.1 224.55 250.45 L224.5 250.5 Q223.7 251.15 223.7 252.1 223.7 253.05 224.5 253.75 L224.55 253.8 Q225.45 254.5 226.7 254.5 227.9 254.5 228.8 253.8 229.6 253.15 229.65 252.2 L229.25 252.3 229.1 251.65 229.6 251.5 M227.7 251.05 L227.45 250.0 Q225.5 250.35 224.8 251.8 224.35 253.1 225.7 253.65 L228.1 253.75 228.1 252.15 226.95 252.15 226.95 253.0 Q226.05 252.95 226.0 252.25 226.1 251.35 227.7 251.05 Z" fill="none" stroke="#2b1509" stroke-linecap="butt" stroke-linejoin="miter-clip" stroke-miterlimit="3.0" stroke-width="2.0"/>
    <path d="M230.25 250.05 L229.8 250.45 230.3 251.25 230.65 251.15 230.9 252.0 230.45 252.1 Q230.45 253.35 229.35 254.2 228.25 255.1 226.65 255.1 225.1 255.1 224.0 254.2 222.9 253.35 222.9 252.1 222.9 250.85 224.0 250.0 224.7 249.45 225.5 249.25 L226.65 249.1 Q228.1 249.1 229.15 249.8 L229.55 249.35 230.25 250.05 M229.6 251.5 L229.25 250.9 228.9 251.25 228.35 250.75 228.65 250.35 Q227.85 249.75 226.7 249.75 L225.5 249.95 Q225.0 250.1 224.55 250.45 223.7 251.1 223.7 252.1 223.7 253.1 224.55 253.8 225.45 254.5 226.7 254.5 227.9 254.5 228.8 253.8 229.6 253.15 229.65 252.2 L229.25 252.3 229.1 251.65 229.6 251.5 M227.7 251.05 Q226.1 251.35 226.0 252.25 226.05 252.95 226.95 253.0 L226.95 252.15 228.1 252.15 228.1 253.75 225.7 253.65 Q224.35 253.1 224.8 251.8 225.5 250.35 227.45 250.0 L227.7 251.05" fill="#54bcbc" fill-rule="evenodd" stroke="none"/>
    <path d="M229.6 251.5 L229.1 251.65 229.25 252.3 229.65 252.2 Q229.6 253.15 228.8 253.8 227.9 254.5 226.7 254.5 225.45 254.5 224.55 253.8 223.7 253.1 223.7 252.1 223.7 251.1 224.55 250.45 225.0 250.1 225.5 249.95 L226.7 249.75 Q227.85 249.75 228.65 250.35 L228.35 250.75 228.9 251.25 229.25 250.9 229.6 251.5 M227.7 251.05 L227.45 250.0 Q225.5 250.35 224.8 251.8 224.35 253.1 225.7 253.65 L228.1 253.75 228.1 252.15 226.95 252.15 226.95 253.0 Q226.05 252.95 226.0 252.25 226.1 251.35 227.7 251.05" fill="#1d3638" fill-rule="evenodd" stroke="none"/>
    <path d="M224.55 346.45 L224.5 346.5 Q223.7 347.15 223.7 348.1 223.7 349.05 224.5 349.75 L224.55 349.8 Q225.45 350.5 226.7 350.5 227.9 350.5 228.8 349.8 229.6 349.15 229.65 348.2 L229.25 348.3 229.1 347.65 229.6 347.5 229.25 346.9 228.9 347.25 228.35 346.75 228.65 346.35 Q227.85 345.75 226.7 345.75 L225.5 345.95 Q225.0 346.1 224.55 346.45 M228.1 348.15 L228.1 349.75 225.7 349.65 Q224.35 349.1 224.8 347.8 225.5 346.35 227.45 346.0 L227.7 347.05 Q226.1 347.35 226.0 348.25 226.05 348.95 226.95 349.0 L226.95 348.15 228.1 348.15 M224.5 345.65 L225.5 345.25 226.65 345.1 Q228.1 345.1 229.15 345.8 L229.55 345.35 230.25 346.05 229.8 346.45 230.3 347.25 230.65 347.15 230.9 348.0 230.45 348.1 Q230.45 349.35 229.35 350.2 228.25 351.1 226.65 351.1 225.45 351.1 224.5 350.55 L224.0 350.2 Q222.9 349.35 222.9 348.1 222.9 346.85 224.0 346.0 L224.5 345.65" fill="#2b1509" fill-rule="evenodd" stroke="none"/>
    <path d="M224.55 346.45 L224.5 346.5 Q223.7 347.15 223.7 348.1 223.7 349.05 224.5 349.75 L224.55 349.8 Q225.45 350.5 226.7 350.5 227.9 350.5 228.8 349.8 229.6 349.15 229.65 348.2 L229.25 348.3 229.1 347.65 229.6 347.5 229.25 346.9 228.9 347.25 228.35 346.75 228.65 346.35 Q227.85 345.75 226.7 345.75 L225.5 345.95 Q225.0 346.1 224.55 346.45 M224.5 345.65 L224.0 346.0 Q222.9 346.85 222.9 348.1 222.9 349.35 224.0 350.2 L224.5 350.55 Q225.45 351.1 226.65 351.1 228.25 351.1 229.35 350.2 230.45 349.35 230.45 348.1 L230.9 348.0 230.65 347.15 230.3 347.25 229.8 346.45 230.25 346.05 229.55 345.35 229.15 345.8 Q228.1 345.1 226.65 345.1 L225.5 345.25 224.5 345.65 M228.1 348.15 L226.95 348.15 226.95 349.0 Q226.05 348.95 226.0 348.25 226.1 347.35 227.7 347.05 L227.45 346.0 Q225.5 346.35 224.8 347.8 224.35 349.1 225.7 349.65 L228.1 349.75 228.1 348.15 Z" fill="none" stroke="#2b1509" stroke-linecap="butt" stroke-linejoin="miter-clip" stroke-miterlimit="3.0" stroke-width="2.0"/>
    <path d="M224.55 346.45 Q225.0 346.1 225.5 345.95 L226.7 345.75 Q227.85 345.75 228.65 346.35 L228.35 346.75 228.9 347.25 229.25 346.9 229.6 347.5 229.1 347.65 229.25 348.3 229.65 348.2 Q229.6 349.15 228.8 349.8 227.9 350.5 226.7 350.5 225.45 350.5 224.55 349.8 223.7 349.1 223.7 348.1 223.7 347.1 224.55 346.45 M228.1 348.15 L226.95 348.15 226.95 349.0 Q226.05 348.95 226.0 348.25 226.1 347.35 227.7 347.05 L227.45 346.0 Q225.5 346.35 224.8 347.8 224.35 349.1 225.7 349.65 L228.1 349.75 228.1 348.15" fill="#1d3638" fill-rule="evenodd" stroke="none"/>
    <path d="M224.55 346.45 Q223.7 347.1 223.7 348.1 223.7 349.1 224.55 349.8 225.45 350.5 226.7 350.5 227.9 350.5 228.8 349.8 229.6 349.15 229.65 348.2 L229.25 348.3 229.1 347.65 229.6 347.5 229.25 346.9 228.9 347.25 228.35 346.75 228.65 346.35 Q227.85 345.75 226.7 345.75 L225.5 345.95 Q225.0 346.1 224.55 346.45 M224.0 346.0 Q224.7 345.45 225.5 345.25 L226.65 345.1 Q228.1 345.1 229.15 345.8 L229.55 345.35 230.25 346.05 229.8 346.45 230.3 347.25 230.65 347.15 230.9 348.0 230.45 348.1 Q230.45 349.35 229.35 350.2 228.25 351.1 226.65 351.1 225.1 351.1 224.0 350.2 222.9 349.35 222.9 348.1 222.9 346.85 224.0 346.0 M228.1 348.15 L228.1 349.75 225.7 349.65 Q224.35 349.1 224.8 347.8 225.5 346.35 227.45 346.0 L227.7 347.05 Q226.1 347.35 226.0 348.25 226.05 348.95 226.95 349.0 L226.95 348.15 228.1 348.15" fill="#54bcbc" fill-rule="evenodd" stroke="none"/>
    <path d="M295.15 249.8 L295.55 249.35 296.25 250.05 295.8 250.45 296.3 251.25 296.65 251.15 296.9 252.0 296.45 252.1 Q296.45 253.35 295.35 254.2 294.25 255.1 292.65 255.1 291.45 255.1 290.5 254.55 L290.0 254.2 Q288.9 253.35 288.9 252.1 288.9 250.85 290.0 250.0 L290.5 249.65 291.5 249.25 292.65 249.1 Q294.1 249.1 295.15 249.8 M295.25 252.3 L295.1 251.65 295.6 251.5 295.25 250.9 294.9 251.25 294.35 250.75 294.65 250.35 Q293.85 249.75 292.7 249.75 L291.5 249.95 290.55 250.45 290.5 250.5 Q289.7 251.15 289.7 252.1 289.7 253.05 290.5 253.75 L290.55 253.8 Q291.45 254.5 292.7 254.5 293.9 254.5 294.8 253.8 295.6 253.15 295.65 252.2 L295.25 252.3 M294.1 252.15 L294.1 253.75 291.7 253.65 Q290.35 253.1 290.8 251.8 291.5 250.35 293.45 250.0 L293.7 251.05 Q292.1 251.35 292.0 252.25 292.05 252.95 292.95 253.0 L292.95 252.15 294.1 252.15" fill="#2b1509" fill-rule="evenodd" stroke="none"/>
    <path d="M295.15 249.8 Q294.1 249.1 292.65 249.1 L291.5 249.25 290.5 249.65 290.0 250.0 Q288.9 250.85 288.9 252.1 288.9 253.35 290.0 254.2 L290.5 254.55 Q291.45 255.1 292.65 255.1 294.25 255.1 295.35 254.2 296.45 253.35 296.45 252.1 L296.9 252.0 296.65 251.15 296.3 251.25 295.8 250.45 296.25 250.05 295.55 249.35 295.15 249.8 M295.25 252.3 L295.1 251.65 295.6 251.5 295.25 250.9 294.9 251.25 294.35 250.75 294.65 250.35 Q293.85 249.75 292.7 249.75 L291.5 249.95 290.55 250.45 290.5 250.5 Q289.7 251.15 289.7 252.1 289.7 253.05 290.5 253.75 L290.55 253.8 Q291.45 254.5 292.7 254.5 293.9 254.5 294.8 253.8 295.6 253.15 295.65 252.2 L295.25 252.3 M294.1 252.15 L292.95 252.15 292.95 253.0 Q292.05 252.95 292.0 252.25 292.1 251.35 293.7 251.05 L293.45 250.0 Q291.5 250.35 290.8 251.8 290.35 253.1 291.7 253.65 L294.1 253.75 294.1 252.15 Z" fill="none" stroke="#2b1509" stroke-linecap="butt" stroke-linejoin="miter-clip" stroke-miterlimit="3.0" stroke-width="2.0"/>
    <path d="M295.15 249.8 L295.55 249.35 296.25 250.05 295.8 250.45 296.3 251.25 296.65 251.15 296.9 252.0 296.45 252.1 Q296.45 253.35 295.35 254.2 294.25 255.1 292.65 255.1 291.1 255.1 290.0 254.2 288.9 253.35 288.9 252.1 288.9 250.85 290.0 250.0 290.7 249.45 291.5 249.25 L292.65 249.1 Q294.1 249.1 295.15 249.8 M295.25 252.3 L295.1 251.65 295.6 251.5 295.25 250.9 294.9 251.25 294.35 250.75 294.65 250.35 Q293.85 249.75 292.7 249.75 L291.5 249.95 290.55 250.45 Q289.7 251.1 289.7 252.1 289.7 253.1 290.55 253.8 291.45 254.5 292.7 254.5 293.9 254.5 294.8 253.8 295.6 253.15 295.65 252.2 L295.25 252.3 M294.1 252.15 L294.1 253.75 291.7 253.65 Q290.35 253.1 290.8 251.8 291.5 250.35 293.45 250.0 L293.7 251.05 Q292.1 251.35 292.0 252.25 292.05 252.95 292.95 253.0 L292.95 252.15 294.1 252.15" fill="#54bcbc" fill-rule="evenodd" stroke="none"/>
    <path d="M295.25 252.3 L295.65 252.2 Q295.6 253.15 294.8 253.8 293.9 254.5 292.7 254.5 291.45 254.5 290.55 253.8 289.7 253.1 289.7 252.1 289.7 251.1 290.55 250.45 L291.5 249.95 292.7 249.75 Q293.85 249.75 294.65 250.35 L294.35 250.75 294.9 251.25 295.25 250.9 295.6 251.5 295.1 251.65 295.25 252.3 M294.1 252.15 L292.95 252.15 292.95 253.0 Q292.05 252.95 292.0 252.25 292.1 251.35 293.7 251.05 L293.45 250.0 Q291.5 250.35 290.8 251.8 290.35 253.1 291.7 253.65 L294.1 253.75 294.1 252.15" fill="#1d3638" fill-rule="evenodd" stroke="none"/>
    <path d="M290.0 346.0 L290.5 345.65 291.5 345.25 292.65 345.1 Q294.1 345.1 295.15 345.8 L295.55 345.35 296.25 346.05 295.8 346.45 296.3 347.25 296.65 347.15 296.9 348.0 296.45 348.1 Q296.45 349.35 295.35 350.2 294.25 351.1 292.65 351.1 291.45 351.1 290.5 350.55 L290.0 350.2 Q288.9 349.35 288.9 348.1 288.9 346.85 290.0 346.0 M290.55 346.45 L290.5 346.5 Q289.7 347.15 289.7 348.1 289.7 349.05 290.5 349.75 L290.55 349.8 Q291.45 350.5 292.7 350.5 293.9 350.5 294.8 349.8 295.6 349.15 295.65 348.2 L295.25 348.3 295.1 347.65 295.6 347.5 295.25 346.9 294.9 347.25 294.35 346.75 294.65 346.35 Q293.85 345.75 292.7 345.75 L291.5 345.95 290.55 346.45 M294.1 348.15 L294.1 349.75 291.7 349.65 Q290.35 349.1 290.8 347.8 291.5 346.35 293.45 346.0 L293.7 347.05 Q292.1 347.35 292.0 348.25 292.05 348.95 292.95 349.0 L292.95 348.15 294.1 348.15" fill="#2b1509" fill-rule="evenodd" stroke="none"/>
    <path d="M290.0 346.0 Q288.9 346.85 288.9 348.1 288.9 349.35 290.0 350.2 L290.5 350.55 Q291.45 351.1 292.65 351.1 294.25 351.1 295.35 350.2 296.45 349.35 296.45 348.1 L296.9 348.0 296.65 347.15 296.3 347.25 295.8 346.45 296.25 346.05 295.55 345.35 295.15 345.8 Q294.1 345.1 292.65 345.1 L291.5 345.25 290.5 345.65 290.0 346.0 M290.55 346.45 L290.5 346.5 Q289.7 347.15 289.7 348.1 289.7 349.05 290.5 349.75 L290.55 349.8 Q291.45 350.5 292.7 350.5 293.9 350.5 294.8 349.8 295.6 349.15 295.65 348.2 L295.25 348.3 295.1 347.65 295.6 347.5 295.25 346.9 294.9 347.25 294.35 346.75 294.65 346.35 Q293.85 345.75 292.7 345.75 L291.5 345.95 290.55 346.45 M294.1 348.15 L292.95 348.15 292.95 349.0 Q292.05 348.95 292.0 348.25 292.1 347.35 293.7 347.05 L293.45 346.0 Q291.5 346.35 290.8 347.8 290.35 349.1 291.7 349.65 L294.1 349.75 294.1 348.15 Z" fill="none" stroke="#2b1509" stroke-linecap="butt" stroke-linejoin="miter-clip" stroke-miterlimit="3.0" stroke-width="2.0"/>
    <path d="M290.55 346.45 L291.5 345.95 292.7 345.75 Q293.85 345.75 294.65 346.35 L294.35 346.75 294.9 347.25 295.25 346.9 295.6 347.5 295.1 347.65 295.25 348.3 295.65 348.2 Q295.6 349.15 294.8 349.8 293.9 350.5 292.7 350.5 291.45 350.5 290.55 349.8 289.7 349.1 289.7 348.1 289.7 347.1 290.55 346.45 M294.1 348.15 L292.95 348.15 292.95 349.0 Q292.05 348.95 292.0 348.25 292.1 347.35 293.7 347.05 L293.45 346.0 Q291.5 346.35 290.8 347.8 290.35 349.1 291.7 349.65 L294.1 349.75 294.1 348.15" fill="#1d3638" fill-rule="evenodd" stroke="none"/>
    <path d="M290.0 346.0 Q290.7 345.45 291.5 345.25 L292.65 345.1 Q294.1 345.1 295.15 345.8 L295.55 345.35 296.25 346.05 295.8 346.45 296.3 347.25 296.65 347.15 296.9 348.0 296.45 348.1 Q296.45 349.35 295.35 350.2 294.25 351.1 292.65 351.1 291.1 351.1 290.0 350.2 288.9 349.35 288.9 348.1 288.9 346.85 290.0 346.0 M290.55 346.45 Q289.7 347.1 289.7 348.1 289.7 349.1 290.55 349.8 291.45 350.5 292.7 350.5 293.9 350.5 294.8 349.8 295.6 349.15 295.65 348.2 L295.25 348.3 295.1 347.65 295.6 347.5 295.25 346.9 294.9 347.25 294.35 346.75 294.65 346.35 Q293.85 345.75 292.7 345.75 L291.5 345.95 290.55 346.45 M294.1 348.15 L294.1 349.75 291.7 349.65 Q290.35 349.1 290.8 347.8 291.5 346.35 293.45 346.0 L293.7 347.05 Q292.1 347.35 292.0 348.25 292.05 348.95 292.95 349.0 L292.95 348.15 294.1 348.15" fill="#54bcbc" fill-rule="evenodd" stroke="none"/>
    <path d="M359.5 249.65 L360.5 249.25 361.65 249.1 Q363.1 249.1 364.15 249.8 L364.55 249.35 365.25 250.05 364.8 250.45 365.3 251.25 365.65 251.15 365.9 252.0 365.45 252.1 Q365.45 253.35 364.35 254.2 363.25 255.1 361.65 255.1 360.45 255.1 359.5 254.55 L359.0 254.2 Q357.9 253.35 357.9 252.1 357.9 250.85 359.0 250.0 L359.5 249.65 M360.5 249.95 Q360.0 250.1 359.55 250.45 L359.5 250.5 Q358.7 251.15 358.7 252.1 358.7 253.05 359.5 253.75 L359.55 253.8 Q360.45 254.5 361.7 254.5 362.9 254.5 363.8 253.8 364.6 253.15 364.65 252.2 L364.25 252.3 364.1 251.65 364.6 251.5 364.25 250.9 363.9 251.25 363.35 250.75 363.65 250.35 Q362.85 249.75 361.7 249.75 L360.5 249.95 M360.7 253.65 Q359.35 253.1 359.8 251.8 360.5 250.35 362.45 250.0 L362.7 251.05 Q361.1 251.35 361.0 252.25 361.05 252.95 361.95 253.0 L361.95 252.15 363.1 252.15 363.1 253.75 360.7 253.65" fill="#2b1509" fill-rule="evenodd" stroke="none"/>
    <path d="M359.5 249.65 L359.0 250.0 Q357.9 250.85 357.9 252.1 357.9 253.35 359.0 254.2 L359.5 254.55 Q360.45 255.1 361.65 255.1 363.25 255.1 364.35 254.2 365.45 253.35 365.45 252.1 L365.9 252.0 365.65 251.15 365.3 251.25 364.8 250.45 365.25 250.05 364.55 249.35 364.15 249.8 Q363.1 249.1 361.65 249.1 L360.5 249.25 359.5 249.65 M360.5 249.95 Q360.0 250.1 359.55 250.45 L359.5 250.5 Q358.7 251.15 358.7 252.1 358.7 253.05 359.5 253.75 L359.55 253.8 Q360.45 254.5 361.7 254.5 362.9 254.5 363.8 253.8 364.6 253.15 364.65 252.2 L364.25 252.3 364.1 251.65 364.6 251.5 364.25 250.9 363.9 251.25 363.35 250.75 363.65 250.35 Q362.85 249.75 361.7 249.75 L360.5 249.95 M360.7 253.65 L363.1 253.75 363.1 252.15 361.95 252.15 361.95 253.0 Q361.05 252.95 361.0 252.25 361.1 251.35 362.7 251.05 L362.45 250.0 Q360.5 250.35 359.8 251.8 359.35 253.1 360.7 253.65 Z" fill="none" stroke="#2b1509" stroke-linecap="butt" stroke-linejoin="miter-clip" stroke-miterlimit="3.0" stroke-width="2.0"/>
    <path d="M359.55 250.45 Q358.7 251.1 358.7 252.1 358.7 253.1 359.55 253.8 360.45 254.5 361.7 254.5 362.9 254.5 363.8 253.8 364.6 253.15 364.65 252.2 L364.25 252.3 364.1 251.65 364.6 251.5 364.25 250.9 363.9 251.25 363.35 250.75 363.65 250.35 Q362.85 249.75 361.7 249.75 L360.5 249.95 Q360.0 250.1 359.55 250.45 M360.5 249.25 L361.65 249.1 Q363.1 249.1 364.15 249.8 L364.55 249.35 365.25 250.05 364.8 250.45 365.3 251.25 365.65 251.15 365.9 252.0 365.45 252.1 Q365.45 253.35 364.35 254.2 363.25 255.1 361.65 255.1 360.1 255.1 359.0 254.2 357.9 253.35 357.9 252.1 357.9 250.85 359.0 250.0 359.7 249.45 360.5 249.25 M361.95 253.0 L361.95 252.15 363.1 252.15 363.1 253.75 360.7 253.65 Q359.35 253.1 359.8 251.8 360.5 250.35 362.45 250.0 L362.7 251.05 Q361.1 251.35 361.0 252.25 361.05 252.95 361.95 253.0" fill="#54bcbc" fill-rule="evenodd" stroke="none"/>
    <path d="M359.55 250.45 Q360.0 250.1 360.5 249.95 L361.7 249.75 Q362.85 249.75 363.65 250.35 L363.35 250.75 363.9 251.25 364.25 250.9 364.6 251.5 364.1 251.65 364.25 252.3 364.65 252.2 Q364.6 253.15 363.8 253.8 362.9 254.5 361.7 254.5 360.45 254.5 359.55 253.8 358.7 253.1 358.7 252.1 358.7 251.1 359.55 250.45 M361.95 253.0 Q361.05 252.95 361.0 252.25 361.1 251.35 362.7 251.05 L362.45 250.0 Q360.5 250.35 359.8 251.8 359.35 253.1 360.7 253.65 L363.1 253.75 363.1 252.15 361.95 252.15 361.95 253.0" fill="#1d3638" fill-rule="evenodd" stroke="none"/>
    <path d="M364.55 345.35 L365.25 346.05 364.8 346.45 365.3 347.25 365.65 347.15 365.9 348.0 365.45 348.1 Q365.45 349.35 364.35 350.2 363.25 351.1 361.65 351.1 360.45 351.1 359.5 350.55 L359.0 350.2 Q357.9 349.35 357.9 348.1 357.9 346.85 359.0 346.0 L359.5 345.65 360.5 345.25 361.65 345.1 Q363.1 345.1 364.15 345.8 L364.55 345.35 M359.55 346.45 L359.5 346.5 Q358.7 347.15 358.7 348.1 358.7 349.05 359.5 349.75 L359.55 349.8 Q360.45 350.5 361.7 350.5 362.9 350.5 363.8 349.8 364.6 349.15 364.65 348.2 L364.25 348.3 364.1 347.65 364.6 347.5 364.25 346.9 363.9 347.25 363.35 346.75 363.65 346.35 Q362.85 345.75 361.7 345.75 L360.5 345.95 Q360.0 346.1 359.55 346.45 M361.0 348.25 Q361.05 348.95 361.95 349.0 L361.95 348.15 363.1 348.15 363.1 349.75 360.7 349.65 Q359.35 349.1 359.8 347.8 360.5 346.35 362.45 346.0 L362.7 347.05 Q361.1 347.35 361.0 348.25" fill="#2b1509" fill-rule="evenodd" stroke="none"/>
    <path d="M364.55 345.35 L364.15 345.8 Q363.1 345.1 361.65 345.1 L360.5 345.25 359.5 345.65 359.0 346.0 Q357.9 346.85 357.9 348.1 357.9 349.35 359.0 350.2 L359.5 350.55 Q360.45 351.1 361.65 351.1 363.25 351.1 364.35 350.2 365.45 349.35 365.45 348.1 L365.9 348.0 365.65 347.15 365.3 347.25 364.8 346.45 365.25 346.05 364.55 345.35 M359.55 346.45 L359.5 346.5 Q358.7 347.15 358.7 348.1 358.7 349.05 359.5 349.75 L359.55 349.8 Q360.45 350.5 361.7 350.5 362.9 350.5 363.8 349.8 364.6 349.15 364.65 348.2 L364.25 348.3 364.1 347.65 364.6 347.5 364.25 346.9 363.9 347.25 363.35 346.75 363.65 346.35 Q362.85 345.75 361.7 345.75 L360.5 345.95 Q360.0 346.1 359.55 346.45 M361.0 348.25 Q361.1 347.35 362.7 347.05 L362.45 346.0 Q360.5 346.35 359.8 347.8 359.35 349.1 360.7 349.65 L363.1 349.75 363.1 348.15 361.95 348.15 361.95 349.0 Q361.05 348.95 361.0 348.25 Z" fill="none" stroke="#2b1509" stroke-linecap="butt" stroke-linejoin="miter-clip" stroke-miterlimit="3.0" stroke-width="2.0"/>
    <path d="M364.55 345.35 L365.25 346.05 364.8 346.45 365.3 347.25 365.65 347.15 365.9 348.0 365.45 348.1 Q365.45 349.35 364.35 350.2 363.25 351.1 361.65 351.1 360.1 351.1 359.0 350.2 357.9 349.35 357.9 348.1 357.9 346.85 359.0 346.0 359.7 345.45 360.5 345.25 L361.65 345.1 Q363.1 345.1 364.15 345.8 L364.55 345.35 M359.55 346.45 Q358.7 347.1 358.7 348.1 358.7 349.1 359.55 349.8 360.45 350.5 361.7 350.5 362.9 350.5 363.8 349.8 364.6 349.15 364.65 348.2 L364.25 348.3 364.1 347.65 364.6 347.5 364.25 346.9 363.9 347.25 363.35 346.75 363.65 346.35 Q362.85 345.75 361.7 345.75 L360.5 345.95 Q360.0 346.1 359.55 346.45 M361.0 348.25 Q361.05 348.95 361.95 349.0 L361.95 348.15 363.1 348.15 363.1 349.75 360.7 349.65 Q359.35 349.1 359.8 347.8 360.5 346.35 362.45 346.0 L362.7 347.05 Q361.1 347.35 361.0 348.25" fill="#54bcbc" fill-rule="evenodd" stroke="none"/>
    <path d="M359.55 346.45 Q360.0 346.1 360.5 345.95 L361.7 345.75 Q362.85 345.75 363.65 346.35 L363.35 346.75 363.9 347.25 364.25 346.9 364.6 347.5 364.1 347.65 364.25 348.3 364.65 348.2 Q364.6 349.15 363.8 349.8 362.9 350.5 361.7 350.5 360.45 350.5 359.55 349.8 358.7 349.1 358.7 348.1 358.7 347.1 359.55 346.45 M361.0 348.25 Q361.1 347.35 362.7 347.05 L362.45 346.0 Q360.5 346.35 359.8 347.8 359.35 349.1 360.7 349.65 L363.1 349.75 363.1 348.15 361.95 348.15 361.95 349.0 Q361.05 348.95 361.0 348.25" fill="#1d3638" fill-rule="evenodd" stroke="none"/>
    <path d="M431.3 251.25 L431.65 251.15 431.9 252.0 431.45 252.1 Q431.45 253.35 430.35 254.2 429.25 255.1 427.65 255.1 426.45 255.1 425.5 254.55 L425.0 254.2 Q423.9 253.35 423.9 252.1 423.9 250.85 425.0 250.0 L425.5 249.65 426.5 249.25 427.65 249.1 Q429.1 249.1 430.15 249.8 L430.55 249.35 431.25 250.05 430.8 250.45 431.3 251.25 M426.5 249.95 Q426.0 250.1 425.55 250.45 L425.5 250.5 Q424.7 251.15 424.7 252.1 424.7 253.05 425.5 253.75 L425.55 253.8 Q426.45 254.5 427.7 254.5 428.9 254.5 429.8 253.8 430.6 253.15 430.65 252.2 L430.25 252.3 430.1 251.65 430.6 251.5 430.25 250.9 429.9 251.25 429.35 250.75 429.65 250.35 Q428.85 249.75 427.7 249.75 L426.5 249.95 M426.7 253.65 Q425.35 253.1 425.8 251.8 426.5 250.35 428.45 250.0 L428.7 251.05 Q427.1 251.35 427.0 252.25 427.05 252.95 427.95 253.0 L427.95 252.15 429.1 252.15 429.1 253.75 426.7 253.65" fill="#2b1509" fill-rule="evenodd" stroke="none"/>
    <path d="M431.3 251.25 L430.8 250.45 431.25 250.05 430.55 249.35 430.15 249.8 Q429.1 249.1 427.65 249.1 L426.5 249.25 425.5 249.65 425.0 250.0 Q423.9 250.85 423.9 252.1 423.9 253.35 425.0 254.2 L425.5 254.55 Q426.45 255.1 427.65 255.1 429.25 255.1 430.35 254.2 431.45 253.35 431.45 252.1 L431.9 252.0 431.65 251.15 431.3 251.25 M426.5 249.95 Q426.0 250.1 425.55 250.45 L425.5 250.5 Q424.7 251.15 424.7 252.1 424.7 253.05 425.5 253.75 L425.55 253.8 Q426.45 254.5 427.7 254.5 428.9 254.5 429.8 253.8 430.6 253.15 430.65 252.2 L430.25 252.3 430.1 251.65 430.6 251.5 430.25 250.9 429.9 251.25 429.35 250.75 429.65 250.35 Q428.85 249.75 427.7 249.75 L426.5 249.95 M426.7 253.65 L429.1 253.75 429.1 252.15 427.95 252.15 427.95 253.0 Q427.05 252.95 427.0 252.25 427.1 251.35 428.7 251.05 L428.45 250.0 Q426.5 250.35 425.8 251.8 425.35 253.1 426.7 253.65 Z" fill="none" stroke="#2b1509" stroke-linecap="butt" stroke-linejoin="miter-clip" stroke-miterlimit="3.0" stroke-width="2.0"/>
    <path d="M431.3 251.25 L431.65 251.15 431.9 252.0 431.45 252.1 Q431.45 253.35 430.35 254.2 429.25 255.1 427.65 255.1 426.1 255.1 425.0 254.2 423.9 253.35 423.9 252.1 423.9 250.85 425.0 250.0 425.7 249.45 426.5 249.25 L427.65 249.1 Q429.1 249.1 430.15 249.8 L430.55 249.35 431.25 250.05 430.8 250.45 431.3 251.25 M425.55 250.45 Q424.7 251.1 424.7 252.1 424.7 253.1 425.55 253.8 426.45 254.5 427.7 254.5 428.9 254.5 429.8 253.8 430.6 253.15 430.65 252.2 L430.25 252.3 430.1 251.65 430.6 251.5 430.25 250.9 429.9 251.25 429.35 250.75 429.65 250.35 Q428.85 249.75 427.7 249.75 L426.5 249.95 Q426.0 250.1 425.55 250.45 M426.7 253.65 Q425.35 253.1 425.8 251.8 426.5 250.35 428.45 250.0 L428.7 251.05 Q427.1 251.35 427.0 252.25 427.05 252.95 427.95 253.0 L427.95 252.15 429.1 252.15 429.1 253.75 426.7 253.65" fill="#54bcbc" fill-rule="evenodd" stroke="none"/>
    <path d="M425.55 250.45 Q426.0 250.1 426.5 249.95 L427.7 249.75 Q428.85 249.75 429.65 250.35 L429.35 250.75 429.9 251.25 430.25 250.9 430.6 251.5 430.1 251.65 430.25 252.3 430.65 252.2 Q430.6 253.15 429.8 253.8 428.9 254.5 427.7 254.5 426.45 254.5 425.55 253.8 424.7 253.1 424.7 252.1 424.7 251.1 425.55 250.45 M426.7 253.65 L429.1 253.75 429.1 252.15 427.95 252.15 427.95 253.0 Q427.05 252.95 427.0 252.25 427.1 251.35 428.7 251.05 L428.45 250.0 Q426.5 250.35 425.8 251.8 425.35 253.1 426.7 253.65" fill="#1d3638" fill-rule="evenodd" stroke="none"/>
    <path d="M425.55 346.45 L425.5 346.5 Q424.7 347.15 424.7 348.1 424.7 349.05 425.5 349.75 L425.55 349.8 Q426.45 350.5 427.7 350.5 428.9 350.5 429.8 349.8 430.6 349.15 430.65 348.2 L430.25 348.3 430.1 347.65 430.6 347.5 430.25 346.9 429.9 347.25 429.35 346.75 429.65 346.35 Q428.85 345.75 427.7 345.75 L426.5 345.95 Q426.0 346.1 425.55 346.45 M427.95 349.0 L427.95 348.15 429.1 348.15 429.1 349.75 426.7 349.65 Q425.35 349.1 425.8 347.8 426.5 346.35 428.45 346.0 L428.7 347.05 Q427.1 347.35 427.0 348.25 427.05 348.95 427.95 349.0 M427.65 345.1 Q429.1 345.1 430.15 345.8 L430.55 345.35 431.25 346.05 430.8 346.45 431.3 347.25 431.65 347.15 431.9 348.0 431.45 348.1 Q431.45 349.35 430.35 350.2 429.25 351.1 427.65 351.1 426.45 351.1 425.5 350.55 L425.0 350.2 Q423.9 349.35 423.9 348.1 423.9 346.85 425.0 346.0 L425.5 345.65 426.5 345.25 427.65 345.1" fill="#2b1509" fill-rule="evenodd" stroke="none"/>
    <path d="M425.55 346.45 L425.5 346.5 Q424.7 347.15 424.7 348.1 424.7 349.05 425.5 349.75 L425.55 349.8 Q426.45 350.5 427.7 350.5 428.9 350.5 429.8 349.8 430.6 349.15 430.65 348.2 L430.25 348.3 430.1 347.65 430.6 347.5 430.25 346.9 429.9 347.25 429.35 346.75 429.65 346.35 Q428.85 345.75 427.7 345.75 L426.5 345.95 Q426.0 346.1 425.55 346.45 M427.65 345.1 L426.5 345.25 425.5 345.65 425.0 346.0 Q423.9 346.85 423.9 348.1 423.9 349.35 425.0 350.2 L425.5 350.55 Q426.45 351.1 427.65 351.1 429.25 351.1 430.35 350.2 431.45 349.35 431.45 348.1 L431.9 348.0 431.65 347.15 431.3 347.25 430.8 346.45 431.25 346.05 430.55 345.35 430.15 345.8 Q429.1 345.1 427.65 345.1 M427.95 349.0 Q427.05 348.95 427.0 348.25 427.1 347.35 428.7 347.05 L428.45 346.0 Q426.5 346.35 425.8 347.8 425.35 349.1 426.7 349.65 L429.1 349.75 429.1 348.15 427.95 348.15 427.95 349.0 Z" fill="none" stroke="#2b1509" stroke-linecap="butt" stroke-linejoin="miter-clip" stroke-miterlimit="3.0" stroke-width="2.0"/>
    <path d="M430.15 345.8 L430.55 345.35 431.25 346.05 430.8 346.45 431.3 347.25 431.65 347.15 431.9 348.0 431.45 348.1 Q431.45 349.35 430.35 350.2 429.25 351.1 427.65 351.1 426.1 351.1 425.0 350.2 423.9 349.35 423.9 348.1 423.9 346.85 425.0 346.0 425.7 345.45 426.5 345.25 L427.65 345.1 Q429.1 345.1 430.15 345.8 M427.7 345.75 L426.5 345.95 Q426.0 346.1 425.55 346.45 424.7 347.1 424.7 348.1 424.7 349.1 425.55 349.8 426.45 350.5 427.7 350.5 428.9 350.5 429.8 349.8 430.6 349.15 430.65 348.2 L430.25 348.3 430.1 347.65 430.6 347.5 430.25 346.9 429.9 347.25 429.35 346.75 429.65 346.35 Q428.85 345.75 427.7 345.75 M427.95 349.0 L427.95 348.15 429.1 348.15 429.1 349.75 426.7 349.65 Q425.35 349.1 425.8 347.8 426.5 346.35 428.45 346.0 L428.7 347.05 Q427.1 347.35 427.0 348.25 427.05 348.95 427.95 349.0" fill="#54bcbc" fill-rule="evenodd" stroke="none"/>
    <path d="M427.7 345.75 Q428.85 345.75 429.65 346.35 L429.35 346.75 429.9 347.25 430.25 346.9 430.6 347.5 430.1 347.65 430.25 348.3 430.65 348.2 Q430.6 349.15 429.8 349.8 428.9 350.5 427.7 350.5 426.45 350.5 425.55 349.8 424.7 349.1 424.7 348.1 424.7 347.1 425.55 346.45 426.0 346.1 426.5 345.95 L427.7 345.75 M427.95 349.0 Q427.05 348.95 427.0 348.25 427.1 347.35 428.7 347.05 L428.45 346.0 Q426.5 346.35 425.8 347.8 425.35 349.1 426.7 349.65 L429.1 349.75 429.1 348.15 427.95 348.15 427.95 349.0" fill="#1d3638" fill-rule="evenodd" stroke="none"/>
    <path d="M497.25 250.05 L496.8 250.45 497.3 251.25 497.65 251.15 497.9 252.0 497.45 252.1 Q497.45 253.35 496.35 254.2 495.25 255.1 493.65 255.1 492.45 255.1 491.5 254.55 L491.0 254.2 Q489.9 253.35 489.9 252.1 489.9 250.85 491.0 250.0 L491.5 249.65 492.5 249.25 493.65 249.1 Q495.1 249.1 496.15 249.8 L496.55 249.35 497.25 250.05 M496.25 252.3 L496.1 251.65 496.6 251.5 496.25 250.9 495.9 251.25 495.35 250.75 495.65 250.35 Q494.85 249.75 493.7 249.75 L492.5 249.95 491.55 250.45 491.5 250.5 Q490.7 251.15 490.7 252.1 490.7 253.05 491.5 253.75 L491.55 253.8 Q492.45 254.5 493.7 254.5 494.9 254.5 495.8 253.8 496.6 253.15 496.65 252.2 L496.25 252.3 M492.7 253.65 Q491.35 253.1 491.8 251.8 492.5 250.35 494.45 250.0 L494.7 251.05 Q493.1 251.35 493.0 252.25 493.05 252.95 493.95 253.0 L493.95 252.15 495.1 252.15 495.1 253.75 492.7 253.65" fill="#2b1509" fill-rule="evenodd" stroke="none"/>
    <path d="M497.25 250.05 L496.55 249.35 496.15 249.8 Q495.1 249.1 493.65 249.1 L492.5 249.25 491.5 249.65 491.0 250.0 Q489.9 250.85 489.9 252.1 489.9 253.35 491.0 254.2 L491.5 254.55 Q492.45 255.1 493.65 255.1 495.25 255.1 496.35 254.2 497.45 253.35 497.45 252.1 L497.9 252.0 497.65 251.15 497.3 251.25 496.8 250.45 497.25 250.05 M496.25 252.3 L496.1 251.65 496.6 251.5 496.25 250.9 495.9 251.25 495.35 250.75 495.65 250.35 Q494.85 249.75 493.7 249.75 L492.5 249.95 491.55 250.45 491.5 250.5 Q490.7 251.15 490.7 252.1 490.7 253.05 491.5 253.75 L491.55 253.8 Q492.45 254.5 493.7 254.5 494.9 254.5 495.8 253.8 496.6 253.15 496.65 252.2 L496.25 252.3 M492.7 253.65 L495.1 253.75 495.1 252.15 493.95 252.15 493.95 253.0 Q493.05 252.95 493.0 252.25 493.1 251.35 494.7 251.05 L494.45 250.0 Q492.5 250.35 491.8 251.8 491.35 253.1 492.7 253.65 Z" fill="none" stroke="#2b1509" stroke-linecap="butt" stroke-linejoin="miter-clip" stroke-miterlimit="3.0" stroke-width="2.0"/>
    <path d="M497.25 250.05 L496.8 250.45 497.3 251.25 497.65 251.15 497.9 252.0 497.45 252.1 Q497.45 253.35 496.35 254.2 495.25 255.1 493.65 255.1 492.1 255.1 491.0 254.2 489.9 253.35 489.9 252.1 489.9 250.85 491.0 250.0 491.7 249.45 492.5 249.25 L493.65 249.1 Q495.1 249.1 496.15 249.8 L496.55 249.35 497.25 250.05 M496.25 252.3 L496.1 251.65 496.6 251.5 496.25 250.9 495.9 251.25 495.35 250.75 495.65 250.35 Q494.85 249.75 493.7 249.75 L492.5 249.95 491.55 250.45 Q490.7 251.1 490.7 252.1 490.7 253.1 491.55 253.8 492.45 254.5 493.7 254.5 494.9 254.5 495.8 253.8 496.6 253.15 496.65 252.2 L496.25 252.3 M492.7 253.65 Q491.35 253.1 491.8 251.8 492.5 250.35 494.45 250.0 L494.7 251.05 Q493.1 251.35 493.0 252.25 493.05 252.95 493.95 253.0 L493.95 252.15 495.1 252.15 495.1 253.75 492.7 253.65" fill="#54bcbc" fill-rule="evenodd" stroke="none"/>
    <path d="M496.25 252.3 L496.65 252.2 Q496.6 253.15 495.8 253.8 494.9 254.5 493.7 254.5 492.45 254.5 491.55 253.8 490.7 253.1 490.7 252.1 490.7 251.1 491.55 250.45 L492.5 249.95 493.7 249.75 Q494.85 249.75 495.65 250.35 L495.35 250.75 495.9 251.25 496.25 250.9 496.6 251.5 496.1 251.65 496.25 252.3 M492.7 253.65 L495.1 253.75 495.1 252.15 493.95 252.15 493.95 253.0 Q493.05 252.95 493.0 252.25 493.1 251.35 494.7 251.05 L494.45 250.0 Q492.5 250.35 491.8 251.8 491.35 253.1 492.7 253.65" fill="#1d3638" fill-rule="evenodd" stroke="none"/>
    <path d="M491.0 346.0 L491.5 345.65 492.5 345.25 493.65 345.1 Q495.1 345.1 496.15 345.8 L496.55 345.35 497.25 346.05 496.8 346.45 497.3 347.25 497.65 347.15 497.9 348.0 497.45 348.1 Q497.45 349.35 496.35 350.2 495.25 351.1 493.65 351.1 492.45 351.1 491.5 350.55 L491.0 350.2 Q489.9 349.35 489.9 348.1 489.9 346.85 491.0 346.0 M493.7 345.75 L492.5 345.95 491.55 346.45 491.5 346.5 Q490.7 347.15 490.7 348.1 490.7 349.05 491.5 349.75 L491.55 349.8 Q492.45 350.5 493.7 350.5 494.9 350.5 495.8 349.8 496.6 349.15 496.65 348.2 L496.25 348.3 496.1 347.65 496.6 347.5 496.25 346.9 495.9 347.25 495.35 346.75 495.65 346.35 Q494.85 345.75 493.7 345.75 M493.95 348.15 L495.1 348.15 495.1 349.75 492.7 349.65 Q491.35 349.1 491.8 347.8 492.5 346.35 494.45 346.0 L494.7 347.05 Q493.1 347.35 493.0 348.25 493.05 348.95 493.95 349.0 L493.95 348.15" fill="#2b1509" fill-rule="evenodd" stroke="none"/>
    <path d="M491.0 346.0 Q489.9 346.85 489.9 348.1 489.9 349.35 491.0 350.2 L491.5 350.55 Q492.45 351.1 493.65 351.1 495.25 351.1 496.35 350.2 497.45 349.35 497.45 348.1 L497.9 348.0 497.65 347.15 497.3 347.25 496.8 346.45 497.25 346.05 496.55 345.35 496.15 345.8 Q495.1 345.1 493.65 345.1 L492.5 345.25 491.5 345.65 491.0 346.0 M493.7 345.75 L492.5 345.95 491.55 346.45 491.5 346.5 Q490.7 347.15 490.7 348.1 490.7 349.05 491.5 349.75 L491.55 349.8 Q492.45 350.5 493.7 350.5 494.9 350.5 495.8 349.8 496.6 349.15 496.65 348.2 L496.25 348.3 496.1 347.65 496.6 347.5 496.25 346.9 495.9 347.25 495.35 346.75 495.65 346.35 Q494.85 345.75 493.7 345.75 M493.95 348.15 L493.95 349.0 Q493.05 348.95 493.0 348.25 493.1 347.35 494.7 347.05 L494.45 346.0 Q492.5 346.35 491.8 347.8 491.35 349.1 492.7 349.65 L495.1 349.75 495.1 348.15 493.95 348.15 Z" fill="none" stroke="#2b1509" stroke-linecap="butt" stroke-linejoin="miter-clip" stroke-miterlimit="3.0" stroke-width="2.0"/>
    <path d="M493.7 345.75 Q494.85 345.75 495.65 346.35 L495.35 346.75 495.9 347.25 496.25 346.9 496.6 347.5 496.1 347.65 496.25 348.3 496.65 348.2 Q496.6 349.15 495.8 349.8 494.9 350.5 493.7 350.5 492.45 350.5 491.55 349.8 490.7 349.1 490.7 348.1 490.7 347.1 491.55 346.45 L492.5 345.95 493.7 345.75 M493.95 349.0 Q493.05 348.95 493.0 348.25 493.1 347.35 494.7 347.05 L494.45 346.0 Q492.5 346.35 491.8 347.8 491.35 349.1 492.7 349.65 L495.1 349.75 495.1 348.15 493.95 348.15 493.95 349.0" fill="#1d3638" fill-rule="evenodd" stroke="none"/>
    <path d="M492.5 345.25 L493.65 345.1 Q495.1 345.1 496.15 345.8 L496.55 345.35 497.25 346.05 496.8 346.45 497.3 347.25 497.65 347.15 497.9 348.0 497.45 348.1 Q497.45 349.35 496.35 350.2 495.25 351.1 493.65 351.1 492.1 351.1 491.0 350.2 489.9 349.35 489.9 348.1 489.9 346.85 491.0 346.0 491.7 345.45 492.5 345.25 M493.7 345.75 L492.5 345.95 491.55 346.45 Q490.7 347.1 490.7 348.1 490.7 349.1 491.55 349.8 492.45 350.5 493.7 350.5 494.9 350.5 495.8 349.8 496.6 349.15 496.65 348.2 L496.25 348.3 496.1 347.65 496.6 347.5 496.25 346.9 495.9 347.25 495.35 346.75 495.65 346.35 Q494.85 345.75 493.7 345.75 M493.95 349.0 L493.95 348.15 495.1 348.15 495.1 349.75 492.7 349.65 Q491.35 349.1 491.8 347.8 492.5 346.35 494.45 346.0 L494.7 347.05 Q493.1 347.35 493.0 348.25 493.05 348.95 493.95 349.0" fill="#54bcbc" fill-rule="evenodd" stroke="none"/>
    <path d="M563.25 250.05 L562.8 250.45 563.3 251.25 563.65 251.15 563.9 252.0 563.45 252.1 Q563.45 253.35 562.35 254.2 561.25 255.1 559.65 255.1 558.45 255.1 557.5 254.55 L557.0 254.2 Q555.9 253.35 555.9 252.1 555.9 250.85 557.0 250.0 L557.5 249.65 558.5 249.25 559.65 249.1 Q561.1 249.1 562.15 249.8 L562.55 249.35 563.25 250.05 M562.1 251.65 L562.6 251.5 562.25 250.9 561.9 251.25 561.35 250.75 561.65 250.35 Q560.85 249.75 559.7 249.75 L558.5 249.95 Q558.0 250.1 557.55 250.45 L557.5 250.5 Q556.7 251.15 556.7 252.1 556.7 253.05 557.5 253.75 L557.55 253.8 Q558.45 254.5 559.7 254.5 560.9 254.5 561.8 253.8 562.6 253.15 562.65 252.2 L562.25 252.3 562.1 251.65 M558.7 253.65 Q557.35 253.1 557.8 251.8 558.5 250.35 560.45 250.0 L560.7 251.05 Q559.1 251.35 559.0 252.25 559.05 252.95 559.95 253.0 L559.95 252.15 561.1 252.15 561.1 253.75 558.7 253.65" fill="#2b1509" fill-rule="evenodd" stroke="none"/>
    <path d="M563.25 250.05 L562.55 249.35 562.15 249.8 Q561.1 249.1 559.65 249.1 L558.5 249.25 557.5 249.65 557.0 250.0 Q555.9 250.85 555.9 252.1 555.9 253.35 557.0 254.2 L557.5 254.55 Q558.45 255.1 559.65 255.1 561.25 255.1 562.35 254.2 563.45 253.35 563.45 252.1 L563.9 252.0 563.65 251.15 563.3 251.25 562.8 250.45 563.25 250.05 M562.1 251.65 L562.6 251.5 562.25 250.9 561.9 251.25 561.35 250.75 561.65 250.35 Q560.85 249.75 559.7 249.75 L558.5 249.95 Q558.0 250.1 557.55 250.45 L557.5 250.5 Q556.7 251.15 556.7 252.1 556.7 253.05 557.5 253.75 L557.55 253.8 Q558.45 254.5 559.7 254.5 560.9 254.5 561.8 253.8 562.6 253.15 562.65 252.2 L562.25 252.3 562.1 251.65 M558.7 253.65 L561.1 253.75 561.1 252.15 559.95 252.15 559.95 253.0 Q559.05 252.95 559.0 252.25 559.1 251.35 560.7 251.05 L560.45 250.0 Q558.5 250.35 557.8 251.8 557.35 253.1 558.7 253.65 Z" fill="none" stroke="#2b1509" stroke-linecap="butt" stroke-linejoin="miter-clip" stroke-miterlimit="3.0" stroke-width="2.0"/>
    <path d="M563.25 250.05 L562.8 250.45 563.3 251.25 563.65 251.15 563.9 252.0 563.45 252.1 Q563.45 253.35 562.35 254.2 561.25 255.1 559.65 255.1 558.1 255.1 557.0 254.2 555.9 253.35 555.9 252.1 555.9 250.85 557.0 250.0 557.7 249.45 558.5 249.25 L559.65 249.1 Q561.1 249.1 562.15 249.8 L562.55 249.35 563.25 250.05 M562.1 251.65 L562.6 251.5 562.25 250.9 561.9 251.25 561.35 250.75 561.65 250.35 Q560.85 249.75 559.7 249.75 L558.5 249.95 Q558.0 250.1 557.55 250.45 556.7 251.1 556.7 252.1 556.7 253.1 557.55 253.8 558.45 254.5 559.7 254.5 560.9 254.5 561.8 253.8 562.6 253.15 562.65 252.2 L562.25 252.3 562.1 251.65 M558.7 253.65 Q557.35 253.1 557.8 251.8 558.5 250.35 560.45 250.0 L560.7 251.05 Q559.1 251.35 559.0 252.25 559.05 252.95 559.95 253.0 L559.95 252.15 561.1 252.15 561.1 253.75 558.7 253.65" fill="#54bcbc" fill-rule="evenodd" stroke="none"/>
    <path d="M562.1 251.65 L562.25 252.3 562.65 252.2 Q562.6 253.15 561.8 253.8 560.9 254.5 559.7 254.5 558.45 254.5 557.55 253.8 556.7 253.1 556.7 252.1 556.7 251.1 557.55 250.45 558.0 250.1 558.5 249.95 L559.7 249.75 Q560.85 249.75 561.65 250.35 L561.35 250.75 561.9 251.25 562.25 250.9 562.6 251.5 562.1 251.65 M558.7 253.65 L561.1 253.75 561.1 252.15 559.95 252.15 559.95 253.0 Q559.05 252.95 559.0 252.25 559.1 251.35 560.7 251.05 L560.45 250.0 Q558.5 250.35 557.8 251.8 557.35 253.1 558.7 253.65" fill="#1d3638" fill-rule="evenodd" stroke="none"/>
    <path d="M557.0 346.0 L557.5 345.65 558.5 345.25 559.65 345.1 Q561.1 345.1 562.15 345.8 L562.55 345.35 563.25 346.05 562.8 346.45 563.3 347.25 563.65 347.15 563.9 348.0 563.45 348.1 Q563.45 349.35 562.35 350.2 561.25 351.1 559.65 351.1 558.45 351.1 557.5 350.55 L557.0 350.2 Q555.9 349.35 555.9 348.1 555.9 346.85 557.0 346.0 M557.55 346.45 L557.5 346.5 Q556.7 347.15 556.7 348.1 556.7 349.05 557.5 349.75 L557.55 349.8 Q558.45 350.5 559.7 350.5 560.9 350.5 561.8 349.8 562.6 349.15 562.65 348.2 L562.25 348.3 562.1 347.65 562.6 347.5 562.25 346.9 561.9 347.25 561.35 346.75 561.65 346.35 Q560.85 345.75 559.7 345.75 L558.5 345.95 Q558.0 346.1 557.55 346.45 M559.95 349.0 L559.95 348.15 561.1 348.15 561.1 349.75 558.7 349.65 Q557.35 349.1 557.8 347.8 558.5 346.35 560.45 346.0 L560.7 347.05 Q559.1 347.35 559.0 348.25 559.05 348.95 559.95 349.0" fill="#2b1509" fill-rule="evenodd" stroke="none"/>
    <path d="M557.0 346.0 Q555.9 346.85 555.9 348.1 555.9 349.35 557.0 350.2 L557.5 350.55 Q558.45 351.1 559.65 351.1 561.25 351.1 562.35 350.2 563.45 349.35 563.45 348.1 L563.9 348.0 563.65 347.15 563.3 347.25 562.8 346.45 563.25 346.05 562.55 345.35 562.15 345.8 Q561.1 345.1 559.65 345.1 L558.5 345.25 557.5 345.65 557.0 346.0 M557.55 346.45 L557.5 346.5 Q556.7 347.15 556.7 348.1 556.7 349.05 557.5 349.75 L557.55 349.8 Q558.45 350.5 559.7 350.5 560.9 350.5 561.8 349.8 562.6 349.15 562.65 348.2 L562.25 348.3 562.1 347.65 562.6 347.5 562.25 346.9 561.9 347.25 561.35 346.75 561.65 346.35 Q560.85 345.75 559.7 345.75 L558.5 345.95 Q558.0 346.1 557.55 346.45 M559.95 349.0 Q559.05 348.95 559.0 348.25 559.1 347.35 560.7 347.05 L560.45 346.0 Q558.5 346.35 557.8 347.8 557.35 349.1 558.7 349.65 L561.1 349.75 561.1 348.15 559.95 348.15 559.95 349.0 Z" fill="none" stroke="#2b1509" stroke-linecap="butt" stroke-linejoin="miter-clip" stroke-miterlimit="3.0" stroke-width="2.0"/>
    <path d="M557.0 346.0 Q557.7 345.45 558.5 345.25 L559.65 345.1 Q561.1 345.1 562.15 345.8 L562.55 345.35 563.25 346.05 562.8 346.45 563.3 347.25 563.65 347.15 563.9 348.0 563.45 348.1 Q563.45 349.35 562.35 350.2 561.25 351.1 559.65 351.1 558.1 351.1 557.0 350.2 555.9 349.35 555.9 348.1 555.9 346.85 557.0 346.0 M559.7 345.75 L558.5 345.95 Q558.0 346.1 557.55 346.45 556.7 347.1 556.7 348.1 556.7 349.1 557.55 349.8 558.45 350.5 559.7 350.5 560.9 350.5 561.8 349.8 562.6 349.15 562.65 348.2 L562.25 348.3 562.1 347.65 562.6 347.5 562.25 346.9 561.9 347.25 561.35 346.75 561.65 346.35 Q560.85 345.75 559.7 345.75 M559.95 349.0 L559.95 348.15 561.1 348.15 561.1 349.75 558.7 349.65 Q557.35 349.1 557.8 347.8 558.5 346.35 560.45 346.0 L560.7 347.05 Q559.1 347.35 559.0 348.25 559.05 348.95 559.95 349.0" fill="#54bcbc" fill-rule="evenodd" stroke="none"/>
    <path d="M559.7 345.75 Q560.85 345.75 561.65 346.35 L561.35 346.75 561.9 347.25 562.25 346.9 562.6 347.5 562.1 347.65 562.25 348.3 562.65 348.2 Q562.6 349.15 561.8 349.8 560.9 350.5 559.7 350.5 558.45 350.5 557.55 349.8 556.7 349.1 556.7 348.1 556.7 347.1 557.55 346.45 558.0 346.1 558.5 345.95 L559.7 345.75 M559.95 349.0 Q559.05 348.95 559.0 348.25 559.1 347.35 560.7 347.05 L560.45 346.0 Q558.5 346.35 557.8 347.8 557.35 349.1 558.7 349.65 L561.1 349.75 561.1 348.15 559.95 348.15 559.95 349.0" fill="#1d3638" fill-rule="evenodd" stroke="none"/>
  </g>
</svg>
