<?xml version="1.0" encoding="UTF-8" standalone="no"?>
<svg xmlns:ffdec="https://www.free-decompiler.com/flash" xmlns:xlink="http://www.w3.org/1999/xlink" ffdec:objectType="shape" height="53.0px" width="68.0px" xmlns="http://www.w3.org/2000/svg">
  <g transform="matrix(1.0, 0.0, 0.0, 1.0, 0.0, 0.0)">
    <path d="M0.0 45.45 L0.0 7.6 Q0.0 0.0 7.6 0.0 L68.0 0.0 68.0 53.0 7.6 53.0 Q0.0 53.0 0.0 45.45" fill="#bfb5ac" fill-rule="evenodd" stroke="none"/>
    <path d="M68.0 0.65 L68.0 5.65 8.0 5.65 Q1.35 5.65 1.2 12.15 L1.2 7.45 Q1.2 0.65 8.0 0.65 L68.0 0.65" fill="url(#gradient0)" fill-rule="evenodd" stroke="none"/>
    <path d="M54.05 33.75 Q60.7 33.95 68.0 31.6 L68.0 51.55 8.0 51.55 Q1.2 51.55 1.2 44.75 L1.2 30.9 Q1.3 27.95 5.25 26.05 8.65 24.4 12.2 24.5 20.95 24.7 27.4 26.1 33.1 27.45 40.2 30.55 47.1 33.5 54.05 33.75" fill="url(#gradient1)" fill-rule="evenodd" stroke="none"/>
    <path d="M44.6 11.85 L45.25 12.15 45.5 12.75 45.5 36.45 45.5 36.6 Q45.25 39.65 42.95 40.65 L40.6 41.2 24.6 41.2 Q24.25 41.2 24.0 40.9 23.7 40.65 23.7 40.3 L23.65 16.9 23.75 16.25 23.9 15.4 23.95 15.3 Q24.4 13.35 25.9 12.5 27.0 11.9 28.5 11.8 L44.6 11.85 M44.6 14.5 L44.6 12.75 28.55 12.7 Q25.0 12.95 24.6 16.5 L24.55 16.9 24.55 18.2 24.55 18.5 24.6 40.3 40.55 40.3 Q44.3 40.1 44.6 36.45 L44.6 14.5" fill="url(#gradient2)" fill-rule="evenodd" stroke="none"/>
    <path d="M24.6 18.2 Q24.85 16.35 25.9 15.4 L26.1 15.3 Q27.0 14.55 28.55 14.45 L44.6 14.5 44.6 36.45 Q44.3 40.1 40.55 40.3 L24.6 40.3 24.55 18.5 24.6 18.2 M42.3 18.35 L42.3 18.2 42.0 17.55 Q41.75 17.3 41.35 17.3 L27.9 17.3 Q27.5 17.3 27.25 17.55 26.95 17.85 26.95 18.2 L26.95 18.35 26.95 20.0 Q26.95 20.3 27.25 20.6 L27.35 20.7 27.25 20.8 Q26.95 21.05 26.95 21.4 L26.95 21.6 26.95 23.2 Q26.95 23.55 27.25 23.8 L27.35 23.9 27.25 24.0 Q26.95 24.3 26.95 24.65 L26.95 24.75 26.95 26.45 27.25 27.0 27.35 27.1 27.25 27.2 Q26.95 27.45 26.95 27.8 L26.95 27.95 26.95 29.6 Q26.95 29.9 27.25 30.2 L27.35 30.3 27.25 30.4 Q26.95 30.65 26.95 31.05 L26.95 31.2 26.95 32.8 Q26.95 33.15 27.25 33.4 27.5 33.7 27.9 33.7 L32.7 33.7 Q32.45 33.95 32.45 34.3 L32.45 34.5 32.45 36.05 32.45 36.15 32.7 36.65 32.7 36.7 Q33.0 37.0 33.35 37.0 L41.35 37.0 42.0 36.7 42.05 36.65 42.3 36.05 42.3 34.5 42.3 34.3 42.0 33.7 41.9 33.6 42.0 33.4 42.3 32.8 42.3 31.2 42.3 31.05 42.0 30.4 41.95 30.3 42.0 30.2 42.3 29.6 42.3 27.95 42.3 27.8 42.0 27.2 41.95 27.1 42.0 27.0 42.3 26.45 42.3 24.75 42.3 24.65 42.0 24.0 41.95 23.9 42.0 23.8 42.3 23.2 42.3 21.6 42.3 21.4 42.0 20.8 41.95 20.7 42.0 20.6 42.3 20.0 42.3 18.35" fill="url(#gradient3)" fill-rule="evenodd" stroke="none"/>
    <path d="M24.55 18.2 L24.55 16.9 24.6 16.5 Q25.0 12.95 28.55 12.7 L44.6 12.75 44.6 14.5 28.55 14.45 Q27.0 14.55 26.1 15.3 L25.9 15.4 Q24.85 16.35 24.6 18.2 L24.55 18.2 M42.3 18.35 L42.3 20.0 42.0 20.6 41.95 20.7 41.35 20.5 27.9 20.5 27.35 20.7 27.25 20.6 Q26.95 20.3 26.95 20.0 L26.95 18.35 27.25 18.9 27.6 19.1 27.9 19.1 41.35 19.1 41.65 19.1 42.0 18.9 42.3 18.35 M42.3 21.6 L42.3 23.2 42.0 23.8 41.95 23.9 41.35 23.75 27.9 23.75 27.35 23.9 27.25 23.8 Q26.95 23.55 26.95 23.2 L26.95 21.6 27.25 22.05 27.6 22.3 27.9 22.35 41.35 22.35 41.65 22.3 42.0 22.05 42.3 21.6 M42.3 24.75 L42.3 26.45 42.0 27.0 41.95 27.1 41.35 26.9 27.9 26.9 27.35 27.1 27.25 27.0 26.95 26.45 26.95 24.75 27.25 25.3 27.6 25.5 27.9 25.55 41.35 25.55 41.65 25.5 42.0 25.3 42.3 24.75 M42.3 27.95 L42.3 29.6 42.0 30.2 41.95 30.3 41.35 30.1 27.9 30.1 27.35 30.3 27.25 30.2 Q26.95 29.9 26.95 29.6 L26.95 27.95 27.25 28.5 27.6 28.7 27.9 28.7 41.35 28.7 41.65 28.7 42.0 28.5 42.3 27.95 M42.3 31.2 L42.3 32.8 42.0 33.4 41.9 33.6 41.35 33.4 33.35 33.4 Q33.0 33.4 32.7 33.7 L27.9 33.7 Q27.5 33.7 27.25 33.4 26.95 33.15 26.95 32.8 L26.95 31.2 27.25 31.65 27.6 31.9 27.9 31.95 41.35 31.95 41.65 31.9 42.0 31.65 42.3 31.2 M42.3 34.5 L42.3 36.05 42.05 36.65 42.0 36.7 41.35 37.0 33.35 37.0 Q33.0 37.0 32.7 36.7 L32.7 36.65 32.45 36.15 32.45 36.05 32.45 34.5 32.7 34.95 33.05 35.2 33.35 35.25 41.35 35.25 41.65 35.2 42.0 34.95 42.3 34.5" fill="#9b3206" fill-rule="evenodd" stroke="none"/>
    <path d="M24.55 18.2 L24.6 18.2 24.55 18.5 24.55 18.2" fill="#521b03" fill-rule="evenodd" stroke="none"/>
  </g>
  <defs>
    <linearGradient gradientTransform="matrix(0.0433, 8.0E-4, -1.0E-4, 0.0077, 40.45, 6.45)" gradientUnits="userSpaceOnUse" id="gradient0" spreadMethod="pad" x1="-819.2" x2="819.2">
      <stop offset="0.0" stop-color="#ffffff" stop-opacity="0.3019608"/>
      <stop offset="1.0" stop-color="#ffffff" stop-opacity="0.0"/>
    </linearGradient>
    <linearGradient gradientTransform="matrix(0.0, -0.0241, 0.041, 0.0, 34.8, 29.9)" gradientUnits="userSpaceOnUse" id="gradient1" spreadMethod="pad" x1="-819.2" x2="819.2">
      <stop offset="0.0" stop-color="#000000" stop-opacity="0.15294118"/>
      <stop offset="1.0" stop-color="#000000" stop-opacity="0.0"/>
    </linearGradient>
    <linearGradient gradientTransform="matrix(0.0, 0.0171, -0.0134, 0.0, 34.55, 26.25)" gradientUnits="userSpaceOnUse" id="gradient2" spreadMethod="pad" x1="-819.2" x2="819.2">
      <stop offset="0.0" stop-color="#ffffff" stop-opacity="0.0"/>
      <stop offset="1.0" stop-color="#ffffff" stop-opacity="0.4"/>
    </linearGradient>
    <linearGradient gradientTransform="matrix(0.0, 0.0244, -0.0244, 0.0, 41.1, 33.1)" gradientUnits="userSpaceOnUse" id="gradient3" spreadMethod="pad" x1="-819.2" x2="819.2">
      <stop offset="0.0" stop-color="#f99533"/>
      <stop offset="1.0" stop-color="#f7541e"/>
    </linearGradient>
  </defs>
</svg>
