<?xml version="1.0" encoding="UTF-8" standalone="no"?>
<svg xmlns:ffdec="https://www.free-decompiler.com/flash" xmlns:xlink="http://www.w3.org/1999/xlink" ffdec:objectType="shape" height="33.1px" width="96.8px" xmlns="http://www.w3.org/2000/svg">
  <g transform="matrix(1.0, 0.0, 0.0, 1.0, -1.0, -3.0)">
    <path d="M1.0 8.5 L1.0 5.0 77.2 5.0 Q84.05 5.05 89.15 8.65 L91.2 6.3 92.8 7.5 95.2 9.85 92.7 11.85 Q94.3 13.75 95.1 15.95 L96.85 15.3 Q97.7 17.55 97.8 20.05 L95.9 20.35 95.9 20.5 Q95.9 27.0 90.35 31.5 84.9 36.05 77.2 36.1 L1.0 36.1 1.0 32.6 77.2 32.6 Q83.15 32.55 87.4 29.05 91.45 25.7 91.7 21.05 L89.65 21.4 89.7 20.5 Q89.7 19.25 89.35 18.15 L91.2 17.45 Q90.7 15.75 89.6 14.3 L88.1 15.45 Q87.3 14.25 86.0 13.15 L85.5 12.75 86.65 11.45 Q82.65 8.55 77.2 8.5 L1.0 8.5" fill="#000000" fill-opacity="0.3529412" fill-rule="evenodd" stroke="none"/>
    <path d="M1.0 8.5 L77.2 8.5 Q82.65 8.55 86.65 11.45 L85.5 12.75 86.0 13.15 Q87.3 14.25 88.1 15.45 L89.6 14.3 Q90.7 15.75 91.2 17.45 L89.35 18.15 Q89.7 19.25 89.7 20.5 L89.65 21.4 91.7 21.05 Q91.45 25.7 87.4 29.05 83.15 32.55 77.2 32.6 L1.0 32.6 1.0 8.5" fill="url(#gradient0)" fill-rule="evenodd" stroke="none"/>
    <path d="M1.0 3.0 L77.2 3.0 Q84.05 3.05 89.15 6.65 L91.2 4.3 92.8 5.5 95.2 7.85 92.7 9.85 Q94.3 11.75 95.1 13.95 L96.85 13.3 Q97.7 15.55 97.8 18.05 L95.9 18.35 95.9 18.5 Q95.9 25.0 90.35 29.5 84.9 34.05 77.2 34.1 L1.0 34.1 1.0 30.6 77.2 30.6 Q83.15 30.55 87.4 27.05 91.45 23.7 91.7 19.05 L89.65 19.4 89.7 18.5 Q89.7 17.25 89.35 16.15 L91.2 15.45 Q90.7 13.75 89.6 12.3 L88.1 13.45 Q87.3 12.25 86.0 11.15 L85.5 10.75 86.65 9.45 Q82.65 6.55 77.2 6.5 L1.0 6.5 1.0 3.0" fill="url(#gradient1)" fill-rule="evenodd" stroke="none"/>
    <path d="M1.0 6.5 L77.2 6.5 Q82.65 6.55 86.65 9.45 L85.5 10.75 86.0 11.15 Q87.3 12.25 88.1 13.45 L89.6 12.3 Q90.7 13.75 91.2 15.45 L89.35 16.15 Q89.7 17.25 89.7 18.5 L89.65 19.4 91.7 19.05 Q91.45 23.7 87.4 27.05 83.15 30.55 77.2 30.6 L1.0 30.6 1.0 6.5" fill="url(#gradient2)" fill-rule="evenodd" stroke="none"/>
    <path d="M1.0 34.1 L77.2 34.1 Q84.9 34.05 90.35 29.5 95.9 25.0 95.9 18.5 L95.9 18.35 97.8 18.05 Q97.7 15.55 96.85 13.3 L95.1 13.95 Q94.3 11.75 92.7 9.85 L95.2 7.85 92.8 5.5 91.2 4.3 89.15 6.65 Q84.05 3.05 77.2 3.0 L1.0 3.0 M1.0 6.5 L77.2 6.5 Q82.65 6.55 86.65 9.45 L85.5 10.75 86.0 11.15 Q87.3 12.25 88.1 13.45 L89.6 12.3 Q90.7 13.75 91.2 15.45 L89.35 16.15 Q89.7 17.25 89.7 18.5 L89.65 19.4 91.7 19.05 Q91.45 23.7 87.4 27.05 83.15 30.55 77.2 30.6 L1.0 30.6" ffdec:has-small-stroke="true" ffdec:original-stroke-width="0.05" fill="none" stroke="#000000" stroke-linecap="butt" stroke-linejoin="miter-clip" stroke-miterlimit="3.0" stroke-opacity="0.101960786" stroke-width="1.0"/>
  </g>
  <defs>
    <linearGradient gradientTransform="matrix(-0.0854, 0.0, 0.0, -0.0147, 13.4, 20.55)" gradientUnits="userSpaceOnUse" id="gradient0" spreadMethod="pad" x1="-819.2" x2="819.2">
      <stop offset="0.0" stop-color="#000000" stop-opacity="0.3019608"/>
      <stop offset="1.0" stop-color="#000000" stop-opacity="0.0"/>
    </linearGradient>
    <linearGradient gradientTransform="matrix(-0.0173, -0.0224, 0.047, -0.0361, 4.3, 25.8)" gradientUnits="userSpaceOnUse" id="gradient1" spreadMethod="pad" x1="-819.2" x2="819.2">
      <stop offset="0.0" stop-color="#0fa3af"/>
      <stop offset="1.0" stop-color="#524a3d"/>
    </linearGradient>
    <linearGradient gradientTransform="matrix(-0.0854, 0.0, 0.0, -0.0147, 13.4, 18.55)" gradientUnits="userSpaceOnUse" id="gradient2" spreadMethod="pad" x1="-819.2" x2="819.2">
      <stop offset="0.00392156862745098" stop-color="#053839"/>
      <stop offset="1.0" stop-color="#053839" stop-opacity="0.0"/>
      <stop offset="1.0" stop-color="#fa8d32" stop-opacity="0.3019608"/>
    </linearGradient>
  </defs>
</svg>
