<?xml version="1.0" encoding="UTF-8" standalone="no"?>
<svg xmlns:ffdec="https://www.free-decompiler.com/flash" xmlns:xlink="http://www.w3.org/1999/xlink" ffdec:objectType="shape" height="29.1px" width="29.85px" xmlns="http://www.w3.org/2000/svg">
  <g transform="matrix(1.0, 0.0, 0.0, 1.0, 0.5, 0.5)">
    <path d="M28.85 14.05 Q28.85 19.65 24.9 23.65 L24.6 23.95 Q20.45 28.1 14.4 28.1 8.4 28.1 4.2 23.95 L3.85 23.65 Q0.05 19.75 0.0 14.35 L0.0 13.65 Q0.05 8.05 4.2 4.1 8.4 0.0 14.4 0.0 20.45 0.0 24.6 4.1 28.85 8.2 28.85 14.05" fill="#ff0000" fill-rule="evenodd" stroke="none"/>
    <path d="M28.85 14.05 Q28.85 19.65 24.9 23.65 L24.6 23.95 Q20.45 28.1 14.4 28.1 8.4 28.1 4.2 23.95 L3.85 23.65 Q0.05 19.75 0.0 14.35 L0.0 13.65 Q0.05 8.05 4.2 4.1 8.4 0.0 14.4 0.0 20.45 0.0 24.6 4.1 28.85 8.2 28.85 14.05 Z" fill="none" stroke="#000000" stroke-linecap="butt" stroke-linejoin="miter-clip" stroke-miterlimit="3.0" stroke-opacity="0.3019608" stroke-width="1.0"/>
  </g>
</svg>
