<?xml version="1.0" encoding="UTF-8" standalone="no"?>
<svg xmlns:ffdec="https://www.free-decompiler.com/flash" xmlns:xlink="http://www.w3.org/1999/xlink" ffdec:objectType="shape" height="16.0px" width="16.0px" xmlns="http://www.w3.org/2000/svg">
  <g transform="matrix(1.0, 0.0, 0.0, 1.0, 0.0, 0.0)">
    <path d="M16.0 8.0 Q16.0 11.3 13.65 13.65 12.4 14.9 10.9 15.5 L10.75 15.55 8.0 16.0 5.3 15.55 5.2 15.5 Q3.6 14.9 2.35 13.65 0.0 11.3 0.0 8.0 0.0 4.7 2.35 2.3 4.7 0.0 8.0 0.0 11.35 0.0 13.65 2.3 16.0 4.7 16.0 8.0 M15.45 8.0 Q15.45 4.9 13.25 2.65 11.1 0.5 7.95 0.5 4.85 0.5 2.65 2.65 0.45 4.9 0.45 8.0 0.45 11.1 2.65 13.3 4.8 15.45 7.8 15.5 L8.15 15.5 Q11.15 15.45 13.25 13.3 15.45 11.1 15.45 8.0 15.45 11.1 13.25 13.3 11.15 15.45 8.15 15.5 L7.8 15.5 Q4.8 15.45 2.65 13.3 0.45 11.1 0.45 8.0 0.45 4.9 2.65 2.65 4.85 0.5 7.95 0.5 11.1 0.5 13.25 2.65 15.45 4.9 15.45 8.0" fill="#d5cfaa" fill-rule="evenodd" stroke="none"/>
    <path d="M15.45 8.0 Q15.45 11.1 13.25 13.3 11.15 15.45 8.15 15.5 L7.8 15.5 Q4.8 15.45 2.65 13.3 0.45 11.1 0.45 8.0 0.45 4.9 2.65 2.65 4.85 0.5 7.95 0.5 11.1 0.5 13.25 2.65 15.45 4.9 15.45 8.0 Z" ffdec:has-small-stroke="true" ffdec:original-stroke-width="0.5" fill="none" stroke="#000000" stroke-linecap="round" stroke-linejoin="bevel" stroke-width="1.0"/>
    <path d="M10.05 5.55 L10.1 5.5 Q10.3 5.3 10.6 5.25 10.9 5.3 11.1 5.5 L11.25 5.95 11.1 6.45 11.0 6.55 Q11.4 7.2 11.25 8.1 L11.1 8.95 10.6 8.95 11.1 8.95 10.1 10.45 8.6 11.45 8.6 10.95 8.6 11.45 7.75 11.65 Q6.5 11.8 5.65 10.95 4.85 10.1 5.0 8.85 L5.2 7.95 Q5.5 7.15 6.15 6.45 L6.65 7.0 6.15 6.45 Q6.85 5.8 7.65 5.5 L8.45 5.3 Q9.35 5.2 10.05 5.55 L9.9 5.95 10.1 6.45 Q10.3 6.7 10.6 6.65 L11.0 6.55 10.6 6.65 Q10.3 6.7 10.1 6.45 L9.9 5.95 10.05 5.55 M7.65 6.0 L7.65 5.5 7.65 6.0 M9.6 9.95 L10.1 10.45 9.6 9.95 M5.65 7.95 L5.2 7.95 5.65 7.95" fill="#ffffff" fill-rule="evenodd" stroke="none"/>
    <path d="M10.05 5.55 L10.1 5.5 Q10.3 5.3 10.6 5.25 10.9 5.3 11.1 5.5 L11.25 5.95 11.1 6.45 11.0 6.55 10.6 6.65 Q10.3 6.7 10.1 6.45 L9.9 5.95 10.05 5.55 M11.1 8.95 L13.15 8.95 M7.65 5.5 L7.65 6.0 M11.1 8.95 L10.6 8.95 M7.65 5.5 L7.65 3.45 M6.15 6.45 L6.65 7.0 M8.6 11.45 L8.6 13.45 M10.1 10.45 L9.6 9.95 M8.6 11.45 L8.6 10.95 M5.2 7.95 L5.65 7.95 M6.15 6.45 L4.55 4.85 M5.2 7.95 L3.15 7.95 M10.1 10.45 L11.6 11.95" fill="none" stroke="#ffffff" stroke-linecap="butt" stroke-linejoin="bevel" stroke-width="1.0"/>
  </g>
</svg>
