<?xml version="1.0" encoding="UTF-8" standalone="no"?>
<svg xmlns:ffdec="https://www.free-decompiler.com/flash" xmlns:xlink="http://www.w3.org/1999/xlink" ffdec:objectType="shape" height="53.0px" width="68.0px" xmlns="http://www.w3.org/2000/svg">
  <g transform="matrix(1.0, 0.0, 0.0, 1.0, 0.0, 0.0)">
    <path d="M22.25 53.0 L7.6 53.0 Q0.0 53.0 0.0 45.45 L0.0 7.6 Q0.0 0.0 7.6 0.0 L68.0 0.0 68.0 0.1 22.7 0.1 Q15.0 0.1 15.0 7.65 L15.0 45.45 Q15.0 52.75 22.25 53.0" fill="#ffffff" fill-opacity="0.0" fill-rule="evenodd" stroke="none"/>
    <path d="M22.25 53.0 Q15.0 52.75 15.0 45.45 L15.0 7.65 Q15.0 0.1 22.7 0.1 L68.0 0.1 68.0 53.0 22.25 53.0" fill="#7b6962" fill-rule="evenodd" stroke="none"/>
    <path d="M55.65 30.9 Q61.8 33.5 68.0 34.0 L68.0 51.85 23.3 51.85 Q16.45 51.85 16.45 45.05 L16.45 31.25 Q16.55 28.3 20.55 26.45 23.6 24.95 26.8 24.85 L27.55 24.85 Q36.3 25.05 42.8 26.5 48.55 27.8 55.65 30.9" fill="url(#gradient0)" fill-rule="evenodd" stroke="none"/>
    <path d="M68.0 0.0 L68.0 52.95 56.9 52.95 56.9 0.0 68.0 0.0" fill="url(#gradient1)" fill-rule="evenodd" stroke="none"/>
    <path d="M50.2 16.5 L50.2 15.05 36.85 15.0 Q33.9 15.2 33.55 18.15 L33.5 18.5 33.5 19.85 33.55 38.0 46.85 38.0 Q49.95 37.85 50.2 34.8 L50.2 16.5 M50.75 14.55 L50.95 15.05 50.95 34.9 Q50.75 37.45 48.85 38.3 48.0 38.7 46.9 38.75 L33.55 38.75 Q33.25 38.75 33.05 38.5 L32.8 38.0 32.75 18.5 32.95 17.25 33.0 17.15 Q33.4 15.55 34.65 14.85 35.55 14.35 36.8 14.25 L50.2 14.3 Q50.5 14.3 50.75 14.55" fill="url(#gradient2)" fill-rule="evenodd" stroke="none"/>
    <path d="M33.5 19.85 L33.5 18.5 33.55 18.15 Q33.9 15.2 36.85 15.0 L50.2 15.05 50.2 16.5 36.85 16.45 Q35.55 16.55 34.8 17.15 L34.65 17.25 Q33.75 18.05 33.55 19.6 L33.5 19.85 M48.3 19.7 L48.3 21.1 48.05 21.6 48.0 21.65 Q47.8 21.5 47.5 21.5 L36.3 21.5 Q36.0 21.5 35.85 21.65 L35.75 21.6 35.5 21.1 35.5 19.7 35.75 20.15 36.05 20.35 47.75 20.35 48.05 20.15 48.3 19.7 M48.3 22.4 L48.3 23.75 48.0 24.35 Q47.8 24.2 47.5 24.2 L36.3 24.2 Q36.0 24.2 35.85 24.35 L35.75 24.25 35.5 23.75 35.5 22.4 35.75 22.8 36.05 23.0 36.3 23.05 47.5 23.05 47.75 23.0 48.05 22.8 48.3 22.4 M48.3 25.05 L48.3 26.45 48.0 27.0 Q47.8 26.85 47.5 26.85 L36.3 26.85 Q36.0 26.85 35.85 27.0 L35.75 26.9 35.5 26.45 35.5 25.05 35.75 25.5 36.05 25.65 36.3 25.7 47.5 25.7 47.75 25.65 48.05 25.5 48.3 25.05 M48.3 27.7 L48.3 29.1 48.05 29.6 48.0 29.65 Q47.8 29.5 47.5 29.5 L36.3 29.5 Q36.0 29.5 35.85 29.65 L35.75 29.6 35.5 29.1 35.5 27.7 35.75 28.15 36.05 28.35 47.75 28.35 48.05 28.15 48.3 27.7 M48.3 30.4 L48.3 31.75 48.05 32.25 47.95 32.4 47.5 32.25 40.85 32.25 40.3 32.5 36.3 32.5 Q35.95 32.5 35.75 32.25 L35.5 31.75 35.5 30.4 35.75 30.8 36.05 31.0 36.3 31.05 47.5 31.05 47.75 31.0 48.05 30.8 48.3 30.4 M48.3 33.15 L48.3 34.45 48.1 34.95 48.05 35.0 47.5 35.25 40.85 35.25 40.3 35.0 40.3 34.95 40.1 34.55 40.1 33.2 40.3 33.55 40.6 33.75 40.85 33.8 47.5 33.8 47.75 33.75 48.05 33.55 48.3 33.15" fill="#13100f" fill-rule="evenodd" stroke="none"/>
    <path d="M50.2 16.5 L50.2 34.8 Q49.95 37.85 46.85 38.0 L33.55 38.0 33.5 19.85 33.55 19.6 Q33.75 18.05 34.65 17.25 L34.8 17.15 Q35.55 16.55 36.85 16.45 L50.2 16.5 M48.3 19.7 L48.3 19.6 48.05 19.05 Q47.85 18.85 47.5 18.85 L36.3 18.85 35.75 19.05 35.5 19.6 35.5 19.7 35.5 21.1 35.75 21.6 35.85 21.65 35.75 21.75 35.5 22.25 35.5 22.4 35.5 23.75 35.75 24.25 35.85 24.35 35.75 24.4 35.5 24.95 35.5 25.05 35.5 26.45 35.75 26.9 35.85 27.0 35.75 27.1 35.5 27.6 35.5 27.7 35.5 29.1 35.75 29.6 35.85 29.65 35.75 29.75 Q35.5 29.95 35.5 30.3 L35.5 30.4 35.5 31.75 35.75 32.25 Q35.95 32.5 36.3 32.5 L40.3 32.5 40.1 33.0 40.1 33.2 40.1 34.55 40.3 34.95 40.3 35.0 40.85 35.25 47.5 35.25 48.05 35.0 48.1 34.95 48.3 34.45 48.3 33.15 48.3 33.0 48.05 32.5 47.95 32.4 48.05 32.25 48.3 31.75 48.3 30.4 48.3 30.3 48.0 29.65 48.05 29.6 48.3 29.1 48.3 27.7 48.3 27.6 48.0 27.0 48.3 26.45 48.3 25.05 48.3 24.95 48.05 24.4 48.0 24.35 48.3 23.75 48.3 22.4 48.3 22.25 48.0 21.65 48.05 21.6 48.3 21.1 48.3 19.7" fill="#322c28" fill-rule="evenodd" stroke="none"/>
  </g>
  <defs>
    <linearGradient gradientTransform="matrix(0.0, -0.0241, 0.0413, 0.0, 50.25, 30.25)" gradientUnits="userSpaceOnUse" id="gradient0" spreadMethod="pad" x1="-819.2" x2="819.2">
      <stop offset="0.0" stop-color="#000000" stop-opacity="0.15294118"/>
      <stop offset="1.0" stop-color="#000000" stop-opacity="0.0"/>
    </linearGradient>
    <linearGradient gradientTransform="matrix(-0.0044, 0.0, 0.0, -0.0323, 64.05, 26.5)" gradientUnits="userSpaceOnUse" id="gradient1" spreadMethod="pad" x1="-819.2" x2="819.2">
      <stop offset="0.0" stop-color="#000000" stop-opacity="0.3019608"/>
      <stop offset="1.0" stop-color="#000000" stop-opacity="0.0"/>
    </linearGradient>
    <linearGradient gradientTransform="matrix(0.0, 0.0142, -0.0111, 0.0, 41.85, 26.3)" gradientUnits="userSpaceOnUse" id="gradient2" spreadMethod="pad" x1="-819.2" x2="819.2">
      <stop offset="0.0" stop-color="#ffffff" stop-opacity="0.0"/>
      <stop offset="1.0" stop-color="#ffffff" stop-opacity="0.4"/>
    </linearGradient>
  </defs>
</svg>
