<?xml version="1.0" encoding="UTF-8" standalone="no"?>
<svg xmlns:ffdec="https://www.free-decompiler.com/flash" xmlns:xlink="http://www.w3.org/1999/xlink" ffdec:objectType="shape" height="22.55px" width="22.45px" xmlns="http://www.w3.org/2000/svg">
  <g transform="matrix(1.0, 0.0, 0.0, 1.0, 0.5, 0.5)">
    <path d="M18.3 3.15 Q21.45 6.25 21.45 10.75 21.45 15.1 18.55 18.1 L18.3 18.35 Q15.2 21.55 10.75 21.55 6.25 21.55 3.15 18.35 L2.9 18.1 Q0.1 15.15 0.0 11.0 L0.0 10.45 Q0.1 6.2 3.15 3.15 6.25 0.0 10.75 0.0 15.2 0.0 18.3 3.15" fill="#ff0000" fill-rule="evenodd" stroke="none"/>
    <path d="M18.3 3.15 Q21.45 6.25 21.45 10.75 21.45 15.1 18.55 18.1 L18.3 18.35 Q15.2 21.55 10.75 21.55 6.25 21.55 3.15 18.35 L2.9 18.1 Q0.1 15.15 0.0 11.0 L0.0 10.45 Q0.1 6.2 3.15 3.15 6.25 0.0 10.75 0.0 15.2 0.0 18.3 3.15 Z" fill="none" stroke="#000000" stroke-linecap="butt" stroke-linejoin="miter-clip" stroke-miterlimit="3.0" stroke-opacity="0.3019608" stroke-width="1.0"/>
  </g>
</svg>
