<?xml version="1.0" encoding="UTF-8" standalone="no"?>
<svg xmlns:ffdec="https://www.free-decompiler.com/flash" xmlns:xlink="http://www.w3.org/1999/xlink" ffdec:objectType="shape" height="16.0px" width="16.0px" xmlns="http://www.w3.org/2000/svg">
  <g transform="matrix(1.0, 0.0, 0.0, 1.0, 0.0, 0.0)">
    <path d="M15.45 8.0 Q15.45 4.9 13.25 2.65 11.1 0.5 7.95 0.5 4.85 0.5 2.65 2.65 0.45 4.9 0.45 8.0 0.45 11.1 2.65 13.3 4.85 15.5 7.95 15.5 11.1 15.5 13.25 13.3 15.45 11.1 15.45 8.0 15.45 11.1 13.25 13.3 11.1 15.5 7.95 15.5 4.85 15.5 2.65 13.3 0.45 11.1 0.45 8.0 0.45 4.9 2.65 2.65 4.85 0.5 7.95 0.5 11.1 0.5 13.25 2.65 15.45 4.9 15.45 8.0 M16.0 8.0 Q16.0 11.3 13.65 13.65 12.35 14.95 10.75 15.55 L8.0 16.0 5.3 15.55 Q3.65 14.95 2.35 13.65 0.0 11.3 0.0 8.0 0.0 4.7 2.35 2.3 4.7 0.0 8.0 0.0 11.35 0.0 13.65 2.3 16.0 4.7 16.0 8.0" fill="#d5cfaa" fill-rule="evenodd" stroke="none"/>
    <path d="M15.45 8.0 Q15.45 11.1 13.25 13.3 11.1 15.5 7.95 15.5 4.85 15.5 2.65 13.3 0.45 11.1 0.45 8.0 0.45 4.9 2.65 2.65 4.85 0.5 7.95 0.5 11.1 0.5 13.25 2.65 15.45 4.9 15.45 8.0 Z" ffdec:has-small-stroke="true" ffdec:original-stroke-width="0.5" fill="none" stroke="#000000" stroke-linecap="round" stroke-linejoin="bevel" stroke-width="1.0"/>
    <path d="M5.55 4.7 Q6.05 3.95 6.55 3.85 L7.4 3.65 8.3 3.6 8.8 3.7 Q9.5 3.9 10.2 4.35 L10.75 4.75 11.85 6.1 12.75 7.7 12.95 9.8 12.85 10.9 12.35 11.85 12.15 12.1 12.0 8.8 Q11.85 8.05 10.95 6.65 L9.75 5.25 9.2 4.85 8.2 4.4 8.0 4.35 7.7 4.5 7.35 4.5 6.85 4.6 6.0 4.7 5.55 4.7" fill="#fededa" fill-rule="evenodd" stroke="none"/>
    <path d="M5.55 4.7 L6.0 4.7 6.85 4.6 Q6.15 6.5 6.7 10.7 L6.8 6.85 7.35 4.5 7.7 4.5 8.0 4.35 8.2 4.4 9.2 4.85 9.75 5.25 10.95 6.65 Q11.85 8.05 12.0 8.8 L12.15 12.1 11.7 12.4 11.3 12.5 10.6 12.55 9.15 12.4 7.15 11.9 5.7 12.4 Q4.9 12.9 4.55 12.4 4.35 12.1 4.1 10.4 L3.95 9.05 4.0 8.15 Q4.15 7.2 4.85 5.85 L5.35 4.9 5.55 4.7 M8.15 7.0 Q7.9 9.4 9.75 10.6 L9.9 10.55 Q9.55 8.4 8.3 6.4 L8.15 7.0 M5.6 6.7 L5.4 7.3 Q5.15 8.15 5.2 9.05 L5.15 9.7 Q5.1 10.25 5.4 10.45 L5.55 10.2 Q5.95 8.45 5.6 6.7" fill="#fdcbc1" fill-rule="evenodd" stroke="none"/>
    <path d="M8.15 7.0 L8.3 6.4 Q9.55 8.4 9.9 10.55 L9.75 10.6 Q7.9 9.4 8.15 7.0 M5.6 6.7 Q5.95 8.45 5.55 10.2 L5.4 10.45 Q5.1 10.25 5.15 9.7 L5.2 9.05 Q5.15 8.15 5.4 7.3 L5.6 6.7" fill="#911d04" fill-rule="evenodd" stroke="none"/>
    <path d="M12.15 12.1 L12.35 11.85 12.85 10.9 12.95 9.8 12.75 7.7 11.85 6.1 10.75 4.75 10.2 4.35 Q9.5 3.9 8.8 3.7 L8.3 3.6 7.4 3.65 6.55 3.85 Q6.05 3.95 5.55 4.7 L5.35 4.9 4.85 5.85 Q4.15 7.2 4.0 8.15 L3.95 9.05 4.1 10.4 Q4.35 12.1 4.55 12.4 4.9 12.9 5.7 12.4 L7.15 11.9 9.15 12.4 10.6 12.55 11.3 12.5 11.7 12.4 12.15 12.1 Z" ffdec:has-small-stroke="true" ffdec:original-stroke-width="0.05" fill="none" stroke="#660000" stroke-linecap="butt" stroke-linejoin="miter-clip" stroke-miterlimit="3.0" stroke-opacity="0.6901961" stroke-width="1.0"/>
  </g>
</svg>
