<?xml version="1.0" encoding="UTF-8" standalone="no"?>
<svg xmlns:ffdec="https://www.free-decompiler.com/flash" xmlns:xlink="http://www.w3.org/1999/xlink" ffdec:objectType="shape" height="53.0px" width="68.0px" xmlns="http://www.w3.org/2000/svg">
  <g transform="matrix(1.0, 0.0, 0.0, 1.0, 0.0, 0.0)">
    <path d="M0.0 45.45 L0.0 7.6 Q0.0 0.0 7.6 0.0 L68.0 0.0 68.0 53.0 7.6 53.0 Q0.0 53.0 0.0 45.45" fill="#bfb5ac" fill-rule="evenodd" stroke="none"/>
    <path d="M54.05 33.75 Q60.7 33.95 68.0 31.6 L68.0 51.55 8.0 51.55 Q1.2 51.55 1.2 44.75 L1.2 30.9 Q1.3 27.95 5.25 26.05 8.65 24.4 12.2 24.5 20.95 24.7 27.4 26.1 33.1 27.45 40.2 30.55 47.1 33.5 54.05 33.75" fill="url(#gradient0)" fill-rule="evenodd" stroke="none"/>
    <path d="M68.0 0.65 L68.0 5.65 8.0 5.65 Q1.35 5.65 1.2 12.15 L1.2 7.45 Q1.2 0.65 8.0 0.65 L68.0 0.65" fill="url(#gradient1)" fill-rule="evenodd" stroke="none"/>
    <path d="M53.25 27.4 L53.2 27.4 50.45 19.8 50.45 19.65 50.5 19.65 53.25 27.4 M48.5 22.4 L49.2 20.35 49.25 20.45 48.5 22.4 M51.65 16.95 L52.3 17.3 Q52.75 17.75 52.75 18.3 L52.5 19.05 52.5 19.0 52.65 18.3 Q52.65 17.75 52.3 17.35 L51.65 16.95 M35.8 13.05 L36.35 13.45 Q36.75 13.85 36.75 14.4 L36.75 15.65 37.35 16.15 37.9 16.9 37.85 16.9 37.3 16.15 36.7 15.7 36.7 14.4 Q36.7 13.85 36.3 13.45 L35.8 13.05 M45.1 40.25 L45.15 39.9 45.15 39.75 Q45.15 38.35 44.2 37.35 L44.2 37.3 Q45.25 38.3 45.25 39.75 L45.25 39.9 45.05 40.4 44.55 40.55 45.0 40.35 45.1 40.25 M36.75 36.35 L36.7 36.35 36.7 20.7 36.75 20.7 36.75 36.35 M44.2 38.75 L44.2 38.7 44.25 38.75 44.2 38.75 M15.8 27.8 L15.9 27.6 16.05 27.5 15.9 27.65 15.8 27.8 M22.75 19.8 L22.75 19.65 23.55 21.95 22.75 19.8 M26.75 27.4 L27.2 27.6 27.4 28.05 Q27.4 30.5 25.7 32.15 L24.3 33.2 25.65 32.15 Q27.0 30.9 27.25 29.15 L27.35 28.05 27.15 27.65 26.75 27.4 M18.95 27.4 L21.45 20.35 21.5 20.5 19.0 27.4 18.95 27.4" fill="#322c28" fill-rule="evenodd" stroke="none"/>
    <path d="M54.9 29.05 Q54.65 28.8 54.4 28.8 L53.2 28.8 50.45 21.05 50.45 19.8 53.2 27.4 53.25 27.4 54.45 27.4 54.9 27.65 55.05 28.05 55.0 29.05 54.9 29.05 M48.05 21.05 L45.3 28.8 44.05 28.8 Q43.8 28.8 43.6 29.05 L43.45 29.2 43.35 28.05 43.6 27.65 43.65 27.6 43.85 27.45 44.05 27.4 45.3 27.4 48.05 19.65 48.05 21.05 M51.7 27.4 L51.7 28.8 46.75 28.8 46.75 27.4 51.7 27.4 M52.5 19.0 L52.3 18.7 Q51.9 18.3 51.35 18.3 L37.85 18.3 37.3 17.5 Q37.05 17.25 36.7 17.1 L36.7 15.7 Q36.7 15.15 36.3 14.8 35.95 14.4 35.35 14.4 34.8 14.4 34.35 14.8 34.0 15.25 34.0 15.75 L34.0 16.95 Q33.6 17.15 33.25 17.5 32.8 17.85 32.65 18.3 L19.35 18.3 Q18.85 18.3 18.4 18.7 L18.2 18.95 18.15 19.0 18.05 18.7 18.0 18.3 18.05 17.95 Q18.15 17.55 18.4 17.35 L18.45 17.3 Q18.85 16.95 19.35 16.9 L32.65 16.9 Q32.8 16.5 33.25 16.15 L33.95 15.65 34.0 15.6 34.0 14.3 Q34.05 13.8 34.35 13.45 34.8 13.0 35.35 13.0 L35.4 13.0 35.8 13.05 36.3 13.45 Q36.7 13.85 36.7 14.4 L36.7 15.7 37.3 16.15 37.85 16.9 37.9 16.9 51.4 16.9 51.65 16.95 52.3 17.35 Q52.65 17.75 52.65 18.3 L52.5 19.0 M44.2 37.35 Q45.15 38.35 45.15 39.75 L45.15 39.9 45.1 40.25 Q44.85 39.35 44.25 38.75 L44.2 38.7 44.2 38.75 Q43.2 37.75 41.8 37.75 L36.7 37.75 36.7 36.35 36.75 36.35 41.85 36.35 Q43.2 36.35 44.2 37.35 M16.05 27.5 L16.3 27.4 17.55 27.4 20.35 19.65 20.35 21.05 17.55 28.8 16.3 28.8 15.9 29.05 15.8 29.1 15.7 29.2 15.65 28.05 Q15.65 27.9 15.8 27.8 L15.9 27.65 16.05 27.5 M22.75 19.8 L23.55 21.95 25.5 27.4 26.75 27.4 27.15 27.65 27.35 28.05 27.25 29.15 27.15 29.05 26.7 28.8 25.5 28.8 22.75 21.05 22.75 19.8 M18.95 27.4 L19.0 27.4 24.0 27.4 24.0 28.8 18.95 28.8 18.95 27.4 M28.45 36.4 L29.15 36.35 34.0 36.35 34.0 37.75 29.1 37.75 Q27.7 37.75 26.7 38.7 L26.7 38.75 Q26.05 39.4 25.85 40.25 L25.75 39.9 25.75 39.55 25.85 38.85 26.1 38.25 26.7 37.35 26.7 37.3 Q27.45 36.6 28.45 36.4" fill="#9b3206" fill-rule="evenodd" stroke="none"/>
    <path d="M54.9 29.05 L55.0 29.05 55.0 29.15 54.9 29.05" fill="#521b03" fill-rule="evenodd" stroke="none"/>
    <path d="M50.45 19.8 L50.45 21.05 53.2 28.8 54.4 28.8 Q54.65 28.8 54.9 29.05 L55.0 29.15 55.0 29.05 55.05 28.05 54.9 27.65 54.45 27.4 53.25 27.4 50.5 19.65 50.45 19.65 50.45 19.8 M48.05 21.05 L48.05 19.65 45.3 27.4 44.05 27.4 43.85 27.45 43.65 27.6 43.6 27.65 43.35 28.05 43.45 29.2 43.6 29.05 Q43.8 28.8 44.05 28.8 L45.3 28.8 48.05 21.05 M49.25 20.45 L49.2 20.35 48.5 22.4 46.75 27.4 46.75 28.8 51.7 28.8 51.7 27.4 49.25 20.45 M52.5 19.0 L52.5 19.05 52.75 18.3 Q52.75 17.75 52.3 17.3 L51.65 16.95 51.4 16.9 37.9 16.9 37.35 16.15 36.75 15.65 36.75 14.4 Q36.75 13.85 36.35 13.45 L35.8 13.05 35.4 13.0 35.35 13.0 Q34.8 13.0 34.35 13.45 34.05 13.8 34.0 14.3 L34.0 15.6 33.95 15.65 33.25 16.15 Q32.8 16.5 32.65 16.9 L19.35 16.9 Q18.85 16.95 18.45 17.3 L18.4 17.35 Q18.15 17.55 18.05 17.95 L18.0 18.3 18.05 18.7 18.15 19.0 18.2 18.95 18.4 18.7 Q18.85 18.3 19.35 18.3 L32.65 18.3 Q32.8 17.85 33.25 17.5 33.6 17.15 34.0 16.95 L34.0 15.75 Q34.0 15.25 34.35 14.8 34.8 14.4 35.35 14.4 35.95 14.4 36.3 14.8 36.7 15.15 36.7 15.7 L36.7 17.1 Q37.05 17.25 37.3 17.5 L37.85 18.3 51.35 18.3 Q51.9 18.3 52.3 18.7 L52.5 19.0 M52.9 16.65 Q53.65 17.4 53.65 18.3 53.65 19.2 52.9 19.9 52.45 20.45 51.7 20.5 L53.8 26.5 54.4 26.5 Q55.0 26.5 55.55 27.0 55.95 27.45 55.95 28.05 55.95 30.9 54.05 32.8 L54.05 32.85 Q52.05 34.8 49.2 34.8 L47.7 34.65 Q45.95 34.3 44.55 33.0 L44.4 32.85 Q42.45 30.95 42.45 28.05 42.45 27.45 42.9 27.1 L42.95 27.0 43.05 26.95 Q43.45 26.5 44.05 26.5 L44.65 26.5 46.75 20.55 38.2 20.55 37.8 21.05 37.65 21.1 37.65 35.45 41.8 35.45 Q43.35 35.45 44.55 36.55 L44.8 36.7 Q46.15 37.85 46.15 39.75 L46.15 39.9 Q46.15 40.5 45.75 40.95 L45.6 41.15 44.5 41.5 26.4 41.5 Q25.75 41.5 25.3 41.05 24.75 40.55 24.75 39.9 L24.75 39.75 Q24.75 38.1 25.9 36.9 L26.1 36.7 Q27.35 35.45 29.1 35.45 L33.05 35.45 33.05 21.1 32.8 21.1 32.35 20.55 24.05 20.55 26.1 26.5 26.7 26.5 Q27.3 26.5 27.85 27.0 28.25 27.45 28.25 28.05 28.25 30.95 26.25 32.85 L26.25 32.8 Q24.3 34.8 21.45 34.8 18.75 34.8 16.85 33.0 L16.65 32.85 Q14.75 30.95 14.75 28.05 14.75 27.45 15.15 27.1 L15.3 26.95 Q15.7 26.5 16.3 26.5 L16.9 26.5 19.0 20.55 17.8 19.9 Q17.1 19.2 17.1 18.3 17.1 17.4 17.8 16.65 18.45 16.0 19.35 16.0 L32.15 16.0 32.75 15.35 33.05 15.25 33.05 14.4 Q33.05 13.5 33.75 12.85 34.35 12.25 34.8 12.15 L35.75 12.05 36.45 12.3 37.2 13.0 Q37.65 13.5 37.65 14.4 L37.65 15.25 38.45 16.0 51.35 16.0 Q52.25 16.0 52.9 16.65 M45.1 40.25 L45.0 40.35 44.55 40.55 45.05 40.4 45.25 39.9 45.25 39.75 Q45.25 38.3 44.2 37.3 L44.2 37.35 Q43.2 36.35 41.85 36.35 L36.75 36.35 36.75 20.7 36.7 20.7 36.7 36.35 36.7 37.75 41.8 37.75 Q43.2 37.75 44.2 38.75 L44.25 38.75 Q44.85 39.35 45.1 40.25 M15.8 27.8 Q15.65 27.9 15.65 28.05 L15.7 29.2 15.8 29.1 15.9 29.05 16.3 28.8 17.55 28.8 20.35 21.05 20.35 19.65 17.55 27.4 16.3 27.4 16.05 27.5 15.9 27.6 15.8 27.8 M23.55 21.95 L22.75 19.65 22.75 19.8 22.75 21.05 25.5 28.8 26.7 28.8 27.15 29.05 27.25 29.15 Q27.0 30.9 25.65 32.15 L24.3 33.2 25.7 32.15 Q27.4 30.5 27.4 28.05 L27.2 27.6 26.75 27.4 25.5 27.4 23.55 21.95 M19.0 27.4 L21.5 20.5 21.45 20.35 18.95 27.4 18.95 28.8 24.0 28.8 24.0 27.4 19.0 27.4 M20.35 26.5 L22.75 26.5 21.45 23.1 20.35 26.5 M28.45 36.4 Q27.45 36.6 26.7 37.3 L26.7 37.35 26.1 38.25 25.85 38.85 25.75 39.55 25.75 39.9 25.85 40.25 Q26.05 39.4 26.7 38.75 L26.7 38.7 Q27.7 37.75 29.1 37.75 L34.0 37.75 34.0 36.35 29.15 36.35 28.45 36.4" fill="#f8842d" fill-rule="evenodd" stroke="none"/>
  </g>
  <defs>
    <linearGradient gradientTransform="matrix(0.0, -0.0241, 0.041, 0.0, 34.8, 29.9)" gradientUnits="userSpaceOnUse" id="gradient0" spreadMethod="pad" x1="-819.2" x2="819.2">
      <stop offset="0.0" stop-color="#000000" stop-opacity="0.15294118"/>
      <stop offset="1.0" stop-color="#000000" stop-opacity="0.0"/>
    </linearGradient>
    <linearGradient gradientTransform="matrix(0.0433, 8.0E-4, -1.0E-4, 0.0077, 40.45, 6.45)" gradientUnits="userSpaceOnUse" id="gradient1" spreadMethod="pad" x1="-819.2" x2="819.2">
      <stop offset="0.0" stop-color="#ffffff" stop-opacity="0.3019608"/>
      <stop offset="1.0" stop-color="#ffffff" stop-opacity="0.0"/>
    </linearGradient>
  </defs>
</svg>
