<?xml version="1.0" encoding="UTF-8" standalone="no"?>
<svg xmlns:ffdec="https://www.free-decompiler.com/flash" xmlns:xlink="http://www.w3.org/1999/xlink" ffdec:objectType="shape" height="53.0px" width="68.0px" xmlns="http://www.w3.org/2000/svg">
  <g transform="matrix(1.0, 0.0, 0.0, 1.0, 0.0, 0.0)">
    <path d="M22.25 53.0 L7.6 53.0 Q0.0 53.0 0.0 45.45 L0.0 7.6 Q0.0 0.0 7.6 0.0 L68.0 0.0 68.0 0.1 22.7 0.1 Q15.0 0.1 15.0 7.65 L15.0 45.45 Q15.0 52.75 22.25 53.0" fill="#ffffff" fill-opacity="0.0" fill-rule="evenodd" stroke="none"/>
    <path d="M22.25 53.0 Q15.0 52.75 15.0 45.45 L15.0 7.65 Q15.0 0.1 22.7 0.1 L68.0 0.1 68.0 53.0 22.25 53.0" fill="#7b6962" fill-rule="evenodd" stroke="none"/>
    <path d="M55.65 30.9 Q61.8 33.5 68.0 34.0 L68.0 51.85 23.3 51.85 Q16.45 51.85 16.45 45.05 L16.45 31.25 Q16.55 28.3 20.55 26.45 23.95 24.75 27.55 24.85 36.3 25.05 42.8 26.5 48.55 27.8 55.65 30.9" fill="url(#gradient0)" fill-rule="evenodd" stroke="none"/>
    <path d="M68.0 0.0 L68.0 52.95 56.9 52.95 56.9 0.0 68.0 0.0" fill="url(#gradient1)" fill-rule="evenodd" stroke="none"/>
    <path d="M43.4 17.55 L43.9 17.9 44.35 18.55 55.6 18.55 Q56.05 18.55 56.4 18.9 L56.7 19.7 56.7 19.8 56.55 20.3 56.4 20.05 Q56.05 19.7 55.6 19.7 L44.35 19.7 43.9 19.05 43.4 18.7 43.4 17.55 Q43.4 17.1 43.05 16.8 42.75 16.45 42.25 16.45 41.8 16.45 41.45 16.8 41.15 17.15 41.15 17.6 L41.15 18.6 40.5 19.05 40.0 19.7 28.95 19.7 Q28.5 19.7 28.15 20.05 L28.0 20.3 27.95 20.3 27.8 19.9 27.8 19.7 Q27.8 19.25 28.15 18.9 28.5 18.55 28.95 18.55 L40.0 18.55 40.5 17.9 41.15 17.45 41.15 16.45 Q41.15 16.0 41.45 15.65 41.8 15.3 42.25 15.3 42.75 15.3 43.05 15.65 43.4 16.0 43.4 16.45 L43.4 17.55 M54.85 20.95 L57.15 27.3 58.15 27.3 58.55 27.5 58.7 27.85 58.65 28.75 58.55 28.65 58.15 28.45 57.15 28.45 54.85 22.0 54.85 20.95 M52.85 22.0 L50.55 28.45 49.5 28.45 49.15 28.65 49.0 28.8 48.95 27.85 49.15 27.5 49.5 27.3 50.55 27.3 52.85 20.85 52.85 22.0 M29.75 22.0 L27.45 28.45 26.4 28.45 Q26.2 28.45 26.05 28.65 L25.9 28.8 25.85 27.85 26.05 27.5 Q26.2 27.3 26.4 27.3 L27.45 27.3 29.75 20.85 29.75 22.0" fill="#13100f" fill-rule="evenodd" stroke="none"/>
    <path d="M33.5 37.05 L33.55 36.95 Q33.7 35.95 34.4 35.2 L34.55 35.05 Q35.35 34.25 36.35 34.1 L37.05 34.0 40.35 34.0 40.35 22.05 40.15 22.05 39.75 21.6 32.85 21.6 34.55 26.55 35.05 26.55 Q35.55 26.55 36.0 26.95 36.35 27.35 36.35 27.85 36.35 30.25 34.7 31.85 L34.7 31.8 Q33.05 33.45 30.7 33.45 28.45 33.45 26.85 31.95 L26.7 31.85 Q25.1 30.25 25.1 27.85 25.1 27.35 25.45 27.05 L25.5 26.95 25.55 26.9 Q25.9 26.55 26.4 26.55 L26.9 26.55 28.65 21.6 Q28.1 21.5 27.65 21.05 27.05 20.45 27.05 19.7 27.05 18.95 27.65 18.35 28.2 17.8 28.95 17.8 L39.6 17.8 40.1 17.25 40.35 17.15 40.35 16.45 Q40.35 15.7 40.95 15.15 L41.8 14.6 42.6 14.5 43.2 14.7 43.8 15.3 Q44.2 15.7 44.2 16.45 L44.2 17.15 44.85 17.8 55.6 17.8 Q56.35 17.8 56.9 18.35 L57.3 18.9 57.5 19.7 57.3 20.55 56.9 21.05 Q56.5 21.5 55.9 21.55 L57.65 26.55 58.15 26.55 59.1 26.95 Q59.45 27.35 59.45 27.85 59.45 30.2 57.85 31.8 L57.85 31.85 57.3 32.35 Q55.8 33.45 53.8 33.45 51.55 33.45 49.95 31.95 L49.8 31.85 Q48.2 30.25 48.2 27.85 48.2 27.35 48.55 27.05 L48.6 26.95 48.7 26.9 Q49.0 26.55 49.5 26.55 L50.0 26.55 51.75 21.6 44.65 21.6 44.3 22.0 44.2 22.05 44.2 34.0 47.65 34.0 Q48.95 34.0 49.95 34.9 50.05 34.9 50.15 35.05 50.9 35.7 51.15 36.6 L51.05 36.6 51.05 36.8 50.4 37.15 49.9 37.65 49.65 37.65 49.65 37.85 35.15 37.85 35.15 37.8 34.25 37.8 34.25 37.65 33.9 37.25 33.5 37.05 M51.15 36.65 L51.15 36.7 51.15 36.75 51.1 36.75 51.1 36.65 51.15 36.65 M51.05 37.2 L51.1 36.9 51.15 36.85 51.15 37.2 51.05 37.3 51.05 37.2 M42.25 16.45 Q42.75 16.45 43.05 16.8 43.4 17.1 43.4 17.55 L43.4 16.45 Q43.4 16.0 43.05 15.65 42.75 15.3 42.25 15.3 41.8 15.3 41.45 15.65 41.15 16.0 41.15 16.45 L41.15 17.45 40.5 17.9 40.0 18.55 28.95 18.55 Q28.5 18.55 28.15 18.9 27.8 19.25 27.8 19.7 L27.8 19.9 27.95 20.3 28.0 20.3 28.15 20.05 Q28.5 19.7 28.95 19.7 L40.0 19.7 40.5 19.05 41.15 18.6 41.15 17.6 Q41.15 17.15 41.45 16.8 41.8 16.45 42.25 16.45 M43.4 17.55 L43.4 18.7 43.9 19.05 44.35 19.7 55.6 19.7 Q56.05 19.7 56.4 20.05 L56.55 20.3 56.7 19.8 56.7 19.7 56.4 18.9 Q56.05 18.55 55.6 18.55 L44.35 18.55 43.9 17.9 43.4 17.55 M52.85 22.0 L52.85 20.85 50.55 27.3 49.5 27.3 49.15 27.5 48.95 27.85 49.0 28.8 49.15 28.65 49.5 28.45 50.55 28.45 52.85 22.0 M54.85 20.95 L54.85 22.0 57.15 28.45 58.15 28.45 58.55 28.65 58.65 28.75 58.7 27.85 58.55 27.5 58.15 27.3 57.15 27.3 54.85 20.95 M55.9 27.3 L51.75 27.3 51.75 28.45 55.9 28.45 55.9 27.3 M52.85 26.55 L54.85 26.55 53.8 23.7 52.85 26.55 M51.25 37.7 L51.15 38.0 51.15 37.35 51.2 37.0 51.25 37.6 51.25 37.7 M29.75 22.0 L29.75 20.85 27.45 27.3 26.4 27.3 Q26.2 27.3 26.05 27.5 L25.85 27.85 25.9 28.8 26.05 28.65 Q26.2 28.45 26.4 28.45 L27.45 28.45 29.75 22.0 M32.8 27.3 L28.6 27.3 28.6 28.45 32.8 28.45 32.8 27.3 M29.75 26.55 L31.75 26.55 30.7 23.7 29.75 26.55" fill="#322c28" fill-rule="evenodd" stroke="none"/>
    <path d="M33.5 37.05 L33.9 37.25 34.25 37.65 34.25 37.8 35.15 37.8 35.15 37.85 49.65 37.85 49.65 37.65 49.9 37.65 50.4 37.15 51.05 36.8 51.05 36.6 51.15 36.6 51.15 36.65 51.1 36.65 51.1 36.75 51.05 36.9 51.05 37.2 51.05 37.3 51.05 37.7 50.4 38.05 50.35 38.15 50.05 38.45 34.2 38.45 33.9 38.15 33.4 37.85 33.4 36.95 33.45 37.0 33.5 37.05" fill="#a79d9a" fill-rule="evenodd" stroke="none"/>
    <path d="M55.9 27.3 L55.9 28.45 51.75 28.45 51.75 27.3 55.9 27.3 M50.5 38.8 L51.0 38.45 50.95 38.6 50.8 38.75 50.45 38.9 50.5 38.8 M32.8 27.3 L32.8 28.45 28.6 28.45 28.6 27.3 32.8 27.3" fill="url(#gradient2)" fill-rule="evenodd" stroke="none"/>
    <path d="M33.55 36.95 Q34.15 33.5 39.9 34.1 M40.45 22.35 L40.35 34.05" ffdec:has-small-stroke="true" ffdec:original-stroke-width="0.5" fill="none" stroke="#a79d9a" stroke-linecap="butt" stroke-linejoin="miter-clip" stroke-miterlimit="3.0" stroke-opacity="0.5019608" stroke-width="1.0"/>
  </g>
  <defs>
    <linearGradient gradientTransform="matrix(0.0, -0.0241, 0.0413, 0.0, 50.25, 30.25)" gradientUnits="userSpaceOnUse" id="gradient0" spreadMethod="pad" x1="-819.2" x2="819.2">
      <stop offset="0.0" stop-color="#000000" stop-opacity="0.15294118"/>
      <stop offset="1.0" stop-color="#000000" stop-opacity="0.0"/>
    </linearGradient>
    <linearGradient gradientTransform="matrix(-0.0044, 0.0, 0.0, -0.0323, 64.05, 26.5)" gradientUnits="userSpaceOnUse" id="gradient1" spreadMethod="pad" x1="-819.2" x2="819.2">
      <stop offset="0.0" stop-color="#000000" stop-opacity="0.3019608"/>
      <stop offset="1.0" stop-color="#000000" stop-opacity="0.0"/>
    </linearGradient>
    <linearGradient gradientTransform="matrix(0.0, -0.0241, 0.0413, 0.0, 50.25, 30.25)" gradientUnits="userSpaceOnUse" id="gradient2" spreadMethod="pad" x1="-819.2" x2="819.2">
      <stop offset="0.0" stop-color="#000000" stop-opacity="0.15294118"/>
      <stop offset="1.0" stop-color="#000000" stop-opacity="0.0"/>
    </linearGradient>
  </defs>
</svg>
