<?xml version="1.0" encoding="UTF-8" standalone="no"?>
<svg xmlns:ffdec="https://www.free-decompiler.com/flash" xmlns:xlink="http://www.w3.org/1999/xlink" ffdec:objectType="shape" height="53.0px" width="68.0px" xmlns="http://www.w3.org/2000/svg">
  <g transform="matrix(1.0, 0.0, 0.0, 1.0, 0.0, 0.0)">
    <path d="M0.0 45.45 L0.0 7.6 Q0.0 0.0 7.6 0.0 L68.0 0.0 68.0 53.0 7.6 53.0 Q0.0 53.0 0.0 45.45" fill="#bfb5ac" fill-rule="evenodd" stroke="none"/>
    <path d="M68.0 0.65 L68.0 5.65 8.0 5.65 Q1.35 5.65 1.2 12.15 L1.2 7.45 Q1.2 0.65 8.0 0.65 L68.0 0.65" fill="url(#gradient0)" fill-rule="evenodd" stroke="none"/>
    <path d="M54.05 33.75 Q60.7 33.95 68.0 31.6 L68.0 51.55 8.0 51.55 Q1.2 51.55 1.2 44.75 L1.2 30.9 Q1.3 27.95 5.25 26.05 8.65 24.4 12.2 24.5 20.95 24.7 27.4 26.1 33.1 27.45 40.2 30.55 47.1 33.5 54.05 33.75" fill="url(#gradient1)" fill-rule="evenodd" stroke="none"/>
    <path d="M46.85 16.2 Q48.5 16.2 49.7 17.4 50.9 18.6 50.9 20.2 50.9 21.9 49.7 23.1 L48.2 24.1 46.15 32.7 45.75 33.2 45.55 33.35 45.6 33.5 45.6 34.1 44.35 38.05 44.0 38.5 43.4 38.7 26.4 38.7 25.8 38.5 25.45 38.0 24.25 34.1 24.25 33.5 24.35 33.35 24.1 33.2 23.75 32.7 21.6 24.05 20.15 23.1 Q18.9 21.9 18.9 20.2 18.9 18.6 20.15 17.4 21.35 16.2 23.0 16.2 24.6 16.2 25.85 17.4 27.05 18.6 27.05 20.2 27.05 21.9 25.85 23.1 L25.3 23.6 Q26.5 26.45 29.2 26.15 32.55 25.65 32.9 21.8 L32.05 21.15 Q30.85 19.95 30.85 18.3 30.85 16.65 32.05 15.45 L32.15 15.4 33.3 14.6 33.5 14.55 34.65 14.3 35.1 14.3 36.25 14.55 36.5 14.6 37.75 15.4 37.75 15.45 Q38.95 16.65 38.95 18.3 38.95 19.95 37.75 21.15 L36.95 21.8 Q37.25 25.7 40.7 26.15 43.3 26.45 44.55 23.55 L44.0 23.1 Q42.8 21.9 42.8 20.2 42.8 18.6 44.0 17.4 45.2 16.2 46.85 16.2 M49.85 20.85 L49.9 20.2 Q49.9 19.0 49.0 18.1 48.1 17.2 46.85 17.2 45.6 17.2 44.7 18.1 43.8 19.0 43.8 20.2 L43.85 20.85 Q44.0 21.7 44.7 22.4 L45.75 23.1 45.75 23.15 45.4 24.15 Q43.85 27.6 40.55 27.15 36.55 26.65 36.0 22.4 L35.9 21.25 35.85 21.25 37.05 20.45 Q37.75 19.75 37.9 18.9 L37.95 18.3 Q37.95 17.05 37.05 16.15 L36.05 15.5 34.9 15.25 33.75 15.5 Q33.25 15.75 32.75 16.15 31.85 17.05 31.85 18.3 L31.9 18.9 Q32.05 19.75 32.75 20.45 L34.1 21.25 33.9 21.25 33.85 22.35 33.85 22.45 Q33.25 26.65 29.3 27.15 25.95 27.6 24.45 24.15 L24.05 23.1 25.15 22.4 Q25.85 21.7 26.0 20.85 L26.05 20.2 Q26.05 19.0 25.15 18.1 24.2 17.2 23.0 17.2 21.75 17.2 20.85 18.1 19.9 19.0 19.9 20.2 L19.95 20.85 Q20.15 21.7 20.85 22.4 21.55 23.1 22.45 23.25 23.45 27.9 24.7 32.4 L45.15 32.4 47.35 23.25 Q48.3 23.1 49.0 22.4 49.7 21.7 49.85 20.85 M44.3 35.0 L44.65 33.8 25.2 33.8 25.6 35.0 26.4 37.7 43.4 37.7 44.3 35.0" fill="url(#gradient2)" fill-rule="evenodd" stroke="none"/>
    <path d="M43.85 20.85 L43.8 20.2 Q43.8 19.0 44.7 18.1 45.6 17.2 46.85 17.2 48.1 17.2 49.0 18.1 49.9 19.0 49.9 20.2 L49.85 20.85 Q49.7 20.0 49.0 19.3 48.1 18.4 46.85 18.4 45.6 18.4 44.7 19.3 44.0 20.0 43.85 20.85 M19.95 20.85 L19.9 20.2 Q19.9 19.0 20.85 18.1 21.75 17.2 23.0 17.2 24.2 17.2 25.15 18.1 26.05 19.0 26.05 20.2 L26.0 20.85 Q25.85 20.0 25.15 19.3 24.2 18.4 23.0 18.4 21.75 18.4 20.85 19.3 20.15 20.0 19.95 20.85 M24.05 23.1 L24.45 24.15 Q25.95 27.6 29.3 27.15 33.25 26.65 33.85 22.45 L33.9 22.45 Q33.8 27.8 29.3 28.35 25.5 28.85 24.05 24.3 L24.05 23.1 M31.9 18.9 L31.85 18.3 Q31.85 17.05 32.75 16.15 33.25 15.75 33.75 15.5 L34.9 15.25 36.05 15.5 37.05 16.15 Q37.95 17.05 37.95 18.3 L37.9 18.9 Q37.75 18.05 37.05 17.35 L36.05 16.7 34.9 16.45 33.75 16.7 Q33.25 16.95 32.75 17.35 32.05 18.05 31.9 18.9 M36.0 22.4 Q36.55 26.65 40.55 27.15 43.85 27.6 45.4 24.15 L45.75 23.15 45.75 24.3 Q44.3 28.85 40.55 28.35 36.05 27.8 35.9 22.45 L36.0 22.4 M25.6 35.0 L25.2 33.8 44.65 33.8 44.3 35.0 25.6 35.0" fill="#9b3206" fill-rule="evenodd" stroke="none"/>
    <path d="M43.85 20.85 Q44.0 20.0 44.7 19.3 45.6 18.4 46.85 18.4 48.1 18.4 49.0 19.3 49.7 20.0 49.85 20.85 49.7 21.7 49.0 22.4 48.3 23.1 47.35 23.25 L45.15 32.4 24.7 32.4 Q23.45 27.9 22.45 23.25 21.55 23.1 20.85 22.4 20.15 21.7 19.95 20.85 20.15 20.0 20.85 19.3 21.75 18.4 23.0 18.4 24.2 18.4 25.15 19.3 25.85 20.0 26.0 20.85 25.85 21.7 25.15 22.4 L24.05 23.1 24.05 24.3 Q25.5 28.85 29.3 28.35 33.8 27.8 33.9 22.45 L34.1 22.45 33.85 22.35 33.9 21.25 34.1 21.25 32.75 20.45 Q32.05 19.75 31.9 18.9 32.05 18.05 32.75 17.35 33.25 16.95 33.75 16.7 L34.9 16.45 36.05 16.7 37.05 17.35 Q37.75 18.05 37.9 18.9 37.75 19.75 37.05 20.45 L35.85 21.25 35.9 21.25 36.0 22.4 35.9 22.45 Q36.05 27.8 40.55 28.35 44.3 28.85 45.75 24.3 L45.75 23.15 45.75 23.1 44.7 22.4 Q44.0 21.7 43.85 20.85 M25.6 35.0 L44.3 35.0 43.4 37.7 26.4 37.7 25.6 35.0" fill="url(#gradient3)" fill-rule="evenodd" stroke="none"/>
    <path d="M33.85 22.45 L33.85 22.35 34.1 22.45 33.9 22.45 33.85 22.45" fill="#13100f" fill-rule="evenodd" stroke="none"/>
  </g>
  <defs>
    <linearGradient gradientTransform="matrix(0.0433, 8.0E-4, -1.0E-4, 0.0077, 40.45, 6.45)" gradientUnits="userSpaceOnUse" id="gradient0" spreadMethod="pad" x1="-819.2" x2="819.2">
      <stop offset="0.0" stop-color="#ffffff" stop-opacity="0.3019608"/>
      <stop offset="1.0" stop-color="#ffffff" stop-opacity="0.0"/>
    </linearGradient>
    <linearGradient gradientTransform="matrix(0.0, -0.0241, 0.041, 0.0, 34.8, 29.9)" gradientUnits="userSpaceOnUse" id="gradient1" spreadMethod="pad" x1="-819.2" x2="819.2">
      <stop offset="0.0" stop-color="#000000" stop-opacity="0.15294118"/>
      <stop offset="1.0" stop-color="#000000" stop-opacity="0.0"/>
    </linearGradient>
    <linearGradient gradientTransform="matrix(0.0, 0.0142, -0.0111, 0.0, -29.7, 28.4)" gradientUnits="userSpaceOnUse" id="gradient2" spreadMethod="pad" x1="-819.2" x2="819.2">
      <stop offset="0.0" stop-color="#ffffff" stop-opacity="0.0"/>
      <stop offset="1.0" stop-color="#ffffff" stop-opacity="0.4"/>
    </linearGradient>
    <linearGradient gradientTransform="matrix(0.0, 0.0244, -0.0244, 0.0, -56.1, 33.05)" gradientUnits="userSpaceOnUse" id="gradient3" spreadMethod="pad" x1="-819.2" x2="819.2">
      <stop offset="0.0" stop-color="#f99533"/>
      <stop offset="1.0" stop-color="#f7541e"/>
    </linearGradient>
  </defs>
</svg>
