<?xml version="1.0" encoding="UTF-8" standalone="no"?>
<svg xmlns:ffdec="https://www.free-decompiler.com/flash" xmlns:xlink="http://www.w3.org/1999/xlink" ffdec:objectType="shape" height="53.0px" width="68.0px" xmlns="http://www.w3.org/2000/svg">
  <g transform="matrix(1.0, 0.0, 0.0, 1.0, 0.0, 0.0)">
    <path d="M22.25 53.0 L7.6 53.0 Q0.0 53.0 0.0 45.45 L0.0 7.6 Q0.0 0.0 7.6 0.0 L68.0 0.0 68.0 0.1 22.7 0.1 Q15.0 0.1 15.0 7.65 L15.0 45.45 Q15.0 52.75 22.25 53.0" fill="#ffffff" fill-opacity="0.0" fill-rule="evenodd" stroke="none"/>
    <path d="M22.25 53.0 Q15.0 52.75 15.0 45.45 L15.0 7.65 Q15.0 0.1 22.7 0.1 L68.0 0.1 68.0 53.0 22.25 53.0" fill="#7b6962" fill-rule="evenodd" stroke="none"/>
    <path d="M42.8 26.5 Q48.55 27.8 55.65 30.9 61.8 33.5 68.0 34.0 L68.0 51.85 23.3 51.85 Q16.45 51.85 16.45 45.05 L16.45 31.25 Q16.55 28.3 20.55 26.45 23.95 24.75 27.55 24.85 36.3 25.05 42.8 26.5" fill="url(#gradient0)" fill-rule="evenodd" stroke="none"/>
    <path d="M68.0 0.0 L68.0 52.95 56.9 52.95 56.9 0.0 68.0 0.0" fill="url(#gradient1)" fill-rule="evenodd" stroke="none"/>
    <path d="M43.25 14.55 L43.5 14.6 44.75 15.4 44.75 15.45 Q45.95 16.65 45.95 18.3 45.95 19.95 44.75 21.15 L43.95 21.8 Q44.25 25.7 47.7 26.15 50.3 26.45 51.55 23.55 L51.0 23.1 Q49.8 21.9 49.8 20.2 49.8 18.6 51.0 17.4 52.2 16.2 53.85 16.2 55.5 16.2 56.7 17.4 57.9 18.6 57.9 20.2 57.9 21.9 56.7 23.1 L55.2 24.1 53.15 32.7 52.75 33.2 52.55 33.35 52.6 33.5 52.6 34.1 51.35 38.05 51.0 38.5 50.4 38.7 33.4 38.7 Q33.05 38.7 32.8 38.5 L32.45 38.0 31.25 34.1 31.25 33.5 31.35 33.35 31.1 33.2 30.75 32.7 28.6 24.05 27.15 23.1 Q25.9 21.9 25.9 20.2 25.9 18.6 27.15 17.4 28.35 16.2 30.0 16.2 31.6 16.2 32.85 17.4 34.05 18.6 34.05 20.2 34.05 21.9 32.85 23.1 L32.3 23.6 Q33.5 26.45 36.2 26.15 39.55 25.65 39.9 21.8 L39.05 21.15 Q37.85 19.95 37.85 18.3 37.85 16.65 39.05 15.45 L39.15 15.4 Q39.7 14.9 40.3 14.6 L40.5 14.55 41.65 14.3 42.1 14.3 43.25 14.55 M38.9 18.9 Q39.05 19.75 39.75 20.45 L41.1 21.25 40.9 21.25 40.85 22.35 Q40.3 26.65 36.3 27.15 32.95 27.6 31.45 24.15 L31.05 23.1 32.15 22.4 Q32.85 21.7 33.0 20.85 L33.05 20.2 Q33.05 19.0 32.15 18.1 31.2 17.2 30.0 17.2 28.75 17.2 27.85 18.1 26.9 19.0 26.9 20.2 L26.95 20.85 Q27.15 21.7 27.85 22.4 28.55 23.1 29.45 23.25 L31.7 32.4 52.15 32.4 54.35 23.25 Q55.3 23.1 56.0 22.4 56.7 21.7 56.85 20.85 L56.9 20.2 Q56.9 19.0 56.0 18.1 55.1 17.2 53.85 17.2 52.6 17.2 51.7 18.1 50.8 19.0 50.8 20.2 L50.85 20.85 Q51.0 21.7 51.7 22.4 L52.75 23.1 52.75 23.15 52.4 24.15 Q50.85 27.6 47.55 27.15 43.55 26.65 43.0 22.4 L42.9 21.25 42.85 21.25 44.05 20.45 Q44.75 19.75 44.9 18.9 L44.95 18.3 Q44.95 17.05 44.05 16.15 43.6 15.75 43.05 15.5 L41.9 15.25 40.75 15.5 Q40.25 15.75 39.75 16.15 38.85 17.05 38.85 18.3 L38.9 18.9 M51.3 35.0 L51.65 33.8 32.2 33.8 32.6 35.0 33.4 37.7 50.4 37.7 51.3 35.0" fill="url(#gradient2)" fill-rule="evenodd" stroke="none"/>
    <path d="M38.9 18.9 Q39.05 18.05 39.75 17.35 40.25 16.95 40.75 16.7 L41.9 16.45 43.05 16.7 Q43.6 16.95 44.05 17.35 44.75 18.05 44.9 18.9 44.75 19.75 44.05 20.45 L42.85 21.25 42.9 21.25 43.0 22.4 42.9 22.45 Q43.05 27.8 47.55 28.35 51.3 28.85 52.75 24.3 L52.75 23.15 52.75 23.1 51.7 22.4 Q51.0 21.7 50.85 20.85 51.0 20.0 51.7 19.3 52.6 18.4 53.85 18.4 55.1 18.4 56.0 19.3 56.7 20.0 56.85 20.85 56.7 21.7 56.0 22.4 55.3 23.1 54.35 23.25 L52.15 32.4 31.7 32.4 29.45 23.25 Q28.55 23.1 27.85 22.4 27.15 21.7 26.95 20.85 27.15 20.0 27.85 19.3 28.75 18.4 30.0 18.4 31.2 18.4 32.15 19.3 32.85 20.0 33.0 20.85 32.85 21.7 32.15 22.4 L31.05 23.1 31.05 24.3 Q32.5 28.85 36.3 28.35 40.8 27.8 40.9 22.45 L41.1 22.45 40.85 22.35 40.9 21.25 41.1 21.25 39.75 20.45 Q39.05 19.75 38.9 18.9 M32.6 35.0 L51.3 35.0 50.4 37.7 33.4 37.7 32.6 35.0" fill="#322c28" fill-rule="evenodd" stroke="none"/>
    <path d="M44.9 18.9 Q44.75 18.05 44.05 17.35 43.6 16.95 43.05 16.7 L41.9 16.45 40.75 16.7 Q40.25 16.95 39.75 17.35 39.05 18.05 38.9 18.9 L38.85 18.3 Q38.85 17.05 39.75 16.15 40.25 15.75 40.75 15.5 L41.9 15.25 43.05 15.5 Q43.6 15.75 44.05 16.15 44.95 17.05 44.95 18.3 L44.9 18.9 M40.85 22.35 L41.1 22.45 40.9 22.45 Q40.8 27.8 36.3 28.35 32.5 28.85 31.05 24.3 L31.05 23.1 31.45 24.15 Q32.95 27.6 36.3 27.15 40.3 26.65 40.85 22.35 M33.0 20.85 Q32.85 20.0 32.15 19.3 31.2 18.4 30.0 18.4 28.75 18.4 27.85 19.3 27.15 20.0 26.95 20.85 L26.9 20.2 Q26.9 19.0 27.85 18.1 28.75 17.2 30.0 17.2 31.2 17.2 32.15 18.1 33.05 19.0 33.05 20.2 L33.0 20.85 M56.85 20.85 Q56.7 20.0 56.0 19.3 55.1 18.4 53.85 18.4 52.6 18.4 51.7 19.3 51.0 20.0 50.85 20.85 L50.8 20.2 Q50.8 19.0 51.7 18.1 52.6 17.2 53.85 17.2 55.1 17.2 56.0 18.1 56.9 19.0 56.9 20.2 L56.85 20.85 M52.75 23.15 L52.75 24.3 Q51.3 28.85 47.55 28.35 43.05 27.8 42.9 22.45 L43.0 22.4 Q43.55 26.65 47.55 27.15 50.85 27.6 52.4 24.15 L52.75 23.15 M32.6 35.0 L32.2 33.8 51.65 33.8 51.3 35.0 32.6 35.0" fill="#13100f" fill-rule="evenodd" stroke="none"/>
  </g>
  <defs>
    <linearGradient gradientTransform="matrix(0.0, -0.0241, 0.0413, 0.0, 50.25, 30.25)" gradientUnits="userSpaceOnUse" id="gradient0" spreadMethod="pad" x1="-819.2" x2="819.2">
      <stop offset="0.0" stop-color="#000000" stop-opacity="0.15294118"/>
      <stop offset="1.0" stop-color="#000000" stop-opacity="0.0"/>
    </linearGradient>
    <linearGradient gradientTransform="matrix(-0.0044, 0.0, 0.0, -0.0323, 64.05, 26.5)" gradientUnits="userSpaceOnUse" id="gradient1" spreadMethod="pad" x1="-819.2" x2="819.2">
      <stop offset="0.0" stop-color="#000000" stop-opacity="0.3019608"/>
      <stop offset="1.0" stop-color="#000000" stop-opacity="0.0"/>
    </linearGradient>
    <linearGradient gradientTransform="matrix(0.0, 0.0142, -0.0111, 0.0, -22.7, 28.4)" gradientUnits="userSpaceOnUse" id="gradient2" spreadMethod="pad" x1="-819.2" x2="819.2">
      <stop offset="0.0" stop-color="#ffffff" stop-opacity="0.0"/>
      <stop offset="1.0" stop-color="#ffffff" stop-opacity="0.4"/>
    </linearGradient>
  </defs>
</svg>
