<?xml version="1.0" encoding="UTF-8" standalone="no"?>
<svg xmlns:ffdec="https://www.free-decompiler.com/flash" xmlns:xlink="http://www.w3.org/1999/xlink" ffdec:objectType="shape" height="30.0px" width="30.0px" xmlns="http://www.w3.org/2000/svg">
  <g transform="matrix(1.0, 0.0, 0.0, 1.0, 0.0, 0.0)">
    <path d="M30.0 30.0 L0.0 30.0 0.0 0.0 30.0 0.0 30.0 30.0" fill="#010101" fill-opacity="0.0" fill-rule="evenodd" stroke="none"/>
    <path d="M28.55 12.25 L15.9 20.7 16.05 19.35 Q16.05 17.3 14.5 15.55 L14.35 15.35 Q12.75 13.85 10.55 13.85 L9.25 14.0 17.8 1.5 Q18.3 4.85 20.65 8.65 L20.4 8.85 15.35 14.7 21.3 9.35 21.35 9.4 Q25.85 11.95 28.55 12.25" fill="#838383" fill-rule="evenodd" stroke="none"/>
    <path d="M9.45 17.25 L10.2 17.55 10.5 18.3 10.2 19.0 9.45 19.3 8.75 19.0 Q8.45 18.7 8.45 18.3 8.45 17.85 8.75 17.55 9.05 17.25 9.45 17.25" fill="#628eff" fill-rule="evenodd" stroke="none"/>
    <path d="M6.65 15.45 Q5.6 16.55 5.25 17.9 L3.6 16.3 Q3.0 15.65 2.95 14.7 2.95 13.55 3.8 12.75 4.6 11.9 5.75 11.9 6.7 11.95 7.35 12.55 L8.9 14.1 Q7.65 14.5 6.65 15.45 M1.25 24.25 L5.35 21.15 Q5.65 22.3 6.55 23.25 7.4 24.05 8.45 24.4 L5.4 28.5 Q4.95 29.0 4.2 29.15 L3.8 29.2 Q2.5 29.25 1.5 28.25 L1.25 28.0 Q0.5 27.1 0.5 25.95 L0.55 25.55 Q0.65 24.8 1.2 24.3 L1.25 24.25" fill="#0041ff" fill-rule="evenodd" stroke="none"/>
    <path d="M12.05 24.7 Q13.4 24.35 14.45 23.3 15.45 22.3 15.8 21.05 L17.15 22.4 Q17.75 23.05 17.8 23.95 17.8 25.1 17.0 25.95 16.15 26.8 15.0 26.75 14.05 26.7 13.45 26.15 L12.05 24.7" fill="#1b44bb" fill-rule="evenodd" stroke="none"/>
    <path d="M17.8 1.5 Q23.15 0.4 29.0 0.65 L29.35 0.65 29.45 0.8 Q29.75 6.8 28.55 12.25 L26.05 11.3 Q24.15 10.45 21.9 8.95 L28.95 1.15 21.25 8.15 Q19.0 5.05 17.8 1.5" fill="#c6c6c6" fill-rule="evenodd" stroke="none"/>
    <path d="M7.15 16.0 Q8.05 15.1 9.1 14.8 L9.4 14.7 10.55 14.6 Q12.45 14.6 13.85 15.9 L13.95 16.0 14.0 16.1 Q15.3 17.45 15.35 19.4 L15.15 20.85 Q14.8 21.9 13.95 22.75 13.0 23.7 11.85 24.05 L10.55 24.2 9.35 24.05 Q8.1 23.75 7.15 22.8 6.1 21.7 5.85 20.35 L5.75 19.4 Q5.75 18.7 5.9 18.1 6.25 16.9 7.15 16.0 M7.45 19.4 Q7.45 20.65 8.4 21.55 9.3 22.45 10.55 22.45 11.8 22.45 12.75 21.55 13.65 20.65 13.6 19.35 13.65 18.15 12.75 17.25 L12.75 17.2 12.65 17.15 Q11.75 16.3 10.55 16.3 9.25 16.3 8.35 17.2 7.45 18.1 7.45 19.4" fill="#ffc919" fill-rule="evenodd" stroke="none"/>
  </g>
</svg>
