<?xml version="1.0" encoding="UTF-8" standalone="no"?>
<svg xmlns:ffdec="https://www.free-decompiler.com/flash" xmlns:xlink="http://www.w3.org/1999/xlink" ffdec:objectType="shape" height="166.35px" width="570.95px" xmlns="http://www.w3.org/2000/svg">
  <g transform="matrix(1.0, 0.0, 0.0, 1.0, -86.7, -141.15)">
    <path d="M657.65 307.5 L86.8 307.5 86.8 141.15 657.65 141.15 657.65 307.5" fill="#c9bf9d" fill-rule="evenodd" stroke="none"/>
    <path d="M657.65 307.45 L657.65 307.5 471.4 307.5 471.4 307.45 500.3 307.45 657.65 307.45" fill="url(#gradient0)" fill-rule="evenodd" stroke="none"/>
    <path d="M500.3 182.2 L657.65 182.2 657.65 307.45 500.3 307.45 500.3 182.2" fill="url(#gradient1)" fill-rule="evenodd" stroke="none"/>
    <path d="M471.4 307.45 L471.4 307.35 377.55 307.35 377.55 182.25 377.55 182.2 500.3 182.2 500.3 307.45 471.4 307.45" fill="url(#gradient2)" fill-rule="evenodd" stroke="none"/>
    <path d="M377.55 307.35 L314.05 307.35 314.05 307.5 273.05 307.5 273.05 307.15 273.05 182.25 377.55 182.25 377.55 307.35" fill="url(#gradient3)" fill-rule="evenodd" stroke="none"/>
    <path d="M273.05 307.15 L159.85 307.15 159.85 307.3 86.7 307.3 86.7 182.05 273.05 182.05 273.05 182.25 273.05 307.15" fill="url(#gradient4)" fill-rule="evenodd" stroke="none"/>
  </g>
  <defs>
    <radialGradient cx="0" cy="0" gradientTransform="matrix(0.0602, 0.0, 0.0, 0.0607, 324.45, 241.85)" gradientUnits="userSpaceOnUse" id="gradient0" r="819.2" spreadMethod="pad">
      <stop offset="0.0" stop-color="#b4ac8d"/>
      <stop offset="1.0" stop-color="#a7a49d"/>
    </radialGradient>
    <radialGradient cx="0" cy="0" gradientTransform="matrix(0.1249, 0.0, 0.0, 0.1199, 578.9, 244.85)" gradientUnits="userSpaceOnUse" id="gradient1" r="819.2" spreadMethod="pad">
      <stop offset="0.0" stop-color="#b4ac8d"/>
      <stop offset="1.0" stop-color="#956e6e"/>
    </radialGradient>
    <radialGradient cx="0" cy="0" gradientTransform="matrix(0.1066, 0.0, 0.0, 0.1075, 438.9, 244.8)" gradientUnits="userSpaceOnUse" id="gradient2" r="819.2" spreadMethod="pad">
      <stop offset="0.0" stop-color="#b4ac8d"/>
      <stop offset="1.0" stop-color="#86986f"/>
    </radialGradient>
    <radialGradient cx="0" cy="0" gradientTransform="matrix(0.0602, 0.0, 0.0, 0.0607, 324.45, 241.85)" gradientUnits="userSpaceOnUse" id="gradient3" r="819.2" spreadMethod="pad">
      <stop offset="0.0" stop-color="#b4ac8d"/>
      <stop offset="1.0" stop-color="#86a0a1"/>
    </radialGradient>
    <radialGradient cx="0" cy="0" gradientTransform="matrix(0.1073, 0.0, 0.0, 0.0607, 178.4, 241.65)" gradientUnits="userSpaceOnUse" id="gradient4" r="819.2" spreadMethod="pad">
      <stop offset="0.0" stop-color="#b4ac8d"/>
      <stop offset="1.0" stop-color="#a7a49d"/>
    </radialGradient>
  </defs>
</svg>
