<?xml version="1.0" encoding="UTF-8" standalone="no"?>
<svg xmlns:ffdec="https://www.free-decompiler.com/flash" xmlns:xlink="http://www.w3.org/1999/xlink" ffdec:objectType="shape" height="79.0px" width="207.95px" xmlns="http://www.w3.org/2000/svg">
  <g transform="matrix(1.0, 0.0, 0.0, 1.0, 103.95, 39.5)">
    <path d="M32.2 -1.4 Q36.3 0.65 40.6 5.0 39.35 4.05 36.2 2.5 31.95 0.45 30.25 0.0 L28.4 -0.45 Q33.25 1.0 35.75 3.65 38.1 6.1 38.1 9.35 38.1 10.6 36.9 12.55 35.65 14.55 34.25 15.4 42.7 15.4 42.75 8.5 L42.5 7.7 Q43.85 9.85 43.85 10.9 43.85 12.55 42.85 13.4 41.15 14.7 35.05 16.75 L65.25 11.4 Q68.05 11.0 70.3 11.45 L79.7 13.1 Q76.25 10.15 74.4 7.05 72.75 4.2 72.75 1.9 72.75 -1.95 75.5 -6.4 77.1 -9.05 81.55 -14.35 85.9 -19.55 87.55 -22.35 90.3 -26.9 90.3 -30.95 90.3 -34.8 87.9 -34.8 82.9 -34.8 78.65 -32.85 72.9 -30.25 71.75 -25.15 71.05 -26.7 71.05 -27.95 L71.4 -29.7 Q72.0 -31.7 73.3 -33.4 77.35 -38.7 86.45 -38.7 88.75 -38.7 95.5 -35.6 L97.3 -39.5 102.9 -39.5 Q101.75 -31.25 93.5 -20.35 L86.6 -11.6 Q82.65 -6.55 80.65 -3.15 L80.0 -2.15 81.2 -6.2 82.3 -10.95 82.0 -11.55 Q79.95 -10.3 78.2 -5.55 76.7 -1.45 76.7 0.9 76.7 4.35 78.85 6.8 81.35 9.65 85.7 9.65 88.25 9.65 91.0 6.0 93.2 3.05 94.1 0.2 L94.55 3.0 Q94.55 5.3 92.9 6.6 L88.55 9.6 88.3 9.75 89.75 9.9 91.6 10.0 Q94.9 10.0 96.9 5.9 98.45 2.8 98.45 0.1 98.45 -3.1 97.4 -4.1 96.6 -4.9 94.35 -4.9 90.55 -4.9 87.55 -0.25 L93.1 -0.15 88.55 3.4 Q87.6 4.35 85.5 7.65 L84.85 8.8 84.1 6.4 83.5 4.35 Q83.5 -0.35 88.0 -3.7 92.3 -6.9 98.0 -6.9 99.75 -6.9 101.25 -6.15 103.9 -4.75 104.0 -1.3 L104.0 10.1 Q102.05 12.9 100.2 14.05 97.4 15.75 92.3 16.05 L91.05 16.1 Q94.3 17.15 97.3 21.85 100.15 26.25 100.15 29.3 100.15 34.0 90.2 36.95 82.45 39.25 75.15 39.25 67.4 39.25 63.75 36.0 61.05 33.6 61.05 30.05 61.05 28.3 62.7 26.75 64.25 25.25 66.55 24.65 L68.45 24.85 Q65.95 25.25 65.0 26.15 64.1 26.95 64.1 28.55 64.1 29.6 64.65 30.55 65.35 31.7 66.45 31.7 73.05 31.7 76.15 29.15 77.7 27.9 77.95 26.55 77.95 25.2 73.75 23.4 69.4 21.55 65.75 21.55 60.25 21.55 54.05 24.35 L41.75 30.55 Q22.8 39.5 -3.8 39.5 -15.15 39.5 -26.05 35.35 -32.7 32.85 -44.05 26.4 -55.4 19.95 -61.3 17.75 -71.25 14.0 -81.2 14.55 L-83.35 14.55 -70.25 13.85 Q-64.7 13.85 -59.15 14.95 L-48.8 18.55 Q-20.55 28.4 -7.05 29.3 L-6.85 29.3 Q-6.7 29.25 -6.7 28.65 -6.7 27.85 -9.2 23.75 -11.7 19.65 -11.7 17.5 -11.7 6.8 -1.05 0.75 7.75 -4.2 19.3 -4.2 26.6 -4.2 32.2 -1.4 M81.7 32.35 L79.3 34.4 77.7 35.25 Q83.8 34.95 87.8 32.55 92.05 29.95 92.05 25.9 92.05 15.75 72.65 15.75 67.7 15.75 40.7 21.05 L12.35 26.3 Q4.65 26.3 -0.15 22.5 -5.1 18.6 -5.1 12.05 -5.1 9.7 -3.3 7.8 -1.8 6.15 5.8 0.1 -0.65 2.55 -4.45 6.05 -9.35 10.55 -9.35 16.4 -9.35 19.15 -7.4 21.65 -5.0 24.7 1.4 29.15 -1.05 30.1 -11.05 31.95 L-19.0 31.6 -15.9 32.75 Q-8.1 35.3 -1.35 35.3 7.45 35.3 24.15 30.4 39.4 25.95 56.35 18.9 L30.95 30.65 Q25.25 33.3 19.2 35.6 33.75 32.8 47.05 25.95 53.05 22.85 55.6 21.95 60.15 20.3 65.15 20.3 72.85 20.3 78.15 23.15 83.05 25.8 83.05 29.1 83.05 31.1 81.7 32.35 M36.35 10.0 Q36.35 6.8 30.75 3.8 25.2 0.85 18.4 0.25 10.8 -0.4 6.05 2.5 0.45 5.95 0.45 13.75 0.45 20.5 7.75 20.5 L16.5 19.7 Q23.25 18.8 24.7 18.15 19.65 17.7 16.1 15.45 12.25 13.0 12.25 9.65 12.25 8.4 13.7 7.1 15.45 5.6 18.05 5.6 21.95 5.6 24.4 7.0 26.55 8.3 26.65 10.15 L22.75 10.6 Q23.15 8.55 22.15 8.55 18.75 8.55 18.75 9.6 18.75 11.4 21.0 12.6 23.8 14.1 29.35 14.1 30.6 14.1 33.4 12.65 36.35 11.1 36.35 10.0 M-72.0 25.8 Q-74.6 23.25 -77.9 22.55 L-78.2 27.95 Q-79.95 26.05 -84.1 23.65 -89.3 20.6 -93.9 19.75 L-85.4 18.4 Q-79.1 18.4 -74.8 20.8 -70.15 23.45 -66.15 29.8 -76.45 35.2 -84.5 35.2 -93.35 35.2 -99.4 27.75 -103.95 22.15 -103.95 18.65 -103.95 14.0 -94.25 11.1 -87.15 9.0 -81.75 9.0 -77.45 9.0 -68.05 11.95 L-59.75 14.75 Q-71.6 11.75 -78.8 11.75 -85.65 11.75 -89.1 13.55 -92.95 15.55 -95.35 21.15 L-89.7 26.25 Q-86.2 28.35 -78.7 29.0 L-80.6 29.45 -83.25 29.85 Q-89.9 29.85 -95.25 23.45 L-95.6 22.65 -95.9 26.1 Q-95.9 32.8 -78.75 32.8 -75.0 32.8 -69.8 29.2 -69.8 28.0 -72.0 25.8" fill="#b6aa8b" fill-rule="evenodd" stroke="none"/>
  </g>
</svg>
