<?xml version="1.0" encoding="UTF-8" standalone="no"?>
<svg xmlns:ffdec="https://www.free-decompiler.com/flash" xmlns:xlink="http://www.w3.org/1999/xlink" ffdec:objectType="shape" height="36.25px" width="27.95px" xmlns="http://www.w3.org/2000/svg">
  <g transform="matrix(1.0, 0.0, 0.0, 1.0, 13.95, 36.05)">
    <path d="M5.3 -33.65 L-7.3 -27.65 -7.6 -27.75 -7.6 -27.8 -7.7 -27.8 -9.75 -27.75 -10.5 -27.0 -11.0 -26.25 Q-11.2 -25.2 -10.85 -24.2 L-10.2 -22.6 -10.35 -22.8 -11.4 -24.65 Q-11.7 -25.75 -11.4 -26.8 -11.05 -27.65 -10.1 -28.4 -9.25 -28.75 -7.75 -28.4 L5.15 -34.2 5.3 -33.65 M9.25 -6.15 L1.75 -3.55 0.15 -3.05 0.1 -2.75 0.05 -2.9 0.1 -3.0 0.15 -3.35 1.75 -3.55 0.15 -3.35 0.1 -3.0 0.05 -2.9 -0.25 -4.05 -0.35 -3.9 Q-0.7 -3.35 -1.2 -3.05 L-3.15 -1.9 Q-4.1 -1.4 -5.15 -1.3 L-6.1 -1.4 -6.3 -1.75 -6.75 -2.75 -4.3 -2.45 Q-2.8 -2.85 -1.4 -3.7 L-0.35 -4.4 -0.55 -5.15 0.55 -5.55 2.6 -6.45 3.05 -5.15 5.65 -9.1 5.05 -7.85 4.15 -5.7 3.75 -4.7 1.9 -4.25 1.6 -4.15 1.7 -4.05 1.75 -3.75 9.25 -6.15 M-7.7 -6.3 L-8.7 -9.9 -9.2 -11.75 -9.1 -11.7 -8.3 -11.4 -8.55 -10.3 -8.25 -10.05 -7.8 -9.75 -7.95 -9.8 -8.6 -9.9 -7.7 -6.35 -7.7 -6.3 M-10.35 -17.3 L-10.65 -18.3 -10.55 -18.3 -9.4 -17.45 Q-8.3 -16.95 -7.1 -16.85 -5.75 -16.8 -4.7 -17.25 -4.3 -17.4 -3.85 -17.65 L-3.35 -18.1 -2.85 -19.1 -3.3 -21.7 -3.3 -22.05 -3.3 -22.35 -3.3 -22.55 -3.7 -23.35 -3.65 -23.5 -1.7 -24.3 -1.5 -24.2 -1.5 -24.0 -1.7 -21.1 Q-1.85 -19.75 -1.65 -18.55 L-1.55 -18.4 -2.05 -18.15 -3.2 -17.65 -3.05 -17.25 -4.65 -16.2 -6.6 -15.8 Q-8.75 -15.8 -10.25 -17.1 L-10.35 -17.3 -10.55 -18.3 -10.35 -17.3 M4.3 -19.9 L4.05 -19.3 2.85 -16.75 Q2.2 -15.35 0.95 -14.8 L0.4 -15.35 0.3 -15.35 -0.7 -14.95 0.1 -10.75 0.7 -8.0 -0.1 -7.65 -1.1 -7.3 -1.2 -7.65 -1.55 -7.5 -2.3 -11.45 Q-2.05 -12.7 -2.55 -13.85 L-2.65 -13.85 Q-2.8 -14.7 -2.4 -15.45 L-2.4 -15.6 -2.3 -15.65 -2.2 -15.8 -2.15 -15.85 -1.9 -15.8 -1.1 -16.1 0.95 -16.85 1.45 -15.5 4.3 -19.9 M-3.2 -21.75 L-3.3 -22.05 -3.2 -21.75 M-8.7 -9.9 L-9.1 -11.7 -8.7 -9.9" fill="#583701" fill-rule="evenodd" stroke="none"/>
    <path d="M-13.45 -25.95 L-12.55 -28.3 Q-12.2 -28.95 -10.9 -29.6 L-8.75 -29.6 4.65 -35.3 5.8 -34.5 6.0 -33.0 5.3 -33.65 5.15 -34.2 -7.75 -28.4 Q-9.25 -28.75 -10.1 -28.4 -11.05 -27.65 -11.4 -26.8 -11.7 -25.75 -11.4 -24.65 L-10.35 -22.8 -10.2 -22.6 -10.2 -22.55 -10.05 -22.4 Q-8.3 -21.35 -6.1 -21.25 -5.0 -21.5 -4.65 -22.2 -4.65 -23.05 -5.15 -23.85 L-5.75 -24.6 -5.0 -24.6 -4.85 -24.6 -3.0 -25.35 -2.9 -25.35 6.8 -29.4 7.8 -28.25 Q9.3 -22.4 13.15 -22.5 L12.7 -13.05 Q8.95 -10.45 9.25 -6.15 L1.75 -3.75 1.7 -4.05 1.6 -4.15 1.9 -4.25 3.75 -4.7 4.15 -5.7 5.05 -7.85 5.65 -9.1 6.3 -10.2 1.3 -10.2 1.85 -8.45 0.7 -8.0 0.1 -10.75 -0.7 -14.95 0.3 -15.35 0.4 -15.35 0.95 -14.8 Q2.2 -15.35 2.85 -16.75 L4.05 -19.3 4.3 -19.9 5.0 -21.0 -0.35 -21.0 0.15 -19.1 -1.55 -18.4 -1.65 -18.55 Q-1.85 -19.75 -1.7 -21.1 L-1.5 -24.0 -1.5 -24.2 -1.7 -24.3 -3.65 -23.5 -3.7 -23.35 -3.3 -22.55 -3.3 -22.35 -3.3 -22.05 -3.3 -21.7 Q-3.55 -21.0 -4.45 -20.4 L-4.85 -20.2 Q-6.8 -19.7 -8.55 -20.25 L-11.4 -22.25 -12.2 -22.9 Q-13.3 -24.5 -13.45 -25.95 -13.2 -24.6 -12.2 -23.2 L-12.2 -22.9 -12.2 -23.2 Q-13.2 -24.6 -13.45 -25.95 M0.1 -2.75 Q-0.1 -1.95 -0.7 -1.3 L-1.75 -0.3 Q-3.7 0.35 -5.3 -0.3 L-6.3 -1.45 -6.8 -2.75 -6.75 -2.75 -6.3 -1.75 -6.1 -1.4 -5.15 -1.3 Q-4.1 -1.4 -3.15 -1.9 L-1.2 -3.05 Q-0.7 -3.35 -0.35 -3.9 L-0.25 -4.05 0.05 -2.9 0.1 -2.75 M-7.7 -6.05 L-7.7 -6.3 -7.7 -6.35 -8.6 -9.9 -7.95 -9.8 -7.8 -9.75 -8.25 -10.05 -8.55 -10.3 -8.3 -11.4 -9.1 -11.7 -9.2 -11.75 -10.1 -13.4 -10.4 -14.35 -10.5 -14.65 -10.6 -15.2 -10.65 -15.3 -10.65 -15.6 Q-10.65 -16.35 -10.25 -17.1 -8.75 -15.8 -6.6 -15.8 L-4.65 -16.2 -3.05 -17.25 -2.7 -14.7 -2.4 -15.6 -2.4 -15.45 Q-2.8 -14.7 -2.65 -13.85 L-2.55 -13.85 Q-2.05 -12.7 -2.3 -11.45 L-1.55 -7.5 -2.85 -6.7 -5.15 -5.85 -5.65 -5.85 -7.7 -6.05 M-6.3 -1.45 L-5.3 -0.6 Q-3.7 0.05 -1.75 -0.6 L-0.75 -1.55 Q-0.2 -2.25 0.05 -2.9 -0.2 -2.25 -0.75 -1.55 L-1.75 -0.6 Q-3.7 0.05 -5.3 -0.6 L-6.3 -1.45 M-10.65 -15.6 L-10.6 -15.2 -10.65 -15.6 M-9.1 -11.7 L-9.2 -12.0 -10.1 -13.65 -10.4 -14.35 -10.1 -13.65 -9.2 -12.0 -9.1 -11.7" fill="#784b01" fill-rule="evenodd" stroke="none"/>
    <path d="M6.0 -33.0 L8.45 -31.15 3.2 -28.55 -0.1 -27.55 5.15 -31.05 Q4.05 -30.7 3.1 -30.1 -1.2 -27.95 -5.8 -26.4 -4.8 -26.8 -4.15 -27.55 L-6.3 -26.45 -6.1 -26.1 Q-5.95 -25.5 -5.15 -25.3 -5.0 -25.15 -5.0 -24.65 L-5.0 -24.6 -5.75 -24.6 -5.15 -23.85 -5.65 -23.0 Q-6.5 -22.35 -7.4 -22.4 -8.25 -22.5 -8.75 -23.3 -10.7 -26.1 -7.7 -27.75 L-7.6 -27.75 -7.3 -27.65 5.3 -33.65 6.0 -33.0 M-10.5 -27.0 L-9.75 -27.75 -7.7 -27.8 -10.5 -27.0" fill="#ffeac8" fill-rule="evenodd" stroke="none"/>
    <path d="M9.25 -30.5 L12.35 -31.7 13.5 -30.7 13.5 -30.6 7.8 -28.25 6.8 -29.4 9.25 -30.5 M-1.1 -16.1 L-1.9 -15.8 -2.15 -15.85 -2.2 -15.8 -2.3 -15.65 -2.4 -15.6 -2.7 -14.7 -3.05 -17.25 -3.2 -17.65 -2.05 -18.15 -1.1 -16.1 M-1.1 -7.3 L-0.1 -7.65 0.55 -5.55 -0.55 -5.15 -1.1 -7.3" fill="#cd9332" fill-rule="evenodd" stroke="none"/>
    <path d="M8.45 -31.15 L9.25 -30.5 6.8 -29.4 -2.9 -25.35 -3.0 -25.35 -4.85 -24.6 -5.0 -24.6 -5.0 -24.65 Q-5.0 -25.15 -5.15 -25.3 -5.95 -25.5 -6.1 -26.1 L-6.3 -26.45 -4.15 -27.55 Q-4.8 -26.8 -5.8 -26.4 -1.2 -27.95 3.1 -30.1 4.05 -30.7 5.15 -31.05 L-0.1 -27.55 3.2 -28.55 8.45 -31.15 M-7.6 -27.75 L-7.7 -27.75 Q-10.7 -26.1 -8.75 -23.3 -8.25 -22.5 -7.4 -22.4 -6.5 -22.35 -5.65 -23.0 L-5.15 -23.85 Q-4.65 -23.05 -4.65 -22.2 -5.0 -21.5 -6.1 -21.25 -8.3 -21.35 -10.05 -22.4 L-10.2 -22.55 -10.2 -22.6 -10.85 -24.2 Q-11.2 -25.2 -11.0 -26.25 L-10.5 -27.0 -7.7 -27.8 -7.6 -27.8 -7.6 -27.75" fill="#ffc88a" fill-rule="evenodd" stroke="none"/>
    <path d="M13.5 -30.6 L13.15 -22.5 Q9.3 -22.4 7.8 -28.25 L13.5 -30.6 M12.7 -13.05 L12.45 -7.6 12.4 -7.15 9.25 -6.15 Q8.95 -10.45 12.7 -13.05 M-6.8 -2.75 L-7.55 -4.25 -7.7 -5.1 -7.7 -5.35 -7.7 -5.75 -7.7 -6.05 -5.65 -5.85 -5.15 -5.85 -2.85 -6.7 -1.55 -7.5 -1.2 -7.65 -1.1 -7.3 -0.55 -5.15 -0.35 -4.4 -1.4 -3.7 Q-2.8 -2.85 -4.3 -2.45 L-6.75 -2.75 -6.8 -2.75 M-10.65 -18.3 L-11.85 -19.2 -11.85 -19.45 -11.85 -20.05 -12.0 -21.6 -12.2 -22.9 -11.4 -22.25 -8.55 -20.25 Q-6.8 -19.7 -4.85 -20.2 L-4.45 -20.4 Q-3.55 -21.0 -3.3 -21.7 L-2.85 -19.1 -3.35 -18.1 -3.85 -17.65 Q-4.3 -17.4 -4.7 -17.25 -5.75 -16.8 -7.1 -16.85 -8.3 -16.95 -9.4 -17.45 L-10.55 -18.3 -10.65 -18.6 -11.85 -19.45 -10.65 -18.6 -10.55 -18.3 -10.65 -18.3 M-1.55 -18.4 L0.15 -19.1 -0.35 -21.0 5.0 -21.0 4.3 -19.9 1.45 -15.5 0.95 -16.85 -1.1 -16.1 -2.05 -18.15 -1.55 -18.4 M0.7 -8.0 L1.85 -8.45 1.3 -10.2 6.3 -10.2 5.65 -9.1 3.05 -5.15 2.6 -6.45 0.55 -5.55 -0.1 -7.65 0.7 -8.0 M-12.0 -21.6 L-11.85 -20.35 -11.85 -20.05 -11.85 -20.35 -12.0 -21.6 M-7.7 -5.1 L-7.55 -4.5 -6.8 -3.05 -6.75 -2.75 -6.8 -3.05 -7.55 -4.5 -7.7 -5.1" fill="#ffcc00" fill-rule="evenodd" stroke="none"/>
    <path d="M13.5 -30.7 L13.5 -30.85 12.35 -32.0 9.25 -30.7 6.0 -33.3 5.8 -34.75 4.65 -35.5 -8.75 -29.9 -10.9 -29.9 Q-12.2 -29.25 -12.55 -28.6 L-13.45 -26.25 -13.45 -25.95 Q-13.2 -24.6 -12.2 -23.2 L-12.2 -22.9 -12.0 -21.6 -11.85 -20.35 -11.85 -20.05 -11.85 -19.45 -10.65 -18.6 -10.55 -18.3 -10.35 -17.3 Q-10.7 -16.5 -10.65 -15.6 L-10.6 -15.2 -10.5 -14.65 -10.4 -14.35 -10.1 -13.65 -9.2 -12.0 -9.1 -11.7 -8.7 -9.9 M13.5 -30.7 L13.5 -30.6 13.15 -22.5 12.7 -13.05 12.45 -7.6 12.4 -7.15 9.25 -6.15 1.75 -3.75 M-7.7 -5.1 L-7.7 -5.35 -7.7 -5.75 M-7.7 -6.05 L-7.7 -6.3 -7.7 -6.35 -8.6 -9.9 M0.05 -2.9 L0.1 -3.0 0.15 -3.35 1.75 -3.55 M0.05 -2.9 Q-0.2 -2.25 -0.75 -1.55 L-1.75 -0.6 Q-3.7 0.05 -5.3 -0.6 L-6.3 -1.45 M-6.75 -2.75 L-6.3 -1.75 -6.1 -1.4 M-6.75 -2.75 L-6.8 -3.05 -7.55 -4.5 -7.7 -5.1" fill="none" stroke="#663300" stroke-linecap="butt" stroke-linejoin="miter-clip" stroke-miterlimit="3.0" stroke-width="1.0"/>
  </g>
</svg>
