<?xml version="1.0" encoding="UTF-8" standalone="no"?>
<svg xmlns:ffdec="https://www.free-decompiler.com/flash" xmlns:xlink="http://www.w3.org/1999/xlink" ffdec:objectType="shape" height="272.05px" width="568.45px" xmlns="http://www.w3.org/2000/svg">
  <g transform="matrix(1.0, 0.0, 0.0, 1.0, -88.0, -157.8)">
    <path d="M655.95 316.8 L655.95 419.4 Q655.95 429.35 644.6 429.35 L527.75 429.35 Q516.45 429.35 516.45 419.4 L516.45 316.8 Q516.45 306.8 527.75 306.8 L644.6 306.8 Q655.95 306.8 655.95 316.8" fill="#fbc936" fill-opacity="0.14901961" fill-rule="evenodd" stroke="none"/>
    <path d="M655.95 316.8 Q655.95 306.8 644.6 306.8 L527.75 306.8 Q516.45 306.8 516.45 316.8 L516.45 419.4 Q516.45 429.35 527.75 429.35 L644.6 429.35 Q655.95 429.35 655.95 419.4 L655.95 316.8 Z" fill="none" stroke="#85700b" stroke-linecap="butt" stroke-linejoin="miter-clip" stroke-miterlimit="3.0" stroke-opacity="0.8" stroke-width="1.0"/>
    <path d="M605.8 321.2 Q605.8 326.8 599.9 330.75 594.05 334.75 585.8 334.75 577.55 334.75 571.65 330.75 565.85 326.8 565.85 321.2 565.85 315.6 571.65 311.6 577.55 307.65 585.8 307.65 594.05 307.65 599.9 311.6 605.8 315.6 605.8 321.2" fill="url(#gradient0)" fill-rule="evenodd" stroke="none"/>
    <path d="M373.75 316.8 Q373.75 306.8 385.1 306.8 L501.9 306.8 Q513.25 306.8 513.25 316.8 L513.25 419.4 Q513.25 429.35 501.9 429.35 L385.1 429.35 Q373.75 429.35 373.75 419.4 L373.75 316.8" fill="#f5d79e" fill-opacity="0.14901961" fill-rule="evenodd" stroke="none"/>
    <path d="M373.75 316.8 L373.75 419.4 Q373.75 429.35 385.1 429.35 L501.9 429.35 Q513.25 429.35 513.25 419.4 L513.25 316.8 Q513.25 306.8 501.9 306.8 L385.1 306.8 Q373.75 306.8 373.75 316.8 Z" fill="none" stroke="#87640c" stroke-linecap="butt" stroke-linejoin="miter-clip" stroke-miterlimit="3.0" stroke-opacity="0.8" stroke-width="1.0"/>
    <path d="M359.2 306.8 Q370.6 306.8 370.6 316.8 L370.6 419.4 Q370.6 429.35 359.2 429.35 L242.4 429.35 Q231.1 429.35 231.1 419.4 L231.1 316.8 Q231.1 306.8 242.4 306.8 L359.2 306.8" fill="#a04545" fill-opacity="0.14901961" fill-rule="evenodd" stroke="none"/>
    <path d="M359.2 306.8 L242.4 306.8 Q231.1 306.8 231.1 316.8 L231.1 419.4 Q231.1 429.35 242.4 429.35 L359.2 429.35 Q370.6 429.35 370.6 419.4 L370.6 316.8 Q370.6 306.8 359.2 306.8 Z" fill="none" stroke="#850c0c" stroke-linecap="butt" stroke-linejoin="miter-clip" stroke-miterlimit="3.0" stroke-opacity="0.8" stroke-width="1.0"/>
    <path d="M314.35 311.6 Q320.25 315.6 320.25 321.2 320.25 326.8 314.35 330.75 308.5 334.75 300.25 334.75 292.0 334.75 286.1 330.75 280.3 326.8 280.3 321.2 280.3 315.6 286.1 311.6 292.0 307.65 300.25 307.65 308.5 307.65 314.35 311.6" fill="url(#gradient1)" fill-rule="evenodd" stroke="none"/>
    <path d="M88.5 316.7 Q88.5 306.8 99.8 306.8 L216.65 306.8 Q228.0 306.8 228.0 316.7 L228.0 419.35 Q228.0 429.35 216.65 429.35 L99.8 429.35 Q88.5 429.35 88.5 419.35 L88.5 316.7" fill="#c01801" fill-opacity="0.14901961" fill-rule="evenodd" stroke="none"/>
    <path d="M88.5 316.7 L88.5 419.35 Q88.5 429.35 99.8 429.35 L216.65 429.35 Q228.0 429.35 228.0 419.35 L228.0 316.7 Q228.0 306.8 216.65 306.8 L99.8 306.8 Q88.5 306.8 88.5 316.7 Z" fill="none" stroke="#af1010" stroke-linecap="butt" stroke-linejoin="miter-clip" stroke-miterlimit="3.0" stroke-opacity="0.8" stroke-width="1.0"/>
    <path d="M138.45 321.2 Q138.45 315.6 144.25 311.6 150.15 307.65 158.4 307.65 166.65 307.65 172.5 311.6 178.4 315.6 178.4 321.2 178.4 326.8 172.5 330.75 166.65 334.75 158.4 334.75 150.15 334.75 144.25 330.75 138.45 326.8 138.45 321.2" fill="url(#gradient2)" fill-rule="evenodd" stroke="none"/>
    <path d="M655.95 168.55 L655.95 270.65 Q655.95 280.85 644.35 280.85 L528.05 280.85 Q516.45 280.85 516.45 270.65 L516.45 168.55 Q516.45 158.3 528.05 158.3 L644.35 158.3 Q655.95 158.3 655.95 168.55" fill="#fe4e0c" fill-opacity="0.14901961" fill-rule="evenodd" stroke="none"/>
    <path d="M655.95 168.55 Q655.95 158.3 644.35 158.3 L528.05 158.3 Q516.45 158.3 516.45 168.55 L516.45 270.65 Q516.45 280.85 528.05 280.85 L644.35 280.85 Q655.95 280.85 655.95 270.65 L655.95 168.55 Z" fill="none" stroke="#9f3e0e" stroke-linecap="butt" stroke-linejoin="miter-clip" stroke-miterlimit="3.0" stroke-opacity="0.8" stroke-width="1.0"/>
    <path d="M604.65 172.7 Q604.65 178.3 598.75 182.25 592.9 186.25 584.65 186.25 576.4 186.25 570.5 182.25 564.7 178.3 564.7 172.7 564.7 167.1 570.5 163.1 576.4 159.15 584.65 159.15 592.9 159.15 598.75 163.1 604.65 167.1 604.65 172.7" fill="url(#gradient3)" fill-rule="evenodd" stroke="none"/>
    <path d="M457.6 330.75 Q451.75 334.75 443.5 334.75 435.25 334.75 429.35 330.75 423.55 326.8 423.55 321.2 423.55 315.6 429.35 311.6 435.25 307.65 443.5 307.65 451.75 307.65 457.6 311.6 463.5 315.6 463.5 321.2 463.5 326.8 457.6 330.75" fill="url(#gradient4)" fill-rule="evenodd" stroke="none"/>
  </g>
  <defs>
    <radialGradient cx="0" cy="0" gradientTransform="matrix(0.0, 0.0164, -0.024, 0.0, 585.8, 321.2)" gradientUnits="userSpaceOnUse" id="gradient0" r="819.2" spreadMethod="pad">
      <stop offset="0.4235294117647059" stop-color="#b68200"/>
      <stop offset="1.0" stop-color="#dbce98"/>
    </radialGradient>
    <radialGradient cx="0" cy="0" gradientTransform="matrix(0.0, 0.0164, -0.024, 0.0, 300.25, 321.2)" gradientUnits="userSpaceOnUse" id="gradient1" r="819.2" spreadMethod="pad">
      <stop offset="0.4235294117647059" stop-color="#a04545"/>
      <stop offset="1.0" stop-color="#cdba9a"/>
    </radialGradient>
    <radialGradient cx="0" cy="0" gradientTransform="matrix(0.0, 0.0164, -0.024, 0.0, 158.4, 321.2)" gradientUnits="userSpaceOnUse" id="gradient2" r="819.2" spreadMethod="pad">
      <stop offset="0.4235294117647059" stop-color="#8f1201"/>
      <stop offset="1.0" stop-color="#d2b390"/>
    </radialGradient>
    <radialGradient cx="0" cy="0" gradientTransform="matrix(0.0, 0.0164, -0.024, 0.0, 584.65, 172.7)" gradientUnits="userSpaceOnUse" id="gradient3" r="819.2" spreadMethod="pad">
      <stop offset="0.4235294117647059" stop-color="#fe4e0c"/>
      <stop offset="1.0" stop-color="#dbbb91"/>
    </radialGradient>
    <radialGradient cx="0" cy="0" gradientTransform="matrix(0.0, 0.0164, -0.024, 0.0, 443.5, 321.2)" gradientUnits="userSpaceOnUse" id="gradient4" r="819.2" spreadMethod="pad">
      <stop offset="0.4235294117647059" stop-color="#cb983e"/>
      <stop offset="1.0" stop-color="#dad0a8"/>
    </radialGradient>
  </defs>
</svg>
