<?xml version="1.0" encoding="UTF-8" standalone="no"?>
<svg xmlns:ffdec="https://www.free-decompiler.com/flash" xmlns:xlink="http://www.w3.org/1999/xlink" ffdec:objectType="shape" height="123.8px" width="426.2px" xmlns="http://www.w3.org/2000/svg">
  <g transform="matrix(1.0, 0.0, 0.0, 1.0, -87.55, -157.55)">
    <path d="M178.25 172.7 Q178.25 167.1 172.35 163.1 166.5 159.15 158.25 159.15 150.0 159.15 144.1 163.1 138.3 167.1 138.3 172.7 138.3 178.3 144.1 182.25 150.0 186.25 158.25 186.25 166.5 186.25 172.35 182.25 178.25 178.3 178.25 172.7 M216.15 158.3 Q227.55 158.3 227.55 168.25 L227.55 270.9 Q227.55 280.85 216.15 280.85 L99.35 280.85 Q88.05 280.85 88.05 270.9 L88.05 168.25 Q88.05 158.3 99.35 158.3 L216.15 158.3" fill="#ffd9b1" fill-opacity="0.14901961" fill-rule="evenodd" stroke="none"/>
    <path d="M216.15 158.3 L99.35 158.3 Q88.05 158.3 88.05 168.25 L88.05 270.9 Q88.05 280.85 99.35 280.85 L216.15 280.85 Q227.55 280.85 227.55 270.9 L227.55 168.25 Q227.55 158.3 216.15 158.3 Z" fill="none" stroke="#b16911" stroke-linecap="butt" stroke-linejoin="miter-clip" stroke-miterlimit="3.0" stroke-opacity="0.8" stroke-width="1.0"/>
    <path d="M178.25 172.7 Q178.25 178.3 172.35 182.25 166.5 186.25 158.25 186.25 150.0 186.25 144.1 182.25 138.3 178.3 138.3 172.7 138.3 167.1 144.1 163.1 150.0 159.15 158.25 159.15 166.5 159.15 172.35 163.1 178.25 167.1 178.25 172.7" fill="url(#gradient0)" fill-rule="evenodd" stroke="none"/>
    <path d="M501.6 158.05 Q513.25 158.05 513.25 168.3 L513.25 270.4 Q513.25 280.6 501.6 280.6 L385.3 280.6 Q373.75 280.6 373.75 270.4 L373.75 168.3 Q373.75 158.05 385.3 158.05 L501.6 158.05" fill="#95b2bd" fill-opacity="0.14901961" fill-rule="evenodd" stroke="none"/>
    <path d="M501.6 158.05 L385.3 158.05 Q373.75 158.05 373.75 168.3 L373.75 270.4 Q373.75 280.6 385.3 280.6 L501.6 280.6 Q513.25 280.6 513.25 270.4 L513.25 168.3 Q513.25 158.05 501.6 158.05 Z" fill="none" stroke="#0f8fa3" stroke-linecap="butt" stroke-linejoin="miter-clip" stroke-miterlimit="3.0" stroke-opacity="0.8" stroke-width="1.0"/>
  </g>
  <defs>
    <radialGradient cx="0" cy="0" gradientTransform="matrix(0.0, 0.0164, -0.024, 0.0, 158.25, 172.7)" gradientUnits="userSpaceOnUse" id="gradient0" r="819.2" spreadMethod="pad">
      <stop offset="0.4235294117647059" stop-color="#ee680c"/>
      <stop offset="1.0" stop-color="#dbd1aa"/>
    </radialGradient>
  </defs>
</svg>
