<?xml version="1.0" encoding="UTF-8" standalone="no"?>
<svg xmlns:ffdec="https://www.free-decompiler.com/flash" xmlns:xlink="http://www.w3.org/1999/xlink" ffdec:objectType="shape" height="123.55px" width="140.5px" xmlns="http://www.w3.org/2000/svg">
  <g transform="matrix(1.0, 0.0, 0.0, 1.0, -230.6, -157.5)">
    <path d="M359.0 158.0 Q370.6 158.0 370.6 168.25 L370.6 270.35 Q370.6 280.55 359.0 280.55 L242.7 280.55 Q231.1 280.55 231.1 270.35 L231.1 168.25 Q231.1 158.0 242.7 158.0 L359.0 158.0" fill="#e2e1b6" fill-opacity="0.14901961" fill-rule="evenodd" stroke="none"/>
    <path d="M359.0 158.0 L242.7 158.0 Q231.1 158.0 231.1 168.25 L231.1 270.35 Q231.1 280.55 242.7 280.55 L359.0 280.55 Q370.6 280.55 370.6 270.35 L370.6 168.25 Q370.6 158.0 359.0 158.0 Z" fill="none" stroke="#aa8f10" stroke-linecap="butt" stroke-linejoin="miter-clip" stroke-miterlimit="3.0" stroke-opacity="0.8" stroke-width="1.0"/>
    <path d="M314.35 163.05 Q320.25 167.05 320.25 172.65 320.25 178.25 314.35 182.2 308.5 186.2 300.25 186.2 292.0 186.2 286.1 182.2 280.3 178.25 280.3 172.65 280.3 167.05 286.1 163.05 292.0 159.1 300.25 159.1 308.5 159.1 314.35 163.05" fill="url(#gradient0)" fill-rule="evenodd" stroke="none"/>
  </g>
  <defs>
    <radialGradient cx="0" cy="0" gradientTransform="matrix(0.0, 0.0164, -0.024, 0.0, 300.25, 172.65)" gradientUnits="userSpaceOnUse" id="gradient0" r="819.2" spreadMethod="pad">
      <stop offset="0.4235294117647059" stop-color="#565503"/>
      <stop offset="1.0" stop-color="#d7d2ab"/>
    </radialGradient>
  </defs>
</svg>
