<?xml version="1.0" encoding="UTF-8" standalone="no"?>
<svg xmlns:ffdec="https://www.free-decompiler.com/flash" xmlns:xlink="http://www.w3.org/1999/xlink" ffdec:objectType="shape" height="263.55px" width="254.15px" xmlns="http://www.w3.org/2000/svg">
  <g transform="matrix(1.0, 0.0, 0.0, 1.0, 124.75, 134.3)">
    <path d="M-4.1 -94.0 L2.25 -94.05 12.6 -99.65 19.65 -100.9 25.65 -99.2 19.95 -99.2 12.9 -96.25 7.65 -90.9 1.15 -89.4 -4.1 -94.0" fill="url(#gradient0)" fill-rule="evenodd" stroke="none"/>
    <path d="M31.1 -85.95 L31.45 -85.75 31.05 -85.8 31.1 -85.95 M-108.05 47.8 L-112.9 49.65 -105.05 43.65 -108.05 47.8" fill="#b9af79" fill-rule="evenodd" stroke="none"/>
    <path d="M31.1 -85.95 L31.05 -85.8 22.9 -87.1 17.95 -84.55 12.75 -77.2 8.1 -76.4 1.2 -79.55 -1.0 -84.05 -0.75 -84.2 -1.2 -84.55 -3.5 -86.25 -5.75 -87.9 -6.65 -87.3 -8.2 -87.55 Q-6.55 -89.0 -8.2 -91.5 L-7.75 -92.1 0.1 -86.2 7.1 -84.1 11.15 -85.1 19.25 -88.65 23.75 -88.65 31.1 -85.95 M10.1 -83.65 L5.5 -81.65 -0.75 -84.2 5.5 -81.65 10.1 -83.65" fill="url(#gradient1)" fill-rule="evenodd" stroke="none"/>
    <path d="M11.45 -87.75 L18.1 -90.9 23.2 -90.9 31.1 -85.95 23.75 -88.65 19.25 -88.65 11.15 -85.1 7.1 -84.1 0.1 -86.2 -7.75 -92.1 -6.75 -93.35 -7.55 -94.6 -5.75 -95.45 -4.1 -94.0 1.15 -89.4 3.4 -87.45 9.2 -86.7 11.45 -87.75" fill="url(#gradient2)" fill-rule="evenodd" stroke="none"/>
    <path d="M19.95 -99.2 L15.05 -94.25 12.75 -89.65 11.45 -87.75 9.2 -86.7 3.4 -87.45 1.15 -89.4 7.65 -90.9 12.9 -96.25 19.95 -99.2" fill="url(#gradient3)" fill-rule="evenodd" stroke="none"/>
    <path d="M1.65 -78.6 L4.95 -74.35 1.8 -75.9 1.35 -73.25 1.0 -70.9 Q0.25 -66.25 -0.2 -61.65 L-0.3 -60.75 -0.85 -53.6 -1.05 -48.8 -1.05 -38.5 Q-0.55 -12.1 4.9 15.85 3.45 17.9 1.4 18.9 L-0.35 12.8 Q-3.55 -7.9 -4.2 -32.85 L-3.3 -42.15 -3.3 -42.2 Q-0.3 -75.1 -1.6 -76.8 L1.65 -78.6" fill="url(#gradient4)" fill-rule="evenodd" stroke="none"/>
    <path d="M1.2 -79.55 L1.65 -78.6 -1.6 -76.8 Q-2.3 -76.4 -3.05 -76.05 -5.45 -77.15 -5.35 -81.65 L-3.9 -83.35 Q-3.6 -84.8 -4.1 -85.75 L-3.5 -86.25 -1.2 -84.55 -1.0 -84.05 1.2 -79.55 M6.8 23.35 Q8.1 28.85 9.9 34.6 L8.2 37.15 5.45 37.15 5.1 35.25 5.95 34.8 4.65 30.15 Q5.25 25.6 6.8 23.35 M24.2 78.05 L22.25 80.05 21.2 79.0 16.9 74.8 14.95 70.2 24.2 78.05 M-0.35 84.45 L-6.2 86.05 -12.9 86.05 Q-16.1 85.65 -18.15 84.55 L-18.85 78.45 -16.65 77.9 -15.75 74.55 -9.1 75.35 -5.75 79.1 -12.2 77.65 -14.25 77.6 -11.9 81.1 -4.35 83.05 Q4.3 82.55 7.25 77.85 L8.5 82.0 1.3 84.0 -0.35 84.45 M-33.35 86.1 L-35.6 87.35 -42.9 88.05 -42.15 86.0 -36.1 84.45 -23.2 77.75 -23.6 78.6 -24.85 81.3 -33.35 86.1 M-41.55 82.85 Q-41.45 81.6 -41.6 80.5 L-42.1 82.55 -45.0 83.25 -43.55 78.9 -33.55 74.9 -29.65 69.8 -29.3 69.1 -24.55 62.05 -25.1 65.6 -24.45 67.1 Q-28.7 69.45 -31.35 75.3 -33.25 78.1 -38.3 82.15 L-41.55 82.85 M-43.15 85.45 L-44.2 87.35 -46.45 87.35 -45.6 85.0 -43.15 85.45 M-16.3 -83.8 L-8.3 -82.4 -7.25 -83.2 Q-6.85 -81.95 -6.75 -79.95 L-7.2 -79.5 -8.85 -80.0 -16.65 -82.25 -8.85 -80.0 Q-9.3 -78.55 -7.2 -75.05 L-13.85 -80.1 -16.65 -82.25 -16.3 -83.8 M-10.1 -49.25 L-5.5 -44.4 -6.05 -37.95 -8.6 -40.9 -10.1 -43.4 -10.9 -44.95 -10.1 -49.25 M-14.3 49.95 L-11.15 49.2 -10.45 46.2 -11.15 42.65 -10.95 41.65 -9.45 40.05 -8.6 40.05 -7.75 40.05 -6.3 38.1 -6.05 37.95 -6.25 37.0 -5.2 37.0 -4.15 37.0 -3.75 35.25 -2.9 36.5 -2.9 40.35 -0.65 41.4 -0.05 41.65 0.35 44.65 -3.9 45.8 -5.1 52.35 -7.9 49.55 -9.3 55.1 Q-11.7 58.7 -14.85 57.1 L-17.85 51.75 -16.9 42.9 -16.45 44.35 -16.45 48.35 -14.3 49.95 M-27.85 40.85 L-26.9 42.05 -24.05 39.3 -23.75 40.2 -21.05 39.05 -21.7 43.5 -22.75 43.0 -29.5 48.95 -30.3 46.35 -36.85 53.75 -34.95 43.75 -33.05 43.15 -32.05 43.9 -30.4 41.15 -29.75 42.2 -27.85 40.85 M-6.25 38.2 L-6.05 37.95 -6.25 38.2 M-16.25 66.7 Q-16.75 66.5 -17.2 66.4 L-18.5 63.2 -5.55 69.75 Q-10.3 70.1 -14.45 67.75 L-16.25 66.7 M-16.65 77.9 L-14.25 77.6 -16.65 77.9" fill="#141414" fill-rule="evenodd" stroke="none"/>
    <path d="M1.35 -73.25 L4.9 -68.55 2.9 -69.5 Q4.5 -67.5 4.65 -63.05 L4.6 -62.25 4.9 -62.25 9.75 -53.1 13.05 -48.4 14.85 -43.15 19.4 -37.6 21.55 -36.4 22.8 -31.95 25.7 -28.55 27.05 -23.9 32.6 -17.6 38.6 -0.2 37.4 0.3 31.25 -17.5 26.8 -23.3 24.95 -27.8 23.55 -29.3 23.4 -29.9 22.8 -31.95 23.4 -29.9 23.55 -29.3 23.55 -25.0 20.35 -35.15 15.85 -38.25 16.15 -36.85 16.0 -36.8 14.05 -40.65 16.0 -36.8 16.15 -36.5 16.35 -36.05 16.35 -36.0 18.1 -31.15 18.1 -27.9 14.5 -37.95 9.1 -45.65 4.15 -55.95 -0.3 -60.75 -0.2 -61.65 Q1.35 -60.7 2.8 -59.25 L3.7 -64.7 1.0 -70.9 1.35 -73.25 M43.4 8.4 L46.15 12.35 51.2 14.85 52.75 17.95 53.4 18.55 52.4 19.65 50.35 16.0 44.8 12.95 42.4 8.65 43.4 8.4 M57.35 25.75 Q57.7 27.65 58.95 29.5 L58.95 35.8 57.45 36.65 Q58.55 31.7 56.8 28.05 L55.7 25.9 52.9 28.1 52.8 27.5 54.8 25.15 56.0 25.15 57.25 25.15 57.35 25.75 M51.8 28.8 L52.15 29.35 52.8 32.55 51.1 35.5 48.3 36.55 47.1 34.4 46.45 37.95 43.55 39.95 42.25 38.8 44.75 37.55 45.55 34.65 43.7 30.25 45.25 29.75 45.25 26.8 43.1 26.8 38.15 30.3 39.1 28.4 42.15 24.85 45.85 25.5 46.15 26.75 46.8 29.3 45.25 29.75 47.1 34.4 49.55 34.95 51.4 32.95 51.4 30.0 48.8 25.1 49.55 25.15 51.45 28.25 51.8 28.8 M-41.15 64.85 Q-44.2 61.75 -47.9 59.65 L-47.0 62.75 Q-49.1 61.1 -51.6 60.4 -57.35 62.55 -62.3 69.9 L-60.6 64.35 -66.3 72.45 -65.3 66.6 -67.6 69.75 Q-69.15 73.35 -68.75 77.45 L-66.8 81.95 -66.2 83.3 -65.65 84.65 -66.35 84.8 -69.85 79.85 -71.2 72.05 -68.1 65.15 -68.1 68.2 -63.05 60.05 -64.25 64.35 -61.8 61.9 -64.75 68.2 -58.9 59.75 -59.95 63.45 -56.25 59.45 -57.05 61.3 -50.6 55.6 -51.65 58.2 -49.8 56.2 -49.8 59.75 -48.1 55.9 -46.6 59.15 -41.85 62.8 -41.15 64.85 M4.55 -60.85 L4.6 -62.25 4.55 -60.85 4.35 -57.6 6.85 -54.05 Q8.2 -49.2 12.85 -42.75 L13.0 -42.3 14.05 -40.65 12.5 -47.35 8.95 -52.4 4.55 -60.85 M14.85 -43.15 L15.6 -39.6 15.85 -38.25 15.6 -39.6 14.85 -43.15 M4.35 -57.6 L2.8 -59.25 4.35 -57.6 M23.75 -29.4 L23.4 -29.9 23.75 -29.4 M15.6 -39.6 L19.4 -37.6 15.6 -39.6 M-20.75 -115.45 Q-21.7 -112.6 -24.85 -110.3 -28.45 -108.0 -31.7 -109.45 L-33.15 -108.0 -34.9 -108.25 -31.85 -111.05 Q-30.7 -109.35 -27.85 -110.1 -24.15 -110.8 -22.4 -114.45 -21.6 -114.8 -20.75 -115.45 M-34.95 -100.65 L-35.3 -98.75 Q-32.1 -91.5 -26.3 -89.85 L-27.15 -88.95 -32.6 -92.4 -35.7 -96.9 -36.85 -93.6 -36.85 -87.45 -39.3 -84.35 -41.3 -83.05 -41.75 -84.35 Q-39.45 -84.55 -37.7 -88.4 L-38.6 -93.5 -37.55 -95.35 -35.65 -101.8 -34.7 -102.05 -34.95 -100.65 M-35.3 -98.75 L-35.7 -96.9 -35.3 -98.75 M-23.9 -78.0 L-20.3 -74.6 -19.15 -71.7 Q-18.0 -68.35 -17.5 -64.95 L-17.45 -64.35 -18.45 -60.7 -19.45 -58.1 -18.45 -60.7 Q-17.7 -52.2 -18.45 -45.8 L-18.75 -44.9 -17.75 -37.95 -15.3 -28.85 -16.6 -23.4 -15.9 -20.35 -14.7 -17.6 -12.6 -12.8 -11.45 -7.95 -13.05 3.45 -11.45 12.55 Q-8.3 14.45 -5.15 18.3 L-4.45 19.2 -3.25 22.3 -0.6 29.2 -0.2 31.6 Q0.5 34.9 2.4 38.95 L-0.05 41.65 -0.65 41.4 0.75 38.8 -1.85 31.9 -1.85 28.2 -6.45 18.65 -11.25 13.7 -11.45 12.55 -11.25 13.7 -10.6 17.35 -13.3 8.8 Q-13.8 15.7 -14.3 5.55 L-12.45 -6.6 -13.05 -10.75 -16.9 -20.3 -16.9 -16.75 -16.9 -15.25 -17.65 -21.85 -16.45 -28.45 -18.9 -36.6 -19.55 -42.9 -21.3 -38.75 Q-22.0 -34.7 -23.0 -33.05 L-23.5 -31.65 -24.35 -29.25 -23.65 -33.55 Q-21.7 -36.55 -21.65 -44.0 L-21.65 -56.15 Q-19.7 -58.65 -18.3 -64.3 L-20.45 -72.6 -23.0 -75.75 -23.9 -78.0 M-20.75 -42.65 L-20.85 -42.2 -21.3 -38.75 -20.85 -42.2 -20.75 -42.65 -19.2 -46.9 Q-18.5 -53.45 -19.45 -58.1 L-20.75 -55.35 -20.75 -42.65 M-50.5 -75.7 L-51.0 -77.05 -52.85 -76.2 -53.45 -75.05 Q-55.1 -70.95 -59.3 -66.9 L-64.15 -65.75 -67.7 -64.1 -69.15 -63.45 -71.15 -64.0 -73.1 -64.55 -73.7 -64.75 -76.7 -64.75 -72.6 -65.95 -68.75 -64.9 -63.5 -67.8 -60.6 -67.8 -55.95 -72.9 -53.8 -77.05 -50.6 -78.35 -49.75 -77.7 -50.5 -75.7 M-18.75 -44.9 L-19.55 -42.9 -18.75 -44.9 M-16.6 -23.4 L-16.9 -21.35 -16.9 -20.3 -16.9 -21.35 -16.6 -23.4 M-13.05 3.45 L-13.3 5.05 -13.3 8.8 -13.3 5.05 -13.05 3.45" fill="#665960" fill-rule="evenodd" stroke="none"/>
    <path d="M1.0 -70.9 L3.7 -64.7 2.8 -59.25 Q1.35 -60.7 -0.2 -61.65 0.25 -66.25 1.0 -70.9" fill="url(#gradient5)" fill-rule="evenodd" stroke="none"/>
    <path d="M4.55 -60.85 L8.95 -52.4 12.5 -47.35 14.05 -40.65 13.0 -42.3 12.85 -42.75 Q8.2 -49.2 6.85 -54.05 L4.35 -57.6 4.55 -60.85" fill="url(#gradient6)" fill-rule="evenodd" stroke="none"/>
    <path d="M16.15 -36.85 L15.85 -38.25 20.35 -35.15 23.55 -25.0 23.55 -29.3 24.95 -27.8 26.8 -23.3 31.25 -17.5 37.4 0.3 31.75 2.55 25.0 -14.15 22.3 -17.75 19.6 -22.85 16.4 -25.3 14.8 -28.05 16.6 -27.75 17.7 -27.75 19.4 -26.55 18.1 -27.9 18.1 -31.15 16.35 -36.0 16.35 -36.05 16.25 -36.5 16.15 -36.85" fill="url(#gradient7)" fill-rule="evenodd" stroke="none"/>
    <path d="M57.45 36.65 L56.0 37.5 55.1 36.85 53.55 33.65 52.95 28.7 52.9 28.1 55.7 25.9 56.8 28.05 Q58.55 31.7 57.45 36.65 M42.25 38.8 L40.95 37.65 40.95 38.25 42.15 42.9 40.15 45.35 38.9 45.35 36.3 39.1 36.3 35.7 37.6 36.15 40.05 34.85 40.05 33.7 40.95 34.55 40.95 37.65 40.95 34.55 40.05 33.7 39.9 33.55 37.3 32.75 37.05 32.15 35.75 30.4 34.35 29.35 32.9 26.6 34.4 26.6 35.5 24.2 33.4 22.9 35.95 21.55 37.65 17.8 39.05 18.6 40.15 18.6 38.9 16.8 39.7 15.4 38.35 14.85 36.35 10.6 42.4 8.65 44.8 12.95 50.35 16.0 52.4 19.65 51.35 20.8 50.8 19.65 47.65 22.35 47.25 21.35 46.65 22.35 42.9 24.0 42.15 24.85 39.1 28.4 38.15 30.3 43.1 26.8 45.25 26.8 45.25 29.75 43.7 30.25 40.8 33.8 39.9 33.55 40.8 33.8 43.7 30.25 45.55 34.65 44.75 37.55 42.25 38.8 M22.3 -17.75 L25.0 -14.15 31.75 2.55 30.95 2.85 Q28.3 -1.2 24.15 -4.6 L23.85 -4.9 Q19.9 -12.6 17.4 -22.7 19.55 -21.15 22.3 -17.75 M-36.6 -133.2 L-42.85 -124.6 -46.4 -122.05 -44.35 -126.0 -36.6 -133.2 M-34.7 -131.25 L-37.45 -124.3 -33.4 -123.3 -34.2 -122.7 -34.85 -121.9 -36.85 -119.65 Q-36.15 -121.45 -38.6 -122.35 L-41.4 -121.4 -40.65 -124.05 -34.7 -131.25 M-71.6 -89.8 L-71.0 -90.45 -70.85 -90.15 -71.6 -89.8 M-20.75 -42.65 L-20.75 -55.35 -19.45 -58.1 Q-18.5 -53.45 -19.2 -46.9 L-20.75 -42.65 M-28.1 -34.6 L-28.1 -38.35 Q-26.75 -33.3 -25.35 -31.8 -25.15 -27.85 -25.65 -25.45 L-26.3 -23.7 -26.5 -30.65 -28.1 -34.6 M-28.8 -41.1 L-31.2 -39.7 -30.1 -41.95 -30.75 -44.55 -33.8 -39.3 -34.6 -39.5 Q-33.15 -42.6 -32.35 -45.9 -31.05 -47.2 -29.75 -49.25 L-29.45 -49.2 -29.75 -47.45 -29.75 -49.25 -29.75 -47.45 -29.75 -45.65 -28.8 -41.1 M43.6 21.5 L43.6 23.15 42.9 24.0 43.6 23.15 43.6 21.5 M48.8 25.1 L51.4 30.0 51.4 32.95 49.55 34.95 47.1 34.4 45.25 29.75 46.8 29.3 46.15 26.75 Q47.1 25.1 48.8 25.1" fill="#3d2e30" fill-rule="evenodd" stroke="none"/>
    <path d="M16.0 -36.8 L16.15 -36.85 16.25 -36.5 16.15 -36.5 16.0 -36.8" fill="#672e36" fill-rule="evenodd" stroke="none"/>
    <path d="M38.9 45.35 L37.7 45.35 37.1 43.05 34.95 39.35 34.95 35.65 34.95 34.7 37.05 32.15 37.3 32.75 39.9 33.55 40.05 33.7 40.05 34.85 37.6 36.15 36.3 35.7 36.3 39.1 38.9 45.35 M32.3 28.25 L30.15 25.15 30.75 21.95 35.1 20.25 37.35 16.4 37.35 15.35 35.25 11.0 36.35 10.6 38.35 14.85 39.7 15.4 38.9 16.8 40.15 18.6 39.05 18.6 37.65 17.8 35.95 21.55 33.4 22.9 35.5 24.2 34.4 26.6 32.9 26.6 34.35 29.35 32.3 28.25 M18.1 -27.9 L19.4 -26.55 17.7 -27.75 16.6 -27.75 14.8 -28.05 16.4 -25.3 19.6 -22.85 22.3 -17.75 Q19.55 -21.15 17.4 -22.7 L15.85 -23.6 17.4 -22.7 Q19.9 -12.6 23.85 -4.9 L24.15 -4.6 Q28.3 -1.2 30.95 2.85 L29.85 3.25 Q27.85 -0.1 22.75 -3.45 L18.3 -14.85 15.85 -23.6 12.95 -28.9 Q13.85 -28.35 14.8 -28.05 13.85 -28.35 12.95 -28.9 11.15 -30.05 9.35 -32.2 4.45 -38.4 0.25 -46.3 -0.4 -48.5 -0.65 -50.9 L1.45 -45.55 11.1 -32.2 15.95 -29.25 14.95 -31.2 18.1 -27.9 M-62.75 -112.05 L-62.8 -116.3 Q-62.45 -120.1 -60.15 -120.9 L-58.6 -119.2 -58.45 -117.2 -62.15 -113.05 -62.75 -112.05 M-23.65 -33.55 L-24.35 -29.25 -24.85 -33.55 -23.65 -33.55 M-31.2 -39.7 Q-32.6 -39.15 -33.8 -39.3 L-30.75 -44.55 -30.1 -41.95 -31.2 -39.7 M-20.3 -28.65 L-19.15 -32.7 -19.15 -27.55 -18.05 -23.65 -19.05 -24.8 -20.3 -28.65 M-38.25 23.15 L-38.9 23.4 -41.15 26.9 -49.75 45.35 -44.7 29.8 Q-43.25 25.9 -40.7 24.0 -39.7 23.3 -38.55 22.85 L-38.25 23.15 M-5.2 37.0 L-6.0 29.8 -3.55 34.35 -3.75 35.25 -4.15 37.0 -5.2 37.0 M-6.3 38.1 L-7.75 40.05 -8.6 40.05 Q-10.1 34.95 -9.75 32.25 L-6.3 38.1 M-49.95 35.5 L-46.65 25.35 -44.0 23.15 -49.95 35.5 M37.65 17.8 L37.35 17.5 37.35 16.4 37.35 17.5 37.65 17.8" fill="#684f53" fill-rule="evenodd" stroke="none"/>
    <path d="M18.1 -27.9 L14.95 -31.2 15.95 -29.25 11.1 -32.2 1.45 -45.55 -0.65 -50.9 -0.85 -53.6 -0.3 -60.75 4.15 -55.95 9.1 -45.65 14.5 -37.95 18.1 -27.9" fill="url(#gradient8)" fill-rule="evenodd" stroke="none"/>
    <path d="M38.6 -0.2 Q57.1 -8.2 63.1 -17.95 60.45 -8.0 51.1 -0.6 L26.6 9.6 23.85 7.6 26.0 9.85 23.35 10.95 22.35 9.15 23.0 11.1 10.5 16.25 7.35 18.35 7.35 9.95 Q19.95 6.8 29.85 3.25 L30.95 2.85 31.75 2.55 37.4 0.3 38.6 -0.2" fill="url(#gradient9)" fill-rule="evenodd" stroke="none"/>
    <path d="M63.1 -17.95 Q63.65 -5.15 55.95 5.25 L51.1 -0.6 Q60.45 -8.0 63.1 -17.95" fill="url(#gradient10)" fill-rule="evenodd" stroke="none"/>
    <path d="M57.45 17.9 Q61.55 16.7 62.9 10.45 L61.9 19.55 64.65 16.55 66.4 21.05 Q61.65 19.6 61.75 28.35 L57.45 17.9 M83.8 3.0 Q84.5 4.4 85.95 2.0 L84.45 6.1 83.8 3.0 M114.75 -12.1 Q113.1 -10.85 114.1 -10.0 L109.95 -8.95 107.7 -8.4 110.75 -10.0 114.75 -12.1 M112.35 -5.75 Q110.8 -5.15 111.55 -4.15 L106.5 -5.1 103.25 -5.75 107.1 -5.75 112.35 -5.75 M105.85 4.45 Q104.6 4.2 105.05 5.45 L102.35 1.9 105.85 4.45 M30.8 12.65 Q29.05 12.1 29.2 13.25 L26.0 9.85 23.85 7.6 26.6 9.6 30.8 12.65 M25.5 14.8 Q24.55 13.85 24.4 15.25 L23.0 11.1 22.35 9.15 23.35 10.95 25.5 14.8 M11.95 21.2 Q8.65 20.55 6.8 23.35 5.25 25.6 4.65 30.15 L1.4 18.9 Q3.45 17.9 4.9 15.85 6.5 13.55 7.35 9.95 L7.35 18.35 10.5 16.25 11.95 21.2" fill="#919191" fill-rule="evenodd" stroke="none"/>
    <path d="M62.9 10.45 Q74.65 7.05 83.8 3.0 L84.45 6.1 85.95 2.0 88.2 0.9 Q109.1 -9.15 116.4 -21.45 114.65 -15.25 110.75 -10.0 L107.7 -8.4 109.95 -8.95 107.1 -5.75 103.25 -5.75 106.5 -5.1 Q103.9 -2.6 100.7 -0.3 L88.2 6.1 Q76.55 12.0 64.65 16.55 L61.9 19.55 62.9 10.45" fill="url(#gradient11)" fill-rule="evenodd" stroke="none"/>
    <path d="M114.1 -10.0 L112.35 -5.75 107.1 -5.75 109.95 -8.95 114.1 -10.0" fill="url(#gradient12)" fill-rule="evenodd" stroke="none"/>
    <path d="M116.4 -21.45 Q116.05 -16.65 114.75 -12.1 L110.75 -10.0 Q114.65 -15.25 116.4 -21.45" fill="url(#gradient13)" fill-rule="evenodd" stroke="none"/>
    <path d="M111.55 -4.15 Q109.25 0.3 105.85 4.45 L102.35 1.9 100.7 -0.3 Q103.9 -2.6 106.5 -5.1 L111.55 -4.15" fill="url(#gradient14)" fill-rule="evenodd" stroke="none"/>
    <path d="M-49.2 -113.4 L-58.6 -110.25 Q-59.2 -109.4 -59.75 -109.85 L-65.3 -108.0 -62.75 -112.05 -62.15 -113.05 -58.45 -117.2 -54.15 -125.6 -55.45 -120.75 -52.3 -124.45 -53.3 -121.75 -43.0 -129.75 -36.6 -133.2 -44.35 -126.0 -46.4 -122.05 -42.85 -124.6 -34.15 -132.75 -34.7 -131.25 -40.65 -124.05 -41.4 -121.4 -38.6 -122.35 Q-36.15 -121.45 -36.85 -119.65 L-34.85 -121.9 -34.2 -122.7 -33.4 -123.3 -31.85 -124.6 Q-27.35 -127.15 -24.45 -125.75 L-25.3 -123.6 Q-24.2 -122.05 -22.15 -125.05 L-20.45 -119.45 Q-20.15 -117.35 -20.75 -115.45 -21.6 -114.8 -22.4 -114.45 L-25.85 -114.25 -24.6 -115.6 -25.7 -119.6 Q-26.6 -122.1 -29.85 -120.75 -30.95 -120.7 -31.85 -119.85 L-31.9 -119.75 -31.95 -119.65 -35.65 -116.6 -35.65 -114.15 Q-36.6 -112.3 -39.1 -112.75 L-41.9 -114.0 Q-41.75 -110.65 -43.95 -109.6 L-46.85 -110.05 -46.85 -112.75 -49.2 -113.4" fill="url(#gradient15)" fill-rule="evenodd" stroke="none"/>
    <path d="M-69.05 -91.6 L-66.55 -97.7 Q-66.45 -96.8 -65.25 -98.0 L-67.35 -92.6 -69.05 -91.6 M-65.6 -100.8 L-62.65 -106.4 -64.4 -101.1 Q-64.9 -101.4 -65.6 -100.8 M-64.0 -94.6 L-62.0 -97.45 -61.35 -96.35 -62.15 -95.35 -64.0 -94.6 M-58.6 -110.25 L-61.0 -103.95 -59.75 -109.85 Q-59.2 -109.4 -58.6 -110.25" fill="#996666" fill-rule="evenodd" stroke="none"/>
    <path d="M-66.55 -97.7 L-68.45 -97.35 -68.45 -100.2 -65.6 -100.8 Q-64.9 -101.4 -64.4 -101.1 L-50.75 -104.05 -50.75 -100.9 -65.25 -98.0 Q-66.45 -96.8 -66.55 -97.7 M-10.35 -25.95 L-9.6 -30.2 Q-7.8 -31.0 -9.2 -19.35 L-10.35 -25.95 M-2.05 65.6 L-0.05 55.9 Q1.65 50.7 0.95 74.6 -1.15 75.1 -2.05 65.6" fill="#000000" fill-rule="evenodd" stroke="none"/>
    <path d="M-71.0 -90.45 L-70.3 -98.35 -71.7 -105.9 -65.3 -108.0 -59.75 -109.85 -61.0 -103.95 -58.6 -110.25 -49.2 -113.4 Q-48.8 -103.05 -46.0 -93.05 L-60.7 -95.2 -61.35 -96.35 -62.0 -97.45 -64.0 -94.6 -67.35 -92.6 -65.25 -98.0 -50.75 -100.9 -50.75 -104.05 -64.4 -101.1 -62.65 -106.4 -65.6 -100.8 -68.45 -100.2 -68.45 -97.35 -66.55 -97.7 -69.05 -91.6 -71.0 -90.45" fill="url(#gradient16)" fill-rule="evenodd" stroke="none"/>
    <path d="M-46.0 -93.05 Q-48.8 -103.05 -49.2 -113.4 L-46.85 -112.75 -46.85 -110.05 -43.95 -109.6 -34.9 -108.25 -33.15 -108.0 -32.45 -107.9 Q-33.5 -104.95 -32.6 -101.6 L-34.95 -100.65 -34.7 -102.05 -35.65 -101.8 -44.6 -99.6 -43.45 -94.2 -46.0 -93.05" fill="url(#gradient17)" fill-rule="evenodd" stroke="none"/>
    <path d="M-43.95 -109.6 Q-41.75 -110.65 -41.9 -114.0 L-39.1 -112.75 Q-36.6 -112.3 -35.65 -114.15 L-35.65 -116.6 -31.95 -119.65 Q-33.2 -118.55 -34.0 -116.05 L-32.7 -113.45 Q-31.55 -111.15 -27.7 -112.2 L-25.85 -114.25 -22.4 -114.45 Q-24.15 -110.8 -27.85 -110.1 -30.7 -109.35 -31.85 -111.05 L-34.9 -108.25 -43.95 -109.6" fill="url(#gradient18)" fill-rule="evenodd" stroke="none"/>
    <path d="M-18.3 88.2 L-14.75 95.6 Q-7.8 108.05 2.95 113.65 5.85 115.15 9.05 116.15 L31.55 118.05 Q47.25 118.7 61.7 117.4 75.25 116.2 87.75 113.25 L91.05 112.45 Q101.85 109.15 109.85 102.7 113.65 99.6 116.8 95.85 124.55 86.3 127.85 76.05 129.25 73.8 128.8 77.0 L128.4 79.0 Q118.55 99.35 112.55 104.05 111.55 102.7 109.85 102.7 L111.85 105.9 Q102.05 115.35 90.4 118.5 90.05 117.05 89.35 115.65 L88.0 119.7 Q75.85 124.3 63.75 123.3 63.65 121.35 62.8 119.4 L61.7 117.4 62.8 119.4 61.7 123.5 Q46.2 125.75 32.4 122.7 L31.0 120.25 30.45 123.5 Q12.4 124.3 -0.3 118.9 L-0.3 113.55 Q-2.3 114.0 -3.45 116.05 L-4.2 117.65 -16.65 107.25 -22.05 99.1 -19.1 95.6 -14.75 95.6 Q-17.5 92.95 -20.8 94.5 -22.4 95.3 -23.25 97.1 L-26.65 89.6 Q-26.25 83.85 -23.7 84.45 -21.55 84.35 -18.3 88.2 M-31.95 -119.65 L-31.9 -119.75 -31.85 -119.85 Q-30.95 -120.7 -29.85 -120.75 -26.6 -122.1 -25.7 -119.6 L-24.6 -115.6 -25.85 -114.25 -27.7 -112.2 Q-31.55 -111.15 -32.7 -113.45 L-34.0 -116.05 Q-33.2 -118.55 -31.95 -119.65 M-78.65 -83.25 L-75.5 -85.95 -73.6 -87.6 -71.6 -89.8 -70.85 -90.15 -61.85 -94.4 -60.2 -93.3 -60.2 -89.5 -65.05 -84.45 -66.45 -83.0 -66.45 -84.35 -68.05 -82.8 -68.75 -85.35 -72.2 -85.35 -75.3 -83.05 -75.3 -84.65 -78.65 -83.25 M-65.1 -84.5 L-66.9 -86.2 -66.9 -88.35 -68.9 -87.05 -71.6 -87.05 -73.75 -86.2 -75.5 -85.95 -73.75 -86.2 -71.6 -87.05 -68.9 -87.05 -66.9 -88.35 -66.9 -86.2 -65.1 -84.5 M2.95 113.65 L-0.3 113.55 2.95 113.65 M31.55 118.05 L31.2 119.05 31.0 120.25 31.2 119.05 31.55 118.05 M87.75 113.25 L89.35 115.65 87.75 113.25" fill="#dcbebf" fill-rule="evenodd" stroke="none"/>
    <path d="M-71.0 -90.45 L-69.05 -91.6 -67.35 -92.6 -64.0 -94.6 -62.15 -95.35 -61.35 -96.35 -60.7 -95.2 -46.0 -93.05 -43.45 -94.2 -44.6 -99.6 -35.65 -101.8 -37.55 -95.35 -38.6 -93.5 -37.7 -88.4 Q-39.45 -84.55 -41.75 -84.35 -42.4 -85.55 -44.0 -84.35 L-43.7 -82.7 -45.45 -81.7 -45.6 -82.35 -46.6 -82.35 -46.45 -85.8 -48.3 -84.35 -49.6 -87.5 -51.05 -86.2 -51.05 -88.2 -52.2 -85.8 -53.05 -87.35 -60.2 -89.5 -60.2 -93.3 -61.85 -94.4 -70.85 -90.15 -71.0 -90.45" fill="url(#gradient19)" fill-rule="evenodd" stroke="none"/>
    <path d="M-74.7 -78.2 L-76.85 -80.75 -79.6 -80.75 -81.85 -79.3 -81.3 -81.05 -78.65 -83.25 -75.3 -84.65 -75.3 -83.05 -72.2 -85.35 -68.75 -85.35 -68.05 -82.8 -66.45 -84.35 -66.45 -83.0 -71.45 -78.2 -74.7 -78.2" fill="url(#gradient20)" fill-rule="evenodd" stroke="none"/>
    <path d="M-41.75 -84.35 L-41.3 -83.05 -43.3 -80.35 -43.7 -82.7 -44.0 -84.35 Q-42.4 -85.55 -41.75 -84.35 M-88.3 -73.2 L-84.15 -77.9 -81.85 -79.3 -79.6 -80.75 -76.85 -80.75 -74.7 -78.2 -76.7 -74.6 -81.7 -70.6 -86.6 -71.2 -88.3 -73.2 M-46.6 -82.35 L-45.6 -82.35 -45.45 -81.7 -44.85 -78.75 -47.3 -79.85 -47.3 -78.05 -48.15 -76.45 -49.75 -77.7 -50.6 -78.35 -49.45 -80.05 -48.3 -80.35 -47.6 -82.35 -46.6 -82.35 M-53.45 -75.05 L-52.85 -76.2 -51.0 -77.05 -50.5 -75.7 -50.0 -74.35 -50.85 -71.35 -52.7 -72.45 -53.45 -75.05 M-73.1 -64.55 L-71.15 -64.0 -70.0 -61.05 -71.85 -61.05 -75.2 -62.7 -74.15 -63.05 -73.1 -64.55 M-67.7 -64.1 L-64.15 -65.75 -62.3 -61.05 -63.4 -60.2 Q-66.05 -61.0 -67.7 -64.1 M-47.3 -79.85 L-48.3 -80.35 -47.3 -79.85" fill="#eee4d3" fill-rule="evenodd" stroke="none"/>
    <path d="M-88.3 -73.2 L-86.6 -71.2 -81.7 -70.6 -76.7 -74.6 -74.7 -78.2 -76.85 -70.6 -78.7 -66.05 -79.65 -66.05 -80.6 -66.05 -82.35 -66.8 -84.15 -67.6 -88.3 -71.35 -88.3 -73.2" fill="#ddc7a7" fill-rule="evenodd" stroke="none"/>
    <path d="M-7.75 -92.1 L-8.2 -91.5 -9.6 -89.75 -12.45 -89.45 -11.85 -90.5 -12.65 -91.7 -13.75 -93.35 -11.85 -95.45 -9.25 -95.45 -8.65 -96.3 -7.55 -94.6 -6.75 -93.35 -7.75 -92.1 M-10.75 -94.6 L-12.65 -91.7 -10.75 -94.6" fill="url(#gradient21)" fill-rule="evenodd" stroke="none"/>
    <path d="M-15.45 -94.35 L-13.45 -96.9 -9.05 -96.9 -8.65 -96.3 -9.25 -95.45 -11.85 -95.45 -13.75 -93.35 -14.45 -94.35 -15.45 -94.35" fill="url(#gradient22)" fill-rule="evenodd" stroke="none"/>
    <path d="M-112.9 49.65 L-113.75 49.95 -111.05 46.5 -105.05 43.65 -112.9 49.65 M-8.2 -91.5 Q-6.55 -89.0 -8.2 -87.55 L-6.65 -87.3 -8.9 -85.9 -9.7 -85.4 -10.45 -84.9 -11.95 -85.25 -10.2 -88.45 -12.45 -89.45 -9.6 -89.75 -8.2 -91.5 M-1.2 -84.55 L-0.75 -84.2 -1.0 -84.05 -1.2 -84.55 M-8.2 -87.55 L-8.9 -85.9 -8.2 -87.55" fill="#8a8148" fill-rule="evenodd" stroke="none"/>
    <path d="M-42.1 82.55 L-43.15 85.45 -45.6 85.0 -45.0 83.25 -42.1 82.55 M-6.65 -87.3 L-5.75 -87.9 -3.5 -86.25 -4.1 -85.75 Q-4.8 -86.9 -6.65 -87.3 M-11.95 -85.25 L-10.45 -84.9 -9.7 -85.4 Q-8.0 -85.35 -7.25 -83.2 L-8.3 -82.4 -16.3 -83.8 Q-16.3 -85.3 -17.85 -86.0 L-16.9 -86.45 -11.95 -85.25" fill="#333333" fill-rule="evenodd" stroke="none"/>
    <path d="M-15.45 -94.35 L-14.45 -94.35 -13.75 -93.35 -12.65 -91.7 -11.85 -90.5 -12.45 -89.45 -20.65 -85.35 -21.2 -85.75 -25.9 -83.2 -27.55 -80.0 -29.6 -81.8 -30.85 -81.8 -42.25 -67.5 -42.35 -68.7 -38.95 -73.35 -30.6 -82.9 -18.0 -95.85 -16.95 -94.35 -17.45 -94.35 -27.5 -83.75 -15.05 -90.65 -15.05 -92.9 -15.45 -94.35" fill="url(#gradient23)" fill-rule="evenodd" stroke="none"/>
    <path d="M-26.3 -89.85 L-19.0 -97.05 -16.45 -97.05 -16.45 -94.35 -16.95 -94.35 -18.0 -95.85 -30.6 -82.9 -38.95 -73.35 -42.35 -68.7 -42.45 -69.9 -40.5 -73.45 -33.35 -82.1 -27.15 -88.95 -26.3 -89.85" fill="url(#gradient24)" fill-rule="evenodd" stroke="none"/>
    <path d="M-16.45 -94.35 L-15.45 -94.35 -15.05 -92.9 -15.05 -90.65 -27.5 -83.75 -17.45 -94.35 -16.95 -94.35 -16.45 -94.35" fill="url(#gradient25)" fill-rule="evenodd" stroke="none"/>
    <path d="M-9.7 -85.4 L-8.9 -85.9 -6.65 -87.3 Q-4.8 -86.9 -4.1 -85.75 L-7.25 -83.2 Q-8.0 -85.35 -9.7 -85.4 M-17.85 -86.0 Q-16.3 -85.3 -16.3 -83.8 L-19.25 -84.25 -16.65 -82.25 -13.85 -80.1 -11.05 -74.85 Q-8.85 -58.7 -10.1 -49.25 L-13.0 -56.1 Q-12.65 -65.0 -15.0 -77.45 L-15.1 -77.9 -20.8 -85.25 -20.15 -84.95 -17.85 -86.0 M-19.25 -84.25 L-20.15 -84.95 -19.25 -84.25 M-5.5 -44.4 Q-4.05 -63.2 -5.15 -75.55 L-3.05 -76.05 Q-2.3 -76.4 -1.6 -76.8 -0.3 -75.1 -3.3 -42.2 L-5.5 -44.4 M-12.7 -49.15 L-10.9 -44.95 -10.1 -43.4 -12.6 -12.8 -14.7 -17.6 -13.7 -27.6 -12.7 -49.15 M-5.15 18.3 Q-7.55 -6.75 -6.4 -34.4 L-6.05 -37.95 Q-4.3 -37.45 -3.3 -42.15 L-4.2 -32.85 Q-3.55 -7.9 -0.35 12.8 L-2.05 12.8 -0.5 19.05 -0.5 21.05 -3.25 22.3 -4.45 19.2 -5.15 18.3 M-21.7 43.5 L-19.2 44.6 -17.85 51.75 -18.95 62.1 -18.5 63.2 Q-22.0 60.5 -24.55 62.05 L-21.7 43.5 M-17.2 66.4 Q-16.75 66.5 -16.25 66.7 -14.35 68.4 -15.75 74.55 -19.65 74.5 -23.6 78.6 L-23.2 77.75 Q-19.55 68.85 -23.2 66.6 L-23.15 66.5 Q-19.85 65.6 -17.2 66.4 M7.25 77.85 Q2.85 62.7 0.35 44.65 L5.0 42.2 5.6 37.85 Q8.8 55.15 14.95 70.2 L16.9 74.8 12.65 70.65 11.15 63.45 9.75 71.35 9.75 68.0 7.25 77.85" fill="#e9e1cf" fill-rule="evenodd" stroke="none"/>
    <path d="M-18.15 84.55 Q-19.55 83.75 -20.35 82.65 L-20.95 80.85 Q-21.15 79.9 -22.35 80.15 L-22.45 79.9 -24.2 80.9 -24.85 81.3 -23.6 78.6 Q-19.65 74.5 -15.75 74.55 L-16.65 77.9 -18.85 78.45 -18.15 84.55 M-19.25 -84.25 L-16.3 -83.8 -16.65 -82.25 -19.25 -84.25 M-8.85 -80.0 L-7.2 -79.5 -6.75 -79.95 Q-6.85 -81.95 -7.25 -83.2 L-4.1 -85.75 Q-3.6 -84.8 -3.9 -83.35 L-5.35 -81.65 Q-5.45 -77.15 -3.05 -76.05 L-5.15 -75.55 -7.2 -75.05 Q-9.3 -78.55 -8.85 -80.0 M-5.35 -81.65 L-6.75 -79.95 -5.35 -81.65 M-13.45 -51.2 Q-13.1 -53.5 -13.0 -56.1 L-10.1 -49.25 -10.9 -44.95 -12.7 -49.15 -13.45 -51.2 M-3.3 -42.15 Q-4.3 -37.45 -6.05 -37.95 L-5.5 -44.4 -3.3 -42.2 -3.3 -42.15 M-0.05 41.65 L2.4 38.95 Q0.5 34.9 -0.2 31.6 L1.35 30.05 3.5 32.95 4.25 35.65 5.1 35.25 5.45 37.15 5.6 37.85 5.0 42.2 0.35 44.65 -0.05 41.65 M-21.05 39.05 L-19.75 38.5 -19.8 37.8 -18.65 37.25 -16.9 42.9 -17.85 51.75 -19.2 44.6 -21.7 43.5 -21.05 39.05 M-18.5 63.2 L-17.2 66.4 Q-19.85 65.6 -23.15 66.5 L-24.45 67.1 -25.1 65.6 -24.55 62.05 Q-22.0 60.5 -18.5 63.2 M-22.45 79.9 Q-20.6 79.0 -18.85 78.45 -20.6 79.0 -22.45 79.9 M7.25 77.85 L9.75 68.0 9.75 71.35 11.15 63.45 12.65 70.65 13.25 75.5 11.4 72.9 12.95 80.75 8.5 82.0 7.25 77.85" fill="#d2c29d" fill-rule="evenodd" stroke="none"/>
    <path d="M-12.45 -89.45 L-10.2 -88.45 -11.95 -85.25 -16.9 -86.45 -17.85 -86.0 -20.15 -84.95 -20.8 -85.25 -15.1 -77.9 -15.0 -77.45 Q-12.65 -65.0 -13.0 -56.1 -13.1 -53.5 -13.45 -51.2 -15.5 -56.75 -17.35 -64.3 L-17.5 -64.95 Q-18.0 -68.35 -19.15 -71.7 L-20.3 -74.6 -23.9 -78.0 -24.65 -78.7 Q-25.95 -79.9 -28.25 -78.7 L-27.55 -80.0 -25.9 -83.2 -21.2 -85.75 -20.65 -85.35 -12.45 -89.45 M-13.0 -56.25 L-19.15 -71.7 -13.0 -56.25 M-20.7 -85.35 L-20.8 -85.25 -20.7 -85.35" fill="url(#gradient26)" fill-rule="evenodd" stroke="none"/>
    <path d="M-13.85 -80.1 L-7.2 -75.05 -5.15 -75.55 Q-4.05 -63.2 -5.5 -44.4 L-10.1 -49.25 Q-8.85 -58.7 -11.05 -74.85 L-13.85 -80.1" fill="url(#gradient27)" fill-rule="evenodd" stroke="none"/>
    <path d="M-39.3 -84.35 L-36.85 -87.45 -36.85 -93.6 -35.7 -96.9 -32.6 -92.4 -27.15 -88.95 -33.35 -82.1 Q-34.7 -84.4 -39.3 -84.35" fill="url(#gradient28)" fill-rule="evenodd" stroke="none"/>
    <path d="M-27.55 -80.0 L-28.25 -78.7 -28.3 -78.7 -29.2 -78.05 -36.75 -59.6 -37.05 -59.05 -39.0 -61.6 -32.7 -72.15 -39.8 -62.6 -42.2 -65.7 -30.5 -80.45 -29.6 -81.8 -27.55 -80.0" fill="url(#gradient29)" fill-rule="evenodd" stroke="none"/>
    <path d="M-28.25 -78.7 Q-25.95 -79.9 -24.65 -78.7 L-23.9 -78.0 -23.0 -75.75 Q-26.5 -79.35 -28.6 -76.55 L-33.9 -62.3 -40.65 -48.8 -43.2 -47.5 -37.3 -58.5 -37.05 -59.05 -36.75 -59.6 -29.2 -78.05 -28.3 -78.7 -28.25 -78.7 M-24.35 -29.25 L-23.5 -31.65 -21.45 -32.8 Q-24.55 -27.6 -25.9 -16.4 L-23.45 -3.65 Q-20.3 5.8 -17.4 12.6 -18.2 15.45 -17.15 19.2 -18.0 19.3 -18.8 18.3 L-19.35 17.5 -18.6 12.6 -20.9 7.7 -24.9 -2.35 -26.9 -11.95 Q-28.25 -16.15 -26.9 -21.95 L-28.15 -28.5 -28.1 -34.6 -26.5 -30.65 -26.3 -23.7 -25.65 -25.45 Q-25.15 -27.85 -25.35 -31.8 -26.75 -33.3 -28.1 -38.35 L-28.8 -41.1 -29.75 -45.65 -29.75 -47.45 -29.45 -49.2 -28.8 -53.55 -27.7 -55.35 -27.7 -42.95 -24.85 -33.55 -24.35 -29.25 -25.65 -25.45 -24.35 -29.25 M-43.05 -41.85 L-39.2 -43.4 Q-47.15 -38.25 -47.7 -30.75 L-45.75 -30.9 -49.0 -29.45 Q-52.6 -27.05 -55.6 -21.1 -53.7 -26.95 -49.6 -30.6 -47.2 -37.25 -43.05 -41.85 M-20.15 19.65 L-21.25 20.75 -21.25 25.1 -19.4 25.1 -17.2 27.55 -17.2 30.8 -18.3 32.95 -15.05 43.0 -14.3 49.95 -16.45 48.35 -16.45 44.35 -16.9 42.9 -18.65 37.25 -19.05 36.05 -20.35 33.1 -21.6 30.2 -23.8 31.3 -24.8 28.5 -23.15 26.35 -24.15 23.5 -21.0 18.5 -20.15 19.65 M-26.3 -23.7 L-26.9 -21.95 -26.3 -23.7 M-21.6 26.05 L-21.6 30.2 -21.6 26.05" fill="#7e585e" fill-rule="evenodd" stroke="none"/>
    <path d="M-40.65 -48.8 L-33.9 -62.3 -28.6 -76.55 Q-26.5 -79.35 -23.0 -75.75 L-21.45 -71.65 Q-20.55 -66.9 -22.35 -64.35 L-25.95 -62.3 Q-28.25 -61.3 -29.6 -66.25 L-30.2 -63.45 -29.6 -60.5 -31.25 -60.5 -33.3 -56.65 -38.05 -50.1 -40.65 -48.8" fill="url(#gradient30)" fill-rule="evenodd" stroke="none"/>
    <path d="M55.95 5.25 Q49.65 6.55 43.4 8.4 L42.4 8.65 36.35 10.6 35.25 11.0 30.8 12.65 26.6 9.6 51.1 -0.6 55.95 5.25 M105.05 5.45 Q96.65 7.85 88.2 11.05 77.4 15.15 66.4 21.05 L64.65 16.55 Q76.55 12.0 88.2 6.1 L100.7 -0.3 102.35 1.9 105.05 5.45 M29.2 13.25 L25.5 14.8 23.35 10.95 26.0 9.85 29.2 13.25 M24.4 15.25 Q18.15 17.95 11.95 21.2 L10.5 16.25 23.0 11.1 24.4 15.25 M-42.25 -67.5 L-30.85 -81.8 -29.6 -81.8 -30.5 -80.45 -42.2 -65.7 -39.8 -62.6 -40.35 -61.8 -43.15 -64.8 -43.15 -66.35 -42.25 -67.5 M-39.0 -61.6 L-37.05 -59.05 -37.3 -58.5 -39.5 -60.85 -39.0 -61.6" fill="#d8d8d8" fill-rule="evenodd" stroke="none"/>
    <path d="M-23.0 -75.75 L-20.45 -72.6 -18.3 -64.3 Q-19.7 -58.65 -21.65 -56.15 L-21.65 -44.0 Q-21.7 -36.55 -23.65 -33.55 L-24.85 -33.55 -23.9 -36.95 -22.75 -48.75 -24.3 -55.45 -25.85 -56.75 -26.6 -57.15 -27.7 -55.35 -28.8 -53.55 -29.45 -49.2 -29.75 -49.25 -29.75 -55.2 -31.2 -57.05 -33.75 -53.95 -31.2 -57.05 -30.8 -57.55 -30.2 -57.85 Q-28.1 -59.0 -27.35 -57.55 -28.1 -59.0 -30.2 -57.85 L-30.8 -57.55 -31.2 -57.05 -29.75 -55.2 -29.75 -49.25 Q-31.05 -47.2 -32.35 -45.9 -33.6 -44.7 -34.85 -44.1 -32.2 -46.45 -31.75 -49.3 L-31.75 -52.5 -33.95 -49.3 Q-35.3 -46.7 -38.15 -45.5 L-41.2 -43.75 Q-42.5 -44.5 -43.2 -47.5 L-40.65 -48.8 -38.05 -50.1 -33.3 -56.65 -31.25 -60.5 -29.6 -60.5 -30.2 -63.45 -29.6 -66.25 Q-28.25 -61.3 -25.95 -62.3 L-22.35 -64.35 Q-20.55 -66.9 -21.45 -71.65 L-23.0 -75.75" fill="url(#gradient31)" fill-rule="evenodd" stroke="none"/>
    <path d="M-39.8 -62.6 L-32.7 -72.15 -39.0 -61.6 -39.5 -60.85 Q-39.55 -61.95 -40.35 -61.8 L-39.8 -62.6" fill="#818181" fill-rule="evenodd" stroke="none"/>
    <path d="M-27.7 -55.35 L-26.6 -57.15 -25.85 -56.75 -24.3 -55.45 -22.75 -48.75 -23.9 -36.95 -24.85 -33.55 -27.7 -42.95 -27.7 -55.35" fill="url(#gradient32)" fill-rule="evenodd" stroke="none"/>
    <path d="M-18.45 -60.7 L-17.45 -64.35 -17.35 -64.3 Q-15.5 -56.75 -13.45 -51.2 L-12.7 -49.15 -13.7 -27.6 -14.7 -17.6 -15.9 -20.35 -16.6 -23.4 -15.3 -28.85 -17.75 -37.95 -18.75 -44.9 -18.45 -45.8 Q-17.7 -52.2 -18.45 -60.7" fill="url(#gradient33)" fill-rule="evenodd" stroke="none"/>
    <path d="M-60.2 -89.5 L-53.05 -87.35 -52.2 -85.8 -51.05 -88.2 -51.05 -86.2 -49.6 -87.5 -48.3 -84.35 -46.45 -85.8 -46.6 -82.35 -47.6 -82.35 -48.3 -80.35 -49.45 -80.05 -50.6 -78.35 -50.3 -81.9 -50.9 -84.65 -53.45 -83.35 -53.45 -85.9 -55.75 -84.65 -54.75 -86.2 -60.2 -89.5 M-65.05 -84.45 L-64.45 -83.9 -61.2 -82.35 -60.3 -77.9 -61.9 -80.65 -66.45 -81.65 -66.45 -83.0 -65.05 -84.45" fill="#c99a9b" fill-rule="evenodd" stroke="none"/>
    <path d="M-79.65 -66.05 L-78.7 -66.05 -76.85 -70.6 -74.7 -78.2 -71.45 -78.2 -66.45 -83.0 -66.45 -81.65 -61.9 -80.65 -60.3 -77.9 -61.2 -82.35 -64.45 -83.9 -65.05 -84.45 -60.2 -89.5 -54.75 -86.2 -55.75 -84.65 -53.45 -85.9 -53.45 -83.35 -50.9 -84.65 -50.3 -81.9 -50.6 -78.35 -53.8 -77.05 -55.95 -72.9 -60.6 -67.8 -63.5 -67.8 -68.75 -64.9 -72.6 -65.95 -76.7 -64.75 -73.7 -64.75 -73.1 -64.55 -74.15 -63.05 -75.2 -62.7 -78.5 -64.1 -79.65 -66.05" fill="url(#gradient34)" fill-rule="evenodd" stroke="none"/>
    <path d="M-49.15 -19.5 Q-46.1 -22.35 -44.2 -28.2 L-45.75 -30.9 Q-40.0 -32.6 -39.2 -39.65 L-39.2 -43.4 -43.05 -41.85 -41.2 -43.75 -38.15 -45.5 -34.85 -44.1 Q-33.6 -44.7 -32.35 -45.9 -33.15 -42.6 -34.6 -39.5 L-33.8 -39.3 Q-32.6 -39.15 -31.2 -39.7 L-28.8 -41.1 -28.1 -38.35 -28.1 -34.6 -28.15 -28.5 -26.9 -21.95 Q-28.25 -16.15 -26.9 -11.95 L-27.75 -4.35 -44.6 -8.2 -59.4 -4.5 -53.85 -9.7 -56.45 -9.7 Q-51.8 -12.05 -48.85 -16.65 L-50.0 -18.8 -49.15 -19.5 M-37.0 -35.5 Q-36.55 -35.55 -35.0 -38.75 L-34.6 -39.5 -33.9 -43.35 -36.9 -41.45 -36.9 -38.25 -38.4 -34.45 -37.0 -35.5" fill="url(#gradient35)" fill-rule="evenodd" stroke="none"/>
    <path d="M-45.75 -30.9 L-44.2 -28.2 Q-46.1 -22.35 -49.15 -19.5 -54.3 -22.9 -62.75 -11.15 -59.6 -17.35 -56.0 -20.45 L-55.6 -21.1 Q-52.6 -27.05 -49.0 -29.45 L-45.75 -30.9 M-49.1 -19.5 Q-50.35 -23.2 -55.6 -21.1 -50.35 -23.2 -49.1 -19.5" fill="url(#gradient36)" fill-rule="evenodd" stroke="none"/>
    <path d="M-39.2 -43.4 L-39.2 -39.65 Q-40.0 -32.6 -45.75 -30.9 L-47.7 -30.75 Q-47.15 -38.25 -39.2 -43.4" fill="url(#gradient37)" fill-rule="evenodd" stroke="none"/>
    <path d="M-59.4 -4.5 L-44.6 -8.2 -27.75 -4.35 -27.95 -2.75 -46.0 -6.25 -58.95 -2.3 -49.35 -0.55 Q-45.5 2.3 -48.45 2.95 L-59.65 2.95 -71.05 7.55 -87.3 17.2 Q-85.15 11.65 -80.9 9.5 -63.9 -0.05 -66.0 -0.65 L-71.6 1.5 -79.0 4.65 -79.0 2.35 -74.9 -0.35 -70.6 -1.75 -68.45 -2.25 -59.4 -4.5" fill="url(#gradient38)" fill-rule="evenodd" stroke="none"/>
    <path d="M-70.6 -1.75 Q-67.4 -7.7 -62.75 -11.15 L-58.5 -12.85 Q-64.65 -9.05 -68.45 -2.25 L-70.6 -1.75 M-18.8 18.3 L-20.15 19.65 -21.0 18.5 -21.6 17.65 -20.05 15.35 -20.9 7.7 -18.6 12.6 -19.35 17.5 -18.8 18.3" fill="#815661" fill-rule="evenodd" stroke="none"/>
    <path d="M-49.15 -19.5 L-50.0 -18.8 -48.85 -16.65 Q-51.8 -12.05 -56.45 -9.7 L-53.85 -9.7 -59.4 -4.5 -68.45 -2.25 Q-64.65 -9.05 -58.5 -12.85 L-62.75 -11.15 Q-54.3 -22.9 -49.15 -19.5" fill="url(#gradient39)" fill-rule="evenodd" stroke="none"/>
    <path d="M-87.3 17.2 L-71.05 7.55 -59.65 2.95 -48.45 2.95 Q-45.5 2.3 -49.35 -0.55 L-58.95 -2.3 -46.0 -6.25 -27.95 -2.75 -30.0 12.3 -31.25 20.2 -31.7 22.9 Q-42.65 17.6 -55.85 14.5 -69.95 15.2 -84.0 20.95 L-86.15 27.6 -87.75 25.7 -88.2 25.15 -89.0 24.2 -88.65 22.25 -83.6 19.0 -55.7 9.75 Q-51.9 8.45 -48.55 9.1 -45.05 10.05 -47.15 7.0 L-49.1 6.35 -53.5 6.35 Q-68.75 10.15 -82.75 16.65 L-86.6 19.2 -87.3 17.2 M-86.3 21.9 L-84.0 20.95 -86.3 21.9 M-47.6 11.65 L-31.25 20.2 -47.6 11.65 M-44.75 1.5 L-30.0 12.3 -44.75 1.5" fill="url(#gradient40)" fill-rule="evenodd" stroke="none"/>
    <path d="M-10.1 -43.4 L-8.6 -40.9 -6.05 -37.95 -6.4 -34.4 Q-7.55 -6.75 -5.15 18.3 -8.3 14.45 -11.45 12.55 L-13.05 3.45 -11.45 -7.95 -12.6 -12.8 -10.1 -43.4 M-10.35 -25.95 L-9.2 -19.35 Q-7.8 -31.0 -9.6 -30.2 L-10.35 -25.95" fill="url(#gradient41)" fill-rule="evenodd" stroke="none"/>
    <path d="M-23.5 -31.65 L-23.0 -33.05 Q-22.0 -34.7 -21.3 -38.75 L-19.55 -42.9 -18.9 -36.6 -16.45 -28.45 -17.65 -21.85 -16.9 -15.25 -16.2 -9.15 -18.5 -11.45 Q-22.7 -17.9 -21.45 -26.15 -20.15 -31.25 -21.45 -32.8 L-23.5 -31.65 M-18.05 -23.65 L-19.15 -27.55 -19.15 -32.7 -20.3 -28.65 -19.05 -24.8 -18.05 -23.65" fill="url(#gradient42)" fill-rule="evenodd" stroke="none"/>
    <path d="M-34.85 -44.1 L-38.15 -45.5 Q-35.3 -46.7 -33.95 -49.3 L-31.75 -52.5 -31.75 -49.3 Q-32.2 -46.45 -34.85 -44.1" fill="url(#gradient43)" fill-rule="evenodd" stroke="none"/>
    <path d="M-34.6 -39.5 L-35.0 -38.75 Q-36.55 -35.55 -37.0 -35.5 L-38.4 -34.45 -36.9 -38.25 -36.9 -41.45 -33.9 -43.35 -34.6 -39.5 M-34.8 -39.55 L-35.0 -38.75 -34.8 -39.55" fill="url(#gradient44)" fill-rule="evenodd" stroke="none"/>
    <path d="M-21.45 -32.8 Q-20.15 -31.25 -21.45 -26.15 -22.7 -17.9 -18.5 -11.45 L-16.2 -9.15 -16.9 -15.25 -16.9 -16.75 -14.35 -8.95 -14.35 -3.35 -16.2 6.55 -16.2 12.05 -14.65 16.05 -15.8 18.1 -14.65 21.05 -16.8 21.05 -17.6 24.8 -13.35 25.8 -11.65 29.8 -12.45 34.3 -13.6 36.25 -13.6 41.0 -11.15 37.4 -10.45 39.05 -10.95 41.65 -11.15 42.65 -10.45 46.2 -11.15 49.2 -14.3 49.95 -15.05 43.0 -18.3 32.95 -17.2 30.8 -17.2 27.55 -19.4 25.1 -21.25 25.1 -21.25 20.75 -20.15 19.65 -18.8 18.3 Q-18.0 19.3 -17.15 19.2 -18.2 15.45 -17.4 12.6 -20.3 5.8 -23.45 -3.65 L-25.9 -16.4 Q-24.55 -27.6 -21.45 -32.8" fill="url(#gradient45)" fill-rule="evenodd" stroke="none"/>
    <path d="M-27.75 -4.35 L-26.9 -11.95 -24.9 -2.35 -20.9 7.7 -20.05 15.35 -21.6 17.65 -21.0 18.5 -24.15 23.5 -23.15 26.35 -24.8 28.5 -23.8 31.3 -24.6 31.65 -24.8 32.8 -30.05 34.65 -30.05 35.45 -33.05 35.45 -33.55 36.65 -34.2 36.35 -31.7 22.9 -31.25 20.2 -30.0 12.3 -27.95 -2.75 -27.75 -4.35" fill="url(#gradient46)" fill-rule="evenodd" stroke="none"/>
    <path d="M-16.9 -16.75 L-16.9 -20.3 -13.05 -10.75 -12.45 -6.6 -14.3 5.55 Q-13.8 15.7 -13.3 8.8 L-10.6 17.35 -11.25 13.7 -6.45 18.65 -1.85 28.2 -1.85 31.9 0.75 38.8 -0.65 41.4 -2.9 40.35 -2.9 36.5 -3.75 35.25 -3.55 34.35 -6.0 29.8 -5.2 37.0 -6.25 37.0 -6.75 34.8 -6.25 37.0 -6.05 37.95 -6.3 38.1 -9.75 32.25 Q-10.1 34.95 -8.6 40.05 L-9.45 40.05 -10.95 41.65 -10.45 39.05 -11.15 37.4 -13.6 41.0 -13.6 36.25 -12.45 34.3 -11.65 29.8 -13.35 25.8 -17.6 24.8 -16.8 21.05 -14.65 21.05 -15.8 18.1 -14.65 16.05 -16.2 12.05 -16.2 6.55 -14.35 -3.35 -14.35 -8.95 -16.9 -16.75 M-3.05 32.05 L-3.55 34.35 -3.05 32.05" fill="url(#gradient47)" fill-rule="evenodd" stroke="none"/>
    <path d="M53.4 18.55 L53.4 14.25 52.65 10.25 54.0 9.5 57.45 17.9 61.75 28.35 63.4 32.4 62.15 32.4 60.3 28.25 58.8 27.0 55.3 20.15 55.1 20.25 53.4 18.55 M28.3 36.85 Q23.25 36.85 24.05 43.95 L19.65 43.95 19.65 37.7 21.6 32.45 22.6 32.95 25.2 31.1 23.75 29.25 26.6 30.4 28.3 30.4 28.3 36.85 M-0.5 21.05 L-0.5 19.05 -2.05 12.8 -0.35 12.8 1.4 18.9 4.65 30.15 5.95 34.8 5.1 35.25 4.25 35.65 3.5 32.95 1.35 30.05 -0.5 21.05 M-34.05 39.15 L-34.05 42.35 -33.05 43.15 -34.95 43.75 Q-37.8 45.25 -37.6 49.65 L-42.6 49.65 -42.5 48.65 -40.0 48.65 -39.55 41.9 -37.2 37.6 -34.05 39.15" fill="#86734d" fill-rule="evenodd" stroke="none"/>
    <path d="M58.8 27.0 L57.35 25.75 57.25 25.15 56.0 25.15 55.1 20.25 56.0 25.15 54.8 25.15 52.8 27.5 52.9 28.1 52.95 28.7 51.8 28.8 51.45 28.25 51.85 21.95 51.35 20.8 51.85 21.95 51.45 28.25 49.55 25.15 48.8 25.1 47.65 22.35 50.8 19.65 51.35 20.8 52.4 19.65 53.4 18.55 55.1 20.25 55.3 20.15 58.8 27.0 M34.95 35.65 L33.85 36.1 33.0 35.05 31.85 36.85 28.3 37.95 28.3 36.85 28.3 30.4 28.3 29.5 30.65 29.5 30.45 28.25 32.3 28.25 34.35 29.35 35.75 30.4 37.05 32.15 34.95 34.7 34.95 35.65 M-0.2 31.6 L-0.6 29.2 -3.25 22.3 -0.5 21.05 1.35 30.05 -0.2 31.6 M-25.3 35.9 L-20.35 33.1 -19.8 37.8 -20.35 33.1 -19.05 36.05 -18.65 37.25 -19.8 37.8 -19.75 38.5 -21.05 39.05 -23.75 40.2 -24.05 39.3 -26.9 42.05 -27.85 40.85 -29.4 38.2 -27.85 40.85 -29.75 42.2 -30.4 41.15 -32.05 43.9 -33.05 43.15 -34.05 42.35 -34.05 39.15 -34.05 37.9 -31.9 38.8 -29.4 38.2 -29.75 37.05 -25.3 35.9 -24.05 39.3 -25.3 35.9 M-31.9 38.8 L-30.4 41.15 -31.9 38.8 M42.15 24.85 L42.9 24.0 46.65 22.35 47.25 21.35 47.65 22.35 48.8 25.1 Q47.1 25.1 46.15 26.75 L45.85 25.5 42.15 24.85 M33.0 35.05 L31.1 32.7 30.65 29.5 31.1 32.7 33.0 35.05" fill="#990000" fill-rule="evenodd" stroke="none"/>
    <path d="M-97.35 58.5 Q-100.45 55.7 -104.9 56.25 L-107.15 53.35 -113.75 55.65 Q-109.7 53.4 -108.05 49.8 L-108.05 47.8 -105.05 43.65 Q-102.55 44.85 -98.3 39.95 -97.4 38.3 -97.6 37.95 L-87.75 25.7 -86.15 27.6 -84.0 20.95 Q-69.95 15.2 -55.85 14.5 -42.65 17.6 -31.7 22.9 L-34.2 36.35 -35.05 35.95 -36.3 28.6 -38.6 26.9 Q-40.5 27.7 -42.0 31.3 L-44.6 38.0 -44.6 43.35 Q-44.25 55.05 -41.85 62.8 L-46.6 59.15 -48.1 55.9 -49.8 59.75 -49.8 56.2 -51.65 58.2 -50.6 55.6 -57.05 61.3 -56.25 59.45 -59.95 63.45 -58.9 59.75 -64.75 68.2 -61.8 61.9 -64.25 64.35 -63.05 60.05 -68.1 68.2 -68.1 65.15 -71.2 72.05 -69.85 79.85 -66.35 84.8 -69.75 85.35 -79.3 85.35 -79.3 86.35 -77.55 90.25 -81.6 89.8 -87.1 84.05 -89.95 77.0 -87.55 78.8 -90.4 70.85 -85.1 74.4 Q-88.4 71.8 -90.2 65.1 L-87.55 67.55 -89.75 60.55 Q-89.1 51.75 -86.0 48.9 L-86.0 54.4 -83.6 40.55 -81.8 46.7 -81.8 35.7 -80.3 41.4 -80.3 33.3 Q-78.85 26.1 -74.8 20.75 -80.7 20.1 -86.25 28.55 L-87.3 30.3 -86.45 28.6 -87.3 30.3 -93.6 42.45 -98.9 50.05 -99.6 50.8 -98.9 50.05 -94.0 44.95 -97.75 52.65 -93.4 47.55 -97.35 58.5 M-44.7 29.8 L-49.75 45.35 -41.15 26.9 -38.9 23.4 -38.25 23.15 -38.55 22.85 Q-39.7 23.3 -40.7 24.0 -43.25 25.9 -44.7 29.8 M-35.75 26.1 L-38.25 23.15 -35.75 26.1 M-49.95 35.5 L-44.0 23.15 -46.65 25.35 -49.95 35.5 M-49.9 51.6 L-44.6 38.0 -49.9 51.6 M-86.4 28.5 L-86.15 27.6 -86.4 28.5" fill="url(#gradient48)" fill-rule="evenodd" stroke="none"/>
    <path d="M-33.55 36.65 L-33.05 35.45 -30.05 35.45 -30.05 34.65 -24.8 32.8 -24.6 31.65 -23.8 31.3 -21.6 30.2 -20.35 33.1 -25.3 35.9 -29.75 37.05 -29.4 38.2 -31.9 38.8 -30.0 35.95 -30.05 35.45 -30.0 35.95 -31.9 38.8 -34.05 37.9 -33.55 36.65 M-25.3 35.9 L-24.8 32.8 -25.3 35.9 M-30.0 35.95 L-29.75 37.05 -30.0 35.95" fill="#ff0000" fill-rule="evenodd" stroke="none"/>
    <path d="M19.65 43.95 L18.9 43.95 18.9 37.6 20.6 32.0 23.75 29.25 25.2 31.1 22.6 32.95 21.6 32.45 19.65 37.7 19.65 43.95 M-34.2 36.35 L-33.55 36.65 -34.05 37.9 -34.05 39.15 -37.2 37.6 -39.55 41.9 -40.0 48.65 -42.5 48.65 -41.75 40.2 -37.9 34.65 -35.05 35.95 -34.2 36.35" fill="#b29f77" fill-rule="evenodd" stroke="none"/>
    <path d="M-20.35 82.65 L-18.3 88.2 Q-21.55 84.35 -23.7 84.45 -26.25 83.85 -26.65 89.6 L-23.25 97.1 Q-24.4 99.45 -24.2 103.5 -29.55 95.55 -33.35 86.1 L-24.85 81.3 -24.2 80.9 Q-23.1 80.3 -22.35 80.15 -21.15 79.9 -20.95 80.85 L-20.35 82.65 M-40.15 67.3 L-41.15 64.85 -41.85 62.8 Q-44.25 55.05 -44.6 43.35 L-44.6 38.0 -42.0 31.3 Q-40.5 27.7 -38.6 26.9 L-36.3 28.6 -35.05 35.95 -37.9 34.65 -41.75 40.2 -42.5 48.65 -42.6 49.65 -37.6 49.65 Q-37.8 45.25 -34.95 43.75 L-36.85 53.75 Q-38.4 60.9 -40.15 67.3" fill="#91686f" fill-rule="evenodd" stroke="none"/>
    <path d="M-43.55 78.9 Q-41.8 73.4 -40.15 67.3 -38.4 60.9 -36.85 53.75 L-30.3 46.35 -29.5 48.95 -22.75 43.0 -21.7 43.5 -24.55 62.05 -29.3 69.1 -29.65 69.8 -33.55 74.9 -43.55 78.9" fill="url(#gradient49)" fill-rule="evenodd" stroke="none"/>
    <path d="M-53.5 6.35 L-49.1 6.35 -47.15 7.0 Q-45.05 10.05 -48.55 9.1 -51.9 8.45 -55.7 9.75 L-83.6 19.0 -88.65 22.25 -88.3 20.35 -86.6 19.2 -82.75 16.65 Q-68.75 10.15 -53.5 6.35" fill="url(#gradient50)" fill-rule="evenodd" stroke="none"/>
    <path d="M-79.0 4.65 L-71.6 1.5 -66.0 -0.65 Q-63.9 -0.05 -80.9 9.5 -77.7 5.9 -79.0 4.65" fill="url(#gradient51)" fill-rule="evenodd" stroke="none"/>
    <path d="M-87.35 86.6 L-90.85 82.8 Q-93.05 79.8 -93.9 75.45 -94.8 79.2 -93.9 81.9 -96.75 78.35 -97.75 71.9 -98.05 65.8 -96.95 62.3 -99.0 64.95 -99.45 69.6 -99.95 66.05 -98.75 62.35 L-97.35 58.5 -93.4 47.55 -97.75 52.65 -94.0 44.95 -98.9 50.05 -93.6 42.45 -87.3 30.3 -86.25 28.55 Q-80.7 20.1 -74.8 20.75 -78.85 26.1 -80.3 33.3 L-80.3 41.4 -81.8 35.7 -81.8 46.7 -83.6 40.55 -86.0 54.4 -86.0 48.9 Q-89.1 51.75 -89.75 60.55 L-87.55 67.55 -90.2 65.1 Q-88.4 71.8 -85.1 74.4 L-90.4 70.85 -87.55 78.8 -89.95 77.0 -87.1 84.05 -81.6 89.8 -83.45 89.55 -85.3 88.15 -87.35 86.6 M-92.15 46.05 L-93.4 47.55 -92.15 46.05" fill="url(#gradient52)" fill-rule="evenodd" stroke="none"/>
    <path d="M-6.1 99.55 L-4.65 97.4 -2.35 98.5 -0.8 96.2 0.7 100.2 -0.95 101.55 -6.1 99.55 M1.7 87.8 L-0.35 84.45 1.3 84.0 3.4 88.95 2.4 88.95 1.7 87.8 M-66.8 81.95 L-59.45 81.95 -58.0 82.75 -63.0 86.35 -76.55 88.25 -72.5 95.65 -75.0 95.9 -76.3 93.05 -77.55 90.25 -76.3 93.05 -87.1 90.65 -89.15 88.2 -87.35 86.6 -85.3 88.15 -86.3 89.2 -83.45 89.55 -81.6 89.8 -77.55 90.25 -79.3 86.35 -79.3 85.35 -69.75 85.35 -66.35 84.8 -65.65 84.65 Q-62.85 84.0 -61.0 83.05 L-66.2 83.3 -66.8 81.95 M-106.75 104.4 L-103.15 101.35 -100.3 102.2 -99.45 101.35 -94.6 101.4 -92.95 100.45 -90.65 99.7 -87.65 102.9 -92.55 107.25 -100.4 104.55 -103.1 106.45 -106.75 104.4 M-94.6 101.4 L-97.45 103.05 -100.3 102.2 -97.45 103.05 -94.6 101.4" fill="#666666" fill-rule="evenodd" stroke="none"/>
    <path d="M1.8 105.7 L-1.75 105.7 -3.9 103.55 -5.6 103.55 -6.65 100.3 -6.1 99.55 -0.95 101.55 0.7 100.2 -0.8 96.2 0.8 93.85 0.3 95.25 1.8 97.25 1.8 105.7 M-85.05 93.1 L-87.1 90.65 -76.3 93.05 -75.0 95.9 -84.15 94.2 -85.05 93.1 M-61.0 83.05 Q-62.85 84.0 -65.65 84.65 L-66.2 83.3 -61.0 83.05 M-85.3 88.15 L-83.45 89.55 -86.3 89.2 -85.3 88.15" fill="#444444" fill-rule="evenodd" stroke="none"/>
    <path d="M-58.0 82.75 L-59.3 84.75 -61.6 92.15 -62.0 93.45 -66.15 94.9 -72.5 95.65 -76.55 88.25 -63.0 86.35 -58.0 82.75" fill="url(#gradient53)" fill-rule="evenodd" stroke="none"/>
    <path d="M-61.6 92.15 Q-59.85 91.55 -56.9 99.45 L-58.15 101.05 -58.75 101.15 -72.15 103.35 -72.75 103.45 -74.65 106.5 -75.9 112.6 -75.0 115.05 -81.3 115.05 -81.85 113.75 -82.45 112.45 -82.45 108.9 -79.1 101.85 -78.6 100.75 -90.65 97.5 -85.05 93.1 -84.15 94.2 -75.0 95.9 -72.5 95.65 -66.15 94.9 -62.0 93.45 -61.6 92.15" fill="url(#gradient54)" fill-rule="evenodd" stroke="none"/>
    <path d="M-42.15 86.0 Q-41.7 84.35 -41.55 82.85 L-38.3 82.15 Q-33.25 78.1 -31.35 75.3 -28.7 69.45 -24.45 67.1 L-23.15 66.5 -23.2 66.6 Q-19.55 68.85 -23.2 77.75 L-36.1 84.45 -42.15 86.0 M-23.25 66.55 L-23.2 66.6 -23.25 66.55" fill="url(#gradient55)" fill-rule="evenodd" stroke="none"/>
    <path d="M-17.85 51.75 L-14.85 57.1 Q-11.7 58.7 -9.3 55.1 L-7.9 49.55 -5.1 52.35 -3.9 45.8 0.35 44.65 Q2.85 62.7 7.25 77.85 4.3 82.55 -4.35 83.05 L-11.9 81.1 -14.25 77.6 -12.2 77.65 -5.75 79.1 -9.1 75.35 -15.75 74.55 Q-14.35 68.4 -16.25 66.7 L-14.45 67.75 Q-10.3 70.1 -5.55 69.75 L-18.5 63.2 -18.95 62.1 -17.85 51.75 M-2.05 65.6 Q-1.15 75.1 0.95 74.6 1.65 50.7 -0.05 55.9 L-2.05 65.6" fill="url(#gradient56)" fill-rule="evenodd" stroke="none"/>
    <path d="M-3.05 124.8 L-4.8 123.85 Q-16.2 115.4 -24.2 103.5 -24.4 99.45 -23.25 97.1 -22.4 95.3 -20.8 94.5 -17.5 92.95 -14.75 95.6 L-19.1 95.6 -22.05 99.1 -16.65 107.25 -4.2 117.65 Q-5.05 120.5 -3.05 124.8" fill="url(#gradient57)" fill-rule="evenodd" stroke="none"/>
    <path d="M-111.05 46.5 L-116.75 49.35 -123.3 50.65 Q-109.6 44.0 -97.3 33.25 L-88.2 25.15 -87.75 25.7 -97.6 37.95 Q-98.05 37.35 -101.45 39.95 L-105.05 43.65 -111.05 46.5" fill="url(#gradient58)" fill-rule="evenodd" stroke="none"/>
    <path d="M-73.9 114.35 L-75.0 115.05 -75.9 112.6 -74.65 106.5 -72.75 103.45 -72.15 103.35 Q-74.5 106.7 -74.6 111.05 L-74.6 111.65 -73.9 114.35 M-90.65 99.7 L-90.65 97.5 -78.6 100.75 -79.1 101.85 -88.85 99.1 -90.65 99.7 M7.55 106.8 L4.9 106.8 4.9 97.25 5.8 97.25 5.8 104.5 6.25 106.35 7.55 106.8" fill="#7a5252" fill-rule="evenodd" stroke="none"/>
    <path d="M-81.85 113.75 L-93.3 113.75 -100.0 109.45 -103.6 109.45 -107.6 107.9 -106.75 104.4 -103.1 106.45 -100.4 104.55 -92.55 107.25 -87.65 102.9 -90.65 99.7 -88.85 99.1 -79.1 101.85 -82.45 108.9 -82.45 112.45 -81.85 113.75" fill="url(#gradient59)" fill-rule="evenodd" stroke="none"/>
    <path d="M128.4 79.0 Q126.05 88.7 119.85 98.0 117.1 102.8 113.6 106.85 104.6 117.2 90.45 122.7 81.85 126.0 71.35 127.55 L62.7 128.0 Q44.5 128.85 31.05 128.75 5.3 128.55 -3.05 124.8 -5.05 120.5 -4.2 117.65 L-3.45 116.05 Q-2.3 114.0 -0.3 113.55 L-0.3 118.9 Q12.4 124.3 30.45 123.5 L31.0 120.25 32.4 122.7 Q46.2 125.75 61.7 123.5 L62.8 119.4 Q63.65 121.35 63.75 123.3 75.85 124.3 88.0 119.7 L89.35 115.65 Q90.05 117.05 90.4 118.5 102.05 115.35 111.85 105.9 L109.85 102.7 Q111.55 102.7 112.55 104.05 113.25 105.05 113.6 106.85 113.25 105.05 112.55 104.05 118.55 99.35 128.4 79.0 M31.05 128.75 Q30.35 126.0 30.45 123.5 30.35 126.0 31.05 128.75 M62.7 128.0 Q63.8 125.65 63.75 123.3 63.8 125.65 62.7 128.0 M90.45 122.7 Q90.8 120.55 90.4 118.5 90.8 120.55 90.45 122.7" fill="#c28f91" fill-rule="evenodd" stroke="none"/>
    <path d="M-58.75 101.15 L-56.6 106.2 -57.3 111.45 -59.9 114.75 -68.6 115.6 -73.9 114.35 -74.6 111.65 -74.6 111.05 Q-74.5 106.7 -72.15 103.35 L-58.75 101.15" fill="url(#gradient60)" fill-rule="evenodd" stroke="none"/>
    <path d="M9.9 34.6 L11.2 38.6 Q9.65 38.3 11.2 47.05 14.4 57.05 16.5 52.9 21.95 66.35 29.55 80.9 26.7 77.65 24.8 77.45 L24.2 78.05 14.95 70.2 Q8.8 55.15 5.6 37.85 L5.45 37.15 8.2 37.15 9.9 34.6" fill="url(#gradient61)" fill-rule="evenodd" stroke="none"/>
    <path d="M21.2 79.0 L21.15 83.7 21.15 85.9 Q13.1 88.6 3.4 88.95 L1.3 84.0 8.5 82.0 12.95 80.75 11.4 72.9 13.25 75.5 12.65 70.65 16.9 74.8 21.2 79.0" fill="url(#gradient62)" fill-rule="evenodd" stroke="none"/>
    <path d="M21.15 83.7 L23.05 84.45 23.05 87.55 24.15 90.8 22.35 92.35 20.6 93.85 6.75 97.25 5.8 97.25 4.9 97.25 4.9 106.8 7.55 106.8 Q7.9 108.1 4.1 107.7 L1.8 106.35 1.8 105.7 1.8 97.25 0.3 95.25 0.8 93.85 1.25 92.45 -0.2 89.85 1.7 87.8 2.4 88.95 3.4 88.95 Q13.1 88.6 21.15 85.9 L21.15 83.7 M22.15 85.7 L21.15 85.9 22.15 85.7" fill="url(#gradient63)" fill-rule="evenodd" stroke="none"/>
    <path d="M22.35 92.35 L22.9 96.15 24.9 101.55 24.15 104.95 17.65 107.4 10.9 108.0 7.55 106.8 6.25 106.35 5.8 104.5 5.8 97.25 6.75 97.25 20.6 93.85 22.35 92.35" fill="url(#gradient64)" fill-rule="evenodd" stroke="none"/>
    <path d="M-4.1 -94.0 L2.25 -94.05 12.6 -99.65 19.65 -100.9 25.65 -99.2 19.95 -99.2 15.05 -94.25 12.75 -89.65 11.45 -87.75 18.1 -90.9 23.2 -90.9 31.1 -85.95 31.45 -85.75 32.1 -85.65 M31.05 -85.8 L31.45 -85.75 M31.05 -85.8 L22.9 -87.1 17.95 -84.55 12.75 -77.2 8.1 -76.4 1.2 -79.55 1.65 -78.6 4.95 -74.35 1.8 -75.9 1.35 -73.25 4.9 -68.55 2.9 -69.5 Q4.5 -67.5 4.65 -63.05 L4.9 -62.25 9.75 -53.1 13.05 -48.4 14.85 -43.15 19.4 -37.6 21.55 -36.4 22.8 -31.95 25.7 -28.55 27.05 -23.9 32.6 -17.6 38.6 -0.2 Q57.1 -8.2 63.1 -17.95 63.65 -5.15 55.95 5.25 49.65 6.55 43.4 8.4 L46.15 12.35 51.2 14.85 52.75 17.95 53.4 18.55 53.4 14.25 52.65 10.25 54.0 9.5 57.45 17.9 Q61.55 16.7 62.9 10.45 74.65 7.05 83.8 3.0 84.5 4.4 85.95 2.0 L88.2 0.9 Q109.1 -9.15 116.4 -21.45 116.05 -16.65 114.75 -12.1 113.1 -10.85 114.1 -10.0 L112.35 -5.75 Q110.8 -5.15 111.55 -4.15 109.25 0.3 105.85 4.45 104.6 4.2 105.05 5.45 96.65 7.85 88.2 11.05 77.4 15.15 66.4 21.05 61.65 19.6 61.75 28.35 L63.4 32.4 62.15 32.4 60.3 28.25 58.8 27.0 57.35 25.75 Q57.7 27.65 58.95 29.5 L58.95 35.8 57.45 36.65 56.0 37.5 55.1 36.85 53.55 33.65 52.95 28.7 51.8 28.8 52.15 29.35 52.8 32.55 51.1 35.5 48.3 36.55 47.1 34.4 46.45 37.95 43.55 39.95 42.25 38.8 40.95 37.65 40.95 38.25 42.15 42.9 40.15 45.35 38.9 45.35 37.7 45.35 37.1 43.05 34.95 39.35 34.95 35.65 33.85 36.1 33.0 35.05 31.85 36.85 28.3 37.95 28.3 36.85 Q23.25 36.85 24.05 43.95 L19.65 43.95 18.9 43.95 18.9 37.6 20.6 32.0 23.75 29.25 26.6 30.4 28.3 30.4 28.3 29.5 30.65 29.5 30.45 28.25 32.3 28.25 30.15 25.15 30.75 21.95 35.1 20.25 37.35 16.4 37.35 15.35 35.25 11.0 30.8 12.65 Q29.05 12.1 29.2 13.25 L25.5 14.8 Q24.55 13.85 24.4 15.25 18.15 17.95 11.95 21.2 8.65 20.55 6.8 23.35 8.1 28.85 9.9 34.6 L11.2 38.6 Q9.65 38.3 11.2 47.05 14.4 57.05 16.5 52.9 21.95 66.35 29.55 80.9 26.7 77.65 24.8 77.45 L24.2 78.05 22.25 80.05 21.2 79.0 21.15 83.7 23.05 84.45 23.05 87.55 24.15 90.8 22.35 92.35 22.9 96.15 24.9 101.55 24.15 104.95 17.65 107.4 10.9 108.0 7.55 106.8 Q7.9 108.1 4.1 107.7 L1.8 106.35 1.8 105.7 -1.75 105.7 -3.9 103.55 -5.6 103.55 -6.65 100.3 -6.1 99.55 -4.65 97.4 -2.35 98.5 -0.8 96.2 0.8 93.85 1.25 92.45 -0.2 89.85 1.7 87.8 -0.35 84.45 -6.2 86.05 -12.9 86.05 Q-16.1 85.65 -18.15 84.55 -19.55 83.75 -20.35 82.65 L-18.3 88.2 -14.75 95.6 Q-7.8 108.05 2.95 113.65 5.85 115.15 9.05 116.15 L31.55 118.05 Q47.25 118.7 61.7 117.4 75.25 116.2 87.75 113.25 L91.05 112.45 Q101.85 109.15 109.85 102.7 113.65 99.6 116.8 95.85 124.55 86.3 127.85 76.05 129.25 73.8 128.8 77.0 L128.4 79.0 Q126.05 88.7 119.85 98.0 117.1 102.8 113.6 106.85 104.6 117.2 90.45 122.7 81.85 126.0 71.35 127.55 L62.7 128.0 Q44.5 128.85 31.05 128.75 5.3 128.55 -3.05 124.8 L-4.8 123.85 Q-16.2 115.4 -24.2 103.5 -29.55 95.55 -33.35 86.1 L-35.6 87.35 -42.9 88.05 -42.15 86.0 Q-41.7 84.35 -41.55 82.85 -41.45 81.6 -41.6 80.5 L-42.1 82.55 -43.15 85.45 -44.2 87.35 -46.45 87.35 -45.6 85.0 -45.0 83.25 -43.55 78.9 Q-41.8 73.4 -40.15 67.3 L-41.15 64.85 Q-44.2 61.75 -47.9 59.65 L-47.0 62.75 Q-49.1 61.1 -51.6 60.4 -57.35 62.55 -62.3 69.9 L-60.6 64.35 -66.3 72.45 -65.3 66.6 -67.6 69.75 Q-69.15 73.35 -68.75 77.45 L-66.8 81.95 -59.45 81.95 -58.0 82.75 -59.3 84.75 -61.6 92.15 Q-59.85 91.55 -56.9 99.45 L-58.15 101.05 -58.75 101.15 -56.6 106.2 -57.3 111.45 -59.9 114.75 -68.6 115.6 -73.9 114.35 -75.0 115.05 -81.3 115.05 -81.85 113.75 -93.3 113.75 -100.0 109.45 -103.6 109.45 -107.6 107.9 -106.75 104.4 -103.15 101.35 -100.3 102.2 -99.45 101.35 -94.6 101.4 -92.95 100.45 -90.65 99.7 -90.65 97.5 -85.05 93.1 -87.1 90.65 -89.15 88.2 -87.35 86.6 -90.85 82.8 Q-93.05 79.8 -93.9 75.45 -94.8 79.2 -93.9 81.9 -96.75 78.35 -97.75 71.9 -98.05 65.8 -96.95 62.3 -99.0 64.95 -99.45 69.6 -99.95 66.05 -98.75 62.35 L-97.35 58.5 Q-100.45 55.7 -104.9 56.25 L-107.15 53.35 -113.75 55.65 Q-109.7 53.4 -108.05 49.8 L-108.05 47.8 -112.9 49.65 -113.75 49.95 -111.05 46.5 -116.75 49.35 -123.3 50.65 -124.3 51.1 M-7.75 -92.1 L-8.2 -91.5 Q-6.55 -89.0 -8.2 -87.55 L-6.65 -87.3 -5.75 -87.9 -3.5 -86.25 -1.2 -84.55 -0.75 -84.2 5.5 -81.65 10.1 -83.65 M1.15 -89.4 L3.4 -87.45 9.2 -86.7 11.45 -87.75 M19.95 -99.2 L12.9 -96.25 7.65 -90.9 1.15 -89.4 -4.1 -94.0 -5.75 -95.45 -7.55 -94.6 -6.75 -93.35 -7.75 -92.1 M4.6 -62.25 L4.55 -60.85 4.35 -57.6 6.85 -54.05 Q8.2 -49.2 12.85 -42.75 L13.0 -42.3 14.05 -40.65 16.0 -36.8 16.15 -36.5 16.35 -36.05 16.35 -36.0 18.1 -31.15 M16.15 -36.85 L15.85 -38.25 15.6 -39.6 14.85 -43.15 M1.35 -73.25 L1.0 -70.9 Q0.25 -66.25 -0.2 -61.65 1.35 -60.7 2.8 -59.25 L4.35 -57.6 M4.6 -62.25 L4.65 -63.05 M23.55 -29.3 L23.4 -29.9 22.8 -31.95 M23.55 -29.3 L23.55 -25.0 M19.4 -37.6 L15.6 -39.6 M16.25 -36.5 L16.15 -36.85 M19.4 -26.55 L17.7 -27.75 16.6 -27.75 14.8 -28.05 Q13.85 -28.35 12.95 -28.9 L15.85 -23.6 17.4 -22.7 Q19.55 -21.15 22.3 -17.75 L25.0 -14.15 31.75 2.55 37.4 0.3 38.6 -0.2 M16.25 -36.5 L16.35 -36.05 M-0.65 -50.9 Q-0.4 -48.5 0.25 -46.3 4.45 -38.4 9.35 -32.2 11.15 -30.05 12.95 -28.9 M15.85 -23.6 L18.3 -14.85 22.75 -3.45 Q27.85 -0.1 29.85 3.25 L30.95 2.85 31.75 2.55 M-65.3 -108.0 L-71.7 -105.9 -70.3 -98.35 -71.0 -90.45 -69.05 -91.6 -67.35 -92.6 -64.0 -94.6 -62.15 -95.35 -61.35 -96.35 -60.7 -95.2 -46.0 -93.05 -43.45 -94.2 -44.6 -99.6 -35.65 -101.8 -34.7 -102.05 -34.95 -100.65 -35.3 -98.75 Q-32.1 -91.5 -26.3 -89.85 L-19.0 -97.05 -16.45 -97.05 -16.45 -94.35 -15.45 -94.35 -13.45 -96.9 -9.05 -96.9 -8.65 -96.3 -7.55 -94.6 M-66.55 -97.7 L-68.45 -97.35 -68.45 -100.2 -65.6 -100.8 Q-64.9 -101.4 -64.4 -101.1 L-50.75 -104.05 -50.75 -100.9 -65.25 -98.0 Q-66.45 -96.8 -66.55 -97.7 M-49.2 -113.4 L-58.6 -110.25 Q-59.2 -109.4 -59.75 -109.85 L-65.3 -108.0 -62.75 -112.05 -62.8 -116.3 Q-62.45 -120.1 -60.15 -120.9 L-58.6 -119.2 -58.45 -117.2 -54.15 -125.6 -55.45 -120.75 -52.3 -124.45 -53.3 -121.75 -43.0 -129.75 -36.6 -133.2 -42.85 -124.6 -34.15 -132.75 -34.7 -131.25 -37.45 -124.3 -33.4 -123.3 -31.85 -124.6 Q-27.35 -127.15 -24.45 -125.75 L-25.3 -123.6 Q-24.2 -122.05 -22.15 -125.05 L-20.45 -119.45 Q-20.15 -117.35 -20.75 -115.45 -21.7 -112.6 -24.85 -110.3 -28.45 -108.0 -31.7 -109.45 L-33.15 -108.0 -32.45 -107.9 Q-33.5 -104.95 -32.6 -101.6 L-34.95 -100.65 M-58.45 -117.2 L-62.15 -113.05 -62.75 -112.05 M-49.2 -113.4 L-46.85 -112.75 -46.85 -110.05 -43.95 -109.6 -34.9 -108.25 -33.15 -108.0 M-31.95 -119.65 L-31.9 -119.75 -31.85 -119.85 Q-30.95 -120.7 -29.85 -120.75 -26.6 -122.1 -25.7 -119.6 L-24.6 -115.6 -25.85 -114.25 -27.7 -112.2 Q-31.55 -111.15 -32.7 -113.45 L-34.0 -116.05 Q-33.2 -118.55 -31.95 -119.65 M-33.4 -123.3 L-34.2 -122.7 -34.85 -121.9 M-41.75 -84.35 L-41.3 -83.05 -39.3 -84.35 -36.85 -87.45 -36.85 -93.6 -35.7 -96.9 -35.3 -98.75 M-81.85 -79.3 L-84.15 -77.9 -88.3 -73.2 -88.3 -71.35 -84.15 -67.6 -82.35 -66.8 -80.6 -66.05 -79.65 -66.05 -78.7 -66.05 -76.85 -70.6 -74.7 -78.2 -76.85 -80.75 -79.6 -80.75 -81.85 -79.3 -81.3 -81.05 -78.65 -83.25 -75.5 -85.95 -73.6 -87.6 -71.6 -89.8 -71.0 -90.45 M-46.6 -82.35 L-45.6 -82.35 -45.45 -81.7 -43.7 -82.7 -44.0 -84.35 Q-42.4 -85.55 -41.75 -84.35 M-8.2 -91.5 L-9.6 -89.75 -12.45 -89.45 -10.2 -88.45 -11.95 -85.25 -10.45 -84.9 -9.7 -85.4 -8.9 -85.9 -8.2 -87.55 M-15.45 -94.35 L-14.45 -94.35 -13.75 -93.35 -12.65 -91.7 -10.75 -94.6 M-16.95 -94.35 L-16.45 -94.35 M-16.95 -94.35 L-17.45 -94.35 -27.5 -83.75 M-12.65 -91.7 L-11.85 -90.5 -12.45 -89.45 -20.65 -85.35 -21.2 -85.75 -25.9 -83.2 -27.55 -80.0 -28.25 -78.7 Q-25.95 -79.9 -24.65 -78.7 L-23.9 -78.0 -20.3 -74.6 -19.15 -71.7 Q-18.0 -68.35 -17.5 -64.95 L-17.45 -64.35 -18.45 -60.7 -19.45 -58.1 -20.75 -55.35 -20.75 -42.65 -20.85 -42.2 -21.3 -38.75 Q-22.0 -34.7 -23.0 -33.05 L-23.5 -31.65 -24.35 -29.25 -25.65 -25.45 Q-25.15 -27.85 -25.35 -31.8 -26.75 -33.3 -28.1 -38.35 L-28.8 -41.1 -31.2 -39.7 Q-32.6 -39.15 -33.8 -39.3 L-34.6 -39.5 -35.0 -38.75 Q-36.55 -35.55 -37.0 -35.5 M-11.95 -85.25 L-16.9 -86.45 -17.85 -86.0 -20.15 -84.95 -19.25 -84.25 -16.65 -82.25 -13.85 -80.1 -7.2 -75.05 -5.15 -75.55 -3.05 -76.05 M-16.65 -82.25 L-8.85 -80.0 -7.2 -79.5 -6.75 -79.95 -5.35 -81.65 -3.9 -83.35 M-6.65 -87.3 L-8.9 -85.9 M-1.0 -84.05 L1.2 -79.55 M-1.0 -84.05 L-1.2 -84.55 M-26.3 -89.85 L-27.15 -88.95 -33.35 -82.1 -40.5 -73.45 -42.45 -69.9 -42.35 -68.7 -42.25 -67.5 -30.85 -81.8 -29.6 -81.8 -27.55 -80.0 M-39.3 -84.35 Q-34.7 -84.4 -33.35 -82.1 M-37.05 -59.05 L-36.75 -59.6 -29.2 -78.05 -28.3 -78.7 -28.25 -78.7 M-37.05 -59.05 L-37.3 -58.5 -43.2 -47.5 Q-42.5 -44.5 -41.2 -43.75 L-43.05 -41.85 Q-47.2 -37.25 -49.6 -30.6 -53.7 -26.95 -55.6 -21.1 L-56.0 -20.45 Q-59.6 -17.35 -62.75 -11.15 -67.4 -7.7 -70.6 -1.75 L-74.9 -0.35 -79.0 2.35 -79.0 4.65 Q-77.7 5.9 -80.9 9.5 -85.15 11.65 -87.3 17.2 L-86.6 19.2 -82.75 16.65 Q-68.75 10.15 -53.5 6.35 M-33.75 -53.95 L-31.2 -57.05 -30.8 -57.55 -30.2 -57.85 Q-28.1 -59.0 -27.35 -57.55 M-39.5 -60.85 L-37.3 -58.5 M-39.5 -60.85 Q-39.55 -61.95 -40.35 -61.8 L-43.15 -64.8 -43.15 -66.35 -42.25 -67.5 M-29.75 -49.25 L-29.75 -55.2 -31.2 -57.05 M-17.35 -64.3 L-17.5 -64.95 M-13.45 -51.2 L-12.7 -49.15 -10.9 -44.95 -10.1 -43.4 -8.6 -40.9 M-0.85 -53.6 L-0.3 -60.75 -0.2 -61.65 M-0.65 -50.9 L-0.85 -53.6 -1.05 -48.8 -1.05 -38.5 Q-0.55 -12.1 4.9 15.85 6.5 13.55 7.35 9.95 19.95 6.8 29.85 3.25 M-13.45 -51.2 Q-15.5 -56.75 -17.35 -64.3 M-20.15 -84.95 L-20.8 -85.25 M-50.5 -75.7 L-51.0 -77.05 -52.85 -76.2 -53.45 -75.05 -52.7 -72.45 -50.85 -71.35 -50.0 -74.35 -50.5 -75.7 -49.75 -77.7 -50.6 -78.35 -49.45 -80.05 -48.3 -80.35 -47.6 -82.35 -46.6 -82.35 M-76.7 -64.75 L-73.7 -64.75 -73.1 -64.55 -71.15 -64.0 -69.15 -63.45 -67.7 -64.1 -64.15 -65.75 -59.3 -66.9 Q-55.1 -70.95 -53.45 -75.05 M-45.45 -81.7 L-44.85 -78.75 -47.3 -79.85 -47.3 -78.05 -48.15 -76.45 -49.75 -77.7 M-48.3 -80.35 L-47.3 -79.85 M-43.7 -82.7 L-43.3 -80.35 -41.3 -83.05 M-73.1 -64.55 L-74.15 -63.05 -75.2 -62.7 -71.85 -61.05 -70.0 -61.05 -71.15 -64.0 M-82.35 -66.8 Q-81.65 -64.95 -78.3 -63.05 L-75.25 -62.7 M-64.15 -65.75 L-62.3 -61.05 -63.4 -60.2 Q-66.05 -61.0 -67.7 -64.1 M-59.4 -4.5 L-44.6 -8.2 -27.75 -4.35 -26.9 -11.95 Q-28.25 -16.15 -26.9 -21.95 L-28.15 -28.5 -28.1 -34.6 -28.1 -38.35 M-34.6 -39.5 Q-33.15 -42.6 -32.35 -45.9 -33.6 -44.7 -34.85 -44.1 M-38.15 -45.5 L-41.2 -43.75 M-68.45 -2.25 L-59.4 -4.5 M-71.6 1.5 L-66.0 -0.65 Q-63.9 -0.05 -80.9 9.5 M-27.95 -2.75 L-27.75 -4.35 M-68.45 -2.25 L-70.6 -1.75 M-12.6 -12.8 L-11.45 -7.95 -13.05 3.45 -11.45 12.55 Q-8.3 14.45 -5.15 18.3 L-4.45 19.2 -3.25 22.3 -0.6 29.2 -0.2 31.6 1.35 30.05 3.5 32.95 4.25 35.65 5.1 35.25 5.95 34.8 4.65 30.15 1.4 18.9 -0.35 12.8 -2.05 12.8 -0.5 19.05 -0.5 21.05 1.35 30.05 M-19.55 -42.9 L-18.75 -44.9 -18.45 -45.8 Q-17.7 -52.2 -18.45 -60.7 M-18.75 -44.9 L-17.75 -37.95 -15.3 -28.85 -16.6 -23.4 -15.9 -20.35 -14.7 -17.6 -12.6 -12.8 M-19.55 -42.9 L-21.3 -38.75 M-20.3 -28.65 L-19.05 -24.8 -18.05 -23.65 M-10.35 -25.95 L-9.2 -19.35 Q-7.8 -31.0 -9.6 -30.2 L-10.35 -25.95 M-29.75 -47.45 L-29.75 -45.65 -28.8 -41.1 M-29.75 -49.25 L-29.75 -47.45 M-16.9 -15.25 L-16.9 -16.75 -16.9 -20.3 -16.9 -21.35 -16.6 -23.4 M-26.3 -23.7 L-25.65 -25.45 M-32.35 -45.9 Q-31.05 -47.2 -29.75 -49.25 M-17.15 19.2 Q-18.0 19.3 -18.8 18.3 L-19.35 17.5 -18.6 12.6 -20.9 7.7 -20.05 15.35 -21.6 17.65 -21.0 18.5 -20.15 19.65 M-14.3 49.95 L-11.15 49.2 -10.45 46.2 -11.15 42.65 -10.95 41.65 -10.45 39.05 M-20.9 7.7 L-24.9 -2.35 -26.9 -11.95 M-26.9 -21.95 L-26.3 -23.7 M-13.3 8.8 L-13.3 5.05 -13.05 3.45 M-11.25 13.7 L-11.45 12.55 M-10.6 17.35 L-11.25 13.7 M-0.65 41.4 L-0.05 41.65 2.4 38.95 Q0.5 34.9 -0.2 31.6 M-0.5 21.05 L-3.25 22.3 M-38.25 23.15 L-38.55 22.85 Q-39.7 23.3 -40.7 24.0 -43.25 25.9 -44.7 29.8 M-23.8 31.3 L-24.8 28.5 -23.15 26.35 -24.15 23.5 -21.0 18.5 M-27.95 -2.75 L-30.0 12.3 -31.25 20.2 -31.7 22.9 -34.2 36.35 -33.55 36.65 -33.05 35.45 -30.05 35.45 -30.05 34.65 -24.8 32.8 -24.6 31.65 -23.8 31.3 -21.6 30.2 -21.6 26.05 M-31.9 38.8 L-30.0 35.95 -30.05 35.45 M-29.75 37.05 L-30.0 35.95 M-24.8 32.8 L-25.3 35.9 -24.05 39.3 -23.75 40.2 -21.05 39.05 -19.75 38.5 -19.8 37.8 -20.35 33.1 -19.05 36.05 -18.65 37.25 -16.9 42.9 -16.45 44.35 -16.45 48.35 -14.3 49.95 M-20.35 33.1 L-21.6 30.2 M-29.75 37.05 L-29.4 38.2 -27.85 40.85 -26.9 42.05 -24.05 39.3 M-35.05 35.95 L-34.2 36.35 M-42.5 48.65 L-41.75 40.2 -37.9 34.65 -35.05 35.95 -36.3 28.6 -38.6 26.9 Q-40.5 27.7 -42.0 31.3 L-44.6 38.0 -44.6 43.35 Q-44.25 55.05 -41.85 62.8 L-41.15 64.85 M-34.05 37.9 L-34.05 39.15 -34.05 42.35 -33.05 43.15 -32.05 43.9 -30.4 41.15 -31.9 38.8 M-34.05 37.9 L-33.55 36.65 M-42.5 48.65 L-42.6 49.65 -37.6 49.65 Q-37.8 45.25 -34.95 43.75 L-33.05 43.15 M-30.4 41.15 L-29.75 42.2 -27.85 40.85 M-6.25 37.0 L-6.75 34.8 M-6.25 37.0 L-5.2 37.0 -4.15 37.0 -3.75 35.25 -2.9 36.5 -2.9 40.35 -0.65 41.4 M-3.55 34.35 L-3.05 32.05 M-3.75 35.25 L-3.55 34.35 M-19.8 37.8 L-18.65 37.25 M-8.6 40.05 L-9.45 40.05 -10.95 41.65 M-6.3 38.1 L-7.75 40.05 -8.6 40.05 M-6.05 37.95 L-6.25 37.0 M-6.05 37.95 L-6.25 38.2 M-38.25 23.15 L-35.75 26.1 M-88.65 22.25 L-89.0 24.2 -88.2 25.15 -87.75 25.7 -86.15 27.6 -84.0 20.95 -86.3 21.9 M-81.6 89.8 L-77.55 90.25 -79.3 86.35 -79.3 85.35 -69.75 85.35 -66.35 84.8 -65.65 84.65 -66.2 83.3 -66.8 81.95 M-61.0 83.05 Q-62.85 84.0 -65.65 84.65 M-75.0 95.9 L-72.5 95.65 -66.15 94.9 -62.0 93.45 -61.6 92.15 M-76.3 93.05 L-75.0 95.9 -84.15 94.2 -85.05 93.1 M-77.55 90.25 L-76.3 93.05 M-17.2 66.4 Q-16.75 66.5 -16.25 66.7 L-14.45 67.75 M-17.2 66.4 Q-19.85 65.6 -23.15 66.5 L-24.45 67.1 Q-28.7 69.45 -31.35 75.3 -33.25 78.1 -38.3 82.15 M-2.05 65.6 Q-1.15 75.1 0.95 74.6 1.65 50.7 -0.05 55.9 L-2.05 65.6 M-40.15 67.3 Q-38.4 60.9 -36.85 53.75 L-34.95 43.75 M-22.45 79.9 L-24.2 80.9 Q-23.1 80.3 -22.35 80.15 -21.15 79.9 -20.95 80.85 L-20.35 82.65 M-24.85 81.3 L-24.2 80.9 M-23.25 97.1 Q-22.4 95.3 -20.8 94.5 -17.5 92.95 -14.75 95.6 M-4.2 117.65 L-3.45 116.05 Q-2.3 114.0 -0.3 113.55 L2.95 113.65 M-24.85 81.3 L-33.35 86.1 M-12.2 77.65 L-14.25 77.6 -16.65 77.9 -18.85 78.45 Q-20.6 79.0 -22.45 79.9 M-31.7 22.9 Q-42.65 17.6 -55.85 14.5 -69.95 15.2 -84.0 20.95 M-31.25 20.2 L-47.6 11.65 M-44.6 38.0 L-49.9 51.6 M-30.0 12.3 L-44.75 1.5 M-88.65 22.25 L-88.3 20.35 -86.6 19.2 M-97.6 37.95 Q-98.05 37.35 -101.45 39.95 L-105.05 43.65 Q-102.55 44.85 -98.3 39.95 -97.4 38.3 -97.6 37.95 M-87.3 30.3 L-86.45 28.6 M-86.15 27.6 L-86.4 28.5 M-93.4 47.55 L-92.15 46.05 M-88.2 25.15 L-97.3 33.25 Q-109.6 44.0 -123.3 50.65 M-98.9 50.05 L-93.6 42.45 -87.3 30.3 M-98.9 50.05 L-99.6 50.8 M-83.45 89.55 L-85.3 88.15 -86.3 89.2 -83.45 89.55 -81.6 89.8 M-85.3 88.15 L-87.35 86.6 M-97.35 58.5 L-93.4 47.55 -97.75 52.65 -94.0 44.95 -98.9 50.05 M-90.65 99.7 L-88.85 99.1 -79.1 101.85 -78.6 100.75 -90.65 97.5 M-100.3 102.2 L-97.45 103.05 -94.6 101.4 M-79.1 101.85 L-82.45 108.9 -82.45 112.45 -81.85 113.75 M30.45 123.5 L31.0 120.25 31.2 119.05 31.55 118.05 M-4.2 117.65 Q-5.05 120.5 -3.05 124.8 M-73.9 114.35 L-74.6 111.65 -74.6 111.05 Q-74.5 106.7 -72.15 103.35 L-72.75 103.45 -74.65 106.5 -75.9 112.6 -75.0 115.05 M-72.15 103.35 L-58.75 101.15 M-24.2 103.5 Q-24.4 99.45 -23.25 97.1 M42.4 8.65 L43.4 8.4 M42.4 8.65 L36.35 10.6 35.25 11.0 M39.05 18.6 L37.65 17.8 37.35 17.5 37.35 16.4 M34.35 29.35 L35.75 30.4 37.05 32.15 37.3 32.75 39.9 33.55 40.8 33.8 43.7 30.25 45.25 29.75 46.8 29.3 46.15 26.75 45.85 25.5 42.15 24.85 42.9 24.0 43.6 23.15 43.6 21.5 M39.1 28.4 L42.15 24.85 M47.65 22.35 L47.25 21.35 46.65 22.35 42.9 24.0 M55.1 20.25 L56.0 25.15 57.25 25.15 57.35 25.75 M47.65 22.35 L50.8 19.65 51.35 20.8 52.4 19.65 53.4 18.55 55.1 20.25 M51.35 20.8 L51.85 21.95 51.45 28.25 51.8 28.8 M52.9 28.1 L52.95 28.7 M52.9 28.1 L52.8 27.5 54.8 25.15 56.0 25.15 M47.1 34.4 L45.25 29.75 M51.45 28.25 L49.55 25.15 48.8 25.1 47.65 22.35 M46.15 26.75 Q47.1 25.1 48.8 25.1 M40.95 37.65 L40.95 34.55 40.05 33.7 39.9 33.55 M57.45 17.9 L61.75 28.35 M58.8 27.0 L55.3 20.15 M4.9 15.85 Q3.45 17.9 1.4 18.9 M34.35 29.35 L32.3 28.25 M30.65 29.5 L31.1 32.7 33.0 35.05 M34.95 35.65 L34.95 34.7 37.05 32.15 M28.3 30.4 L28.3 36.85 M6.8 23.35 Q5.25 25.6 4.65 30.15 M12.65 70.65 L16.9 74.8 21.2 79.0 M8.5 82.0 L1.3 84.0 -0.35 84.45 M3.4 88.95 Q13.1 88.6 21.15 85.9 L21.15 83.7 M1.7 87.8 L2.4 88.95 3.4 88.95 M5.8 97.25 L6.75 97.25 20.6 93.85 22.35 92.35 M5.8 97.25 L4.9 97.25 4.9 106.8 7.55 106.8 6.25 106.35 5.8 104.5 5.8 97.25 M1.8 105.7 L1.8 97.25 0.3 95.25 0.8 93.85 M12.65 70.65 L13.25 75.5 11.4 72.9 12.95 80.75 8.5 82.0 M21.15 85.9 L22.15 85.7 M61.7 117.4 L62.8 119.4 Q63.65 121.35 63.75 123.3 63.8 125.65 62.7 128.0 M89.35 115.65 L87.75 113.25 M30.45 123.5 Q30.35 126.0 31.05 128.75 M112.55 104.05 Q111.55 102.7 109.85 102.7 M90.4 118.5 Q90.8 120.55 90.45 122.7 M113.6 106.85 Q113.25 105.05 112.55 104.05 M90.4 118.5 Q90.05 117.05 89.35 115.65" ffdec:has-small-stroke="true" ffdec:original-stroke-width="0.5" fill="none" stroke="#000000" stroke-linecap="butt" stroke-linejoin="miter-clip" stroke-miterlimit="3.0" stroke-opacity="0.49803922" stroke-width="1.0"/>
    <path d="M-23.2 66.6 L-23.25 66.55" ffdec:has-small-stroke="true" ffdec:original-stroke-width="0.5" fill="none" stroke="#00ff00" stroke-linecap="butt" stroke-linejoin="miter-clip" stroke-miterlimit="3.0" stroke-opacity="0.49803922" stroke-width="1.0"/>
    <path d="M19.65 -100.9 L12.6 -99.65 2.25 -94.05 -4.1 -94.0 -5.75 -95.45 -7.55 -94.6 -9.05 -96.9 -13.45 -96.9 -15.45 -94.35 -16.45 -94.35 -16.45 -97.05 -19.0 -97.05 -26.3 -89.85 Q-32.1 -91.5 -35.3 -98.75 L-34.95 -100.65 -32.6 -101.6 Q-33.5 -104.95 -32.45 -107.9 L-33.15 -108.0 -31.7 -109.45 Q-28.45 -108.0 -24.85 -110.3 -21.7 -112.6 -20.75 -115.45 -20.15 -117.35 -20.45 -119.45 L-22.15 -125.05 Q-24.2 -122.05 -25.3 -123.6 L-24.45 -125.75 Q-27.35 -127.15 -31.85 -124.6 L-33.4 -123.3 -37.45 -124.3 -34.15 -132.75 -42.85 -124.6 -36.6 -133.2 -43.0 -129.75 -53.3 -121.75 -52.3 -124.45 -55.45 -120.75 -54.15 -125.6 -58.45 -117.2 -58.6 -119.2 -60.15 -120.9 Q-62.45 -120.1 -62.8 -116.3 L-62.75 -112.05 -65.3 -108.0 -71.7 -105.9 -70.3 -98.35 -71.0 -90.45 -73.6 -87.6 -81.3 -81.05 -81.85 -79.3 -84.15 -77.9 -88.3 -73.2 -88.3 -71.35 -84.15 -67.6 -82.35 -66.8 Q-81.65 -64.95 -78.3 -63.05 L-75.25 -62.7 -75.2 -62.7 -71.85 -61.05 -70.0 -61.05 -71.15 -64.0 -69.15 -63.45 -67.7 -64.1 Q-66.05 -61.0 -63.4 -60.2 L-62.3 -61.05 -64.15 -65.75 -59.3 -66.9 Q-55.1 -70.95 -53.45 -75.05 L-52.7 -72.45 -50.85 -71.35 -50.0 -74.35 -50.5 -75.7 -49.75 -77.7 -48.15 -76.45 -47.3 -78.05 -47.3 -79.85 -44.85 -78.75 -45.45 -81.7 -43.7 -82.7 -43.3 -80.35 -41.3 -83.05 -39.3 -84.35 Q-34.7 -84.4 -33.35 -82.1 L-40.5 -73.45 -42.45 -69.9 -42.25 -67.5 -43.15 -66.35 -43.15 -64.8 -40.35 -61.8 Q-39.55 -61.95 -39.5 -60.85 L-37.3 -58.5 -43.2 -47.5 Q-42.5 -44.5 -41.2 -43.75 L-43.05 -41.85 Q-47.2 -37.25 -49.6 -30.6 -53.7 -26.95 -55.6 -21.1 L-56.0 -20.45 Q-59.6 -17.35 -62.75 -11.15 -67.4 -7.7 -70.6 -1.75 L-74.9 -0.35 -79.0 2.35 -79.0 4.65 Q-77.7 5.9 -80.9 9.5 -85.15 11.65 -87.3 17.2 L-86.6 19.2 -88.3 20.35 -89.0 24.2 -88.2 25.15 -97.3 33.25 Q-109.6 44.0 -123.3 50.65 L-116.75 49.35 -111.05 46.5 -113.75 49.95 -108.05 47.8 -108.05 49.8 Q-109.7 53.4 -113.75 55.65 L-107.15 53.35 -104.9 56.25 Q-100.45 55.7 -97.35 58.5 L-98.75 62.35 Q-99.95 66.05 -99.45 69.6 -99.0 64.95 -96.95 62.3 -98.05 65.8 -97.75 71.9 -96.75 78.35 -93.9 81.9 -94.8 79.2 -93.9 75.45 -93.05 79.8 -90.85 82.8 L-87.35 86.6 -89.15 88.2 -85.05 93.1 -90.65 97.5 -90.65 99.7 -92.95 100.45 -94.6 101.4 -99.45 101.35 -100.3 102.2 -103.15 101.35 -106.75 104.4 -107.6 107.9 -103.6 109.45 -100.0 109.45 -93.3 113.75 -81.85 113.75 -81.3 115.05 -75.0 115.05 -73.9 114.35 -68.6 115.6 -59.9 114.75 -57.3 111.45 -56.6 106.2 -58.75 101.15 -58.15 101.05 -56.9 99.45 Q-59.85 91.55 -61.6 92.15 L-59.3 84.75 -58.0 82.75 -59.45 81.95 -66.8 81.95 -68.75 77.45 Q-69.15 73.35 -67.6 69.75 L-65.3 66.6 -66.3 72.45 -60.6 64.35 -62.3 69.9 Q-57.35 62.55 -51.6 60.4 -49.1 61.1 -47.0 62.75 L-47.9 59.65 Q-44.2 61.75 -41.15 64.85 L-40.15 67.3 Q-41.8 73.4 -43.55 78.9 L-45.0 83.25 -45.6 85.0 -46.45 87.35 -44.2 87.35 -43.15 85.45 -42.1 82.55 -41.6 80.5 Q-41.45 81.6 -41.55 82.85 -41.7 84.35 -42.15 86.0 L-42.9 88.05 -35.6 87.35 -33.35 86.1 Q-29.55 95.55 -24.2 103.5 -16.2 115.4 -4.8 123.85 L-3.05 124.8 Q5.3 128.55 31.05 128.75 44.5 128.85 62.7 128.0 L71.35 127.55 Q81.85 126.0 90.45 122.7 104.6 117.2 113.6 106.85 117.1 102.8 119.85 98.0 126.05 88.7 128.4 79.0 L128.8 77.0 Q129.25 73.8 127.85 76.05 124.55 86.3 116.8 95.85 113.65 99.6 109.85 102.7 101.85 109.15 91.05 112.45 L87.75 113.25 Q75.25 116.2 61.7 117.4 47.25 118.7 31.55 118.05 L9.05 116.15 Q5.85 115.15 2.95 113.65 -7.8 108.05 -14.75 95.6 L-18.3 88.2 -20.35 82.65 Q-19.55 83.75 -18.15 84.55 -16.1 85.65 -12.9 86.05 L-6.2 86.05 -0.35 84.45 1.7 87.8 -0.2 89.85 1.25 92.45 0.8 93.85 -2.35 98.5 -4.65 97.4 -6.65 100.3 -5.6 103.55 -3.9 103.55 -1.75 105.7 1.8 105.7 1.8 106.35 4.1 107.7 Q7.9 108.1 7.55 106.8 L10.9 108.0 17.65 107.4 24.15 104.95 24.9 101.55 22.9 96.15 22.35 92.35 24.15 90.8 23.05 87.55 23.05 84.45 21.15 83.7 21.2 79.0 22.25 80.05 24.8 77.45 Q26.7 77.65 29.55 80.9 21.95 66.35 16.5 52.9 14.4 57.05 11.2 47.05 9.65 38.3 11.2 38.6 L9.9 34.6 Q8.1 28.85 6.8 23.35 8.65 20.55 11.95 21.2 18.15 17.95 24.4 15.25 24.55 13.85 25.5 14.8 L29.2 13.25 Q29.05 12.1 30.8 12.65 L35.25 11.0 37.35 15.35 37.35 16.4 35.1 20.25 30.75 21.95 30.15 25.15 32.3 28.25 30.45 28.25 30.65 29.5 28.3 29.5 28.3 30.4 26.6 30.4 23.75 29.25 20.6 32.0 18.9 37.6 18.9 43.95 24.05 43.95 Q23.25 36.85 28.3 36.85 L28.3 37.95 31.85 36.85 33.0 35.05 33.85 36.1 34.95 35.65 34.95 39.35 37.1 43.05 37.7 45.35 40.15 45.35 42.15 42.9 40.95 38.25 40.95 37.65 43.55 39.95 46.45 37.95 47.1 34.4 48.3 36.55 51.1 35.5 52.8 32.55 52.15 29.35 51.8 28.8 52.95 28.7 53.55 33.65 55.1 36.85 56.0 37.5 58.95 35.8 58.95 29.5 Q57.7 27.65 57.35 25.75 L60.3 28.25 62.15 32.4 63.4 32.4 61.75 28.35 Q61.65 19.6 66.4 21.05 77.4 15.15 88.2 11.05 96.65 7.85 105.05 5.45 104.6 4.2 105.85 4.45 109.25 0.3 111.55 -4.15 110.8 -5.15 112.35 -5.75 L114.1 -10.0 Q113.1 -10.85 114.75 -12.1 116.05 -16.65 116.4 -21.45 109.1 -9.15 88.2 0.9 L85.95 2.0 Q84.5 4.4 83.8 3.0 74.65 7.05 62.9 10.45 61.55 16.7 57.45 17.9 L54.0 9.5 52.65 10.25 53.4 14.25 53.4 18.55 52.75 17.95 51.2 14.85 46.15 12.35 43.4 8.4 Q49.65 6.55 55.95 5.25 63.65 -5.15 63.1 -17.95 57.1 -8.2 38.6 -0.2 L32.6 -17.6 27.05 -23.9 25.7 -28.55 22.8 -31.95 21.55 -36.4 19.4 -37.6 14.85 -43.15 13.05 -48.4 9.75 -53.1 4.9 -62.25 4.6 -62.25 4.65 -63.05 Q4.5 -67.5 2.9 -69.5 L4.9 -68.55 1.35 -73.25 1.8 -75.9 4.95 -74.35 1.65 -78.6 1.2 -79.55 8.1 -76.4 12.75 -77.2 17.95 -84.55 22.9 -87.1 31.45 -85.75 23.2 -90.9 18.1 -90.9 11.45 -87.75 12.75 -89.65 15.05 -94.25 19.95 -99.2 25.65 -99.2 19.65 -100.9 M12.95 -28.9 L15.85 -23.6 18.3 -14.85 22.75 -3.45 Q27.85 -0.1 29.85 3.25 19.95 6.8 7.35 9.95 6.5 13.55 4.9 15.85 -0.55 -12.1 -1.05 -38.5 L-1.05 -48.8 -0.85 -53.6 -0.65 -50.9 Q-0.4 -48.5 0.25 -46.3 4.45 -38.4 9.35 -32.2 11.15 -30.05 12.95 -28.9 M16.15 -36.5 L16.25 -36.5 16.35 -36.05 16.15 -36.5 M-17.5 -64.95 L-17.35 -64.3 -17.45 -64.35 -17.5 -64.95 M-22.35 80.15 Q-23.1 80.3 -24.2 80.9 L-22.45 79.9 -22.35 80.15 M-101.45 39.95 Q-98.05 37.35 -97.6 37.95 -97.4 38.3 -98.3 39.95 -102.55 44.85 -105.05 43.65 L-101.45 39.95 Z" fill="none" stroke="#000000" stroke-linecap="butt" stroke-linejoin="miter-clip" stroke-miterlimit="3.0" stroke-opacity="0.49803922" stroke-width="1.0"/>
  </g>
  <defs>
    <linearGradient gradientTransform="matrix(0.0182, 0.0, 0.0, 0.007, 10.75, -95.15)" gradientUnits="userSpaceOnUse" id="gradient0" spreadMethod="pad" x1="-819.2" x2="819.2">
      <stop offset="0.0" stop-color="#b9af79"/>
      <stop offset="0.9882352941176471" stop-color="#aca16e"/>
    </linearGradient>
    <linearGradient gradientTransform="matrix(0.024, 0.0, 0.0, 0.0096, 11.45, -84.25)" gradientUnits="userSpaceOnUse" id="gradient1" spreadMethod="pad" x1="-819.2" x2="819.2">
      <stop offset="0.0" stop-color="#8a8148"/>
      <stop offset="0.9882352941176471" stop-color="#7c7046"/>
    </linearGradient>
    <linearGradient gradientTransform="matrix(0.0237, 0.0, 0.0, 0.0069, 11.65, -89.8)" gradientUnits="userSpaceOnUse" id="gradient2" spreadMethod="pad" x1="-819.2" x2="819.2">
      <stop offset="0.0" stop-color="#b9af79"/>
      <stop offset="0.9882352941176471" stop-color="#aca16e"/>
    </linearGradient>
    <linearGradient gradientTransform="matrix(0.0115, 0.0, 0.0, 0.0076, 10.55, -92.95)" gradientUnits="userSpaceOnUse" id="gradient3" spreadMethod="pad" x1="-819.2" x2="819.2">
      <stop offset="0.0" stop-color="#8a8148"/>
      <stop offset="0.9882352941176471" stop-color="#7c7046"/>
    </linearGradient>
    <linearGradient gradientTransform="matrix(0.0056, 0.0, 0.0, 0.0595, 0.35, -29.85)" gradientUnits="userSpaceOnUse" id="gradient4" spreadMethod="pad" x1="-819.2" x2="819.2">
      <stop offset="0.0" stop-color="#333333"/>
      <stop offset="1.0" stop-color="#4d4d4d"/>
    </linearGradient>
    <linearGradient gradientTransform="matrix(0.0024, 0.0, 0.0, 0.0071, 1.75, -65.1)" gradientUnits="userSpaceOnUse" id="gradient5" spreadMethod="pad" x1="-819.2" x2="819.2">
      <stop offset="0.0" stop-color="#3d2e30"/>
      <stop offset="0.9882352941176471" stop-color="#221a1c"/>
    </linearGradient>
    <linearGradient gradientTransform="matrix(0.0059, 0.0, 0.0, 0.0123, 9.2, -50.75)" gradientUnits="userSpaceOnUse" id="gradient6" spreadMethod="pad" x1="-819.2" x2="819.2">
      <stop offset="0.0" stop-color="#3d2e30"/>
      <stop offset="0.9882352941176471" stop-color="#221a1c"/>
    </linearGradient>
    <linearGradient gradientTransform="matrix(0.0138, 0.0, 0.0, 0.0249, 26.1, -17.85)" gradientUnits="userSpaceOnUse" id="gradient7" spreadMethod="pad" x1="-819.2" x2="819.2">
      <stop offset="0.0" stop-color="#3d2e30"/>
      <stop offset="0.9882352941176471" stop-color="#221a1c"/>
    </linearGradient>
    <linearGradient gradientTransform="matrix(0.0116, 0.0, 0.0, 0.0201, 8.6, -44.35)" gradientUnits="userSpaceOnUse" id="gradient8" spreadMethod="pad" x1="-819.2" x2="819.2">
      <stop offset="0.0" stop-color="#3d2e30"/>
      <stop offset="0.9882352941176471" stop-color="#221a1c"/>
    </linearGradient>
    <linearGradient gradientTransform="matrix(-0.0214, 0.0124, -0.0039, -0.0067, 35.25, 1.2)" gradientUnits="userSpaceOnUse" id="gradient9" spreadMethod="pad" x1="-819.2" x2="819.2">
      <stop offset="0.0" stop-color="#9f9f9f"/>
      <stop offset="0.9882352941176471" stop-color="#808080"/>
    </linearGradient>
    <linearGradient gradientTransform="matrix(-0.003, 0.0052, -0.0039, -0.0022, 57.35, -4.05)" gradientUnits="userSpaceOnUse" id="gradient10" spreadMethod="pad" x1="-819.2" x2="819.2">
      <stop offset="0.0" stop-color="#d8d8d8"/>
      <stop offset="1.0" stop-color="#eaeaea"/>
    </linearGradient>
    <linearGradient gradientTransform="matrix(-0.0175, 0.01, -0.0032, -0.0056, 85.55, 2.35)" gradientUnits="userSpaceOnUse" id="gradient11" spreadMethod="pad" x1="-819.2" x2="819.2">
      <stop offset="0.0" stop-color="#9f9f9f"/>
      <stop offset="0.9882352941176471" stop-color="#808080"/>
    </linearGradient>
    <linearGradient gradientTransform="matrix(-9.0E-4, 0.0034, -0.0034, -9.0E-4, 110.65, -7.9)" gradientUnits="userSpaceOnUse" id="gradient12" spreadMethod="pad" x1="-819.2" x2="819.2">
      <stop offset="0.0" stop-color="#d8d8d8"/>
      <stop offset="1.0" stop-color="#eaeaea"/>
    </linearGradient>
    <linearGradient gradientTransform="matrix(-0.0019, 0.0074, -0.002, -5.0E-4, 113.95, -15.6)" gradientUnits="userSpaceOnUse" id="gradient13" spreadMethod="pad" x1="-819.2" x2="819.2">
      <stop offset="0.0" stop-color="#d8d8d8"/>
      <stop offset="1.0" stop-color="#eaeaea"/>
    </linearGradient>
    <linearGradient gradientTransform="matrix(-6.0E-4, 0.0022, -0.0056, -0.0015, 105.4, 0.45)" gradientUnits="userSpaceOnUse" id="gradient14" spreadMethod="pad" x1="-819.2" x2="819.2">
      <stop offset="0.0" stop-color="#d8d8d8"/>
      <stop offset="1.0" stop-color="#eaeaea"/>
    </linearGradient>
    <linearGradient gradientTransform="matrix(0.0274, 0.0, 0.0, 0.0154, -42.85, -120.6)" gradientUnits="userSpaceOnUse" id="gradient15" spreadMethod="pad" x1="-819.2" x2="819.2">
      <stop offset="0.0" stop-color="#684f53"/>
      <stop offset="0.9882352941176471" stop-color="#563f42"/>
    </linearGradient>
    <linearGradient gradientTransform="matrix(-0.0073, 0.0, 0.0, -0.014, -58.45, -101.9)" gradientUnits="userSpaceOnUse" id="gradient16" spreadMethod="pad" x1="-819.2" x2="819.2">
      <stop offset="0.0" stop-color="#c9abab"/>
      <stop offset="1.0" stop-color="#b59898"/>
    </linearGradient>
    <linearGradient gradientTransform="matrix(0.0102, 0.0, 0.0, 0.0124, -40.85, -103.25)" gradientUnits="userSpaceOnUse" id="gradient17" spreadMethod="pad" x1="-819.2" x2="819.2">
      <stop offset="0.0" stop-color="#996666"/>
      <stop offset="1.0" stop-color="#735959"/>
    </linearGradient>
    <linearGradient gradientTransform="matrix(0.0132, 0.0, 0.0, 0.0071, -33.2, -114.05)" gradientUnits="userSpaceOnUse" id="gradient18" spreadMethod="pad" x1="-819.2" x2="819.2">
      <stop offset="0.0" stop-color="#3d2e30"/>
      <stop offset="0.9882352941176471" stop-color="#221a1c"/>
    </linearGradient>
    <linearGradient gradientTransform="matrix(0.0216, 0.0, 0.0, 0.0123, -53.35, -91.75)" gradientUnits="userSpaceOnUse" id="gradient19" spreadMethod="pad" x1="-819.2" x2="819.2">
      <stop offset="0.0" stop-color="#3d2e30"/>
      <stop offset="0.9882352941176471" stop-color="#221a1c"/>
    </linearGradient>
    <linearGradient gradientTransform="matrix(0.0094, 0.0, 0.0, 0.0044, -74.15, -81.8)" gradientUnits="userSpaceOnUse" id="gradient20" spreadMethod="pad" x1="-819.2" x2="819.2">
      <stop offset="0.0" stop-color="#684f53"/>
      <stop offset="0.9882352941176471" stop-color="#563f42"/>
    </linearGradient>
    <linearGradient gradientTransform="matrix(0.0043, 0.0, 0.0, 0.0042, -10.25, -92.9)" gradientUnits="userSpaceOnUse" id="gradient21" spreadMethod="pad" x1="-819.2" x2="819.2">
      <stop offset="0.0" stop-color="#8a8148"/>
      <stop offset="0.9882352941176471" stop-color="#7c7046"/>
    </linearGradient>
    <linearGradient gradientTransform="matrix(0.0042, 0.0, 0.0, 0.0022, -12.05, -95.15)" gradientUnits="userSpaceOnUse" id="gradient22" spreadMethod="pad" x1="-819.2" x2="819.2">
      <stop offset="0.0" stop-color="#b9af79"/>
      <stop offset="0.9882352941176471" stop-color="#aca16e"/>
    </linearGradient>
    <linearGradient gradientTransform="matrix(0.0186, 0.0, 0.0, 0.0173, -27.1, -81.7)" gradientUnits="userSpaceOnUse" id="gradient23" spreadMethod="pad" x1="-819.2" x2="819.2">
      <stop offset="0.0" stop-color="#8a8148"/>
      <stop offset="0.9882352941176471" stop-color="#7c7046"/>
    </linearGradient>
    <linearGradient gradientTransform="matrix(0.0159, 0.0, 0.0, 0.0173, -29.45, -82.9)" gradientUnits="userSpaceOnUse" id="gradient24" spreadMethod="pad" x1="-819.2" x2="819.2">
      <stop offset="0.0" stop-color="#b9af79"/>
      <stop offset="0.9882352941176471" stop-color="#aca16e"/>
    </linearGradient>
    <linearGradient gradientTransform="matrix(0.0076, 0.0, 0.0, 0.0065, -21.3, -89.05)" gradientUnits="userSpaceOnUse" id="gradient25" spreadMethod="pad" x1="-819.2" x2="819.2">
      <stop offset="0.0" stop-color="#b9af79"/>
      <stop offset="0.9882352941176471" stop-color="#aca16e"/>
    </linearGradient>
    <linearGradient gradientTransform="matrix(0.0093, 0.0, 0.0, 0.018, -20.6, -71.0)" gradientUnits="userSpaceOnUse" id="gradient26" spreadMethod="pad" x1="-819.2" x2="819.2">
      <stop offset="0.0" stop-color="#333333"/>
      <stop offset="1.0" stop-color="#4d4d4d"/>
    </linearGradient>
    <linearGradient gradientTransform="matrix(0.0056, 0.0, 0.0, 0.0218, -9.3, -62.25)" gradientUnits="userSpaceOnUse" id="gradient27" spreadMethod="pad" x1="-819.2" x2="819.2">
      <stop offset="0.0" stop-color="#333333"/>
      <stop offset="1.0" stop-color="#4d4d4d"/>
    </linearGradient>
    <linearGradient gradientTransform="matrix(0.0074, 0.0, 0.0, 0.009, -33.25, -89.5)" gradientUnits="userSpaceOnUse" id="gradient28" spreadMethod="pad" x1="-819.2" x2="819.2">
      <stop offset="0.0" stop-color="#3d2e30"/>
      <stop offset="0.9882352941176471" stop-color="#221a1c"/>
    </linearGradient>
    <linearGradient gradientTransform="matrix(0.0066, -0.0066, 0.0047, 0.0047, -33.75, -70.05)" gradientUnits="userSpaceOnUse" id="gradient29" spreadMethod="pad" x1="-819.2" x2="819.2">
      <stop offset="0.0" stop-color="#9f9f9f"/>
      <stop offset="0.9882352941176471" stop-color="#808080"/>
    </linearGradient>
    <linearGradient gradientTransform="matrix(0.0119, 0.0, 0.0, 0.0177, -30.9, -63.3)" gradientUnits="userSpaceOnUse" id="gradient30" spreadMethod="pad" x1="-819.2" x2="819.2">
      <stop offset="0.0" stop-color="#684f53"/>
      <stop offset="0.9882352941176471" stop-color="#563f42"/>
    </linearGradient>
    <linearGradient gradientTransform="matrix(0.0152, 0.0, 0.0, 0.0258, -30.75, -54.65)" gradientUnits="userSpaceOnUse" id="gradient31" spreadMethod="pad" x1="-819.2" x2="819.2">
      <stop offset="0.0" stop-color="#3d2e30"/>
      <stop offset="0.9882352941176471" stop-color="#221a1c"/>
    </linearGradient>
    <linearGradient gradientTransform="matrix(0.003, 0.0, 0.0, 0.0144, -25.25, -45.35)" gradientUnits="userSpaceOnUse" id="gradient32" spreadMethod="pad" x1="-819.2" x2="819.2">
      <stop offset="0.0" stop-color="#684f53"/>
      <stop offset="0.9882352941176471" stop-color="#563f42"/>
    </linearGradient>
    <linearGradient gradientTransform="matrix(0.0037, 0.0, 0.0, 0.0285, -15.75, -41.0)" gradientUnits="userSpaceOnUse" id="gradient33" spreadMethod="pad" x1="-819.2" x2="819.2">
      <stop offset="0.0" stop-color="#333333"/>
      <stop offset="1.0" stop-color="#4d4d4d"/>
    </linearGradient>
    <linearGradient gradientTransform="matrix(0.0179, 0.0, 0.0, 0.0164, -65.0, -76.1)" gradientUnits="userSpaceOnUse" id="gradient34" spreadMethod="pad" x1="-819.2" x2="819.2">
      <stop offset="0.0" stop-color="#3d2e30"/>
      <stop offset="0.9882352941176471" stop-color="#221a1c"/>
    </linearGradient>
    <linearGradient gradientTransform="matrix(0.0198, 0.0, 0.0, 0.0254, -43.15, -25.15)" gradientUnits="userSpaceOnUse" id="gradient35" spreadMethod="pad" x1="-819.2" x2="819.2">
      <stop offset="0.0" stop-color="#3d2e30"/>
      <stop offset="0.9882352941176471" stop-color="#221a1c"/>
    </linearGradient>
    <linearGradient gradientTransform="matrix(0.007, 0.0, 0.0, 0.007, -49.9, -25.2)" gradientUnits="userSpaceOnUse" id="gradient36" spreadMethod="pad" x1="-819.2" x2="819.2">
      <stop offset="0.0" stop-color="#684f53"/>
      <stop offset="0.9882352941176471" stop-color="#563f42"/>
    </linearGradient>
    <linearGradient gradientTransform="matrix(0.0052, 0.0, 0.0, 0.0077, -43.45, -37.1)" gradientUnits="userSpaceOnUse" id="gradient37" spreadMethod="pad" x1="-819.2" x2="819.2">
      <stop offset="0.0" stop-color="#684f53"/>
      <stop offset="0.9882352941176471" stop-color="#563f42"/>
    </linearGradient>
    <linearGradient gradientTransform="matrix(0.0363, 0.0, 0.0, 0.0155, -57.55, 4.5)" gradientUnits="userSpaceOnUse" id="gradient38" spreadMethod="pad" x1="-819.2" x2="819.2">
      <stop offset="0.0" stop-color="#b9af79"/>
      <stop offset="0.9882352941176471" stop-color="#aca16e"/>
    </linearGradient>
    <linearGradient gradientTransform="matrix(0.012, 0.0, 0.0, 0.011, -58.65, -11.3)" gradientUnits="userSpaceOnUse" id="gradient39" spreadMethod="pad" x1="-819.2" x2="819.2">
      <stop offset="0.0" stop-color="#684f53"/>
      <stop offset="0.9882352941176471" stop-color="#563f42"/>
    </linearGradient>
    <linearGradient gradientTransform="matrix(0.0373, 0.0, 0.0, 0.0207, -58.5, 10.65)" gradientUnits="userSpaceOnUse" id="gradient40" spreadMethod="pad" x1="-819.2" x2="819.2">
      <stop offset="0.0" stop-color="#8a8148"/>
      <stop offset="0.9882352941176471" stop-color="#7c7046"/>
    </linearGradient>
    <linearGradient gradientTransform="matrix(0.0048, 0.0, 0.0, 0.0377, -9.1, -12.55)" gradientUnits="userSpaceOnUse" id="gradient41" spreadMethod="pad" x1="-819.2" x2="819.2">
      <stop offset="0.0" stop-color="#333333"/>
      <stop offset="1.0" stop-color="#4d4d4d"/>
    </linearGradient>
    <linearGradient gradientTransform="matrix(0.0045, 0.0, 0.0, 0.0206, -19.85, -26.05)" gradientUnits="userSpaceOnUse" id="gradient42" spreadMethod="pad" x1="-819.2" x2="819.2">
      <stop offset="0.0" stop-color="#3d2e30"/>
      <stop offset="0.9882352941176471" stop-color="#221a1c"/>
    </linearGradient>
    <linearGradient gradientTransform="matrix(0.0039, 0.0, 0.0, 0.0051, -34.95, -48.3)" gradientUnits="userSpaceOnUse" id="gradient43" spreadMethod="pad" x1="-819.2" x2="819.2">
      <stop offset="0.0" stop-color="#684f53"/>
      <stop offset="0.9882352941176471" stop-color="#563f42"/>
    </linearGradient>
    <linearGradient gradientTransform="matrix(0.0027, 0.0, 0.0, 0.0054, -36.15, -38.9)" gradientUnits="userSpaceOnUse" id="gradient44" spreadMethod="pad" x1="-819.2" x2="819.2">
      <stop offset="0.0" stop-color="#684f53"/>
      <stop offset="0.9882352941176471" stop-color="#563f42"/>
    </linearGradient>
    <linearGradient gradientTransform="matrix(0.0094, 0.0, 0.0, 0.0505, -18.2, 8.55)" gradientUnits="userSpaceOnUse" id="gradient45" spreadMethod="pad" x1="-819.2" x2="819.2">
      <stop offset="0.0" stop-color="#684f53"/>
      <stop offset="0.9882352941176471" stop-color="#563f42"/>
    </linearGradient>
    <linearGradient gradientTransform="matrix(0.0086, 0.0, 0.0, 0.0297, -27.15, 12.35)" gradientUnits="userSpaceOnUse" id="gradient46" spreadMethod="pad" x1="-819.2" x2="819.2">
      <stop offset="0.0" stop-color="#333333"/>
      <stop offset="1.0" stop-color="#4d4d4d"/>
    </linearGradient>
    <linearGradient gradientTransform="matrix(0.0112, 0.0, 0.0, 0.0378, -8.45, 10.65)" gradientUnits="userSpaceOnUse" id="gradient47" spreadMethod="pad" x1="-819.2" x2="819.2">
      <stop offset="0.0" stop-color="#3d2e30"/>
      <stop offset="0.9882352941176471" stop-color="#221a1c"/>
    </linearGradient>
    <linearGradient gradientTransform="matrix(0.0358, 0.0, 0.0, 0.0462, -61.05, 52.35)" gradientUnits="userSpaceOnUse" id="gradient48" spreadMethod="pad" x1="-819.2" x2="819.2">
      <stop offset="0.0" stop-color="#3d2e30"/>
      <stop offset="0.9882352941176471" stop-color="#221a1c"/>
    </linearGradient>
    <linearGradient gradientTransform="matrix(0.0133, 0.0, 0.0, 0.0219, -32.65, 60.95)" gradientUnits="userSpaceOnUse" id="gradient49" spreadMethod="pad" x1="-819.2" x2="819.2">
      <stop offset="0.0" stop-color="#333333"/>
      <stop offset="1.0" stop-color="#4d4d4d"/>
    </linearGradient>
    <linearGradient gradientTransform="matrix(0.0258, 0.0, 0.0, 0.0097, -67.5, 14.3)" gradientUnits="userSpaceOnUse" id="gradient50" spreadMethod="pad" x1="-819.2" x2="819.2">
      <stop offset="0.0" stop-color="#b9af79"/>
      <stop offset="0.9882352941176471" stop-color="#aca16e"/>
    </linearGradient>
    <linearGradient gradientTransform="matrix(0.0092, 0.0, 0.0, 0.0062, -73.35, 4.4)" gradientUnits="userSpaceOnUse" id="gradient51" spreadMethod="pad" x1="-819.2" x2="819.2">
      <stop offset="0.0" stop-color="#8a8148"/>
      <stop offset="0.9882352941176471" stop-color="#7c7046"/>
    </linearGradient>
    <linearGradient gradientTransform="matrix(0.0151, 0.0, 0.0, 0.0422, -87.2, 55.25)" gradientUnits="userSpaceOnUse" id="gradient52" spreadMethod="pad" x1="-819.2" x2="819.2">
      <stop offset="0.0" stop-color="#684f53"/>
      <stop offset="0.9882352941176471" stop-color="#563f42"/>
    </linearGradient>
    <linearGradient gradientTransform="matrix(0.0113, 0.0, 0.0, 0.0079, -67.3, 89.2)" gradientUnits="userSpaceOnUse" id="gradient53" spreadMethod="pad" x1="-819.2" x2="819.2">
      <stop offset="0.0" stop-color="#333333"/>
      <stop offset="1.0" stop-color="#4d4d4d"/>
    </linearGradient>
    <linearGradient gradientTransform="matrix(0.0206, 0.0, 0.0, 0.014, -73.8, 103.55)" gradientUnits="userSpaceOnUse" id="gradient54" spreadMethod="pad" x1="-819.2" x2="819.2">
      <stop offset="0.0" stop-color="#996666"/>
      <stop offset="1.0" stop-color="#735959"/>
    </linearGradient>
    <linearGradient gradientTransform="matrix(0.0127, 0.0, 0.0, 0.0119, -31.8, 76.25)" gradientUnits="userSpaceOnUse" id="gradient55" spreadMethod="pad" x1="-819.2" x2="819.2">
      <stop offset="0.0" stop-color="#333333"/>
      <stop offset="1.0" stop-color="#4d4d4d"/>
    </linearGradient>
    <linearGradient gradientTransform="matrix(0.016, 0.0, 0.0, 0.0234, -5.85, 63.85)" gradientUnits="userSpaceOnUse" id="gradient56" spreadMethod="pad" x1="-819.2" x2="819.2">
      <stop offset="0.0" stop-color="#333333"/>
      <stop offset="1.0" stop-color="#4d4d4d"/>
    </linearGradient>
    <linearGradient gradientTransform="matrix(-0.0107, -0.0107, 0.006, -0.006, -13.0, 107.1)" gradientUnits="userSpaceOnUse" id="gradient57" spreadMethod="pad" x1="-819.2" x2="819.2">
      <stop offset="0.0" stop-color="#c28f91"/>
      <stop offset="1.0" stop-color="#91686f"/>
    </linearGradient>
    <linearGradient gradientTransform="matrix(0.0217, 0.0, 0.0, 0.0156, -105.55, 37.9)" gradientUnits="userSpaceOnUse" id="gradient58" spreadMethod="pad" x1="-819.2" x2="819.2">
      <stop offset="0.0" stop-color="#b9af79"/>
      <stop offset="0.9882352941176471" stop-color="#aca16e"/>
    </linearGradient>
    <linearGradient gradientTransform="matrix(0.0174, 0.0, 0.0, 0.0089, -93.35, 106.4)" gradientUnits="userSpaceOnUse" id="gradient59" spreadMethod="pad" x1="-819.2" x2="819.2">
      <stop offset="0.0" stop-color="#333333"/>
      <stop offset="1.0" stop-color="#4d4d4d"/>
    </linearGradient>
    <linearGradient gradientTransform="matrix(0.011, 0.0, 0.0, 0.0088, -65.6, 108.35)" gradientUnits="userSpaceOnUse" id="gradient60" spreadMethod="pad" x1="-819.2" x2="819.2">
      <stop offset="0.0" stop-color="#333333"/>
      <stop offset="1.0" stop-color="#4d4d4d"/>
    </linearGradient>
    <linearGradient gradientTransform="matrix(0.0147, 0.0, 0.0, 0.0283, 17.5, 57.75)" gradientUnits="userSpaceOnUse" id="gradient61" spreadMethod="pad" x1="-819.2" x2="819.2">
      <stop offset="0.0" stop-color="#333333"/>
      <stop offset="1.0" stop-color="#4d4d4d"/>
    </linearGradient>
    <linearGradient gradientTransform="matrix(0.0121, 0.0, 0.0, 0.0112, 11.25, 79.8)" gradientUnits="userSpaceOnUse" id="gradient62" spreadMethod="pad" x1="-819.2" x2="819.2">
      <stop offset="0.0" stop-color="#333333"/>
      <stop offset="1.0" stop-color="#4d4d4d"/>
    </linearGradient>
    <linearGradient gradientTransform="matrix(0.0149, 0.0, 0.0, 0.0147, 11.95, 95.75)" gradientUnits="userSpaceOnUse" id="gradient63" spreadMethod="pad" x1="-819.2" x2="819.2">
      <stop offset="0.0" stop-color="#996666"/>
      <stop offset="1.0" stop-color="#735959"/>
    </linearGradient>
    <linearGradient gradientTransform="matrix(0.0117, 0.0, 0.0, 0.0096, 15.35, 100.15)" gradientUnits="userSpaceOnUse" id="gradient64" spreadMethod="pad" x1="-819.2" x2="819.2">
      <stop offset="0.0" stop-color="#333333"/>
      <stop offset="1.0" stop-color="#4d4d4d"/>
    </linearGradient>
  </defs>
</svg>
