<?xml version="1.0" encoding="UTF-8" standalone="no"?>
<svg xmlns:ffdec="https://www.free-decompiler.com/flash" xmlns:xlink="http://www.w3.org/1999/xlink" ffdec:objectType="shape" height="67.9px" width="51.15px" xmlns="http://www.w3.org/2000/svg">
  <g transform="matrix(1.0, 0.0, 0.0, 1.0, 25.6, 33.95)">
    <path d="M-25.05 1.7 L-25.1 0.45 Q-25.1 -7.45 -19.4 -18.15 L-16.4 -22.9 Q-12.35 -28.25 -8.95 -30.55 -4.85 -33.45 0.0 -33.45 4.85 -33.45 8.95 -30.55 L10.7 -29.15 10.95 -28.95 11.2 -28.7 11.4 -28.55 11.8 -28.15 Q13.95 -26.05 16.3 -22.9 L19.35 -18.15 Q25.05 -7.45 25.05 0.45 25.05 14.15 17.65 23.8 10.35 33.45 0.0 33.45 -10.4 33.45 -17.75 23.8 -24.4 15.05 -25.0 2.95 L-25.05 2.55 -25.05 2.5 -25.05 2.05 -25.05 1.7 M2.2 -30.3 L0.1 -30.5 Q-4.2 -30.55 -7.75 -27.9 -10.75 -25.75 -14.3 -20.85 L-16.9 -16.5 Q-21.95 -6.75 -21.9 0.5 L-21.85 2.55 Q-21.65 7.8 -20.25 12.4 -18.6 17.6 -15.5 21.9 -10.7 28.45 -4.4 30.15 L0.1 30.75 Q9.2 30.7 15.7 21.9 22.15 13.05 22.15 0.5 22.15 -6.75 17.15 -16.5 L14.5 -20.85 11.2 -24.9 7.95 -27.9 Q5.3 -29.85 2.2 -30.3" fill="#8d583f" fill-rule="evenodd" stroke="none"/>
    <path d="M-20.25 12.4 Q-21.65 7.8 -21.85 2.55 L-21.9 0.5 Q-21.95 -6.75 -16.9 -16.5 L-14.3 -20.85 Q-10.75 -25.75 -7.75 -27.9 -4.2 -30.55 0.1 -30.5 L2.2 -30.3 Q7.9 -21.7 11.2 -14.15 21.35 8.85 9.15 21.55 -7.0 23.05 -20.25 12.4" fill="#a04545" fill-rule="evenodd" stroke="none"/>
    <path d="M-4.4 30.15 Q-10.7 28.45 -15.5 21.9 -18.6 17.6 -20.25 12.4 -7.0 23.05 9.15 21.55 4.2 26.7 -4.4 30.15" fill="#7a3434" fill-rule="evenodd" stroke="none"/>
    <path d="M-25.05 1.7 L-25.1 0.45 Q-25.1 -7.45 -19.4 -18.15 L-16.4 -22.9 Q-12.35 -28.25 -8.95 -30.55 -4.85 -33.45 0.0 -33.45 4.85 -33.45 8.95 -30.55 L10.7 -29.15" fill="none" stroke="#d9aaaa" stroke-linecap="butt" stroke-linejoin="miter-clip" stroke-miterlimit="3.0" stroke-width="1.0"/>
    <path d="M11.8 -28.15 Q13.95 -26.05 16.3 -22.9 L19.35 -18.15 Q25.05 -7.45 25.05 0.45 25.05 14.15 17.65 23.8 10.35 33.45 0.0 33.45 -10.4 33.45 -17.75 23.8 -24.4 15.05 -25.0 2.95" fill="none" stroke="#ba6868" stroke-linecap="butt" stroke-linejoin="miter-clip" stroke-miterlimit="3.0" stroke-width="1.0"/>
    <path d="M12.2 25.95 Q12.2 26.5 8.45 28.05 4.75 29.6 -0.4 29.55 -5.5 29.5 -8.95 28.0 -12.35 26.5 -12.35 25.95 L-8.75 26.15 -0.1 26.85 8.6 26.15 12.2 25.95" fill="#4f2222" fill-rule="evenodd" stroke="none"/>
    <path d="M7.0 4.6 Q6.3 4.6 5.8 5.1 5.3 5.6 5.3 6.3 5.3 6.95 5.8 7.45 6.3 7.95 7.0 7.95 7.65 7.95 8.15 7.45 8.65 6.95 8.65 6.3 8.65 5.6 8.15 5.1 7.65 4.6 7.0 4.6 M8.4 4.8 Q9.05 5.45 9.05 6.35 9.05 7.25 8.4 7.9 7.75 8.5 6.85 8.5 5.95 8.5 5.35 7.9 4.7 7.25 4.7 6.35 4.7 5.45 5.35 4.8 5.95 4.2 6.85 4.2 7.75 4.2 8.4 4.8" fill="#e4dfd3" fill-opacity="0.6" fill-rule="evenodd" stroke="none"/>
    <path d="M7.0 4.6 Q7.65 4.6 8.15 5.1 8.65 5.6 8.65 6.3 8.65 6.95 8.15 7.45 7.65 7.95 7.0 7.95 6.3 7.95 5.8 7.45 5.3 6.95 5.3 6.3 5.3 5.6 5.8 5.1 6.3 4.6 7.0 4.6" fill="#fdfff0" fill-rule="evenodd" stroke="none"/>
    <path d="M-1.0 -6.85 Q3.1 -7.0 6.05 -2.35 9.05 2.25 9.25 8.9 9.4 15.55 6.7 20.3 3.95 25.1 -0.15 25.2 -4.25 25.3 -7.25 20.7 -10.25 16.05 -10.4 9.45 -10.6 2.8 -7.85 -1.95 -5.15 -6.75 -1.0 -6.85" fill="#c17171" fill-opacity="0.8" fill-rule="evenodd" stroke="none"/>
    <path d="M10.2 -18.05 Q12.1 -16.1 12.1 -13.45 12.1 -10.8 10.2 -8.9 8.3 -6.95 5.65 -6.95 2.95 -6.95 1.05 -8.9 -0.85 -10.8 -0.85 -13.45 -0.85 -16.1 1.05 -18.05 2.95 -19.9 5.65 -19.9 8.3 -19.9 10.2 -18.05" fill="#b87941" fill-rule="evenodd" stroke="none"/>
    <path d="M5.7 -19.4 Q8.15 -19.4 9.9 -17.65 11.65 -15.95 11.65 -13.5 11.65 -11.05 9.9 -9.3 8.15 -7.55 5.7 -7.55 3.25 -7.55 1.5 -9.3 -0.25 -11.05 -0.25 -13.5 -0.25 -15.95 1.5 -17.65 3.25 -19.4 5.7 -19.4 M9.25 -16.9 Q7.9 -18.25 6.05 -18.2 4.15 -18.25 2.8 -16.9 1.45 -15.55 1.5 -13.65 1.45 -11.8 2.8 -10.5 4.15 -9.15 6.05 -9.15 7.9 -9.15 9.25 -10.5 10.6 -11.8 10.6 -13.65 10.6 -15.55 9.25 -16.9" fill="#e4dfd3" fill-opacity="0.6" fill-rule="evenodd" stroke="none"/>
    <path d="M9.25 -16.9 Q10.6 -15.55 10.6 -13.65 10.6 -11.8 9.25 -10.5 7.9 -9.15 6.05 -9.15 4.15 -9.15 2.8 -10.5 1.45 -11.8 1.5 -13.65 1.45 -15.55 2.8 -16.9 4.15 -18.25 6.05 -18.2 7.9 -18.25 9.25 -16.9" fill="#fdfff0" fill-rule="evenodd" stroke="none"/>
    <path d="M-9.7 2.45 Q-9.7 1.05 -8.7 0.05 -7.7 -0.9 -6.35 -0.9 -4.95 -0.9 -4.0 0.05 -3.0 1.05 -3.0 2.45 -3.0 3.8 -4.0 4.8 -4.95 5.8 -6.35 5.8 -7.7 5.8 -8.7 4.8 -9.7 3.8 -9.7 2.45" fill="#ca9768" fill-rule="evenodd" stroke="none"/>
  </g>
</svg>
