<?xml version="1.0" encoding="UTF-8" standalone="no"?>
<svg xmlns:ffdec="https://www.free-decompiler.com/flash" xmlns:xlink="http://www.w3.org/1999/xlink" ffdec:objectType="shape" height="334.55px" width="240.1px" xmlns="http://www.w3.org/2000/svg">
  <g transform="matrix(1.0, 0.0, 0.0, 1.0, 1.8, 167.45)">
    <path d="M152.3 -142.95 L155.85 -157.0 Q158.3 -153.9 160.35 -150.65 162.45 -119.2 156.0 -94.15 L147.85 -92.0 149.85 -109.0 Q151.5 -122.2 148.7 -128.9 L152.3 -142.95 M69.6 -152.8 L73.35 -155.5 Q73.4 -149.55 74.05 -142.65 74.75 -135.25 76.1 -126.7 L76.65 -123.95 Q78.4 -116.25 81.4 -109.15 84.15 -116.25 88.55 -122.35 96.85 -133.9 110.85 -142.0 138.3 -123.3 147.85 -92.0 141.25 -85.4 137.35 -80.35 132.25 -113.5 107.3 -135.45 86.8 -120.85 78.35 -88.6 L78.35 -99.0 74.35 -100.2 Q67.05 -124.45 69.6 -152.8 M75.4 -130.6 L76.1 -126.7 75.4 -130.6 M81.4 -109.15 Q79.5 -104.3 78.35 -99.0 79.5 -104.3 81.4 -109.15" fill="#eedcbf" fill-rule="evenodd" stroke="none"/>
    <path d="M170.0 -122.85 Q182.75 -131.25 198.15 -122.85 L186.55 -111.05 Q216.05 -115.45 235.85 -101.0 209.4 -93.5 190.95 -82.1 208.7 -65.3 218.35 -38.0 L175.85 -53.0 143.75 -59.3 154.9 -69.05 184.7 -85.5 175.3 -89.1 179.25 -91.5 189.85 -97.5 Q182.05 -99.05 176.1 -98.75 L171.9 -107.9 170.35 -111.25 Q170.6 -117.2 170.0 -122.85 M60.6 -48.45 L61.0 -50.05 17.35 -28.0 Q23.1 -59.25 32.5 -74.7 L0.0 -91.7 Q18.4 -109.8 37.25 -111.55 L25.5 -125.55 Q39.65 -130.55 51.35 -125.55 50.6 -121.4 50.85 -117.0 L48.7 -111.1 37.25 -111.55 48.7 -111.1 47.05 -106.65 49.1 -98.0 Q42.2 -94.75 35.85 -88.5 L39.3 -86.85 33.5 -84.75 37.55 -82.3 37.9 -81.95 37.95 -82.0 38.05 -82.1 56.1 -72.35 66.15 -60.7 Q62.6 -55.55 61.0 -50.05 62.6 -55.55 66.15 -60.7 68.3 -63.85 71.2 -66.8 L72.85 -68.4 97.75 -63.3 125.2 -56.1 Q109.65 -50.9 94.15 -40.7 84.25 -34.2 74.35 -25.65 L69.85 -21.65 61.35 -13.5 Q60.55 -17.45 60.05 -21.15 59.3 -26.35 59.15 -31.0 L59.1 -35.95 Q59.2 -42.75 60.6 -48.45 M100.6 -147.9 Q103.9 -157.9 116.85 -166.0 126.3 -155.45 128.15 -146.75 120.65 -148.85 110.85 -148.5 L100.6 -147.9 M117.95 -161.5 Q120.5 -153.3 117.1 -149.85 L123.7 -149.85 117.95 -161.5 M41.9 -107.95 L40.35 -108.05 Q23.9 -108.5 9.95 -94.95 27.95 -104.55 43.95 -101.0 L43.75 -107.8 41.9 -107.95 M48.35 -116.9 L48.0 -123.5 Q42.25 -127.0 33.2 -125.0 45.55 -123.35 48.35 -116.9 M32.5 -74.7 Q35.05 -78.9 37.9 -81.95 35.05 -78.9 32.5 -74.7 M75.05 -64.45 Q61.2 -52.95 62.7 -23.95 67.0 -51.4 83.55 -61.4 L75.2 -64.6 75.05 -64.45 M39.2 -77.45 Q28.1 -61.15 23.1 -38.15 33.65 -62.75 47.0 -74.1 L39.2 -77.45 M174.0 -116.25 Q178.3 -121.6 190.4 -123.8 182.65 -125.6 174.0 -120.95 L174.0 -116.25 M186.55 -111.05 Q179.5 -110.05 171.9 -107.9 179.5 -110.05 186.55 -111.05 M190.25 -102.5 Q200.5 -106.7 229.25 -103.25 211.1 -111.95 180.9 -107.95 184.1 -107.85 190.25 -102.5 M179.25 -91.5 Q185.5 -87.3 190.95 -82.1 185.5 -87.3 179.25 -91.5 M185.7 -81.65 L176.2 -77.8 Q198.85 -62.3 213.9 -41.4 204.25 -65.5 185.7 -81.65" fill="#87d121" fill-rule="evenodd" stroke="none"/>
    <path d="M117.95 -161.5 L123.7 -149.85 117.1 -149.85 Q120.5 -153.3 117.95 -161.5 M41.9 -107.95 L43.75 -107.8 43.95 -101.0 Q27.95 -104.55 9.95 -94.95 23.9 -108.5 40.35 -108.05 L41.9 -107.95 M48.35 -116.9 Q45.55 -123.35 33.2 -125.0 42.25 -127.0 48.0 -123.5 L48.35 -116.9 M75.05 -64.45 L75.2 -64.6 83.55 -61.4 Q67.0 -51.4 62.7 -23.95 61.2 -52.95 75.05 -64.45 M39.2 -77.45 L47.0 -74.1 Q33.65 -62.75 23.1 -38.15 28.1 -61.15 39.2 -77.45 M174.0 -116.25 L174.0 -120.95 Q182.65 -125.6 190.4 -123.8 178.3 -121.6 174.0 -116.25 M190.25 -102.5 Q184.1 -107.85 180.9 -107.95 211.1 -111.95 229.25 -103.25 200.5 -106.7 190.25 -102.5 M185.7 -81.65 Q204.25 -65.5 213.9 -41.4 198.85 -62.3 176.2 -77.8 L185.7 -81.65" fill="#c1e463" fill-rule="evenodd" stroke="none"/>
    <path d="M93.55 -146.25 Q96.8 -147.35 100.6 -147.9 L110.85 -148.5 Q120.65 -148.85 128.15 -146.75 131.75 -145.75 134.85 -144.2 144.35 -139.3 148.7 -128.9 151.5 -122.2 149.85 -109.0 L147.85 -92.0 Q138.3 -123.3 110.85 -142.0 96.85 -133.9 88.55 -122.35 78.85 -115.2 89.65 -138.45 91.2 -143.05 90.25 -142.95 89.3 -142.85 85.9 -140.6 82.45 -138.35 76.65 -123.95 L76.1 -126.7 Q79.15 -141.55 93.55 -146.25 M130.7 -142.85 L126.3 -144.4 Q120.5 -145.05 128.7 -136.3 L140.1 -123.05 Q146.25 -121.05 145.3 -129.7 140.05 -138.5 134.95 -140.7 129.8 -142.9 130.7 -142.85" fill="#f0d01a" fill-rule="evenodd" stroke="none"/>
    <path d="M76.65 -123.95 Q82.45 -138.35 85.9 -140.6 89.3 -142.85 90.25 -142.95 91.2 -143.05 89.65 -138.45 78.85 -115.2 88.55 -122.35 84.15 -116.25 81.4 -109.15 78.4 -116.25 76.65 -123.95" fill="#ca9f0f" fill-rule="evenodd" stroke="none"/>
    <path d="M74.05 -142.65 Q79.2 -154.55 87.85 -156.0 89.55 -146.55 93.55 -146.25 79.15 -141.55 76.1 -126.7 74.75 -135.25 74.05 -142.65 M134.85 -144.2 L138.85 -155.0 Q154.3 -151.7 152.3 -142.95 L148.7 -128.9 Q144.35 -139.3 134.85 -144.2" fill="#d8a870" fill-rule="evenodd" stroke="none"/>
    <path d="M130.7 -142.85 Q129.8 -142.9 134.95 -140.7 140.05 -138.5 145.3 -129.7 146.25 -121.05 140.1 -123.05 L128.7 -136.3 Q120.5 -145.05 126.3 -144.4 L130.7 -142.85" fill="#f9e7aa" fill-rule="evenodd" stroke="none"/>
    <path d="M160.35 -150.65 Q168.3 -137.9 170.0 -122.85 170.6 -117.2 170.35 -111.25 L170.05 -107.4 Q169.6 -102.55 168.6 -97.5 L156.0 -94.15 Q162.45 -119.2 160.35 -150.65 M51.35 -125.55 Q53.95 -140.9 69.6 -152.8 67.05 -124.45 74.35 -100.2 64.15 -102.75 54.9 -100.15 52.7 -105.5 51.7 -110.5 51.05 -113.85 50.85 -117.0 50.6 -121.4 51.35 -125.55 M137.35 -80.35 Q128.65 -69.05 133.35 -65.5 L120.85 -67.5 Q108.6 -70.0 89.85 -93.5 80.25 -83.7 78.35 -77.55 L78.35 -88.6 Q86.8 -120.85 107.3 -135.45 132.25 -113.5 137.35 -80.35" fill="#dfb98c" fill-rule="evenodd" stroke="none"/>
    <path d="M133.35 -65.5 L140.35 -60.0 Q145.55 -66.6 153.2 -73.2 162.45 -81.15 175.3 -89.1 L184.7 -85.5 154.9 -69.05 143.75 -59.3 140.35 -60.0 Q132.75 -58.65 125.2 -56.1 L97.75 -63.3 72.85 -68.4 76.35 -71.5 120.85 -67.5 133.35 -65.5 M176.1 -98.75 Q171.9 -98.55 168.6 -97.5 169.6 -102.55 170.05 -107.4 L170.35 -111.25 171.9 -107.9 170.05 -107.4 171.9 -107.9 176.1 -98.75 M51.7 -110.5 L48.7 -111.1 51.7 -110.5 Q52.7 -105.5 54.9 -100.15 51.95 -99.35 49.1 -98.0 L47.05 -106.65 48.7 -111.1 50.85 -117.0 Q51.05 -113.85 51.7 -110.5 M71.2 -66.8 Q68.3 -63.85 66.15 -60.7 L56.1 -72.35 38.05 -82.1 Q39.65 -83.85 41.4 -85.2 39.65 -83.85 38.05 -82.1 L37.55 -82.3 33.5 -84.75 39.3 -86.85 Q42.05 -85.45 41.4 -85.2 63.4 -74.6 71.2 -66.8" fill="#7aac1c" fill-rule="evenodd" stroke="none"/>
    <path d="M147.85 -92.0 L156.0 -94.15 168.6 -97.5 Q171.9 -98.55 176.1 -98.75 182.05 -99.05 189.85 -97.5 L179.25 -91.5 175.3 -89.1 Q162.45 -81.15 153.2 -73.2 145.55 -66.6 140.35 -60.0 L133.35 -65.5 Q128.65 -69.05 137.35 -80.35 141.25 -85.4 147.85 -92.0 M49.1 -98.0 Q51.95 -99.35 54.9 -100.15 64.15 -102.75 74.35 -100.2 L78.35 -99.0 78.35 -88.6 78.35 -77.55 Q80.25 -83.7 89.85 -93.5 108.6 -70.0 120.85 -67.5 L76.35 -71.5 72.85 -68.4 71.2 -66.8 Q63.4 -74.6 41.4 -85.2 42.05 -85.45 39.3 -86.85 L35.85 -88.5 Q42.2 -94.75 49.1 -98.0 M76.35 -71.5 L78.35 -77.55 76.35 -71.5" fill="#468512" fill-rule="evenodd" stroke="none"/>
    <path d="M38.05 -82.1 L37.95 -82.0 37.9 -81.95 37.55 -82.3 38.05 -82.1" fill="#65dc1d" fill-rule="evenodd" stroke="none"/>
    <path d="M175.85 -53.0 L180.55 -43.85 160.3 -50.15 149.4 -53.55 141.55 -47.8 132.6 -38.8 125.65 -27.25 120.6 -8.5 117.85 -23.15 Q117.2 -26.25 115.35 -28.3 L115.4 -28.45 115.05 -28.95 114.9 -29.35 Q113.95 -30.3 113.35 -31.45 L112.6 -32.45 110.95 -32.6 Q105.95 -36.1 99.85 -38.0 L99.55 -37.95 99.5 -37.95 99.1 -38.3 98.15 -39.3 94.15 -40.7 Q109.65 -50.9 125.2 -56.1 132.75 -58.65 140.35 -60.0 L143.75 -59.3 175.85 -53.0 M48.6 -30.5 Q53.05 -38.2 57.85 -45.5 L60.6 -48.45 Q59.2 -42.75 59.1 -35.95 L59.15 -31.0 Q59.3 -26.35 60.05 -21.15 L53.55 -12.6 50.9 -22.15 48.6 -30.5 M177.15 138.1 L143.35 151.0 142.7 150.8 Q136.75 145.95 136.75 139.05 136.75 133.45 140.65 129.25 L142.7 127.3 Q148.7 122.45 157.15 122.45 165.6 122.45 171.55 127.3 177.05 131.75 177.55 137.95 L177.15 138.1 M173.45 61.1 Q174.2 61.1 174.7 61.75 175.25 62.4 175.25 63.35 175.25 64.3 174.7 64.95 174.2 65.6 173.45 65.6 172.7 65.6 172.15 64.95 171.65 64.3 171.65 63.35 171.65 62.4 172.15 61.75 172.7 61.1 173.45 61.1 M171.3 73.0 Q172.3 74.2 172.3 75.9 172.3 77.6 171.3 78.75 170.3 79.95 168.85 79.95 167.4 79.95 166.4 78.75 165.4 77.6 165.4 75.9 165.4 74.2 166.4 73.0 167.4 71.85 168.85 71.85 170.3 71.85 171.3 73.0 M163.1 115.65 Q161.4 117.55 159.0 117.55 156.6 117.55 154.85 115.65 153.15 113.75 153.15 111.1 153.15 108.45 154.85 106.55 156.6 104.65 159.0 104.65 161.4 104.65 163.1 106.55 164.85 108.45 164.85 111.1 164.85 113.75 163.1 115.65 M145.6 42.55 Q146.6 43.7 146.6 45.3 146.6 46.9 145.6 48.05 144.6 49.2 143.15 49.2 141.7 49.2 140.7 48.05 139.7 46.9 139.7 45.3 139.7 43.7 140.7 42.55 141.7 41.4 143.15 41.4 144.6 41.4 145.6 42.55 M105.55 67.0 Q108.25 65.45 111.25 64.5 116.8 62.65 123.25 62.65 136.35 62.65 145.6 70.1 154.85 77.55 154.85 88.05 154.85 98.55 145.6 106.0 136.35 113.45 123.25 113.45 L121.65 113.45 Q109.55 113.0 100.9 106.0 91.65 98.55 91.65 88.05 91.65 77.55 100.9 70.1 103.1 68.35 105.55 67.0 M83.4 60.0 L84.6 60.15 Q85.55 60.35 86.3 60.95 87.55 61.9 87.55 63.25 87.55 64.5 86.5 65.4 L86.3 65.55 Q85.1 66.5 83.4 66.5 81.7 66.5 80.45 65.55 79.25 64.6 79.25 63.25 79.25 61.9 80.45 60.95 81.7 60.0 83.4 60.0 M80.65 11.9 Q81.55 12.85 81.55 14.2 81.55 15.55 80.65 16.5 79.75 17.45 78.5 17.45 77.25 17.45 76.35 16.5 75.45 15.55 75.45 14.2 75.45 12.85 76.35 11.9 77.25 10.95 78.5 10.95 79.75 10.95 80.65 11.9 M78.2 41.65 Q76.4 43.85 73.8 43.85 71.2 43.85 69.35 41.65 67.55 39.45 67.55 36.3 67.55 33.15 69.35 30.95 71.2 28.75 73.8 28.75 76.4 28.75 78.2 30.95 80.05 33.15 80.05 36.3 80.05 39.45 78.2 41.65 M69.45 93.65 Q74.45 93.65 78.0 97.55 81.55 101.5 81.55 107.05 81.55 112.6 78.0 116.5 74.45 120.45 69.45 120.45 64.45 120.45 60.9 116.5 57.35 112.6 57.35 107.05 57.35 101.5 60.9 97.55 64.45 93.65 69.45 93.65 M124.85 148.4 Q117.85 153.9 107.95 153.9 98.05 153.9 91.05 148.4 84.05 142.9 84.05 135.1 84.05 127.3 91.05 121.8 98.05 116.3 107.95 116.3 117.85 116.3 124.85 121.8 131.85 127.3 131.85 135.1 131.85 142.9 124.85 148.4" fill="#8b1212" fill-rule="evenodd" stroke="none"/>
    <path d="M49.6 -20.65 L49.55 -19.95 49.25 -20.15 49.6 -20.65" fill="#e8f7f2" fill-rule="evenodd" stroke="none"/>
    <path d="M60.05 -21.15 Q60.55 -17.45 61.35 -13.5 L69.85 -21.65 74.35 -25.65 71.35 -20.55 Q57.6 3.6 44.35 45.75 27.2 70.8 27.85 33.95 32.8 14.85 39.2 2.55 L49.55 -19.95 49.6 -20.65 50.9 -22.15 53.55 -12.6 60.05 -21.15 M189.4 9.75 L196.05 14.55 Q208.4 42.25 214.05 75.1 L210.45 82.25 203.9 78.05 Q200.9 46.9 186.95 16.55 L186.45 15.5 189.4 9.75 M210.95 88.4 L212.35 88.6 Q213.75 95.95 211.45 107.65 207.8 119.1 202.1 125.9 L198.5 125.7 197.45 122.2 Q203.8 109.5 206.0 93.45 L210.95 88.4 M34.65 67.8 Q39.85 73.3 38.7 78.15 36.9 110.75 62.05 129.7 69.45 140.3 53.0 135.0 20.45 120.1 25.05 78.5 29.45 62.25 34.65 67.8" fill="#fad3d3" fill-rule="evenodd" stroke="none"/>
    <path d="M180.55 -43.85 Q204.15 3.55 220.05 64.35 246.1 164.15 108.35 166.0 -15.5 163.4 13.85 50.5 27.3 6.05 48.6 -30.5 L50.9 -22.15 49.6 -20.65 49.25 -20.15 49.55 -19.95 39.2 2.55 Q32.8 14.85 27.85 33.95 10.45 88.15 27.85 118.5 63.85 154.2 107.85 155.6 123.5 156.05 140.15 152.2 L142.9 151.55 143.5 151.4 143.35 151.0 177.15 138.1 177.55 139.05 177.85 138.55 Q186.2 134.5 194.8 129.5 L198.5 125.7 202.1 125.9 Q207.8 119.1 211.45 107.65 213.75 95.95 212.35 88.6 L210.95 88.4 210.45 82.25 214.05 75.1 Q208.4 42.25 196.05 14.55 L189.4 9.75 Q180.4 -14.6 160.3 -50.15 L180.55 -43.85" fill="#ed7878" fill-rule="evenodd" stroke="none"/>
    <path d="M74.35 -25.65 Q84.25 -34.2 94.15 -40.7 L98.15 -39.3 99.1 -38.3 99.5 -37.95 99.55 -37.95 99.85 -38.0 Q105.95 -36.1 110.95 -32.6 L112.6 -32.45 113.35 -31.45 Q113.95 -30.3 114.9 -29.35 L115.05 -28.95 115.4 -28.45 115.35 -28.3 Q117.2 -26.25 117.85 -23.15 L120.6 -8.5 125.65 -27.25 132.6 -38.8 141.55 -47.8 149.4 -53.55 160.3 -50.15 Q180.4 -14.6 189.4 9.75 L186.45 15.5 186.95 16.55 Q200.9 46.9 203.9 78.05 L210.45 82.25 210.95 88.4 206.0 93.45 Q203.8 109.5 197.45 122.2 L198.5 125.7 194.8 129.5 Q186.2 134.5 177.85 138.55 L177.55 137.95 Q177.05 131.75 171.55 127.3 165.6 122.45 157.15 122.45 148.7 122.45 142.7 127.3 L140.65 129.25 Q130.75 125.3 122.3 114.3 L123.25 113.45 Q136.35 113.45 145.6 106.0 154.85 98.55 154.85 88.05 154.85 77.55 145.6 70.1 136.35 62.65 123.25 62.65 116.8 62.65 111.25 64.5 108.25 65.45 105.55 67.0 L100.5 68.95 Q90.45 72.05 86.5 65.4 87.55 64.5 87.55 63.25 87.55 61.9 86.3 60.95 85.55 60.35 84.6 60.15 L84.55 59.85 Q81.65 45.0 88.0 5.5 76.75 1.5 71.35 -20.55 L74.35 -25.65 M116.4 -14.95 L116.5 -14.75 116.45 -15.2 116.4 -14.95 M149.7 -37.45 L133.7 -20.8 149.7 -37.45 M113.1 -19.5 L95.15 -30.9 113.1 -19.5 M171.3 73.0 Q170.3 71.85 168.85 71.85 167.4 71.85 166.4 73.0 165.4 74.2 165.4 75.9 165.4 77.6 166.4 78.75 167.4 79.95 168.85 79.95 170.3 79.95 171.3 78.75 172.3 77.6 172.3 75.9 172.3 74.2 171.3 73.0 M173.45 61.1 Q172.7 61.1 172.15 61.75 171.65 62.4 171.65 63.35 171.65 64.3 172.15 64.95 172.7 65.6 173.45 65.6 174.2 65.6 174.7 64.95 175.25 64.3 175.25 63.35 175.25 62.4 174.7 61.75 174.2 61.1 173.45 61.1 M163.1 115.65 Q164.85 113.75 164.85 111.1 164.85 108.45 163.1 106.55 161.4 104.65 159.0 104.65 156.6 104.65 154.85 106.55 153.15 108.45 153.15 111.1 153.15 113.75 154.85 115.65 156.6 117.55 159.0 117.55 161.4 117.55 163.1 115.65 M145.6 42.55 Q144.6 41.4 143.15 41.4 141.7 41.4 140.7 42.55 139.7 43.7 139.7 45.3 139.7 46.9 140.7 48.05 141.7 49.2 143.15 49.2 144.6 49.2 145.6 48.05 146.6 46.9 146.6 45.3 146.6 43.7 145.6 42.55" fill="#ea5757" fill-rule="evenodd" stroke="none"/>
    <path d="M116.4 -14.95 L116.45 -15.2 116.5 -14.75 116.4 -14.95" fill="#49c09c" fill-rule="evenodd" stroke="none"/>
    <path d="M177.85 138.55 L177.55 139.05 177.15 138.1 177.85 138.55 M143.35 151.0 L143.5 151.4 143.1 151.1 143.35 151.0 M177.75 138.6 L177.55 138.7 177.55 139.05 177.55 138.7 177.75 138.6" fill="#92dac9" fill-rule="evenodd" stroke="none"/>
    <path d="M177.85 138.55 L177.15 138.1 177.55 137.95 177.85 138.55 M123.25 113.45 L122.3 114.3 121.65 113.45 123.25 113.45" fill="#7cd1b7" fill-rule="evenodd" stroke="none"/>
    <path d="M84.6 60.15 L83.4 60.0 84.55 59.85 84.6 60.15 M100.9 70.1 L100.5 68.95 105.55 67.0 Q103.1 68.35 100.9 70.1" fill="#74cdab" fill-rule="evenodd" stroke="none"/>
    <path d="M27.85 33.95 Q27.2 70.8 44.35 45.75 57.6 3.6 71.35 -20.55 76.75 1.5 88.0 5.5 81.65 45.0 84.55 59.85 L83.4 60.0 Q81.7 60.0 80.45 60.95 79.25 61.9 79.25 63.25 79.25 64.6 80.45 65.55 81.7 66.5 83.4 66.5 85.1 66.5 86.3 65.55 L86.5 65.4 Q90.45 72.05 100.5 68.95 L100.9 70.1 Q91.65 77.55 91.65 88.05 91.65 98.55 100.9 106.0 109.55 113.0 121.65 113.45 L122.3 114.3 Q130.75 125.3 140.65 129.25 136.75 133.45 136.75 139.05 136.75 145.95 142.7 150.8 L142.9 151.55 140.15 152.2 Q123.5 156.05 107.85 155.6 63.85 154.2 27.85 118.5 10.45 88.15 27.85 33.95 M78.2 41.65 Q80.05 39.45 80.05 36.3 80.05 33.15 78.2 30.95 76.4 28.75 73.8 28.75 71.2 28.75 69.35 30.95 67.55 33.15 67.55 36.3 67.55 39.45 69.35 41.65 71.2 43.85 73.8 43.85 76.4 43.85 78.2 41.65 M80.65 11.9 Q79.75 10.95 78.5 10.95 77.25 10.95 76.35 11.9 75.45 12.85 75.45 14.2 75.45 15.55 76.35 16.5 77.25 17.45 78.5 17.45 79.75 17.45 80.65 16.5 81.55 15.55 81.55 14.2 81.55 12.85 80.65 11.9 M34.65 67.8 Q29.45 62.25 25.05 78.5 20.45 120.1 53.0 135.0 69.45 140.3 62.05 129.7 36.9 110.75 38.7 78.15 39.85 73.3 34.65 67.8 M69.45 93.65 Q64.45 93.65 60.9 97.55 57.35 101.5 57.35 107.05 57.35 112.6 60.9 116.5 64.45 120.45 69.45 120.45 74.45 120.45 78.0 116.5 81.55 112.6 81.55 107.05 81.55 101.5 78.0 97.55 74.45 93.65 69.45 93.65 M124.85 148.4 Q131.85 142.9 131.85 135.1 131.85 127.3 124.85 121.8 117.85 116.3 107.95 116.3 98.05 116.3 91.05 121.8 84.05 127.3 84.05 135.1 84.05 142.9 91.05 148.4 98.05 153.9 107.95 153.9 117.85 153.9 124.85 148.4" fill="#e63737" fill-rule="evenodd" stroke="none"/>
    <path d="M142.7 150.8 L143.35 151.0 143.1 151.1 142.7 150.8" fill="#5ec69e" fill-rule="evenodd" stroke="none"/>
    <path d="M143.5 151.4 L142.9 151.55 142.7 150.8 143.1 151.1 143.5 151.4" fill="#88d7c5" fill-rule="evenodd" stroke="none"/>
    <path d="M152.3 -142.95 L155.85 -157.0 Q158.3 -153.9 160.35 -150.65 168.3 -137.9 170.0 -122.85 170.6 -117.2 170.35 -111.25 L170.05 -107.4 Q169.6 -102.55 168.6 -97.5 M51.35 -125.55 Q53.95 -140.9 69.6 -152.8 L73.35 -155.5 Q73.4 -149.55 74.05 -142.65 74.75 -135.25 76.1 -126.7 M152.3 -142.95 L148.7 -128.9 M76.65 -123.95 Q78.4 -116.25 81.4 -109.15 84.15 -116.25 88.55 -122.35 96.85 -133.9 110.85 -142.0 138.3 -123.3 147.85 -92.0 M51.7 -110.5 Q51.05 -113.85 50.85 -117.0 50.6 -121.4 51.35 -125.55 M54.9 -100.15 Q52.7 -105.5 51.7 -110.5 M78.35 -99.0 Q79.5 -104.3 81.4 -109.15" ffdec:has-small-stroke="true" ffdec:original-stroke-width="0.05" fill="none" stroke="#d8a870" stroke-linecap="butt" stroke-linejoin="miter-clip" stroke-miterlimit="3.0" stroke-width="1.0"/>
    <path d="M93.55 -146.25 Q96.8 -147.35 100.6 -147.9 L110.85 -148.5 Q120.65 -148.85 128.15 -146.75 131.75 -145.75 134.85 -144.2 144.35 -139.3 148.7 -128.9 151.5 -122.2 149.85 -109.0 L147.85 -92.0 M76.1 -126.7 Q79.15 -141.55 93.55 -146.25" ffdec:has-small-stroke="true" ffdec:original-stroke-width="0.75" fill="none" stroke="#ca9f0f" stroke-linecap="butt" stroke-linejoin="miter-clip" stroke-miterlimit="3.0" stroke-width="1.0"/>
    <path d="M170.0 -122.85 Q182.75 -131.25 198.15 -122.85 L186.55 -111.05 Q216.05 -115.45 235.85 -101.0 209.4 -93.5 190.95 -82.1 208.7 -65.3 218.35 -38.0 L175.85 -53.0 180.55 -43.85 M57.85 -45.5 L60.6 -48.45 61.0 -50.05 17.35 -28.0 Q23.1 -59.25 32.5 -74.7 L0.0 -91.7 Q18.4 -109.8 37.25 -111.55 L25.5 -125.55 Q39.65 -130.55 51.35 -125.55 M74.05 -142.65 Q79.2 -154.55 87.85 -156.0 89.55 -146.55 93.55 -146.25 M100.6 -147.9 Q103.9 -157.9 116.85 -166.0 126.3 -155.45 128.15 -146.75 M134.85 -144.2 L138.85 -155.0 Q154.3 -151.7 152.3 -142.95 M76.65 -123.95 L76.1 -126.7 75.4 -130.6 M120.85 -67.5 L133.35 -65.5 M76.35 -71.5 L72.85 -68.4 71.2 -66.8 M38.05 -82.1 L37.95 -82.0 37.9 -81.95 M170.05 -107.4 L171.9 -107.9" ffdec:has-small-stroke="true" ffdec:original-stroke-width="0.05" fill="none" stroke="#000000" stroke-linecap="butt" stroke-linejoin="miter-clip" stroke-miterlimit="3.0" stroke-opacity="0.3019608" stroke-width="1.0"/>
    <path d="M48.7 -111.1 L51.7 -110.5 M48.7 -111.1 L37.25 -111.55 M66.15 -60.7 Q62.6 -55.55 61.0 -50.05 M71.2 -66.8 Q68.3 -63.85 66.15 -60.7 M37.9 -81.95 Q35.05 -78.9 32.5 -74.7 M41.4 -85.2 Q39.65 -83.85 38.05 -82.1 M171.9 -107.9 Q179.5 -110.05 186.55 -111.05 M190.95 -82.1 Q185.5 -87.3 179.25 -91.5" ffdec:has-small-stroke="true" ffdec:original-stroke-width="0.05" fill="none" stroke="#87d121" stroke-linecap="butt" stroke-linejoin="miter-clip" stroke-miterlimit="3.0" stroke-width="1.0"/>
    <path d="M147.85 -92.0 L156.0 -94.15 168.6 -97.5 Q171.9 -98.55 176.1 -98.75 182.05 -99.05 189.85 -97.5 L179.25 -91.5 175.3 -89.1 Q162.45 -81.15 153.2 -73.2 145.55 -66.6 140.35 -60.0 L133.35 -65.5 Q128.65 -69.05 137.35 -80.35 141.25 -85.4 147.85 -92.0 M49.1 -98.0 Q51.95 -99.35 54.9 -100.15 64.15 -102.75 74.35 -100.2 L78.35 -99.0 78.35 -88.6 78.35 -77.55 Q80.25 -83.7 89.85 -93.5 108.6 -70.0 120.85 -67.5 L76.35 -71.5 78.35 -77.55 M71.2 -66.8 Q63.4 -74.6 41.4 -85.2 42.05 -85.45 39.3 -86.85 L35.85 -88.5 Q42.2 -94.75 49.1 -98.0" ffdec:has-small-stroke="true" ffdec:original-stroke-width="0.05" fill="none" stroke="#468512" stroke-linecap="butt" stroke-linejoin="miter-clip" stroke-miterlimit="3.0" stroke-width="1.0"/>
    <path d="M180.55 -43.85 Q204.15 3.55 220.05 64.35 246.1 164.15 108.35 166.0 -15.5 163.4 13.85 50.5 27.3 6.05 48.6 -30.5 53.05 -38.2 57.85 -45.5" ffdec:has-small-stroke="true" ffdec:original-stroke-width="0.05" fill="none" stroke="#e63737" stroke-linecap="butt" stroke-linejoin="miter-clip" stroke-miterlimit="3.0" stroke-width="1.0"/>
    <path d="M125.2 -56.1 Q132.75 -58.65 140.35 -60.0 L143.75 -59.3 175.85 -53.0 M60.6 -48.45 Q59.2 -42.75 59.1 -35.95 L59.15 -31.0 Q59.3 -26.35 60.05 -21.15 60.55 -17.45 61.35 -13.5 L69.85 -21.65 74.35 -25.65 Q84.25 -34.2 94.15 -40.7 109.65 -50.9 125.2 -56.1" fill="none" stroke="#349470" stroke-linecap="butt" stroke-linejoin="miter-clip" stroke-miterlimit="3.0" stroke-width="1.5"/>
    <path d="M95.15 -30.9 L113.1 -19.5 M133.7 -20.8 L149.7 -37.45" fill="none" stroke="#000000" stroke-linecap="butt" stroke-linejoin="miter-clip" stroke-miterlimit="3.0" stroke-opacity="0.3019608" stroke-width="3.5"/>
    <path d="M57.85 -45.5 L60.6 -48.45 61.0 -50.05 17.35 -28.0 Q23.1 -59.25 32.5 -74.7 L0.0 -91.7 Q18.4 -109.8 37.25 -111.55 L25.5 -125.55 Q39.65 -130.55 51.35 -125.55 53.95 -140.9 69.6 -152.8 L73.35 -155.5 Q73.4 -149.55 74.05 -142.65 79.2 -154.55 87.85 -156.0 89.55 -146.55 93.55 -146.25 96.8 -147.35 100.6 -147.9 103.9 -157.9 116.85 -166.0 126.3 -155.45 128.15 -146.75 131.75 -145.75 134.85 -144.2 L138.85 -155.0 Q154.3 -151.7 152.3 -142.95 L155.85 -157.0 Q158.3 -153.9 160.35 -150.65 168.3 -137.9 170.0 -122.85 182.75 -131.25 198.15 -122.85 L186.55 -111.05 Q216.05 -115.45 235.85 -101.0 216.75 -95.6 201.8 -88.15 196.05 -85.3 190.95 -82.1 196.8 -76.55 201.8 -69.85 211.9 -56.25 218.35 -38.0 L175.85 -53.0 M75.4 -130.6 L76.1 -126.7" fill="none" stroke="#27694b" stroke-linecap="butt" stroke-linejoin="miter-clip" stroke-miterlimit="3.0" stroke-width="2.25"/>
    <path d="M175.85 -53.0 L180.55 -43.85 Q192.1 -20.65 201.8 5.75 L203.5 10.35 Q212.6 35.9 220.05 64.35 233.8 117.1 201.8 142.5 173.25 165.1 108.35 166.0 -15.5 163.4 13.85 50.5 20.2 29.55 28.3 10.35 37.35 -11.2 48.6 -30.5 53.05 -38.2 57.85 -45.5" fill="none" stroke="#e63737" stroke-linecap="butt" stroke-linejoin="miter-clip" stroke-miterlimit="3.0" stroke-width="2.25"/>
  </g>
</svg>
