<?xml version="1.0" encoding="UTF-8" standalone="no"?>
<svg xmlns:ffdec="https://www.free-decompiler.com/flash" xmlns:xlink="http://www.w3.org/1999/xlink" ffdec:objectType="shape" height="52.5px" width="30.8px" xmlns="http://www.w3.org/2000/svg">
  <g transform="matrix(1.0, 0.0, 0.0, 1.0, -547.6, -365.7)">
    <path d="M568.25 410.6 L567.25 412.95 566.5 409.75 566.65 408.75 Q567.05 407.15 568.4 406.05 L569.95 405.4 571.95 405.7 574.5 407.4 572.55 407.5 571.6 408.0 Q571.65 409.85 570.1 411.9 L568.25 410.6" fill="#8c231d" fill-rule="evenodd" stroke="none"/>
    <path d="M573.55 416.4 Q572.4 418.75 570.4 416.75 568.35 414.75 567.8 413.25 567.25 411.7 567.15 410.5 566.95 409.35 567.25 409.05 567.5 408.85 568.1 409.7 L569.65 412.4 Q570.65 414.2 572.65 414.15 574.65 413.95 573.55 416.4" fill="#961f1f" fill-rule="evenodd" stroke="none"/>
    <path d="M571.2 407.2 L571.4 407.25 571.55 407.35 571.55 407.55 571.3 407.65 571.2 407.65 571.1 407.55 571.1 407.4 571.2 407.2 M573.95 411.2 L574.0 411.45 573.75 411.65 573.45 411.65 573.3 411.45 573.3 411.25 573.45 411.0 573.8 411.0 573.95 411.2 M576.9 412.45 L577.1 412.25 577.4 412.25 577.6 412.4 577.6 412.7 577.4 412.85 577.1 412.85 576.9 412.7 576.9 412.45 M575.6 413.9 L576.05 413.5 576.55 413.55 576.95 413.95 576.9 414.45 576.55 414.85 576.0 414.8 575.6 414.4 575.6 413.9 M571.95 414.95 L572.1 415.1 572.1 415.45 571.85 415.65 571.55 415.65 571.35 415.5 571.35 415.15 571.55 415.0 571.95 414.95 M575.7 415.55 Q575.85 416.05 575.6 416.5 L574.9 417.2 574.0 417.15 Q573.45 416.9 573.3 416.45 573.1 415.95 573.35 415.5 L574.0 414.75 575.0 414.8 575.7 415.55" fill="#761a1a" fill-opacity="0.7019608" fill-rule="evenodd" stroke="none"/>
    <path d="M573.9 412.1 Q574.35 411.9 574.8 412.1 L575.45 412.6 575.45 413.5 574.75 414.15 573.8 414.2 Q573.35 414.0 573.25 413.55 573.05 413.2 573.2 412.75 L573.9 412.1" fill="#4e1010" fill-opacity="0.7019608" fill-rule="evenodd" stroke="none"/>
    <path d="M573.85 412.15 L574.25 412.0 574.6 412.05 574.8 412.2 574.65 412.5 574.25 412.6 573.9 412.5 573.75 412.35 573.85 412.15 M574.9 412.6 L575.15 412.5 575.25 412.65 575.3 412.95 575.15 413.15 574.9 413.1 574.8 413.05 574.75 412.8 574.9 412.6" fill="#ea9898" fill-opacity="0.7019608" fill-rule="evenodd" stroke="none"/>
    <path d="M568.4 410.7 L568.6 412.3 Q568.7 413.05 568.45 413.25 568.15 413.4 567.9 412.95 567.5 412.4 567.25 411.55 L566.95 410.0 Q567.0 409.2 567.2 409.1 567.4 408.9 567.8 409.35 L568.4 410.7 M568.95 414.65 Q569.05 414.35 569.45 414.45 L570.15 415.15 570.65 416.15 570.75 416.9 570.3 417.0 569.6 416.4 Q569.15 415.9 569.05 415.35 568.8 414.85 568.95 414.65" fill="#ffffff" fill-opacity="0.6" fill-rule="evenodd" stroke="none"/>
    <path d="M576.1 409.55 L574.85 408.55 574.25 407.7 Q574.1 407.5 574.45 407.65 L576.75 409.4 577.4 410.1 Q577.5 410.35 577.05 410.2 L576.1 409.55" fill="#ffffff" fill-opacity="0.6" fill-rule="evenodd" stroke="none"/>
    <path d="M578.15 411.7 L578.1 411.95 577.95 412.0 577.65 411.45 577.7 411.1 577.85 411.1 578.1 411.35 578.15 411.7" fill="#ffffff" fill-opacity="0.6" fill-rule="evenodd" stroke="none"/>
    <path d="M571.3 405.45 Q573.05 405.8 576.1 408.6 578.65 410.35 578.35 412.85 577.85 415.05 575.75 416.8 L575.7 416.75 575.7 416.8 Q573.7 418.4 571.4 418.2 569.95 418.05 567.75 414.6 L566.95 412.25 566.45 409.65 Q566.3 407.3 568.4 405.8 570.05 404.75 571.3 405.45" fill="url(#gradient0)" fill-rule="evenodd" stroke="none"/>
    <path d="M571.3 405.45 Q573.05 405.8 576.1 408.6 578.65 410.35 578.35 412.85 577.85 415.05 575.75 416.8 L575.7 416.75 575.7 416.8 Q573.7 418.4 571.4 418.2 569.95 418.05 567.75 414.6 L566.95 412.25 566.45 409.65 Q566.3 407.3 568.4 405.8 570.05 404.75 571.3 405.45 Z" ffdec:has-small-stroke="true" ffdec:original-stroke-width="0.05" fill="none" stroke="#a14040" stroke-linecap="butt" stroke-linejoin="miter-clip" stroke-miterlimit="3.0" stroke-opacity="0.5019608" stroke-width="1.0"/>
    <path d="M550.6 389.65 L551.3 390.55 Q550.45 391.1 550.75 391.95 L549.6 392.25 Q549.35 391.45 549.85 390.45 L550.6 389.65 M551.4 392.7 L551.9 392.7 552.45 393.3 552.65 392.5 Q552.8 391.95 551.85 391.55 L552.2 391.3 Q553.65 391.2 553.6 392.5 553.25 394.0 551.55 393.75 L551.4 392.7" fill="#fef1d6" fill-rule="evenodd" stroke="none"/>
    <path d="M556.35 386.55 L556.4 385.95 556.9 386.3 Q556.8 386.6 556.35 386.55 M552.85 387.55 L553.45 387.95 553.45 388.15 553.0 388.65 552.95 388.6 Q552.75 388.05 552.85 387.55 M551.75 389.1 L552.3 390.45 551.65 390.45 551.3 390.55 550.6 389.65 Q551.2 389.25 551.75 389.1 M552.4 395.35 L553.0 395.15 552.65 395.65 Q551.65 397.15 551.4 397.9 L550.7 398.1 551.4 396.8 552.4 395.35 M555.5 388.9 L555.45 388.4 Q555.6 387.9 556.6 387.75 L556.55 387.65 556.6 387.6 557.15 388.1 556.7 388.9 555.5 388.9 M549.6 392.25 L550.75 391.95 550.75 392.05 551.4 392.7 551.55 393.75 550.9 393.6 Q549.85 393.05 549.6 392.25 M563.15 389.65 L562.65 390.45 559.9 391.2 559.8 391.2 560.0 390.65 Q561.6 389.95 563.15 389.65 M553.15 409.45 L551.75 407.55 Q550.3 405.0 550.05 402.65 L550.4 401.9 550.3 402.75 550.4 403.1 551.7 406.25 553.6 409.3 553.15 409.45" fill="#feecc5" fill-rule="evenodd" stroke="none"/>
    <path d="M555.1 386.6 Q555.5 386.45 556.15 386.6 L556.35 386.55 556.25 387.15 Q555.8 386.55 555.15 386.8 L555.1 386.6 M553.25 389.4 L554.0 389.9 Q554.8 390.5 554.9 391.4 555.15 392.85 553.8 394.85 L553.0 395.15 552.4 395.35 Q554.05 392.75 553.8 391.5 553.25 390.55 552.3 390.45 L551.75 389.1 552.6 389.15 553.25 389.4" fill="#fff5e0" fill-rule="evenodd" stroke="none"/>
    <path d="M556.25 387.15 L556.35 386.55 Q556.8 386.6 556.9 386.3 L557.6 387.1 557.15 388.1 556.6 387.6 556.55 387.65 556.25 387.15 M552.95 388.6 L553.0 388.65 553.45 388.15 553.45 387.95 554.15 388.4 Q554.2 389.05 554.75 389.75 L556.8 391.1 556.75 392.25 Q555.75 392.05 554.9 391.4 554.8 390.5 554.0 389.9 L553.25 389.4 552.95 388.6 M553.0 395.15 L553.8 394.85 552.6 396.4 551.9 397.85 551.4 397.9 Q551.65 397.15 552.65 395.65 L553.0 395.15 M550.05 402.65 Q549.95 401.9 550.0 401.15 L551.1 401.3 Q550.95 404.15 552.45 406.9 L553.95 409.2 553.6 409.3 551.7 406.25 550.4 403.1 550.3 402.75 550.4 401.9 550.05 402.65 M559.55 392.1 L559.8 391.2 559.9 391.2 562.65 390.45 562.35 390.95 561.8 391.15 Q560.7 391.8 559.55 392.1" fill="#fee4ab" fill-rule="evenodd" stroke="none"/>
    <path d="M555.1 386.6 L554.85 385.95 Q555.7 385.7 556.4 385.95 L556.35 386.55 556.15 386.6 Q555.5 386.45 555.1 386.6 M557.15 388.1 L557.6 387.1 557.7 387.2 Q558.4 388.9 557.05 389.45 L556.85 389.55 Q555.7 389.55 555.5 388.9 L556.7 388.9 557.15 388.1 M557.1 388.1 L557.1 388.2 Q557.3 388.65 557.1 389.3 L557.05 389.45 557.1 389.3 Q557.3 388.65 557.1 388.2 L557.1 388.1 M551.9 392.7 Q551.2 392.0 551.85 391.55 552.8 391.95 552.65 392.5 L552.45 393.3 551.9 392.7" fill="#ffffff" fill-rule="evenodd" stroke="none"/>
    <path d="M554.85 385.95 L555.1 386.6 554.5 386.75 Q554.0 387.0 553.65 387.4 L553.45 387.95 552.85 387.55 Q553.05 386.85 554.05 386.25 L554.85 385.95 M563.15 389.65 Q564.6 389.35 566.1 389.65 L567.25 389.95 Q566.8 390.45 565.85 390.4 563.85 390.3 562.65 390.45 L563.15 389.65 M561.8 412.55 Q558.65 413.2 556.05 411.9 L556.45 411.5 557.75 412.0 559.6 412.3 561.65 412.05 562.05 411.95 561.8 412.55 M554.45 410.8 L553.15 409.45 553.6 409.3 553.7 409.45 554.8 410.55 554.45 410.8 M560.0 390.65 L559.8 391.2 558.25 391.8 557.55 391.2 Q558.65 391.3 559.8 390.8 L560.0 390.65 M569.0 392.5 Q568.0 391.65 567.0 391.15 L567.3 391.05 567.9 391.1 Q568.8 391.35 569.75 392.15 569.35 392.35 569.0 392.5 M570.9 394.55 L571.55 394.35 571.8 394.75 Q573.05 396.85 573.15 398.8 L572.6 398.8 Q572.3 396.6 570.9 394.55" fill="#eacbae" fill-rule="evenodd" stroke="none"/>
    <path d="M553.45 387.95 L553.65 387.4 Q554.0 387.0 554.5 386.75 L555.1 386.6 555.15 386.8 554.4 387.3 Q554.1 387.85 554.15 388.4 L553.45 387.95 M556.75 392.25 L556.8 391.1 557.55 391.2 558.25 391.8 559.8 391.2 559.55 392.1 556.75 392.25 M551.4 397.9 L551.9 397.85 551.6 398.7 551.1 401.3 550.0 401.15 550.7 398.1 551.4 397.9 M562.65 390.45 Q563.85 390.3 565.85 390.4 566.8 390.45 567.25 389.95 568.65 390.5 570.1 391.95 L569.75 392.15 Q568.8 391.35 567.9 391.1 L567.3 391.05 567.0 391.15 562.35 390.95 562.65 390.45 M572.0 394.2 L572.4 394.7 Q573.7 396.6 573.9 398.85 L573.15 398.8 Q573.05 396.85 571.8 394.75 L571.55 394.35 572.0 394.2 M553.95 409.2 Q554.6 409.85 555.2 410.3 L554.8 410.55 553.7 409.45 553.6 409.3 553.95 409.2 M556.75 411.25 Q559.15 412.2 562.35 411.25 L562.05 411.95 561.65 412.05 559.6 412.3 557.75 412.0 556.45 411.5 556.75 411.25" fill="#e5c59a" fill-rule="evenodd" stroke="none"/>
    <path d="M563.6 412.05 L561.8 412.55 562.05 411.95 563.65 411.4 563.6 412.05 M556.05 411.9 L554.45 410.8 554.8 410.55 556.45 411.5 556.05 411.9 M569.75 392.15 L569.95 392.35 571.55 394.35 570.9 394.55 570.4 393.95 569.0 392.5 Q569.35 392.35 569.75 392.15 M572.65 401.9 Q572.8 400.25 572.6 398.8 L573.15 398.8 Q573.25 400.05 572.95 401.1 L572.65 401.9" fill="#bb9c80" fill-rule="evenodd" stroke="none"/>
    <path d="M570.1 391.95 Q571.05 392.9 572.0 394.2 L571.55 394.35 569.95 392.35 569.75 392.15 570.1 391.95 M573.9 398.85 Q574.0 400.45 573.55 402.3 L572.65 401.9 572.95 401.1 Q573.25 400.05 573.15 398.8 L573.9 398.85 M555.2 410.3 L556.75 411.25 556.45 411.5 554.8 410.55 555.2 410.3 M562.35 411.25 L563.75 410.7 563.65 411.4 562.05 411.95 562.35 411.25" fill="#b3946d" fill-rule="evenodd" stroke="none"/>
    <path d="M556.4 385.95 Q555.7 385.7 554.85 385.95 L554.05 386.25 Q553.05 386.85 552.85 387.55 552.75 388.05 552.95 388.6 L553.25 389.4 554.0 389.9 Q554.8 390.5 554.9 391.4 555.75 392.05 556.75 392.25 L559.55 392.1 Q560.7 391.8 561.8 391.15 L562.35 390.95 567.0 391.15 Q568.0 391.65 569.0 392.5 L570.4 393.95 570.9 394.55 Q572.3 396.6 572.6 398.8 572.8 400.25 572.65 401.9 M555.15 386.8 Q555.8 386.55 556.25 387.15 L556.55 387.65 556.6 387.75 Q555.6 387.9 555.45 388.4 L555.5 388.9 Q555.7 389.55 556.85 389.55 L557.05 389.45 Q558.4 388.9 557.7 387.2 L557.6 387.1 556.9 386.3 556.4 385.95 M556.8 391.1 L554.75 389.75 Q554.2 389.05 554.15 388.4 554.1 387.85 554.4 387.3 L555.15 386.8 M553.25 389.4 L552.6 389.15 551.75 389.1 Q551.2 389.25 550.6 389.65 L549.85 390.45 Q549.35 391.45 549.6 392.25 549.85 393.05 550.9 393.6 L551.55 393.75 Q553.25 394.0 553.6 392.5 553.65 391.2 552.2 391.3 L551.85 391.55 Q551.2 392.0 551.9 392.7 L551.4 392.7 550.75 392.05 550.75 391.95 Q550.45 391.1 551.3 390.55 L551.65 390.45 552.3 390.45 Q553.25 390.55 553.8 391.5 554.05 392.75 552.4 395.35 L551.4 396.8 550.7 398.1 550.0 401.15 Q549.95 401.9 550.05 402.65 550.3 405.0 551.75 407.55 L553.15 409.45 554.45 410.8 556.05 411.9 Q558.65 413.2 561.8 412.55 L563.6 412.05 Q565.4 411.4 567.4 410.15 L572.0 406.5 573.55 402.3 Q574.0 400.45 573.9 398.85 573.7 396.6 572.4 394.7 L572.0 394.2 Q571.05 392.9 570.1 391.95 568.65 390.5 567.25 389.95 L566.1 389.65 Q564.6 389.35 563.15 389.65 561.6 389.95 560.0 390.65 L559.8 390.8 Q558.65 391.3 557.55 391.2 L556.8 391.1 M553.8 394.85 Q555.15 392.85 554.9 391.4 M551.9 397.85 L552.6 396.4 553.8 394.85 M563.75 410.7 L567.0 409.0 570.9 405.65 Q572.0 403.85 572.45 402.05 L572.45 401.8 M551.1 401.3 L551.6 398.7 551.9 397.85 M551.1 401.3 Q550.95 404.15 552.45 406.9 L553.95 409.2 Q554.6 409.85 555.2 410.3 L556.75 411.25 Q559.15 412.2 562.35 411.25 L563.75 410.7" ffdec:has-small-stroke="true" ffdec:original-stroke-width="0.2" fill="none" stroke="#000000" stroke-linecap="butt" stroke-linejoin="miter-clip" stroke-miterlimit="3.0" stroke-opacity="0.4" stroke-width="1.0"/>
    <path d="M565.55 409.15 Q564.85 408.3 563.15 407.65 564.25 406.8 566.9 405.7 L565.55 409.15" fill="#e5c59a" fill-rule="evenodd" stroke="none"/>
    <path d="M565.55 409.15 Q564.85 408.3 563.15 407.65 564.25 406.8 566.9 405.7" ffdec:has-small-stroke="true" ffdec:original-stroke-width="0.05" fill="none" stroke="#9e8769" stroke-linecap="butt" stroke-linejoin="miter-clip" stroke-miterlimit="3.0" stroke-width="1.0"/>
    <path d="M567.4 405.35 Q568.75 403.35 570.35 401.75 570.85 403.8 571.7 404.85 L567.4 405.35" fill="#e5c59a" fill-rule="evenodd" stroke="none"/>
    <path d="M571.7 404.85 Q570.85 403.8 570.35 401.75 568.75 403.35 567.4 405.35" ffdec:has-small-stroke="true" ffdec:original-stroke-width="0.05" fill="none" stroke="#9e8769" stroke-linecap="butt" stroke-linejoin="miter-clip" stroke-miterlimit="3.0" stroke-width="1.0"/>
    <path d="M565.0 408.7 L566.6 409.7 564.55 411.7 Q564.15 410.45 565.0 408.7" fill="#fff5e0" fill-rule="evenodd" stroke="none"/>
    <path d="M565.0 408.7 L566.55 408.15 567.35 408.25 568.2 408.9 566.6 409.7 565.0 408.7" fill="#e5c59a" fill-rule="evenodd" stroke="none"/>
    <path d="M566.6 409.7 L564.55 411.7 Q564.15 410.45 565.0 408.7" ffdec:has-small-stroke="true" ffdec:original-stroke-width="0.05" fill="none" stroke="#9e8769" stroke-linecap="butt" stroke-linejoin="miter-clip" stroke-miterlimit="3.0" stroke-width="1.0"/>
    <path d="M571.55 403.45 L571.7 404.45 572.0 405.7 570.35 407.9 Q569.55 407.05 570.25 404.85 L571.55 403.45 M570.45 405.8 Q571.05 404.8 571.7 404.45 571.05 404.8 570.45 405.8" fill="#e5c59a" fill-rule="evenodd" stroke="none"/>
    <path d="M571.7 404.45 L571.55 403.45 Q573.1 403.5 574.45 404.2 572.9 404.9 572.0 405.7 L571.7 404.45 572.5 404.15 571.7 404.45" fill="#fff5e0" fill-rule="evenodd" stroke="none"/>
    <path d="M571.7 404.45 L572.5 404.15 M572.0 405.7 Q572.9 404.9 574.45 404.2 573.1 403.5 571.55 403.45 L570.25 404.85 M570.35 407.9 L572.0 405.7 M571.7 404.45 Q571.05 404.8 570.45 405.8" ffdec:has-small-stroke="true" ffdec:original-stroke-width="0.05" fill="none" stroke="#9e8769" stroke-linecap="butt" stroke-linejoin="miter-clip" stroke-miterlimit="3.0" stroke-width="1.0"/>
    <path d="M568.4 408.15 L568.5 409.2 568.4 408.15 M567.0 409.9 Q567.5 408.45 568.35 407.45 570.05 406.55 571.3 406.95 569.75 407.9 568.5 409.2 567.75 409.2 567.0 409.9" fill="#e5c59a" fill-rule="evenodd" stroke="none"/>
    <path d="M571.3 406.95 Q569.8 408.75 569.25 411.0 568.15 410.3 567.0 409.9 567.75 409.2 568.5 409.2 569.75 407.9 571.3 406.95" fill="#fff5e0" fill-rule="evenodd" stroke="none"/>
    <path d="M568.5 409.2 L568.4 408.15 M571.3 406.95 Q569.8 408.75 569.25 411.0 568.15 410.3 567.0 409.9" ffdec:has-small-stroke="true" ffdec:original-stroke-width="0.05" fill="none" stroke="#9e8769" stroke-linecap="butt" stroke-linejoin="miter-clip" stroke-miterlimit="3.0" stroke-width="1.0"/>
    <path d="M570.7 405.75 Q570.8 404.0 569.7 403.55 L571.6 402.55 Q571.8 404.2 571.5 404.8 L570.7 405.75 M565.75 403.7 L567.95 403.7 Q566.75 404.6 566.1 406.0 L565.85 405.9 Q565.25 405.35 565.75 403.7 M565.2 407.5 Q566.15 408.35 567.65 408.45 L566.7 409.15 564.25 409.25 565.2 407.5" fill="#b3946d" fill-rule="evenodd" stroke="none"/>
    <path d="M565.75 407.95 Q564.7 406.1 564.55 404.4 566.15 405.35 568.0 405.2 566.8 408.5 565.75 407.95" fill="#6875a1" fill-rule="evenodd" stroke="none"/>
    <path d="M565.75 407.95 Q564.7 406.1 564.55 404.4 566.15 405.35 568.0 405.2" ffdec:has-small-stroke="true" ffdec:original-stroke-width="0.05" fill="none" stroke="#51597d" stroke-linecap="butt" stroke-linejoin="miter-clip" stroke-miterlimit="3.0" stroke-width="1.0"/>
    <path d="M564.45 406.0 Q566.35 407.25 568.8 407.8 L567.9 408.4 Q566.1 407.8 564.45 406.0" fill="#6875a1" fill-rule="evenodd" stroke="none"/>
    <path d="M567.9 408.4 L566.1 408.55 Q564.6 407.25 564.45 406.0 566.1 407.8 567.9 408.4" fill="url(#gradient1)" fill-rule="evenodd" stroke="none"/>
    <path d="M566.55 402.55 Q568.7 402.9 570.0 404.3 570.15 404.85 569.75 405.0 569.05 403.5 566.55 402.55" fill="url(#gradient2)" fill-rule="evenodd" stroke="none"/>
    <path d="M569.75 405.0 Q568.85 405.95 566.95 406.5 567.55 404.45 566.55 402.55 569.05 403.5 569.75 405.0" fill="#6875a1" fill-rule="evenodd" stroke="none"/>
    <path d="M570.05 406.25 L569.25 406.7 Q569.25 404.45 568.45 402.4 570.0 404.8 570.05 406.25" fill="#6875a1" fill-rule="evenodd" stroke="none"/>
    <path d="M568.45 402.4 Q569.75 402.9 570.75 404.45 571.0 405.55 570.05 406.25 570.0 404.8 568.45 402.4" fill="url(#gradient3)" fill-rule="evenodd" stroke="none"/>
    <path d="M567.45 407.45 Q566.7 407.35 566.2 406.75 565.75 406.2 565.85 405.45 565.9 404.7 566.5 404.25 567.05 403.8 567.75 403.85 568.55 403.95 569.0 404.5 569.5 405.05 569.4 405.8 569.3 406.6 568.7 407.05 568.15 407.5 567.45 407.45" fill="#ffd919" fill-rule="evenodd" stroke="none"/>
    <path d="M567.0 404.7 L566.7 404.45 Q566.6 404.25 566.8 404.15 L567.15 404.05 567.7 404.2 567.95 404.4 567.9 404.65 567.45 404.8 567.0 404.7" fill="#fff8df" fill-rule="evenodd" stroke="none"/>
    <path d="M570.45 406.05 L569.1 407.75 567.85 408.55 Q567.1 407.15 567.15 405.1 568.65 404.75 570.45 406.05" fill="url(#gradient4)" fill-rule="evenodd" stroke="none"/>
    <path d="M569.75 407.3 L570.25 405.0 571.15 405.15 Q570.3 407.1 569.75 407.3 M566.5 408.15 L569.05 408.05 Q568.7 408.5 566.6 409.0 L566.5 408.15" fill="#a18562" fill-rule="evenodd" stroke="none"/>
    <path d="M548.5 376.35 Q547.4 374.2 547.8 371.8 L547.9 371.45 Q549.1 371.05 549.85 371.9 L549.8 372.1 Q549.4 374.55 550.6 376.8 L550.7 377.0 Q550.05 377.2 548.5 376.35 M560.75 372.75 L562.75 372.95 562.75 374.9 562.55 375.85 Q561.3 376.55 560.45 376.05 L560.8 374.7 Q560.95 373.7 560.75 372.75 M561.6 377.7 L561.55 377.75 560.5 378.65 Q559.6 379.1 558.65 379.5 L556.85 379.25 558.55 378.45 559.55 377.5 561.6 377.7" fill="#ffcc00" fill-rule="evenodd" stroke="none"/>
    <path d="M550.5 369.8 L550.95 368.95 Q551.65 368.0 552.7 367.25 553.45 366.75 554.3 366.45 L554.75 368.05 553.6 368.65 Q551.65 370.0 551.35 372.35 551.05 374.4 551.95 376.15 L550.7 377.0 550.6 376.8 Q549.4 374.55 549.8 372.1 L549.85 371.9 550.35 370.05 550.5 369.8 M562.0 368.35 L563.0 369.6 Q564.05 371.0 564.35 372.6 L562.75 372.95 Q562.55 371.7 561.8 370.65 L561.15 369.85 562.0 368.35" fill="#8f7301" fill-rule="evenodd" stroke="none"/>
    <path d="M548.45 369.65 Q549.0 370.65 550.5 369.8 L550.35 370.05 549.85 371.9 Q549.1 371.05 547.9 371.45 L548.45 369.65 M562.55 375.85 Q562.25 376.9 561.6 377.7 L559.55 377.5 560.45 376.05 Q561.3 376.55 562.55 375.85" fill="#fee892" fill-rule="evenodd" stroke="none"/>
    <path d="M556.85 366.05 L556.9 366.05 558.05 366.25 558.2 366.25 Q560.4 366.7 562.0 368.35 L561.15 369.85 560.6 369.2 Q559.55 369.4 558.4 368.8 557.5 368.05 556.35 367.75 L554.75 368.05 554.3 366.45 556.4 366.05 556.85 366.05 M559.1 381.2 L557.05 381.25 556.45 381.2 556.15 381.15 555.85 381.1 555.8 381.1 554.6 380.6 553.45 380.05 552.75 379.55 551.2 377.8 550.7 377.0 551.95 376.15 552.4 376.8 Q553.45 378.3 554.8 378.95 L555.85 379.35 556.2 379.45 558.65 379.5 559.1 381.2 M556.35 367.75 L557.85 367.85 Q559.45 368.15 560.6 369.2 559.45 368.15 557.85 367.85 L556.35 367.75" fill="#b18e01" fill-rule="evenodd" stroke="none"/>
    <path d="M554.3 366.45 L551.4 366.6 Q553.25 365.6 555.35 365.85 L556.85 366.05 556.4 366.05 554.3 366.45 M555.8 381.1 L554.1 380.85 Q552.1 380.4 550.65 379.15 L553.45 380.05 554.6 380.6 555.8 381.1 M559.0 369.25 L561.15 369.85 561.8 370.65 Q562.55 371.7 562.75 372.95 L560.75 372.75 Q560.6 371.45 559.75 370.2 L559.0 369.25 M556.85 379.25 L558.65 379.5 556.2 379.45 555.85 379.35 556.85 379.25" fill="#dbaf02" fill-rule="evenodd" stroke="none"/>
    <path d="M548.45 369.65 Q549.2 368.05 550.75 367.0 L551.4 366.6 554.3 366.45 Q553.45 366.75 552.7 367.25 551.65 368.0 550.95 368.95 L550.5 369.8 Q549.0 370.65 548.45 369.65" fill="#fedc56" fill-rule="evenodd" stroke="none"/>
    <path d="M559.0 369.25 L558.4 368.8 Q559.55 369.4 560.6 369.2 L561.15 369.85 559.0 369.25" fill="#4b3d01" fill-rule="evenodd" stroke="none"/>
    <path d="M564.35 372.6 Q564.6 373.95 564.45 375.3 564.0 378.4 561.55 380.05 560.35 380.65 559.1 381.2 L558.65 379.5 Q559.6 379.1 560.5 378.65 L561.55 377.75 561.6 377.7 Q562.25 376.9 562.55 375.85 L562.75 374.9 562.75 372.95 564.35 372.6" fill="#c19a02" fill-rule="evenodd" stroke="none"/>
    <path d="M551.4 366.6 L550.75 367.0 Q549.2 368.05 548.45 369.65 L547.9 371.45 547.8 371.8 Q547.4 374.2 548.5 376.35 L549.15 377.55 549.6 378.0 550.65 379.15 Q552.1 380.4 554.1 380.85 L555.8 381.1 556.15 381.15 556.45 381.2 557.05 381.25 559.1 381.2 Q560.35 380.65 561.55 380.05 564.0 378.4 564.45 375.3 564.6 373.95 564.35 372.6 564.05 371.0 563.0 369.6 L562.0 368.35 Q560.4 366.7 558.2 366.25 L558.05 366.25 556.9 366.05 556.85 366.05 555.35 365.85 Q553.25 365.6 551.4 366.6 M551.95 376.15 Q551.05 374.4 551.35 372.35 551.65 370.0 553.6 368.65 L554.75 368.05 556.35 367.75 Q557.5 368.05 558.4 368.8 L559.0 369.25 559.75 370.2 Q560.6 371.45 560.75 372.75 560.95 373.7 560.8 374.7 L560.45 376.05 559.55 377.5 558.55 378.45 556.85 379.25 555.85 379.35 554.8 378.95 Q553.45 378.3 552.4 376.8 L551.95 376.15" ffdec:has-small-stroke="true" ffdec:original-stroke-width="0.2" fill="none" stroke="#000000" stroke-linecap="butt" stroke-linejoin="miter-clip" stroke-miterlimit="3.0" stroke-opacity="0.4" stroke-width="1.0"/>
    <path d="M550.5 369.8 L550.95 368.95 Q551.65 368.0 552.7 367.25 553.45 366.75 554.3 366.45 L556.4 366.05 556.85 366.05 M550.5 369.8 L550.35 370.05 549.85 371.9 549.8 372.1 Q549.4 374.55 550.6 376.8 L550.7 377.0 551.2 377.8 552.75 379.55 553.45 380.05 554.6 380.6 555.8 381.1 555.85 381.1 556.15 381.15 M561.15 369.85 L560.6 369.2 Q559.45 368.15 557.85 367.85 L556.35 367.75 M561.15 369.85 L561.8 370.65 Q562.55 371.7 562.75 372.95 L562.75 374.9 562.55 375.85 Q562.25 376.9 561.6 377.7 L561.55 377.75 560.5 378.65 Q559.6 379.1 558.65 379.5 L556.2 379.45 555.85 379.35" ffdec:has-small-stroke="true" ffdec:original-stroke-width="0.2" fill="none" stroke="#ffff99" stroke-linecap="butt" stroke-linejoin="miter-clip" stroke-miterlimit="3.0" stroke-opacity="0.5803922" stroke-width="1.0"/>
  </g>
  <defs>
    <linearGradient gradientTransform="matrix(-0.0035, -0.0049, 0.0053, -0.0038, 572.2, 411.65)" gradientUnits="userSpaceOnUse" id="gradient0" spreadMethod="pad" x1="-819.2" x2="819.2">
      <stop offset="0.06666666666666667" stop-color="#ff0b0b" stop-opacity="0.7019608"/>
      <stop offset="0.5137254901960784" stop-color="#f56b58" stop-opacity="0.7019608"/>
      <stop offset="1.0" stop-color="#fbe7d9" stop-opacity="0.6509804"/>
    </linearGradient>
    <linearGradient gradientTransform="matrix(-0.0011, -7.0E-4, 4.0E-4, -6.0E-4, 566.0, 407.8)" gradientUnits="userSpaceOnUse" id="gradient1" spreadMethod="pad" x1="-819.2" x2="819.2">
      <stop offset="0.06666666666666667" stop-color="#90b1f5"/>
      <stop offset="1.0" stop-color="#dce9fc"/>
    </linearGradient>
    <linearGradient gradientTransform="matrix(-9.0E-4, -7.0E-4, 3.0E-4, -4.0E-4, 569.05, 403.95)" gradientUnits="userSpaceOnUse" id="gradient2" spreadMethod="pad" x1="-819.2" x2="819.2">
      <stop offset="0.06666666666666667" stop-color="#90b1f5"/>
      <stop offset="1.0" stop-color="#dce9fc"/>
    </linearGradient>
    <linearGradient color-interpolation="linearRGB" gradientTransform="matrix(-8.0E-4, -0.0011, 8.0E-4, -6.0E-4, 569.5, 404.25)" gradientUnits="userSpaceOnUse" id="gradient3" spreadMethod="pad" x1="-819.2" x2="819.2">
      <stop offset="0.06666666666666667" stop-color="#90b1f5"/>
      <stop offset="1.0" stop-color="#dce9fc"/>
    </linearGradient>
    <linearGradient gradientTransform="matrix(-0.001, -0.001, 0.0016, -0.0015, 568.45, 406.5)" gradientUnits="userSpaceOnUse" id="gradient4" spreadMethod="pad" x1="-819.2" x2="819.2">
      <stop offset="0.06666666666666667" stop-color="#90b1f5"/>
      <stop offset="1.0" stop-color="#dce9fc"/>
    </linearGradient>
  </defs>
</svg>
