<?xml version="1.0" encoding="UTF-8" standalone="no"?>
<svg xmlns:ffdec="https://www.free-decompiler.com/flash" xmlns:xlink="http://www.w3.org/1999/xlink" ffdec:objectType="shape" height="32.55px" width="30.9px" xmlns="http://www.w3.org/2000/svg">
  <g transform="matrix(1.0, 0.0, 0.0, 1.0, -532.2, -349.9)">
    <path d="M551.35 358.55 Q562.3 365.0 563.0 368.45 562.85 370.45 560.85 371.25 559.4 371.5 558.45 369.9 558.05 369.05 557.2 368.65 555.3 367.8 553.7 369.2 551.7 371.2 551.8 373.6 552.7 377.9 555.1 378.5 557.8 378.85 557.25 380.55 555.95 382.5 552.55 382.1 546.45 381.1 539.7 375.3 L539.45 375.0 Q537.3 373.2 536.1 370.5 533.8 363.65 538.3 360.1 541.15 358.3 543.75 357.65 547.8 356.7 551.35 358.55" fill="url(#gradient0)" fill-rule="evenodd" stroke="none"/>
    <path d="M551.35 358.55 Q547.8 356.7 543.75 357.65 541.15 358.3 538.3 360.1 533.8 363.65 536.1 370.5 537.3 373.2 539.45 375.0 L539.7 375.3 Q546.45 381.1 552.55 382.1 555.95 382.5 557.25 380.55 557.8 378.85 555.1 378.5 552.7 377.9 551.8 373.6 551.7 371.2 553.7 369.2 555.3 367.8 557.2 368.65 558.05 369.05 558.45 369.9 559.4 371.5 560.85 371.25 562.85 370.45 563.0 368.45 562.3 365.0 551.35 358.55 Z" ffdec:has-small-stroke="true" ffdec:original-stroke-width="0.2" fill="none" stroke="#000000" stroke-linecap="butt" stroke-linejoin="miter-clip" stroke-miterlimit="3.0" stroke-opacity="0.4" stroke-width="1.0"/>
    <path d="M552.3 359.95 L547.0 361.4 546.1 363.4 546.75 367.8 541.65 365.6 537.55 364.9 538.6 363.8 535.5 364.15 536.25 362.4 540.7 359.95 549.85 358.15 552.3 359.95" fill="#000000" fill-opacity="0.21176471" fill-rule="evenodd" stroke="none"/>
    <path d="M535.85 360.1 Q535.25 358.25 533.0 355.85 L540.6 355.35 535.85 360.1" fill="#77ba00" fill-rule="evenodd" stroke="none"/>
    <path d="M535.85 360.1 Q535.25 358.25 533.0 355.85 L540.6 355.35" ffdec:has-small-stroke="true" ffdec:original-stroke-width="0.05" fill="none" stroke="#4d8c2b" stroke-linecap="butt" stroke-linejoin="miter-clip" stroke-miterlimit="3.0" stroke-opacity="0.7019608" stroke-width="1.0"/>
    <path d="M549.25 357.65 L541.7 355.2 Q545.45 352.8 549.35 351.4 548.65 355.2 549.25 357.65" fill="#77ba00" fill-rule="evenodd" stroke="none"/>
    <path d="M549.25 357.65 Q548.65 355.2 549.35 351.4 545.45 352.8 541.7 355.2" ffdec:has-small-stroke="true" ffdec:original-stroke-width="0.05" fill="none" stroke="#498c2b" stroke-linecap="butt" stroke-linejoin="miter-clip" stroke-miterlimit="3.0" stroke-opacity="0.7019608" stroke-width="1.0"/>
    <path d="M535.2 358.9 L538.2 359.25 539.45 359.95 540.35 361.7 537.2 361.95 535.2 358.9" fill="#77ba00" fill-rule="evenodd" stroke="none"/>
    <path d="M537.2 361.95 L532.2 363.6 Q532.5 361.3 535.2 358.9 L537.2 361.95" fill="#7cd100" fill-rule="evenodd" stroke="none"/>
    <path d="M537.2 361.95 L532.2 363.6 Q532.5 361.3 535.2 358.9" ffdec:has-small-stroke="true" ffdec:original-stroke-width="0.05" fill="none" stroke="#518c2b" stroke-linecap="butt" stroke-linejoin="miter-clip" stroke-miterlimit="3.0" stroke-opacity="0.7019608" stroke-width="1.0"/>
    <path d="M549.6 356.85 L549.05 359.25 Q546.7 360.25 544.7 361.7 544.05 359.6 546.9 356.5 L550.0 355.1 549.6 356.85 Q548.1 357.0 546.5 358.25 548.1 357.0 549.6 356.85" fill="#77ba00" fill-rule="evenodd" stroke="none"/>
    <path d="M549.05 359.25 L549.6 356.85 550.0 355.1 Q552.55 356.3 554.35 358.55 551.2 358.55 549.05 359.25 M551.05 357.0 L549.6 356.85 551.05 357.0" fill="#7cd100" fill-rule="evenodd" stroke="none"/>
    <path d="M549.6 356.85 Q548.1 357.0 546.5 358.25 M549.6 356.85 L551.05 357.0" ffdec:has-small-stroke="true" ffdec:original-stroke-width="0.05" fill="none" stroke="#5b8c2b" stroke-linecap="butt" stroke-linejoin="miter-clip" stroke-miterlimit="3.0" stroke-width="1.0"/>
    <path d="M550.0 355.1 L546.9 356.5 M544.7 361.7 Q546.7 360.25 549.05 359.25 551.2 358.55 554.35 358.55 552.55 356.3 550.0 355.1" ffdec:has-small-stroke="true" ffdec:original-stroke-width="0.05" fill="none" stroke="#548c2b" stroke-linecap="butt" stroke-linejoin="miter-clip" stroke-miterlimit="3.0" stroke-opacity="0.7019608" stroke-width="1.0"/>
    <path d="M541.3 360.6 L540.65 362.5 541.3 360.6 M537.65 362.5 Q539.6 360.4 541.75 359.45 545.15 359.2 546.95 360.8 543.75 361.2 540.65 362.5 539.45 361.9 537.65 362.5" fill="#77ba00" fill-rule="evenodd" stroke="none"/>
    <path d="M546.95 360.8 Q543.25 362.65 540.7 365.95 539.4 363.95 537.65 362.5 539.45 361.9 540.65 362.5 543.75 361.2 546.95 360.8" fill="#7cd100" fill-rule="evenodd" stroke="none"/>
    <path d="M540.65 362.5 L541.3 360.6" ffdec:has-small-stroke="true" ffdec:original-stroke-width="0.05" fill="none" stroke="#5b8c2b" stroke-linecap="butt" stroke-linejoin="miter-clip" stroke-miterlimit="3.0" stroke-width="1.0"/>
    <path d="M546.95 360.8 Q543.25 362.65 540.7 365.95 539.4 363.95 537.65 362.5" ffdec:has-small-stroke="true" ffdec:original-stroke-width="0.05" fill="none" stroke="#578c2b" stroke-linecap="butt" stroke-linejoin="miter-clip" stroke-miterlimit="3.0" stroke-opacity="0.7019608" stroke-width="1.0"/>
    <path d="M550.75 353.75 Q549.95 356.55 548.9 357.35 L546.9 358.35 Q548.35 355.4 546.85 353.9 L550.75 353.75 M536.4 357.15 Q537.4 359.2 539.85 360.5 L537.7 361.05 Q536.4 361.15 533.55 359.3 L536.4 357.15 M538.75 354.95 Q538.1 353.6 540.25 351.15 L543.95 352.95 Q541.1 353.5 539.0 355.35 L538.75 354.95" fill="#578234" fill-rule="evenodd" stroke="none"/>
    <path d="M537.05 358.25 Q536.65 354.4 537.65 351.55 539.65 354.15 542.85 355.4 538.3 360.0 537.05 358.25" fill="#a39171" fill-rule="evenodd" stroke="none"/>
    <path d="M537.05 358.25 Q536.65 354.4 537.65 351.55 539.65 354.15 542.85 355.4 538.3 360.0 537.05 358.25 Z" ffdec:has-small-stroke="true" ffdec:original-stroke-width="0.05" fill="none" stroke="#bdab89" stroke-linecap="butt" stroke-linejoin="miter-clip" stroke-miterlimit="3.0" stroke-width="1.0"/>
    <path d="M540.3 360.65 Q537.7 358.3 536.25 354.1 538.55 357.65 542.15 360.3 L540.3 360.65" fill="#b8a17e" fill-rule="evenodd" stroke="none"/>
    <path d="M540.3 360.65 Q538.35 360.85 537.15 359.5 535.6 356.25 536.25 354.1 537.7 358.3 540.3 360.65" fill="url(#gradient1)" fill-rule="evenodd" stroke="none"/>
    <path d="M545.9 356.4 Q545.75 353.3 542.4 349.9 545.65 352.0 546.85 355.45 546.6 356.3 545.9 356.4" fill="#fff1d1" fill-rule="evenodd" stroke="none"/>
    <path d="M545.9 356.4 Q543.7 357.35 540.1 356.85 542.65 353.7 542.4 349.9 545.75 353.3 545.9 356.4" fill="#ad9877" fill-rule="evenodd" stroke="none"/>
    <path d="M545.4 358.65 Q546.45 356.25 545.6 351.1 547.45 352.85 547.95 356.3 547.55 358.15 545.4 358.65" fill="url(#gradient2)" fill-rule="evenodd" stroke="none"/>
    <path d="M545.4 358.65 L543.8 358.8 Q545.55 355.15 545.6 351.1 546.45 356.25 545.4 358.65" fill="#b8a17e" fill-rule="evenodd" stroke="none"/>
    <path d="M541.0 352.7 Q542.3 352.3 543.45 353.0 544.65 353.7 545.0 354.95 545.3 356.3 544.65 357.45 544.0 358.65 542.7 359.05 541.4 359.35 540.15 358.65 539.0 358.0 538.7 356.65 538.3 355.4 539.0 354.2 539.65 353.0 541.0 352.7" fill="#ffd919" fill-rule="evenodd" stroke="none"/>
    <path d="M541.55 353.85 L541.2 353.15 541.55 352.75 542.25 352.85 543.05 353.4 543.3 354.05 543.05 354.5 542.2 354.35 541.55 353.85" fill="#fff8df" fill-rule="evenodd" stroke="none"/>
    <path d="M546.35 358.6 Q544.8 359.9 542.75 360.45 L540.1 360.75 Q539.9 358.0 541.45 354.5 544.3 355.2 546.35 358.6" fill="url(#gradient3)" fill-rule="evenodd" stroke="none"/>
    <path d="M546.35 358.6 Q544.3 355.2 541.45 354.5 539.9 358.0 540.1 360.75" ffdec:has-small-stroke="true" ffdec:original-stroke-width="0.05" fill="none" stroke="#baa789" stroke-linecap="butt" stroke-linejoin="miter-clip" stroke-miterlimit="3.0" stroke-width="1.0"/>
    <path d="M537.65 360.65 L538.2 359.2 Q539.85 360.15 542.5 360.85 L537.65 360.65 M546.7 356.75 L548.05 357.7 Q545.2 360.25 544.15 360.25 546.0 358.35 546.7 356.75" fill="#5b941b" fill-rule="evenodd" stroke="none"/>
    <path d="M559.4 370.6 L560.25 370.55 Q561.15 370.35 562.0 369.2 L562.65 367.75 562.7 367.85 562.8 368.0 562.9 368.0 Q563.1 368.15 562.95 368.75 L562.5 369.9 Q561.6 371.15 560.7 371.25 L559.75 371.0 559.5 370.7 559.4 370.6 M556.95 380.85 Q556.55 381.4 555.3 381.85 L553.8 382.1 553.7 382.1 554.35 381.95 Q555.5 381.7 556.15 380.75 556.6 380.2 556.4 379.65 L556.0 379.05 555.85 378.9 556.2 378.9 556.6 379.0 556.8 379.15 557.2 379.65 Q557.4 380.25 556.95 380.85" fill="#ffffff" fill-opacity="0.5019608" fill-rule="evenodd" stroke="none"/>
  </g>
  <defs>
    <linearGradient gradientTransform="matrix(0.0061, -0.0059, 0.0118, 0.0124, 549.2, 369.0)" gradientUnits="userSpaceOnUse" id="gradient0" spreadMethod="pad" x1="-819.2" x2="819.2">
      <stop offset="0.06666666666666667" stop-color="#65d8f3" stop-opacity="0.7019608"/>
      <stop offset="0.5137254901960784" stop-color="#87d6f2" stop-opacity="0.7019608"/>
      <stop offset="1.0" stop-color="#d5ebf5" stop-opacity="0.6509804"/>
    </linearGradient>
    <linearGradient gradientTransform="matrix(0.0012, 0.0021, -0.0011, 7.0E-4, 537.65, 358.2)" gradientUnits="userSpaceOnUse" id="gradient1" spreadMethod="pad" x1="-819.2" x2="819.2">
      <stop offset="0.050980392156862744" stop-color="#fff1d1"/>
      <stop offset="1.0" stop-color="#feda9e"/>
    </linearGradient>
    <linearGradient gradientTransform="matrix(4.0E-4, 0.0024, -0.0017, 2.0E-4, 546.35, 355.65)" gradientUnits="userSpaceOnUse" id="gradient2" spreadMethod="pad" x1="-819.2" x2="819.2">
      <stop offset="0.050980392156862744" stop-color="#fff1d1"/>
      <stop offset="1.0" stop-color="#feda9e"/>
    </linearGradient>
    <linearGradient gradientTransform="matrix(0.0011, 0.0039, -0.0039, 0.001, 543.0, 358.85)" gradientUnits="userSpaceOnUse" id="gradient3" spreadMethod="pad" x1="-819.2" x2="819.2">
      <stop offset="0.0" stop-color="#fff8ec"/>
      <stop offset="0.27058823529411763" stop-color="#fff1d1"/>
      <stop offset="1.0" stop-color="#d1a16d"/>
    </linearGradient>
  </defs>
</svg>
