<?xml version="1.0" encoding="UTF-8" standalone="no"?>
<svg xmlns:ffdec="https://www.free-decompiler.com/flash" xmlns:xlink="http://www.w3.org/1999/xlink" ffdec:objectType="shape" height="11.15px" width="13.55px" xmlns="http://www.w3.org/2000/svg">
  <g transform="matrix(1.0, 0.0, 0.0, 1.0, -537.35, -330.15)">
    <path d="M546.4 335.75 L546.4 335.45 546.65 335.2 546.9 335.0 548.75 333.1 548.95 332.9 Q549.5 332.15 549.5 331.5 549.55 331.0 549.15 330.6 L546.95 331.0 Q542.35 333.2 540.3 335.6 538.2 338.0 537.85 338.8 537.65 339.75 538.75 339.55 L539.1 339.45 Q542.75 338.25 545.8 335.9 L545.9 336.15 542.4 338.45 539.2 339.8 538.7 339.9 538.1 339.8 Q537.85 339.8 537.7 339.6 L537.6 339.55 537.6 339.5 537.45 339.15 Q537.4 338.9 537.85 338.0 539.2 335.85 542.05 333.5 545.85 330.5 549.15 330.25 L549.4 330.45 549.45 330.5 549.75 331.15 549.8 331.8 549.7 332.1 549.3 332.95 549.75 333.8 549.15 333.1 548.55 333.9 546.4 335.75 M548.95 333.1 L549.15 333.1 548.95 333.1 M549.3 332.95 L548.95 332.9 549.3 332.95" fill="#d19947" fill-rule="evenodd" stroke="none"/>
    <path d="M549.75 331.15 L549.45 330.5 550.6 331.7 550.75 332.1 Q550.2 331.9 549.75 331.15 M537.7 339.6 Q537.85 339.8 538.1 339.8 538.75 340.5 539.0 341.15 L538.55 340.95 537.7 339.6" fill="#bc6734" fill-rule="evenodd" stroke="none"/>
    <path d="M546.4 335.75 L546.25 335.5 546.4 335.45 546.4 335.75 M539.1 339.45 L538.75 339.55 Q537.65 339.75 537.85 338.8 538.2 338.0 540.3 335.6 542.35 333.2 546.95 331.0 L549.15 330.6 Q549.55 331.0 549.5 331.5 545.4 332.8 542.9 334.8 539.45 338.0 539.1 339.45 M549.7 332.1 L549.8 331.8 549.75 331.15 Q550.2 331.9 550.75 332.1 L550.8 332.8 Q550.3 332.15 549.7 332.1 M538.1 339.8 L538.7 339.9 539.2 339.8 540.15 340.95 540.5 341.2 539.15 341.2 539.0 341.15 Q538.75 340.5 538.1 339.8 M550.75 333.25 L550.4 333.2 549.9 332.75 550.75 333.25" fill="#6c3c1e" fill-rule="evenodd" stroke="none"/>
    <path d="M548.55 333.9 L549.15 333.1 549.75 333.8 549.3 332.95 549.7 332.1 Q550.3 332.15 550.8 332.8 L550.75 333.25 549.9 332.75 550.4 333.2 550.7 333.45 550.45 333.95 549.35 335.35 Q549.15 334.55 548.55 333.9 M539.2 339.8 L542.4 338.45 Q542.6 339.45 543.25 340.1 L543.35 340.25 541.05 341.1 540.5 341.2 540.15 340.95 539.2 339.8" fill="#b45832" fill-rule="evenodd" stroke="none"/>
    <path d="M546.4 335.45 L546.25 335.5 546.4 335.75 546.6 336.35 546.5 336.4 546.5 336.45 546.2 335.8 546.15 335.45 546.65 335.2 546.4 335.45 M546.3 335.8 L546.6 336.35 546.3 335.8" fill="#5c4901" fill-rule="evenodd" stroke="none"/>
    <path d="M546.65 335.2 L546.15 335.45 546.1 335.45 545.95 335.8 547.0 337.9 546.9 338.05 546.85 338.0 546.65 338.0 543.85 339.95 543.35 340.25 543.25 340.1 Q542.6 339.45 542.4 338.45 L545.9 336.15 545.8 335.9 Q545.55 335.75 545.85 335.4 546.6 335.0 546.9 335.0 L546.65 335.2 M546.8 337.9 L545.9 336.15 546.8 337.9 M545.75 336.25 L546.65 338.0 545.75 336.25" fill="#ffcc00" fill-rule="evenodd" stroke="none"/>
    <path d="M546.15 335.45 L546.2 335.8 546.5 336.45 546.5 336.4 546.6 336.35 546.4 335.75 548.55 333.9 Q549.15 334.55 549.35 335.35 L548.15 336.85 547.55 337.65 546.9 338.05 547.0 337.9 545.95 335.8 546.1 335.45 546.15 335.45 M546.7 336.7 L547.25 337.65 548.15 336.85 547.25 337.65 546.7 336.7 546.65 336.7 546.65 336.65 546.6 336.7 546.65 336.65 546.65 336.7 546.7 336.7 546.85 336.65 547.0 336.6 547.2 336.4 547.0 336.6 546.85 336.65 546.7 336.7 M547.25 336.3 L546.6 336.7 547.25 336.3 547.25 336.2 547.2 336.2 547.25 336.2 547.25 336.3 Q547.45 336.45 547.05 336.8 L547.4 337.35 547.05 336.8 Q547.45 336.45 547.25 336.3 M546.45 336.6 L547.2 336.2 546.45 336.6 M546.6 336.7 L546.45 336.65 546.5 336.45 546.45 336.65 546.6 336.7 M547.2 336.2 L547.1 336.1 546.75 336.2 546.7 336.2 546.75 336.2 547.1 336.1 547.2 336.2 M548.2 336.65 L547.4 337.35 548.2 336.65 M547.4 337.35 L547.4 337.4 547.35 337.35 546.85 336.65 547.35 337.35 547.4 337.4 547.4 337.35" fill="#a08001" fill-rule="evenodd" stroke="none"/>
    <path d="M546.4 335.45 L546.25 335.5 546.4 335.75 M546.4 335.45 L546.65 335.2 546.9 335.0 Q546.6 335.0 545.85 335.4 545.55 335.75 545.8 335.9 542.75 338.25 539.1 339.45 L538.75 339.55 Q537.65 339.75 537.85 338.8 M546.5 336.45 L546.5 336.4 546.6 336.35 546.3 335.8 M546.9 338.05 L547.55 337.65 548.15 336.85 549.35 335.35 550.45 333.95 550.7 333.45 550.4 333.2 549.9 332.75 550.75 333.25 550.4 333.2 M546.7 336.7 L546.65 336.7 546.65 336.65 546.6 336.7 546.45 336.65 546.5 336.45 M547.25 336.3 L547.25 336.2 547.2 336.2 547.1 336.1 546.75 336.2 546.7 336.2 M549.15 333.1 L548.95 333.1 M545.8 335.9 L545.9 336.15 546.8 337.9 M549.15 330.6 Q549.55 331.0 549.5 331.5 549.5 332.15 548.95 332.9 L549.3 332.95 549.75 333.8 549.15 333.1 M549.8 331.8 L549.75 331.15 M549.45 330.5 L549.4 330.45 549.15 330.25 Q545.85 330.5 542.05 333.5 539.2 335.85 537.85 338.0 537.4 338.9 537.45 339.15 L537.6 339.5 537.6 339.55 537.7 339.6 538.55 340.95 539.0 341.15 539.15 341.2 540.5 341.2 541.05 341.1 543.35 340.25 543.85 339.95 546.65 338.0 545.75 336.25 M549.5 331.5 Q545.4 332.8 542.9 334.8 539.45 338.0 539.1 339.45 M546.9 335.0 L548.75 333.1 548.95 332.9 M549.45 330.5 L550.6 331.7 550.75 332.1 550.8 332.8 550.75 333.25 M547.4 337.35 L548.2 336.65 M546.7 336.7 L546.85 336.65 547.0 336.6 547.2 336.4 M546.9 338.05 L546.85 338.0 546.65 338.0 M546.85 336.65 L547.35 337.35 547.4 337.4 547.4 337.35" ffdec:has-small-stroke="true" ffdec:original-stroke-width="0.2" fill="none" stroke="#000000" stroke-linecap="butt" stroke-linejoin="miter-clip" stroke-miterlimit="3.0" stroke-opacity="0.4" stroke-width="1.0"/>
    <path d="M546.4 335.75 L548.55 333.9 549.15 333.1 M546.95 331.0 L549.15 330.6 M549.3 332.95 L549.7 332.1 549.8 331.8 M549.75 331.15 L549.45 330.5 M537.7 339.6 Q537.85 339.8 538.1 339.8 L538.7 339.9 539.2 339.8 542.4 338.45 545.9 336.15" ffdec:has-small-stroke="true" ffdec:original-stroke-width="0.2" fill="none" stroke="#ff9900" stroke-linecap="butt" stroke-linejoin="miter-clip" stroke-miterlimit="3.0" stroke-opacity="0.4" stroke-width="1.0"/>
    <path d="M545.75 335.75 L545.75 335.65 545.75 335.55 545.8 335.45 545.95 335.45 546.0 335.5 545.95 335.65 545.85 335.75 545.75 335.75" fill="#ffffff" fill-rule="evenodd" stroke="none"/>
    <path d="M546.55 336.45 L546.6 336.45 546.7 336.3 546.85 336.25 546.9 336.3 546.9 336.4 546.85 336.5 546.65 336.55 546.55 336.45" fill="#ffffff" fill-rule="evenodd" stroke="none"/>
  </g>
</svg>
