<?xml version="1.0" encoding="UTF-8" standalone="no"?>
<svg xmlns:ffdec="https://www.free-decompiler.com/flash" xmlns:xlink="http://www.w3.org/1999/xlink" ffdec:objectType="shape" height="53.95px" width="370.05px" xmlns="http://www.w3.org/2000/svg">
  <g transform="matrix(1.0, 0.0, 0.0, 1.0, -184.8, -311.65)">
    <path d="M542.85 333.5 Q542.75 333.05 543.1 332.3 L543.4 332.0 543.2 332.4 543.1 332.95 543.05 333.25 542.95 333.6 542.85 333.5 M545.75 336.9 L546.1 337.5 546.05 338.25 546.0 338.5 546.0 337.8 545.9 337.4 545.8 337.2 545.65 336.95 545.5 336.9 545.25 336.8 544.85 336.8 544.2 336.95 543.75 337.1 543.7 337.1 544.1 336.85 544.1 336.8 544.3 336.75 545.5 336.65 545.75 336.9 M539.8 335.3 L539.9 335.25 540.35 335.2 Q541.0 335.3 541.15 335.75 L541.1 335.8 540.8 335.5 540.25 335.3 540.0 335.3 539.8 335.3 M547.4 334.65 L547.55 334.6 548.1 335.35 548.6 335.75 549.0 335.95 549.05 335.95 548.65 336.0 548.6 336.0 548.0 335.65 547.35 334.9 547.1 335.0 546.9 335.05 546.9 334.95 546.9 334.85 547.0 334.4 547.2 334.1 547.1 334.55 547.1 334.65 547.4 334.65" fill="#ffffff" fill-opacity="0.5294118" fill-rule="evenodd" stroke="none"/>
    <path d="M548.0 332.25 Q546.15 332.95 544.45 333.95 L544.4 334.05 542.95 333.95 Q542.45 332.65 543.8 331.55 546.25 329.7 549.35 328.9 L553.7 328.8 Q555.35 329.65 554.35 331.8 553.1 334.35 550.25 335.6 L548.5 336.3 548.7 336.15 547.35 335.0 546.9 335.05 Q546.85 334.25 547.55 333.05 L548.0 332.25 545.7 332.2 548.0 332.25" fill="url(#gradient0)" fill-rule="evenodd" stroke="none"/>
    <path d="M542.35 337.7 Q544.4 336.4 545.45 336.55 546.8 337.4 545.75 339.6 L545.75 339.7 Q544.2 343.05 539.9 344.55 535.95 345.9 535.1 341.85 534.75 339.7 537.45 336.75 539.65 334.65 540.85 335.3 541.8 336.05 541.1 337.0 L539.9 338.55 542.3 337.7 542.35 337.7 M538.75 338.0 Q538.8 338.7 539.9 338.55 538.8 338.7 538.75 338.0" fill="url(#gradient1)" fill-rule="evenodd" stroke="none"/>
    <path d="M548.0 332.25 L547.55 333.05 Q546.85 334.25 546.9 335.05 L547.35 335.0 548.7 336.15 548.5 336.3 550.25 335.6 Q553.1 334.35 554.35 331.8 555.35 329.65 553.7 328.8 L549.35 328.9 Q546.25 329.7 543.8 331.55 542.45 332.65 542.95 333.95 L544.4 334.05 544.45 333.95 Q546.15 332.95 548.0 332.25" ffdec:has-small-stroke="true" ffdec:original-stroke-width="0.2" fill="none" stroke="#000000" stroke-linecap="round" stroke-linejoin="miter-clip" stroke-miterlimit="3.0" stroke-opacity="0.4" stroke-width="1.0"/>
    <path d="M548.0 332.25 L545.7 332.2 M539.9 338.55 L542.3 337.7 542.35 337.7 M539.9 338.55 Q538.8 338.7 538.75 338.0" ffdec:has-small-stroke="true" ffdec:original-stroke-width="0.2" fill="none" stroke="#000000" stroke-linecap="round" stroke-linejoin="miter-clip" stroke-miterlimit="3.0" stroke-opacity="0.4" stroke-width="1.0"/>
    <path d="M542.35 337.7 Q544.4 336.4 545.45 336.55 546.8 337.4 545.75 339.6 L545.75 339.7 Q544.2 343.05 539.9 344.55 535.95 345.9 535.1 341.85 534.75 339.7 537.45 336.75 539.65 334.65 540.85 335.3 541.8 336.05 541.1 337.0 L539.9 338.55" ffdec:has-small-stroke="true" ffdec:original-stroke-width="0.2" fill="none" stroke="#000000" stroke-linecap="butt" stroke-linejoin="miter-clip" stroke-miterlimit="3.0" stroke-opacity="0.4" stroke-width="1.0"/>
    <path d="M549.85 329.15 Q550.45 329.2 549.9 329.5 548.3 329.8 546.2 330.75 545.25 330.95 545.75 330.55 547.45 329.6 549.85 329.15 M552.4 328.95 Q553.1 329.3 552.1 329.45 L550.8 329.4 Q550.3 329.2 550.9 329.0 L552.4 328.95" fill="#ffffff" fill-opacity="0.48235294" fill-rule="evenodd" stroke="none"/>
    <path d="M549.15 334.8 L550.6 334.15 Q551.25 334.15 550.95 334.75 550.25 335.3 549.45 335.45 548.3 335.4 549.15 334.8 M551.85 334.05 Q551.15 334.25 551.3 333.65 552.6 332.5 553.6 330.3 554.35 329.65 554.35 330.4 553.7 332.35 551.85 334.05" fill="#ffffff" fill-opacity="0.48235294" fill-rule="evenodd" stroke="none"/>
    <path d="M274.4 316.6 L274.4 316.2 Q276.0 319.8 276.15 322.7 L274.7 321.7 Q274.85 319.1 274.4 316.6" fill="#f7f2f2" fill-rule="evenodd" stroke="none"/>
    <path d="M274.4 316.6 Q274.85 319.1 274.7 321.7 L270.9 328.45 270.25 327.15 270.85 328.55 269.4 331.2 269.3 331.3 267.0 335.45 266.45 334.35 266.85 335.7 264.3 340.2 263.1 340.0 262.2 338.45 266.55 331.35 266.6 331.25 267.6 329.65 267.95 329.0 274.05 318.1 274.4 316.6 M259.5 340.0 L261.65 339.3 262.6 340.45 Q262.25 341.0 262.05 341.9 L259.5 340.0 M270.7 326.2 L271.05 326.15 271.3 325.45 Q271.3 324.95 270.65 325.35 270.4 325.6 270.5 326.0 L270.7 326.2 M267.35 332.65 L267.35 332.4 267.25 332.2 267.1 332.1 266.7 332.2 Q266.45 332.45 266.5 332.85 L266.65 333.1 266.8 333.25 267.05 333.35 267.35 332.65" fill="#e8d9d9" fill-rule="evenodd" stroke="none"/>
    <path d="M271.95 330.4 Q271.75 330.25 271.75 330.75 L270.85 328.55 270.25 327.15 270.9 328.45 271.95 330.4 M268.0 337.5 Q267.65 337.4 267.6 338.2 L266.85 335.7 266.45 334.35 267.0 335.45 268.0 337.5 M266.95 339.5 L266.65 340.0 266.5 337.1 266.95 339.5 M264.2 342.8 Q264.05 342.8 264.15 343.0 L262.6 340.45 261.65 339.3 Q262.4 339.65 262.2 338.45 L263.1 340.0 263.1 340.05 263.2 340.15 264.2 342.8 M271.3 325.45 Q271.05 325.3 270.7 325.7 L270.7 326.2 270.5 326.0 Q270.4 325.6 270.65 325.35 271.3 324.95 271.3 325.45 M266.65 333.1 L266.5 332.85 Q266.45 332.45 266.7 332.2 L267.1 332.1 267.25 332.2 267.35 332.4 267.35 332.65 Q267.15 332.35 266.8 332.45 266.55 332.65 266.65 333.1" fill="#ad7a7a" fill-rule="evenodd" stroke="none"/>
    <path d="M265.65 341.8 Q264.35 341.1 264.2 342.8 L263.2 340.15 263.1 340.05 263.1 340.0 264.3 340.2 265.65 341.8 M264.15 343.0 L264.2 343.1 264.2 343.45 262.05 341.9 Q262.25 341.0 262.6 340.45 L264.15 343.0 M254.65 359.6 L254.7 360.05 254.35 359.85 250.65 358.1 250.6 357.7 254.65 359.6 M254.35 360.15 L254.45 360.45 254.0 360.3 251.75 359.5 251.35 359.35 251.0 358.7 254.35 360.15 M254.05 360.65 L254.1 361.0 253.7 360.85 251.75 360.15 251.75 359.85 254.05 360.65" fill="#b68989" fill-rule="evenodd" stroke="none"/>
    <path d="M264.2 343.45 L266.85 345.45 266.85 345.9 257.25 338.8 257.6 338.6 259.5 340.0 262.05 341.9 264.2 343.45" fill="#b7a47d" fill-rule="evenodd" stroke="none"/>
    <path d="M266.85 345.9 L266.45 346.15 264.7 344.9 258.6 340.35 257.25 339.4 257.25 338.8 266.85 345.9" fill="#947e52" fill-rule="evenodd" stroke="none"/>
    <path d="M263.1 344.55 L262.4 344.65 260.75 347.1 Q260.2 347.4 260.15 348.1 259.05 348.9 258.6 350.8 257.85 351.4 257.8 352.2 256.65 353.3 256.6 354.65 256.05 354.95 256.05 355.75 255.1 356.75 254.9 358.55 L254.6 359.25 253.05 358.35 252.7 356.7 Q253.55 356.1 253.8 354.9 L254.25 356.55 254.6 356.35 254.0 354.2 Q255.15 353.45 255.65 351.55 L256.1 353.0 256.5 352.85 255.95 350.6 Q257.15 349.55 257.85 347.6 L258.15 349.05 258.55 348.85 258.6 348.85 258.15 346.35 Q259.45 345.6 259.95 343.8 L260.3 345.35 260.95 345.15 260.35 343.25 259.75 343.1 259.6 342.3 259.55 341.75 263.1 344.55 M262.4 344.65 L260.95 345.15 262.4 344.65 M260.15 348.1 Q259.4 348.5 258.6 348.85 259.4 348.5 260.15 348.1 M259.2 346.15 L258.75 346.15 258.5 346.5 258.6 346.95 258.9 347.15 259.3 347.1 259.55 346.8 259.5 346.4 259.2 346.15 M260.75 347.1 L260.3 345.35 260.75 347.1 M255.5 354.05 L255.2 353.8 254.85 353.9 254.65 354.2 254.7 354.55 255.0 354.75 255.35 354.7 255.55 354.4 255.5 354.05 M257.05 350.95 L257.4 350.9 257.6 350.65 257.55 350.35 257.3 350.15 256.95 350.2 256.8 350.4 256.8 350.75 257.05 350.95 M253.35 357.85 L253.65 357.8 253.8 357.55 253.75 357.25 253.55 357.1 253.25 357.15 253.1 357.35 253.1 357.65 253.35 357.85 M256.5 352.85 L257.8 352.2 256.5 352.85 M258.6 350.8 L258.15 349.05 258.6 350.8 M256.05 355.75 L254.6 356.35 256.05 355.75" fill="#990000" fill-rule="evenodd" stroke="none"/>
    <path d="M251.45 357.45 Q252.85 356.0 253.55 353.9 254.65 352.55 255.35 350.5 256.8 348.5 257.5 346.15 258.75 344.6 259.6 342.3 L259.75 343.1 260.35 343.25 260.95 345.15 260.3 345.35 259.95 343.8 Q259.45 345.6 258.15 346.35 L258.6 348.85 258.55 348.85 258.15 349.05 257.85 347.6 Q257.15 349.55 255.95 350.6 L256.5 352.85 256.1 353.0 255.65 351.55 255.35 350.5 255.65 351.55 Q255.15 353.45 254.0 354.2 L254.6 356.35 254.25 356.55 253.8 354.9 Q253.55 356.1 252.7 356.7 L253.05 358.35 251.45 357.45 M259.75 343.1 L259.95 343.8 259.75 343.1 M257.5 346.15 L257.85 347.6 257.5 346.15" fill="#cc0000" fill-rule="evenodd" stroke="none"/>
    <path d="M264.7 344.9 L263.8 345.1 263.1 344.55 259.55 341.75 259.25 341.55 258.6 340.35 264.7 344.9" fill="#776642" fill-rule="evenodd" stroke="none"/>
    <path d="M259.2 346.15 L259.5 346.4 259.55 346.8 259.3 347.1 258.9 347.15 258.6 346.95 258.5 346.5 258.75 346.15 259.2 346.15 M257.05 350.95 L256.8 350.75 256.8 350.4 256.95 350.2 257.3 350.15 257.55 350.35 257.6 350.65 257.4 350.9 257.05 350.95 M255.5 354.05 L255.55 354.4 255.35 354.7 255.0 354.75 254.7 354.55 254.65 354.2 254.85 353.9 255.2 353.8 255.5 354.05 M253.35 357.85 L253.1 357.65 253.1 357.35 253.25 357.15 253.55 357.1 253.75 357.25 253.8 357.55 253.65 357.8 253.35 357.85" fill="#cccccc" fill-rule="evenodd" stroke="none"/>
    <path d="M274.7 321.7 L276.15 322.7 271.95 330.4 270.9 328.45 274.7 321.7 M271.75 330.75 L268.0 337.5 267.0 335.45 269.3 331.3 269.4 331.2 270.85 328.55 271.75 330.75 M267.6 338.2 L266.95 339.5 266.5 337.1 266.65 340.0 265.65 341.8 264.3 340.2 266.85 335.7 267.6 338.2 M254.6 359.25 L254.65 359.6 250.6 357.7 250.55 357.25 251.45 357.45 253.05 358.35 254.6 359.25 M254.35 359.85 L254.35 360.15 251.0 358.7 250.65 358.1 254.35 359.85 M254.0 360.3 L254.05 360.65 251.75 359.85 251.75 359.5 254.0 360.3" fill="#c9abab" fill-rule="evenodd" stroke="none"/>
    <path d="M253.7 360.85 Q253.25 361.25 253.55 362.85 253.85 364.45 255.1 365.6 254.45 365.55 253.9 365.15 252.25 362.5 252.55 361.15 L251.75 360.75 251.75 360.15 253.7 360.85" fill="#000000" fill-rule="evenodd" stroke="none"/>
    <path d="M253.9 365.15 Q253.15 364.55 252.55 363.2 251.85 362.05 251.75 360.75 L252.55 361.15 Q252.25 362.5 253.9 365.15" fill="#666666" fill-rule="evenodd" stroke="none"/>
    <path d="M276.15 322.7 Q276.0 319.8 274.4 316.2 L274.4 316.6 274.05 318.1 267.95 329.0 267.6 329.65 266.6 331.25 266.55 331.35 262.2 338.45 Q262.4 339.65 261.65 339.3 L259.5 340.0 257.6 338.6 257.25 338.8 257.25 339.4 258.6 340.35 259.25 341.55 259.55 341.75 263.1 344.55 262.4 344.65 260.75 347.1 Q260.2 347.4 260.15 348.1 259.05 348.9 258.6 350.8 257.85 351.4 257.8 352.2 256.65 353.3 256.6 354.65 256.05 354.95 256.05 355.75 255.1 356.75 254.9 358.55 L254.6 359.25 254.65 359.6 254.7 360.05 254.35 359.85 254.35 360.15 254.45 360.45 254.0 360.3 254.05 360.65 254.1 361.0 253.7 360.85 Q253.25 361.25 253.55 362.85 253.85 364.45 255.1 365.6 254.45 365.55 253.9 365.15 253.15 364.55 252.55 363.2 251.85 362.05 251.75 360.75 L251.75 360.15 251.75 359.85 251.75 359.5 251.35 359.35 251.0 358.7 250.65 358.1 250.6 357.7 250.55 357.25 251.45 357.45 Q252.85 356.0 253.55 353.9 254.65 352.55 255.35 350.5 256.8 348.5 257.5 346.15 258.75 344.6 259.6 342.3 L259.55 341.75 M276.15 322.7 L271.95 330.4 Q271.75 330.25 271.75 330.75 L268.0 337.5 Q267.65 337.4 267.6 338.2 L266.95 339.5 266.65 340.0 265.65 341.8 Q264.35 341.1 264.2 342.8 264.05 342.8 264.15 343.0 L264.2 343.1 264.2 343.45 266.85 345.45 266.85 345.9 266.45 346.15 264.7 344.9 263.8 345.1 263.1 344.55 M263.1 340.05 L263.1 340.0 M259.6 342.3 L259.75 343.1 259.95 343.8 260.3 345.35 260.75 347.1 M260.95 345.15 L262.4 344.65 M258.6 348.85 Q259.4 348.5 260.15 348.1 M260.95 345.15 L260.3 345.35 M262.05 341.9 L259.5 340.0 M264.7 344.9 L258.6 340.35 M257.85 347.6 L258.15 349.05 258.55 348.85 M255.35 350.5 L255.65 351.55 256.1 353.0 256.5 352.85 257.8 352.2 M257.85 347.6 L257.5 346.15 M254.6 356.35 L254.25 356.55 M253.05 358.35 L254.6 359.25 M254.6 356.35 L256.05 355.75 M258.15 349.05 L258.6 350.8 M251.45 357.45 L253.05 358.35 M254.0 360.3 L251.75 359.5 M253.7 360.85 L251.75 360.15 M254.35 359.85 L250.65 358.1" ffdec:has-small-stroke="true" ffdec:original-stroke-width="0.05" fill="none" stroke="#000000" stroke-linecap="butt" stroke-linejoin="miter-clip" stroke-miterlimit="3.0" stroke-opacity="0.4" stroke-width="1.0"/>
    <path d="M274.75 317.05 L274.35 316.7 274.4 316.2 274.75 317.05 274.9 317.4 Q274.75 318.1 274.9 319.45 L274.85 319.5 274.65 319.85 274.75 317.05 M262.75 339.4 L262.3 338.6 262.35 338.3 262.8 337.5 262.75 339.4 M262.75 340.7 L262.85 342.35 262.9 342.55 261.8 341.75 262.2 339.95 262.6 340.45 262.75 340.7 M270.65 328.65 L270.8 328.5 271.75 330.75 270.3 333.35 270.25 333.25 269.6 332.9 270.4 330.1 270.65 328.65 M271.4 328.3 L271.5 329.1 271.75 329.35 272.5 329.3 272.55 329.3 271.9 330.4 270.85 328.4 270.95 328.3 271.4 328.3 M267.65 334.05 L267.9 333.1 268.2 333.15 Q268.15 333.8 268.4 334.15 L268.8 334.5 Q269.2 334.75 269.6 334.5 L269.7 334.5 268.35 336.95 268.1 335.15 Q267.75 334.5 267.1 334.85 L266.9 335.35 266.45 334.35 266.9 335.8 266.95 336.95 267.25 338.85 266.9 339.5 266.45 337.1 266.65 340.0 266.35 340.55 266.1 339.75 265.7 335.9 265.8 335.85 Q266.3 335.55 266.35 333.5 L266.45 333.45 266.6 333.5 266.7 333.8 266.95 334.05 267.65 334.05 M269.65 327.15 L269.15 327.3 Q268.5 327.7 268.7 328.2 L268.35 328.25 269.75 325.9 269.8 325.8 269.65 327.15 M276.1 322.8 L275.55 323.8 275.65 322.7 276.1 322.8" fill="#b07764" fill-opacity="0.36862746" fill-rule="evenodd" stroke="none"/>
    <path d="M262.9 335.2 Q262.75 335.25 262.75 335.6 L263.1 336.0 263.35 336.0 263.65 336.15 263.35 336.5 263.2 336.4 Q262.55 336.05 262.35 335.5 262.1 335.05 262.4 334.65 L262.5 334.5 Q262.85 334.25 263.35 334.25 264.0 334.2 264.65 334.55 L265.55 335.45 Q265.75 335.95 265.45 336.35 L265.25 336.5 265.2 336.6 Q264.55 336.7 264.7 336.2 L264.7 336.15 264.85 336.0 Q265.05 335.8 264.9 335.45 L264.35 334.95 263.6 334.75 Q263.2 334.75 263.0 335.0 L262.9 335.2 M264.05 334.5 L262.5 334.5 264.05 334.5 264.05 334.55 Q264.0 334.7 264.25 334.7 L264.35 334.65 264.3 334.6 Q264.3 334.5 264.1 334.5 L264.05 334.5 M265.05 335.1 L264.9 334.9 264.6 334.7 264.55 334.7 264.3 334.6 264.55 334.7 264.6 334.7 264.9 334.9 265.05 335.1 265.0 335.15 265.2 335.45 265.3 335.55 265.35 335.5 265.25 335.25 265.05 335.05 265.05 335.1 M265.35 336.45 L265.25 336.45 Q264.95 336.5 264.9 336.3 L265.05 336.25 265.25 335.9 265.2 335.45 265.25 335.9 265.05 336.25 264.9 336.3 Q264.95 336.5 265.25 336.45 L265.35 336.45 M264.55 334.7 L264.5 334.75 264.75 334.95 264.9 334.95 264.75 334.95 264.5 334.75 264.55 334.7" fill="#666666" fill-rule="evenodd" stroke="none"/>
    <path d="M263.35 336.0 L263.1 336.0 262.75 335.6 Q262.75 335.25 262.9 335.2 L262.95 335.55 263.35 336.0" fill="#999999" fill-rule="evenodd" stroke="none"/>
    <path d="M264.05 334.5 L264.1 334.5 Q264.3 334.5 264.3 334.6 L264.35 334.65 264.25 334.7 Q264.0 334.7 264.05 334.55 L264.05 334.5 M265.05 335.1 L265.05 335.05 265.25 335.25 265.35 335.5 265.3 335.55 265.2 335.45 265.0 335.15 265.05 335.1" fill="#cccccc" fill-rule="evenodd" stroke="none"/>
    <path d="M264.7 336.15 L264.7 336.2 Q264.55 336.7 265.2 336.6 L265.25 336.5 265.25 336.55 265.1 336.7 264.8 336.65 264.55 336.5 264.5 336.3 264.7 336.15" fill="#333333" fill-rule="evenodd" stroke="none"/>
    <path d="M262.9 335.2 L263.0 335.0 Q263.2 334.75 263.6 334.75 L264.35 334.95 264.9 335.45 Q265.05 335.8 264.85 336.0 L264.7 336.15 264.7 336.2 Q264.55 336.7 265.2 336.6 L265.25 336.5 265.45 336.35 Q265.75 335.95 265.55 335.45 L264.65 334.55 Q264.0 334.2 263.35 334.25 262.85 334.25 262.5 334.5 L262.4 334.65 Q262.1 335.05 262.35 335.5 262.55 336.05 263.2 336.4 L263.35 336.5 263.65 336.15 263.35 336.0 262.95 335.55 262.9 335.2 Z" ffdec:has-small-stroke="true" ffdec:original-stroke-width="0.05" fill="none" stroke="#000000" stroke-linecap="butt" stroke-linejoin="miter-clip" stroke-miterlimit="3.0" stroke-opacity="0.1882353" stroke-width="1.0"/>
    <path d="M262.4 336.25 Q262.35 336.4 262.45 336.55 L262.75 336.95 Q262.75 337.15 262.55 336.95 L262.25 336.6 Q262.2 336.25 262.4 336.25" fill="#999999" fill-rule="evenodd" stroke="none"/>
    <path d="M262.0 335.6 L262.75 335.7 263.2 335.8 263.3 335.8 263.6 336.05 263.65 336.05 264.0 336.45 263.95 336.45 264.1 336.75 264.2 337.15 264.05 337.4 263.95 337.4 264.25 337.65 264.2 337.7 Q263.7 337.7 263.8 337.3 L263.9 337.2 263.9 336.75 263.45 336.2 Q263.2 335.95 262.85 335.95 262.55 335.9 262.4 336.1 L262.4 336.25 Q262.2 336.25 262.25 336.6 L262.55 336.95 Q262.75 337.15 262.75 336.95 L262.95 337.15 262.8 337.45 262.65 337.3 261.95 336.5 Q261.75 336.0 261.95 335.7 L262.0 335.6 M263.2 335.8 L263.2 335.85 263.35 335.95 263.4 335.95 263.4 335.9 263.4 335.95 263.35 335.95 263.2 335.85 263.2 335.8 M263.6 336.05 L263.8 336.3 263.85 336.25 263.8 336.3 263.6 336.05" fill="#666666" fill-rule="evenodd" stroke="none"/>
    <path d="M264.0 336.45 L264.0 336.4 264.2 336.6 264.25 336.85 264.2 336.85 264.1 336.75 263.95 336.45 264.0 336.45" fill="#cccccc" fill-rule="evenodd" stroke="none"/>
    <path d="M264.25 337.65 L264.25 337.7 264.1 337.8 263.9 337.75 263.7 337.55 263.65 337.4 263.75 337.3 263.8 337.3 Q263.7 337.7 264.2 337.7 L264.25 337.65" fill="#333333" fill-rule="evenodd" stroke="none"/>
    <path d="M264.25 337.6 L264.35 337.5 Q264.6 337.25 264.35 336.75 L263.65 335.9 Q263.2 335.5 262.65 335.45 L262.0 335.6 261.95 335.7 Q261.75 336.0 261.95 336.5 L262.65 337.3 262.8 337.45 262.95 337.15 262.75 336.95 262.45 336.55 Q262.35 336.4 262.4 336.25 L262.4 336.1 Q262.55 335.9 262.85 335.95 263.2 335.95 263.45 336.2 L263.9 336.75 263.9 337.2 263.8 337.3 Q263.7 337.7 264.2 337.7 L264.25 337.65" ffdec:has-small-stroke="true" ffdec:original-stroke-width="0.05" fill="none" stroke="#000000" stroke-linecap="butt" stroke-linejoin="miter-clip" stroke-miterlimit="3.0" stroke-opacity="0.1882353" stroke-width="1.0"/>
    <path d="M266.05 333.25 L266.1 333.15 266.0 332.7 265.55 332.45 265.0 332.35 Q264.7 332.35 264.65 332.55 L264.65 332.7 Q264.5 332.75 264.6 333.0 L264.9 333.25 265.1 333.2 265.35 333.3 265.25 333.6 265.1 333.55 264.3 333.0 Q264.0 332.65 264.15 332.35 L264.2 332.25 264.85 332.2 265.25 332.2 265.4 332.25 265.45 332.2 265.6 332.3 265.8 332.45 265.85 332.35 266.0 332.55 266.25 332.7 266.3 332.8 266.35 333.0 266.3 333.25 266.2 333.35 266.55 333.4 266.45 333.45 Q266.1 333.6 266.05 333.25" fill="#666666" fill-rule="evenodd" stroke="none"/>
    <path d="M266.55 333.4 L266.2 333.35 266.3 333.25 266.35 333.0 266.3 332.8 266.25 332.7 266.0 332.55 265.85 332.35 265.8 332.45 265.6 332.3 265.45 332.2 265.25 332.15 265.25 332.2 264.85 332.2 264.2 332.25 Q264.35 332.05 264.7 332.0 L265.65 332.15 266.45 332.65 Q266.7 333.0 266.6 333.3 L266.55 333.4 M265.1 333.2 L264.9 333.25 264.6 333.0 Q264.5 332.75 264.65 332.7 L264.75 332.95 265.1 333.2 M265.6 332.25 L265.65 332.25 265.85 332.35 265.65 332.25 265.6 332.25 M266.0 332.5 L266.0 332.45 266.25 332.55 266.35 332.7 266.3 332.8 266.35 332.7 266.25 332.55 266.0 332.45 266.0 332.5" fill="#999999" fill-rule="evenodd" stroke="none"/>
    <path d="M265.45 332.2 L265.4 332.25 265.25 332.2 265.25 332.15 265.45 332.2" fill="#cccccc" fill-rule="evenodd" stroke="none"/>
    <path d="M266.05 333.25 Q266.1 333.6 266.45 333.45 L266.55 333.4 266.55 333.45 266.45 333.55 266.25 333.6 266.05 333.45 265.95 333.35 266.05 333.25" fill="#333333" fill-rule="evenodd" stroke="none"/>
    <path d="M264.65 332.7 L264.65 332.55 Q264.7 332.35 265.0 332.35 L265.55 332.45 266.0 332.7 266.1 333.15 266.05 333.25 Q266.1 333.6 266.45 333.45 L266.55 333.4 266.6 333.3 Q266.7 333.0 266.45 332.65 L265.65 332.15 264.7 332.0 Q264.35 332.05 264.2 332.25 L264.15 332.35 Q264.0 332.65 264.3 333.0 L265.1 333.55 265.25 333.6 265.35 333.3 265.1 333.2 264.75 332.95 264.65 332.7 Z" ffdec:has-small-stroke="true" ffdec:original-stroke-width="0.05" fill="none" stroke="#000000" stroke-linecap="butt" stroke-linejoin="miter-clip" stroke-miterlimit="3.0" stroke-opacity="0.1882353" stroke-width="1.0"/>
    <path d="M271.5 342.65 L273.55 340.8 273.55 340.75 277.1 337.45 277.15 337.35 287.05 327.55 287.7 326.25 Q287.5 328.6 286.75 330.85 L281.7 335.9 281.4 334.6 281.6 336.0 276.55 341.1 276.3 340.05 276.35 341.3 272.95 344.7 Q272.45 344.15 271.95 344.25 L271.5 342.65 M268.7 343.4 L270.85 343.25 271.4 344.45 270.55 345.6 270.5 345.55 268.7 343.4 M282.75 333.35 Q282.85 332.9 282.2 333.1 281.95 333.25 281.95 333.65 L282.1 333.9 282.4 333.95 282.8 333.35 282.75 333.35 M277.5 338.75 L277.55 338.55 277.55 338.35 277.45 338.2 277.0 338.2 Q276.75 338.35 276.7 338.75 L276.8 338.95 276.9 339.15 277.05 339.3 277.5 338.75" fill="#e8d9d9" fill-rule="evenodd" stroke="none"/>
    <path d="M286.75 330.85 Q287.5 328.6 287.7 326.25 L287.8 325.95 Q288.35 329.55 287.8 332.1 L286.75 330.85" fill="#f7f2f2" fill-rule="evenodd" stroke="none"/>
    <path d="M272.95 344.7 L276.35 341.3 276.45 343.7 275.5 344.6 275.65 342.45 275.1 345.05 273.8 346.4 272.95 344.7 M276.55 341.1 L281.6 336.0 281.9 338.1 276.95 343.2 276.55 341.1 M281.7 335.9 L286.75 330.85 287.8 332.1 282.15 337.85 281.7 335.9 M259.65 359.1 L259.65 359.45 256.5 356.8 256.55 356.45 257.3 356.8 258.5 357.95 259.65 359.1 M259.3 359.6 L259.25 359.85 256.55 357.8 256.4 357.2 259.3 359.6 M258.85 359.9 L258.85 360.25 256.95 358.95 257.05 358.7 258.85 359.9" fill="#c9abab" fill-rule="evenodd" stroke="none"/>
    <path d="M271.5 342.65 L271.95 344.25 272.0 344.35 272.25 346.95 272.15 347.2 271.4 344.45 270.85 343.25 Q271.4 343.7 271.5 342.65 M276.35 341.3 L276.3 340.05 276.55 341.1 276.95 343.2 Q276.65 343.0 276.45 343.7 L276.35 341.3 M281.6 336.0 L281.4 334.6 281.7 335.9 282.15 337.85 Q282.0 337.7 281.9 338.1 L281.6 336.0 M275.5 344.6 L275.1 345.05 275.65 342.45 275.5 344.6 M282.1 333.9 L281.95 333.65 Q281.95 333.25 282.2 333.1 282.85 332.9 282.75 333.35 L282.2 333.4 282.1 333.9 M276.8 338.95 L276.7 338.75 Q276.75 338.35 277.0 338.2 L277.45 338.2 277.55 338.35 277.55 338.55 277.5 338.75 Q277.45 338.4 277.05 338.45 276.75 338.6 276.8 338.95" fill="#ad7a7a" fill-rule="evenodd" stroke="none"/>
    <path d="M273.9 350.3 L273.45 350.4 272.2 348.85 267.8 343.45 266.8 342.3 266.95 341.75 273.9 350.3" fill="#947e52" fill-rule="evenodd" stroke="none"/>
    <path d="M272.1 347.5 L274.0 349.85 273.9 350.3 266.95 341.75 267.3 341.65 268.7 343.4 270.5 345.55 270.55 345.6 272.1 347.5" fill="#b7a47d" fill-rule="evenodd" stroke="none"/>
    <path d="M257.3 356.8 Q258.85 355.85 260.0 354.2 261.35 353.25 262.45 351.65 264.25 350.2 265.45 348.3 266.95 347.25 268.25 345.4 L268.2 346.15 268.7 346.45 268.8 348.25 268.15 348.25 268.15 346.85 Q267.35 348.25 266.0 348.65 L265.7 350.95 265.35 351.05 265.4 349.7 265.45 348.3 265.4 349.7 Q264.3 351.2 263.0 351.8 L262.9 353.9 262.55 354.0 262.5 352.6 Q261.6 354.2 260.4 354.55 L260.35 356.6 260.05 356.65 260.05 355.15 Q259.5 356.15 258.6 356.45 L258.5 357.95 257.3 356.8 M262.45 351.65 L262.5 352.6 262.45 351.65 M268.2 346.15 L268.15 346.85 268.2 346.15" fill="#cc0000" fill-rule="evenodd" stroke="none"/>
    <path d="M270.85 348.2 L270.15 348.15 268.15 349.9 Q267.5 350.05 267.35 350.65 266.15 351.1 265.3 352.65 264.5 353.0 264.25 353.7 263.0 354.35 262.55 355.6 262.0 355.7 261.85 356.4 260.75 357.05 260.1 358.6 L259.65 359.1 258.5 357.95 258.6 356.45 Q259.5 356.15 260.05 355.15 L260.05 356.65 260.35 356.6 260.4 354.55 Q261.6 354.2 262.5 352.6 L262.55 354.0 262.9 353.9 263.0 351.8 Q264.3 351.2 265.4 349.7 L265.35 351.05 265.7 350.95 266.0 348.65 Q267.35 348.25 268.15 346.85 L268.15 348.25 268.15 349.9 268.15 348.25 268.8 348.25 268.7 346.45 268.2 346.15 268.25 345.4 268.3 344.9 270.85 348.2 M270.15 348.15 L268.8 348.25 270.15 348.15 M267.35 350.65 L265.7 350.95 267.35 350.65 M267.15 349.35 L267.15 348.95 266.95 348.7 266.55 348.6 266.25 348.85 266.2 349.2 266.45 349.55 266.8 349.6 267.15 349.35 M264.45 352.0 L264.25 351.75 264.0 351.75 263.75 351.9 263.75 352.2 263.9 352.4 264.2 352.45 264.4 352.3 264.45 352.0 M265.3 352.65 L265.35 351.05 265.3 352.65 M264.25 353.7 L262.9 353.9 264.25 353.7 M261.85 356.4 L260.35 356.6 261.85 356.4 M261.1 355.25 L261.45 355.3 261.7 355.1 261.75 354.8 261.55 354.5 261.2 354.45 260.95 354.65 Q260.85 354.8 260.9 355.0 L261.1 355.25 M259.4 357.2 L259.25 357.0 258.95 357.0 258.75 357.15 258.7 357.35 258.85 357.6 259.15 357.6 259.4 357.45 259.4 357.2" fill="#990000" fill-rule="evenodd" stroke="none"/>
    <path d="M272.2 348.85 L271.3 348.85 270.85 348.2 268.3 344.9 268.1 344.65 267.8 343.45 272.2 348.85" fill="#776642" fill-rule="evenodd" stroke="none"/>
    <path d="M271.95 344.25 Q272.45 344.15 272.95 344.7 L273.8 346.4 Q272.75 345.5 272.25 346.95 L272.0 344.35 271.95 344.25 M272.15 347.2 L272.1 347.5 270.55 345.6 271.4 344.45 272.15 347.2 M259.65 359.45 L259.6 359.85 259.3 359.6 256.4 357.2 256.5 356.8 259.65 359.45 M259.25 359.85 L259.2 360.15 258.85 359.9 257.05 358.7 256.7 358.45 256.55 357.8 259.25 359.85 M258.85 360.25 L258.85 360.55 258.5 360.3 256.9 359.25 256.95 358.95 258.85 360.25" fill="#b68989" fill-rule="evenodd" stroke="none"/>
    <path d="M267.15 349.35 L266.8 349.6 266.45 349.55 266.2 349.2 266.25 348.85 266.55 348.6 266.95 348.7 267.15 348.95 267.15 349.35 M264.45 352.0 L264.4 352.3 264.2 352.45 263.9 352.4 263.75 352.2 263.75 351.9 264.0 351.75 264.25 351.75 264.45 352.0 M261.1 355.25 L260.9 355.0 Q260.85 354.8 260.95 354.65 L261.2 354.45 261.55 354.5 261.75 354.8 261.7 355.1 261.45 355.3 261.1 355.25 M259.4 357.2 L259.4 357.45 259.15 357.6 258.85 357.6 258.7 357.35 258.75 357.15 258.95 357.0 259.25 357.0 259.4 357.2" fill="#cccccc" fill-rule="evenodd" stroke="none"/>
    <path d="M258.5 360.3 Q258.05 360.6 257.85 362.05 257.8 363.55 258.6 364.8 L257.65 364.15 Q256.75 361.4 257.35 360.3 L256.75 359.8 256.9 359.25 258.5 360.3" fill="#000000" fill-rule="evenodd" stroke="none"/>
    <path d="M257.65 364.15 Q257.1 363.45 256.9 362.1 256.55 360.95 256.75 359.8 L257.35 360.3 Q256.75 361.4 257.65 364.15" fill="#666666" fill-rule="evenodd" stroke="none"/>
    <path d="M287.7 326.25 L287.05 327.55 277.15 337.35 277.1 337.45 273.55 340.75 273.55 340.8 271.5 342.65 Q271.4 343.7 270.85 343.25 L268.7 343.4 267.3 341.65 266.95 341.75 266.8 342.3 267.8 343.45 272.2 348.85 271.3 348.85 270.85 348.2 270.15 348.15 268.15 349.9 Q267.5 350.05 267.35 350.65 266.15 351.1 265.3 352.65 264.5 353.0 264.25 353.7 263.0 354.35 262.55 355.6 262.0 355.7 261.85 356.4 260.75 357.05 260.1 358.6 L259.65 359.1 259.65 359.45 259.6 359.85 259.3 359.6 259.25 359.85 259.2 360.15 258.85 359.9 258.85 360.25 258.85 360.55 258.5 360.3 Q258.05 360.6 257.85 362.05 257.8 363.55 258.6 364.8 L257.65 364.15 Q257.1 363.45 256.9 362.1 256.55 360.95 256.75 359.8 L256.9 359.25 256.95 358.95 257.05 358.7 256.7 358.45 256.55 357.8 256.4 357.2 256.5 356.8 256.55 356.45 257.3 356.8 Q258.85 355.85 260.0 354.2 261.35 353.25 262.45 351.65 264.25 350.2 265.45 348.3 266.95 347.25 268.25 345.4 L268.3 344.9 268.1 344.65 267.8 343.45 M287.7 326.25 L287.8 325.95 Q288.35 329.55 287.8 332.1 L282.15 337.85 Q282.0 337.7 281.9 338.1 L276.95 343.2 Q276.65 343.0 276.45 343.7 L275.5 344.6 275.1 345.05 273.8 346.4 Q272.75 345.5 272.25 346.95 L272.15 347.2 272.1 347.5 274.0 349.85 273.9 350.3 273.45 350.4 272.2 348.85 M268.2 346.15 L268.25 345.4 M270.5 345.55 L268.7 343.4 M268.8 348.25 L270.15 348.15 M268.15 348.25 L268.15 346.85 268.2 346.15 M265.7 350.95 L267.35 350.65 M265.4 349.7 L265.35 351.05 265.7 350.95 M265.35 351.05 L265.3 352.65 M268.15 349.9 L268.15 348.25 268.8 348.25 M265.45 348.3 L265.4 349.7 M262.9 353.9 L264.25 353.7 M262.5 352.6 L262.45 351.65 M262.9 353.9 L262.55 354.0 262.5 352.6 M260.35 356.6 L261.85 356.4 M260.05 356.65 L260.35 356.6 M257.3 356.8 L258.5 357.95 259.65 359.1 M256.9 359.25 L258.5 360.3 M257.05 358.7 L258.85 359.9 M256.4 357.2 L259.3 359.6 M268.3 344.9 L270.85 348.2" ffdec:has-small-stroke="true" ffdec:original-stroke-width="0.05" fill="none" stroke="#000000" stroke-linecap="butt" stroke-linejoin="miter-clip" stroke-miterlimit="3.0" stroke-opacity="0.4" stroke-width="1.0"/>
    <path d="M287.65 326.25 L287.8 325.95 287.9 326.75 287.95 327.15 Q287.65 327.7 287.45 328.95 L287.35 328.95 287.1 329.2 287.9 326.75 287.65 326.4 287.65 326.25 M287.7 332.15 L287.05 332.9 287.35 331.95 287.7 332.15 M284.05 330.9 L283.95 330.65 284.45 330.2 284.4 330.4 Q283.8 332.55 283.95 333.05 L284.1 333.35 Q284.25 333.55 284.5 333.55 L284.35 334.4 284.55 334.7 285.1 334.85 282.15 337.85 281.7 335.85 281.75 335.8 282.2 335.9 282.1 336.6 282.3 336.9 Q282.55 337.15 282.9 337.05 L283.55 335.8 283.95 334.35 Q283.75 333.9 283.4 333.9 L283.4 333.6 282.9 333.1 283.65 331.95 Q284.15 331.2 284.05 330.9 M271.65 342.55 L272.25 341.95 271.75 343.6 271.55 342.8 271.65 342.55 M271.45 344.7 L271.15 346.2 271.15 346.4 270.35 345.45 271.15 343.95 271.4 344.45 271.45 344.7 M276.65 339.3 L276.65 339.65 276.8 339.9 277.45 340.05 277.9 339.3 278.15 339.4 278.05 340.35 278.35 340.75 Q278.65 341.05 279.1 340.95 L277.35 342.75 277.6 341.1 Q277.4 340.5 276.8 340.65 276.65 340.65 276.45 341.0 L276.25 340.05 276.35 341.4 276.1 342.45 275.95 344.15 275.5 344.65 275.65 342.45 275.1 345.05 274.7 345.45 274.65 344.65 275.05 342.3 275.3 341.2 275.35 341.2 Q275.9 341.05 276.45 339.3 L276.5 339.25 276.65 339.3 M280.4 334.5 Q279.75 334.7 279.8 335.15 L279.45 335.15 281.35 333.3 280.85 334.45 280.4 334.5 M281.4 336.05 L281.6 335.95 281.9 338.1 280.0 340.05 279.95 339.95 279.5 339.5 Q279.8 338.8 280.85 337.25 L281.4 336.05" fill="#b07764" fill-opacity="0.36862746" fill-rule="evenodd" stroke="none"/>
    <path d="M272.95 339.95 Q272.75 339.95 272.65 340.25 L272.85 340.7 273.1 340.75 273.35 340.95 273.05 341.2 272.9 341.1 Q272.4 340.6 272.35 340.1 272.25 339.6 272.6 339.3 L272.75 339.25 Q272.55 339.55 273.65 339.5 L274.1 339.65 274.25 339.8 274.35 339.8 274.35 339.75 274.45 339.95 274.65 340.2 274.75 340.15 274.85 340.4 274.9 340.7 274.85 341.1 274.45 341.4 274.75 341.6 274.65 341.65 Q274.05 341.6 274.3 341.2 L274.45 341.1 274.65 340.65 274.3 340.05 Q274.0 339.8 273.65 339.7 L273.05 339.8 272.95 339.95" fill="#666666" fill-rule="evenodd" stroke="none"/>
    <path d="M273.1 340.75 L272.85 340.7 272.65 340.25 Q272.75 339.95 272.95 339.95 L272.9 340.3 273.1 340.75 M274.75 341.6 L274.45 341.4 274.85 341.1 274.9 340.7 274.85 340.4 274.75 340.15 274.65 340.2 274.45 339.95 274.35 339.75 Q274.35 339.65 274.2 339.65 L274.1 339.6 274.1 339.65 273.65 339.5 Q272.55 339.55 272.75 339.25 L273.55 339.2 Q274.15 339.3 274.65 339.8 275.15 340.2 275.2 340.75 275.3 341.25 274.9 341.5 L274.8 341.6 274.75 341.6 M274.5 339.9 L274.55 339.9 274.75 340.15 274.55 339.9 274.5 339.9 M274.85 340.35 L275.05 340.55 275.1 340.8 275.0 340.85 274.9 340.7 275.0 340.85 275.1 340.8 275.05 340.55 274.85 340.35" fill="#999999" fill-rule="evenodd" stroke="none"/>
    <path d="M274.35 339.75 L274.35 339.8 274.25 339.8 274.1 339.65 274.1 339.6 274.2 339.65 Q274.35 339.65 274.35 339.75" fill="#cccccc" fill-rule="evenodd" stroke="none"/>
    <path d="M274.3 341.2 Q274.05 341.6 274.65 341.65 L274.75 341.6 274.75 341.65 274.55 341.75 274.3 341.65 274.1 341.45 274.1 341.25 274.3 341.2" fill="#333333" fill-rule="evenodd" stroke="none"/>
    <path d="M273.1 340.75 L272.9 340.3 272.95 339.95 273.05 339.8 273.65 339.7 Q274.0 339.8 274.3 340.05 L274.65 340.65 274.45 341.1 274.3 341.2 Q274.05 341.6 274.65 341.65 L274.75 341.6 274.8 341.6 274.9 341.5 Q275.3 341.25 275.2 340.75 275.15 340.2 274.65 339.8 274.15 339.3 273.55 339.2 L272.75 339.25 272.6 339.3 Q272.25 339.6 272.35 340.1 272.4 340.6 272.9 341.1 L273.05 341.2 273.35 340.95 273.1 340.75 Z" ffdec:has-small-stroke="true" ffdec:original-stroke-width="0.05" fill="none" stroke="#000000" stroke-linecap="butt" stroke-linejoin="miter-clip" stroke-miterlimit="3.0" stroke-opacity="0.1882353" stroke-width="1.0"/>
    <path d="M272.35 341.45 L272.5 341.65 272.3 341.85 272.2 341.75 271.75 340.85 Q271.65 340.4 271.95 340.15 L272.05 340.1 272.65 340.1 273.45 340.75 273.9 341.65 273.7 342.3 273.55 342.4 273.45 342.4 Q273.0 342.3 273.2 342.0 L273.35 341.9 273.45 341.5 273.2 340.95 272.75 340.55 272.3 340.6 272.2 340.75 272.0 341.0 272.2 341.4 Q272.3 341.65 272.35 341.45 M273.2 340.7 L273.1 340.55 273.05 340.55 273.0 340.55 273.15 340.75 273.2 340.75 273.2 340.7 273.3 340.85 273.45 341.1 273.55 341.1 273.4 340.85 273.35 340.85 273.4 340.85 273.55 341.1 273.45 341.1 273.3 340.85 273.2 340.7 M273.6 341.3 L273.55 341.1 273.6 341.3 273.65 341.55 273.75 341.7 273.8 341.65 273.75 341.45 273.65 341.25 273.6 341.3 M272.05 340.1 Q271.9 340.3 272.7 340.35 L273.05 340.55 272.7 340.35 Q271.9 340.3 272.05 340.1 M273.6 342.35 L273.55 342.35 273.35 342.15 273.45 342.1 273.6 341.9 273.65 341.55 273.6 341.9 273.45 342.1 273.35 342.15 273.55 342.35 273.6 342.35" fill="#666666" fill-rule="evenodd" stroke="none"/>
    <path d="M272.2 340.75 L272.2 341.0 272.35 341.45 Q272.3 341.65 272.2 341.4 L272.0 341.0 272.2 340.75" fill="#999999" fill-rule="evenodd" stroke="none"/>
    <path d="M273.05 340.55 L273.1 340.55 273.2 340.7 273.2 340.75 273.15 340.75 273.0 340.55 273.05 340.55 M273.6 341.3 L273.65 341.25 273.75 341.45 273.8 341.65 273.75 341.7 273.65 341.55 273.6 341.3" fill="#cccccc" fill-rule="evenodd" stroke="none"/>
    <path d="M273.55 342.4 L273.55 342.45 273.4 342.5 273.2 342.4 273.05 342.2 273.05 342.0 273.2 342.0 Q273.0 342.3 273.45 342.4 L273.55 342.4" fill="#333333" fill-rule="evenodd" stroke="none"/>
    <path d="M272.35 341.45 L272.5 341.65 272.3 341.85 272.2 341.75 271.75 340.85 Q271.65 340.4 271.95 340.15 L272.05 340.1 272.65 340.1 273.45 340.75 273.9 341.65 273.7 342.3 273.55 342.4 273.45 342.4 Q273.0 342.3 273.2 342.0 L273.35 341.9 273.45 341.5 273.2 340.95 272.75 340.55 272.3 340.6 272.2 340.75 272.2 341.0 272.35 341.45 Z" ffdec:has-small-stroke="true" ffdec:original-stroke-width="0.05" fill="none" stroke="#000000" stroke-linecap="butt" stroke-linejoin="miter-clip" stroke-miterlimit="3.0" stroke-opacity="0.1882353" stroke-width="1.0"/>
    <path d="M274.8 337.65 L275.4 337.75 275.75 337.8 275.75 337.85 275.85 337.95 275.9 337.9 276.05 338.0 276.0 338.05 276.2 338.2 276.25 338.15 276.5 338.55 276.55 338.85 276.45 339.05 276.35 339.05 276.6 339.2 276.55 339.3 Q276.15 339.3 276.2 338.95 L276.3 338.85 276.3 338.5 275.95 338.15 275.45 337.9 Q275.2 337.85 275.1 338.05 L275.05 338.15 274.95 338.4 275.2 338.7 275.35 338.7 275.55 338.85 275.45 339.05 275.3 338.95 274.75 338.35 Q274.55 337.95 274.7 337.75 L274.8 337.65" fill="#666666" fill-rule="evenodd" stroke="none"/>
    <path d="M275.9 337.9 L275.85 337.95 275.75 337.85 275.75 337.8 275.8 337.8 275.9 337.9" fill="#cccccc" fill-rule="evenodd" stroke="none"/>
    <path d="M275.75 337.8 L275.4 337.75 274.8 337.65 275.3 337.55 276.1 337.85 276.7 338.55 Q276.9 338.9 276.7 339.1 L276.65 339.2 276.6 339.2 276.35 339.05 276.45 339.05 276.55 338.85 276.5 338.55 276.25 338.15 276.2 338.2 276.0 338.05 276.05 338.0 275.9 337.9 275.8 337.8 275.75 337.8 M275.35 338.7 L275.2 338.7 274.95 338.4 275.05 338.15 275.1 338.4 275.35 338.7 M276.35 338.3 L276.55 338.4 276.65 338.6 276.55 338.6 276.5 338.55 276.55 338.6 276.65 338.6 276.55 338.4 276.35 338.3 M276.05 337.95 L276.1 337.95 276.25 338.15 276.1 337.95 276.05 337.95" fill="#999999" fill-rule="evenodd" stroke="none"/>
    <path d="M276.2 338.95 Q276.15 339.3 276.55 339.3 L276.6 339.2 276.6 339.3 276.5 339.35 276.3 339.3 276.15 339.15 276.1 339.05 276.2 338.95" fill="#333333" fill-rule="evenodd" stroke="none"/>
    <path d="M274.8 337.65 L274.7 337.75 Q274.55 337.95 274.75 338.35 L275.3 338.95 275.45 339.05 275.55 338.85 275.35 338.7 275.1 338.4 275.05 338.15 275.1 338.05 Q275.2 337.85 275.45 337.9 L275.95 338.15 276.3 338.5 276.3 338.85 276.2 338.95 Q276.15 339.3 276.55 339.3 L276.6 339.2 276.65 339.2 276.7 339.1 Q276.9 338.9 276.7 338.55 L276.1 337.85 275.3 337.55 274.8 337.65 Z" ffdec:has-small-stroke="true" ffdec:original-stroke-width="0.05" fill="none" stroke="#000000" stroke-linecap="butt" stroke-linejoin="miter-clip" stroke-miterlimit="3.0" stroke-opacity="0.1882353" stroke-width="1.0"/>
    <path d="M207.45 319.95 L202.6 321.3 198.8 317.8 202.75 317.0 198.4 317.35 196.7 315.8 202.6 315.3 195.85 314.9 192.3 311.65 200.5 312.7 207.45 319.95 M201.7 322.3 L206.8 321.15 206.95 321.3 208.45 321.95 207.55 322.2 206.45 321.5 206.9 322.35 203.4 323.3 201.7 322.3" fill="#e3d5d5" fill-rule="evenodd" stroke="none"/>
    <path d="M202.6 321.3 L207.45 319.95 206.8 321.15 201.7 322.3 202.6 321.3 M208.45 323.1 Q208.2 324.0 208.45 324.35 L206.45 328.0 208.45 323.1 M190.5 335.95 L190.35 335.7 191.7 335.0 186.75 328.55 193.1 324.1 193.55 324.75 194.6 326.15 193.2 329.35 194.95 326.65 195.6 327.55 191.7 335.0 Q191.6 335.25 191.85 335.25 L196.05 328.15 199.05 332.25 199.2 332.5 199.25 332.55 199.45 332.8 193.25 337.1 191.85 335.25 190.5 335.95 M207.55 322.2 L205.35 327.3 206.9 322.35 Q207.15 322.65 207.55 322.2 M189.65 314.8 L189.55 317.85 189.15 315.6 189.65 314.8 M188.5 316.85 L187.55 323.1 187.8 318.05 Q188.15 318.1 188.5 316.85 M198.4 317.35 Q198.45 317.9 198.8 317.8 L198.1 318.95 198.4 317.35" fill="#996666" fill-rule="evenodd" stroke="none"/>
    <path d="M208.45 321.95 L208.45 323.1 206.45 328.0 208.45 324.35 208.45 328.8 203.75 331.3 203.4 323.3 206.9 322.35 205.35 327.3 207.55 322.2 208.45 321.95 M201.25 332.15 L201.25 332.7 193.25 337.1 199.45 332.8 201.25 332.15" fill="#c9abab" fill-rule="evenodd" stroke="none"/>
    <path d="M192.3 311.65 L195.85 314.9 202.6 315.3 196.7 315.8 198.4 317.35 202.75 317.0 198.8 317.8 202.6 321.3 201.7 322.3 203.4 323.3 203.75 331.3 Q200.1 335.15 196.75 339.2 L196.05 339.0 192.9 337.9 191.85 337.55 190.5 335.95 191.85 335.25 193.25 337.1 201.25 332.7 201.25 332.15 Q201.7 327.35 200.95 322.0 L196.85 318.6 195.25 317.05 Q195.4 316.65 194.5 316.6 L192.75 315.2 191.75 315.55 Q188.7 321.2 186.6 328.05 L186.75 328.55 191.7 335.0 190.35 335.7 189.35 334.55 186.85 331.5 185.2 329.4 184.85 324.35 187.8 318.05 187.55 323.1 188.5 316.85 189.15 315.6 189.55 317.85 189.65 314.8 190.85 312.65 191.5 313.95 191.9 312.85 192.3 311.65 M207.55 322.2 Q207.15 322.65 206.9 322.35 L206.45 321.5 207.55 322.2 M195.25 317.05 L196.7 315.8 195.25 317.05 M198.4 317.35 L198.1 318.95 198.8 317.8 Q198.45 317.9 198.4 317.35 M196.7 315.8 Q195.75 315.6 195.85 314.9 195.75 315.6 196.7 315.8 M195.8 314.9 L194.5 316.6 195.8 314.9" fill="#b99388" fill-rule="evenodd" stroke="none"/>
    <path d="M208.45 328.8 Q205.1 331.4 202.4 335.0 L196.75 339.2 Q200.1 335.15 203.75 331.3 L208.45 328.8 M191.9 312.85 L191.5 313.95 190.85 312.65 191.9 312.85 M195.25 317.05 L196.85 318.6 Q194.95 321.35 193.55 324.75 L193.1 324.1 186.6 328.05 Q188.7 321.2 191.75 315.55 L192.75 315.2 194.5 316.6 Q195.4 316.65 195.25 317.05 M194.6 326.15 Q194.6 326.65 194.95 326.65 L193.2 329.35 194.6 326.15 M195.6 327.55 Q195.6 328.25 196.05 328.15 L191.85 335.25 Q191.6 335.25 191.7 335.0 L195.6 327.55" fill="#734d4d" fill-rule="evenodd" stroke="none"/>
    <path d="M186.6 328.05 L193.1 324.1 186.75 328.55 186.6 328.05" fill="#412c2c" fill-rule="evenodd" stroke="none"/>
    <path d="M196.05 339.0 L195.3 340.65 194.5 341.5 195.0 340.1 192.3 339.8 192.9 337.9 196.05 339.0 M189.35 334.55 L187.55 340.5 187.15 340.5 188.15 336.2 186.55 333.5 186.85 331.5 189.35 334.55" fill="#d2cbae" fill-rule="evenodd" stroke="none"/>
    <path d="M194.5 341.5 L191.4 342.65 192.3 339.8 195.0 340.1 194.5 341.5 M187.15 340.5 L186.05 337.1 186.55 333.5 188.15 336.2 187.15 340.5" fill="#f3f1e9" fill-rule="evenodd" stroke="none"/>
    <path d="M207.45 319.95 L200.5 312.7 192.3 311.65 191.9 312.85 190.85 312.65 189.65 314.8 189.15 315.6 188.5 316.85 Q188.15 318.1 187.8 318.05 L184.85 324.35 185.2 329.4 185.3 330.05 M206.8 321.15 L207.45 319.95 M206.8 321.15 L206.95 321.3 208.45 321.95 208.45 323.1 Q208.2 324.0 208.45 324.35 L208.45 328.8 Q205.1 331.4 202.4 335.0 L196.75 339.2 196.05 339.0 195.3 340.65 194.5 341.5 191.4 342.65 192.3 339.8 192.9 337.9 191.85 337.55 190.5 335.95 190.35 335.7 189.35 334.55 187.55 340.5 187.15 340.5 186.05 337.1 186.55 333.5 186.85 331.5 185.2 329.4 M196.85 318.6 L200.95 322.0 Q201.7 327.35 201.25 332.15 L199.45 332.8 199.25 332.55 199.05 332.25 199.2 332.5 199.25 332.55 M193.1 324.1 L193.55 324.75 Q194.95 321.35 196.85 318.6 M194.6 326.15 L193.55 324.75 M194.6 326.15 Q194.6 326.65 194.95 326.65 L195.6 327.55 Q195.6 328.25 196.05 328.15 L199.05 332.25 M192.9 337.9 L196.05 339.0 M186.85 331.5 L189.35 334.55" ffdec:has-small-stroke="true" ffdec:original-stroke-width="0.05" fill="none" stroke="#000000" stroke-linecap="butt" stroke-linejoin="miter-clip" stroke-miterlimit="3.0" stroke-opacity="0.4" stroke-width="1.0"/>
    <path d="M202.75 333.4 L203.7 333.35 203.1 334.05 202.85 333.45 202.75 333.4 M205.85 330.4 L205.95 330.95 205.05 331.85 204.95 331.75 Q205.1 331.25 205.85 330.3 L205.85 330.4 M202.7 324.55 Q202.7 324.35 203.2 324.25 L204.65 324.0 204.6 324.35 204.85 325.55 Q205.3 326.65 206.1 326.65 L206.35 326.65 206.0 327.55 Q205.0 329.6 204.35 329.6 203.35 328.8 201.4 328.7 L201.35 327.4 201.95 327.45 Q203.35 327.45 203.35 326.1 L203.05 325.15 202.7 324.55 M204.3 316.7 L206.3 318.8 206.3 318.85 205.55 320.3 205.3 320.5 203.5 320.65 203.65 320.05 Q203.65 318.95 202.35 318.95 200.8 318.95 199.6 319.75 L198.9 320.35 198.25 319.8 198.25 319.5 Q198.25 318.85 199.15 318.0 200.55 316.65 203.1 316.65 L204.3 316.7 M191.1 312.65 L191.2 312.7 191.5 313.0 191.5 313.65 191.25 313.9 190.95 313.3 190.95 313.15 191.1 312.65 M193.15 320.0 L193.0 320.15 193.15 319.9 193.15 320.0 M193.95 321.3 L194.0 321.3 194.35 321.75 193.4 323.3 Q192.95 323.45 191.0 325.15 L190.95 325.2 191.15 324.3 Q191.35 323.3 191.95 322.55 192.3 323.0 192.7 323.0 193.4 323.0 193.55 322.1 L193.95 321.3 M192.65 320.6 L192.4 320.95 192.3 321.05 192.65 320.6 M193.55 311.95 L193.45 311.8 193.6 311.85 193.55 311.95 M198.1 315.15 L197.65 315.05 Q196.3 315.05 195.4 316.45 L195.1 316.95 194.85 316.8 194.5 316.25 Q194.0 315.55 194.0 314.75 L194.2 313.9 Q194.65 313.6 195.25 313.4 L195.3 313.4 Q198.7 313.4 201.15 314.6 L201.05 314.6 Q199.25 314.6 198.1 315.15 M187.25 321.3 L186.5 320.75 187.6 318.45 187.65 318.85 Q187.65 319.9 187.25 321.3 M200.55 321.5 L201.15 321.85 200.95 322.3 200.9 322.0 200.5 321.65 200.55 321.5 M198.25 337.5 L199.15 337.35 196.7 339.2 196.0 339.0 195.95 339.15 195.7 338.9 Q194.6 338.1 193.65 337.8 L193.8 337.55 196.0 335.9 196.05 336.0 Q196.65 337.5 198.25 337.5 M187.6 332.2 L188.0 332.1 Q188.7 332.1 189.95 334.4 L189.7 334.9 188.6 333.85 187.6 332.2 M186.8 331.0 L186.6 331.2 186.45 331.05 186.55 331.05 186.8 331.0 M186.3 324.55 Q186.3 325.35 185.4 326.65 L185.0 327.25 184.8 324.35 185.55 322.75 185.6 322.85 186.3 324.55 M194.65 329.55 L194.75 329.5 194.7 329.6 194.65 329.55" fill="#9b0000" fill-opacity="0.2" fill-rule="evenodd" stroke="none"/>
  </g>
  <defs>
    <linearGradient gradientTransform="matrix(-0.0026, -0.0029, 0.0052, -0.0047, 548.5, 331.45)" gradientUnits="userSpaceOnUse" id="gradient0" spreadMethod="pad" x1="-819.2" x2="819.2">
      <stop offset="0.06666666666666667" stop-color="#e6ba73" stop-opacity="0.7019608"/>
      <stop offset="0.5058823529411764" stop-color="#f8ddb1" stop-opacity="0.7019608"/>
      <stop offset="1.0" stop-color="#fef4e0" stop-opacity="0.6509804"/>
    </linearGradient>
    <linearGradient gradientTransform="matrix(-0.004, 0.0011, -0.0014, -0.0054, 539.7, 339.9)" gradientUnits="userSpaceOnUse" id="gradient1" spreadMethod="pad" x1="-819.2" x2="819.2">
      <stop offset="0.06666666666666667" stop-color="#e6ba73" stop-opacity="0.7019608"/>
      <stop offset="0.5058823529411764" stop-color="#f8ddb1" stop-opacity="0.7019608"/>
      <stop offset="1.0" stop-color="#fef4e0" stop-opacity="0.6509804"/>
    </linearGradient>
  </defs>
</svg>
