<?xml version="1.0" encoding="UTF-8" standalone="no"?>
<svg xmlns:ffdec="https://www.free-decompiler.com/flash" xmlns:xlink="http://www.w3.org/1999/xlink" ffdec:objectType="shape" height="33.75px" width="29.9px" xmlns="http://www.w3.org/2000/svg">
  <g transform="matrix(1.0, 0.0, 0.0, 1.0, -217.5, -322.7)">
    <path d="M228.4 353.25 L227.75 348.25 229.4 348.85 229.4 355.1 228.4 353.25 Z" ffdec:has-small-stroke="true" ffdec:original-stroke-width="0.05" fill="none" stroke="#000000" stroke-linecap="butt" stroke-linejoin="miter-clip" stroke-miterlimit="3.0" stroke-opacity="0.4" stroke-width="1.0"/>
    <path d="M237.0 354.55 L235.75 356.45 235.75 350.15 237.75 349.6 237.0 354.55" fill="#f3f1e9" fill-rule="evenodd" stroke="none"/>
    <path d="M237.0 354.55 L237.75 349.6 235.75 350.15 235.75 356.45 237.0 354.55 Z" ffdec:has-small-stroke="true" ffdec:original-stroke-width="0.05" fill="none" stroke="#000000" stroke-linecap="butt" stroke-linejoin="miter-clip" stroke-miterlimit="3.0" stroke-opacity="0.4" stroke-width="1.0"/>
    <path d="M221.8 323.85 L221.8 323.65 222.45 322.75 224.9 326.0 223.7 328.7 221.5 326.5 221.8 323.85 M233.05 335.35 L234.75 334.15 Q239.45 337.2 243.4 340.6 L239.75 346.3 223.85 328.9 225.3 326.55 232.35 335.8 233.05 335.35 M237.85 331.95 L243.15 327.7 243.8 329.35 241.55 332.45 237.85 331.95 M219.4 327.2 L220.0 326.4 221.25 327.7 221.25 329.15 221.4 327.85 223.25 329.75 223.7 328.7 223.85 328.9 223.25 329.8 223.3 329.8 229.8 337.15 Q234.25 342.0 238.5 348.25 L234.15 355.0 231.7 351.0 232.25 349.9 231.65 350.75 229.65 347.4 230.7 345.4 Q231.95 347.6 233.95 349.3 235.1 349.95 235.4 349.8 236.8 349.2 235.0 347.55 233.8 346.45 231.9 343.2 L232.85 341.5 231.7 343.1 Q226.3 334.9 226.2 336.2 226.85 339.2 230.35 345.05 L229.2 346.65 Q223.55 336.95 219.4 327.2 M220.55 325.55 L221.25 324.55 221.25 326.3 220.55 325.55 M223.05 330.15 L223.25 329.75 223.05 330.15" fill="#c0b48d" fill-rule="evenodd" stroke="none"/>
    <path d="M247.4 335.6 L244.6 339.8 Q242.45 342.65 240.75 345.75 L239.4 347.85 235.3 354.2 234.15 355.0 238.5 348.25 239.4 347.85 238.5 348.25 239.75 346.3 243.4 340.6 246.35 336.05 Q246.9 335.85 247.4 335.6 M230.35 353.4 Q230.45 352.75 230.05 352.85 L231.65 350.75 232.25 349.9 231.7 351.0 230.35 353.4 M229.6 351.9 Q229.9 351.3 229.35 351.4 L231.2 350.2 229.6 351.9 M228.45 349.55 Q228.8 348.7 227.95 348.4 L229.2 346.65 230.35 345.05 231.7 343.1 232.85 341.5 231.9 343.2 230.7 345.4 229.65 347.4 228.45 349.55 M221.25 324.55 L221.8 323.85 221.5 326.5 221.4 327.85 221.25 329.15 221.25 327.7 221.25 326.3 221.25 324.55 M223.7 328.7 L224.9 326.0 Q224.75 326.65 225.3 326.55 L223.85 328.9 223.7 328.7 M241.75 332.55 L240.9 333.3 241.55 332.45 243.8 329.35 Q243.45 330.2 244.05 330.2 L241.75 332.55 M240.75 345.75 L239.75 346.3 240.75 345.75 M244.6 339.8 L243.4 340.6 244.6 339.8" fill="#a99b65" fill-rule="evenodd" stroke="none"/>
    <path d="M226.3 326.3 Q226.25 326.75 226.65 326.85 L225.3 326.55 Q224.75 326.65 224.9 326.0 L226.3 326.3 M234.75 334.15 L237.85 331.95 241.55 332.45 240.9 333.3 241.75 332.55 245.9 334.8 246.35 336.05 243.4 340.6 Q239.45 337.2 234.75 334.15 M244.9 329.6 Q244.6 330.05 245.2 330.3 L244.05 330.2 Q243.45 330.2 243.8 329.35 L244.9 329.6 M234.15 355.0 L230.65 354.0 230.35 353.4 231.7 351.0 234.15 355.0 M230.05 352.85 L229.6 351.9 231.2 350.2 229.35 351.4 228.45 349.55 229.65 347.4 231.65 350.75 230.05 352.85 M227.95 348.4 Q223.8 338.3 218.5 328.55 L219.4 327.2 Q223.55 336.95 229.2 346.65 L227.95 348.4 M220.0 326.4 L220.55 325.55 221.25 326.3 221.25 327.7 220.0 326.4 M221.5 326.5 L223.7 328.7 223.25 329.75 221.4 327.85 221.5 326.5 M223.25 329.8 L223.85 328.9 239.75 346.3 238.5 348.25 Q234.25 342.0 229.8 337.15 L223.3 329.8 223.25 329.8" fill="#c0b68d" fill-rule="evenodd" stroke="none"/>
    <path d="M222.45 322.75 L223.65 322.75 Q224.55 324.6 226.3 326.3 L224.9 326.0 222.45 322.75 M226.65 326.85 L226.7 326.85 Q229.3 331.2 233.05 335.35 L232.35 335.8 225.3 326.55 226.65 326.85 M246.6 334.55 L247.4 335.6 Q246.9 335.85 246.35 336.05 L245.9 334.8 246.6 334.55" fill="#d6cfb4" fill-rule="evenodd" stroke="none"/>
    <path d="M230.7 345.4 L231.9 343.2 Q233.8 346.45 235.0 347.55 236.8 349.2 235.4 349.8 235.1 349.95 233.95 349.3 231.95 347.6 230.7 345.4 M231.7 343.1 L230.35 345.05 Q226.85 339.2 226.2 336.2 226.3 334.9 231.7 343.1" fill="#c0bc8d" fill-rule="evenodd" stroke="none"/>
    <path d="M243.15 327.7 L244.2 327.7 244.9 329.6 243.8 329.35 243.15 327.7 M245.2 330.3 L246.6 334.55 245.9 334.8 244.05 330.2 245.2 330.3" fill="#d6d3b4" fill-rule="evenodd" stroke="none"/>
    <path d="M241.75 332.55 L244.05 330.2 245.9 334.8 241.75 332.55" fill="#c1af8c" fill-rule="evenodd" stroke="none"/>
    <path d="M221.8 323.85 L221.8 323.65 222.45 322.75 223.65 322.75 Q224.55 324.6 226.3 326.3 226.25 326.75 226.65 326.85 L226.7 326.85 Q229.3 331.2 233.05 335.35 L234.75 334.15 237.85 331.95 243.15 327.7 244.2 327.7 244.9 329.6 Q244.6 330.05 245.2 330.3 L246.6 334.55 247.4 335.6 244.6 339.8 Q242.45 342.65 240.75 345.75 L239.4 347.85 235.3 354.2 234.15 355.0 230.65 354.0 230.35 353.4 Q230.45 352.75 230.05 352.85 L229.6 351.9 Q229.9 351.3 229.35 351.4 L228.45 349.55 Q228.8 348.7 227.95 348.4 223.8 338.3 218.5 328.55 L219.4 327.2 220.0 326.4 220.55 325.55 221.25 324.55 221.8 323.85 M232.35 335.8 L233.05 335.35" ffdec:has-small-stroke="true" ffdec:original-stroke-width="0.05" fill="none" stroke="#000000" stroke-linecap="butt" stroke-linejoin="miter-clip" stroke-miterlimit="3.0" stroke-opacity="0.4" stroke-width="1.0"/>
    <path d="M221.5 326.5 L223.7 328.7 223.85 328.9 239.75 346.3 240.75 345.75 M220.55 325.55 L221.25 326.3 M221.4 327.85 L223.25 329.75 M221.25 327.7 L220.0 326.4 M241.55 332.45 L237.85 331.95 M243.4 340.6 Q239.45 337.2 234.75 334.15 M238.5 348.25 Q234.25 342.0 229.8 337.15 L223.3 329.8 223.25 329.8 M230.7 345.4 Q231.95 347.6 233.95 349.3 235.1 349.95 235.4 349.8 236.8 349.2 235.0 347.55 233.8 346.45 231.9 343.2 M230.35 345.05 Q226.85 339.2 226.2 336.2 226.3 334.9 231.7 343.1 M239.4 347.85 L238.5 348.25 M234.15 355.0 L231.7 351.0 M229.65 347.4 L231.65 350.75 M229.2 346.65 Q223.55 336.95 219.4 327.2 M245.9 334.8 L241.75 332.55 M245.9 334.8 L246.6 334.55 M243.4 340.6 L244.6 339.8" ffdec:has-small-stroke="true" ffdec:original-stroke-width="0.05" fill="none" stroke="#7c7246" stroke-linecap="butt" stroke-linejoin="miter-clip" stroke-miterlimit="3.0" stroke-opacity="0.49803922" stroke-width="1.0"/>
    <path d="M224.75 331.2 L226.15 330.6 231.15 332.25 Q231.55 332.95 233.0 332.85 L230.95 333.25 230.25 333.0 228.55 332.45 Q228.85 331.8 227.8 332.25 L227.1 331.8 226.4 331.8 224.75 331.2" fill="#e3d5d5" fill-rule="evenodd" stroke="none"/>
    <path d="M224.75 331.2 L226.4 331.8 225.4 334.1 227.1 331.8 227.8 332.25 225.4 335.95 228.55 332.45 230.25 333.0 230.95 333.25 233.0 332.85 239.65 335.05 238.8 335.8 238.05 335.55 236.65 335.15 236.6 335.1 236.05 334.95 235.55 334.75 235.2 334.65 230.85 333.45 230.8 333.7 Q230.8 334.15 231.95 334.4 L233.95 335.05 Q236.6 336.9 237.85 336.9 L238.95 336.6 239.9 340.9 238.15 343.8 239.9 341.75 240.35 343.55 Q239.75 343.8 239.15 344.5 238.35 345.45 238.35 345.85 238.35 346.25 238.8 346.9 238.8 347.4 237.6 348.6 L234.4 348.45 236.25 345.7 Q236.25 344.9 234.8 344.55 L234.85 343.7 Q234.85 343.1 234.15 343.1 233.2 343.1 232.0 345.05 L231.9 345.25 231.25 342.75 231.05 341.85 229.25 347.25 225.25 344.35 226.85 342.3 228.5 341.1 Q229.45 340.5 229.45 339.75 229.45 339.05 228.7 339.05 228.4 339.05 227.85 339.55 L227.15 340.0 226.8 339.95 227.4 338.95 Q227.3 338.25 226.65 338.25 226.25 338.25 224.8 339.2 L223.3 340.2 223.25 340.15 223.45 338.9 223.45 338.85 223.6 338.15 224.0 336.85 224.15 334.95 224.75 331.2 M228.05 338.9 L229.95 336.25 228.05 338.9 M226.85 336.1 Q225.75 336.1 225.75 336.85 225.75 337.6 227.05 337.6 227.7 337.6 227.7 336.95 227.65 336.1 226.85 336.1 M223.4 339.0 L225.5 337.2 Q225.5 336.5 224.75 336.5 224.5 336.5 224.0 336.85 224.5 336.5 224.75 336.5 225.5 336.5 225.5 337.2 L223.4 339.0 M237.4 340.8 Q237.0 340.8 236.65 341.25 L236.3 341.85 236.45 342.2 237.05 342.55 237.75 342.1 238.1 341.5 Q238.05 340.8 237.4 340.8 M228.1 337.75 L230.85 333.45 228.1 337.75 M229.3 334.9 L230.25 333.0 229.3 334.9" fill="#c9abab" fill-rule="evenodd" stroke="none"/>
    <path d="M226.4 331.8 L227.1 331.8 225.4 334.1 226.4 331.8 M227.8 332.25 Q228.85 331.8 228.55 332.45 L225.4 335.95 227.8 332.25 M239.65 335.05 L240.8 340.2 239.9 340.9 239.9 341.75 241.0 341.15 242.45 347.85 241.6 348.8 240.95 346.05 240.35 343.55 239.9 341.75 238.15 343.8 239.9 340.9 238.95 336.6 238.8 335.8 239.65 335.05 M224.9 344.1 Q224.7 343.45 224.3 343.65 L225.4 340.85 224.9 344.1 M223.85 343.35 Q223.85 342.7 223.3 342.9 L225.5 339.75 223.85 343.35" fill="#996666" fill-rule="evenodd" stroke="none"/>
    <path d="M240.75 348.75 L237.6 348.6 Q238.8 347.4 238.8 346.9 238.35 346.25 238.35 345.85 238.35 345.45 239.15 344.5 239.75 343.8 240.35 343.55 L240.95 346.05 240.8 346.5 241.1 347.35 240.85 348.55 240.75 348.75 M234.4 348.45 L232.6 348.35 231.9 345.25 232.0 345.05 Q233.2 343.1 234.15 343.1 234.85 343.1 234.85 343.7 L234.8 344.55 Q236.25 344.9 236.25 345.7 L234.4 348.45 M225.25 344.35 L224.9 344.1 225.4 340.85 224.3 343.65 223.85 343.35 225.5 339.75 223.3 342.9 222.9 342.65 223.45 341.85 223.45 341.75 222.9 342.2 223.25 340.15 223.3 340.2 224.8 339.2 Q226.25 338.25 226.65 338.25 227.3 338.25 227.4 338.95 L226.8 339.95 227.15 340.0 227.85 339.55 Q228.4 339.05 228.7 339.05 229.45 339.05 229.45 339.75 229.45 340.5 228.5 341.1 L226.85 342.3 225.25 344.35 M238.95 336.6 L237.85 336.9 Q236.6 336.9 233.95 335.05 L231.95 334.4 Q230.8 334.15 230.8 333.7 L230.85 333.45 235.2 334.65 235.55 334.75 236.05 334.95 236.6 335.1 236.65 335.15 237.75 335.5 237.85 335.5 238.05 335.55 238.8 335.8 238.95 336.6 M226.85 336.1 Q227.65 336.1 227.7 336.95 227.7 337.6 227.05 337.6 225.75 337.6 225.75 336.85 225.75 336.1 226.85 336.1 M237.4 340.8 Q238.05 340.8 238.1 341.5 L237.75 342.1 237.05 342.55 236.45 342.2 236.3 341.85 236.65 341.25 Q237.0 340.8 237.4 340.8" fill="#b99388" fill-rule="evenodd" stroke="none"/>
    <path d="M241.6 348.8 L240.75 348.75 240.85 348.55 241.1 347.35 240.8 346.5 240.95 346.05 241.6 348.8 M222.9 342.65 L222.8 342.55 222.9 342.2 223.45 341.75 223.45 341.85 222.9 342.65 M238.05 335.55 L237.85 335.5 237.75 335.5 236.65 335.15 238.05 335.55" fill="#b48d8d" fill-rule="evenodd" stroke="none"/>
    <path d="M240.8 340.2 Q240.35 340.95 241.0 341.15 L239.9 341.75 239.9 340.9 240.8 340.2 M231.25 342.75 L230.2 346.5 229.25 347.25 231.05 341.85 231.25 342.75" fill="#734d4d" fill-rule="evenodd" stroke="none"/>
    <path d="M233.0 332.85 Q231.55 332.95 231.15 332.25 L226.15 330.6 224.75 331.2 224.15 334.95 224.0 336.85 223.6 338.15 223.45 338.85 223.45 338.9 223.25 340.15 222.9 342.2 222.8 342.55 222.9 342.65 M230.95 333.25 L233.0 332.85 239.65 335.05 240.8 340.2 Q240.35 340.95 241.0 341.15 L242.45 347.85 241.6 348.8 240.75 348.75 237.6 348.6 234.4 348.45 232.6 348.35 231.9 345.25 231.25 342.75 230.2 346.5 229.25 347.25 225.25 344.35 224.9 344.1 Q224.7 343.45 224.3 343.65 L223.85 343.35 Q223.85 342.7 223.3 342.9 M229.95 336.25 L228.05 338.9 M230.25 333.0 L229.3 334.9 M230.85 333.45 L228.1 337.75" ffdec:has-small-stroke="true" ffdec:original-stroke-width="0.05" fill="none" stroke="#000000" stroke-linecap="butt" stroke-linejoin="miter-clip" stroke-miterlimit="3.0" stroke-opacity="0.4" stroke-width="1.0"/>
    <path d="M225.7 337.3 L225.7 335.75 238.3 340.2 238.3 342.05 225.7 337.3" fill="#000000" fill-rule="evenodd" stroke="none"/>
    <path d="M225.7 335.75 L225.7 337.3 224.75 338.15 224.75 335.45 225.7 335.75" fill="#996666" fill-rule="evenodd" stroke="none"/>
    <path d="M224.75 338.15 L225.7 337.3 238.3 342.05 238.3 343.05 224.75 338.15" fill="#d3bcbc" fill-rule="evenodd" stroke="none"/>
    <path d="M219.9 333.15 L220.0 333.15 220.15 333.0 220.1 332.9 220.3 332.75 220.55 332.55 220.95 332.5 221.25 332.65 221.3 332.75 221.45 332.45 221.5 332.55 Q221.6 333.05 221.15 332.95 L221.15 332.9 221.05 332.8 220.55 332.8 220.1 333.25 Q219.9 333.6 219.95 334.0 L220.15 334.45 220.35 334.5 Q220.35 334.65 220.7 334.65 L221.05 334.35 Q221.2 334.05 221.0 334.1 L221.15 333.85 221.45 334.0 221.35 334.2 220.6 334.95 Q220.15 335.2 219.8 334.95 L219.7 334.9 Q220.0 334.95 219.7 334.05 L219.75 333.6 219.8 333.6 219.9 333.4 219.85 333.35 219.8 333.35 219.9 333.15" fill="#666666" fill-rule="evenodd" stroke="none"/>
    <path d="M220.1 332.9 L220.15 333.0 220.0 333.15 219.9 333.15 219.9 333.1 220.1 332.9 M219.8 333.35 L219.85 333.35 219.9 333.4 219.8 333.6 219.75 333.6 219.7 333.55 219.8 333.35" fill="#cccccc" fill-rule="evenodd" stroke="none"/>
    <path d="M219.9 333.15 L219.8 333.35 219.7 333.55 219.75 333.6 219.7 334.05 Q220.0 334.95 219.7 334.9 L219.5 334.2 Q219.45 333.6 219.8 333.1 220.1 332.55 220.55 332.3 221.0 332.1 221.35 332.3 L221.45 332.4 221.45 332.45 221.3 332.75 221.25 332.65 220.95 332.5 220.55 332.55 220.3 332.75 220.1 332.9 219.9 333.1 219.9 333.15 M221.0 334.1 Q221.2 334.05 221.05 334.35 L220.7 334.65 Q220.35 334.65 220.35 334.5 L220.6 334.45 221.0 334.1 M220.25 332.7 L220.4 332.55 220.6 332.4 220.65 332.45 220.55 332.55 220.65 332.45 220.6 332.4 220.4 332.55 220.25 332.7" fill="#999999" fill-rule="evenodd" stroke="none"/>
    <path d="M221.15 332.95 Q221.6 333.05 221.5 332.55 L221.45 332.45 221.5 332.45 221.6 332.55 221.6 332.8 221.45 333.05 221.25 333.1 221.15 332.95" fill="#333333" fill-rule="evenodd" stroke="none"/>
    <path d="M219.7 334.9 L219.8 334.95 Q220.15 335.2 220.6 334.95 L221.35 334.2 221.45 334.0 221.15 333.85 221.0 334.1 220.6 334.45 220.35 334.5 220.15 334.45 219.95 334.0 Q219.9 333.6 220.1 333.25 L220.55 332.8 221.05 332.8 221.15 332.9 221.15 332.95 Q221.6 333.05 221.5 332.55 L221.45 332.45 221.45 332.4 221.35 332.3 Q221.0 332.1 220.55 332.3 220.1 332.55 219.8 333.1 219.45 333.6 219.5 334.2 L219.7 334.9 Z" ffdec:has-small-stroke="true" ffdec:original-stroke-width="0.05" fill="none" stroke="#000000" stroke-linecap="butt" stroke-linejoin="miter-clip" stroke-miterlimit="3.0" stroke-opacity="0.1882353" stroke-width="1.0"/>
    <path d="M217.75 332.4 Q218.1 332.5 217.85 331.4 217.85 331.15 218.0 330.85 L218.2 330.65 218.15 330.55 218.1 330.55 218.25 330.3 218.3 330.35 218.6 330.1 218.55 330.0 218.8 329.85 219.2 329.6 219.7 329.55 Q219.95 329.6 220.0 329.75 L220.1 329.85 220.35 329.45 220.45 329.55 Q220.45 330.2 219.9 330.1 L219.9 330.05 219.75 329.9 219.2 329.9 Q218.8 330.1 218.45 330.45 L218.15 331.3 Q218.1 331.7 218.35 331.9 L218.55 331.95 219.0 332.1 219.5 331.75 219.55 331.45 219.7 331.2 220.1 331.35 220.0 331.6 218.85 332.55 217.85 332.5 217.75 332.4" fill="#666666" fill-rule="evenodd" stroke="none"/>
    <path d="M220.35 329.45 L220.45 329.45 220.55 329.6 220.5 329.9 220.25 330.2 220.05 330.3 219.9 330.1 Q220.45 330.2 220.45 329.55 L220.35 329.45" fill="#333333" fill-rule="evenodd" stroke="none"/>
    <path d="M217.75 332.4 Q217.45 332.1 217.55 331.55 217.6 330.9 218.1 330.25 L219.2 329.3 Q219.8 329.0 220.2 329.3 L220.35 329.4 220.35 329.45 220.1 329.85 220.0 329.75 Q219.95 329.6 219.7 329.55 L219.2 329.6 219.35 329.5 219.3 329.45 219.0 329.55 218.75 329.8 218.8 329.85 218.55 330.0 218.25 330.3 218.1 330.55 217.95 330.75 217.95 330.85 218.0 330.85 Q217.85 331.15 217.85 331.4 218.1 332.5 217.75 332.4 M218.55 331.95 L218.95 331.85 219.55 331.45 219.5 331.75 219.0 332.1 218.55 331.95" fill="#999999" fill-rule="evenodd" stroke="none"/>
    <path d="M218.0 330.85 L217.95 330.85 217.95 330.75 218.1 330.55 218.15 330.55 218.2 330.65 218.0 330.85 M218.25 330.3 L218.55 330.0 218.6 330.1 218.3 330.35 218.25 330.3 M218.8 329.85 L218.75 329.8 219.0 329.55 219.3 329.45 219.35 329.5 219.2 329.6 218.8 329.85" fill="#cccccc" fill-rule="evenodd" stroke="none"/>
    <path d="M220.35 329.45 L220.35 329.4 220.2 329.3 Q219.8 329.0 219.2 329.3 L218.1 330.25 Q217.6 330.9 217.55 331.55 217.45 332.1 217.75 332.4 L217.85 332.5 218.85 332.55 220.0 331.6 220.1 331.35 219.7 331.2 219.55 331.45 218.95 331.85 218.55 331.95 218.35 331.9 Q218.1 331.7 218.15 331.3 L218.45 330.45 Q218.8 330.1 219.2 329.9 L219.75 329.9 219.9 330.05 219.9 330.1 Q220.45 330.2 220.45 329.55 L220.35 329.45 Z" ffdec:has-small-stroke="true" ffdec:original-stroke-width="0.05" fill="none" stroke="#000000" stroke-linecap="butt" stroke-linejoin="miter-clip" stroke-miterlimit="3.0" stroke-opacity="0.1882353" stroke-width="1.0"/>
  </g>
</svg>
