<?xml version="1.0" encoding="UTF-8" standalone="no"?>
<svg xmlns:ffdec="https://www.free-decompiler.com/flash" xmlns:xlink="http://www.w3.org/1999/xlink" ffdec:objectType="shape" height="64.2px" width="50.1px" xmlns="http://www.w3.org/2000/svg">
  <g transform="matrix(1.0, 0.0, 0.0, 1.0, 24.95, 30.25)">
    <path d="M11.0 20.6 Q10.1 20.6 9.45 19.95 8.8 19.35 8.8 18.4 8.8 17.5 9.45 16.85 10.1 16.2 11.0 16.2 11.9 16.2 12.55 16.85 13.2 17.5 13.25 18.4 13.2 19.35 12.55 19.95 11.9 20.6 11.0 20.6" fill="#8b5b30" fill-rule="evenodd" stroke="none"/>
    <path d="M17.1 -16.4 Q22.05 -6.65 22.1 0.6 22.1 13.1 15.65 22.0 9.2 30.8 0.1 30.8 L-4.45 30.25 Q4.2 26.75 9.1 21.6 21.25 8.9 11.15 -14.1 7.85 -21.65 2.15 -30.25 5.25 -29.8 7.95 -27.8 L11.15 -24.85 14.45 -20.75 Q15.95 -18.65 17.1 -16.4" fill="#672c2c" fill-rule="evenodd" stroke="none"/>
    <path d="M3.95 20.65 Q5.7 20.65 6.9 19.4 8.15 18.2 8.15 16.45 8.15 14.7 6.9 13.45 5.7 12.25 3.95 12.25 2.2 12.25 1.0 13.45 -0.25 14.7 -0.25 16.45 -0.25 18.2 1.0 19.4 2.2 20.65 3.95 20.65 M7.55 20.5 Q5.9 22.1 3.65 22.1 1.4 22.1 -0.2 20.5 -1.8 18.9 -1.8 16.65 -1.8 14.35 -0.2 12.75 1.4 11.15 3.65 11.15 5.9 11.15 7.55 12.75 9.15 14.35 9.15 16.65 9.15 18.9 7.55 20.5" fill="#e4dfd3" fill-opacity="0.6" fill-rule="evenodd" stroke="none"/>
    <path d="M3.95 20.65 Q2.2 20.65 1.0 19.4 -0.25 18.2 -0.25 16.45 -0.25 14.7 1.0 13.45 2.2 12.25 3.95 12.25 5.7 12.25 6.9 13.45 8.15 14.7 8.15 16.45 8.15 18.2 6.9 19.4 5.7 20.65 3.95 20.65" fill="#fdfff0" fill-rule="evenodd" stroke="none"/>
    <path d="M-6.85 -1.05 Q-7.75 -1.05 -8.35 -0.45 -9.0 0.2 -8.95 1.05 -9.0 1.95 -8.35 2.55 -7.75 3.2 -6.85 3.2 -6.0 3.2 -5.35 2.55 -4.75 1.95 -4.75 1.05 -4.75 0.2 -5.35 -0.45 -6.0 -1.05 -6.85 -1.05 M-7.0 -1.6 Q-5.85 -1.6 -5.05 -0.8 -4.25 0.0 -4.25 1.15 -4.25 2.3 -5.05 3.1 -5.85 3.9 -7.0 3.9 -8.15 3.9 -8.95 3.1 -9.75 2.3 -9.75 1.15 -9.75 0.0 -8.95 -0.8 -8.15 -1.6 -7.0 -1.6" fill="#e4dfd3" fill-opacity="0.6" fill-rule="evenodd" stroke="none"/>
    <path d="M-6.85 -1.05 Q-6.0 -1.05 -5.35 -0.45 -4.75 0.2 -4.75 1.05 -4.75 1.95 -5.35 2.55 -6.0 3.2 -6.85 3.2 -7.75 3.2 -8.35 2.55 -9.0 1.95 -8.95 1.05 -9.0 0.2 -8.35 -0.45 -7.75 -1.05 -6.85 -1.05" fill="#fdfff0" fill-rule="evenodd" stroke="none"/>
    <path d="M5.05 -26.05 L5.5 -26.1 7.7 -26.5 8.25 -26.6 8.45 -26.65 8.75 -26.7 9.9 -27.05 10.0 -27.1 10.45 -27.2 10.8 -27.35 11.55 -27.6 12.2 -27.8 12.8 -27.35 13.6 -26.55 14.25 -25.45 13.85 -25.0 13.25 -24.35 12.85 -23.9 12.5 -23.6 12.05 -23.1 11.7 -22.85 11.1 -22.3 10.6 -21.95 10.3 -21.7 9.7 -21.3 9.7 -21.25 8.4 -20.45 7.35 -19.95 Q-2.4 -15.2 -16.3 -23.2 L-12.15 -27.85 -12.0 -27.8 Q-2.95 -25.0 5.05 -26.05 M10.15 -2.15 L10.6 -2.1 Q13.5 -1.25 15.6 -0.25 L17.35 0.8 18.45 1.6 18.85 1.95 19.2 2.25 20.2 2.95 20.3 3.05 20.45 3.05 21.1 3.2 21.9 3.3 22.45 3.3 22.95 3.25 23.45 3.25 23.65 3.2 24.0 3.2 25.05 3.5 25.15 3.5 24.95 6.1 24.85 6.05 23.7 5.8 23.45 5.8 23.35 5.85 22.8 5.85 22.3 5.85 21.95 5.85 21.1 5.85 20.35 5.65 20.2 5.6 19.3 4.95 18.85 4.55 18.75 4.45 17.6 3.5 15.7 2.35 Q13.7 1.3 10.9 0.5 L10.45 0.4 Q-26.45 -10.7 -22.55 15.95 L-24.35 10.35 -24.4 10.15 Q-25.7 -12.6 10.15 -2.15 M12.65 18.0 L12.95 18.2 14.25 19.3 14.55 19.5 14.75 19.65 14.9 19.8 15.8 20.2 16.95 20.45 17.5 20.5 17.75 20.5 18.9 20.35 20.3 19.95 18.4 23.05 18.15 23.1 17.3 23.2 16.35 23.1 15.95 22.9 15.85 22.85 15.5 22.6 14.8 22.1 14.05 21.5 13.6 21.2 13.55 21.15 12.65 20.45 11.85 19.8 11.4 19.6 6.65 17.1 Q1.7 14.7 -5.7 17.0 -12.95 19.25 -17.4 24.8 L-18.5 23.2 -18.45 23.1 Q-13.9 15.25 -6.45 13.4 0.75 11.6 9.0 15.55 10.6 16.3 12.2 17.6 L12.65 18.0" fill="#220d0d" fill-rule="evenodd" stroke="none"/>
    <path d="M19.5 -2.05 Q15.6 -2.3 8.4 -7.2 3.0 -11.7 11.2 -15.15 L11.8 -15.35 M11.9 -15.4 L13.9 -15.6 Q18.15 -16.0 15.85 -9.35 14.65 -7.0 13.4 -7.4 12.1 -7.8 10.7 -11.05 M19.5 -2.05 Q23.6 -1.8 24.0 -6.75 M-4.7 33.45 Q11.25 33.25 8.1 22.9 L7.95 22.55 Q6.95 19.35 4.85 19.0 1.95 18.55 -2.95 23.35 -6.45 26.5 -1.3 28.25 L-0.05 28.55 Q7.1 30.0 4.65 23.4 M-11.55 6.6 Q-12.1 5.65 -14.2 5.2 -19.75 3.55 -22.1 16.7 M-11.55 6.6 Q-10.35 8.45 -15.2 12.15 -18.85 14.45 -18.8 12.65 -18.7 11.4 -16.9 8.2" fill="none" stroke="#220d0d" stroke-linecap="butt" stroke-linejoin="miter-clip" stroke-miterlimit="3.0" stroke-width="1.0"/>
    <path d="M7.35 -19.95 Q-2.4 -15.2 -16.3 -23.2 M11.8 -15.35 L11.9 -15.4 M13.4 -7.4 Q11.75 -6.85 9.95 -11.05 M13.9 -15.6 Q17.15 -15.35 15.1 -9.35 14.25 -7.7 13.4 -7.4 M10.6 -2.1 L10.15 -2.15 M-22.55 15.95 Q-26.45 -10.7 10.45 0.4 L10.9 0.5 Q13.7 1.3 15.7 2.35 M19.5 -2.05 Q15.55 -1.8 7.65 -7.2 2.05 -11.85 11.0 -15.4 M23.5 -7.35 Q22.85 -2.3 19.5 -2.05 M4.85 19.0 Q6.4 19.75 7.2 22.3 L7.35 22.65 Q10.5 33.0 -5.45 33.2 M-1.3 28.25 L-0.8 28.35 Q6.35 29.75 3.9 23.15 M-22.55 15.95 Q-20.0 2.9 -14.45 4.5 -11.65 5.15 -11.55 6.6 -11.4 8.35 -15.4 11.5 -18.1 13.2 -18.8 12.65 -19.65 12.0 -17.1 7.5 M-1.3 28.25 Q-7.45 26.5 -3.7 23.1 1.85 17.65 4.85 19.0" fill="none" stroke="#b87941" stroke-linecap="butt" stroke-linejoin="miter-clip" stroke-miterlimit="3.0" stroke-width="1.0"/>
    <path d="M-12.15 -27.85 L-12.0 -27.8 Q-2.95 -25.0 5.05 -26.05 M10.15 -2.15 Q-25.7 -12.6 -24.4 10.15 L-24.35 10.35 M15.6 -0.25 Q13.5 -1.25 10.6 -2.1 M12.65 18.0 L12.2 17.6 Q10.6 16.3 9.0 15.55 0.75 11.6 -6.45 13.4 -13.9 15.25 -18.45 23.1 L-18.5 23.2" fill="none" stroke="#cd9c70" stroke-linecap="butt" stroke-linejoin="miter-clip" stroke-miterlimit="3.0" stroke-width="1.0"/>
    <path d="M-9.9 -6.7 Q-9.95 -11.7 -2.85 -11.15 -4.0 -4.85 -9.9 -6.7" fill="#220d0d" fill-rule="evenodd" stroke="none"/>
    <path d="M-9.9 -6.7 Q-4.0 -4.85 -2.85 -11.15 -9.95 -11.7 -9.9 -6.7 Z" ffdec:has-small-stroke="true" ffdec:original-stroke-width="0.3" fill="none" stroke="#220d0d" stroke-linecap="butt" stroke-linejoin="miter-clip" stroke-miterlimit="3.0" stroke-width="1.0"/>
    <path d="M-12.1 -6.8 Q-17.75 -9.7 -13.2 -17.5 -6.75 -12.4 -12.1 -6.8" fill="#220d0d" fill-rule="evenodd" stroke="none"/>
    <path d="M-12.1 -6.8 Q-6.75 -12.4 -13.2 -17.5 -17.75 -9.7 -12.1 -6.8 Z" ffdec:has-small-stroke="true" ffdec:original-stroke-width="0.3" fill="none" stroke="#220d0d" stroke-linecap="butt" stroke-linejoin="miter-clip" stroke-miterlimit="3.0" stroke-width="1.0"/>
    <path d="M-14.75 -6.2 Q-19.65 -4.95 -20.6 -10.25 -14.75 -10.3 -14.75 -6.2" fill="#220d0d" fill-rule="evenodd" stroke="none"/>
    <path d="M-14.75 -6.2 Q-19.65 -4.95 -20.6 -10.25 -14.75 -10.3 -14.75 -6.2 Z" ffdec:has-small-stroke="true" ffdec:original-stroke-width="0.3" fill="none" stroke="#220d0d" stroke-linecap="butt" stroke-linejoin="miter-clip" stroke-miterlimit="3.0" stroke-width="1.0"/>
    <path d="M-14.05 -8.0 Q-15.7 -2.3 -17.4 -1.95 -19.15 -1.55 -19.15 -5.85 -19.25 -10.1 -16.9 -15.55 -14.6 -20.95 -11.2 -24.35 -7.85 -27.75 -3.75 -28.55 0.4 -29.4 1.25 -25.75 2.1 -22.15 -5.15 -17.95 -12.4 -13.7 -14.05 -8.0" fill="#ebcabc" fill-opacity="0.6" fill-rule="evenodd" stroke="none"/>
  </g>
</svg>
