<?xml version="1.0" encoding="UTF-8" standalone="no"?>
<svg xmlns:ffdec="https://www.free-decompiler.com/flash" xmlns:xlink="http://www.w3.org/1999/xlink" ffdec:objectType="shape" height="103.75px" width="258.25px" xmlns="http://www.w3.org/2000/svg">
  <g transform="matrix(1.0, 0.0, 0.0, 1.0, -461.0, -328.1)">
    <path d="M685.5 346.1 L630.45 346.1 630.45 328.1 685.5 328.1 685.5 346.1 M715.95 367.4 L548.85 367.4 548.85 349.4 715.95 349.4 715.95 367.4" fill="#ffffff" fill-rule="evenodd" stroke="none"/>
    <path d="M718.75 431.15 L487.5 431.15 487.5 406.15 718.75 406.15 718.75 431.15" fill="#beb998" fill-rule="evenodd" stroke="none"/>
    <path d="M718.75 431.15 L487.5 431.15 487.5 406.15 718.75 406.15 718.75 431.15 Z" fill="none" stroke="#784b01" stroke-linecap="butt" stroke-linejoin="miter-clip" stroke-miterlimit="3.0" stroke-width="1.0"/>
    <path d="M718.6 406.5 L603.55 406.5 603.55 372.5 718.6 372.5 718.6 406.5" fill="#ff0000" fill-rule="evenodd" stroke="none"/>
    <path d="M718.6 406.5 L603.55 406.5 603.55 372.5 718.6 372.5 718.6 406.5 Z" fill="none" stroke="#784b01" stroke-linecap="butt" stroke-linejoin="miter-clip" stroke-miterlimit="3.0" stroke-width="1.0"/>
    <path d="M603.3 372.5 L603.3 406.5 487.55 406.5 487.55 372.5 603.3 372.5" fill="#669900" fill-rule="evenodd" stroke="none"/>
    <path d="M603.3 372.5 L603.3 406.5 487.55 406.5 487.55 372.5 603.3 372.5 Z" fill="none" stroke="#784b01" stroke-linecap="butt" stroke-linejoin="miter-clip" stroke-miterlimit="3.0" stroke-width="1.0"/>
    <path d="M488.5 372.15 L488.5 431.35 461.5 431.35 461.5 372.15 488.5 372.15" fill="#beb998" fill-rule="evenodd" stroke="none"/>
    <path d="M488.5 372.15 L488.5 431.35 461.5 431.35 461.5 372.15 488.5 372.15 Z" fill="none" stroke="#784b01" stroke-linecap="butt" stroke-linejoin="miter-clip" stroke-miterlimit="3.0" stroke-width="1.0"/>
  </g>
</svg>
