<?xml version="1.0" encoding="UTF-8" standalone="no"?>
<svg xmlns:ffdec="https://www.free-decompiler.com/flash" xmlns:xlink="http://www.w3.org/1999/xlink" ffdec:objectType="shape" height="16.0px" width="16.0px" xmlns="http://www.w3.org/2000/svg">
  <g transform="matrix(1.0, 0.0, 0.0, 1.0, 0.0, 0.0)">
    <path d="M16.0 8.0 Q16.0 11.3 13.65 13.65 12.35 14.95 10.75 15.55 L8.0 16.0 5.3 15.55 Q3.65 14.95 2.35 13.65 0.0 11.3 0.0 8.0 0.0 4.7 2.35 2.3 4.7 0.0 8.0 0.0 11.35 0.0 13.65 2.3 16.0 4.7 16.0 8.0 M15.45 8.0 Q15.45 4.9 13.25 2.65 11.1 0.5 7.95 0.5 4.85 0.5 2.65 2.65 0.45 4.9 0.45 8.0 0.45 11.1 2.65 13.3 4.85 15.5 7.95 15.5 11.1 15.5 13.25 13.3 15.45 11.1 15.45 8.0 15.45 11.1 13.25 13.3 11.1 15.5 7.95 15.5 4.85 15.5 2.65 13.3 0.45 11.1 0.45 8.0 0.45 4.9 2.65 2.65 4.85 0.5 7.95 0.5 11.1 0.5 13.25 2.65 15.45 4.9 15.45 8.0" fill="#d5cfaa" fill-rule="evenodd" stroke="none"/>
    <path d="M15.45 8.0 Q15.45 11.1 13.25 13.3 11.1 15.5 7.95 15.5 4.85 15.5 2.65 13.3 0.45 11.1 0.45 8.0 0.45 4.9 2.65 2.65 4.85 0.5 7.95 0.5 11.1 0.5 13.25 2.65 15.45 4.9 15.45 8.0 Z" ffdec:has-small-stroke="true" ffdec:original-stroke-width="0.5" fill="none" stroke="#000000" stroke-linecap="round" stroke-linejoin="bevel" stroke-width="1.0"/>
  </g>
</svg>
