<?xml version="1.0" encoding="UTF-8" standalone="no"?>
<svg xmlns:ffdec="https://www.free-decompiler.com/flash" xmlns:xlink="http://www.w3.org/1999/xlink" ffdec:objectType="shape" height="21.4px" width="21.4px" xmlns="http://www.w3.org/2000/svg">
  <g transform="matrix(1.0, 0.0, 0.0, 1.0, 0.6, -6.45)">
    <path d="M11.25 27.25 L10.1 27.35 Q5.85 27.35 2.8 24.35 -0.1 21.25 -0.1 17.15 -0.1 15.45 0.35 13.95 1.05 11.6 2.8 9.85 5.85 6.95 10.1 6.95 14.3 6.95 17.25 9.85 20.3 12.95 20.3 17.15 20.3 21.25 17.25 24.35 14.7 26.75 11.25 27.25" fill="#000000" fill-rule="evenodd" stroke="none"/>
    <path d="M11.25 27.25 L10.1 27.35 Q5.85 27.35 2.8 24.35 -0.1 21.25 -0.1 17.15 -0.1 15.45 0.35 13.95 1.05 11.6 2.8 9.85 5.85 6.95 10.1 6.95 14.3 6.95 17.25 9.85 20.3 12.95 20.3 17.15 20.3 21.25 17.25 24.35 14.7 26.75 11.25 27.25 Z" fill="none" stroke="#000000" stroke-linecap="butt" stroke-linejoin="round" stroke-width="1.0"/>
    <path d="M10.05 6.95 Q13.9 6.95 16.8 9.85 L18.7 12.45 Q19.7 14.55 19.7 17.0 19.7 18.75 19.2 20.25 18.4 22.35 16.8 24.05 13.9 27.05 10.05 27.05 6.1 27.05 3.15 24.05 0.35 21.15 0.35 17.0 0.35 12.8 3.15 9.85 6.1 6.95 10.05 6.95" fill="#ffcc00" fill-rule="evenodd" stroke="none"/>
    <path d="M9.95 9.65 Q13.0 9.65 15.25 11.8 17.45 13.95 17.45 17.0 17.45 18.95 16.5 20.6 L15.25 22.1 Q13.0 24.25 9.95 24.25 8.05 24.25 6.5 23.45 L4.7 22.1 Q2.55 20.0 2.55 17.0 2.55 13.95 4.7 11.8 6.95 9.65 9.95 9.65" fill="#996600" fill-rule="evenodd" stroke="none"/>
  </g>
</svg>
