<?xml version="1.0" encoding="UTF-8" standalone="no"?>
<svg xmlns:ffdec="https://www.free-decompiler.com/flash" xmlns:xlink="http://www.w3.org/1999/xlink" ffdec:objectType="shape" height="16.55px" width="16.5px" xmlns="http://www.w3.org/2000/svg">
  <g transform="matrix(1.0, 0.0, 0.0, 1.0, 0.0, 0.0)">
    <path d="M0.65 7.7 Q0.9 5.0 2.85 3.0 L4.75 1.65 Q6.45 0.8 8.2 0.8 10.45 0.8 11.8 1.65 L13.65 3.0 Q15.65 5.05 15.8 7.95 L15.8 8.35 15.8 8.4 14.55 10.05 14.25 10.35 11.8 11.9 8.4 12.55 6.1 12.25 Q4.0 11.65 2.3 10.05 1.35 9.05 0.7 7.8 L0.65 7.7" fill="#ff6600" fill-rule="evenodd" stroke="none"/>
    <path d="M15.8 8.35 L15.8 7.95 Q15.65 5.05 13.65 3.0 L11.8 1.65 Q10.45 0.8 8.2 0.8 6.45 0.8 4.75 1.65 L2.85 3.0 Q0.9 5.0 0.65 7.7 L0.65 8.65 0.9 10.35 Q1.4 12.25 2.85 13.7 4.35 15.15 6.25 15.7 L8.2 15.95 10.2 15.75 10.7 15.65 11.3 15.35 11.45 15.3 13.25 14.15 13.65 13.7 Q13.7 13.6 13.8 13.6 L14.85 12.1 15.15 11.55 Q15.8 10.15 15.8 8.4 L15.8 8.35 M14.1 2.4 Q16.5 4.9 16.5 8.3 16.5 11.65 14.1 14.15 11.65 16.55 8.2 16.55 4.85 16.55 2.4 14.15 0.0 11.65 0.0 8.3 0.0 4.95 2.4 2.45 L2.45 2.4 Q4.85 0.0 8.2 0.0 11.65 0.0 14.1 2.4" fill="#534641" fill-rule="evenodd" stroke="none"/>
    <path d="M0.65 7.7 L0.7 7.8 Q1.35 9.05 2.3 10.05 4.0 11.65 6.1 12.25 L8.4 12.55 11.8 11.9 14.25 10.35 14.55 10.05 15.8 8.4 Q15.8 10.15 15.15 11.55 L14.85 12.1 13.8 13.6 Q13.7 13.6 13.65 13.7 L13.3 13.95 13.25 14.15 11.45 15.3 11.3 15.35 10.7 15.65 10.2 15.75 8.2 15.95 6.25 15.7 Q4.35 15.15 2.85 13.7 1.4 12.25 0.9 10.35 L0.65 8.65 0.65 7.7" fill="#ff8040" fill-rule="evenodd" stroke="none"/>
    <path d="M15.8 8.35 L15.8 7.95 Q15.65 5.05 13.65 3.0 L11.8 1.65 Q10.45 0.8 8.2 0.8 6.45 0.8 4.75 1.65 L2.85 3.0 Q0.9 5.0 0.65 7.7 L0.65 8.65 0.9 10.35 Q1.4 12.25 2.85 13.7 4.35 15.15 6.25 15.7 L8.2 15.95 10.2 15.75 10.7 15.65 11.3 15.35 11.45 15.3 13.25 14.15 13.3 13.95 13.65 13.7 Q13.7 13.6 13.8 13.6 L14.85 12.1 15.15 11.55 Q15.8 10.15 15.8 8.4" ffdec:has-small-stroke="true" ffdec:original-stroke-width="0.5" fill="none" stroke="#d5d4c8" stroke-linecap="round" stroke-linejoin="bevel" stroke-opacity="0.3019608" stroke-width="1.0"/>
  </g>
</svg>
