<?xml version="1.0" encoding="UTF-8" standalone="no"?>
<svg xmlns:ffdec="https://www.free-decompiler.com/flash" xmlns:xlink="http://www.w3.org/1999/xlink" ffdec:objectType="shape" height="18.6px" width="24.6px" xmlns="http://www.w3.org/2000/svg">
  <g transform="matrix(1.0, 0.0, 0.0, 1.0, 0.1, 0.1)">
    <path d="M22.55 2.7 Q22.55 1.8 21.7 1.8 L2.75 1.8 Q1.8 1.8 1.8 2.7 L1.8 15.65 Q1.8 16.55 2.75 16.55 L21.7 16.55 Q22.55 16.55 22.55 15.65 L22.55 2.7 M2.75 -0.1 L21.65 -0.1 Q24.5 -0.15 24.5 2.7 L24.5 15.65 Q24.5 18.45 21.65 18.5 L2.75 18.5 Q-0.1 18.45 -0.1 15.65 L-0.1 2.7 Q-0.1 -0.15 2.75 -0.1" fill="#948474" fill-rule="evenodd" stroke="none"/>
    <path d="M22.1 2.75 L22.1 16.1 Q22.1 16.55 21.7 16.6 L2.8 16.6 Q2.35 16.6 2.35 16.15 L2.35 2.75 2.45 2.35 2.75 2.3 21.7 2.3 Q22.05 2.35 22.1 2.75" fill="url(#gradient0)" fill-rule="evenodd" stroke="none"/>
  </g>
  <defs>
    <linearGradient gradientTransform="matrix(0.0, -0.0123, 0.009, 0.0, 11.8, 9.75)" gradientUnits="userSpaceOnUse" id="gradient0" spreadMethod="pad" x1="-819.2" x2="819.2">
      <stop offset="0.1411764705882353" stop-color="#000000" stop-opacity="0.5529412"/>
      <stop offset="0.5058823529411764" stop-color="#ffffff" stop-opacity="0.0"/>
      <stop offset="1.0" stop-color="#ffffff"/>
    </linearGradient>
  </defs>
</svg>
