<?xml version="1.0" encoding="UTF-8" standalone="no"?>
<svg xmlns:ffdec="https://www.free-decompiler.com/flash" xmlns:xlink="http://www.w3.org/1999/xlink" ffdec:objectType="shape" height="68.2px" width="51.5px" xmlns="http://www.w3.org/2000/svg">
  <g transform="matrix(1.0, 0.0, 0.0, 1.0, 25.7, 34.05)">
    <path d="M6.7 -31.95 L6.05 -32.15 4.15 -32.2 1.6 -31.75 Q-2.15 -30.9 -5.75 -28.85 -8.1 -27.6 -10.05 -26.05 L-12.9 -23.4 -10.05 -27.05 -8.0 -29.25 -7.35 -29.9 -4.85 -31.85 -2.15 -33.3 Q-0.7 -34.0 0.85 -33.95 L2.65 -33.7 3.2 -33.55 4.15 -33.25 Q5.5 -32.75 6.7 -31.95" fill="url(#gradient0)" fill-rule="evenodd" stroke="none"/>
    <path d="M-12.9 -23.4 L-10.05 -26.05 Q-8.1 -27.6 -5.75 -28.85 -2.15 -30.9 1.6 -31.75 L4.15 -32.2 6.05 -32.15 6.7 -31.95 8.4 -30.6 9.75 -29.3 9.9 -29.15 10.0 -28.55 9.75 -28.3 7.6 -26.7 Q4.9 -25.05 4.45 -24.05 2.5 -20.5 4.85 -14.55 L6.95 -9.3 Q8.25 -6.05 8.7 -3.7 14.75 14.8 -3.7 20.1 -9.45 22.45 -14.1 16.15 -18.1 10.8 -19.45 2.1 -20.6 -4.2 -20.2 -8.5 L-19.95 -10.2 -19.35 -11.75 Q-17.25 -16.9 -14.15 -21.6 L-12.9 -23.4 M-11.2 10.55 Q-11.8 11.4 -10.9 13.8 -10.05 16.35 -8.85 15.65 -8.15 15.2 -8.25 14.05 -8.35 13.0 -8.95 11.85 -9.55 10.8 -10.15 10.4 -10.85 9.9 -11.2 10.55" fill="url(#gradient1)" fill-rule="evenodd" stroke="none"/>
    <path d="M-19.95 -10.2 L-20.2 -8.5 Q-20.6 -4.2 -19.45 2.1 -18.1 10.8 -14.1 16.15 -9.45 22.45 -3.7 20.1 14.75 14.8 8.7 -3.7 8.25 -6.05 6.95 -9.3 L4.85 -14.55 Q2.5 -20.5 4.45 -24.05 4.9 -25.05 7.6 -26.7 L9.75 -28.3 10.0 -28.55 9.9 -29.15 Q13.0 -26.0 15.45 -22.2 L16.9 -19.95 20.75 -12.4 23.35 -5.6 23.65 -4.7 23.65 -4.6 23.65 -3.6 Q23.65 0.45 23.05 4.55 21.5 14.2 16.9 19.95 L15.95 21.05 Q-0.6 38.9 -13.75 25.1 -18.55 19.9 -20.85 11.5 -22.25 6.15 -22.35 0.65 L-22.4 -0.25 -22.35 -0.4 -22.15 -1.7 Q-21.55 -5.75 -20.2 -9.55 L-19.95 -10.2 M14.75 -19.4 Q13.1 -22.85 11.2 -24.2 9.05 -25.7 7.4 -24.0 6.25 -22.95 6.3 -19.7 6.15 -16.5 7.1 -12.95 9.65 -3.15 15.0 -6.95 16.85 -8.45 16.65 -12.45 16.35 -15.95 14.75 -19.4" fill="url(#gradient2)" fill-rule="evenodd" stroke="none"/>
    <path d="M10.4 -21.4 Q11.8 -20.45 13.1 -18.1 14.4 -15.6 14.7 -13.3 14.9 -10.6 13.35 -9.6 10.6 -8.0 8.6 -13.8 6.75 -19.1 8.15 -21.05 8.9 -22.45 10.4 -21.4" fill="#ffffff" fill-rule="evenodd" stroke="none"/>
    <path d="M14.75 -19.4 Q16.35 -15.95 16.65 -12.45 16.85 -8.45 15.0 -6.95 9.65 -3.15 7.1 -12.95 6.15 -16.5 6.3 -19.7 6.25 -22.95 7.4 -24.0 9.05 -25.7 11.2 -24.2 13.1 -22.85 14.75 -19.4 M10.4 -21.4 Q8.9 -22.45 8.15 -21.05 6.75 -19.1 8.6 -13.8 10.6 -8.0 13.35 -9.6 14.9 -10.6 14.7 -13.3 14.4 -15.6 13.1 -18.1 11.8 -20.45 10.4 -21.4" fill="url(#gradient3)" fill-rule="evenodd" stroke="none"/>
    <path d="M23.65 -4.6 L24.55 -1.3 Q25.95 4.3 25.65 10.0 25.35 14.5 23.95 18.7 L23.55 19.75 23.35 20.3 21.75 23.5 19.45 26.6 17.55 28.5 16.9 29.1 Q14.3 31.3 11.2 32.5 L7.55 33.5 Q1.75 34.55 -3.9 33.55 -9.6 32.7 -14.2 29.1 -18.8 25.55 -20.75 20.05 -22.7 14.65 -22.85 8.85 -23.0 4.3 -22.4 -0.25 L-22.35 0.65 Q-22.25 6.15 -20.85 11.5 -18.55 19.9 -13.75 25.1 -0.6 38.9 15.95 21.05 L16.9 19.95 Q21.5 14.2 23.05 4.55 23.65 0.45 23.65 -3.6 L23.65 -4.6" fill="url(#gradient4)" fill-rule="evenodd" stroke="none"/>
    <path d="M-11.2 10.55 Q-10.85 9.9 -10.15 10.4 -9.55 10.8 -8.95 11.85 -8.35 13.0 -8.25 14.05 -8.15 15.2 -8.85 15.65 -10.05 16.35 -10.9 13.8 -11.8 11.4 -11.2 10.55" fill="#fbfab7" fill-rule="evenodd" stroke="none"/>
    <path d="M6.7 -31.95 Q5.5 -32.75 4.15 -33.25 L3.2 -33.55 2.65 -33.7 0.85 -33.95 Q-0.7 -34.0 -2.15 -33.3 L-4.85 -31.85 -7.35 -29.9 -8.0 -29.25 -10.05 -27.05 -12.9 -23.4 -14.15 -21.6 Q-17.25 -16.9 -19.35 -11.75 L-19.95 -10.2 -20.2 -9.55 Q-21.55 -5.75 -22.15 -1.7 L-22.35 -0.4 -22.4 -0.25 Q-23.0 4.3 -22.85 8.85 -22.7 14.65 -20.75 20.05 -18.8 25.55 -14.2 29.1 -9.6 32.7 -3.9 33.55 1.75 34.55 7.55 33.5 L11.2 32.5 Q14.3 31.3 16.9 29.1 L17.55 28.5 19.45 26.6 21.75 23.5 23.35 20.3 23.55 19.75 23.95 18.7 Q25.35 14.5 25.65 10.0 25.95 4.3 24.55 -1.3 L23.65 -4.6 23.65 -4.7 23.35 -5.6 20.75 -12.4 16.9 -19.95 15.45 -22.2 Q13.0 -26.0 9.9 -29.15 L9.75 -29.3 8.4 -30.6 6.7 -31.95 Z" ffdec:has-small-stroke="true" ffdec:original-stroke-width="0.25" fill="none" stroke="#c4801a" stroke-linecap="butt" stroke-linejoin="miter-clip" stroke-miterlimit="3.0" stroke-opacity="0.7529412" stroke-width="1.0"/>
    <path d="M9.9 20.55 Q8.9 26.1 3.05 30.0 -2.85 33.9 -10.15 33.9 -17.5 33.9 -22.0 30.0 -26.5 26.1 -25.55 20.55 -24.6 15.05 -18.7 11.15 -12.85 7.2 -5.5 7.2 1.85 7.2 6.4 11.15 10.85 15.05 9.9 20.55" fill="url(#gradient5)" fill-rule="evenodd" stroke="none"/>
  </g>
  <defs>
    <linearGradient gradientTransform="matrix(0.0119, 0.0, 0.0, 0.0064, -3.15, -28.7)" gradientUnits="userSpaceOnUse" id="gradient0" spreadMethod="pad" x1="-819.2" x2="819.2">
      <stop offset="0.0" stop-color="#f0c586"/>
      <stop offset="1.0" stop-color="#fae9d1"/>
    </linearGradient>
    <linearGradient gradientTransform="matrix(0.0035, -0.0217, 0.0296, 0.0, -4.6, -5.1)" gradientUnits="userSpaceOnUse" id="gradient1" spreadMethod="pad" x1="-819.2" x2="819.2">
      <stop offset="0.0" stop-color="#f0c586"/>
      <stop offset="1.0" stop-color="#fae9d1"/>
    </linearGradient>
    <linearGradient gradientTransform="matrix(0.014, -0.0243, 0.0318, 0.0184, 10.25, -1.1)" gradientUnits="userSpaceOnUse" id="gradient2" spreadMethod="pad" x1="-819.2" x2="819.2">
      <stop offset="0.0" stop-color="#f0c586"/>
      <stop offset="1.0" stop-color="#f8e6cb"/>
    </linearGradient>
    <linearGradient gradientTransform="matrix(-0.0018, -0.0032, 0.01, -0.0058, 11.15, -15.55)" gradientUnits="userSpaceOnUse" id="gradient3" spreadMethod="pad" x1="-819.2" x2="819.2">
      <stop offset="0.0" stop-color="#f8e6cb"/>
      <stop offset="1.0" stop-color="#f8e6cb"/>
    </linearGradient>
    <linearGradient gradientTransform="matrix(-0.0045, -0.017, 0.0228, -0.0061, 7.2, 25.2)" gradientUnits="userSpaceOnUse" id="gradient4" spreadMethod="pad" x1="-819.2" x2="819.2">
      <stop offset="0.0" stop-color="#f1cb93"/>
      <stop offset="1.0" stop-color="#f9e8cf"/>
    </linearGradient>
    <radialGradient cx="0" cy="0" gradientTransform="matrix(0.0175, -0.0116, 0.0134, 0.0116, -7.9, 20.55)" gradientUnits="userSpaceOnUse" id="gradient5" r="819.2" spreadMethod="pad">
      <stop offset="0.0" stop-color="#ffffff" stop-opacity="0.49019608"/>
      <stop offset="1.0" stop-color="#ffffff" stop-opacity="0.0"/>
    </radialGradient>
  </defs>
</svg>
