<?xml version="1.0" encoding="UTF-8" standalone="no"?>
<svg xmlns:ffdec="https://www.free-decompiler.com/flash" xmlns:xlink="http://www.w3.org/1999/xlink" ffdec:objectType="shape" height="115.8px" width="82.7px" xmlns="http://www.w3.org/2000/svg">
  <g transform="matrix(1.0, 0.0, 0.0, 1.0, 51.85, 0.0)">
    <path d="M1.45 5.7 Q8.3 12.0 13.45 20.0 18.65 27.95 22.45 36.7 26.5 45.9 28.95 55.6 31.35 65.15 30.75 74.85 30.25 83.45 27.2 91.45 23.95 100.05 17.0 106.35 9.8 113.05 0.0 114.85 -9.85 116.65 -19.55 114.95 -29.25 113.45 -37.05 107.35 -44.9 101.3 -48.25 91.95 -51.5 82.8 -51.8 72.9 -52.1 63.85 -50.65 54.9 -49.25 46.0 -45.85 37.8 -42.2 29.0 -37.0 21.05 -31.9 13.25 -25.45 6.85 -21.4 3.25 -16.55 1.1 -12.65 -0.7 -8.4 0.4 -2.8 1.8 1.45 5.7" fill="url(#gradient0)" fill-rule="evenodd" stroke="none"/>
  </g>
  <defs>
    <radialGradient cx="0" cy="0" gradientTransform="matrix(0.0579, 0.0, 0.0, 0.0579, -2.25, 53.55)" gradientUnits="userSpaceOnUse" id="gradient0" r="819.2" spreadMethod="pad">
      <stop offset="0.0" stop-color="#f8e6cb"/>
      <stop offset="0.5725490196078431" stop-color="#ab8143"/>
      <stop offset="1.0" stop-color="#956215"/>
    </radialGradient>
  </defs>
</svg>
