<?xml version="1.0" encoding="UTF-8" standalone="no"?>
<svg xmlns:ffdec="https://www.free-decompiler.com/flash" xmlns:xlink="http://www.w3.org/1999/xlink" ffdec:objectType="shape" height="126.5px" width="92.85px" xmlns="http://www.w3.org/2000/svg">
  <g transform="matrix(1.0, 0.0, 0.0, 1.0, 47.25, 58.95)">
    <path d="M3.8 -58.6 Q17.2 -55.95 31.25 -35.55 45.25 -15.2 45.6 11.95 45.95 37.0 32.45 52.35 L30.15 54.85 Q17.5 67.45 2.1 67.55 L-5.7 66.8 Q-25.8 63.0 -38.4 46.95 -51.05 30.9 -45.6 2.75 L-44.3 -3.4 Q-38.5 -27.4 -24.9 -43.35 L-18.7 -49.85 Q-6.85 -60.75 3.8 -58.6" fill="url(#gradient0)" fill-rule="evenodd" stroke="none"/>
    <path d="M22.5 -35.2 Q26.55 -29.45 27.7 -23.9 28.75 -18.35 26.3 -16.3 23.8 -14.3 19.25 -16.9 14.65 -19.5 10.6 -25.25 6.55 -31.0 5.5 -36.55 4.35 -42.05 6.8 -44.1 9.3 -46.15 13.95 -43.55 18.5 -40.95 22.5 -35.2" fill="#ffffff" fill-opacity="0.49803922" fill-rule="evenodd" stroke="none"/>
    <path d="M20.95 -34.75 Q23.4 -31.25 24.1 -27.85 24.75 -24.5 23.25 -23.25 21.75 -22.0 19.0 -23.6 16.15 -25.2 13.7 -28.7 11.25 -32.2 10.6 -35.55 9.9 -38.9 11.4 -40.15 12.9 -41.4 15.75 -39.85 18.5 -38.25 20.95 -34.75" fill="#ffffff" fill-opacity="0.49803922" fill-rule="evenodd" stroke="none"/>
    <path d="M26.75 -11.4 Q32.25 -12.0 34.5 -6.5 36.7 -1.1 36.6 20.0 36.5 41.05 19.55 49.75 31.4 35.1 24.45 4.2 22.0 -9.45 26.75 -11.4" fill="#ffffff" fill-opacity="0.49803922" fill-rule="evenodd" stroke="none"/>
  </g>
  <defs>
    <radialGradient cx="0" cy="0" gradientTransform="matrix(0.111, 0.0, 0.0, 0.111, 10.0, 31.15)" gradientUnits="userSpaceOnUse" id="gradient0" r="819.2" spreadMethod="pad">
      <stop offset="0.0" stop-color="#ee0000" stop-opacity="0.11372549"/>
      <stop offset="1.0" stop-color="#d39c00" stop-opacity="0.101960786"/>
    </radialGradient>
  </defs>
</svg>
