<?xml version="1.0" encoding="UTF-8" standalone="no"?>
<svg xmlns:ffdec="https://www.free-decompiler.com/flash" xmlns:xlink="http://www.w3.org/1999/xlink" ffdec:objectType="shape" height="43.15px" width="35.95px" xmlns="http://www.w3.org/2000/svg">
  <g transform="matrix(1.0, 0.0, 0.0, 1.0, 18.0, 21.6)">
    <path d="M2.15 -21.3 L2.65 -21.1 2.3 -20.8 1.9 -20.8 3.15 -20.2 2.2 -19.7 3.15 -20.2 1.9 -20.8 2.3 -20.8 2.65 -21.1 2.15 -21.3 4.1 -20.45 5.55 -19.3 6.6 -18.0 6.75 -17.75 8.75 -14.7 Q10.75 -10.9 11.65 -6.2 10.75 -10.9 8.75 -14.7 L6.75 -17.75 6.6 -18.0 5.55 -19.3 4.1 -20.45 2.15 -21.3 1.9 -21.4 2.15 -21.3 M-11.85 -6.7 Q-12.65 -2.65 -12.65 2.05 L-12.65 2.1 -12.65 3.6 -12.45 7.25 -11.75 10.35 Q-11.2 12.1 -10.15 13.55 L-8.9 15.05 Q-5.3 18.6 -0.25 18.6 4.75 18.6 8.35 15.05 L10.2 12.85 Q11.05 11.65 11.5 10.35 L12.25 7.1 12.35 3.8 12.4 2.8 12.4 2.05 Q12.4 -2.4 11.65 -6.2 10.9 -4.4 10.45 -2.45 L9.9 -2.6 Q8.75 -5.6 7.35 -7.6 L7.4 -5.75 Q7.55 -1.9 7.15 1.7 L5.45 1.25 4.9 -0.45 4.6 -0.45 4.8 -1.1 4.85 -2.55 4.8 -4.4 4.6 -1.65 1.8 -10.25 1.2 0.35 1.15 0.25 0.9 -1.2 0.85 -2.3 0.6 -1.5 -0.85 -2.95 -1.85 -7.85 -2.05 -7.85 -2.4 -5.35 -2.75 -6.1 Q-3.85 -8.85 -4.0 -11.8 L-4.15 -12.35 -4.05 -12.4 -3.9 -17.35 -3.55 -19.0 -3.55 -19.05 -2.05 -19.55 -2.0 -15.45 -3.15 -15.45 -1.95 -12.95 -4.05 -12.4 -1.95 -12.95 -3.15 -15.45 -2.0 -15.45 -2.05 -19.55 -3.55 -19.05 -2.45 -21.25 Q-3.95 -20.8 -5.15 -19.7 L-5.25 -19.6 Q-7.3 -17.9 -9.0 -14.7 -10.95 -11.1 -11.85 -6.7 M0.8 -21.55 L-0.05 -21.6 -0.15 -21.6 -1.8 -21.4 -2.45 -21.25 -1.8 -21.4 -0.15 -21.6 -0.05 -21.6 0.8 -21.55 1.1 -21.5 1.2 -21.5 1.35 -21.5 1.2 -21.5 1.1 -21.5 0.8 -21.55 M1.65 -21.45 L1.4 -21.5 1.35 -21.5 1.4 -21.5 1.65 -21.45 1.9 -21.4 1.65 -21.45 M0.5 -19.75 L0.4 -19.8 0.4 -20.95 1.2 -21.5 0.4 -20.95 0.4 -19.8 0.5 -19.75 0.0 -19.7 -0.25 -18.65 Q0.4 -18.25 1.05 -18.0 L0.85 -17.8 1.95 -17.8 3.85 -17.85 4.45 -18.0 4.7 -18.45 4.45 -18.9 Q3.45 -19.45 2.35 -19.65 L2.2 -19.7 0.5 -19.75 M2.05 -15.4 L2.6 -16.85 1.95 -17.8 2.6 -16.85 2.05 -15.4 M3.35 -17.2 L3.4 -16.4 Q6.75 -13.15 8.75 -8.95 L9.8 -6.55 Q10.15 -10.3 8.6 -13.8 7.5 -16.35 5.2 -18.0 L4.7 -17.5 3.35 -17.2 M-2.05 -19.55 L-1.45 -19.75 -2.0 -19.35 -1.45 -19.75 -2.05 -19.55 M-1.45 -19.75 L0.4 -20.95 -1.45 -19.75" fill="#c01801" fill-rule="evenodd" stroke="none"/>
    <path d="M0.5 -19.75 L2.2 -19.7 2.35 -19.65 Q3.45 -19.45 4.45 -18.9 L4.7 -18.45 4.45 -18.0 3.85 -17.85 1.95 -17.8 1.05 -18.0 2.3 -19.35 1.55 -19.35 0.9 -19.35 0.5 -19.75 0.9 -19.35 1.55 -19.35 2.3 -19.35 1.05 -18.0 Q0.4 -18.25 -0.25 -18.65 L0.0 -19.7 0.5 -19.75 M1.55 -19.35 L2.2 -19.7 1.55 -19.35 M3.35 -17.2 L4.7 -17.5 5.2 -18.0 Q7.5 -16.35 8.6 -13.8 10.15 -10.3 9.8 -6.55 L8.75 -8.95 Q6.75 -13.15 3.4 -16.4 L3.35 -17.2" fill="#fe6a56" fill-rule="evenodd" stroke="none"/>
    <path d="M1.05 -18.0 L1.95 -17.8 0.85 -17.8 1.05 -18.0" fill="#721701" fill-rule="evenodd" stroke="none"/>
    <path d="M11.65 -6.2 Q12.4 -2.4 12.4 2.05 L12.4 2.8 12.35 3.8 12.25 7.1 11.5 10.35 Q11.05 11.65 10.2 12.85 L8.35 15.05 Q4.75 18.6 -0.25 18.6 -5.3 18.6 -8.9 15.05 L-10.15 13.55 Q-11.2 12.1 -11.75 10.35 L-12.45 7.25 -12.65 3.6 -12.65 2.1 -12.65 2.05 Q-12.65 -2.65 -11.85 -6.7 -11.3 -3.8 -9.95 -1.2 -8.7 -3.05 -7.7 -5.55 -7.35 -2.4 -5.85 1.0 -6.15 -2.2 -4.0 -5.3 -4.15 -1.95 -3.35 1.6 L-2.4 -5.35 -2.05 -7.85 -1.85 -7.85 -0.85 -2.95 -0.1 0.7 0.6 -1.5 0.85 -2.3 0.9 -1.2 1.15 0.25 1.2 0.35 1.8 -10.25 4.6 -1.65 4.8 -4.4 4.85 -2.55 4.8 -1.1 4.6 -0.45 4.9 -0.45 5.45 1.25 6.65 4.8 7.15 1.7 Q7.55 -1.9 7.4 -5.75 L7.35 -7.6 Q8.75 -5.6 9.9 -2.6 L10.45 -2.45 Q10.9 -4.4 11.65 -6.2" fill="#000000" fill-rule="evenodd" stroke="none"/>
    <path d="M-11.85 -6.7 Q-10.95 -11.1 -9.0 -14.7 -7.3 -17.9 -5.25 -19.6 L-5.15 -19.7 Q-3.95 -20.8 -2.45 -21.25 L-3.55 -19.05 -3.8 -19.05 -3.55 -19.0 -3.9 -17.35 -4.05 -12.4 -4.15 -12.35 -4.6 -12.25 -4.15 -12.35 -4.0 -11.8 Q-3.85 -8.85 -2.75 -6.1 L-2.4 -5.35 -3.35 1.6 Q-4.15 -1.95 -4.0 -5.3 -6.15 -2.2 -5.85 1.0 -7.35 -2.4 -7.7 -5.55 -8.7 -3.05 -9.95 -1.2 -11.3 -3.8 -11.85 -6.7 M0.6 -1.5 L-0.1 0.7 -0.85 -2.95 0.6 -1.5 M7.15 1.7 L6.65 4.8 5.45 1.25 7.15 1.7 M-6.95 -15.6 L-3.8 -19.05 -6.95 -15.6" fill="#8f1201" fill-rule="evenodd" stroke="none"/>
    <path d="M-3.55 -19.05 L-3.55 -19.0 -3.8 -19.05 -3.55 -19.05" fill="#4f0a00" fill-rule="evenodd" stroke="none"/>
    <path d="M1.35 -21.5 L1.4 -21.5 1.65 -21.45" ffdec:has-small-stroke="true" ffdec:original-stroke-width="0.05" fill="none" stroke="#420700" stroke-linecap="butt" stroke-linejoin="miter-clip" stroke-miterlimit="3.0" stroke-width="1.0"/>
    <path d="M2.2 -19.7 L3.15 -20.2 1.9 -20.8 2.3 -20.8 2.65 -21.1 2.15 -21.3 1.9 -21.4 M1.2 -21.5 L0.4 -20.95 0.4 -19.8 0.5 -19.75 0.9 -19.35 1.55 -19.35 2.3 -19.35 1.05 -18.0 0.85 -17.8 1.95 -17.8 2.6 -16.85 2.05 -15.4 M2.2 -19.7 L1.55 -19.35 M-3.55 -19.05 L-3.8 -19.05 -6.95 -15.6 M-4.05 -12.4 L-1.95 -12.95 -3.15 -15.45 -2.0 -15.45 -2.05 -19.55 -3.55 -19.05 M-2.0 -19.35 L-1.45 -19.75 -2.05 -19.55 M-4.15 -12.35 L-4.6 -12.25 M-4.05 -12.4 L-4.15 -12.35 M0.4 -20.95 L-1.45 -19.75" ffdec:has-small-stroke="true" ffdec:original-stroke-width="0.05" fill="none" stroke="#000000" stroke-linecap="butt" stroke-linejoin="miter-clip" stroke-miterlimit="3.0" stroke-width="1.0"/>
    <path d="M-5.25 -19.6 L-5.15 -19.7 Q-3.95 -20.8 -2.45 -21.25 L-1.8 -21.4 -0.15 -21.6 -0.05 -21.6 0.8 -21.55" ffdec:has-small-stroke="true" ffdec:original-stroke-width="0.05" fill="none" stroke="#ffe6df" stroke-linecap="butt" stroke-linejoin="miter-clip" stroke-miterlimit="3.0" stroke-width="1.0"/>
    <path d="M-2.05 18.15 L-2.3 19.4 -2.5 18.45 Q-5.7 20.45 -9.2 19.5 L-9.7 19.3 -9.9 19.05 -8.5 18.85 -9.5 18.65 Q-11.45 18.45 -13.15 17.45 -14.25 16.8 -15.15 15.7 L-16.35 13.9 Q-13.35 16.25 -9.55 17.5 -6.05 18.7 -2.6 18.25 L-2.05 18.15 M-1.85 18.1 L-1.3 17.95 -0.85 19.8 -1.85 18.1" fill="#651c01" fill-rule="evenodd" stroke="none"/>
    <path d="M-16.35 13.9 Q-10.25 17.6 -2.6 18.05 L-2.5 16.8 -1.6 17.45 -1.8 16.6 -0.6 17.7 -1.3 17.95 -1.85 18.1 -2.1 17.9 -2.05 18.15 -2.6 18.25 Q-6.05 18.7 -9.55 17.5 -13.35 16.25 -16.35 13.9" fill="#de3e01" fill-rule="evenodd" stroke="none"/>
    <path d="M-2.05 18.15 L-2.3 19.4 -2.5 18.45 Q-5.7 20.45 -9.2 19.5 L-9.7 19.3 -9.9 19.05 -8.5 18.85 -9.5 18.65 Q-11.45 18.45 -13.15 17.45 -14.25 16.8 -15.15 15.7 L-16.35 13.9 Q-10.25 17.6 -2.6 18.05 L-2.5 16.8 -1.6 17.45 -1.8 16.6 -0.6 17.7 -1.3 17.95 -1.85 18.1 -0.85 19.8 -1.3 17.95 M-2.05 18.15 L-2.1 17.9 -1.85 18.1 -2.05 18.15 -2.6 18.25 Q-6.05 18.7 -9.55 17.5 -13.35 16.25 -16.35 13.9" ffdec:has-small-stroke="true" ffdec:original-stroke-width="0.05" fill="none" stroke="#3c0c00" stroke-linecap="round" stroke-linejoin="miter-clip" stroke-miterlimit="3.0" stroke-width="1.0"/>
    <path d="M-0.6 17.7 L0.45 17.15" ffdec:has-small-stroke="true" ffdec:original-stroke-width="0.05" fill="none" stroke="#3c0c00" stroke-linecap="round" stroke-linejoin="miter-clip" stroke-miterlimit="3.0" stroke-width="1.0"/>
    <path d="M-3.5 16.25 L-4.25 16.0 Q-8.55 14.7 -11.95 11.35 -15.75 7.8 -18.0 3.35 -12.8 11.05 -4.15 15.8 L-3.3 14.45 -2.6 15.65 -2.35 14.55 -1.55 16.55 -2.5 16.4 -3.3 16.3 Q-3.3 15.95 -3.45 15.85 L-3.5 16.25" fill="#de3e01" fill-rule="evenodd" stroke="none"/>
    <path d="M-18.0 3.35 Q-15.75 7.8 -11.95 11.35 -8.55 14.7 -4.25 16.0 L-3.5 16.25 -4.5 17.6 -4.2 16.35 Q-9.05 16.9 -12.7 13.9 L-13.15 13.35 -13.25 12.9 -11.45 13.5 -12.5 12.7 Q-14.75 11.4 -16.15 9.3 -17.1 7.9 -17.55 6.1 L-18.0 3.35 M-3.3 16.3 L-2.5 16.4 -3.0 18.8 -3.3 16.3" fill="#651c01" fill-rule="evenodd" stroke="none"/>
    <path d="M-3.5 16.25 L-4.25 16.0 Q-8.55 14.7 -11.95 11.35 -15.75 7.8 -18.0 3.35 L-17.55 6.1 Q-17.1 7.9 -16.15 9.3 -14.75 11.4 -12.5 12.7 L-11.45 13.5 -13.25 12.9 -13.15 13.35 -12.7 13.9 Q-9.05 16.9 -4.2 16.35 L-4.5 17.6 -3.5 16.25 -3.45 15.85 Q-3.3 15.95 -3.3 16.3 L-2.5 16.4 -1.55 16.55 -2.35 14.55 -2.6 15.65 -3.3 14.45 -4.15 15.8 Q-12.8 11.05 -18.0 3.35 M-3.5 16.25 L-3.3 16.3 -3.0 18.8 -2.5 16.4" ffdec:has-small-stroke="true" ffdec:original-stroke-width="0.05" fill="none" stroke="#3c0c00" stroke-linecap="round" stroke-linejoin="miter-clip" stroke-miterlimit="3.0" stroke-width="1.0"/>
    <path d="M-1.55 16.55 L0.0 16.4" ffdec:has-small-stroke="true" ffdec:original-stroke-width="0.05" fill="none" stroke="#3c0c00" stroke-linecap="round" stroke-linejoin="miter-clip" stroke-miterlimit="3.0" stroke-width="1.0"/>
    <path d="M-13.15 -1.75 Q-12.05 4.2 -8.8 9.75 -5.95 14.8 -1.4 17.85 L-0.6 18.4 -2.25 19.6 -1.45 18.3 Q-7.35 17.25 -10.55 12.45 L-10.9 11.6 -10.9 11.1 -9.0 12.4 Q-8.9 12.25 -9.95 11.1 -12.1 8.8 -13.05 5.8 -13.6 3.9 -13.55 1.65 L-13.15 -1.75 M-0.35 18.5 L0.5 18.9 -0.9 21.55 -0.35 18.5" fill="#651c01" fill-rule="evenodd" stroke="none"/>
    <path d="M1.6 19.4 L0.5 18.9 -0.35 18.5 -0.45 17.95 -0.6 18.4 -1.4 17.85 Q-5.95 14.8 -8.8 9.75 -12.05 4.2 -13.15 -1.75 -9.7 9.1 -1.2 17.65 L0.25 16.35 0.65 18.0 1.3 16.85 1.6 19.4" fill="#de3e01" fill-rule="evenodd" stroke="none"/>
    <path d="M1.6 19.4 L3.45 19.8" ffdec:has-small-stroke="true" ffdec:original-stroke-width="0.05" fill="none" stroke="#3c0c00" stroke-linecap="round" stroke-linejoin="miter-clip" stroke-miterlimit="3.0" stroke-width="1.0"/>
    <path d="M0.5 18.9 L1.6 19.4 1.3 16.85 0.65 18.0 0.25 16.35 -1.2 17.65 Q-9.7 9.1 -13.15 -1.75 -12.05 4.2 -8.8 9.75 -5.95 14.8 -1.4 17.85 L-0.6 18.4 -0.45 17.95 -0.35 18.5 0.5 18.9 -0.9 21.55 -0.35 18.5 -0.6 18.4 -2.25 19.6 -1.45 18.3 Q-7.35 17.25 -10.55 12.45 L-10.9 11.6 -10.9 11.1 -9.0 12.4 Q-8.9 12.25 -9.95 11.1 -12.1 8.8 -13.05 5.8 -13.6 3.9 -13.55 1.65 L-13.15 -1.75" ffdec:has-small-stroke="true" ffdec:original-stroke-width="0.05" fill="none" stroke="#3c0c00" stroke-linecap="round" stroke-linejoin="miter-clip" stroke-miterlimit="3.0" stroke-width="1.0"/>
    <path d="M-15.6 5.55 Q-10.4 13.25 -1.75 18.0 L-0.9 16.65 -0.2 17.85 0.05 16.75 0.85 18.75 -0.1 18.6 -0.9 18.5 Q-0.9 18.15 -1.05 18.05 L-1.1 18.45 -1.85 18.2 Q-6.15 16.9 -9.55 13.55 -13.35 10.0 -15.6 5.55" fill="#de3e01" fill-rule="evenodd" stroke="none"/>
    <path d="M-0.1 18.6 L-0.6 21.0 -1.1 18.45 -2.1 19.8 -1.8 18.55 Q-6.65 19.1 -10.3 16.1 L-10.75 15.55 -10.85 15.1 -9.05 15.7 -10.1 14.9 Q-12.35 13.6 -13.75 11.5 -14.7 10.1 -15.15 8.3 L-15.6 5.55 Q-13.35 10.0 -9.55 13.55 -6.15 16.9 -1.85 18.2 L-1.1 18.45 -1.05 18.05 Q-0.9 18.15 -0.9 18.5 L-0.1 18.6" fill="#651c01" fill-rule="evenodd" stroke="none"/>
    <path d="M-15.6 5.55 Q-10.4 13.25 -1.75 18.0 L-0.9 16.65 -0.2 17.85 0.05 16.75 0.85 18.75 -0.1 18.6 -0.6 21.0 -1.1 18.45 -2.1 19.8 -1.8 18.55 Q-6.65 19.1 -10.3 16.1 L-10.75 15.55 -10.85 15.1 -9.05 15.7 -10.1 14.9 Q-12.35 13.6 -13.75 11.5 -14.7 10.1 -15.15 8.3 L-15.6 5.55 Q-13.35 10.0 -9.55 13.55 -6.15 16.9 -1.85 18.2 L-1.1 18.45 -1.05 18.05 Q-0.9 18.15 -0.9 18.5 L-0.1 18.6" ffdec:has-small-stroke="true" ffdec:original-stroke-width="0.05" fill="none" stroke="#3c0c00" stroke-linecap="round" stroke-linejoin="miter-clip" stroke-miterlimit="3.0" stroke-width="1.0"/>
    <path d="M0.85 18.75 L2.4 18.6" ffdec:has-small-stroke="true" ffdec:original-stroke-width="0.05" fill="none" stroke="#3c0c00" stroke-linecap="round" stroke-linejoin="miter-clip" stroke-miterlimit="3.0" stroke-width="1.0"/>
    <path d="M0.55 17.7 L1.75 16.6 1.55 17.45 2.45 16.8 2.55 18.05 Q10.2 17.6 16.3 13.9 13.3 16.25 9.5 17.5 6.0 18.7 2.55 18.25 L2.0 18.15 2.05 17.9 Q1.95 17.9 1.8 18.1 L1.25 17.95 0.55 17.7" fill="#de3e01" fill-rule="evenodd" stroke="none"/>
    <path d="M1.25 17.95 L1.8 18.1 Q1.95 17.9 2.05 17.9 L2.0 18.15 2.55 18.25 Q6.0 18.7 9.5 17.5 13.3 16.25 16.3 13.9 L15.1 15.7 Q14.2 16.8 13.1 17.45 11.4 18.45 9.45 18.65 L8.45 18.85 9.85 19.05 9.65 19.3 9.15 19.5 Q5.65 20.45 2.45 18.45 L2.25 19.4 1.8 18.1 0.8 19.8 1.25 17.95" fill="#651c01" fill-rule="evenodd" stroke="none"/>
    <path d="M16.3 13.9 Q10.2 17.6 2.55 18.05 L2.45 16.8 1.55 17.45 1.75 16.6 0.55 17.7 1.25 17.95 1.8 18.1 Q1.95 17.9 2.05 17.9 L2.0 18.15 2.55 18.25 Q6.0 18.7 9.5 17.5 13.3 16.25 16.3 13.9 L15.1 15.7 Q14.2 16.8 13.1 17.45 11.4 18.45 9.45 18.65 L8.45 18.85 9.85 19.05 9.65 19.3 9.15 19.5 Q5.65 20.45 2.45 18.45 L2.25 19.4 1.8 18.1 0.8 19.8 1.25 17.95" ffdec:has-small-stroke="true" ffdec:original-stroke-width="0.05" fill="none" stroke="#3c0c00" stroke-linecap="round" stroke-linejoin="miter-clip" stroke-miterlimit="3.0" stroke-width="1.0"/>
    <path d="M0.55 17.7 L-0.5 17.15" ffdec:has-small-stroke="true" ffdec:original-stroke-width="0.05" fill="none" stroke="#3c0c00" stroke-linecap="round" stroke-linejoin="miter-clip" stroke-miterlimit="3.0" stroke-width="1.0"/>
    <path d="M3.45 16.25 L4.2 16.0 Q8.5 14.7 11.9 11.35 15.7 7.8 17.95 3.35 L17.5 6.1 Q17.05 7.9 16.1 9.3 14.7 11.4 12.45 12.7 11.35 13.4 11.4 13.5 L13.2 12.9 13.1 13.35 12.65 13.9 Q9.0 16.9 4.15 16.35 L4.45 17.6 3.45 16.25 M2.45 16.4 L3.25 16.3 2.95 18.8 2.45 16.4" fill="#651c01" fill-rule="evenodd" stroke="none"/>
    <path d="M17.95 3.35 Q15.7 7.8 11.9 11.35 8.5 14.7 4.2 16.0 L3.45 16.25 4.45 17.6 4.15 16.35 Q9.0 16.9 12.65 13.9 L13.1 13.35 13.2 12.9 11.4 13.5 Q11.35 13.4 12.45 12.7 14.7 11.4 16.1 9.3 17.05 7.9 17.5 6.1 L17.95 3.35 Q12.75 11.05 4.1 15.8 L3.25 14.45 2.55 15.65 2.3 14.55 1.5 16.55 2.45 16.4 3.25 16.3 2.95 18.8 2.45 16.4 M3.45 16.25 L3.4 15.85 Q3.25 15.95 3.45 16.25" ffdec:has-small-stroke="true" ffdec:original-stroke-width="0.05" fill="none" stroke="#3c0c00" stroke-linecap="round" stroke-linejoin="miter-clip" stroke-miterlimit="3.0" stroke-width="1.0"/>
    <path d="M1.5 16.55 L-0.05 16.4" ffdec:has-small-stroke="true" ffdec:original-stroke-width="0.05" fill="none" stroke="#3c0c00" stroke-linecap="round" stroke-linejoin="miter-clip" stroke-miterlimit="3.0" stroke-width="1.0"/>
    <path d="M13.15 -1.75 L13.55 1.65 Q13.6 3.9 13.05 5.8 12.1 8.8 9.95 11.1 8.9 12.25 9.0 12.4 L10.9 11.1 10.9 11.6 10.55 12.45 Q7.35 17.25 1.45 18.3 L2.25 19.6 0.6 18.4 1.4 17.85 Q5.95 14.8 8.8 9.75 12.05 4.2 13.15 -1.75 M0.35 18.5 L0.9 21.55 -0.5 18.9 0.35 18.5" fill="#651c01" fill-rule="evenodd" stroke="none"/>
    <path d="M13.15 -1.75 Q12.05 4.2 8.8 9.75 5.95 14.8 1.4 17.85 L0.6 18.4 0.45 17.95 0.35 18.5 -0.5 18.9 -1.6 19.4 -1.3 16.85 -0.65 18.0 -0.25 16.35 1.2 17.65 Q9.7 9.1 13.15 -1.75" fill="#de3e01" fill-rule="evenodd" stroke="none"/>
    <path d="M0.6 18.4 L2.25 19.6 1.45 18.3 Q7.35 17.25 10.55 12.45 L10.9 11.6 10.9 11.1 9.0 12.4 Q8.9 12.25 9.95 11.1 12.1 8.8 13.05 5.8 13.6 3.9 13.55 1.65 L13.15 -1.75 Q12.05 4.2 8.8 9.75 5.95 14.8 1.4 17.85 L0.6 18.4 0.45 17.95 0.35 18.5 0.6 18.4 M-0.5 18.9 L0.9 21.55 0.35 18.5 -0.5 18.9 -1.6 19.4 -1.3 16.85 -0.65 18.0 -0.25 16.35 1.2 17.65 Q9.7 9.1 13.15 -1.75" ffdec:has-small-stroke="true" ffdec:original-stroke-width="0.05" fill="none" stroke="#3c0c00" stroke-linecap="round" stroke-linejoin="miter-clip" stroke-miterlimit="3.0" stroke-width="1.0"/>
    <path d="M-1.6 19.4 L-3.45 19.8" ffdec:has-small-stroke="true" ffdec:original-stroke-width="0.05" fill="none" stroke="#3c0c00" stroke-linecap="round" stroke-linejoin="miter-clip" stroke-miterlimit="3.0" stroke-width="1.0"/>
    <path d="M1.1 18.45 L1.85 18.2 Q6.15 16.9 9.55 13.55 13.35 10.0 15.6 5.55 L15.15 8.3 Q14.7 10.1 13.75 11.5 12.35 13.6 10.1 14.9 L9.05 15.7 10.85 15.1 10.75 15.55 10.3 16.1 Q6.65 19.1 1.8 18.55 L2.1 19.8 1.1 18.45 M0.1 18.6 L0.9 18.5 0.6 21.0 0.1 18.6" fill="#651c01" fill-rule="evenodd" stroke="none"/>
    <path d="M15.6 5.55 Q13.35 10.0 9.55 13.55 6.15 16.9 1.85 18.2 L1.1 18.45 2.1 19.8 1.8 18.55 Q6.65 19.1 10.3 16.1 L10.75 15.55 10.85 15.1 9.05 15.7 10.1 14.9 Q12.35 13.6 13.75 11.5 14.7 10.1 15.15 8.3 L15.6 5.55 Q10.4 13.25 1.75 18.0 L0.9 16.65 0.2 17.85 -0.05 16.75 -0.85 18.75 0.1 18.6 0.9 18.5 0.6 21.0 0.1 18.6 M1.1 18.45 L1.05 18.05 Q0.9 18.15 1.1 18.45" ffdec:has-small-stroke="true" ffdec:original-stroke-width="0.05" fill="none" stroke="#3c0c00" stroke-linecap="round" stroke-linejoin="miter-clip" stroke-miterlimit="3.0" stroke-width="1.0"/>
    <path d="M-0.85 18.75 L-2.4 18.6" ffdec:has-small-stroke="true" ffdec:original-stroke-width="0.05" fill="none" stroke="#3c0c00" stroke-linecap="round" stroke-linejoin="miter-clip" stroke-miterlimit="3.0" stroke-width="1.0"/>
  </g>
</svg>
