<?xml version="1.0" encoding="UTF-8" standalone="no"?>
<svg xmlns:ffdec="https://www.free-decompiler.com/flash" xmlns:xlink="http://www.w3.org/1999/xlink" ffdec:objectType="shape" height="18.45px" width="21.45px" xmlns="http://www.w3.org/2000/svg">
  <g transform="matrix(1.0, 0.0, 0.0, 1.0, 0.0, 0.05)">
    <path d="M4.15 3.05 L5.35 1.45 5.0 2.9 Q10.8 2.25 15.1 5.85 L15.65 6.5 15.8 7.0 13.65 6.3 14.9 7.25 Q17.55 8.8 19.25 11.3 20.35 12.95 20.9 15.1 L21.45 18.4 Q18.75 13.1 14.25 8.85 10.15 4.9 5.05 3.3 L4.15 3.05 M3.9 3.0 L3.0 2.85 3.55 0.0 3.9 3.0" fill="#651c01" fill-rule="evenodd" stroke="none"/>
    <path d="M21.45 18.4 Q15.25 9.2 4.95 3.55 L3.9 5.2 3.1 3.75 2.8 5.05 1.85 2.7 3.0 2.85 3.9 3.0 4.1 3.5 4.15 3.05 5.05 3.3 Q10.15 4.9 14.25 8.85 18.75 13.1 21.45 18.4" fill="#de3e01" fill-rule="evenodd" stroke="none"/>
    <path d="M4.15 3.05 L5.35 1.45 5.0 2.9 Q10.8 2.25 15.1 5.85 L15.65 6.5 15.8 7.0 13.65 6.3 14.9 7.25 Q17.55 8.8 19.25 11.3 20.35 12.95 20.9 15.1 L21.45 18.4 Q15.25 9.2 4.95 3.55 L3.9 5.2 3.1 3.75 2.8 5.05 1.85 2.7 3.0 2.85 3.9 3.0 3.55 0.0 3.0 2.85 M4.15 3.05 L3.9 3.0 4.1 3.5 4.15 3.05 5.05 3.3 Q10.15 4.9 14.25 8.85 18.75 13.1 21.45 18.4" ffdec:has-small-stroke="true" ffdec:original-stroke-width="0.05" fill="none" stroke="#3c0c00" stroke-linecap="round" stroke-linejoin="miter-clip" stroke-miterlimit="3.0" stroke-width="1.0"/>
    <path d="M1.85 2.7 L0.0 2.85" ffdec:has-small-stroke="true" ffdec:original-stroke-width="0.05" fill="none" stroke="#3c0c00" stroke-linecap="round" stroke-linejoin="miter-clip" stroke-miterlimit="3.0" stroke-width="1.0"/>
  </g>
</svg>
