<?xml version="1.0" encoding="UTF-8" standalone="no"?>
<svg xmlns:ffdec="https://www.free-decompiler.com/flash" xmlns:xlink="http://www.w3.org/1999/xlink" ffdec:objectType="shape" height="45.0px" width="37.45px" xmlns="http://www.w3.org/2000/svg">
  <g transform="matrix(1.0, 0.0, 0.0, 1.0, 18.7, 22.1)">
    <path d="M1.4 -21.5 L1.65 -21.45 M2.15 -21.3 L4.1 -20.45 5.55 -19.3 6.6 -18.0 6.75 -17.75 8.75 -14.7 Q10.75 -10.9 11.65 -6.2 12.25 -3.15 12.35 0.25 L13.15 -1.95 13.5 1.45 Q13.65 3.7 13.05 5.7 L12.1 7.9 11.55 10.2 Q13.8 7.85 15.6 5.15 M12.8 12.35 Q14.8 11.1 16.15 9.15 17.05 7.75 17.5 5.95 L18.0 3.2 15.35 6.65 M2.95 18.55 Q5.95 20.15 9.15 19.3 L9.65 19.05 9.85 18.8 8.45 18.65 9.4 18.4 Q11.4 18.25 13.1 17.25 14.2 16.55 15.1 15.45 L16.35 13.7 Q12.65 15.85 8.45 16.95 M10.75 15.05 L12.65 13.75 13.1 13.2 13.25 12.8 11.9 13.2 M-2.45 -21.25 L-1.8 -21.4 -0.15 -21.6 -0.05 -21.6 0.8 -21.55" fill="none" stroke="#de3800" stroke-linecap="butt" stroke-linejoin="miter-clip" stroke-miterlimit="3.0" stroke-width="1.0"/>
    <path d="M1.55 19.25 L2.05 19.35 M0.0 19.7 L0.85 21.4 0.65 20.0 0.75 18.95 M-12.6 -0.35 Q-12.45 -3.7 -11.85 -6.7 -10.95 -11.1 -9.0 -14.7 -7.3 -17.9 -5.25 -19.6 L-5.15 -19.7 Q-3.95 -20.8 -2.45 -21.25 M-12.7 12.4 Q-14.85 11.15 -16.2 9.15 -17.15 7.75 -17.55 5.95 L-18.0 3.2 -15.35 6.7 M-15.6 5.15 Q-13.95 7.6 -11.95 9.8 L-12.45 7.3 -13.05 5.7 Q-13.65 3.7 -13.55 1.45 L-13.15 -1.95 M-3.0 18.55 Q-6.0 20.15 -9.2 19.3 L-9.7 19.05 -9.95 18.8 -8.45 18.65 -9.45 18.4 Q-11.45 18.25 -13.1 17.25 L-15.15 15.45 -16.35 13.7 Q-12.65 15.9 -8.4 17.0 L-10.25 15.7 -10.7 15.15 -10.75 15.1 -12.7 13.75 -13.15 13.2 -13.3 12.8 -11.85 13.25 M-2.1 18.45 L-2.25 19.2 -2.45 18.4" fill="none" stroke="#000000" stroke-linecap="butt" stroke-linejoin="miter-clip" stroke-miterlimit="3.0" stroke-width="1.0"/>
  </g>
</svg>
