<?xml version="1.0" encoding="UTF-8" standalone="no"?>
<svg xmlns:ffdec="https://www.free-decompiler.com/flash" xmlns:xlink="http://www.w3.org/1999/xlink" ffdec:objectType="shape" height="18.0px" width="18.0px" xmlns="http://www.w3.org/2000/svg">
  <g transform="matrix(1.0, 0.0, 0.0, 1.0, 0.0, 0.0)">
    <path d="M14.65 3.15 L14.4 2.9 14.95 2.25 15.35 2.6 14.65 3.15" fill="#880033" fill-rule="evenodd" stroke="none"/>
    <path d="M18.0 8.5 L18.0 9.0 17.75 8.85 18.0 8.5" fill="#51001d" fill-rule="evenodd" stroke="none"/>
    <path d="M14.4 2.9 L14.65 3.15 Q15.5 4.1 15.5 5.45 15.5 6.95 14.4 8.0 13.35 9.05 11.85 9.05 10.35 9.05 9.25 8.0 8.2 6.95 8.2 5.45 8.2 3.95 9.25 2.9 10.35 1.85 11.85 1.85 13.35 1.85 14.4 2.9" fill="#ffcc00" fill-rule="evenodd" stroke="none"/>
    <path d="M14.65 3.15 L15.35 2.6 Q17.8 5.05 18.0 8.5 L17.75 8.85 15.1 12.4 10.45 13.75 6.0 12.45 3.35 6.55 5.45 0.7 Q7.1 0.0 9.0 0.0 12.45 0.0 14.95 2.25 L14.4 2.9 Q13.35 1.85 11.85 1.85 10.35 1.85 9.25 2.9 8.2 3.95 8.2 5.45 8.2 6.95 9.25 8.0 10.35 9.05 11.85 9.05 13.35 9.05 14.4 8.0 15.5 6.95 15.5 5.45 15.5 4.1 14.65 3.15" fill="#d56a00" fill-rule="evenodd" stroke="none"/>
    <path d="M17.75 8.85 L18.0 9.0 Q18.0 12.75 15.35 15.35 L15.3 15.4 Q12.7 18.0 9.0 18.0 5.3 18.0 2.65 15.4 L2.6 15.35 Q0.0 12.75 0.0 9.0 0.0 5.25 2.6 2.6 3.9 1.35 5.45 0.7 L3.35 6.55 6.0 12.45 10.45 13.75 15.1 12.4 17.75 8.85" fill="#bf3a09" fill-rule="evenodd" stroke="none"/>
  </g>
</svg>
