<?xml version="1.0" encoding="UTF-8" standalone="no"?>
<svg xmlns:ffdec="https://www.free-decompiler.com/flash" xmlns:xlink="http://www.w3.org/1999/xlink" ffdec:objectType="shape" height="80.0px" width="52.0px" xmlns="http://www.w3.org/2000/svg">
  <g transform="matrix(1.0, 0.0, 0.0, 1.0, 23.6, 31.95)">
    <path d="M11.4 -26.95 L17.4 -14.95 18.4 -8.95 17.4 -3.95 20.4 2.05 24.4 7.05 27.4 12.05 28.4 19.05 27.6 26.25 25.45 28.15 Q26.55 24.75 26.55 20.8 26.55 13.85 23.05 8.35 21.6 6.1 19.6 4.1 12.7 -2.85 2.9 -2.85 -6.85 -2.85 -13.8 4.1 L-14.35 4.65 Q-17.0 7.45 -18.55 10.7 L-18.7 11.05 -22.95 9.15 -22.6 2.05 -6.6 -12.95 1.4 -15.95 4.4 -20.95 0.4 -26.95 -3.6 -26.95 -5.6 -22.95 -7.6 -27.95 -4.6 -31.95 1.4 -31.95 7.4 -30.95 11.4 -26.95" fill="#d11f06" fill-opacity="0.37254903" fill-rule="evenodd" stroke="none"/>
    <path d="M12.5 42.5 Q15.3 41.25 17.9 39.15 L19.75 37.35 24.8 34.95 24.4 36.05 16.4 44.05 5.4 48.05 -5.6 47.05 -15.6 42.05 -21.6 36.05 -23.6 22.05 -23.15 13.75 -20.0 14.75 -20.45 16.9 -20.45 17.05 -20.75 20.8 -20.7 22.5 -20.65 22.65 -20.2 26.0 Q-18.85 32.5 -13.8 37.5 -6.9 44.45 2.9 44.45 6.9 44.45 10.25 43.35 L12.5 42.5" fill="#ee680c" fill-rule="evenodd" stroke="none"/>
  </g>
</svg>
