<?xml version="1.0" encoding="UTF-8" standalone="no"?>
<svg xmlns:ffdec="https://www.free-decompiler.com/flash" xmlns:xlink="http://www.w3.org/1999/xlink" ffdec:objectType="shape" height="19.45px" width="26.35px" xmlns="http://www.w3.org/2000/svg">
  <g transform="matrix(1.0, 0.0, 0.0, 1.0, 0.05, 0.25)">
    <path d="M26.25 1.95 L24.5 7.35 20.1 6.8 20.1 18.25 Q13.15 20.05 6.15 18.25 L6.15 6.8 6.1 6.8 1.65 7.35 0.0 1.95 0.95 1.6 Q4.75 0.05 7.7 0.05 L8.65 0.1 9.75 1.85 Q11.15 3.25 13.15 3.25 15.1 3.25 16.55 1.85 L17.7 0.05 18.7 0.0 20.6 0.2 Q22.65 0.5 25.2 1.55 L26.25 1.95" fill="#2b1509" fill-rule="evenodd" stroke="none"/>
    <path d="M26.25 1.95 L24.5 7.35 20.1 6.8 20.1 18.25 Q13.15 20.05 6.15 18.25 L6.15 6.8 6.1 6.8 1.65 7.35 0.0 1.95 0.95 1.6 Q4.75 0.05 7.7 0.05 L8.65 0.1 9.75 1.85 Q11.15 3.25 13.15 3.25 15.1 3.25 16.55 1.85 L17.7 0.05 18.7 0.0 20.6 0.2 Q22.65 0.5 25.2 1.55 L26.25 1.95 Z" ffdec:has-small-stroke="true" ffdec:original-stroke-width="0.1" fill="none" stroke="#2b1509" stroke-linecap="round" stroke-linejoin="bevel" stroke-width="1.0"/>
    <path d="M1.35 6.2 L0.0 1.95 0.95 1.6 Q4.75 0.05 7.7 0.05 L8.65 0.1 9.75 1.85 Q11.15 3.25 13.15 3.25 15.1 3.25 16.55 1.85 L17.7 0.05 18.7 0.0 20.6 0.2 Q22.65 0.5 25.2 1.55 L26.25 1.95 24.5 7.35 24.8 6.2 23.55 6.25 Q20.95 6.1 19.0 4.7 L18.95 4.65 18.9 4.6 18.95 4.75 18.95 4.65 19.0 4.9 18.9 4.9 Q17.8 12.8 10.55 15.5 8.55 16.5 6.75 16.7 L6.15 16.75 6.15 6.8 7.25 4.6 Q5.15 6.15 2.4 6.25 L1.35 6.2" fill="#7bb93e" fill-rule="evenodd" stroke="none"/>
    <path d="M1.35 6.2 L2.4 6.25 Q5.15 6.15 7.25 4.6 L6.15 6.8 6.1 6.8 1.65 7.35 1.35 6.2 M6.15 16.75 L6.75 16.7 Q8.55 16.5 10.55 15.5 17.8 12.8 18.9 4.9 L19.0 4.9 18.95 4.65 18.95 4.75 18.9 4.6 18.95 4.65 19.0 4.7 Q20.95 6.1 23.55 6.25 L24.8 6.2 24.5 7.35 20.1 6.8 20.1 18.25 Q13.15 20.05 6.15 18.25 L6.15 16.75" fill="#446622" fill-rule="evenodd" stroke="none"/>
    <path d="M24.2 4.35 L24.5 3.45 M23.2 7.2 L23.55 6.25 M14.65 4.1 L15.65 3.8 M11.75 4.1 L12.85 4.25 M17.15 2.8 L17.75 2.15 M18.65 0.35 L18.7 0.0 M7.7 0.05 L8.0 1.0 M9.1 2.6 L9.3 2.8 9.8 3.2 M1.85 4.45 L2.15 5.35 M0.95 1.6 L1.25 2.55 M6.15 17.45 L7.15 17.65 M15.15 18.15 L16.15 18.05 M18.15 17.85 L19.15 17.7 M12.15 18.2 L13.15 18.2 M9.15 17.95 L10.15 18.05" ffdec:has-small-stroke="true" ffdec:original-stroke-width="0.5" fill="none" stroke="#000000" stroke-linecap="round" stroke-linejoin="bevel" stroke-opacity="0.3019608" stroke-width="1.0"/>
  </g>
</svg>
