<?xml version="1.0" encoding="UTF-8" standalone="no"?>
<svg xmlns:ffdec="https://www.free-decompiler.com/flash" xmlns:xlink="http://www.w3.org/1999/xlink" ffdec:objectType="shape" height="66.8px" width="71.9px" xmlns="http://www.w3.org/2000/svg">
  <g transform="matrix(1.0, 0.0, 0.0, 1.0, 38.25, 32.55)">
    <path d="M2.85 -26.9 L9.95 -27.0 Q14.6 -27.05 16.15 -24.15 L2.85 -26.9 M-12.75 -26.6 L-6.7 -28.35 Q-2.55 -29.55 -0.3 -27.5 -3.1 -27.95 -4.9 -26.75 L-12.75 -26.6" fill="#2b1509" fill-rule="evenodd" stroke="none"/>
    <path d="M16.15 -24.15 Q14.6 -27.05 9.95 -27.0 L2.85 -26.9 16.15 -24.15 24.25 -22.5 Q31.0 -21.15 29.7 -14.8 L21.4 25.95 Q20.1 32.35 13.35 31.0 L-2.2 27.8 -4.85 27.85 -15.2 30.8 Q-21.45 32.6 -23.45 26.85 L-35.0 -13.5 Q-36.45 -19.85 -30.2 -21.65 L-19.6 -24.65 Q-17.9 -26.55 -14.45 -26.6 L-12.75 -26.6 -6.7 -28.35 Q-2.55 -29.55 -0.3 -27.5 L0.35 -27.4 2.85 -26.9 M-12.75 -26.6 L-4.9 -26.75 Q-3.1 -27.95 -0.3 -27.5" fill="none" stroke="#2b1509" stroke-linecap="round" stroke-linejoin="miter-clip" stroke-miterlimit="3.0" stroke-opacity="0.7490196" stroke-width="6.0"/>
  </g>
</svg>
