<?xml version="1.0" encoding="UTF-8" standalone="no"?>
<svg xmlns:ffdec="https://www.free-decompiler.com/flash" xmlns:xlink="http://www.w3.org/1999/xlink" ffdec:objectType="shape" height="22.0px" width="14.15px" xmlns="http://www.w3.org/2000/svg">
  <g transform="matrix(1.0, 0.0, 0.0, 1.0, 0.0, 0.0)">
    <path d="M10.25 14.9 L12.1 13.05 Q13.15 12.05 13.2 11.0 13.15 10.0 12.1 8.95 L11.55 8.35 12.15 8.95 Q13.3 10.0 13.4 11.0 13.3 12.15 12.15 13.2 L10.25 14.9" fill="#000000" fill-opacity="0.15294118" fill-rule="evenodd" stroke="none"/>
    <path d="M3.9 6.1 L9.35 11.3 Q10.85 12.85 9.75 14.05 L12.2 11.75 Q12.95 10.85 12.0 9.9 L4.75 3.0 5.2 2.95 5.2 3.0 5.8 3.1 6.75 3.6 11.55 8.35 12.1 8.95 Q13.15 10.0 13.2 11.0 13.15 12.05 12.1 13.05 L10.25 14.9 6.75 18.4 5.95 18.8 5.1 19.0 Q4.2 19.1 3.9 18.15 L3.85 17.8 3.9 6.1" fill="url(#gradient0)" fill-rule="evenodd" stroke="none"/>
    <path d="M14.15 10.95 Q14.05 12.1 12.9 13.2 L4.8 20.95 Q3.65 22.1 1.85 22.0 L1.8 22.0 Q0.0 21.7 0.0 20.1 L0.0 1.8 Q0.0 0.2 1.7 0.0 3.85 0.05 4.8 0.95 L12.9 8.65 Q14.05 9.8 14.15 10.95 M6.75 18.4 L10.25 14.9 12.15 13.2 Q13.3 12.15 13.4 11.0 13.3 10.0 12.15 8.95 L11.55 8.35 6.75 3.6 5.0 1.85 4.75 1.65 Q4.0 1.0 3.1 0.95 L2.95 0.9 2.4 0.9 Q1.35 1.0 0.9 1.65 L0.7 2.55 0.7 19.4 Q0.7 20.95 2.3 21.05 L3.05 21.1 3.3 21.05 Q4.25 20.95 5.0 20.2 L6.75 18.4" fill="url(#gradient1)" fill-rule="evenodd" stroke="none"/>
    <path d="M4.75 3.0 L12.0 9.9 Q12.95 10.85 12.2 11.75 L9.75 14.05 Q10.85 12.85 9.35 11.3 L3.9 6.1 3.9 4.8 Q3.85 3.8 4.1 3.35 L4.75 3.0" fill="url(#gradient2)" fill-rule="evenodd" stroke="none"/>
    <path d="M3.9 6.1 L3.85 17.8 3.9 18.15 Q4.2 19.1 5.1 19.0 L5.95 18.8 6.75 18.4 5.0 20.2 Q4.25 20.95 3.3 21.05 L3.05 21.1 2.3 21.05 Q0.7 20.95 0.7 19.4 L0.7 2.55 0.9 1.65 Q1.35 1.0 2.4 0.9 L2.95 0.9 3.1 0.95 Q4.0 1.0 4.75 1.65 L5.0 1.85 6.75 3.6 5.8 3.1 5.2 3.0 5.2 2.95 4.75 3.0 4.55 2.8 Q3.65 1.75 2.55 1.9 1.7 1.95 1.5 2.8 L1.5 6.1 Q2.2 4.55 3.7 5.9 L3.9 6.1" fill="url(#gradient3)" fill-rule="evenodd" stroke="none"/>
    <path d="M3.9 6.1 L3.7 5.9 Q2.2 4.55 1.5 6.1 L1.5 2.8 Q1.7 1.95 2.55 1.9 3.65 1.75 4.55 2.8 L4.75 3.0 4.1 3.35 Q3.85 3.8 3.9 4.8 L3.9 6.1" fill="url(#gradient4)" fill-rule="evenodd" stroke="none"/>
    <path d="M6.75 18.4 L10.25 14.9 12.1 13.05 Q13.15 12.05 13.2 11.0 13.15 10.0 12.1 8.95 L11.55 8.35 6.75 3.6 5.0 1.85 4.75 1.65 Q4.0 1.0 3.1 0.95 L2.95 0.9 2.4 0.9 Q1.35 1.0 0.9 1.65 L0.7 2.55 0.7 19.4 Q0.7 20.95 2.3 21.05 L3.05 21.1 3.3 21.05 Q4.25 20.95 5.0 20.2 L6.75 18.4 Z" fill="none" stroke="#3d220d" stroke-linecap="butt" stroke-linejoin="miter-clip" stroke-miterlimit="3.0" stroke-width="1.0"/>
  </g>
  <defs>
    <linearGradient gradientTransform="matrix(-0.0051, 0.0, 0.0, -0.0098, 8.5, 11.0)" gradientUnits="userSpaceOnUse" id="gradient0" spreadMethod="pad" x1="-819.2" x2="819.2">
      <stop offset="0.011764705882352941" stop-color="#f27b2b"/>
      <stop offset="1.0" stop-color="#f15b0f"/>
    </linearGradient>
    <linearGradient gradientTransform="matrix(0.0, -0.0118, -0.0086, 0.0, 7.1, 11.5)" gradientUnits="userSpaceOnUse" id="gradient1" spreadMethod="pad" x1="-819.2" x2="819.2">
      <stop offset="0.0" stop-color="#ffffff" stop-opacity="0.3019608"/>
      <stop offset="1.0" stop-color="#000000" stop-opacity="0.3019608"/>
    </linearGradient>
    <linearGradient gradientTransform="matrix(-0.0049, 0.0, 0.0, -0.0067, 8.2, 8.55)" gradientUnits="userSpaceOnUse" id="gradient2" spreadMethod="pad" x1="-819.2" x2="819.2">
      <stop offset="0.011764705882352941" stop-color="#f59f37"/>
      <stop offset="1.0" stop-color="#f57613"/>
    </linearGradient>
    <linearGradient gradientTransform="matrix(0.0029, 0.0, 0.0, 0.0123, 3.3, 10.95)" gradientUnits="userSpaceOnUse" id="gradient3" spreadMethod="pad" x1="-819.2" x2="819.2">
      <stop offset="0.011764705882352941" stop-color="#9d3204"/>
      <stop offset="1.0" stop-color="#f15b0f"/>
    </linearGradient>
    <linearGradient gradientTransform="matrix(-0.0012, 0.0, 0.0, -0.0026, 2.75, 4.0)" gradientUnits="userSpaceOnUse" id="gradient4" spreadMethod="pad" x1="-819.2" x2="819.2">
      <stop offset="0.011764705882352941" stop-color="#e67007"/>
      <stop offset="1.0" stop-color="#c44f03"/>
    </linearGradient>
  </defs>
</svg>
