<?xml version="1.0" encoding="UTF-8" standalone="no"?>
<svg xmlns:ffdec="https://www.free-decompiler.com/flash" xmlns:xlink="http://www.w3.org/1999/xlink" ffdec:objectType="shape" height="22.0px" width="14.15px" xmlns="http://www.w3.org/2000/svg">
  <g transform="matrix(1.0, 0.0, 0.0, 1.0, 0.0, 0.0)">
    <path d="M3.85 14.85 L2.0 13.15 Q0.8 12.15 0.7 11.0 0.8 10.0 2.0 8.9 L2.6 8.35 2.05 8.9 Q1.0 10.0 0.95 11.0 1.0 12.05 2.05 13.05 L3.85 14.85" fill="#000000" fill-opacity="0.15294118" fill-rule="evenodd" stroke="none"/>
    <path d="M7.4 3.6 L9.15 1.85 9.4 1.65 Q10.15 1.0 11.05 0.95 L11.2 0.9 11.75 0.9 Q12.8 1.0 13.25 1.65 L13.45 2.55 13.45 19.35 Q13.45 20.9 11.85 21.05 L11.1 21.1 10.85 21.05 Q9.9 20.9 9.15 20.15 L7.4 18.4 8.2 18.8 9.05 19.0 Q9.95 19.05 10.25 18.15 L10.3 17.8 10.25 6.1 10.4 5.9 Q11.95 4.55 12.65 6.1 L12.65 2.8 Q12.4 1.95 11.6 1.9 10.5 1.75 9.6 2.8 L9.4 3.0 8.95 2.95 8.95 3.0 8.35 3.1 7.4 3.6" fill="url(#gradient0)" fill-rule="evenodd" stroke="none"/>
    <path d="M7.4 18.4 L9.15 20.15 Q9.9 20.9 10.85 21.05 L11.1 21.1 11.85 21.05 Q13.45 20.9 13.45 19.35 L13.45 2.55 13.25 1.65 Q12.8 1.0 11.75 0.9 L11.2 0.9 11.05 0.95 Q10.15 1.0 9.4 1.65 L9.15 1.85 7.4 3.6 2.6 8.35 2.0 8.9 Q0.8 10.0 0.7 11.0 0.8 12.15 2.0 13.15 L3.85 14.85 7.4 18.4 M12.4 0.0 Q14.15 0.2 14.15 1.8 L14.15 20.1 Q14.15 21.7 12.35 22.0 L12.3 22.0 Q10.5 22.1 9.35 20.95 L1.25 13.2 Q0.1 12.1 0.0 10.95 0.1 9.75 1.25 8.65 L9.35 0.95 Q10.3 0.05 12.4 0.0" fill="url(#gradient1)" fill-rule="evenodd" stroke="none"/>
    <path d="M9.4 3.0 L9.6 2.8 Q10.5 1.75 11.6 1.9 12.4 1.95 12.65 2.8 L12.65 6.1 Q11.95 4.55 10.4 5.9 L10.25 6.1 10.25 4.8 Q10.3 3.8 10.05 3.35 9.85 3.05 9.4 3.0" fill="url(#gradient2)" fill-rule="evenodd" stroke="none"/>
    <path d="M9.4 3.0 Q9.85 3.05 10.05 3.35 10.3 3.8 10.25 4.8 L10.25 6.1 4.8 11.3 Q3.3 12.8 4.4 14.05 L1.9 11.75 Q1.2 10.8 2.15 9.85 L9.4 3.0" fill="url(#gradient3)" fill-rule="evenodd" stroke="none"/>
    <path d="M7.4 3.6 L8.35 3.1 8.95 3.0 8.95 2.95 9.4 3.0 2.15 9.85 Q1.2 10.8 1.9 11.75 L4.4 14.05 Q3.3 12.8 4.8 11.3 L10.25 6.1 10.3 17.8 10.25 18.15 Q9.95 19.05 9.05 19.0 L8.2 18.8 7.4 18.4 3.85 14.85 2.05 13.05 Q1.0 12.05 0.95 11.0 1.0 10.0 2.05 8.9 L2.6 8.35 7.4 3.6" fill="url(#gradient4)" fill-rule="evenodd" stroke="none"/>
    <path d="M7.4 18.4 L9.15 20.15 Q9.9 20.9 10.85 21.05 L11.1 21.1 11.85 21.05 Q13.45 20.9 13.45 19.35 L13.45 2.55 13.25 1.65 Q12.8 1.0 11.75 0.9 L11.2 0.9 11.05 0.95 Q10.15 1.0 9.4 1.65 L9.15 1.85 7.4 3.6 2.6 8.35 2.05 8.9 Q1.0 10.0 0.95 11.0 1.0 12.05 2.05 13.05 L3.85 14.85 7.4 18.4 Z" fill="none" stroke="#3d220d" stroke-linecap="butt" stroke-linejoin="miter-clip" stroke-miterlimit="3.0" stroke-width="1.0"/>
  </g>
  <defs>
    <linearGradient gradientTransform="matrix(-0.0029, 0.0, 0.0, 0.0123, 10.85, 10.95)" gradientUnits="userSpaceOnUse" id="gradient0" spreadMethod="pad" x1="-819.2" x2="819.2">
      <stop offset="0.011764705882352941" stop-color="#9d3204"/>
      <stop offset="1.0" stop-color="#f15b0f"/>
    </linearGradient>
    <linearGradient gradientTransform="matrix(0.0, -0.0117, 0.0086, 0.0, 7.05, 11.45)" gradientUnits="userSpaceOnUse" id="gradient1" spreadMethod="pad" x1="-819.2" x2="819.2">
      <stop offset="0.0" stop-color="#ffffff" stop-opacity="0.3019608"/>
      <stop offset="1.0" stop-color="#000000" stop-opacity="0.3019608"/>
    </linearGradient>
    <linearGradient gradientTransform="matrix(0.0012, 0.0, 0.0, -0.0026, 11.4, 4.0)" gradientUnits="userSpaceOnUse" id="gradient2" spreadMethod="pad" x1="-819.2" x2="819.2">
      <stop offset="0.011764705882352941" stop-color="#e67007"/>
      <stop offset="1.0" stop-color="#c44f03"/>
    </linearGradient>
    <linearGradient gradientTransform="matrix(0.0049, 0.0, 0.0, -0.0067, 5.95, 8.5)" gradientUnits="userSpaceOnUse" id="gradient3" spreadMethod="pad" x1="-819.2" x2="819.2">
      <stop offset="0.011764705882352941" stop-color="#f59f37"/>
      <stop offset="1.0" stop-color="#f57613"/>
    </linearGradient>
    <linearGradient gradientTransform="matrix(0.0051, 0.0, 0.0, -0.0098, 5.65, 11.0)" gradientUnits="userSpaceOnUse" id="gradient4" spreadMethod="pad" x1="-819.2" x2="819.2">
      <stop offset="0.011764705882352941" stop-color="#f27b2b"/>
      <stop offset="1.0" stop-color="#f15b0f"/>
    </linearGradient>
  </defs>
</svg>
