<?xml version="1.0" encoding="UTF-8" standalone="no"?>
<svg xmlns:ffdec="https://www.free-decompiler.com/flash" xmlns:xlink="http://www.w3.org/1999/xlink" ffdec:objectType="shape" height="10.0px" width="14.95px" xmlns="http://www.w3.org/2000/svg">
  <g transform="matrix(1.0, 0.0, 0.0, 1.0, 0.0, 0.0)">
    <path d="M10.6 0.8 L10.65 0.95 10.85 1.0 Q12.45 1.8 14.1 3.55 L14.5 4.0 14.75 4.4 Q15.25 5.4 14.6 5.95 10.95 10.15 7.5 10.0 3.85 10.15 0.3 5.9 L0.05 5.65 0.05 5.4 Q-0.15 4.75 0.3 4.05 L1.25 3.05 Q2.3 1.95 3.65 1.15 L3.85 1.15 3.85 1.0 Q5.65 0.0 7.4 0.0 9.05 0.0 10.6 0.85 L10.6 0.8 M10.3 3.6 Q10.3 4.9 9.45 5.7 8.5 6.55 7.3 6.55 6.1 6.55 5.2 5.7 4.3 4.9 4.3 3.6 L4.3 3.25 10.25 3.05 10.3 3.6 M13.35 5.0 L10.95 2.95 Q7.4 0.4 3.85 3.0 L1.55 5.0 Q4.5 8.15 7.5 8.15 10.35 8.15 13.35 5.0" fill="#26b58d" fill-rule="evenodd" stroke="none"/>
    <path d="M10.6 0.8 L10.65 0.95 10.85 1.0 Q12.45 1.8 14.1 3.55 L14.5 4.0 14.75 4.4 Q15.25 5.4 14.6 5.95 10.95 10.15 7.5 10.0 3.85 10.15 0.3 5.9 L0.05 5.65 0.05 5.4 Q-0.15 4.75 0.3 4.05 L1.25 3.05 Q2.3 1.95 3.65 1.15 L3.85 1.15 3.85 1.0 Q5.65 0.0 7.4 0.0 9.05 0.0 10.6 0.85 L10.6 0.8 M10.3 3.6 Q10.3 4.9 9.45 5.7 8.5 6.55 7.3 6.55 6.1 6.55 5.2 5.7 4.3 4.9 4.3 3.6 L4.3 3.25 10.25 3.05 10.3 3.6 M13.35 5.0 Q10.35 8.15 7.5 8.15 4.5 8.15 1.55 5.0 L3.85 3.0 Q7.4 0.4 10.95 2.95 L13.35 5.0 Z" ffdec:has-small-stroke="true" ffdec:original-stroke-width="0.05" fill="none" stroke="#000000" stroke-linecap="butt" stroke-linejoin="miter-clip" stroke-miterlimit="3.0" stroke-opacity="0.5019608" stroke-width="1.0"/>
  </g>
</svg>
