<?xml version="1.0" encoding="UTF-8" standalone="no"?>
<svg xmlns:ffdec="https://www.free-decompiler.com/flash" xmlns:xlink="http://www.w3.org/1999/xlink" ffdec:objectType="shape" height="15.0px" width="15.05px" xmlns="http://www.w3.org/2000/svg">
  <g transform="matrix(1.0, 0.0, 0.0, 1.0, 0.0, 0.0)">
    <path d="M13.8 0.7 Q14.55 0.7 14.75 1.75 L14.75 1.85 15.0 4.2 Q15.15 5.5 14.55 6.35 L13.85 6.95 14.1 7.95 13.55 9.5 13.5 9.5 12.9 10.0 13.0 10.6 12.5 12.2 12.4 12.2 11.7 12.6 11.65 13.45 11.15 14.5 9.95 15.0 Q9.2 15.0 8.8 14.5 L8.2 13.45 8.2 13.0 6.85 13.0 6.75 13.45 6.35 14.5 6.25 14.5 5.1 15.0 3.9 14.5 3.4 13.45 3.35 12.6 2.55 12.2 Q2.0 11.45 2.0 10.6 L2.15 10.0 1.55 9.5 1.5 9.5 Q0.95 8.85 0.95 7.95 L1.2 6.95 0.5 6.35 Q-0.1 5.5 0.05 4.2 L0.3 1.6 Q0.55 0.7 1.25 0.7 1.95 0.7 2.2 1.6 L2.7 2.95 3.05 3.0 3.05 2.95 Q3.05 2.1 3.65 1.45 4.15 0.85 4.9 0.85 L5.9 1.2 6.25 0.6 7.1 0.0 7.6 0.0 Q8.3 0.0 8.85 0.6 L9.15 1.1 10.1 0.85 Q10.9 0.85 11.4 1.45 12.0 2.1 12.0 2.95 L12.0 3.0 12.3 2.95 12.4 2.7 12.5 2.6 12.85 1.7 12.85 1.6 Q13.1 0.7 13.8 0.7 M10.1 6.35 L9.6 5.75 9.05 6.45 8.8 7.45 8.85 8.2 9.1 9.2 9.15 9.25 9.6 9.6 9.65 9.6 10.15 9.2 10.1 9.2 10.4 7.7 10.35 7.2 10.35 7.1 10.1 6.35 10.15 6.35 10.1 6.25 10.1 6.35 10.1 6.25 10.15 6.35 10.1 6.35 M4.9 6.25 L4.65 7.1 4.65 7.7 4.9 9.2 5.4 9.6 5.45 9.6 6.0 9.2 5.95 9.2 6.25 7.7 6.25 7.45 6.0 6.35 6.0 6.25 5.4 5.75 4.9 6.25" fill="#fd890b" fill-rule="evenodd" stroke="none"/>
    <path d="M13.8 0.7 Q13.1 0.7 12.85 1.6 L12.85 1.7 12.5 2.6 12.4 2.7 12.3 2.95 12.0 3.0 12.0 2.95 Q12.0 2.1 11.4 1.45 10.9 0.85 10.1 0.85 L9.15 1.1 8.85 0.6 Q8.3 0.0 7.6 0.0 L7.1 0.0 6.25 0.6 5.9 1.2 4.9 0.85 Q4.15 0.85 3.65 1.45 3.05 2.1 3.05 2.95 L3.05 3.0 2.7 2.95 2.2 1.6 Q1.95 0.7 1.25 0.7 0.55 0.7 0.3 1.6 L0.05 4.2 Q-0.1 5.5 0.5 6.35 L1.2 6.95 0.95 7.95 Q0.95 8.85 1.5 9.5 L1.55 9.5 2.15 10.0 2.0 10.6 Q2.0 11.45 2.55 12.2 L3.35 12.6 3.4 13.45 3.9 14.5 5.1 15.0 6.25 14.5 6.35 14.5 6.75 13.45 6.85 13.0 8.2 13.0 8.2 13.45 8.8 14.5 Q9.2 15.0 9.95 15.0 L11.15 14.5 11.65 13.45 11.7 12.6 12.4 12.2 12.5 12.2 13.0 10.6 12.9 10.0 13.5 9.5 13.55 9.5 14.1 7.95 13.85 6.95 14.55 6.35 Q15.15 5.5 15.0 4.2 L14.75 1.85 14.75 1.75 Q14.55 0.7 13.8 0.7 M4.9 6.25 L5.4 5.75 6.0 6.25 6.0 6.35 6.25 7.45 6.25 7.7 5.95 9.2 6.0 9.2 5.45 9.6 5.4 9.6 4.9 9.2 4.65 7.7 4.65 7.1 4.9 6.25" ffdec:has-small-stroke="true" ffdec:original-stroke-width="0.05" fill="none" stroke="#000000" stroke-linecap="butt" stroke-linejoin="miter-clip" stroke-miterlimit="3.0" stroke-opacity="0.5019608" stroke-width="1.0"/>
    <path d="M10.1 6.35 L10.35 7.1 10.35 7.2 10.4 7.7 10.1 9.2 10.15 9.2 9.65 9.6 9.6 9.6 9.15 9.25 9.1 9.2 8.85 8.2 8.8 7.45 9.05 6.45 9.6 5.75 10.1 6.35 10.1 6.25 10.15 6.35 10.1 6.35" ffdec:has-small-stroke="true" ffdec:original-stroke-width="0.05" fill="none" stroke="#000000" stroke-linecap="round" stroke-linejoin="miter-clip" stroke-miterlimit="3.0" stroke-opacity="0.5019608" stroke-width="1.0"/>
  </g>
</svg>
