<?xml version="1.0" encoding="UTF-8" standalone="no"?>
<svg xmlns:ffdec="https://www.free-decompiler.com/flash" xmlns:xlink="http://www.w3.org/1999/xlink" ffdec:objectType="shape" height="55.0px" width="310.0px" xmlns="http://www.w3.org/2000/svg">
  <g transform="matrix(1.0, 0.0, 0.0, 1.0, 155.0, 27.5)">
    <path d="M-22.75 27.5 L-55.3 27.5 -23.55 -27.5 9.0 -27.5 -22.75 27.5 M-86.45 -27.5 L-58.25 -27.5 -90.0 27.5 -118.2 27.5 -86.45 -27.5 M-155.0 -22.25 Q-155.0 -27.5 -149.75 -27.5 L-121.1 -27.5 -152.55 27.0 Q-155.0 25.85 -155.0 22.25 L-155.0 -22.25 M149.75 27.5 L134.25 27.5 155.0 -8.45 155.0 22.25 Q155.0 27.5 149.75 27.5 M105.8 -27.5 L131.35 -27.5 99.6 27.5 74.05 27.5 105.8 -27.5 M43.65 -27.5 L71.1 -27.5 39.35 27.5 11.9 27.5 43.65 -27.5" fill="#5b5d5b" fill-opacity="0.49803922" fill-rule="evenodd" stroke="none"/>
  </g>
</svg>
