<?xml version="1.0" encoding="UTF-8" standalone="no"?>
<svg xmlns:ffdec="https://www.free-decompiler.com/flash" xmlns:xlink="http://www.w3.org/1999/xlink" ffdec:objectType="shape" height="19.0px" width="19.0px" xmlns="http://www.w3.org/2000/svg">
  <g transform="matrix(1.0, 0.0, 0.0, 1.0, 0.0, 0.0)">
    <path d="M1.9 8.9 Q2.15 6.2 4.1 4.2 4.95 3.35 6.0 2.85 7.7 2.0 9.45 2.0 11.7 2.0 13.05 2.85 L14.7 4.05 14.9 4.2 Q16.9 6.25 17.05 9.15 L17.05 9.55 17.05 9.6 15.8 11.25 15.5 11.55 13.05 13.1 9.65 13.75 7.35 13.45 Q5.25 12.85 3.55 11.25 2.6 10.25 1.95 9.0 L1.9 8.9" fill="#bbff2e" fill-rule="evenodd" stroke="none"/>
    <path d="M17.05 9.55 L17.05 9.15 Q16.9 6.25 14.9 4.2 L14.7 4.05 13.05 2.85 Q11.7 2.0 9.45 2.0 7.7 2.0 6.0 2.85 4.95 3.35 4.1 4.2 2.15 6.2 1.9 8.9 L1.9 9.85 2.15 11.55 Q2.65 13.45 4.1 14.9 5.6 16.35 7.5 16.9 L9.45 17.15 11.45 16.95 11.95 16.85 12.55 16.55 12.7 16.5 14.5 15.35 14.9 14.9 Q14.95 14.8 15.05 14.8 L16.1 13.3 16.2 13.1 16.4 12.75 Q17.05 11.35 17.05 9.6 L17.05 9.55 M15.35 3.6 Q17.75 6.1 17.75 9.5 17.75 12.85 15.35 15.35 12.9 17.75 9.45 17.75 6.1 17.75 3.65 15.35 1.25 12.85 1.25 9.5 1.25 6.15 3.65 3.65 L3.7 3.6 Q6.1 1.2 9.45 1.2 12.9 1.2 15.35 3.6" fill="#534641" fill-rule="evenodd" stroke="none"/>
    <path d="M1.9 8.9 L1.95 9.0 Q2.6 10.25 3.55 11.25 5.25 12.85 7.35 13.45 L9.65 13.75 13.05 13.1 15.5 11.55 15.8 11.25 17.05 9.6 Q17.05 11.35 16.4 12.75 L16.2 13.1 16.1 13.3 15.05 14.8 Q14.95 14.8 14.9 14.9 L14.55 15.15 14.5 15.35 12.7 16.5 12.55 16.55 11.95 16.85 11.45 16.95 9.45 17.15 7.5 16.9 Q5.6 16.35 4.1 14.9 2.65 13.45 2.15 11.55 L1.9 9.85 1.9 8.9" fill="#9fe104" fill-rule="evenodd" stroke="none"/>
    <path d="M15.35 3.6 Q12.9 1.2 9.45 1.2 6.1 1.2 3.7 3.6 L3.65 3.65 Q1.25 6.15 1.25 9.5 1.25 12.85 3.65 15.35 6.1 17.75 9.45 17.75 12.9 17.75 15.35 15.35 17.75 12.85 17.75 9.5 17.75 6.1 15.35 3.6 M16.2 2.75 Q19.0 5.55 19.0 9.5 19.0 13.4 16.2 16.2 L16.2 16.25 Q13.45 19.0 9.45 19.0 5.6 19.0 2.75 16.2 0.0 13.4 0.0 9.5 0.0 5.55 2.75 2.75 5.6 0.0 9.45 0.0 13.45 0.0 16.2 2.75" fill="url(#gradient0)" fill-rule="evenodd" stroke="none"/>
    <path d="M17.05 9.55 L17.05 9.15 Q16.9 6.25 14.9 4.2 L14.7 4.05 13.05 2.85 Q11.7 2.0 9.45 2.0 7.7 2.0 6.0 2.85 4.95 3.35 4.1 4.2 2.15 6.2 1.9 8.9 L1.9 9.85 2.15 11.55 Q2.65 13.45 4.1 14.9 5.6 16.35 7.5 16.9 L9.45 17.15 11.45 16.95 11.95 16.85 12.55 16.55 12.7 16.5 14.5 15.35 14.55 15.15 14.9 14.9 Q14.95 14.8 15.05 14.8 L16.1 13.3 16.2 13.1 16.4 12.75 Q17.05 11.35 17.05 9.6" ffdec:has-small-stroke="true" ffdec:original-stroke-width="0.5" fill="none" stroke="#000000" stroke-linecap="butt" stroke-linejoin="miter-clip" stroke-miterlimit="3.0" stroke-opacity="0.3019608" stroke-width="1.0"/>
  </g>
  <defs>
    <radialGradient color-interpolation="linearRGB" cx="0" cy="0" fx="102.4" fy="0" gradientTransform="matrix(0.0112, 0.0, 0.0, 0.0112, 9.75, 9.5)" gradientUnits="userSpaceOnUse" id="gradient0" r="819.2" spreadMethod="pad">
      <stop offset="0.6588235294117647" stop-color="#346501"/>
      <stop offset="1.0" stop-color="#bbff2e"/>
    </radialGradient>
  </defs>
</svg>
