<?xml version="1.0" encoding="UTF-8" standalone="no"?>
<svg xmlns:ffdec="https://www.free-decompiler.com/flash" xmlns:xlink="http://www.w3.org/1999/xlink" ffdec:objectType="shape" height="19.1px" width="19.0px" xmlns="http://www.w3.org/2000/svg">
  <g transform="matrix(1.0, 0.0, 0.0, 1.0, 0.0, 0.0)">
    <path d="M19.0 9.5 Q19.0 13.3 16.55 15.95 L15.8 16.65 Q13.1 19.1 9.5 19.1 5.55 19.1 2.8 16.2 0.0 13.4 0.0 9.5 0.0 5.6 2.8 2.8 5.55 0.0 9.5 0.0 13.4 0.0 16.2 2.8 17.35 3.9 17.95 5.15 L18.35 5.95 Q19.0 7.55 19.0 9.5 M17.85 9.5 Q17.85 6.0 15.4 3.6 12.95 1.15 9.55 1.15 6.1 1.15 3.7 3.6 1.25 6.0 1.25 9.5 1.25 12.9 3.7 15.35 6.1 17.85 9.55 17.85 12.95 17.85 15.4 15.35 17.85 12.9 17.85 9.5" fill="url(#gradient0)" fill-rule="evenodd" stroke="none"/>
    <path d="M17.85 9.5 Q17.85 12.9 15.4 15.35 12.95 17.85 9.55 17.85 6.1 17.85 3.7 15.35 1.25 12.9 1.25 9.5 1.25 6.0 3.7 3.6 6.1 1.15 9.55 1.15 12.95 1.15 15.4 3.6 17.85 6.0 17.85 9.5" fill="url(#gradient1)" fill-rule="evenodd" stroke="none"/>
    <path d="M1.65 8.85 Q1.8 6.0 3.9 3.95 6.2 1.65 9.4 1.65 12.75 1.65 15.05 3.95 17.1 6.15 17.25 9.05 L17.25 9.6 15.95 11.25 15.65 11.55 13.15 13.15 Q11.6 13.85 9.65 13.85 L7.25 13.6 Q5.05 13.0 3.3 11.25 2.25 10.2 1.65 8.85 M15.1 4.95 L14.45 4.25 Q12.4 2.2 9.4 2.2 6.5 2.2 4.4 4.25 3.55 5.15 3.0 6.2 5.6 4.15 7.6 4.5 9.35 4.9 11.6 7.4 13.6 9.6 15.1 9.1 16.4 8.7 16.3 7.3 15.95 6.0 15.1 4.95" fill="#959595" fill-rule="evenodd" stroke="none"/>
    <path d="M15.1 4.95 Q15.95 6.0 16.3 7.3 16.4 8.7 15.1 9.1 13.6 9.6 11.6 7.4 9.35 4.9 7.6 4.5 5.6 4.15 3.0 6.2 3.55 5.15 4.4 4.25 6.5 2.2 9.4 2.2 12.4 2.2 14.45 4.25 L15.1 4.95" fill="#d5d5d5" fill-rule="evenodd" stroke="none"/>
    <path d="M1.65 8.85 Q2.25 10.2 3.3 11.25 5.05 13.0 7.25 13.6 L9.65 13.85 Q11.6 13.85 13.15 13.15 L15.65 11.55 15.95 11.25 17.25 9.6 Q17.25 11.35 16.6 12.8 L16.4 13.25 15.05 15.05 14.8 15.35 12.6 16.8 Q11.15 17.4 9.4 17.4 L7.35 17.1 Q5.45 16.6 3.9 15.05 2.4 13.55 1.8 11.55 L1.55 9.8 1.65 8.85" fill="#777777" fill-rule="evenodd" stroke="none"/>
    <path d="M17.25 9.6 L17.25 9.05 Q17.1 6.15 15.05 3.95 12.75 1.65 9.4 1.65 6.2 1.65 3.9 3.95 1.8 6.0 1.65 8.85 L1.55 9.8 1.8 11.55 Q2.4 13.55 3.9 15.05 5.45 16.6 7.35 17.1 L9.4 17.4 Q11.15 17.4 12.6 16.8 L14.8 15.35 15.05 15.05 16.4 13.25 16.6 12.8 Q17.25 11.35 17.25 9.6 Z" ffdec:has-small-stroke="true" ffdec:original-stroke-width="0.5" fill="none" stroke="#000000" stroke-linecap="butt" stroke-linejoin="miter-clip" stroke-miterlimit="3.0" stroke-opacity="0.3019608" stroke-width="1.0"/>
  </g>
  <defs>
    <linearGradient gradientTransform="matrix(0.0, 0.0131, 0.0131, 0.0, 9.5, 10.75)" gradientUnits="userSpaceOnUse" id="gradient0" spreadMethod="pad" x1="-819.2" x2="819.2">
      <stop offset="0.0" stop-color="#c7c19d"/>
      <stop offset="1.0" stop-color="#f2f1e7"/>
    </linearGradient>
    <linearGradient color-interpolation="linearRGB" gradientTransform="matrix(0.0, 0.0056, -0.0101, 0.0, 31.5, 6.2)" gradientUnits="userSpaceOnUse" id="gradient1" spreadMethod="pad" x1="-819.2" x2="819.2">
      <stop offset="0.0" stop-color="#3e3431"/>
      <stop offset="1.0" stop-color="#534641"/>
    </linearGradient>
  </defs>
</svg>
