<?xml version="1.0" encoding="UTF-8" standalone="no"?>
<svg xmlns:ffdec="https://www.free-decompiler.com/flash" xmlns:xlink="http://www.w3.org/1999/xlink" ffdec:objectType="shape" height="23.05px" width="27.6px" xmlns="http://www.w3.org/2000/svg">
  <g transform="matrix(1.0, 0.0, 0.0, 1.0, 21.45, 12.4)">
    <path d="M-19.15 -4.6 L-19.05 -4.6 -18.05 -4.65 -18.05 -4.7 -16.95 -4.3 -16.55 -3.95 Q-15.7 -4.3 -14.85 -4.9 L-12.35 -6.7 -12.15 -6.75 -11.9 -6.7 -11.55 -6.5 -11.65 -7.05 -11.65 -7.15 -11.5 -7.3 -9.6 -8.95 -9.55 -8.95 -6.45 -10.9 -6.15 -10.9 -6.0 -10.7 -5.9 -10.6 -5.75 -11.05 -5.75 -11.15 -5.55 -11.3 -4.3 -11.65 -2.55 -11.9 Q-1.95 -11.85 -1.55 -11.1 -1.15 -10.6 -0.95 -9.5 0.55 -6.45 2.7 -4.1 L2.75 -4.1 3.1 -3.7 5.3 -1.1 Q5.9 0.15 5.45 0.75 5.45 0.1 4.85 -0.25 L4.65 -0.75 2.6 -3.25 2.25 -3.55 2.2 -3.6 Q-0.05 -6.0 -1.6 -9.25 L-1.55 -9.35 -2.15 -10.7 -2.6 -11.2 -3.95 -11.0 -3.35 -10.1 Q0.05 -5.15 -2.05 -2.1 L-2.5 -1.6 -8.2 4.5 Q-12.15 0.9 -14.55 -4.3 -15.35 -3.75 -16.0 -3.45 -16.15 -3.3 -16.35 -3.2 L-16.55 -3.2 -17.95 -4.3 -17.95 -3.9 Q-15.35 1.9 -11.45 6.75 -12.9 7.0 -13.7 8.45 L-13.9 7.9 -13.95 7.9 Q-15.9 2.7 -19.5 -1.3 L-19.5 -1.35 Q-20.15 -1.95 -20.2 -2.5 L-20.2 -2.7 Q-20.25 -3.7 -19.15 -4.6" fill="#d2bc93" fill-rule="evenodd" stroke="none"/>
    <path d="M-13.7 8.45 Q-12.9 7.0 -11.45 6.75 -15.35 1.9 -17.95 -3.9 L-17.35 -3.7 -16.9 -3.3 -16.2 -2.1 Q-14.2 1.6 -11.8 4.75 L-10.15 6.75 Q-9.55 7.65 -9.8 8.15 L-10.15 8.45 -10.25 8.55 Q-10.95 9.05 -12.05 9.45 L-12.0 9.5 -12.6 9.5 Q-12.6 8.75 -11.2 8.15 L-10.35 8.1 -10.15 8.1 -9.95 7.85 -10.0 7.6 Q-10.1 7.45 -10.2 7.45 L-11.5 7.5 Q-13.1 8.15 -13.35 9.1 L-13.6 8.7 -13.7 8.45 M-16.0 -3.45 Q-15.35 -3.75 -14.55 -4.3 -12.15 0.9 -8.2 4.5 L-2.5 -1.6 -2.05 -2.1 Q0.05 -5.15 -3.35 -10.1 L-3.95 -11.0 -2.6 -11.2 -2.15 -10.7 -1.55 -9.35 -1.6 -9.25 Q-0.05 -6.0 2.2 -3.6 L2.25 -3.55 2.6 -3.25 4.65 -0.75 4.85 -0.25 Q2.9 -0.75 0.95 0.1 L0.85 0.1 0.65 0.3 0.55 0.3 Q-0.65 0.9 -1.9 1.9 L-2.75 1.8 -3.05 1.85 -3.15 2.1 -3.15 2.3 -2.85 2.8 -3.5 3.45 -3.55 3.5 Q-4.95 5.45 -6.5 6.6 L-6.95 6.3 -7.2 6.3 -7.4 6.4 -7.4 6.7 -7.35 7.15 -9.0 8.1 Q-8.75 7.3 -9.6 6.3 L-11.2 4.3 Q-13.65 1.25 -15.55 -2.4 L-16.0 -3.45" fill="#b39968" fill-rule="evenodd" stroke="none"/>
    <path d="M-19.15 -4.6 Q-20.25 -3.7 -20.2 -2.7 L-20.2 -2.5 Q-20.15 -1.95 -19.5 -1.35 L-19.5 -1.3 Q-15.9 2.7 -13.95 7.9 L-13.9 7.9 -13.7 8.45 -13.6 8.7 -13.35 9.1 Q-13.1 8.15 -11.5 7.5 L-10.2 7.45 Q-10.1 7.45 -10.0 7.6 L-9.95 7.85 -10.15 8.1 -10.35 8.1 -11.2 8.15 Q-12.6 8.75 -12.6 9.5 L-12.0 9.5 -12.05 9.45 Q-10.95 9.05 -10.25 8.55 L-10.15 8.45 -9.8 8.15 Q-9.55 7.65 -10.15 6.75 L-11.8 4.75 Q-14.2 1.6 -16.2 -2.1 L-16.9 -3.3 -17.35 -3.7 -17.95 -3.9 -17.95 -4.3 -16.55 -3.2 -16.35 -3.2 Q-16.15 -3.3 -16.0 -3.45 L-15.55 -2.4 Q-13.65 1.25 -11.2 4.3 L-9.6 6.3 Q-8.75 7.3 -9.0 8.1 L-7.35 7.15 -7.4 6.7 -7.4 6.4 -7.2 6.3 -6.95 6.3 -6.5 6.6 Q-4.95 5.45 -3.55 3.5 L-3.5 3.45 -2.85 2.8 -3.15 2.3 -3.15 2.1 -3.05 1.85 -2.75 1.8 -1.9 1.9 Q-0.65 0.9 0.55 0.3 L0.65 0.3 0.85 0.1 0.95 0.1 Q2.9 -0.75 4.85 -0.25 5.45 0.1 5.45 0.75 L4.5 2.1 Q3.45 3.1 2.45 3.0 L2.3 2.95 2.05 2.8 1.95 2.8 1.85 2.75 1.75 2.55 0.85 0.9 Q-0.35 1.5 -1.55 2.5 L-1.7 2.6 -1.75 2.7 -2.15 2.55 -2.15 2.7 -2.05 2.95 -2.15 3.15 -3.0 3.95 Q-4.55 6.0 -6.2 7.25 L-6.4 7.3 -6.6 7.3 -6.6 7.5 -6.75 7.65 Q-8.2 8.7 -9.7 9.05 L-9.75 9.05 Q-10.5 9.7 -11.85 10.1 L-12.9 10.15 -12.95 10.1 Q-13.8 9.9 -14.2 9.05 L-14.25 9.0 -14.55 8.1 -14.55 8.15 Q-16.5 3.05 -20.0 -0.85 -21.2 -1.95 -20.9 -2.9 -20.75 -3.75 -19.15 -4.6 M4.7 0.6 L4.55 0.4 Q3.1 0.05 1.6 0.65 L2.15 1.7 2.95 1.1 3.2 1.05 Q3.4 1.1 3.45 1.25 L3.45 1.5 3.35 1.7 2.65 2.3 Q3.25 2.3 4.0 1.65 L4.7 0.6" fill="#82642f" fill-rule="evenodd" stroke="none"/>
    <path d="M4.7 0.6 L4.0 1.65 Q3.25 2.3 2.65 2.3 L3.35 1.7 3.45 1.5 3.45 1.25 Q3.4 1.1 3.2 1.05 L2.95 1.1 2.15 1.7 1.6 0.65 Q3.1 0.05 4.55 0.4 L4.7 0.6" fill="#5e4822" fill-rule="evenodd" stroke="none"/>
    <path d="M5.45 0.75 Q5.9 0.15 5.3 -1.1 L3.1 -3.7 2.75 -4.1 2.7 -4.1 Q0.55 -6.45 -0.95 -9.5 -1.15 -10.6 -1.55 -11.1 -1.95 -11.85 -2.55 -11.9 L-4.3 -11.65 -5.55 -11.3 -5.75 -11.15 -5.75 -11.05 -5.9 -10.6 -6.0 -10.7 -6.15 -10.9 -6.45 -10.9 -9.55 -8.95 -9.6 -8.95 -11.5 -7.3 -11.65 -7.15 -11.65 -7.05 -11.55 -6.5 -11.9 -6.7 -12.15 -6.75 -12.35 -6.7 -14.85 -4.9 Q-15.7 -4.3 -16.55 -3.95 L-16.95 -4.3 -18.05 -4.7 -18.05 -4.65 -19.05 -4.6 -19.15 -4.6 Q-20.75 -3.75 -20.9 -2.9 -21.2 -1.95 -20.0 -0.85 -16.5 3.05 -14.55 8.15 L-14.55 8.1 -14.25 9.0 -14.2 9.05 Q-13.8 9.9 -12.95 10.1 L-12.9 10.15 -11.85 10.1 Q-10.5 9.7 -9.75 9.05 L-9.7 9.05 Q-8.2 8.7 -6.75 7.65 L-6.6 7.5 -6.6 7.3 -6.4 7.3 -6.2 7.25 Q-4.55 6.0 -3.0 3.95 L-2.15 3.15 -2.05 2.95 -2.15 2.7 -2.15 2.55 -1.75 2.7 -1.7 2.6 -1.55 2.5 Q-0.35 1.5 0.85 0.9 L1.75 2.55 1.85 2.75 1.95 2.8 2.05 2.8 2.3 2.95 2.45 3.0 Q3.45 3.1 4.5 2.1 L5.45 0.75 Z" fill="none" stroke="#230f07" stroke-linecap="butt" stroke-linejoin="miter-clip" stroke-miterlimit="3.0" stroke-width="1.0"/>
  </g>
</svg>
