<?xml version="1.0" encoding="UTF-8" standalone="no"?>
<svg xmlns:ffdec="https://www.free-decompiler.com/flash" xmlns:xlink="http://www.w3.org/1999/xlink" ffdec:objectType="shape" height="48.8px" width="46.0px" xmlns="http://www.w3.org/2000/svg">
  <g transform="matrix(1.0, 0.0, 0.0, 1.0, 1.6, 0.95)">
    <path d="M40.75 12.6 L41.9 18.4 41.9 18.7 M19.0 3.45 L21.9 2.75 23.0 2.35 24.95 1.7 M32.65 1.55 Q35.4 2.5 37.4 5.2 M4.8 44.0 Q7.1 45.1 10.8 45.35 M1.95 31.3 Q1.05 33.8 0.9 37.25 L0.9 37.55 M13.0 25.0 Q9.65 24.75 7.2 25.7 M26.65 28.55 L21.65 27.05 20.45 26.65 M39.85 26.0 Q38.1 28.4 34.8 29.05" fill="none" stroke="#000000" stroke-linecap="butt" stroke-linejoin="miter-clip" stroke-miterlimit="3.0" stroke-opacity="0.6" stroke-width="5.0"/>
  </g>
</svg>
