<?xml version="1.0" encoding="UTF-8" standalone="no"?>
<svg xmlns:ffdec="https://www.free-decompiler.com/flash" xmlns:xlink="http://www.w3.org/1999/xlink" ffdec:objectType="shape" height="10.05px" width="22.95px" xmlns="http://www.w3.org/2000/svg">
  <g transform="matrix(1.0, 0.0, 0.0, 1.0, 0.0, -0.05)">
    <path d="M22.65 1.45 Q23.25 2.05 22.65 4.45 L22.6 4.5 Q22.35 7.25 22.6 9.85 13.15 10.95 3.0 7.2 L1.15 5.75 Q0.3 4.75 0.1 3.1 L0.05 3.0 0.0 1.85 0.65 1.5 3.3 1.5 7.45 1.15 7.95 2.3 8.25 2.6 8.6 2.6 8.85 2.35 9.55 0.85 12.85 0.25 17.25 0.05 17.25 1.05 17.4 1.4 17.75 1.55 18.1 1.4 19.2 0.3 20.7 0.65 22.65 1.45" fill="url(#gradient0)" fill-rule="evenodd" stroke="none"/>
  </g>
  <defs>
    <linearGradient gradientTransform="matrix(-0.0031, -0.0259, 0.0037, -4.0E-4, 20.6, 7.55)" gradientUnits="userSpaceOnUse" id="gradient0" spreadMethod="pad" x1="-819.2" x2="819.2">
      <stop offset="0.4745098039215686" stop-color="#ffffff" stop-opacity="0.0"/>
      <stop offset="1.0" stop-color="#ffffff"/>
    </linearGradient>
  </defs>
</svg>
