<?xml version="1.0" encoding="UTF-8" standalone="no"?>
<svg xmlns:ffdec="https://www.free-decompiler.com/flash" xmlns:xlink="http://www.w3.org/1999/xlink" ffdec:objectType="shape" height="57.0px" width="85.25px" xmlns="http://www.w3.org/2000/svg">
  <g transform="matrix(1.0, 0.0, 0.0, 1.0, -234.8, -182.9)">
    <path d="M276.4 212.55 L279.75 211.9 304.05 204.85 306.8 209.35 301.3 232.4 281.65 239.5 278.35 239.9 Q277.15 236.3 276.5 232.1 275.25 223.6 276.4 212.55" fill="#e6ddc1" fill-rule="evenodd" stroke="none"/>
    <path d="M278.35 239.9 Q275.35 239.9 272.35 238.9 L255.0 232.75 246.55 211.0 249.3 207.4 266.55 211.25 Q272.35 212.75 276.4 212.55 275.25 223.6 276.5 232.1 277.15 236.3 278.35 239.9" fill="#dacea5" fill-rule="evenodd" stroke="none"/>
    <path d="M284.0 223.55 Q284.3 224.85 285.65 224.9 L283.55 227.25 Q284.75 229.95 288.8 230.95 L284.8 235.65 Q283.85 231.25 280.7 230.3 L278.5 232.8 Q278.45 231.4 277.15 231.55 L279.0 229.35 266.3 217.5 265.05 213.2 270.1 213.7 282.2 225.5 284.0 223.55" fill="#612905" fill-rule="evenodd" stroke="none"/>
    <path d="M285.35 217.5 L272.65 229.35 274.5 231.55 Q273.15 231.4 273.1 232.8 L270.95 230.3 Q267.75 231.25 266.85 235.65 L262.8 230.95 Q266.85 229.95 268.05 227.25 L265.95 224.9 Q267.3 224.85 267.65 223.55 L269.4 225.5 281.55 213.7 286.6 213.2 285.35 217.5" fill="#612905" fill-rule="evenodd" stroke="none"/>
    <path d="M249.4 198.45 L251.2 197.9 Q249.4 202.9 252.05 205.8 L250.55 206.45 Q247.25 203.45 249.4 198.45" fill="#ffcc00" fill-rule="evenodd" stroke="none"/>
    <path d="M257.3 190.3 Q250.15 193.55 245.05 197.9 L246.15 192.55 241.05 196.3 240.55 199.9 238.65 200.5 238.6 200.5 Q238.75 197.85 235.75 194.65 237.75 189.35 244.15 187.3 248.4 191.15 257.3 190.3 M265.65 187.15 L261.0 188.8 Q251.05 189.6 248.7 186.35 L263.5 186.8 265.65 187.15" fill="#ff6600" fill-rule="evenodd" stroke="none"/>
    <path d="M245.05 197.9 Q242.75 199.8 240.9 202.05 245.5 199.75 249.4 198.45 247.25 203.45 250.55 206.45 246.95 207.7 242.55 208.3 L242.45 208.35 Q236.6 207.1 235.45 205.55 L235.25 205.2 234.9 202.45 236.05 201.75 237.5 203.65 238.65 200.5 240.55 199.9 241.05 196.3 246.15 192.55 245.05 197.9 M251.2 197.9 Q257.8 195.9 262.2 196.85 258.95 202.8 252.05 205.8 249.4 202.9 251.2 197.9" fill="#ad2c20" fill-rule="evenodd" stroke="none"/>
    <path d="M245.05 197.9 Q250.15 193.55 257.3 190.3 L261.0 188.8 265.65 187.15 264.75 188.8 Q264.1 193.3 262.2 196.85 257.8 195.9 251.2 197.9 L249.4 198.45 Q245.5 199.75 240.9 202.05 242.75 199.8 245.05 197.9" fill="#6d1b14" fill-rule="evenodd" stroke="none"/>
    <path d="M261.0 188.8 L257.3 190.3 Q248.4 191.15 244.15 187.3 246.2 186.65 248.7 186.35 251.05 189.6 261.0 188.8 M235.75 194.65 Q238.75 197.85 238.6 200.5 L238.65 200.5 237.5 203.65 236.05 201.75 234.9 202.45 Q234.5 197.95 235.75 194.65" fill="#ffff33" fill-rule="evenodd" stroke="none"/>
    <path d="M303.65 194.45 L305.4 195.0 Q307.55 200.0 304.3 203.0 L302.8 202.35 Q305.4 199.45 303.65 194.45" fill="#ffcc00" fill-rule="evenodd" stroke="none"/>
    <path d="M309.8 194.45 Q304.65 190.1 297.5 186.85 306.4 187.7 310.7 183.85 317.05 185.9 319.1 191.2 316.05 194.4 316.2 197.05 L314.25 196.45 313.8 192.85 308.65 189.1 309.8 194.45 M293.8 185.35 L289.2 183.7 291.3 183.35 306.15 182.9 Q303.75 186.15 293.8 185.35" fill="#ff6600" fill-rule="evenodd" stroke="none"/>
    <path d="M292.65 193.4 Q297.0 192.45 303.65 194.45 305.4 199.45 302.8 202.35 295.85 199.35 292.65 193.4 M305.4 195.0 Q309.3 196.3 313.9 198.6 312.05 196.35 309.8 194.45 L308.65 189.1 313.8 192.85 314.25 196.45 316.2 197.05 317.3 200.2 318.75 198.3 319.95 199.0 319.55 201.75 319.4 202.1 Q318.2 203.65 312.4 204.9 L312.3 204.85 Q307.85 204.25 304.3 203.0 307.55 200.0 305.4 195.0" fill="#ad2c20" fill-rule="evenodd" stroke="none"/>
    <path d="M303.65 194.45 Q297.0 192.45 292.65 193.4 290.7 189.85 290.05 185.35 L289.2 183.7 293.8 185.35 Q295.7 186.05 297.5 186.85 304.65 190.1 309.8 194.45 312.05 196.35 313.9 198.6 309.3 196.3 305.4 195.0 L303.65 194.45" fill="#6d1b14" fill-rule="evenodd" stroke="none"/>
    <path d="M297.5 186.85 Q295.7 186.05 293.8 185.35 303.75 186.15 306.15 182.9 308.6 183.2 310.7 183.85 306.4 187.7 297.5 186.85 M319.1 191.2 Q320.3 194.5 319.95 199.0 L318.75 198.3 317.3 200.2 316.2 197.05 Q316.05 194.4 319.1 191.2" fill="#ffff33" fill-rule="evenodd" stroke="none"/>
    <path d="M296.35 190.15 L298.45 191.65 Q296.6 199.8 290.9 201.9 L290.45 199.25 Q294.55 196.15 296.35 190.15" fill="#ffcc00" fill-rule="evenodd" stroke="none"/>
    <path d="M298.45 191.65 Q303.95 196.4 302.6 205.25 L302.3 205.95 Q299.45 212.55 293.8 213.85 L295.3 210.95 293.0 210.0 292.6 208.7 292.25 207.5 291.75 206.05 291.7 205.8 291.6 205.5 291.55 205.35 291.45 205.15 291.4 205.05 287.0 191.25 289.8 189.55 291.45 188.0 Q294.25 188.85 296.35 190.15 294.55 196.15 290.45 199.25 L290.9 201.9 Q296.6 199.8 298.45 191.65 M291.6 205.1 L290.9 201.9 291.6 205.1 M289.8 189.55 Q289.7 194.35 290.45 199.25 289.7 194.35 289.8 189.55" fill="#ad2c20" fill-rule="evenodd" stroke="none"/>
    <path d="M293.8 213.85 Q289.1 214.9 282.5 212.3 276.75 208.65 276.85 203.05 283.95 209.9 292.2 207.5 L292.6 208.7 293.0 210.0 295.3 210.95 293.8 213.85 M291.4 205.05 Q283.35 206.8 277.5 199.35 278.6 195.75 281.65 191.55 284.4 192.3 287.0 191.25 L291.4 205.05" fill="#ff6600" fill-rule="evenodd" stroke="none"/>
    <path d="M283.25 195.35 L284.7 197.7 Q278.6 203.95 271.55 203.05 271.9 201.75 272.4 200.5 278.3 199.75 283.25 195.35" fill="#ffcc00" fill-rule="evenodd" stroke="none"/>
    <path d="M270.45 206.05 Q261.0 203.6 258.55 194.2 261.5 191.55 266.95 189.35 269.45 191.35 272.8 191.7 L270.45 206.05 M268.55 215.0 Q263.05 213.6 257.35 208.1 253.05 202.0 256.0 197.15 260.05 206.7 270.05 208.6 L269.85 209.85 269.65 211.2 271.6 213.15 268.55 215.0" fill="#ff6600" fill-rule="evenodd" stroke="none"/>
    <path d="M272.8 191.7 L276.6 191.6 279.1 191.05 Q281.65 193.15 283.25 195.35 278.3 199.75 272.4 200.5 271.9 201.75 271.55 203.05 278.6 203.95 284.7 197.7 288.2 204.6 282.25 211.75 L281.6 212.2 Q275.25 216.65 268.55 215.0 L271.6 213.15 269.65 211.2 269.85 209.85 270.1 208.6 270.3 207.4 270.35 207.1 270.4 206.9 270.45 206.55 270.45 206.2 270.45 206.05 272.8 191.7 M270.65 206.2 L271.55 203.05 270.65 206.2 M272.4 200.5 Q274.1 195.75 276.6 191.6 274.1 195.75 272.4 200.5" fill="#ad2c20" fill-rule="evenodd" stroke="none"/>
  </g>
</svg>
