<?xml version="1.0" encoding="UTF-8" standalone="no"?>
<svg xmlns:ffdec="https://www.free-decompiler.com/flash" xmlns:xlink="http://www.w3.org/1999/xlink" ffdec:objectType="shape" height="93.9px" width="82.35px" xmlns="http://www.w3.org/2000/svg">
  <g transform="matrix(1.0, 0.0, 0.0, 1.0, 3.0, 2.0)">
    <path d="M72.05 17.45 Q73.7 20.35 73.7 21.95 76.35 26.1 76.35 32.5 L76.35 70.0 Q76.35 79.65 70.4 84.35 64.75 88.9 54.05 88.9 L22.25 88.9 Q11.6 88.9 6.0 84.35 0.0 79.65 0.0 70.0 L0.0 32.5 0.0 32.35 0.0 31.95 Q0.0 30.85 0.15 29.8 L0.15 29.65 0.35 28.8 1.05 25.9 Q0.8 25.45 1.3 24.9 L1.35 24.85 Q1.2 24.35 1.8 23.75 L2.25 22.8 2.55 22.4 3.7 21.3 Q3.85 19.9 5.25 17.45 5.45 16.95 6.0 16.7 9.4 14.55 14.7 13.15 L14.7 11.5 Q14.7 8.65 17.1 6.5 L17.15 6.45 Q19.7 4.45 23.05 4.45 L23.8 4.45 Q27.25 4.45 29.7 6.5 31.7 8.25 32.1 10.6 L38.4 10.3 38.45 10.3 38.8 10.3 38.95 10.3 43.3 10.5 Q43.6 8.2 45.55 6.5 L45.6 6.45 Q48.1 4.45 51.5 4.45 L52.25 4.45 Q55.65 4.45 58.15 6.5 60.6 8.65 60.6 11.5 L60.6 12.65 Q66.8 14.0 70.65 16.35 L70.75 16.4 70.95 16.45 71.6 16.9 72.05 17.45" fill="#000000" fill-opacity="0.47058824" fill-rule="evenodd" stroke="none"/>
    <path d="M72.05 17.45 L71.6 16.9 70.95 16.45 70.75 16.4 70.65 16.35 Q66.8 14.0 60.6 12.65 L60.6 11.5 Q60.6 8.65 58.15 6.5 55.65 4.45 52.25 4.45 L51.5 4.45 Q48.1 4.45 45.6 6.45 L45.55 6.5 Q43.6 8.2 43.3 10.5 L38.95 10.3 38.8 10.3 38.45 10.3 38.4 10.3 32.1 10.6 Q31.7 8.25 29.7 6.5 27.25 4.45 23.8 4.45 L23.05 4.45 Q19.7 4.45 17.15 6.45 L17.1 6.5 Q14.7 8.65 14.7 11.5 L14.7 13.15 Q9.4 14.55 6.0 16.7 5.45 16.95 5.25 17.45 3.85 19.9 3.7 21.3 L2.55 22.4 2.25 22.8 1.8 23.75 Q1.2 24.35 1.35 24.85 L1.3 24.9 Q0.8 25.45 1.05 25.9 L0.35 28.8 0.15 29.65 0.15 29.8 Q0.0 30.85 0.0 31.95 L0.0 32.35 0.0 32.5 0.0 70.0 Q0.0 79.65 6.0 84.35 11.6 88.9 22.25 88.9 L54.05 88.9 Q64.75 88.9 70.4 84.35 76.35 79.65 76.35 70.0 L76.35 32.5 Q76.35 26.1 73.7 21.95 73.7 20.35 72.05 17.45 Z" fill="none" stroke="#000000" stroke-linecap="butt" stroke-linejoin="miter-clip" stroke-miterlimit="3.0" stroke-opacity="0.3019608" stroke-width="6.0"/>
    <path d="M76.35 37.55 L76.35 65.55 Q76.35 75.2 70.4 79.9 64.75 84.45 54.05 84.45 L22.25 84.45 Q11.6 84.45 6.0 79.9 0.0 75.2 0.0 65.55 L0.0 28.05 0.0 27.9 0.0 27.5 Q0.0 26.4 0.15 25.35 L0.15 25.2 0.35 24.35 1.05 21.45 Q0.8 21.0 1.3 20.45 L1.35 20.4 Q1.2 19.9 1.8 19.3 L2.25 18.35 2.55 17.95 3.7 16.85 Q3.85 15.45 5.25 13.0 5.45 12.5 6.0 12.25 9.4 10.1 14.7 8.7 L14.7 7.05 Q14.7 4.2 17.1 2.05 L17.15 2.0 Q19.7 0.0 23.05 0.0 L23.8 0.0 Q27.25 0.0 29.7 2.05 31.7 3.8 32.1 6.15 L38.4 5.85 38.45 5.85 38.8 5.85 38.95 5.85 43.3 6.05 Q43.6 3.75 45.55 2.05 L45.6 2.0 Q48.1 0.0 51.5 0.0 L52.25 0.0 Q55.65 0.0 58.15 2.05 60.6 4.2 60.6 7.05 L60.6 8.2 Q66.8 9.55 70.65 11.9 L70.75 11.95 70.95 12.0 71.6 12.45 72.05 13.0 Q73.7 15.9 73.7 17.5 76.35 21.65 76.35 28.05 L76.35 33.2 76.35 37.55" fill="#000000" fill-rule="evenodd" stroke="none"/>
    <path d="M76.35 33.2 L76.35 28.05 Q76.35 21.65 73.7 17.5 73.7 15.9 72.05 13.0 L71.6 12.45 70.95 12.0 70.75 11.95 70.65 11.9 Q66.8 9.55 60.6 8.2 L60.6 7.05 Q60.6 4.2 58.15 2.05 55.65 0.0 52.25 0.0 L51.5 0.0 Q48.1 0.0 45.6 2.0 L45.55 2.05 Q43.6 3.75 43.3 6.05 L38.95 5.85 38.8 5.85 38.45 5.85 38.4 5.85 32.1 6.15 Q31.7 3.8 29.7 2.05 27.25 0.0 23.8 0.0 L23.05 0.0 Q19.7 0.0 17.15 2.0 L17.1 2.05 Q14.7 4.2 14.7 7.05 L14.7 8.7 Q9.4 10.1 6.0 12.25 5.45 12.5 5.25 13.0 3.85 15.45 3.7 16.85 L2.55 17.95 2.25 18.35 1.8 19.3 Q1.2 19.9 1.35 20.4 L1.3 20.45 Q0.8 21.0 1.05 21.45 L0.35 24.35 0.15 25.2 0.15 25.35 Q0.0 26.4 0.0 27.5 L0.0 27.9 0.0 28.05 0.0 65.55 Q0.0 75.2 6.0 79.9 11.6 84.45 22.25 84.45 L54.05 84.45 Q64.75 84.45 70.4 79.9 76.35 75.2 76.35 65.55 L76.35 37.55" fill="none" stroke="#181512" stroke-linecap="butt" stroke-linejoin="miter-clip" stroke-miterlimit="3.0" stroke-opacity="0.3137255" stroke-width="4.0"/>
    <path d="M46.1 5.1 Q46.55 4.15 47.4 3.5 49.2 1.95 51.6 1.95 L52.35 1.95 Q54.3 1.95 55.8 2.95 L55.55 3.05 Q55.6 6.1 50.6 7.15 46.25 7.65 46.1 5.1 M27.55 3.05 Q27.65 6.1 22.65 7.15 17.7 7.7 18.1 4.35 18.4 3.85 18.95 3.5 20.7 1.95 23.2 1.95 L23.85 1.95 Q26.0 1.95 27.55 3.05" fill="#b76f30" fill-rule="evenodd" stroke="none"/>
    <path d="M55.8 2.95 L56.55 3.5 Q58.25 4.95 58.25 7.05 L58.25 41.2 Q58.25 43.25 56.55 44.8 54.75 46.25 52.35 46.25 L51.6 46.25 Q49.2 46.25 47.4 44.8 45.6 43.25 45.6 41.2 L45.6 7.05 Q45.6 5.95 46.1 5.1 46.25 7.65 50.6 7.15 55.6 6.1 55.55 3.05 L55.8 2.95 M27.55 3.05 L28.05 3.5 Q29.8 4.95 29.8 7.05 L29.8 41.2 Q29.8 43.25 28.05 44.8 26.35 46.25 23.85 46.25 L23.2 46.25 Q20.7 46.25 18.95 44.8 17.2 43.25 17.2 41.2 L17.2 7.05 Q17.2 5.5 18.1 4.35 17.7 7.7 22.65 7.15 27.65 6.1 27.55 3.05" fill="#804d2b" fill-rule="evenodd" stroke="none"/>
    <path d="M18.1 4.35 Q17.2 5.5 17.2 7.05 L17.2 41.2 Q17.2 43.25 18.95 44.8 20.7 46.25 23.2 46.25 L23.85 46.25 Q26.35 46.25 28.05 44.8 29.8 43.25 29.8 41.2 L29.8 7.05 Q29.8 4.95 28.05 3.5 L27.55 3.05 Q26.0 1.95 23.85 1.95 L23.2 1.95 Q20.7 1.95 18.95 3.5 18.4 3.85 18.1 4.35" fill="none" stroke="#181512" stroke-linecap="butt" stroke-linejoin="miter-clip" stroke-miterlimit="3.0" stroke-opacity="0.3137255" stroke-width="2.0"/>
    <path d="M55.8 2.95 L56.55 3.5 Q58.25 4.95 58.25 7.05 L58.25 41.2 Q58.25 43.25 56.55 44.8 54.75 46.25 52.35 46.25 L51.6 46.25 Q49.2 46.25 47.4 44.8 45.6 43.25 45.6 41.2 L45.6 7.05 Q45.6 5.95 46.1 5.1 46.55 4.15 47.4 3.5 49.2 1.95 51.6 1.95 L52.35 1.95 Q54.3 1.95 55.8 2.95" fill="none" stroke="#181512" stroke-linecap="round" stroke-linejoin="miter-clip" stroke-miterlimit="3.0" stroke-opacity="0.3137255" stroke-width="2.0"/>
    <path d="M55.8 2.95 L55.55 3.05" fill="none" stroke="#181512" stroke-linecap="round" stroke-linejoin="miter-clip" stroke-miterlimit="3.0" stroke-opacity="0.3137255" stroke-width="2.0"/>
    <path d="M5.0 18.7 L9.9 13.85 Q10.25 13.6 10.55 13.5 L11.7 13.0 12.1 12.85 12.45 12.75 13.8 12.3 Q17.45 11.3 22.35 11.3 37.55 8.3 54.1 11.3 L59.2 11.6 Q61.9 12.0 64.05 12.75 67.1 13.8 69.15 15.6 70.65 16.85 71.65 18.5 69.95 18.1 69.25 20.35 69.7 23.35 70.2 35.15 L70.2 35.3 70.45 43.0 Q69.85 47.95 68.0 50.95 L67.75 51.4 67.65 51.55 67.65 51.5 66.25 53.05 64.15 54.4 64.05 53.8 64.05 54.45 Q63.55 54.95 62.6 55.15 L60.7 55.7 58.25 55.75 58.25 58.9 Q58.25 60.95 56.6 62.4 54.95 63.8 52.6 63.8 50.2 63.8 48.55 62.4 46.85 60.95 46.85 58.9 L46.85 56.8 28.95 56.8 28.95 58.9 Q28.95 60.95 27.25 62.4 25.6 63.8 23.25 63.8 20.85 63.8 19.15 62.4 17.5 60.95 17.5 58.9 L17.5 56.0 Q14.1 55.7 12.75 53.35 L12.45 52.75 12.45 52.15 10.25 51.1 9.05 50.5 Q6.2 46.25 7.1 36.1 L7.85 21.7 Q7.3 17.5 5.0 18.7 M66.25 43.75 L66.25 40.25 64.05 39.85 64.05 45.45 66.25 43.75" fill="#804d2b" fill-rule="evenodd" stroke="none"/>
    <path d="M66.25 53.05 L67.65 51.5 67.65 51.55 67.75 51.4 68.0 50.95 Q69.85 47.95 70.45 43.0 L70.2 35.3 70.2 35.15 Q69.7 23.35 69.25 20.35 69.95 18.1 71.65 18.5 74.05 22.2 74.05 28.0 L74.05 65.55 73.8 68.9 73.85 69.0 73.45 71.4 73.45 71.5 73.35 71.55 Q68.2 71.05 67.65 62.25 L67.65 62.2 66.25 53.05" fill="url(#gradient0)" fill-rule="evenodd" stroke="none"/>
    <path d="M5.0 18.7 Q7.3 17.5 7.85 21.7 L7.1 36.1 Q6.2 46.25 9.05 50.5 L10.25 51.1 9.05 61.25 Q8.05 71.0 3.3 71.55 2.5 68.85 2.5 65.55 L2.5 28.0 2.5 27.85 2.5 27.45 Q2.5 26.4 2.65 25.35 L2.65 25.2 2.75 24.9 2.75 24.7 Q3.05 23.0 3.5 21.45 L3.6 21.35 Q3.65 20.9 3.85 20.6 L3.85 20.5 3.95 20.3 4.5 19.15 5.0 18.7" fill="url(#gradient1)" fill-rule="evenodd" stroke="none"/>
    <path d="M12.45 52.75 L12.75 53.35 Q14.1 55.7 17.5 56.0 L17.5 58.9 Q17.5 60.95 19.15 62.4 20.85 63.8 23.25 63.8 25.6 63.8 27.25 62.4 28.95 60.95 28.95 58.9 L28.95 56.8 46.85 56.8 46.85 58.9 Q46.85 60.95 48.55 62.4 50.2 63.8 52.6 63.8 54.95 63.8 56.6 62.4 58.25 60.95 58.25 58.9 L58.25 55.75 60.7 55.7 62.6 55.15 Q63.55 54.95 64.05 54.45 L64.05 66.55 Q64.05 71.7 65.25 74.7 64.45 80.1 57.75 80.75 L17.1 80.75 Q11.4 80.1 10.8 75.75 12.45 72.7 12.45 66.55 L12.45 52.75" fill="url(#gradient2)" fill-rule="evenodd" stroke="none"/>
    <path d="M10.25 51.1 L12.45 52.15 12.45 52.75 12.45 66.55 Q12.45 72.7 10.8 75.75 9.65 77.8 7.75 78.35 10.55 74.65 10.25 70.3 L10.25 63.85 10.45 64.0 10.25 63.8 10.25 51.1 M64.05 54.45 L64.05 53.8 64.15 54.4 66.25 53.05 67.65 62.2 67.65 62.25 Q68.2 71.05 73.35 71.55 72.2 75.75 68.8 78.35 65.95 74.65 66.25 70.3 L66.25 53.1 66.25 70.3 Q65.95 74.65 68.8 78.35 66.4 77.7 65.25 74.7 64.05 71.7 64.05 66.55 L64.05 54.45" fill="url(#gradient3)" fill-rule="evenodd" stroke="none"/>
    <path d="M73.8 68.9 L73.85 68.85 73.85 69.0 73.8 68.9 M68.8 78.35 Q63.8 82.4 54.1 82.4 L22.35 82.4 Q12.7 82.4 7.75 78.35 4.25 75.75 3.1 71.55 L3.3 71.55 Q8.05 71.0 9.05 61.25 L10.25 51.1 10.25 63.8 10.45 64.0 10.25 63.85 10.25 70.3 Q10.55 74.65 7.75 78.35 9.65 77.8 10.8 75.75 11.4 80.1 17.1 80.75 L57.75 80.75 Q64.45 80.1 65.25 74.7 66.4 77.7 68.8 78.35" fill="#6c4124" fill-rule="evenodd" stroke="none"/>
    <path d="M66.25 43.75 L64.05 45.45 64.05 39.85 66.25 40.25 66.25 43.75 M7.75 78.35 Q10.55 74.65 10.25 70.3 L10.25 63.85 10.45 64.0 10.25 63.8 10.25 51.1 9.05 61.25 Q8.05 71.0 3.3 71.55 M66.25 53.05 L67.65 62.2 67.65 62.25 Q68.2 71.05 73.35 71.55 M73.85 69.0 L73.8 68.9" fill="none" stroke="#181512" stroke-linecap="butt" stroke-linejoin="miter-clip" stroke-miterlimit="3.0" stroke-opacity="0.3137255" stroke-width="2.0"/>
    <path d="M71.65 18.5 Q70.65 16.85 69.15 15.6 67.1 13.8 64.05 12.75 61.9 12.0 59.2 11.6 L54.1 11.3 Q37.55 8.3 22.35 11.3 17.45 11.3 13.8 12.3 L12.45 12.75 12.1 12.85 11.7 13.0 10.55 13.5 Q10.25 13.6 9.9 13.85 L5.0 18.7 Q7.3 17.5 7.85 21.7 L7.1 36.1 Q6.2 46.25 9.05 50.5 L10.25 51.1 12.45 52.15 12.45 52.75 12.75 53.35 Q14.1 55.7 17.5 56.0 L17.5 58.9 Q17.5 60.95 19.15 62.4 20.85 63.8 23.25 63.8 25.6 63.8 27.25 62.4 28.95 60.95 28.95 58.9 L28.95 56.8 46.85 56.8 46.85 58.9 Q46.85 60.95 48.55 62.4 50.2 63.8 52.6 63.8 54.95 63.8 56.6 62.4 58.25 60.95 58.25 58.9 L58.25 55.75 60.7 55.7 62.6 55.15 Q63.55 54.95 64.05 54.45 L64.05 53.8 64.15 54.4 66.25 53.05 67.65 51.5 67.65 51.55 67.75 51.4 68.0 50.95 Q69.85 47.95 70.45 43.0 L70.2 35.3 70.2 35.15 Q69.7 23.35 69.25 20.35 69.95 18.1 71.65 18.5" fill="none" stroke="#181512" stroke-linecap="round" stroke-linejoin="miter-clip" stroke-miterlimit="3.0" stroke-opacity="0.3137255" stroke-width="2.0"/>
    <path d="M71.65 18.5 Q74.05 22.2 74.05 28.0 L74.05 65.55 73.8 68.9" fill="none" stroke="#181512" stroke-linecap="round" stroke-linejoin="miter-clip" stroke-miterlimit="3.0" stroke-opacity="0.3137255" stroke-width="2.0"/>
    <path d="M73.85 69.0 L73.45 71.4 73.45 71.5 73.35 71.55 Q72.2 75.75 68.8 78.35 63.8 82.4 54.1 82.4 L22.35 82.4 Q12.7 82.4 7.75 78.35 4.25 75.75 3.1 71.55 L3.3 71.55 Q2.5 68.85 2.5 65.55 L2.5 28.0 2.5 27.85 2.5 27.45 Q2.5 26.4 2.65 25.35 L2.65 25.2 2.75 24.9 2.75 24.7 Q3.05 23.0 3.5 21.45 L3.6 21.35 Q3.65 20.9 3.85 20.6 L3.85 20.5 3.95 20.3 4.5 19.15 5.0 18.7" fill="none" stroke="#181512" stroke-linecap="butt" stroke-linejoin="miter-clip" stroke-miterlimit="3.0" stroke-opacity="0.3137255" stroke-width="2.0"/>
    <path d="M7.45 13.85 Q11.6 12.8 11.85 20.15 L11.9 40.0 11.9 40.4 Q11.6 48.2 22.65 50.7 L53.2 50.7 Q64.35 49.6 65.8 40.75 L65.8 18.0 Q66.4 13.85 69.45 13.55 L69.65 13.65 69.95 13.85 Q71.8 17.0 71.1 17.65 L69.1 15.5 Q68.3 16.3 68.05 18.2 L68.05 23.3 68.2 23.85 68.2 25.3 68.2 39.35 Q68.2 53.45 50.85 53.45 L26.55 53.45 Q10.9 53.45 9.35 42.0 L9.2 40.7 Q9.2 27.25 9.35 27.25 L9.35 18.2 Q9.1 16.3 8.25 15.5 L6.35 17.65 Q5.6 17.0 7.45 13.85" fill="url(#gradient4)" fill-rule="evenodd" stroke="none"/>
    <path d="M69.45 13.55 Q66.4 13.85 65.8 18.0 L65.8 40.75 Q64.35 49.6 53.2 50.7 L22.65 50.7 Q11.6 48.2 11.9 40.4 L11.9 40.0 11.85 20.15 Q11.6 12.8 7.45 13.85 16.3 8.4 38.5 7.8 L38.85 7.8 52.6 8.8 Q63.75 10.2 69.45 13.55" fill="url(#gradient5)" fill-rule="evenodd" stroke="none"/>
    <path d="M7.45 13.85 Q5.6 17.0 6.35 17.65 L8.25 15.5 Q9.1 16.3 9.35 18.2 L9.35 27.25 Q9.2 27.25 9.2 40.7 L9.35 42.0 Q10.9 53.45 26.55 53.45 L50.85 53.45 Q68.2 53.45 68.2 39.35 L68.2 25.3 68.2 23.85 68.05 23.3 68.05 18.2 Q68.3 16.3 69.1 15.5 L71.1 17.65 Q71.8 17.0 69.95 13.85 L69.65 13.65 69.45 13.55 Q63.75 10.2 52.6 8.8 L38.85 7.8 38.5 7.8 Q16.3 8.4 7.45 13.85 Z" fill="none" stroke="#181512" stroke-linecap="butt" stroke-linejoin="miter-clip" stroke-miterlimit="3.0" stroke-opacity="0.3137255" stroke-width="2.0"/>
    <path d="M50.1 27.7 L50.9 28.1 50.65 28.1 Q51.65 31.05 50.1 32.5 L39.85 41.6 Q38.3 43.05 36.75 41.6 L26.55 32.5 Q25.35 31.35 25.75 28.1 26.2 29.95 26.85 28.4 L36.75 20.5 Q38.3 19.15 39.85 20.5 L50.1 27.7 M41.75 26.15 Q40.85 26.15 40.2 26.75 39.55 27.35 39.55 28.15 L39.55 33.9 Q39.55 34.7 40.2 35.25 40.85 35.85 41.75 35.85 42.6 35.85 43.3 35.25 43.95 34.7 43.95 33.9 L43.95 28.15 Q43.95 27.35 43.3 26.75 42.6 26.15 41.75 26.15 M36.4 26.75 Q35.75 26.15 34.8 26.15 33.9 26.15 33.25 26.75 32.6 27.35 32.6 28.15 L32.6 33.9 Q32.6 34.7 33.25 35.25 33.9 35.85 34.8 35.85 35.75 35.85 36.4 35.25 37.05 34.7 37.05 33.9 L37.05 28.15 Q37.05 27.35 36.4 26.75" fill="#774411" fill-rule="evenodd" stroke="none"/>
    <path d="M41.7 23.0 Q40.8 23.0 40.2 23.6 39.55 24.2 39.55 25.0 L39.55 31.0 Q39.55 31.8 40.2 32.4 40.8 33.0 41.7 33.0 42.55 33.0 43.25 32.4 43.9 31.8 43.9 31.0 L43.9 25.0 Q43.9 24.2 43.25 23.6 42.55 23.0 41.7 23.0 M50.1 26.6 Q51.6 28.05 50.1 29.5 L39.75 38.95 Q38.25 40.4 36.7 38.95 L26.55 29.5 Q24.95 28.05 26.55 26.6 L36.7 17.15 Q38.25 15.75 39.75 17.15 L50.1 26.6 M33.25 23.6 Q32.55 24.2 32.55 25.0 L32.55 31.0 Q32.55 31.8 33.25 32.4 33.9 33.0 34.75 33.0 35.7 33.0 36.35 32.4 37.0 31.8 37.0 31.0 L37.0 25.0 Q37.0 24.2 36.35 23.6 35.7 23.0 34.75 23.0 33.9 23.0 33.25 23.6" fill="#fad8b8" fill-rule="evenodd" stroke="none"/>
    <path d="M19.1 40.35 Q20.8 38.65 23.2 38.65 25.55 38.65 27.2 40.35 28.9 42.15 28.9 44.75 L28.9 54.1 Q28.9 56.7 27.2 58.5 25.55 60.3 23.2 60.3 20.8 60.3 19.1 58.5 17.5 56.7 17.5 54.1 L17.5 44.75 Q17.5 42.15 19.1 40.35 M52.5 38.65 Q54.9 38.65 56.6 40.35 58.25 42.15 58.25 44.75 L58.25 54.1 Q58.25 56.7 56.6 58.5 54.9 60.3 52.5 60.3 50.15 60.3 48.5 58.5 46.8 56.7 46.8 54.1 L46.8 44.75 Q46.8 42.15 48.5 40.35 50.15 38.65 52.5 38.65" fill="#5e3922" fill-rule="evenodd" stroke="none"/>
    <path d="M18.55 44.85 Q18.55 42.6 19.95 41.2 21.3 39.75 23.3 39.75 25.25 39.75 26.7 41.2 28.1 42.6 28.1 44.85 L28.1 50.3 Q28.1 52.4 26.7 53.8 25.25 55.35 23.3 55.35 21.3 55.35 19.95 53.8 18.55 52.4 18.55 50.3 L18.55 44.85 M47.8 44.85 Q47.8 42.6 49.2 41.2 50.6 39.75 52.55 39.75 54.6 39.75 55.95 41.2 57.25 42.6 57.25 44.85 L57.25 50.3 Q57.25 52.4 55.95 53.8 54.6 55.35 52.55 55.35 50.6 55.35 49.2 53.8 47.8 52.4 47.8 50.3 L47.8 44.85" fill="#fad8b8" fill-rule="evenodd" stroke="none"/>
    <path d="M47.8 44.85 L47.8 50.3 Q47.8 52.4 49.2 53.8 50.6 55.35 52.55 55.35 54.6 55.35 55.95 53.8 57.25 52.4 57.25 50.3 L57.25 44.85 Q57.25 42.6 55.95 41.2 54.6 39.75 52.55 39.75 50.6 39.75 49.2 41.2 47.8 42.6 47.8 44.85 M18.55 44.85 L18.55 50.3 Q18.55 52.4 19.95 53.8 21.3 55.35 23.3 55.35 25.25 55.35 26.7 53.8 28.1 52.4 28.1 50.3 L28.1 44.85 Q28.1 42.6 26.7 41.2 25.25 39.75 23.3 39.75 21.3 39.75 19.95 41.2 18.55 42.6 18.55 44.85 Z" fill="none" stroke="#181512" stroke-linecap="butt" stroke-linejoin="miter-clip" stroke-miterlimit="3.0" stroke-opacity="0.3137255" stroke-width="2.0"/>
  </g>
  <defs>
    <linearGradient gradientTransform="matrix(0.0187, -0.0084, 0.0123, 0.0275, 74.25, 39.35)" gradientUnits="userSpaceOnUse" id="gradient0" spreadMethod="pad" x1="-819.2" x2="819.2">
      <stop offset="0.0" stop-color="#824217"/>
      <stop offset="0.6470588235294118" stop-color="#de9143"/>
      <stop offset="0.9568627450980393" stop-color="#dfad7d"/>
    </linearGradient>
    <linearGradient gradientTransform="matrix(-0.0175, -0.0117, 0.0183, -0.0272, 20.15, 15.7)" gradientUnits="userSpaceOnUse" id="gradient1" spreadMethod="pad" x1="-819.2" x2="819.2">
      <stop offset="0.0" stop-color="#824217"/>
      <stop offset="0.6470588235294118" stop-color="#de9143"/>
      <stop offset="0.9568627450980393" stop-color="#dfad7d"/>
    </linearGradient>
    <linearGradient gradientTransform="matrix(0.0, -0.015, 0.0328, 0.0, 29.05, 69.45)" gradientUnits="userSpaceOnUse" id="gradient2" spreadMethod="pad" x1="-819.2" x2="819.2">
      <stop offset="0.0" stop-color="#824217"/>
      <stop offset="0.6470588235294118" stop-color="#de9143"/>
      <stop offset="0.9568627450980393" stop-color="#dfad7d"/>
    </linearGradient>
    <linearGradient gradientTransform="matrix(0.0, -0.0519, 0.0329, 0.0, 38.05, 62.8)" gradientUnits="userSpaceOnUse" id="gradient3" spreadMethod="pad" x1="-819.2" x2="819.2">
      <stop offset="0.0" stop-color="#f89129"/>
      <stop offset="1.0" stop-color="#f3d5b6"/>
    </linearGradient>
    <linearGradient gradientTransform="matrix(0.0, -0.0519, 0.0329, 0.0, 38.05, 52.25)" gradientUnits="userSpaceOnUse" id="gradient4" spreadMethod="pad" x1="-819.2" x2="819.2">
      <stop offset="0.0" stop-color="#f89129"/>
      <stop offset="1.0" stop-color="#f3d5b6"/>
    </linearGradient>
    <linearGradient gradientTransform="matrix(0.0, -0.0257, 0.0329, 0.0, 35.1, 31.3)" gradientUnits="userSpaceOnUse" id="gradient5" spreadMethod="pad" x1="-819.2" x2="819.2">
      <stop offset="0.0" stop-color="#824217"/>
      <stop offset="0.6470588235294118" stop-color="#de9143"/>
      <stop offset="0.9568627450980393" stop-color="#dfad7d"/>
    </linearGradient>
  </defs>
</svg>
