<?xml version="1.0" encoding="UTF-8" standalone="no"?>
<svg xmlns:ffdec="https://www.free-decompiler.com/flash" xmlns:xlink="http://www.w3.org/1999/xlink" ffdec:objectType="shape" height="21.9px" width="19.85px" xmlns="http://www.w3.org/2000/svg">
  <g transform="matrix(1.0, 0.0, 0.0, 1.0, 9.85, 10.35)">
    <path d="M0.3 -9.35 L3.5 -9.0 4.0 -8.8 Q5.95 -8.45 7.5 -7.65 L9.0 -6.9 Q9.2 -2.0 7.5 1.95 L5.55 5.55 3.4 7.95 0.0 10.55 -3.25 7.95 -3.6 7.55 Q-5.4 5.85 -6.55 3.65 L-7.45 1.85 Q-8.65 -1.15 -8.85 -4.55 L-8.85 -6.9 -7.45 -7.65 Q-4.1 -9.3 0.0 -9.35 L0.3 -9.35" fill="#2b1509" fill-rule="evenodd" stroke="none"/>
    <path d="M0.3 -9.35 L0.0 -9.35 Q-4.1 -9.3 -7.45 -7.65 L-8.85 -6.9 -8.85 -4.55 Q-8.65 -1.15 -7.45 1.85 L-6.55 3.65 Q-5.4 5.85 -3.6 7.55 L-3.25 7.95 0.0 10.55 3.4 7.95 5.55 5.55 7.5 1.95 Q9.2 -2.0 9.0 -6.9 L7.5 -7.65 Q5.95 -8.45 4.0 -8.8 L3.5 -9.0 0.3 -9.35 Z" fill="none" stroke="#2b1509" stroke-linecap="butt" stroke-linejoin="round" stroke-width="2.0"/>
    <path d="M-7.05 2.65 L-7.45 1.95 Q-8.65 -1.0 -8.85 -4.55 L-8.95 -6.7 -8.85 -6.8 -7.45 -7.55 Q-4.1 -9.05 0.0 -9.3 L0.25 -9.3 4.0 -8.7 Q5.8 -8.35 7.5 -7.55 L9.0 -6.7 8.0 -4.45 8.0 -5.8 7.9 -5.9 7.5 -6.15 7.4 -6.3 7.4 -6.15 Q5.95 -7.05 4.0 -7.55 L0.25 -8.0 -0.25 -8.0 -3.95 -7.55 Q-5.85 -7.05 -7.45 -6.15 L-7.85 -5.9 -7.95 -5.8 -7.95 -5.7 Q-8.05 -3.3 -7.45 -1.0 -6.95 1.1 -5.95 2.95 L-7.05 2.65" fill="#d9e9ea" fill-rule="evenodd" stroke="none"/>
    <path d="M-5.95 2.95 Q-6.95 1.1 -7.45 -1.0 -8.05 -3.3 -7.95 -5.7 L-7.95 -5.8 -7.85 -5.9 -7.45 -6.15 Q-5.85 -7.05 -3.95 -7.55 L-0.25 -8.0 0.25 -8.0 4.0 -7.55 Q5.95 -7.05 7.4 -6.15 L7.4 -6.3 7.5 -6.15 7.9 -5.9 8.0 -5.8 8.0 -4.45 7.5 -3.45 7.5 -5.0 7.5 -5.65 7.1 -5.8 Q5.7 -6.65 4.0 -7.0 L3.5 -7.15 0.25 -7.55 -0.25 -7.55 -3.45 -7.15 -3.95 -7.0 Q-5.85 -6.55 -7.45 -5.65 L-7.45 -4.9 Q-7.35 -0.55 -5.25 3.0 L-5.65 2.95 -5.95 2.95" fill="#689aa3" fill-rule="evenodd" stroke="none"/>
    <path d="M0.25 -6.9 L0.25 -7.55 3.5 -7.15 3.5 -6.45 0.25 -6.9 M-0.25 -7.55 L-0.25 -6.9 -3.45 -6.45 -3.45 -7.15 -0.25 -7.55 M-0.25 2.85 L-0.25 3.2 -0.15 3.2 -0.5 3.35 -0.65 3.65 -0.75 3.95 -0.5 4.45 -0.15 4.55 -0.25 4.65 -0.25 8.3 -0.5 8.0 -3.35 5.45 -3.35 3.2 -0.25 2.85 M0.25 3.2 L0.25 2.65 0.3 2.65 Q2.1 2.2 3.5 1.2 L3.5 5.45 0.25 8.3 0.25 4.65 0.7 4.45 0.9 3.95 0.9 3.65 0.7 3.35 0.25 3.2 M4.0 -6.35 L4.0 -7.0 Q5.7 -6.65 7.1 -5.8 L7.5 -5.65 7.5 -5.0 7.1 -5.15 Q5.7 -5.9 4.0 -6.35 M4.0 0.7 Q6.0 -0.8 7.5 -3.35 L7.4 -2.65 Q6.85 0.85 4.9 3.65 L4.3 4.65 4.0 4.95 4.0 0.7 M-7.45 -4.9 L-7.45 -5.65 Q-5.85 -6.55 -3.95 -7.0 L-3.95 -6.35 -7.45 -4.9 M-3.95 3.1 L-3.95 4.95 -5.25 3.0 -3.95 3.1" fill="#58382b" fill-rule="evenodd" stroke="none"/>
    <path d="M-0.25 -6.9 L-0.25 2.85 -3.35 3.2 -3.35 -2.65 -3.05 -2.8 -2.8 -3.35 -2.85 -3.65 -3.05 -3.9 -3.35 -4.05 -3.45 -6.45 -0.25 -6.9 M0.25 2.65 L0.25 -6.9 3.5 -6.45 3.5 -4.05 3.6 -4.05 3.25 -3.9 3.1 -3.65 3.0 -3.35 3.25 -2.8 3.5 -2.65 3.5 1.2 Q2.1 2.2 0.3 2.65 L0.25 2.65 M4.65 -3.65 L4.4 -3.9 4.0 -4.05 4.0 -4.15 4.0 -6.35 Q5.7 -5.9 7.1 -5.15 L7.5 -5.0 7.5 -3.45 7.5 -3.35 Q6.0 -0.8 4.0 0.7 L4.0 -2.65 4.4 -2.8 4.7 -3.35 4.65 -3.65 M-5.25 3.0 Q-7.35 -0.55 -7.45 -4.9 L-3.95 -6.35 -3.95 -4.05 -4.25 -3.9 -4.35 -3.65 -4.5 -3.35 -4.25 -2.8 -3.95 -2.65 -3.95 3.1 -5.25 3.0" fill="#a1664c" fill-rule="evenodd" stroke="none"/>
    <path d="M0.25 -7.55 L0.25 -6.9 0.25 2.65 0.25 3.2 -0.15 3.2 -0.25 3.2 -0.25 2.85 -0.25 -6.9 -0.25 -7.55 0.25 -7.55 M3.5 -6.45 L3.5 -7.15 4.0 -7.0 4.0 -6.35 4.0 -4.15 3.75 -4.15 3.6 -4.05 3.5 -4.05 3.5 -6.45 M4.0 -2.65 L4.0 0.7 4.0 4.95 3.5 5.45 3.5 1.2 3.5 -2.65 4.0 -2.65 M-3.95 -7.0 L-3.45 -7.15 -3.45 -6.45 -3.35 -4.05 -3.45 -4.15 -3.65 -4.15 -3.95 -4.05 -3.95 -6.35 -3.95 -7.0 M0.25 4.65 L0.25 8.3 0.0 8.45 -0.25 8.3 -0.25 4.65 -0.15 4.55 0.0 4.65 0.25 4.65 M-3.95 -2.65 L-3.35 -2.65 -3.35 3.2 -3.35 5.45 -3.6 5.35 -3.6 5.3 -3.95 4.95 -3.95 3.1 -3.95 -2.65" fill="#492c25" fill-rule="evenodd" stroke="none"/>
    <path d="M-0.15 3.2 L0.25 3.2 0.7 3.35 0.9 3.65 0.7 3.95 0.15 4.2 0.0 4.2 -0.5 3.95 -0.65 3.65 -0.5 3.35 -0.15 3.2 M3.1 -3.65 L3.25 -3.9 3.6 -4.05 3.75 -4.15 4.0 -4.15 4.0 -4.05 4.4 -3.9 4.65 -3.65 4.4 -3.35 3.9 -3.05 3.8 -3.05 Q3.5 -3.05 3.25 -3.35 L3.1 -3.65 M-2.85 -3.65 L-3.05 -3.35 Q-3.25 -3.05 -3.6 -3.05 L-3.65 -3.05 Q-3.95 -3.05 -4.25 -3.35 L-4.35 -3.65 -4.25 -3.9 -3.95 -4.05 -3.65 -4.15 -3.45 -4.15 -3.35 -4.05 -3.05 -3.9 -2.85 -3.65" fill="#ffcc33" fill-rule="evenodd" stroke="none"/>
    <path d="M3.5 -2.65 L3.25 -2.8 3.0 -3.35 3.1 -3.65 3.25 -3.35 Q3.5 -3.05 3.8 -3.05 L3.9 -3.05 4.4 -3.35 4.65 -3.65 4.7 -3.35 4.4 -2.8 4.0 -2.65 3.5 -2.65 M0.9 3.65 L0.9 3.95 0.7 4.45 0.25 4.65 0.0 4.65 -0.15 4.55 -0.5 4.45 -0.75 3.95 -0.65 3.65 -0.5 3.95 0.0 4.2 0.15 4.2 0.7 3.95 0.9 3.65 M-3.95 -2.65 L-4.25 -2.8 -4.5 -3.35 -4.35 -3.65 -4.25 -3.35 Q-3.95 -3.05 -3.65 -3.05 L-3.6 -3.05 Q-3.25 -3.05 -3.05 -3.35 L-2.85 -3.65 -2.8 -3.35 -3.05 -2.8 -3.35 -2.65 -3.95 -2.65" fill="#d7aa31" fill-rule="evenodd" stroke="none"/>
    <path d="M7.5 -3.35 L7.5 -3.45 8.0 -4.45 7.5 -0.8 Q6.9 1.65 5.6 3.65 L3.8 5.95 0.0 8.95 -0.15 8.85 -3.65 5.95 -5.95 2.95 -5.65 2.95 -5.25 3.0 -3.95 4.95 -3.6 5.3 -3.6 5.35 -3.35 5.45 -0.5 8.0 -0.25 8.3 0.0 8.45 0.25 8.3 3.5 5.45 4.0 4.95 4.3 4.65 4.9 3.65 Q6.85 0.85 7.4 -2.65 L7.5 -3.35" fill="#477074" fill-rule="evenodd" stroke="none"/>
    <path d="M-7.05 2.65 L-5.95 2.95 -3.65 5.95 -0.15 8.85 0.0 8.95 3.8 5.95 5.6 3.65 Q6.9 1.65 7.5 -0.8 L8.0 -4.45 9.0 -6.7 Q9.1 -1.8 7.5 2.0 L5.4 5.65 3.4 8.0 0.0 10.65 -3.65 7.65 Q-5.45 5.85 -6.55 3.65 L-7.05 2.65" fill="#83b7be" fill-rule="evenodd" stroke="none"/>
  </g>
</svg>
