<?xml version="1.0" encoding="UTF-8" standalone="no"?>
<svg xmlns:ffdec="https://www.free-decompiler.com/flash" xmlns:xlink="http://www.w3.org/1999/xlink" ffdec:objectType="shape" height="29.4px" width="37.8px" xmlns="http://www.w3.org/2000/svg">
  <g transform="matrix(1.0, 0.0, 0.0, 1.0, 1.0, 0.95)">
    <path d="M19.3 19.45 L19.3 20.05 19.9 20.3 19.9 20.35 20.05 20.45 20.6 21.0 Q21.0 21.35 21.7 21.6 L24.15 22.75 24.3 22.8 25.05 23.2 25.45 23.5 25.7 24.15 Q25.9 25.55 24.1 26.25 23.55 26.55 22.95 26.8 L17.9 27.45 12.85 26.8 12.1 26.5 11.7 26.25 Q9.95 25.55 10.1 24.15 L10.4 23.5 11.5 22.8 Q13.15 22.25 14.2 21.6 L14.85 21.25 15.2 21.0 15.75 20.5 15.8 20.5 15.85 20.4 15.85 20.3 Q16.0 20.15 16.5 20.05 L16.5 19.45 19.3 19.45 M2.9 13.2 L2.05 12.5 1.6 12.0 1.5 11.8 0.7 10.5 0.65 10.45 Q0.15 9.55 0.05 8.5 L0.0 8.05 Q0.0 6.1 1.3 4.9 2.05 4.0 2.9 3.7 L2.9 6.35 Q2.15 7.1 2.2 8.4 L2.45 9.45 2.5 9.6 2.9 10.3 2.9 13.2" fill="#2b1509" fill-rule="evenodd" stroke="none"/>
    <path d="M2.9 3.7 Q3.3 3.5 3.8 3.45 L4.2 3.4 5.3 3.6 5.6 3.7 5.65 3.75 6.8 4.5 6.8 4.55 7.4 5.15 7.6 5.5 8.1 3.0 8.15 3.0 8.15 2.7 8.25 2.55 8.3 2.5 8.6 2.05 Q8.95 1.65 9.65 1.35 L10.0 1.2 10.25 1.1 11.25 0.8 17.9 0.05 23.25 0.5 24.5 0.8 Q26.4 1.3 27.15 2.0 L27.15 17.2 26.4 16.9 Q26.1 16.65 25.9 16.05 L25.9 15.65 25.25 16.25 25.15 16.3 24.9 16.55 23.25 17.55 20.6 18.5 19.3 18.7 19.3 19.45 16.5 19.45 16.5 18.7 15.2 18.5 12.8 17.7 Q11.45 17.05 10.25 16.0 L10.0 15.75 9.9 15.65 9.9 16.05 9.4 16.9 8.6 17.25 Q7.55 17.45 6.9 16.7 L6.8 16.55 6.8 16.5 6.75 16.45 6.55 16.1 6.55 16.0 Q6.45 15.7 6.5 15.4 L6.55 15.25 6.55 15.2 6.9 14.75 7.05 14.65 Q7.1 14.55 7.25 14.5 L7.1 14.45 6.9 14.45 6.8 14.4 6.7 14.4 6.55 14.35 6.5 14.35 6.25 14.3 6.2 14.3 4.25 13.9 3.8 13.75 2.9 13.2 2.9 10.3 3.8 11.25 Q4.5 11.75 5.6 12.0 L6.4 12.1 6.9 12.2 Q7.65 12.3 8.3 12.65 L7.95 11.65 7.65 10.2 6.9 10.5 6.8 10.5 6.75 10.5 Q6.2 10.6 5.6 10.0 L5.45 9.85 5.2 9.15 5.2 9.05 5.3 8.6 5.5 8.4 5.6 8.25 Q5.75 8.1 5.95 8.1 L6.05 8.05 6.1 8.05 6.3 8.15 6.3 7.7 6.2 7.1 5.65 6.3 5.6 6.2 5.35 6.1 5.3 6.1 3.8 5.9 Q3.55 5.95 3.35 6.1 L3.1 6.2 2.9 6.35 2.9 3.7" fill="#ffcc00" fill-rule="evenodd" stroke="none"/>
    <path d="M2.9 3.7 Q3.3 3.5 3.8 3.45 L4.2 3.4 5.3 3.6 5.6 3.7 5.65 3.75 6.8 4.5 6.8 4.55 7.4 5.15 7.6 5.5 8.1 3.0 8.15 3.0 8.15 2.7 8.25 2.55 8.3 2.5 8.6 2.05 Q8.95 1.65 9.65 1.35 L10.0 1.2 10.25 1.1 11.25 0.8 17.9 0.05 23.25 0.5 24.5 0.8 Q26.4 1.3 27.15 2.0 M27.15 17.2 L26.4 16.9 Q26.1 16.65 25.9 16.05 L25.9 15.65 25.25 16.25 25.15 16.3 24.9 16.55 23.25 17.55 20.6 18.5 19.3 18.7 19.3 19.45 19.3 20.05 19.9 20.3 19.9 20.35 20.05 20.45 20.6 21.0 Q21.0 21.35 21.7 21.6 L24.15 22.75 24.3 22.8 25.05 23.2 25.45 23.5 25.7 24.15 Q25.9 25.55 24.1 26.25 23.55 26.55 22.95 26.8 L17.9 27.45 12.85 26.8 12.1 26.5 11.7 26.25 Q9.95 25.55 10.1 24.15 L10.4 23.5 11.5 22.8 Q13.15 22.25 14.2 21.6 L14.85 21.25 15.2 21.0 15.75 20.5 15.8 20.5 15.85 20.4 15.85 20.3 Q16.0 20.15 16.5 20.05 L16.5 19.45 16.5 18.7 15.2 18.5 12.8 17.7 Q11.45 17.05 10.25 16.0 L10.0 15.75 9.9 15.65 9.9 16.05 9.4 16.9 8.6 17.25 Q7.55 17.45 6.9 16.7 L6.8 16.55 6.8 16.5 6.75 16.45 6.55 16.1 6.55 16.0 Q6.45 15.7 6.5 15.4 L6.55 15.25 6.55 15.2 6.9 14.75 7.05 14.65 Q7.1 14.55 7.25 14.5 L7.1 14.45 6.9 14.45 6.8 14.4 6.7 14.4 6.55 14.35 6.5 14.35 6.25 14.3 6.2 14.3 4.25 13.9 3.8 13.75 2.9 13.2 2.05 12.5 1.6 12.0 1.5 11.8 0.7 10.5 0.65 10.45 Q0.15 9.55 0.05 8.5 L0.0 8.05 Q0.0 6.1 1.3 4.9 2.05 4.0 2.9 3.7 M2.9 6.35 L3.1 6.2 3.35 6.1 Q3.55 5.95 3.8 5.9 L5.3 6.1 5.35 6.1 5.6 6.2 5.65 6.3 6.2 7.1 6.3 7.7 6.3 8.15 6.1 8.05 6.05 8.05 5.95 8.1 Q5.75 8.1 5.6 8.25 L5.5 8.4 5.3 8.6 5.2 9.05 5.2 9.15 5.45 9.85 5.6 10.0 Q6.2 10.6 6.75 10.5 L6.8 10.5 6.9 10.5 7.65 10.2 7.95 11.65 8.3 12.65 Q7.65 12.3 6.9 12.2 L6.4 12.1 5.6 12.0 Q4.5 11.75 3.8 11.25 L2.9 10.3 2.5 9.6 2.45 9.45 2.2 8.4 Q2.15 7.1 2.9 6.35 Z" fill="none" stroke="#2b1509" stroke-linecap="round" stroke-linejoin="bevel" stroke-width="2.0"/>
    <path d="M8.05 2.95 Q8.05 3.55 8.6 4.1 L9.65 4.7 10.0 4.85 10.25 4.95 11.2 5.2 16.75 5.9 22.55 5.55 Q24.05 11.55 20.75 14.6 L19.45 15.5 19.35 15.55 Q16.25 16.95 13.55 16.15 11.85 15.65 10.25 14.3 L10.0 14.05 9.65 13.75 8.6 12.6 Q8.95 13.65 9.65 14.6 L10.0 15.1 10.25 15.4 11.05 16.2 12.85 17.2 Q15.5 18.5 18.15 18.25 L18.25 18.3 Q22.15 18.15 24.7 15.95 L24.85 15.8 24.9 15.7 25.65 14.95 Q26.65 13.45 27.15 11.65 L27.15 13.45 26.3 14.9 26.05 15.35 25.85 15.5 25.2 16.2 25.1 16.2 24.85 16.45 23.2 17.5 Q21.95 18.15 20.5 18.4 L19.2 18.6 16.45 18.6 15.1 18.4 12.7 17.65 9.8 15.5 9.65 15.3 8.6 13.55 7.9 11.6 Q6.7 7.85 8.05 2.95 M24.95 23.1 L25.4 23.45 25.15 24.1 24.2 25.0 22.65 25.7 17.85 26.25 13.05 25.7 12.05 25.3 11.7 25.1 11.45 25.0 10.5 24.1 Q10.25 23.75 10.3 23.45 10.7 23.05 11.45 22.75 L14.75 21.2 14.8 21.25 Q16.1 22.1 17.55 22.6 L16.4 24.2 15.15 25.3 20.35 25.45 Q23.9 25.1 24.95 23.1 M11.1 7.6 Q10.35 8.35 10.35 9.4 10.35 10.55 11.1 11.4 11.8 12.35 12.95 12.45 14.0 12.55 14.7 11.8 15.5 11.15 15.5 10.05 15.5 8.85 14.7 8.05 14.0 7.15 12.95 7.05 11.8 6.9 11.1 7.6" fill="#ffcc00" fill-rule="evenodd" stroke="none"/>
    <path d="M8.05 2.95 L8.05 2.6 8.15 2.45 8.2 2.4 8.6 1.95 9.65 1.3 10.0 1.15 10.25 1.05 11.2 0.75 14.25 0.2 17.85 0.0 23.2 0.4 24.45 0.75 Q26.4 1.25 27.15 1.95 L27.15 4.0 Q26.4 4.7 24.45 5.2 L22.55 5.55 16.75 5.9 11.2 5.2 10.25 4.95 10.0 4.85 9.65 4.7 8.6 4.1 Q8.05 3.55 8.05 2.95 M19.3 4.8 L23.2 4.4 24.25 4.1 Q26.5 3.55 26.65 3.0 26.5 2.3 24.25 1.55 L23.2 1.2 19.3 0.65 18.1 0.65 17.25 0.65 16.75 0.65 14.25 0.85 Q12.65 1.05 11.45 1.55 L10.25 2.0 10.0 2.15 9.65 2.3 Q9.05 2.65 9.0 3.0 L9.65 3.55 10.0 3.7 10.25 3.8 11.45 4.1 16.75 4.8 17.6 4.8 18.4 4.8 19.3 4.8" fill="#fdeba3" fill-rule="evenodd" stroke="none"/>
    <path d="M22.55 5.55 L24.45 5.2 Q26.4 4.7 27.15 4.0 L27.15 11.65 Q26.65 13.45 25.65 14.95 L24.9 15.7 24.85 15.8 24.7 15.95 Q22.15 18.15 18.25 18.3 L18.15 18.25 Q15.5 18.5 12.85 17.2 L11.05 16.2 10.25 15.4 10.0 15.1 9.65 14.6 Q8.95 13.65 8.6 12.6 L9.65 13.75 10.0 14.05 10.25 14.3 Q11.85 15.65 13.55 16.15 16.25 16.95 19.35 15.55 L19.45 15.5 20.75 14.6 Q24.05 11.55 22.55 5.55 M24.1 22.7 L24.25 22.75 24.95 23.1 Q23.9 25.1 20.35 25.45 L15.15 25.3 16.4 24.2 17.55 22.6 20.0 23.05 24.1 22.7 M25.4 23.45 L25.65 24.1 Q25.8 25.45 24.05 26.2 L22.9 26.7 20.35 27.2 17.85 27.35 12.75 26.7 12.05 26.45 11.65 26.2 Q9.9 25.45 10.05 24.1 10.1 23.75 10.3 23.45 10.25 23.75 10.5 24.1 L11.45 25.0 11.7 25.1 12.05 25.3 13.05 25.7 17.85 26.25 22.65 25.7 24.2 25.0 25.15 24.1 25.4 23.45 M19.3 0.65 L23.2 1.2 24.25 1.55 Q26.5 2.3 26.65 3.0 26.5 3.55 24.25 4.1 L23.2 4.4 19.3 4.8 19.3 0.65 M18.4 4.8 L17.6 4.8 Q17.1 3.0 17.25 0.65 L18.1 0.65 Q17.95 2.7 18.4 4.8" fill="#d58000" fill-rule="evenodd" stroke="none"/>
    <path d="M19.2 18.6 L19.2 19.95 19.2 20.35 Q19.25 20.55 18.7 20.65 L17.85 20.75 16.95 20.65 16.45 20.35 16.45 19.95 16.45 18.6 19.2 18.6 M19.85 20.3 L20.0 20.4 20.5 20.9 21.6 21.55 24.1 22.7 20.0 23.05 17.55 22.6 Q16.1 22.1 14.8 21.25 L14.75 21.2 15.7 20.45 15.75 20.5 Q15.7 20.85 16.45 21.1 L17.85 21.3 19.2 21.1 Q19.95 20.85 19.9 20.5 L19.85 20.3 M19.3 4.8 L18.4 4.8 Q17.95 2.7 18.1 0.65 L19.3 0.65 19.3 4.8 M17.6 4.8 L16.75 4.8 11.45 4.1 10.25 3.8 10.0 3.7 9.65 3.55 9.0 3.0 Q9.05 2.65 9.65 2.3 L10.0 2.15 10.25 2.0 11.45 1.55 Q12.65 1.05 14.25 0.85 L16.75 0.65 17.25 0.65 Q17.1 3.0 17.6 4.8" fill="#a96501" fill-rule="evenodd" stroke="none"/>
    <path d="M11.1 7.6 Q11.8 6.9 12.95 7.05 14.0 7.15 14.7 8.05 15.5 8.85 15.5 10.05 15.5 11.15 14.7 11.8 14.0 12.55 12.95 12.45 11.8 12.35 11.1 11.4 10.35 10.55 10.35 9.4 10.35 8.35 11.1 7.6" fill="#fede5f" fill-rule="evenodd" stroke="none"/>
    <path d="M19.2 19.95 Q19.75 20.05 19.85 20.25 L19.85 20.3 19.9 20.5 Q19.95 20.85 19.2 21.1 L17.85 21.3 16.45 21.1 Q15.7 20.85 15.75 20.5 L15.75 20.45 15.8 20.35 15.8 20.25 Q15.95 20.05 16.45 19.95 L16.45 20.35 16.95 20.65 17.85 20.75 18.7 20.65 Q19.25 20.55 19.2 20.35 L19.2 19.95" fill="#efbd00" fill-rule="evenodd" stroke="none"/>
    <path d="M15.7 20.45 L15.75 20.45 15.75 20.5 15.7 20.45" fill="#b45100" fill-rule="evenodd" stroke="none"/>
    <path d="M1.4 11.75 L0.85 10.95 0.65 10.45 0.6 10.35 Q0.1 9.5 0.0 8.45 L0.0 8.0 Q0.0 6.1 1.25 4.8 2.3 3.55 3.7 3.4 L4.15 3.4 5.25 3.55 5.6 3.7 6.75 4.45 6.75 4.5 7.3 5.1 7.7 5.7 6.9 5.0 Q6.3 4.6 5.3 4.35 3.2 4.15 1.75 5.6 -0.2 7.65 1.4 11.75 M5.1 9.0 L5.25 8.6 5.25 8.55 5.35 8.4 5.4 8.4 5.55 8.2 5.65 8.2 Q5.85 8.2 6.05 8.35 L6.25 8.75 6.05 9.15 Q5.85 9.35 5.65 9.35 5.45 9.35 5.25 9.15 L5.1 9.0" fill="#fdeba3" fill-rule="evenodd" stroke="none"/>
    <path d="M6.2 7.6 L6.05 7.0 5.6 6.25 5.25 6.05 5.25 6.0 3.7 5.85 3.25 6.0 3.0 6.2 Q2.05 6.9 2.2 8.4 L2.4 9.4 2.45 9.55 2.7 10.05 3.7 11.2 Q4.45 11.7 5.5 11.9 L6.3 12.05 6.9 12.15 Q7.65 12.25 8.2 12.65 L8.25 12.65 8.45 12.8 9.35 13.85 9.45 14.0 9.5 14.1 9.55 14.15 9.6 14.4 9.75 14.8 9.65 15.4 Q9.4 16.4 8.6 16.7 L6.9 16.5 6.75 16.45 6.5 16.05 6.5 15.95 Q6.35 15.65 6.45 15.35 L6.5 15.2 6.5 15.15 6.9 14.65 6.95 14.6 7.15 14.45 Q8.2 14.35 8.6 15.4 L8.65 15.5 Q9.1 15.25 8.6 14.55 8.25 14.15 7.4 13.95 L6.9 13.9 Q4.25 13.65 2.0 12.45 L1.55 11.9 1.4 11.75 Q-0.2 7.65 1.75 5.6 3.2 4.15 5.3 4.35 6.3 4.6 6.9 5.0 L7.7 5.7 7.7 5.75 7.85 6.0 8.2 7.35 8.25 7.8 Q7.95 9.7 6.9 10.0 L5.35 9.8 5.1 9.05 5.1 9.0 5.25 9.15 Q5.45 9.35 5.65 9.35 5.85 9.35 6.05 9.15 L6.25 8.75 6.05 8.35 Q5.85 8.2 5.65 8.2 L5.55 8.2 Q5.65 8.05 5.85 8.05 L5.95 8.0 6.0 8.0 6.2 8.1 Q6.75 8.25 6.9 8.55 L6.95 8.7 6.95 8.6 6.9 8.3 Q6.75 7.8 6.2 7.6" fill="#ffcc00" fill-rule="evenodd" stroke="none"/>
    <path d="M9.75 14.8 L9.85 15.35 9.8 16.0 9.35 16.85 8.5 17.25 Q7.5 17.4 6.9 16.65 L6.75 16.45 6.9 16.5 8.6 16.7 Q9.4 16.4 9.65 15.4 L9.75 14.8 M7.15 14.45 L6.9 14.4 6.75 14.35 6.65 14.3 6.4 14.3 6.15 14.25 6.1 14.25 4.15 13.85 2.95 13.25 2.0 12.45 Q4.25 13.65 6.9 13.9 L7.4 13.95 Q8.25 14.15 8.6 14.55 9.1 15.25 8.65 15.5 L8.6 15.4 Q8.2 14.35 7.15 14.45 M8.25 7.8 L8.2 8.75 8.0 9.5 Q7.45 10.4 6.9 10.45 L6.75 10.45 6.7 10.45 Q6.05 10.6 5.5 9.95 L5.35 9.8 6.9 10.0 Q7.95 9.7 8.25 7.8 M6.2 8.1 L6.2 7.6 Q6.75 7.8 6.9 8.3 L6.95 8.6 6.95 8.7 6.9 8.55 Q6.75 8.25 6.2 8.1" fill="#d58000" fill-rule="evenodd" stroke="none"/>
    <path d="M32.7 6.1 L32.9 6.25 Q33.65 7.0 33.6 8.3 L33.35 9.35 33.3 9.5 32.9 10.2 32.0 11.15 30.2 11.9 29.4 12.0 28.9 12.1 Q28.15 12.2 27.5 12.55 L27.85 11.55 28.15 10.1 28.9 10.4 29.0 10.4 29.05 10.4 Q29.6 10.5 30.2 9.9 L30.35 9.75 30.6 9.05 30.6 8.95 30.5 8.5 30.3 8.3 30.2 8.15 29.85 8.0 29.75 7.95 29.7 7.95 29.5 8.05 29.5 7.6 29.6 7.0 30.15 6.2 30.2 6.1 30.45 6.0 30.5 6.0 32.0 5.8 32.45 6.0 32.7 6.1 M26.15 16.4 L26.4 16.8 27.2 17.15 Q28.25 17.35 28.9 16.6 L29.0 16.45 29.0 16.4 29.05 16.35 29.25 16.0 29.25 15.9 29.3 15.3 29.25 15.15 29.25 15.1 28.9 14.65 28.75 14.55 28.55 14.4 28.7 14.35 28.9 14.35 29.0 14.3 29.1 14.3 29.25 14.25 29.3 14.25 29.55 14.2 29.6 14.2 31.55 13.8 32.0 13.65 32.9 13.1 33.75 12.4 34.2 11.9 34.3 11.7 35.1 10.4 35.15 10.35 Q35.65 9.45 35.75 8.4 L35.8 7.95 Q35.8 6.0 34.5 4.8 33.75 3.9 32.9 3.6 L32.0 3.35 31.6 3.3 30.5 3.5 30.2 3.6 30.15 3.65 29.0 4.4 29.0 4.45 28.4 5.05 28.2 5.4 27.7 2.9 27.65 2.9 27.65 2.6 27.55 2.45 27.5 2.4 27.2 1.95 Q26.85 1.55 26.15 1.25 L26.15 16.4" fill="#ffcc00" fill-rule="evenodd" stroke="none"/>
    <path d="M32.7 6.1 L32.9 6.25 Q33.65 7.0 33.6 8.3 L33.35 9.35 33.3 9.5 32.9 10.2 32.0 11.15 30.2 11.9 29.4 12.0 28.9 12.1 Q28.15 12.2 27.5 12.55 L27.85 11.55 28.15 10.1 28.9 10.4 29.0 10.4 29.05 10.4 Q29.6 10.5 30.2 9.9 L30.35 9.75 30.6 9.05 30.6 8.95 30.5 8.5 30.3 8.3 30.2 8.15 29.85 8.0 29.75 7.95 29.7 7.95 29.5 8.05 29.5 7.6 29.6 7.0 30.15 6.2 30.2 6.1 30.45 6.0 30.5 6.0 32.0 5.8 32.45 6.0 32.7 6.1 M26.15 1.25 Q26.85 1.55 27.2 1.95 L27.5 2.4 27.55 2.45 27.65 2.6 27.65 2.9 27.7 2.9 28.2 5.4 28.4 5.05 29.0 4.45 29.0 4.4 30.15 3.65 30.2 3.6 30.5 3.5 31.6 3.3 32.0 3.35 32.9 3.6 Q33.75 3.9 34.5 4.8 35.8 6.0 35.8 7.95 L35.75 8.4 Q35.65 9.45 35.15 10.35 L35.1 10.4 34.3 11.7 34.2 11.9 33.75 12.4 32.9 13.1 32.0 13.65 31.55 13.8 29.6 14.2 29.55 14.2 29.3 14.25 29.25 14.25 29.1 14.3 29.0 14.3 28.9 14.35 28.7 14.35 28.55 14.4 28.75 14.55 28.9 14.65 29.25 15.1 29.25 15.15 29.3 15.3 29.25 15.9 29.25 16.0 29.05 16.35 29.0 16.4 29.0 16.45 28.9 16.6 Q28.25 17.35 27.2 17.15 L26.4 16.8 26.15 16.4" fill="none" stroke="#2b1509" stroke-linecap="round" stroke-linejoin="bevel" stroke-width="2.0"/>
    <path d="M26.15 2.2 L26.8 2.9 26.15 3.45 26.15 2.2 26.15 3.45 26.15 4.6 26.15 13.65 26.15 14.5 26.15 15.2 27.2 13.45 27.9 11.5 Q29.1 7.75 27.75 2.85 L27.75 2.5 27.65 2.35 27.6 2.3 27.2 1.85 26.15 1.2 26.15 2.2" fill="#fdeba3" fill-rule="evenodd" stroke="none"/>
    <path d="M26.15 13.65 L27.2 12.5 26.15 14.5 26.15 13.65" fill="#ffcc00" fill-rule="evenodd" stroke="none"/>
    <path d="M29.6 7.5 L29.75 6.9 30.2 6.15 30.55 5.95 30.55 5.9 32.1 5.75 32.55 5.9 32.8 6.1 Q33.75 6.8 33.6 8.3 L33.4 9.3 33.35 9.45 33.1 9.95 32.1 11.1 30.3 11.8 29.5 11.95 28.9 12.05 Q28.15 12.15 27.6 12.55 L27.55 12.55 27.35 12.7 26.45 13.75 26.35 13.9 26.3 14.0 26.25 14.05 26.2 14.3 26.15 14.45 26.15 15.3 26.15 16.2 26.45 16.75 27.3 17.15 Q28.3 17.3 28.9 16.55 L29.05 16.35 29.3 15.95 29.3 15.85 29.35 15.25 29.3 15.1 29.3 15.05 28.9 14.55 28.85 14.5 28.65 14.35 28.9 14.3 29.05 14.25 29.15 14.2 29.4 14.2 29.65 14.15 29.7 14.15 31.65 13.75 32.85 13.15 33.8 12.35 34.25 11.8 34.4 11.65 34.95 10.85 35.15 10.35 35.2 10.25 Q35.7 9.4 35.8 8.35 L35.8 7.9 Q35.8 6.0 34.55 4.7 33.5 3.45 32.1 3.3 L31.65 3.3 30.55 3.45 30.2 3.6 29.05 4.35 29.05 4.4 28.5 5.0 28.1 5.6 28.1 5.65 27.95 5.9 27.6 7.25 27.55 7.7 27.6 8.65 27.8 9.4 Q28.35 10.3 28.9 10.35 L29.05 10.35 29.1 10.35 Q29.75 10.5 30.3 9.85 L30.45 9.7 30.7 8.95 30.7 8.9 30.55 8.5 30.55 8.45 30.45 8.3 30.4 8.3 30.25 8.1 30.4 8.3 30.45 8.3 30.55 8.45 30.55 8.5 30.7 8.9 30.55 9.05 Q30.35 9.25 30.15 9.25 29.95 9.25 29.75 9.05 L29.55 8.65 29.75 8.25 30.15 8.1 30.25 8.1 29.95 7.95 29.85 7.9 29.8 7.9 29.6 8.0 Q29.05 8.15 28.9 8.45 L28.85 8.6 28.85 8.5 28.9 8.2 Q29.05 7.7 29.6 7.5 L29.6 8.0 29.6 7.5" fill="#ffcc00" fill-rule="evenodd" stroke="none"/>
  </g>
</svg>
