<?xml version="1.0" encoding="UTF-8" standalone="no"?>
<svg xmlns:ffdec="https://www.free-decompiler.com/flash" xmlns:xlink="http://www.w3.org/1999/xlink" ffdec:objectType="shape" height="30.0px" width="30.0px" xmlns="http://www.w3.org/2000/svg">
  <g transform="matrix(1.0, 0.0, 0.0, 1.0, 0.0, 0.0)">
    <path d="M30.0 0.0 L30.0 30.0 0.0 30.0 0.0 0.0 30.0 0.0" fill="#ffffff" fill-opacity="0.0" fill-rule="evenodd" stroke="none"/>
    <path d="M20.8 11.6 L20.8 18.9 Q20.8 20.9 18.8 20.9 L11.5 20.9 Q9.5 20.9 9.5 18.9 L9.5 11.6 Q9.5 9.6 11.5 9.6 L18.8 9.6 Q20.8 9.6 20.8 11.6 M22.1 6.05 L22.4 6.05 Q24.4 6.05 24.4 8.05 L24.4 8.3 26.2 8.3 Q26.6 8.3 26.9 8.6 L27.2 9.3 26.9 10.0 26.2 10.3 24.4 10.3 24.4 12.3 26.2 12.3 Q26.6 12.3 26.9 12.6 L27.2 13.3 26.9 14.0 26.2 14.3 24.4 14.3 24.4 16.3 26.2 16.3 Q26.6 16.3 26.9 16.6 L27.2 17.3 26.9 18.0 26.2 18.3 24.4 18.3 24.4 20.3 26.2 20.3 Q26.6 20.3 26.9 20.6 L27.2 21.3 26.9 22.0 26.2 22.3 24.4 22.3 24.4 22.5 Q24.4 24.5 22.4 24.5 L22.1 24.5 22.1 26.2 21.8 26.9 21.1 27.2 Q20.7 27.2 20.4 26.9 20.1 26.6 20.1 26.2 L20.1 24.5 18.1 24.5 18.1 26.2 17.8 26.9 17.1 27.2 Q16.7 27.2 16.4 26.9 L16.1 26.2 16.1 24.5 14.1 24.5 14.1 26.2 13.8 26.9 13.1 27.2 Q12.7 27.2 12.4 26.9 12.1 26.6 12.1 26.2 L12.1 24.5 10.1 24.5 10.1 26.2 9.8 26.9 9.1 27.2 Q8.7 27.2 8.4 26.9 8.1 26.6 8.1 26.2 L8.1 24.5 7.95 24.5 Q5.95 24.5 5.95 22.5 L5.95 22.3 3.85 22.3 Q3.45 22.3 3.15 22.0 2.85 21.7 2.85 21.3 2.85 20.9 3.15 20.6 3.45 20.3 3.85 20.3 L5.95 20.3 5.95 18.3 3.85 18.3 Q3.45 18.3 3.15 18.0 2.85 17.7 2.85 17.3 2.85 16.9 3.15 16.6 3.45 16.3 3.85 16.3 L5.95 16.3 5.95 14.3 3.85 14.3 Q3.45 14.3 3.15 14.0 2.85 13.7 2.85 13.3 2.85 12.9 3.15 12.6 3.45 12.3 3.85 12.3 L5.95 12.3 5.95 10.3 3.85 10.3 Q3.45 10.3 3.15 10.0 2.85 9.7 2.85 9.3 2.85 8.9 3.15 8.6 3.45 8.3 3.85 8.3 L5.95 8.3 5.95 8.05 Q5.95 6.05 7.95 6.05 L8.1 6.05 8.1 3.85 Q8.1 3.45 8.4 3.15 8.7 2.85 9.1 2.85 9.5 2.85 9.8 3.15 L10.1 3.85 10.1 6.05 12.1 6.05 12.1 3.85 Q12.1 3.45 12.4 3.15 12.7 2.85 13.1 2.85 13.5 2.85 13.8 3.15 L14.1 3.85 14.1 6.05 16.1 6.05 16.1 3.85 Q16.1 3.45 16.4 3.15 16.7 2.85 17.1 2.85 17.5 2.85 17.8 3.15 L18.1 3.85 18.1 6.05 20.1 6.05 20.1 3.85 Q20.1 3.45 20.4 3.15 20.7 2.85 21.1 2.85 21.5 2.85 21.8 3.15 L22.1 3.85 22.1 6.05 M21.8 11.6 Q21.8 8.6 18.8 8.6 L11.5 8.6 Q8.5 8.6 8.5 11.6 L8.5 18.9 Q8.5 21.9 11.5 21.9 L18.8 21.9 Q21.8 21.9 21.8 18.9 L21.8 11.6" fill="#514a3c" fill-rule="evenodd" stroke="none"/>
  </g>
</svg>
