<?xml version="1.0" encoding="UTF-8" standalone="no"?>
<svg xmlns:ffdec="https://www.free-decompiler.com/flash" xmlns:xlink="http://www.w3.org/1999/xlink" ffdec:objectType="shape" height="36.2px" width="37.25px" xmlns="http://www.w3.org/2000/svg">
  <g transform="matrix(1.0, 0.0, 0.0, 1.0, 17.85, 17.8)">
    <path d="M11.7 -15.15 L12.65 -14.45 12.7 -14.4 14.3 -13.25 14.95 -12.75 16.05 -11.7 16.65 -11.0 17.35 -9.9 18.15 -8.05 Q19.25 -4.55 17.85 0.15 L17.65 0.85 16.6 3.65 15.6 5.4 13.2 8.7 9.9 11.95 8.25 13.25 8.25 13.3 5.6 15.0 Q1.7 17.15 -2.45 17.6 L-2.6 17.6 Q-6.95 17.95 -9.8 16.1 L-11.0 15.15 -12.55 14.05 -13.65 13.2 -13.95 12.85 -14.3 12.5 -15.1 11.55 -15.2 11.4 Q-16.15 10.1 -16.6 8.65 L-16.6 6.95 -17.1 5.9 Q-17.25 3.45 -16.35 0.5 -14.75 -4.8 -10.7 -9.1 L-9.15 -10.7 -8.3 -11.3 Q-3.7 -15.3 1.35 -16.45 L3.25 -16.85 4.2 -16.95 6.65 -16.95 Q9.15 -16.75 11.05 -15.6 L11.7 -15.15" fill="#66cccc" fill-opacity="0.28627452" fill-rule="evenodd" stroke="none"/>
    <path d="M11.7 -15.15 L11.05 -15.6 Q9.15 -16.75 6.65 -16.95 L4.2 -16.95 3.25 -16.85 1.35 -16.45 Q-3.7 -15.3 -8.3 -11.3 L-9.15 -10.7 -10.7 -9.1 Q-14.75 -4.8 -16.35 0.5 -17.25 3.45 -17.1 5.9 L-16.6 6.95 -16.6 8.65 Q-16.15 10.1 -15.2 11.4 L-15.1 11.55 -14.3 12.5 -13.95 12.85 -13.65 13.2 -12.55 14.05 -11.0 15.15 -9.8 16.1 Q-6.95 17.95 -2.6 17.6 L-2.45 17.6 Q1.7 17.15 5.6 15.0 L8.25 13.3 8.25 13.25 9.9 11.95 13.2 8.7 15.6 5.4 16.6 3.65 17.65 0.85 17.85 0.15 Q19.25 -4.55 18.15 -8.05 L17.35 -9.9 16.65 -11.0 16.05 -11.7 14.95 -12.75 14.3 -13.25 12.7 -14.4 12.65 -14.45 11.7 -15.15 Z" fill="none" stroke="#000000" stroke-linecap="butt" stroke-linejoin="miter-clip" stroke-miterlimit="3.0" stroke-opacity="0.29803923" stroke-width="1.5"/>
    <path d="M15.3 -10.45 Q14.8 -11.9 13.9 -13.0 L13.25 -13.85 12.7 -14.4 14.3 -13.25 14.95 -12.75 16.05 -11.7 16.65 -11.0 17.35 -9.9 18.15 -8.05 15.3 -10.45" fill="#3c3c3c" fill-rule="evenodd" stroke="none"/>
    <path d="M12.7 -14.4 L13.25 -13.85 13.9 -13.0 Q14.8 -11.9 15.3 -10.45 L15.55 -9.65 Q16.05 -7.55 15.85 -5.0 L15.35 -2.5 Q13.8 -1.7 12.75 -3.8 13.25 -6.7 12.7 -9.0 L12.45 -9.65 11.35 -11.7 11.3 -11.75 11.35 -11.7 12.45 -9.65 12.7 -9.0 Q1.6 -5.3 -6.1 12.45 L-4.95 12.35 -4.75 12.3 Q-4.0 14.2 -6.25 15.5 -9.4 15.6 -11.7 14.5 L-12.05 14.25 -12.55 14.05 -13.65 13.2 -13.95 12.85 -14.3 12.5 -15.1 11.55 -15.2 11.4 Q-16.15 10.1 -16.6 8.65 -16.1 7.25 -15.15 6.65 -16.45 6.65 -17.1 5.9 -17.25 3.45 -16.35 0.5 -14.75 -4.8 -10.7 -9.1 -9.75 -9.0 -9.8 -7.85 L-10.3 -7.3 -11.9 -5.0 Q-13.4 -2.85 -14.15 -0.25 -15.8 5.35 -13.1 9.05 L-12.4 9.8 -12.4 9.9 -11.75 10.4 -11.9 10.2 -12.25 9.7 Q-14.25 6.2 -12.8 1.15 L-11.5 -2.1 Q-10.5 -4.05 -9.0 -5.8 L-7.4 -7.55 -6.05 -8.8 Q-3.85 -10.7 -1.45 -11.8 0.05 -12.6 1.6 -13.0 L2.3 -13.15 4.5 -13.55 4.65 -13.55 Q7.95 -13.75 10.25 -12.45 L10.85 -12.05 11.3 -11.75 10.8 -12.35 10.3 -12.85 9.45 -13.5 8.9 -13.9 Q7.7 -14.55 6.35 -14.85 5.25 -16.1 6.65 -16.95 9.15 -16.75 11.05 -15.6 L11.7 -15.15 12.65 -14.45 12.7 -14.4 M-11.8 10.45 L-11.75 10.4 -11.8 10.45 M-11.8 10.4 L-11.75 10.5 -11.65 10.6 -10.95 11.1 -10.55 11.3 Q-10.4 11.35 -10.25 11.5 -8.45 12.4 -6.1 12.45 -8.45 12.4 -10.25 11.5 -10.4 11.35 -10.55 11.3 L-10.95 11.1 -11.65 10.6 -11.75 10.5 -11.8 10.4" fill="#a3a3a3" fill-rule="evenodd" stroke="none"/>
    <path d="M6.65 -16.95 Q5.25 -16.1 6.35 -14.85 L3.95 -14.95 3.25 -16.85 4.2 -16.95 6.65 -16.95 M12.75 -3.8 Q13.8 -1.7 15.35 -2.5 L15.15 -1.95 14.4 0.1 14.1 0.95 13.1 -0.15 12.1 -1.45 12.35 -2.35 12.75 -3.8 M-16.6 8.65 L-16.6 6.95 -15.15 6.65 Q-16.1 7.25 -16.6 8.65 M-10.7 -9.1 L-9.15 -10.7 -8.35 -9.35 -9.8 -7.85 Q-9.75 -9.0 -10.7 -9.1 M-4.75 12.3 L-2.4 11.95 -2.35 13.9 -2.3 15.0 -5.4 15.5 -6.25 15.5 Q-4.0 14.2 -4.75 12.3" fill="#726e6e" fill-rule="evenodd" stroke="none"/>
    <path d="M6.35 -14.85 Q7.7 -14.55 8.9 -13.9 L9.45 -13.5 10.3 -12.85 10.8 -12.35 11.3 -11.75 10.85 -12.05 10.25 -12.45 Q7.95 -13.75 4.65 -13.55 L4.5 -13.55 2.3 -13.15 1.6 -13.0 Q-0.35 -12.95 -1.0 -13.6 L0.35 -14.5 1.95 -14.8 3.15 -14.95 3.95 -14.95 6.35 -14.85 M-9.0 -5.8 Q-10.5 -4.05 -11.5 -2.1 -10.75 -4.35 -11.9 -5.0 L-10.3 -7.3 Q-10.6 -5.5 -9.0 -5.8" fill="#1e1e1e" fill-rule="evenodd" stroke="none"/>
    <path d="M-6.5 -5.8 L-8.1 -4.05 Q-9.6 -2.3 -10.6 -0.35 L-11.85 2.95 Q-13.0 6.7 -12.15 9.65 2.95 -1.0 2.5 -11.3 0.9 -10.9 -0.6 -10.05 -2.9 -8.95 -5.15 -7.05 L-6.5 -5.8" fill="#e9e9e9" fill-rule="evenodd" stroke="none"/>
    <path d="M3.95 -14.95 L3.15 -14.95 1.95 -14.8 0.35 -14.5 -4.65 -12.7 -6.4 -11.05 -6.8 -10.7 -7.45 -10.25 -8.35 -9.35 -9.15 -10.7 -8.3 -11.3 Q-3.7 -15.3 1.35 -16.45 L3.25 -16.85 3.95 -14.95 M12.1 -1.45 L13.1 -0.15 14.1 0.95 Q12.75 3.8 10.7 6.25 L7.55 9.55 5.75 8.85 4.95 11.3 0.3 14.15 0.25 14.15 0.2 14.2 0.1 14.25 0.05 14.25 -2.3 15.0 -2.35 13.9 -2.4 11.95 Q1.7 10.9 5.6 7.6 10.3 3.65 12.1 -1.45" fill="#cbcbc4" fill-rule="evenodd" stroke="none"/>
    <path d="M15.85 -5.0 Q16.05 -7.55 15.55 -9.65 L15.3 -10.45 18.15 -8.05 Q19.25 -4.55 17.85 0.15 L17.65 0.85 Q18.3 -9.5 15.85 -5.0 M14.1 0.95 L14.4 0.1 14.2 1.1 Q13.85 3.85 15.6 5.4 L13.2 8.7 Q12.95 5.6 10.7 6.25 12.75 3.8 14.1 0.95" fill="#0e0e0e" fill-rule="evenodd" stroke="none"/>
    <path d="M12.7 -9.0 Q13.25 -6.7 12.75 -3.8 L12.35 -2.35 12.1 -1.45 Q10.3 3.65 5.6 7.6 1.7 10.9 -2.4 11.95 L-4.75 12.3 -4.95 12.35 -6.1 12.45 Q1.6 -5.3 12.7 -9.0" fill="#ffffff" fill-rule="evenodd" stroke="none"/>
    <path d="M15.35 -2.5 L15.85 -5.0 Q18.3 -9.5 17.65 0.85 L16.6 3.65 15.6 5.4 Q13.85 3.85 14.2 1.1 L14.4 0.1 15.15 -1.95 15.35 -2.5" fill="#565656" fill-rule="evenodd" stroke="none"/>
    <path d="M-1.0 -13.6 Q-0.35 -12.95 1.6 -13.0 0.05 -12.6 -1.45 -11.8 -1.85 -12.45 -3.85 -12.2 L-1.0 -13.6 M-11.5 -2.1 L-12.8 1.15 Q-14.25 6.2 -12.25 9.7 L-11.9 10.2 -11.75 10.4 -12.4 9.9 -12.4 9.8 -13.1 9.05 Q-15.8 5.35 -14.15 -0.25 -13.4 -2.85 -11.9 -5.0 -10.75 -4.35 -11.5 -2.1 M13.2 8.7 L9.9 11.95 8.25 13.3 5.6 15.0 Q0.8 15.85 -2.3 15.0 L0.05 14.25 0.1 14.25 0.2 14.2 0.25 14.15 0.3 14.15 0.6 14.05 5.5 12.0 4.95 11.3 5.75 8.85 8.25 13.25 7.55 9.55 10.7 6.25 Q12.95 5.6 13.2 8.7 M8.25 13.3 L5.5 12.0 8.25 13.3" fill="#333333" fill-rule="evenodd" stroke="none"/>
    <path d="M0.35 -14.5 L-1.0 -13.6 -3.85 -12.2 -6.75 -10.7 -6.4 -11.05 -4.65 -12.7 0.35 -14.5 M-16.6 6.95 L-17.1 5.9 Q-16.45 6.65 -15.15 6.65 L-16.6 6.95 M5.75 8.85 L7.55 9.55 8.25 13.25 5.75 8.85 M4.95 11.3 L5.5 12.0 0.6 14.05 0.3 14.15 4.95 11.3" fill="#f5f5d6" fill-rule="evenodd" stroke="none"/>
    <path d="M-1.45 -11.8 Q-3.85 -10.7 -6.05 -8.8 L-7.4 -7.55 -9.0 -5.8 Q-10.6 -5.5 -10.3 -7.3 L-9.8 -7.85 -8.35 -9.35 -7.45 -10.25 -6.8 -10.7 -6.4 -11.05 -6.75 -10.7 -3.85 -12.2 Q-1.85 -12.45 -1.45 -11.8 M5.6 15.0 Q1.7 17.15 -2.45 17.6 L-2.6 17.6 Q-6.95 17.95 -9.8 16.1 L-11.0 15.15 -12.55 14.05 -12.05 14.25 -11.7 14.5 Q-9.4 15.6 -6.25 15.5 L-5.4 15.5 -2.3 15.0 Q0.8 15.85 5.6 15.0" fill="#4a4a4a" fill-rule="evenodd" stroke="none"/>
    <path d="M-6.5 -5.8 L-5.15 -7.05 Q-2.9 -8.95 -0.6 -10.05 0.9 -10.9 2.5 -11.3 2.95 -1.0 -12.15 9.65 -13.0 6.7 -11.85 2.95 L-10.6 -0.35 Q-9.6 -2.3 -8.1 -4.05 L-6.5 -5.8" fill="#dbdbdb" fill-rule="evenodd" stroke="none"/>
    <path d="M12.7 -14.4 L12.65 -14.45 11.7 -15.15 11.05 -15.6 Q9.15 -16.75 6.65 -16.95 L4.2 -16.95 3.25 -16.85 1.35 -16.45 Q-3.7 -15.3 -8.3 -11.3 L-9.15 -10.7 -10.7 -9.1 Q-14.75 -4.8 -16.35 0.5 -17.25 3.45 -17.1 5.9 L-16.6 6.95 -16.6 8.65 Q-16.15 10.1 -15.2 11.4 L-15.1 11.55 -14.3 12.5 -13.95 12.85 -13.65 13.2 -12.55 14.05 -11.0 15.15 -9.8 16.1 Q-6.95 17.95 -2.6 17.6 L-2.45 17.6 Q1.7 17.15 5.6 15.0 L8.25 13.3 9.9 11.95 13.2 8.7 15.6 5.4 16.6 3.65 17.65 0.85 17.85 0.15 Q19.25 -4.55 18.15 -8.05 L17.35 -9.9 16.65 -11.0 16.05 -11.7 14.95 -12.75 14.3 -13.25 12.7 -14.4 Z" ffdec:has-small-stroke="true" ffdec:original-stroke-width="0.5" fill="none" stroke="#000000" stroke-linecap="butt" stroke-linejoin="miter-clip" stroke-miterlimit="3.0" stroke-opacity="0.3019608" stroke-width="1.0"/>
    <path d="M11.8 -10.3 L12.65 -9.45 11.8 -8.1 11.1 -8.15 Q8.2 -3.9 3.6 -0.85 L3.0 -0.4 2.35 0.35 2.4 1.2 Q3.5 3.1 1.25 8.65 L1.85 9.25 0.55 11.0 -11.7 8.4 -12.5 7.6 -11.45 5.85 -10.7 6.0 -10.1 5.2 Q-6.45 0.1 -3.3 -0.8 -2.25 -1.75 -2.35 -2.1 -2.85 -5.15 -1.1 -10.05 L-1.7 -10.7 -0.8 -12.2 11.8 -10.3" fill="#000000" fill-opacity="0.28627452" fill-rule="evenodd" stroke="none"/>
    <path d="M7.0 -9.65 L9.45 -9.3 9.0 -8.7 8.6 -8.2 Q5.5 -9.5 0.5 -10.1 L-1.05 -10.3 -1.95 -10.4 -1.8 -10.95 4.15 -10.05 7.0 -9.65 M-11.6 5.65 L-11.0 4.8 Q-1.1 7.75 1.05 1.0 1.4 3.2 -0.6 7.95 L-2.3 7.55 -6.95 6.6 -11.6 5.65" fill="#bbbbbb" fill-rule="evenodd" stroke="none"/>
    <path d="M9.45 -9.3 L7.0 -9.65 Q5.45 -10.65 6.05 -11.4 L11.0 -10.7 10.15 -9.2 9.45 -9.3 M4.15 -10.05 L-1.8 -10.95 -2.55 -11.05 -1.7 -12.5 2.2 -11.95 Q4.8 -10.75 4.15 -10.05 M-13.35 7.25 L-12.35 5.45 -11.6 5.65 -6.95 6.6 Q-7.0 7.7 -9.2 8.2 L-13.35 7.25 M-0.95 10.05 L-5.1 9.15 Q-5.45 8.0 -2.3 7.55 L-0.6 7.95 0.25 8.1 -0.95 10.05" fill="#747474" fill-rule="evenodd" stroke="none"/>
    <path d="M8.6 -8.2 L9.0 -8.7 9.45 -9.3 10.2 -8.5 Q7.35 -4.25 2.7 -1.2 L1.9 -1.9 Q5.95 -4.6 8.6 -8.2 M10.15 -9.2 L11.0 -10.7 11.75 -9.9 10.9 -8.4 10.15 -9.2 M1.05 1.0 L1.5 0.85 Q2.65 2.75 0.4 8.25 L0.25 8.1 -0.6 7.95 Q1.4 3.2 1.05 1.0 M-0.1 10.85 L-12.55 8.05 -13.35 7.25 -9.2 8.2 -5.1 9.15 -0.95 10.05 -0.1 10.85" fill="#585858" fill-rule="evenodd" stroke="none"/>
    <path d="M7.0 -9.65 L4.15 -10.05 Q4.8 -10.75 2.2 -11.95 L6.05 -11.4 Q5.45 -10.65 7.0 -9.65 M-5.1 9.15 L-9.2 8.2 Q-7.0 7.7 -6.95 6.6 L-2.3 7.55 Q-5.45 8.0 -5.1 9.15" fill="#a3a3a3" fill-rule="evenodd" stroke="none"/>
    <path d="M9.45 -9.3 L10.15 -9.2 10.9 -8.4 10.2 -8.5 9.45 -9.3 M1.05 1.0 L0.7 0.1 0.65 -0.75 1.35 -1.55 1.9 -1.9 2.7 -1.2 2.1 -0.8 1.45 -0.05 1.5 0.85 1.05 1.0 M0.4 8.25 L1.0 8.85 -0.1 10.85 -0.95 10.05 0.25 8.1 0.4 8.25" fill="#252525" fill-rule="evenodd" stroke="none"/>
    <path d="M-1.95 -10.4 L-1.05 -10.3 Q-2.4 -7.05 -2.5 -3.6 -1.6 -7.05 0.5 -10.1 5.5 -9.5 8.6 -8.2 5.95 -4.6 1.9 -1.9 L1.35 -1.55 0.65 -0.75 0.7 0.1 1.05 1.0 Q-1.1 7.75 -11.0 4.8 -7.3 -0.25 -4.15 -1.15 -3.15 -2.15 -3.2 -2.45 -3.75 -5.45 -1.95 -10.4 M-6.15 1.6 Q-3.7 -0.35 -4.6 -0.1 -7.5 1.0 -8.85 3.75 -8.25 4.4 -6.15 1.6" fill="#d0d0d0" fill-rule="evenodd" stroke="none"/>
    <path d="M-1.05 -10.3 L0.5 -10.1 Q-1.6 -7.05 -2.5 -3.6 -2.4 -7.05 -1.05 -10.3 M-6.15 1.6 Q-8.25 4.4 -8.85 3.75 -7.5 1.0 -4.6 -0.1 -3.7 -0.35 -6.15 1.6" fill="#f5f5f5" fill-rule="evenodd" stroke="none"/>
    <path d="M-1.8 -10.95 L-1.95 -10.4 -2.55 -11.05 -1.8 -10.95" fill="#000000" fill-opacity="0.35686275" fill-rule="evenodd" stroke="none"/>
    <path d="M9.45 -9.3 L7.0 -9.65 4.15 -10.05 -1.8 -10.95 -1.95 -10.4 -2.55 -11.05 -1.8 -10.95 M11.0 -10.7 L6.05 -11.4 2.2 -11.95 -1.7 -12.5 -2.55 -11.05 M1.5 0.85 L1.45 -0.05 2.1 -0.8 2.7 -1.2 Q7.35 -4.25 10.2 -8.5 L9.45 -9.3 M10.9 -8.4 L11.75 -9.9 11.0 -10.7 M10.2 -8.5 L10.9 -8.4 M0.4 8.25 L1.0 8.85 -0.1 10.85 -12.55 8.05 -13.35 7.25 -12.35 5.45 -11.6 5.65 -11.0 4.8 Q-7.3 -0.25 -4.15 -1.15 -3.15 -2.15 -3.2 -2.45 -3.75 -5.45 -1.95 -10.4 M0.25 8.1 L0.4 8.25 Q2.65 2.75 1.5 0.85 M-6.95 6.6 L-11.6 5.65 M-6.95 6.6 L-2.3 7.55 -0.6 7.95 0.25 8.1" ffdec:has-small-stroke="true" ffdec:original-stroke-width="0.25" fill="none" stroke="#000000" stroke-linecap="butt" stroke-linejoin="miter-clip" stroke-miterlimit="3.0" stroke-opacity="0.15294118" stroke-width="1.0"/>
    <path d="M-6.6 9.5 L-6.3 9.4 -6.3 8.85 -6.6 9.5 M-8.55 10.85 L-8.45 10.75 -8.45 10.8 -8.4 10.8 -8.45 10.7 -8.55 10.85 M-7.45 8.7 L-7.4 8.9 -7.25 8.6 -7.45 8.7 M6.05 -14.0 L6.65 -13.3 Q6.6 -12.0 6.05 -10.4 L5.05 -8.55 3.1 -5.45 2.6 -5.95 2.5 -6.1 2.65 -5.85 1.65 -4.2 2.0 -3.9 2.05 -3.85 Q2.65 -3.4 2.65 -2.55 L2.45 -1.3 1.95 -0.25 Q1.1 0.8 -0.05 1.3 L-0.45 1.45 -1.25 1.55 -3.15 3.9 -4.35 5.9 -5.05 7.0 -5.05 10.3 -5.45 10.15 -5.55 10.2 -5.75 10.2 -6.2 10.3 -7.3 11.1 -7.65 11.45 -8.6 10.95 -8.5 10.55 -8.4 9.25 Q-8.4 8.95 -8.55 8.7 L-8.6 8.7 -9.15 8.2 -6.0 6.3 -5.5 5.55 -2.9 0.65 -3.3 0.3 -3.35 0.25 -3.55 0.05 -3.75 -0.2 -4.0 -1.15 Q-4.1 -2.25 -3.3 -3.4 -2.5 -4.5 -1.3 -4.95 -0.1 -5.45 0.75 -4.95 L1.5 -6.2 1.15 -6.55 1.75 -8.05 1.85 -8.3 2.15 -8.9 2.25 -9.05 2.6 -9.7 3.45 -11.0 6.05 -14.0" fill="#000000" fill-opacity="0.35686275" fill-rule="evenodd" stroke="none"/>
    <path d="M4.1 -12.55 L4.45 -13.85 4.45 -13.9 Q3.3 -12.75 2.4 -11.25 L1.25 -9.5 0.4 -7.6 0.8 -7.55 4.45 -13.85 1.2 -7.45 1.3 -7.45 1.45 -7.25 2.55 -9.05 3.35 -10.7 3.75 -11.7 4.1 -12.55 M4.85 -14.65 L4.5 -13.05 3.8 -11.05 3.45 -9.95 2.95 -9.15 2.95 -9.1 2.1 -7.65 1.4 -6.6 Q0.9 -7.15 0.3 -7.15 L-0.1 -7.2 0.5 -8.7 0.6 -8.9 0.95 -9.55 1.05 -9.7 1.4 -10.35 2.25 -11.65 Q3.4 -13.25 4.85 -14.65" fill="#ffe700" fill-rule="evenodd" stroke="none"/>
    <path d="M4.1 -12.55 L3.75 -11.7 3.35 -10.7 2.55 -9.05 1.45 -7.25 1.3 -7.45 1.2 -7.45 4.45 -13.85 0.8 -7.55 0.4 -7.6 1.25 -9.5 2.4 -11.25 Q3.3 -12.75 4.45 -13.9 L4.45 -13.85 4.1 -12.55" fill="#bb6906" fill-rule="evenodd" stroke="none"/>
    <path d="M4.85 -14.65 L5.45 -13.95 Q5.4 -12.65 4.75 -11.05 L3.85 -9.15 1.9 -6.05 1.4 -6.6 2.1 -7.65 2.95 -9.1 2.95 -9.15 3.45 -9.95 3.8 -11.05 4.5 -13.05 4.85 -14.65" fill="#965105" fill-rule="evenodd" stroke="none"/>
    <path d="M4.75 -11.05 Q5.4 -12.65 5.45 -13.95 L4.85 -14.65 Q3.4 -13.25 2.25 -11.65 M0.4 -6.75 L1.3 -6.75" ffdec:has-small-stroke="true" ffdec:original-stroke-width="0.25" fill="none" stroke="#000000" stroke-linecap="butt" stroke-linejoin="miter-clip" stroke-miterlimit="3.0" stroke-opacity="0.15294118" stroke-width="1.0"/>
    <path d="M3.45 -9.95 L2.95 -9.15 M2.1 -7.65 L1.4 -6.6 1.9 -6.05 3.85 -9.15 4.75 -11.05 M1.05 -9.7 L1.4 -10.35 M-0.1 -7.2 L0.4 -6.75 M-0.1 -7.2 L0.5 -8.7" ffdec:has-small-stroke="true" ffdec:original-stroke-width="0.1" fill="none" stroke="#000000" stroke-linecap="butt" stroke-linejoin="miter-clip" stroke-miterlimit="3.0" stroke-opacity="0.29803923" stroke-width="1.0"/>
    <path d="M0.75 -6.8 L0.4 -7.2 0.95 -7.25 0.75 -6.8" fill="#fcff78" fill-rule="evenodd" stroke="none"/>
    <path d="M0.4 -7.2 L0.75 -6.8 -0.7 -4.55 -1.05 -4.5 -0.95 -4.65 -0.6 -5.35 0.4 -7.2" fill="#ffe700" fill-rule="evenodd" stroke="none"/>
    <path d="M0.75 -6.8 L0.95 -7.25 1.45 -6.45 0.25 -4.6 -0.7 -4.55 0.75 -6.8" fill="#bb6906" fill-rule="evenodd" stroke="none"/>
    <path d="M-0.6 -5.35 L-0.95 -4.65 M1.45 -6.45 L0.25 -4.6" ffdec:has-small-stroke="true" ffdec:original-stroke-width="0.25" fill="none" stroke="#000000" stroke-linecap="butt" stroke-linejoin="miter-clip" stroke-miterlimit="3.0" stroke-opacity="0.15294118" stroke-width="1.0"/>
    <path d="M-4.55 -0.35 L-4.6 -0.4 -4.85 -0.6 -5.0 -0.85 -4.55 -0.45 -4.3 -0.4 -2.5 -0.5 Q-1.35 -0.9 -0.5 -2.05 0.25 -3.15 0.2 -4.25 L0.05 -5.2 0.25 -4.85 0.5 -4.0 0.2 -2.6 -0.3 -1.75 Q-1.05 -0.65 -2.25 -0.2 L-3.15 0.05 -4.1 -0.1 -4.3 -0.2 -4.55 -0.35" fill="#adadad" fill-rule="evenodd" stroke="none"/>
    <path d="M-5.0 -0.85 L-5.2 -1.8 Q-5.3 -2.9 -4.5 -4.05 -3.7 -5.15 -2.55 -5.6 -1.4 -6.05 -0.5 -5.6 L-0.35 -5.5 0.05 -5.2 0.8 -4.55 0.85 -4.5 Q1.4 -4.05 1.45 -3.15 L1.25 -1.95 0.2 -2.6 0.5 -4.0 0.25 -4.85 0.05 -5.2 0.2 -4.25 Q0.25 -3.15 -0.5 -2.05 -1.35 -0.9 -2.5 -0.5 L-4.3 -0.4 -4.55 -0.45 -5.0 -0.85 M-1.65 0.75 L-3.3 0.65 -3.55 0.5 -3.8 0.35 -4.55 -0.35 -4.3 -0.2 -4.1 -0.1 -3.15 0.05 -1.65 0.75" fill="#838383" fill-rule="evenodd" stroke="none"/>
    <path d="M1.25 -1.95 L0.7 -0.95 Q-0.1 0.2 -1.25 0.65 L-1.65 0.75 -3.15 0.05 -2.25 -0.2 Q-1.05 -0.65 -0.3 -1.75 L0.2 -2.6 1.25 -1.95" fill="#5f5f5f" fill-rule="evenodd" stroke="none"/>
    <path d="M-5.0 -0.85 L-5.2 -1.8 Q-5.3 -2.9 -4.5 -4.05 -3.7 -5.15 -2.55 -5.6 -1.4 -6.05 -0.5 -5.6 L-0.35 -5.5 0.05 -5.2 0.8 -4.55 0.85 -4.5 Q1.4 -4.05 1.45 -3.15 L1.25 -1.95 0.7 -0.95 Q-0.1 0.2 -1.25 0.65 L-1.65 0.75 -3.3 0.65 -3.55 0.5 -3.8 0.35 -4.55 -0.35 -4.6 -0.4 -4.85 -0.6 -5.0 -0.85 M0.05 -5.2 L0.25 -4.85" ffdec:has-small-stroke="true" ffdec:original-stroke-width="0.1" fill="none" stroke="#000000" stroke-linecap="butt" stroke-linejoin="miter-clip" stroke-miterlimit="3.0" stroke-opacity="0.29803923" stroke-width="1.0"/>
    <path d="M-0.9 -4.85 L-0.6 -4.6 -0.6 -4.55 -0.45 -3.85 Q-0.45 -3.0 -1.0 -2.15 -1.65 -1.3 -2.55 -0.95 L-3.95 -0.85 -4.15 -0.95 -4.45 -1.25 -4.7 -1.95 Q-4.7 -2.8 -4.1 -3.65 -3.5 -4.5 -2.6 -4.9 L-1.0 -4.85 -0.9 -4.85" fill="#adadad" fill-rule="evenodd" stroke="none"/>
    <path d="M-2.45 0.9 L-4.4 3.25 -5.6 5.25 -6.25 6.35 -7.1 5.95 -5.7 3.6 -5.2 2.7 -4.2 1.2 -3.3 -0.05 -2.45 0.9 M-6.8 9.55 L-6.95 9.6 -7.4 9.65 -8.55 10.5 -8.85 10.8 -9.8 10.3 -9.75 10.2 -9.75 10.15 -9.7 10.15 -9.5 9.3 -9.45 9.25 -9.45 9.1 -9.4 8.35 -9.45 7.6 -7.65 6.45 -8.45 7.95 -8.75 8.05 -8.65 8.25 -9.65 10.15 -7.5 6.55 -7.5 8.2 -7.8 8.85 -8.75 9.25 -9.5 10.05 -9.7 10.25 -9.6 10.25 -9.45 10.05 -8.8 9.5 -8.25 9.15 -7.5 9.05 -6.8 9.55 M-9.45 7.6 L-8.75 8.05 -9.45 7.6 M-9.7 10.3 L-9.75 10.3 -9.8 10.3 -9.75 10.3 -9.7 10.3 M-9.65 10.05 L-9.6 9.9 -9.5 9.3 -9.6 9.9 -9.65 10.05" fill="#bb6906" fill-rule="evenodd" stroke="none"/>
    <path d="M-4.2 1.2 L-5.2 2.7 -5.7 3.6 -7.1 5.95 -6.8 9.55 -7.5 9.05 -8.25 9.15 -8.8 9.5 -9.45 10.05 -9.6 10.25 -9.7 10.25 -9.5 10.05 -8.75 9.25 -7.8 8.85 -7.5 8.7 -7.5 8.2 -7.5 6.55 -9.65 10.15 -8.65 8.25 -8.45 7.95 -7.65 6.45 -9.45 7.6 -9.4 8.35 -9.45 9.1 -9.45 9.25 -9.5 9.3 -9.7 10.15 -9.75 10.1 -9.7 9.95 -9.7 9.9 Q-9.65 9.7 -9.65 9.85 L-9.7 9.95 -9.65 9.85 Q-9.65 9.7 -9.7 9.9 L-9.7 9.95 -9.75 10.1 -9.7 10.15 -9.75 10.15 -9.75 10.2 -9.8 10.3 -9.75 10.15 -9.75 10.1 -9.7 9.9 -9.6 8.6 -9.75 8.05 -9.8 8.05 -10.4 7.6 -9.4 7.0 -7.2 5.7 -6.75 4.9 -5.2 2.1 -4.85 1.35 -4.15 0.0 Q-4.0 0.05 -4.2 1.2" fill="#ffe700" fill-rule="evenodd" stroke="none"/>
    <path d="M-3.3 -0.05 L-4.2 1.2 Q-4.0 0.05 -4.15 0.0 L-3.3 -0.05" fill="#fcff78" fill-rule="evenodd" stroke="none"/>
    <path d="M-7.1 5.95 L-6.25 6.35 -6.25 9.6 -6.65 9.55 -6.8 9.55 -7.1 5.95" fill="#965105" fill-rule="evenodd" stroke="none"/>
    <path d="M-6.25 6.35 L-5.6 5.25 -4.4 3.25 -2.45 0.9 M-6.25 6.35 L-6.25 9.6 -6.65 9.55 -6.8 9.55 -6.95 9.6 -7.4 9.65 -8.55 10.5 -8.85 10.8 -9.8 10.3 -9.75 10.15 -9.75 10.1 -9.7 9.9 -9.6 8.6 -9.75 8.05 -9.8 8.05 M-9.4 7.0 L-7.2 5.7 -6.75 4.9 M-5.2 2.1 L-4.85 1.35 M-4.15 0.0 L-3.3 -0.05 M-7.5 8.2 L-7.5 8.7 -7.8 8.85 -7.5 8.2 M-8.45 7.95 L-8.65 8.25 -8.75 8.05 -8.45 7.95 M-9.7 9.95 L-9.65 9.85 Q-9.65 9.7 -9.7 9.9 L-9.7 9.95 -9.75 10.1 -9.7 10.15 -9.75 10.15 -9.75 10.2 -9.8 10.3 -9.75 10.3 -9.7 10.3" ffdec:has-small-stroke="true" ffdec:original-stroke-width="0.25" fill="none" stroke="#000000" stroke-linecap="butt" stroke-linejoin="miter-clip" stroke-miterlimit="3.0" stroke-opacity="0.15294118" stroke-width="1.0"/>
  </g>
</svg>
