<?xml version="1.0" encoding="UTF-8" standalone="no"?>
<svg xmlns:ffdec="https://www.free-decompiler.com/flash" xmlns:xlink="http://www.w3.org/1999/xlink" ffdec:objectType="shape" height="13.2px" width="12.85px" xmlns="http://www.w3.org/2000/svg">
  <g transform="matrix(1.0, 0.0, 0.0, 1.0, -0.1, -0.75)">
    <path d="M11.75 9.7 L11.95 9.95 11.95 10.2 11.75 10.4 6.7 12.95 6.3 12.95 1.2 10.4 1.1 10.2 1.1 9.95 1.2 9.7 6.45 7.15 6.7 7.2 11.75 9.7" fill="#534641" fill-rule="evenodd" stroke="none"/>
    <path d="M11.75 9.7 L6.7 7.2 6.45 7.15 1.2 9.7 1.1 9.95 1.1 10.2 1.2 10.4 6.3 12.95 6.7 12.95 11.75 10.4 11.95 10.2 11.95 9.95 11.75 9.7 Z" fill="none" stroke="#332b29" stroke-linecap="butt" stroke-linejoin="round" stroke-width="2.0"/>
    <path d="M8.9 1.75 Q9.65 1.75 9.65 2.55 L9.65 6.65 Q9.65 7.4 8.9 7.4 L3.85 7.4 Q3.1 7.4 3.1 6.65 L3.1 2.55 Q3.1 1.75 3.85 1.75 L8.9 1.75 M7.55 10.6 L5.15 10.6 5.7 8.1 7.0 8.1 7.55 10.6" fill="#332b29" fill-rule="evenodd" stroke="none"/>
    <path d="M8.9 1.75 L3.85 1.75 Q3.1 1.75 3.1 2.55 L3.1 6.65 Q3.1 7.4 3.85 7.4 L8.9 7.4 Q9.65 7.4 9.65 6.65 L9.65 2.55 Q9.65 1.75 8.9 1.75 M7.55 10.6 L5.15 10.6 5.7 8.1 7.0 8.1 7.55 10.6 Z" fill="none" stroke="#332b29" stroke-linecap="butt" stroke-linejoin="round" stroke-width="2.0"/>
    <path d="M11.7 9.7 L11.95 9.95 11.95 10.2 11.7 10.4 6.65 12.95 6.3 12.95 1.2 10.4 1.05 10.2 1.05 9.95 1.2 9.7 4.25 8.2 4.95 8.2 4.4 10.4 4.4 10.85 4.7 11.2 5.15 11.4 7.55 11.4 8.05 11.25 8.3 10.9 8.3 10.4 7.8 8.2 8.7 8.2 11.7 9.7" fill="#b9beb6" fill-rule="evenodd" stroke="none"/>
    <path d="M9.65 2.55 L9.65 6.65 Q9.65 7.4 8.9 7.4 L3.85 7.4 Q3.1 7.4 3.1 6.65 L3.1 2.55 Q3.1 1.75 3.85 1.75 L8.9 1.75 Q9.65 1.75 9.65 2.55" fill="#00ff09" fill-rule="evenodd" stroke="none"/>
    <path d="M5.7 8.1 L7.0 8.1 7.55 10.6 5.15 10.6 5.7 8.1" fill="#0025ff" fill-rule="evenodd" stroke="none"/>
  </g>
</svg>
