<?xml version="1.0" encoding="UTF-8" standalone="no"?>
<svg xmlns:ffdec="https://www.free-decompiler.com/flash" xmlns:xlink="http://www.w3.org/1999/xlink" ffdec:objectType="shape" height="15.1px" width="11.4px" xmlns="http://www.w3.org/2000/svg">
  <g transform="matrix(1.0, 0.0, 0.0, 1.0, -7.65, -6.65)">
    <path d="M11.3 17.8 Q11.0 18.1 11.0 18.55 11.0 18.95 11.3 19.25 11.6 19.6 12.05 19.6 12.45 19.6 12.75 19.25 L13.05 18.55 12.75 17.8 Q12.45 17.5 12.05 17.5 11.6 17.5 11.3 17.8 M15.65 18.55 L15.35 17.8 Q15.05 17.5 14.65 17.5 14.2 17.5 13.9 17.8 13.6 18.1 13.6 18.55 13.6 18.95 13.9 19.25 14.2 19.6 14.65 19.6 15.05 19.6 15.35 19.25 L15.65 18.55 M9.45 14.25 L9.65 14.1 9.85 14.25 10.25 15.85 10.6 15.85 10.6 15.65 10.85 15.1 11.35 14.9 15.25 14.9 15.75 15.1 16.0 15.65 16.0 15.85 16.35 15.85 16.75 14.25 Q16.85 14.0 16.95 14.1 17.05 14.1 17.15 14.25 L17.55 15.85 17.65 16.15 17.7 16.45 Q17.75 17.15 17.3 17.2 L16.0 17.2 16.0 19.4 15.75 19.95 15.35 20.15 15.2 20.6 14.8 20.75 14.45 20.6 14.25 20.15 12.35 20.15 12.2 20.6 11.8 20.75 11.45 20.6 11.25 20.15 10.85 19.95 10.6 19.4 10.6 17.2 9.3 17.2 Q8.85 17.15 8.9 16.45 L8.95 16.15 9.05 15.85 9.45 14.25" fill="#ffffff" fill-rule="evenodd" stroke="none"/>
    <path d="M9.45 14.25 L9.05 15.85 8.95 16.15 8.9 16.45 Q8.85 17.15 9.3 17.2 L10.6 17.2 10.6 19.4 10.85 19.95 11.25 20.15 11.45 20.6 11.8 20.75 12.2 20.6 12.35 20.15 14.25 20.15 14.45 20.6 14.8 20.75 15.2 20.6 15.35 20.15 15.75 19.95 16.0 19.4 16.0 17.2 17.3 17.2 Q17.75 17.15 17.7 16.45 L17.65 16.15 17.55 15.85 17.15 14.25 Q17.05 14.1 16.95 14.1 16.85 14.0 16.75 14.25 L16.35 15.85 16.0 15.85 16.0 15.65 15.75 15.1 15.25 14.9 11.35 14.9 10.85 15.1 10.6 15.65 10.6 15.85 10.25 15.85 9.85 14.25 9.65 14.1 9.45 14.25 M15.65 18.55 L15.35 19.25 Q15.05 19.6 14.65 19.6 14.2 19.6 13.9 19.25 13.6 18.95 13.6 18.55 13.6 18.1 13.9 17.8 14.2 17.5 14.65 17.5 15.05 17.5 15.35 17.8 L15.65 18.55 M11.3 17.8 Q11.6 17.5 12.05 17.5 12.45 17.5 12.75 17.8 L13.05 18.55 12.75 19.25 Q12.45 19.6 12.05 19.6 11.6 19.6 11.3 19.25 11.0 18.95 11.0 18.55 11.0 18.1 11.3 17.8 Z" fill="none" stroke="#534641" stroke-linecap="butt" stroke-linejoin="miter-clip" stroke-miterlimit="3.0" stroke-width="2.0"/>
    <path d="M9.65 14.1 L9.85 14.25 10.25 15.85 10.6 15.85 10.6 15.65 10.85 15.1 11.35 14.9 15.25 14.9 15.75 15.1 16.0 15.65 16.0 15.85 16.35 15.85 16.75 14.25 Q16.85 14.0 16.95 14.1 17.05 14.1 17.15 14.25 L17.55 15.85 17.65 16.15 17.7 16.45 Q17.75 17.15 17.3 17.2 L16.0 17.2 16.0 19.4 15.75 19.95 15.35 20.15 15.2 20.6 14.8 20.75 14.45 20.6 14.25 20.15 12.35 20.15 12.2 20.6 11.8 20.75 11.45 20.6 11.25 20.15 10.85 19.95 10.6 19.4 10.6 17.2 9.3 17.2 Q8.85 17.15 8.9 16.45 L8.95 16.15 9.05 15.85 9.45 14.25 9.65 14.1 M11.3 17.8 Q11.0 18.1 11.0 18.55 11.0 18.95 11.3 19.25 11.6 19.6 12.05 19.6 12.45 19.6 12.75 19.25 L13.05 18.55 12.75 17.8 Q12.45 17.5 12.05 17.5 11.6 17.5 11.3 17.8 M15.65 18.55 L15.35 17.8 Q15.05 17.5 14.65 17.5 14.2 17.5 13.9 17.8 13.6 18.1 13.6 18.55 13.6 18.95 13.9 19.25 14.2 19.6 14.65 19.6 15.05 19.6 15.35 19.25 L15.65 18.55" fill="#ffffff" fill-rule="evenodd" stroke="none"/>
    <path d="M10.7 10.65 L10.5 11.0 10.1 11.15 9.7 11.0 8.8 10.1 8.65 9.65 Q8.65 9.45 8.8 9.3 L9.2 9.15 Q9.4 9.15 9.55 9.3 L10.5 10.25 10.7 10.65 M13.7 7.8 L13.85 8.2 13.85 9.5 13.7 9.95 13.3 10.1 12.95 9.95 12.75 9.5 12.75 8.2 12.95 7.8 Q13.1 7.65 13.3 7.65 L13.7 7.8 M17.05 9.3 L17.35 9.15 Q17.6 9.15 17.75 9.3 L17.95 9.65 17.75 10.1 16.85 11.0 16.5 11.15 16.05 11.0 15.9 10.65 Q15.9 10.4 16.05 10.25 L17.05 9.3" fill="#534641" fill-rule="evenodd" stroke="none"/>
    <path d="M13.7 7.8 L13.3 7.65 Q13.1 7.65 12.95 7.8 L12.75 8.2 12.75 9.5 12.95 9.95 13.3 10.1 13.7 9.95 13.85 9.5 13.85 8.2 13.7 7.8 M10.7 10.65 L10.5 10.25 9.55 9.3 Q9.4 9.15 9.2 9.15 L8.8 9.3 Q8.65 9.45 8.65 9.65 L8.8 10.1 9.7 11.0 10.1 11.15 10.5 11.0 10.7 10.65 M17.05 9.3 L17.35 9.15 Q17.6 9.15 17.75 9.3 L17.95 9.65 17.75 10.1 16.85 11.0 16.5 11.15 16.05 11.0 15.9 10.65 Q15.9 10.4 16.05 10.25 L17.05 9.3 Z" fill="none" stroke="#534641" stroke-linecap="butt" stroke-linejoin="miter-clip" stroke-miterlimit="3.0" stroke-width="2.0"/>
    <path d="M10.7 10.65 L10.5 11.0 10.1 11.15 9.7 11.0 8.8 10.1 8.65 9.65 Q8.65 9.45 8.8 9.3 L9.2 9.15 Q9.4 9.15 9.55 9.3 L10.5 10.25 10.7 10.65 M12.95 7.8 Q13.1 7.65 13.3 7.65 L13.7 7.8 13.85 8.2 13.85 9.5 13.7 9.95 13.3 10.1 12.95 9.95 12.75 9.5 12.75 8.2 12.95 7.8 M17.05 9.3 L17.35 9.15 Q17.6 9.15 17.75 9.3 L17.95 9.65 17.75 10.1 16.85 11.0 16.5 11.15 16.05 11.0 15.9 10.65 Q15.9 10.4 16.05 10.25 L17.05 9.3" fill="#ffffff" fill-rule="evenodd" stroke="none"/>
  </g>
</svg>
