<?xml version="1.0" encoding="UTF-8" standalone="no"?>
<svg xmlns:ffdec="https://www.free-decompiler.com/flash" xmlns:xlink="http://www.w3.org/1999/xlink" ffdec:objectType="shape" height="15.55px" width="8.5px" xmlns="http://www.w3.org/2000/svg">
  <g transform="matrix(1.0, 0.0, 0.0, 1.0, -9.35, -6.2)">
    <path d="M11.8 7.7 Q11.8 7.5 11.95 7.35 12.1 7.2 12.3 7.2 L14.9 7.2 15.25 7.35 15.4 7.7 15.4 10.25 15.25 10.6 14.9 10.75 12.3 10.75 11.95 10.6 11.8 10.25 11.8 7.7 M16.85 11.35 L16.85 14.65 16.85 15.45 16.85 16.25 15.5 16.25 15.5 15.45 15.5 14.65 15.5 12.85 15.2 12.85 15.2 19.85 15.7 19.85 15.7 20.75 13.85 20.75 13.85 20.65 13.85 20.25 13.85 19.85 13.85 17.1 13.35 17.1 13.35 19.85 13.35 20.25 13.35 20.65 13.35 20.75 11.4 20.75 11.4 19.85 12.0 19.85 12.0 12.85 11.75 12.85 11.75 14.65 11.75 15.45 11.75 16.25 10.35 16.25 10.35 15.45 10.35 14.65 10.35 11.35 16.85 11.35" fill="#ffffff" fill-rule="evenodd" stroke="none"/>
    <path d="M11.8 7.7 L11.8 10.25 11.95 10.6 12.3 10.75 14.9 10.75 15.25 10.6 15.4 10.25 15.4 7.7 15.25 7.35 14.9 7.2 12.3 7.2 Q12.1 7.2 11.95 7.35 11.8 7.5 11.8 7.7 M16.85 11.35 L16.85 14.65 16.85 15.45 16.85 16.25 15.5 16.25 15.5 15.45 15.5 14.65 15.5 12.85 15.2 12.85 15.2 19.85 15.7 19.85 15.7 20.75 13.85 20.75 13.85 20.65 13.85 20.25 13.85 19.85 13.85 17.1 13.35 17.1 13.35 19.85 13.35 20.25 13.35 20.65 13.35 20.75 11.4 20.75 11.4 19.85 12.0 19.85 12.0 12.85 11.75 12.85 11.75 14.65 11.75 15.45 11.75 16.25 10.35 16.25 10.35 15.45 10.35 14.65 10.35 11.35 16.85 11.35 Z" fill="none" stroke="#332b29" stroke-linecap="butt" stroke-linejoin="miter-clip" stroke-miterlimit="3.0" stroke-width="2.0"/>
    <path d="M11.8 7.7 Q11.8 7.5 11.95 7.35 12.1 7.2 12.3 7.2 L14.9 7.2 15.25 7.35 15.4 7.7 15.4 10.25 15.25 10.6 14.9 10.75 12.3 10.75 11.95 10.6 11.8 10.25 11.8 7.7 M16.85 11.35 L16.85 16.25 15.5 16.25 15.5 12.85 15.2 12.85 15.2 19.85 15.7 19.85 15.7 20.75 13.85 20.75 13.85 17.1 13.35 17.1 13.35 20.75 11.4 20.75 11.4 19.85 12.0 19.85 12.0 12.85 11.75 12.85 11.75 16.25 10.35 16.25 10.35 11.35 16.85 11.35" fill="#ffffff" fill-rule="evenodd" stroke="none"/>
  </g>
</svg>
