<?xml version="1.0" encoding="UTF-8" standalone="no"?>
<svg xmlns:ffdec="https://www.free-decompiler.com/flash" xmlns:xlink="http://www.w3.org/1999/xlink" ffdec:objectType="shape" height="14.3px" width="14.65px" xmlns="http://www.w3.org/2000/svg">
  <g transform="matrix(1.0, 0.0, 0.0, 1.0, 0.0, 0.0)">
    <path d="M0.0 14.3 L0.0 0.0 14.65 0.0 14.65 14.3 0.0 14.3" fill="#ffffff" fill-opacity="0.0" fill-rule="evenodd" stroke="none"/>
    <path d="M12.0 3.0 L11.95 2.85 11.75 2.8 9.55 2.8 9.4 2.9 6.4 5.8 6.9 3.1 6.9 3.0 6.8 2.85 6.65 2.8 5.05 2.8 4.9 2.85 4.8 3.0 4.8 3.05 4.05 6.55 3.55 6.55 3.5 6.65 3.4 6.75 3.0 8.5 3.05 8.6 3.2 8.65 3.7 8.65 3.2 11.5 3.2 11.6 3.3 11.75 3.5 11.8 5.05 11.8 5.2 11.75 5.3 11.55 5.85 8.65 7.25 8.65 8.8 11.75 9.0 11.8 10.8 11.8 11.0 11.75 11.05 11.55 11.05 11.4 9.7 8.65 10.9 8.65 11.0 8.6 11.05 8.5 11.45 6.75 11.4 6.65 11.3 6.55 8.65 6.55 8.55 6.45 11.95 3.3 12.0 3.2 12.0 3.0 Z" fill="none" stroke="#432801" stroke-linecap="round" stroke-linejoin="bevel" stroke-width="1.0"/>
    <path d="M12.0 3.0 L12.0 3.1 11.95 3.3 8.55 6.45 8.65 6.55 11.3 6.55 11.4 6.65 11.45 6.75 11.1 8.4 11.05 8.55 10.9 8.6 9.7 8.6 11.05 11.35 11.1 11.55 11.0 11.75 10.8 11.8 9.0 11.8 8.85 11.75 8.75 11.6 7.3 8.6 5.9 8.6 5.25 11.75 5.05 11.8 3.4 11.8 3.3 11.75 3.2 11.6 3.2 11.4 3.7 8.6 3.2 8.6 3.05 8.55 3.05 8.4 3.4 6.75 3.6 6.55 4.15 6.55 4.85 3.05 4.85 3.0 4.9 2.85 5.05 2.8 6.85 2.8 6.9 3.0 6.95 3.1 6.45 5.85 9.4 2.85 9.55 2.8 11.95 2.8 12.0 3.0" fill="#ff9900" fill-rule="evenodd" stroke="none"/>
  </g>
</svg>
