<?xml version="1.0" encoding="UTF-8" standalone="no"?>
<svg xmlns:ffdec="https://www.free-decompiler.com/flash" xmlns:xlink="http://www.w3.org/1999/xlink" ffdec:objectType="shape" height="51.0px" width="181.25px" xmlns="http://www.w3.org/2000/svg">
  <g transform="matrix(1.0, 0.0, 0.0, 1.0, 0.75, 0.5)">
    <path d="M0.0 0.3 L3.75 0.05 4.8 0.0 145.6 0.0 Q152.3 0.05 158.05 2.0 162.1 3.45 165.6 5.8 L168.95 2.1 171.7 4.0 175.65 7.8 171.4 11.0 Q174.15 14.05 175.55 17.55 L178.5 16.5 Q179.8 20.15 180.0 24.25 L176.8 24.75 176.8 24.95 Q176.8 35.35 167.55 42.65 L164.65 44.75 162.55 46.0 Q155.15 49.9 145.6 50.0 L4.8 50.0 0.0 49.7 0.0 43.15 3.75 43.55 4.8 43.55 145.6 43.55 Q154.95 43.5 161.8 38.2 165.95 34.85 167.55 30.7 168.3 28.9 168.5 26.9 L166.7 27.2 165.95 27.1 165.5 26.85 165.2 26.35 165.3 24.95 164.75 21.3 164.75 20.8 165.4 20.45 167.65 19.6 165.95 16.35 164.75 17.35 164.05 17.55 163.25 17.5 162.65 17.1 Q161.45 15.25 159.35 13.6 L159.25 13.55 158.15 12.5 Q158.15 12.15 158.5 12.05 L159.95 10.4 Q153.8 6.45 145.6 6.4 L4.8 6.4 3.75 6.45 0.0 6.85 0.0 0.3" fill="#d7d0b9" fill-rule="evenodd" stroke="none"/>
    <path d="M0.0 6.85 L3.75 6.45 4.8 6.4 145.6 6.4 Q153.8 6.45 159.95 10.4 L158.5 12.05 Q158.15 12.15 158.15 12.5 L159.25 13.55 159.35 13.6 Q161.45 15.25 162.65 17.1 L163.25 17.5 164.05 17.55 164.75 17.35 165.95 16.35 167.65 19.6 165.4 20.45 164.75 20.8 164.75 21.3 165.3 24.95 165.2 26.35 165.5 26.85 165.95 27.1 166.7 27.2 168.5 26.9 Q168.3 28.9 167.55 30.7 165.95 34.85 161.8 38.2 154.95 43.5 145.6 43.55 L4.8 43.55 3.75 43.55 0.0 43.15 0.0 6.85" fill="#b6a47c" fill-rule="evenodd" stroke="none"/>
    <path d="M0.0 49.7 L4.8 50.0 145.6 50.0 Q155.15 49.9 162.55 46.0 L164.65 44.75 167.55 42.65 Q176.8 35.35 176.8 24.95 L176.8 24.75 180.0 24.25 Q179.8 20.15 178.5 16.5 L175.55 17.55 Q174.15 14.05 171.4 11.0 L175.65 7.8 171.7 4.0 168.95 2.1 165.6 5.8 Q162.1 3.45 158.05 2.0 152.3 0.05 145.6 0.0 L4.8 0.0 3.75 0.05 0.0 0.3" fill="none" stroke="url(#gradient0)" stroke-linecap="butt" stroke-linejoin="miter-clip" stroke-miterlimit="3.0" stroke-width="1.0"/>
    <path d="M0.0 6.85 L3.75 6.45 4.8 6.4 145.6 6.4 Q153.8 6.45 159.95 10.4 L158.5 12.05 Q158.15 12.15 158.15 12.5 L159.25 13.55 159.35 13.6 Q161.45 15.25 162.65 17.1 L163.25 17.5 164.05 17.55 164.75 17.35 165.95 16.35 167.65 19.6 165.4 20.45 164.75 20.8 164.75 21.3 165.3 24.95 165.2 26.35 165.5 26.85 165.95 27.1 166.7 27.2 168.5 26.9 Q168.3 28.9 167.55 30.7 165.95 34.85 161.8 38.2 154.95 43.5 145.6 43.55 L4.8 43.55 3.75 43.55 0.0 43.15" fill="none" stroke="#766245" stroke-linecap="butt" stroke-linejoin="miter-clip" stroke-miterlimit="3.0" stroke-width="1.5"/>
  </g>
  <defs>
    <linearGradient gradientTransform="matrix(6.0E-4, -0.082, 0.0491, 2.0E-4, 75.1, 24.95)" gradientUnits="userSpaceOnUse" id="gradient0" spreadMethod="pad" x1="-819.2" x2="819.2">
      <stop offset="0.0" stop-color="#000000" stop-opacity="0.3019608"/>
      <stop offset="1.0" stop-color="#000000" stop-opacity="0.0"/>
    </linearGradient>
  </defs>
</svg>
