<?xml version="1.0" encoding="UTF-8" standalone="no"?>
<svg xmlns:ffdec="https://www.free-decompiler.com/flash" xmlns:xlink="http://www.w3.org/1999/xlink" ffdec:objectType="shape" height="148.2px" width="146.2px" xmlns="http://www.w3.org/2000/svg">
  <g transform="matrix(1.0, 0.0, 0.0, 1.0, 0.5, 0.5)">
    <path d="M144.1 10.55 Q145.1 13.65 145.2 17.65 L145.2 129.5 Q145.15 133.6 144.1 136.7 142.9 140.4 140.35 142.8 138.6 144.4 136.25 145.4 L133.55 146.25 Q130.5 147.2 126.6 147.2 L18.8 147.2 Q14.95 147.2 11.95 146.25 L9.25 145.4 Q6.85 144.4 5.05 142.8 0.1 138.4 0.0 129.5 L0.0 17.65 Q0.15 10.85 3.0 6.75 6.65 1.3 15.0 0.25 L18.8 0.0 126.6 0.0 130.35 0.25 Q138.7 1.3 142.3 6.75 143.45 8.45 144.1 10.55 M135.4 22.2 L135.25 22.2 134.9 21.5 134.75 21.35 134.6 20.9 Q130.85 12.4 118.4 11.8 L26.9 11.8 Q17.4 12.25 13.0 17.5 L11.35 20.9 10.95 20.75 10.0 22.3 9.4 22.3 9.4 23.65 8.95 24.7 Q8.05 27.7 7.9 31.65 L7.9 119.8 Q8.05 126.3 10.8 130.35 15.3 137.15 26.8 137.3 L118.4 137.3 Q126.75 137.15 131.45 133.65 L132.95 132.3 Q137.35 127.9 137.5 119.8 L137.5 31.65 137.2 27.4 136.9 25.9 135.4 22.2 M141.3 19.75 Q140.95 2.35 122.5 2.05 L22.1 2.05 Q3.65 2.35 3.35 19.75 L3.35 25.0 Q3.8 8.1 22.1 7.8 L122.5 7.8 Q140.8 8.1 141.3 25.0 L141.3 19.75" fill="#d7d0b9" fill-rule="evenodd" stroke="none"/>
    <path d="M134.6 20.9 L134.75 21.35 134.6 21.05 134.6 20.9" fill="#291812" fill-rule="evenodd" stroke="none"/>
    <path d="M135.25 22.2 L135.4 22.2 135.05 22.35 135.25 22.2" fill="#5f5753" fill-rule="evenodd" stroke="none"/>
    <path d="M141.3 19.75 L141.3 25.0 Q140.8 8.1 122.5 7.8 L22.1 7.8 Q3.8 8.1 3.35 25.0 L3.35 19.75 Q3.65 2.35 22.1 2.05 L122.5 2.05 Q140.95 2.35 141.3 19.75" fill="#eae7db" fill-rule="evenodd" stroke="none"/>
    <path d="M133.25 34.6 L133.1 34.6 133.1 33.55 133.25 34.6" fill="#302b28" fill-rule="evenodd" stroke="none"/>
    <path d="M11.05 126.55 L11.15 126.55 11.35 127.15 11.05 126.55 M135.7 123.15 L134.9 125.7 134.9 125.25 135.4 123.9 136.25 118.2 135.7 123.15" fill="url(#gradient0)" fill-rule="evenodd" stroke="none"/>
    <path d="M144.1 10.55 Q145.1 13.65 145.2 17.65 L145.2 129.5 Q145.15 133.6 144.1 136.7 142.9 140.4 140.35 142.8 138.6 144.4 136.25 145.4 L133.55 146.25 Q130.5 147.2 126.6 147.2 L18.8 147.2 Q14.95 147.2 11.95 146.25 L9.25 145.4 Q6.85 144.4 5.05 142.8 0.1 138.4 0.0 129.5 L0.0 17.65 Q0.15 10.85 3.0 6.75 6.65 1.3 15.0 0.25 L18.8 0.0 126.6 0.0 130.35 0.25 Q138.7 1.3 142.3 6.75 143.45 8.45 144.1 10.55 Z" fill="none" stroke="#000000" stroke-linecap="butt" stroke-linejoin="miter-clip" stroke-miterlimit="3.0" stroke-opacity="0.3019608" stroke-width="1.0"/>
    <path d="M125.7 28.85 L126.65 32.8 126.65 34.55 126.45 34.15 125.55 33.25 Q123.55 31.05 119.8 29.45 110.45 24.75 97.4 28.7 95.0 29.45 91.35 31.2 85.6 33.85 77.0 39.3 71.55 42.7 67.2 45.65 L52.05 54.6 Q38.6 62.55 30.25 64.3 20.45 66.85 15.45 61.1 L14.7 59.9 14.7 38.15 Q14.55 33.4 15.45 30.5 L15.9 29.3 Q17.3 25.6 19.7 23.25 21.7 21.05 24.7 20.05 24.7 19.9 24.85 19.9 27.25 18.95 29.95 18.4 L107.7 18.25 113.6 18.95 Q116.35 19.4 118.6 20.8 123.55 23.25 125.7 28.85" fill="#ffffff" fill-opacity="0.15294118" fill-rule="evenodd" stroke="none"/>
    <path d="M136.25 14.95 L136.25 133.8 7.8 133.8 7.8 14.95 136.25 14.95" fill="#766245" fill-opacity="0.0" fill-rule="evenodd" stroke="none"/>
    <path d="M137.75 25.45 L138.15 30.0 138.15 120.45 137.3 126.3 136.0 129.55 135.4 129.55 135.4 130.45 133.7 132.6 133.25 133.0 Q128.6 137.65 119.15 137.8 L26.8 137.8 Q15.15 137.65 10.65 130.75 L10.65 130.6 10.5 130.6 8.8 126.3 7.8 120.45 7.8 30.0 Q7.8 27.6 8.35 25.45 10.65 12.6 25.95 12.0 L119.85 12.0 Q132.65 12.6 136.5 21.3 L136.35 21.3 136.65 21.9 137.75 25.45 M134.95 34.15 L134.5 30.7 Q133.25 15.7 116.8 14.95 L28.5 14.95 Q11.3 15.7 10.95 32.5 L10.95 117.4 Q11.3 134.25 28.5 134.95 L116.8 134.95 Q133.4 134.25 134.5 119.05 134.95 116.7 134.95 114.1 L134.95 34.15" fill="#766245" fill-rule="evenodd" stroke="none"/>
  </g>
  <defs>
    <linearGradient gradientTransform="matrix(0.0, -0.087, 0.0901, 0.0, 75.15, 88.0)" gradientUnits="userSpaceOnUse" id="gradient0" spreadMethod="pad" x1="-819.2" x2="819.2">
      <stop offset="0.011764705882352941" stop-color="#8e8179"/>
      <stop offset="0.17254901960784313" stop-color="#766759"/>
      <stop offset="0.6313725490196078" stop-color="#a5a097"/>
      <stop offset="1.0" stop-color="#a7a299"/>
    </linearGradient>
  </defs>
</svg>
