<?xml version="1.0" encoding="UTF-8" standalone="no"?>
<svg xmlns:ffdec="https://www.free-decompiler.com/flash" xmlns:xlink="http://www.w3.org/1999/xlink" ffdec:objectType="shape" height="38.0px" width="356.0px" xmlns="http://www.w3.org/2000/svg">
  <g transform="matrix(1.0, 0.0, 0.0, 1.0, 1.0, 1.0)">
    <path d="M0.0 16.55 L0.0 11.6 Q0.0 6.8 3.4 3.4 6.75 0.0 11.55 0.0 L342.45 0.0 Q345.05 0.0 347.2 1.0 349.05 1.85 350.6 3.4 353.55 6.35 353.95 10.35 L354.0 21.2 353.95 18.95 353.95 17.8 353.9 17.7 Q353.05 14.25 350.4 11.75 348.9 10.35 347.2 9.6 345.0 8.6 342.45 8.6 L11.55 8.6 Q6.95 8.6 3.65 11.75 0.8 14.4 0.15 18.1 L0.1 19.0 0.1 18.6 0.0 16.55" fill="#dededd" fill-rule="evenodd" stroke="none"/>
    <path d="M0.0 16.55 L0.1 18.6 0.1 19.0 0.15 18.1 Q0.8 14.4 3.65 11.75 6.95 8.6 11.55 8.6 L342.45 8.6 Q345.0 8.6 347.2 9.6 348.9 10.35 350.4 11.75 353.05 14.25 353.9 17.7 L353.95 17.8 353.95 18.95 353.9 19.1 353.9 24.6 354.0 22.9 353.95 25.75 353.9 26.1 353.9 26.2 353.85 26.4 Q353.3 29.95 350.6 32.6 L347.2 35.05 Q345.05 36.0 342.45 36.0 L11.55 36.0 Q6.75 36.0 3.4 32.6 0.7 29.95 0.15 26.4 L0.0 25.7 0.0 18.6 0.1 18.6 0.0 17.55 0.0 16.55" fill="#f2f2f2" fill-rule="evenodd" stroke="none"/>
    <path d="M354.0 21.2 L353.95 10.35 Q353.55 6.35 350.6 3.4 349.05 1.85 347.2 1.0 345.05 0.0 342.45 0.0 L11.55 0.0 Q6.75 0.0 3.4 3.4 0.0 6.8 0.0 11.6 L0.0 16.55 0.0 17.55 0.0 18.6 0.0 25.7 0.15 26.4 Q0.7 29.95 3.4 32.6 6.75 36.0 11.55 36.0 L342.45 36.0 Q345.05 36.0 347.2 35.05 L350.6 32.6 Q353.3 29.95 353.85 26.4 L353.9 26.2 353.9 26.1 M354.0 21.2 L354.0 22.9 353.95 25.75" fill="none" stroke="#302926" stroke-linecap="butt" stroke-linejoin="round" stroke-width="2.0"/>
    <path d="M0.0 16.55 L0.0 11.6 Q0.0 6.8 3.4 3.4 6.75 0.0 11.55 0.0 L342.45 0.0 Q345.05 0.0 347.2 1.0 349.05 1.85 350.6 3.4 353.55 6.35 353.95 10.35 L354.0 21.2 353.95 18.95 353.95 17.8 353.9 17.7 Q353.05 14.25 350.4 11.75 348.9 10.35 347.2 9.6 345.0 8.6 342.45 8.6 L11.55 8.6 Q6.95 8.6 3.65 11.75 0.8 14.4 0.15 18.1 L0.1 19.0 0.1 18.6 0.0 16.55" fill="#dededd" fill-rule="evenodd" stroke="none"/>
    <path d="M0.0 16.55 L0.1 18.6 0.1 19.0 0.15 18.1 Q0.8 14.4 3.65 11.75 6.95 8.6 11.55 8.6 L342.45 8.6 Q345.0 8.6 347.2 9.6 348.9 10.35 350.4 11.75 353.05 14.25 353.9 17.7 L353.95 17.8 353.95 18.95 353.9 19.1 353.9 24.6 354.0 22.9 353.95 25.75 353.9 26.1 353.9 26.2 353.85 26.4 Q353.3 29.95 350.6 32.6 L347.2 35.05 Q345.05 36.0 342.45 36.0 L11.55 36.0 Q6.75 36.0 3.4 32.6 0.7 29.95 0.15 26.4 L0.0 25.7 0.0 18.6 0.1 18.6 0.0 17.55 0.0 16.55" fill="#f2f2f2" fill-rule="evenodd" stroke="none"/>
    <path d="M354.0 21.2 L353.95 10.35 Q353.55 6.35 350.6 3.4 349.05 1.85 347.2 1.0 345.05 0.0 342.45 0.0 L11.55 0.0 Q6.75 0.0 3.4 3.4 0.0 6.8 0.0 11.6 L0.0 16.55 0.0 17.55 0.0 18.6 0.0 25.7 0.15 26.4 Q0.7 29.95 3.4 32.6 6.75 36.0 11.55 36.0 L342.45 36.0 Q345.05 36.0 347.2 35.05 L350.6 32.6 Q353.3 29.95 353.85 26.4 L353.9 26.2 353.9 26.1 M354.0 21.2 L354.0 22.9 353.95 25.75" fill="none" stroke="#302926" stroke-linecap="butt" stroke-linejoin="round" stroke-width="2.0"/>
    <path d="M0.0 16.55 L0.0 11.6 Q0.0 6.8 3.4 3.4 6.75 0.0 11.55 0.0 L342.45 0.0 Q345.05 0.0 347.2 1.0 349.05 1.85 350.6 3.4 353.55 6.35 353.95 10.35 L354.0 21.2 353.95 18.95 353.95 17.8 353.9 17.7 Q353.05 14.25 350.4 11.75 348.9 10.35 347.2 9.6 345.0 8.6 342.45 8.6 L11.55 8.6 Q6.95 8.6 3.65 11.75 0.8 14.4 0.15 18.1 L0.1 19.0 0.1 18.6 0.0 16.55" fill="#dededd" fill-rule="evenodd" stroke="none"/>
    <path d="M0.0 16.55 L0.1 18.6 0.1 19.0 0.15 18.1 Q0.8 14.4 3.65 11.75 6.95 8.6 11.55 8.6 L342.45 8.6 Q345.0 8.6 347.2 9.6 348.9 10.35 350.4 11.75 353.05 14.25 353.9 17.7 L353.95 17.8 353.95 18.95 353.9 19.1 353.9 24.6 354.0 22.9 353.95 25.75 353.9 26.1 353.9 26.2 353.85 26.4 Q353.3 29.95 350.6 32.6 L347.2 35.05 Q345.05 36.0 342.45 36.0 L11.55 36.0 Q6.75 36.0 3.4 32.6 0.7 29.95 0.15 26.4 L0.0 25.7 0.0 18.6 0.1 18.6 0.0 17.55 0.0 16.55" fill="#f2f2f2" fill-rule="evenodd" stroke="none"/>
    <path d="M354.0 21.2 L353.95 10.35 Q353.55 6.35 350.6 3.4 349.05 1.85 347.2 1.0 345.05 0.0 342.45 0.0 L11.55 0.0 Q6.75 0.0 3.4 3.4 0.0 6.8 0.0 11.6 L0.0 16.55 0.0 17.55 0.0 18.6 0.0 25.7 0.15 26.4 Q0.7 29.95 3.4 32.6 6.75 36.0 11.55 36.0 L342.45 36.0 Q345.05 36.0 347.2 35.05 L350.6 32.6 Q353.3 29.95 353.85 26.4 L353.9 26.2 353.9 26.1 M354.0 21.2 L354.0 22.9 353.95 25.75" fill="none" stroke="#302926" stroke-linecap="butt" stroke-linejoin="round" stroke-width="2.0"/>
    <path d="M0.0 16.55 L0.0 11.6 Q0.0 6.8 3.4 3.4 6.75 0.0 11.55 0.0 L342.45 0.0 Q345.05 0.0 347.2 1.0 349.05 1.85 350.6 3.4 353.55 6.35 353.95 10.35 L354.0 21.2 353.95 18.95 353.95 17.8 353.9 17.7 Q353.05 14.25 350.4 11.75 348.9 10.35 347.2 9.6 345.0 8.6 342.45 8.6 L11.55 8.6 Q6.95 8.6 3.65 11.75 0.8 14.4 0.15 18.1 L0.1 19.0 0.1 18.6 0.0 16.55" fill="#dededd" fill-rule="evenodd" stroke="none"/>
    <path d="M0.0 16.55 L0.1 18.6 0.1 19.0 0.15 18.1 Q0.8 14.4 3.65 11.75 6.95 8.6 11.55 8.6 L342.45 8.6 Q345.0 8.6 347.2 9.6 348.9 10.35 350.4 11.75 353.05 14.25 353.9 17.7 L353.95 17.8 353.95 18.95 353.9 19.1 353.9 24.6 354.0 22.9 353.95 25.75 353.9 26.1 353.9 26.2 353.85 26.4 Q353.3 29.95 350.6 32.6 L347.2 35.05 Q345.05 36.0 342.45 36.0 L11.55 36.0 Q6.75 36.0 3.4 32.6 0.7 29.95 0.15 26.4 L0.0 25.7 0.0 18.6 0.1 18.6 0.0 17.55 0.0 16.55" fill="#f2f2f2" fill-rule="evenodd" stroke="none"/>
    <path d="M354.0 21.2 L353.95 10.35 Q353.55 6.35 350.6 3.4 349.05 1.85 347.2 1.0 345.05 0.0 342.45 0.0 L11.55 0.0 Q6.75 0.0 3.4 3.4 0.0 6.8 0.0 11.6 L0.0 16.55 0.0 17.55 0.0 18.6 0.0 25.7 0.15 26.4 Q0.7 29.95 3.4 32.6 6.75 36.0 11.55 36.0 L342.45 36.0 Q345.05 36.0 347.2 35.05 L350.6 32.6 Q353.3 29.95 353.85 26.4 L353.9 26.2 353.9 26.1 M354.0 21.2 L354.0 22.9 353.95 25.75" fill="none" stroke="#302926" stroke-linecap="butt" stroke-linejoin="round" stroke-width="2.0"/>
    <path d="M0.0 16.55 L0.0 11.6 Q0.0 6.8 3.4 3.4 6.75 0.0 11.55 0.0 L342.45 0.0 Q345.05 0.0 347.2 1.0 349.05 1.85 350.6 3.4 353.55 6.35 353.95 10.35 L354.0 21.2 353.95 18.95 353.95 17.8 353.9 17.7 Q353.05 14.25 350.4 11.75 348.9 10.35 347.2 9.6 345.0 8.6 342.45 8.6 L11.55 8.6 Q6.95 8.6 3.65 11.75 0.8 14.4 0.15 18.1 L0.1 19.0 0.1 18.6 0.0 16.55" fill="#dededd" fill-rule="evenodd" stroke="none"/>
    <path d="M0.0 16.55 L0.1 18.6 0.1 19.0 0.15 18.1 Q0.8 14.4 3.65 11.75 6.95 8.6 11.55 8.6 L342.45 8.6 Q345.0 8.6 347.2 9.6 348.9 10.35 350.4 11.75 353.05 14.25 353.9 17.7 L353.95 17.8 353.95 18.95 353.9 19.1 353.9 24.6 354.0 22.9 353.95 25.75 353.9 26.1 353.9 26.2 353.85 26.4 Q353.3 29.95 350.6 32.6 L347.2 35.05 Q345.05 36.0 342.45 36.0 L11.55 36.0 Q6.75 36.0 3.4 32.6 0.7 29.95 0.15 26.4 L0.0 25.7 0.0 18.6 0.1 18.6 0.0 17.55 0.0 16.55" fill="#f2f2f2" fill-rule="evenodd" stroke="none"/>
    <path d="M354.0 21.2 L353.95 10.35 Q353.55 6.35 350.6 3.4 349.05 1.85 347.2 1.0 345.05 0.0 342.45 0.0 L11.55 0.0 Q6.75 0.0 3.4 3.4 0.0 6.8 0.0 11.6 L0.0 16.55 0.0 17.55 0.0 18.6 0.0 25.7 0.15 26.4 Q0.7 29.95 3.4 32.6 6.75 36.0 11.55 36.0 L342.45 36.0 Q345.05 36.0 347.2 35.05 L350.6 32.6 Q353.3 29.95 353.85 26.4 L353.9 26.2 353.9 26.1 M354.0 21.2 L354.0 22.9 353.95 25.75" fill="none" stroke="#302926" stroke-linecap="butt" stroke-linejoin="round" stroke-width="2.0"/>
    <path d="M0.0 16.55 L0.0 11.6 Q0.0 6.8 3.4 3.4 6.75 0.0 11.55 0.0 L342.45 0.0 Q345.05 0.0 347.2 1.0 349.05 1.85 350.6 3.4 353.55 6.35 353.95 10.35 L354.0 21.2 353.95 18.95 353.95 17.8 353.9 17.7 Q353.05 14.25 350.4 11.75 348.9 10.35 347.2 9.6 345.0 8.6 342.45 8.6 L11.55 8.6 Q6.95 8.6 3.65 11.75 0.8 14.4 0.15 18.1 L0.1 19.0 0.1 18.6 0.0 16.55" fill="#dededd" fill-rule="evenodd" stroke="none"/>
    <path d="M0.0 16.55 L0.1 18.6 0.1 19.0 0.15 18.1 Q0.8 14.4 3.65 11.75 6.95 8.6 11.55 8.6 L342.45 8.6 Q345.0 8.6 347.2 9.6 348.9 10.35 350.4 11.75 353.05 14.25 353.9 17.7 L353.95 17.8 353.95 18.95 353.9 19.1 353.9 24.6 354.0 22.9 353.95 25.75 353.9 26.1 353.9 26.2 353.85 26.4 Q353.3 29.95 350.6 32.6 L347.2 35.05 Q345.05 36.0 342.45 36.0 L11.55 36.0 Q6.75 36.0 3.4 32.6 0.7 29.95 0.15 26.4 L0.0 25.7 0.0 18.6 0.1 18.6 0.0 17.55 0.0 16.55" fill="#f2f2f2" fill-rule="evenodd" stroke="none"/>
    <path d="M354.0 21.2 L353.95 10.35 Q353.55 6.35 350.6 3.4 349.05 1.85 347.2 1.0 345.05 0.0 342.45 0.0 L11.55 0.0 Q6.75 0.0 3.4 3.4 0.0 6.8 0.0 11.6 L0.0 16.55 0.0 17.55 0.0 18.6 0.0 25.7 0.15 26.4 Q0.7 29.95 3.4 32.6 6.75 36.0 11.55 36.0 L342.45 36.0 Q345.05 36.0 347.2 35.05 L350.6 32.6 Q353.3 29.95 353.85 26.4 L353.9 26.2 353.9 26.1 M354.0 21.2 L354.0 22.9 353.95 25.75" fill="none" stroke="#302926" stroke-linecap="butt" stroke-linejoin="round" stroke-width="2.0"/>
  </g>
</svg>
