<?xml version="1.0" encoding="UTF-8" standalone="no"?>
<svg xmlns:ffdec="https://www.free-decompiler.com/flash" xmlns:xlink="http://www.w3.org/1999/xlink" ffdec:objectType="shape" height="27.25px" width="24.7px" xmlns="http://www.w3.org/2000/svg">
  <g transform="matrix(1.0, 0.0, 0.0, 1.0, -5.7, -5.2)">
    <path d="M23.2 23.6 L19.2 20.45 19.8 32.45 17.25 32.45 17.65 20.65 13.85 23.6 15.2 17.65 10.4 13.8 16.4 13.3 16.4 13.25 18.55 7.6 18.55 7.55 20.7 13.3 26.7 13.8 21.9 17.65 23.25 23.6 23.2 23.6" fill="url(#gradient0)" fill-rule="evenodd" stroke="none"/>
    <path d="M23.35 6.15 L23.25 7.65 24.35 6.6 27.15 8.55 27.2 8.65 26.85 9.1 27.95 9.35 28.05 9.45 28.05 10.85 28.5 11.1 27.75 11.9 29.1 11.4 29.55 11.6 29.65 11.85 30.4 13.7 30.25 14.0 27.25 13.75 Q24.35 14.45 19.15 17.45 13.95 20.45 9.4 17.25 7.2 15.65 5.8 15.35 L5.7 15.3 6.05 13.85 6.1 13.8 7.15 13.05 6.45 12.75 6.8 12.05 8.35 12.1 7.15 11.15 Q8.05 9.85 9.2 8.7 L9.35 8.55 9.4 8.55 9.45 8.5 9.95 8.8 10.25 7.85 10.35 7.75 11.85 7.75 12.1 7.3 13.0 8.0 12.45 6.75 12.65 6.35 Q13.75 5.85 14.95 5.55 L16.2 6.05 16.0 5.4 18.15 5.2 18.25 5.2 21.4 5.55 22.25 6.55 22.6 5.9 23.35 6.15" fill="url(#gradient1)" fill-rule="evenodd" stroke="none"/>
  </g>
  <defs>
    <linearGradient gradientTransform="matrix(-4.0E-4, -0.0202, 0.0152, -3.0E-4, 16.3, 35.05)" gradientUnits="userSpaceOnUse" id="gradient0" spreadMethod="pad" x1="-819.2" x2="819.2">
      <stop offset="0.6470588235294118" stop-color="#847c73"/>
      <stop offset="1.0" stop-color="#ffffff"/>
    </linearGradient>
    <radialGradient cx="0" cy="0" gradientTransform="matrix(0.0468, 0.0, 0.0, 0.0295, 13.75, 0.35)" gradientUnits="userSpaceOnUse" id="gradient1" r="819.2" spreadMethod="pad">
      <stop offset="0.4745098039215686" stop-color="#ffffff" stop-opacity="0.77254903"/>
      <stop offset="1.0" stop-color="#ffffff" stop-opacity="0.0"/>
    </radialGradient>
  </defs>
</svg>
