<?xml version="1.0" encoding="UTF-8" standalone="no"?>
<svg xmlns:ffdec="https://www.free-decompiler.com/flash" xmlns:xlink="http://www.w3.org/1999/xlink" ffdec:objectType="shape" height="29.55px" width="25.65px" xmlns="http://www.w3.org/2000/svg">
  <g transform="matrix(1.0, 0.0, 0.0, 1.0, 0.0, 0.0)">
    <path d="M22.6 7.55 Q22.4 8.65 21.6 9.35 L20.3 10.1 20.25 10.15 20.2 14.8 20.25 14.9 21.35 14.9 21.95 15.1 22.1 15.4 22.15 15.85 22.15 16.95 21.95 17.5 21.7 17.7 21.25 17.75 20.4 17.75 20.35 17.8 20.35 18.75 20.1 20.2 19.7 21.5 22.45 21.5 22.5 21.45 22.5 21.3 22.45 21.2 22.4 20.8 22.4 20.15 22.45 19.75 22.75 19.45 23.15 19.35 25.05 19.35 25.6 19.65 25.65 20.0 25.65 20.95 25.6 21.25 25.6 21.3 25.65 21.7 25.65 22.35 25.6 22.75 25.3 23.1 24.8 23.1 24.7 23.2 24.6 23.45 24.05 23.7 19.0 23.7 19.7 24.05 20.85 25.4 Q21.2 26.35 20.95 27.3 20.5 28.8 19.05 29.3 L17.85 29.45 Q16.75 29.35 16.05 28.65 L15.7 28.25 15.5 27.95 15.4 27.75 15.15 26.45 15.15 26.4 14.75 26.6 12.65 27.2 11.65 27.3 11.55 27.35 Q10.8 28.45 9.65 29.05 8.45 29.65 7.15 29.5 5.6 29.35 4.5 28.4 3.25 27.3 2.9 25.65 2.65 24.35 3.2 23.0 L3.2 22.85 Q2.4 21.55 2.05 19.9 L1.85 17.85 1.85 17.75 1.45 17.75 1.1 17.7 0.65 17.25 0.6 16.8 0.6 15.85 0.65 15.4 Q0.75 15.05 1.1 14.95 L2.15 14.9 2.15 10.05 2.1 10.0 Q0.5 9.25 0.1 7.65 -0.1 6.75 0.15 5.95 L0.45 5.3 2.3 0.4 2.7 0.05 3.0 0.0 19.8 0.0 Q20.2 0.0 20.4 0.3 L22.7 6.5 22.6 7.55 M22.05 7.6 L22.1 6.5 22.0 6.1 19.95 0.65 19.9 0.6 2.85 0.6 2.8 0.65 1.35 4.6 1.25 4.95 0.65 6.25 0.6 6.65 0.65 7.4 Q0.85 8.5 1.8 9.2 2.75 9.85 3.85 9.65 5.4 9.35 6.0 7.95 L6.05 7.9 6.1 7.95 Q6.85 9.6 8.55 9.7 9.9 9.75 10.85 8.7 L11.3 7.9 11.35 7.85 11.35 7.9 Q12.1 9.55 13.85 9.7 14.9 9.75 15.8 9.05 L16.6 7.9 16.65 7.85 16.7 7.9 Q17.05 8.8 17.85 9.3 L19.65 9.65 Q20.5 9.6 21.15 9.0 21.8 8.45 22.05 7.6 M21.6 15.65 L21.4 15.5 1.35 15.5 1.15 15.65 1.15 16.95 1.2 17.1 1.35 17.15 21.4 17.15 21.6 17.0 21.6 15.65 M25.05 19.95 L23.0 19.95 23.0 20.95 23.05 21.0 23.5 21.0 23.5 21.6 23.1 21.6 23.0 21.65 23.0 21.95 22.9 22.1 19.45 22.1 19.35 22.25 19.3 22.4 19.25 22.5 20.0 22.5 19.55 23.15 24.0 23.15 24.15 23.05 24.3 22.6 24.4 22.55 25.05 22.55 25.1 22.5 25.1 21.65 25.05 21.6 24.5 21.6 24.5 21.0 25.05 21.0 25.1 20.9 25.1 20.0 25.05 19.95 M11.2 9.15 L10.05 10.0 8.85 10.25 7.6 10.1 Q6.85 9.85 6.2 9.2 L6.05 9.05 5.9 9.2 4.85 9.95 4.8 10.05 4.8 14.9 14.55 14.9 14.6 14.95 15.65 14.95 15.65 14.9 17.65 14.9 17.65 9.9 17.6 9.8 16.7 9.05 16.65 9.0 16.15 9.5 Q15.55 10.0 14.95 10.15 L14.1 10.25 13.2 10.15 12.1 9.7 11.35 9.0 11.2 9.15 M18.2 10.2 L18.2 14.85 18.25 14.9 19.25 14.9 19.25 10.3 19.2 10.25 19.0 10.25 18.75 10.2 18.2 10.2 M3.0 10.25 L2.75 10.2 2.75 14.85 2.8 14.9 3.75 14.9 3.75 10.3 3.7 10.25 3.0 10.25 M2.45 17.8 L2.45 18.75 2.65 20.05 2.85 20.65 2.85 20.7 3.5 22.2 3.55 22.25 Q4.05 21.5 4.7 21.05 5.45 20.45 6.4 20.2 L7.4 20.05 8.3 20.1 9.5 20.5 Q10.5 20.9 11.15 21.7 L11.75 22.55 Q12.2 23.4 12.3 24.55 L12.25 25.4 11.95 26.6 11.9 26.7 12.0 26.7 13.65 26.35 15.2 25.75 15.3 25.6 15.45 25.2 15.55 25.1 15.55 25.0 14.95 24.45 14.9 24.35 15.1 24.35 15.25 24.15 15.35 24.05 15.45 24.0 15.65 24.25 18.1 26.45 18.8 26.45 18.45 26.1 18.5 26.1 18.45 26.0 18.3 25.95 17.75 25.45 17.85 25.45 18.25 25.4 Q18.9 25.5 19.1 26.1 19.3 26.55 19.05 27.0 18.7 27.65 17.95 27.6 L17.6 27.5 17.2 27.1 Q16.95 26.7 17.05 26.3 L17.0 26.25 16.05 25.45 16.0 25.4 16.0 25.45 15.75 26.35 15.75 26.45 Q15.7 27.4 16.3 28.1 L17.1 28.7 17.15 28.7 18.45 28.9 Q19.95 28.6 20.4 27.2 L20.45 26.2 20.1 25.3 19.65 24.75 19.55 24.65 18.7 24.25 18.1 24.15 Q17.4 24.15 16.8 24.55 L16.8 24.6 16.75 24.55 15.95 23.85 15.95 23.8 16.0 23.8 16.35 24.1 16.4 24.1 Q16.9 23.75 17.55 23.65 L17.75 23.6 17.9 23.5 18.85 22.05 19.5 20.4 19.8 18.6 19.8 17.8 19.75 17.75 2.5 17.75 2.45 17.8 M3.4 24.4 L3.45 25.65 3.95 26.85 4.35 27.45 4.4 27.55 4.35 27.6 4.5 27.6 4.5 27.65 5.0 28.1 5.95 28.65 6.75 28.9 7.05 28.95 7.35 28.95 7.45 29.0 7.5 28.95 8.15 28.95 8.85 28.75 Q9.95 28.4 10.7 27.6 L11.35 26.6 11.35 26.5 11.45 26.4 11.5 26.15 11.6 25.95 11.65 25.7 11.75 25.5 11.7 25.45 11.7 25.4 11.75 25.2 11.75 24.95 11.65 23.85 11.4 23.1 11.35 23.0 11.25 22.85 10.95 22.3 10.4 21.7 9.6 21.1 9.5 21.1 8.95 20.85 7.15 20.65 Q5.45 20.8 4.35 22.15 3.5 23.1 3.4 24.4" fill="#3b2a15" fill-rule="evenodd" stroke="none"/>
    <path d="M15.7 28.25 L15.6 28.25 15.55 28.2 15.6 28.1 15.7 28.25" fill="#7c5a25" fill-rule="evenodd" stroke="none"/>
    <path d="M2.5 17.75 L19.75 17.75 19.8 17.8 19.8 18.6 19.5 20.4 18.85 22.05 17.9 23.5 17.75 23.6 17.55 23.65 Q16.9 23.75 16.4 24.1 L16.35 24.1 16.0 23.8 15.9 23.75 15.85 23.7 15.6 23.5 15.7 23.2 15.8 23.1 17.45 22.9 15.85 22.9 15.8 22.8 12.75 22.8 12.65 22.85 12.65 22.9 12.9 23.7 13.0 24.3 13.1 24.4 14.05 24.4 13.7 23.6 13.65 23.35 14.55 24.05 14.7 24.2 14.8 24.25 14.9 24.35 14.95 24.45 15.55 25.0 15.55 25.1 15.45 25.2 15.3 25.6 15.2 25.75 13.65 26.35 12.0 26.7 11.9 26.7 11.95 26.6 12.25 25.4 12.3 24.55 Q12.2 23.4 11.75 22.55 L11.15 21.7 Q10.5 20.9 9.5 20.5 L8.3 20.1 7.4 20.05 6.4 20.2 Q5.45 20.45 4.7 21.05 4.05 21.5 3.55 22.2 L3.55 22.25 3.5 22.2 3.55 22.2 3.8 21.8 4.0 21.55 4.65 20.9 5.0 20.65 2.85 20.65 2.65 20.05 6.0 20.05 6.35 19.95 8.35 19.75 10.4 20.05 15.05 20.05 15.0 20.0 Q14.35 19.3 13.4 18.95 L12.55 18.75 12.35 18.75 12.3 18.7 2.45 18.7 2.45 17.8 2.5 17.75 M11.6 21.25 L12.2 22.0 12.25 22.1 12.35 22.2 15.75 22.2 15.8 22.15 15.8 21.75 15.65 21.15 15.65 21.05 15.7 21.05 18.35 20.65 10.9 20.65 10.9 20.7 11.6 21.25 M14.3 25.0 L13.05 25.0 13.05 25.05 12.95 25.6 13.0 25.65 13.05 25.65 14.25 25.05 14.3 25.0" fill="#684a1c" fill-rule="evenodd" stroke="none"/>
    <path d="M16.55 6.7 L11.3 6.7 11.3 0.6 16.15 0.6 16.55 6.7" fill="#4dbdcd" fill-rule="evenodd" stroke="none"/>
    <path d="M2.85 0.6 L6.85 0.6 6.2 6.4 6.2 6.7 6.15 6.7 6.15 6.65 6.05 6.7 0.65 6.7 0.6 6.65 0.65 6.25 1.25 4.95 1.35 4.6 2.8 0.65 2.85 0.6" fill="#4dbdcd" fill-rule="evenodd" stroke="none"/>
    <path d="M6.2 6.7 L6.2 6.4 6.85 0.6 11.3 0.6 11.3 6.7 6.2 6.7" fill="#ffebcb" fill-rule="evenodd" stroke="none"/>
    <path d="M19.9 0.6 L19.95 0.65 22.0 6.1 22.1 6.5 22.1 6.65 22.05 6.7 16.55 6.7 16.15 0.6 19.9 0.6" fill="#ffebcb" fill-rule="evenodd" stroke="none"/>
    <path d="M11.35 9.0 L12.1 9.7 13.2 10.15 14.1 10.25 14.95 10.15 Q15.55 10.0 16.15 9.5 L16.65 9.0 16.7 9.05 17.6 9.8 17.65 9.9 17.65 14.9 15.65 14.9 15.65 13.85 17.3 13.85 17.3 10.55 14.6 10.55 14.55 10.65 14.55 14.9 13.95 14.9 14.0 14.85 14.0 10.6 13.95 10.55 11.3 10.55 11.25 10.6 11.25 14.85 11.3 14.9 10.6 14.9 10.7 14.85 10.7 10.55 9.65 10.55 9.6 10.6 9.6 12.2 9.05 12.2 9.0 12.15 9.0 10.55 7.95 10.55 7.95 14.85 8.05 14.9 7.3 14.9 7.4 14.85 7.4 12.25 6.4 12.25 6.35 12.2 6.35 11.7 6.4 11.65 7.4 11.65 7.4 10.6 7.3 10.55 5.3 10.55 5.2 10.65 5.2 13.2 5.3 13.3 6.25 13.3 6.25 13.85 5.2 13.85 5.2 14.85 5.3 14.9 4.8 14.9 4.8 10.05 4.85 9.95 5.9 9.2 6.05 9.05 6.2 9.2 Q6.85 9.85 7.6 10.1 L8.85 10.25 10.05 10.0 11.2 9.15 11.35 9.0 M9.6 13.35 L9.6 14.8 9.7 14.9 8.95 14.9 9.0 14.85 9.0 13.4 9.1 13.3 9.55 13.3 9.6 13.35" fill="#515352" fill-rule="evenodd" stroke="none"/>
    <path d="M21.4 15.5 L21.6 15.65 21.6 16.35 1.15 16.35 1.15 15.65 1.35 15.5 21.4 15.5" fill="#bf904d" fill-rule="evenodd" stroke="none"/>
    <path d="M1.15 16.95 L1.15 16.35 21.6 16.35 21.6 17.0 21.4 17.15 1.35 17.15 1.2 17.1 1.15 16.95" fill="#7c5a25" fill-rule="evenodd" stroke="none"/>
    <path d="M22.1 6.65 L22.05 7.6 Q21.8 8.45 21.15 9.0 20.5 9.6 19.65 9.65 L17.85 9.3 Q17.05 8.8 16.7 7.9 L16.65 7.85 16.6 7.9 16.55 6.7 22.05 6.7 22.1 6.65" fill="#fdd696" fill-rule="evenodd" stroke="none"/>
    <path d="M1.8 9.2 Q0.85 8.5 0.65 7.4 L0.6 6.65 0.65 6.7 6.05 6.7 6.15 6.65 6.15 6.8 6.05 7.9 6.0 7.95 Q5.4 9.35 3.85 9.65 2.75 9.85 1.8 9.2" fill="#0a9bae" fill-rule="evenodd" stroke="none"/>
    <path d="M16.6 7.9 L15.8 9.05 Q14.9 9.75 13.85 9.7 12.1 9.55 11.35 7.9 L11.35 7.85 11.3 7.9 11.3 6.7 16.55 6.7 16.6 7.9" fill="#0a9bae" fill-rule="evenodd" stroke="none"/>
    <path d="M6.15 6.8 L6.15 6.7 11.3 6.7 11.3 7.9 10.85 8.7 Q9.9 9.75 8.55 9.7 6.85 9.6 6.1 7.95 L6.05 7.9 6.15 6.8" fill="#fdd696" fill-rule="evenodd" stroke="none"/>
    <path d="M17.3 10.55 L17.3 13.85 15.65 13.85 15.65 14.95 14.6 14.95 14.55 14.9 14.55 10.65 14.6 10.55 17.3 10.55 M15.65 11.7 L15.65 12.7 15.7 12.75 16.2 12.8 16.25 12.75 16.25 11.65 15.7 11.65 15.65 11.7" fill="#ffe2b6" fill-rule="evenodd" stroke="none"/>
    <path d="M20.25 22.15 L20.05 22.45 20.05 22.5 23.65 22.5 23.0 22.15 22.95 22.15 22.9 22.1 23.0 21.95 23.0 21.8 25.1 21.95 25.1 22.5 25.05 22.55 24.4 22.55 24.3 22.6 24.15 23.05 24.0 23.15 19.55 23.15 20.0 22.5 19.25 22.5 19.3 22.4 19.35 22.25 19.45 22.1 20.3 22.1 20.25 22.15" fill="#684a1c" fill-rule="evenodd" stroke="none"/>
    <path d="M19.85 25.8 L19.85 25.85 20.0 26.6 20.0 26.85 19.95 26.9 Q19.85 27.5 19.4 27.9 L19.0 28.15 19.2 27.85 18.95 28.0 18.7 28.1 18.2 28.4 17.55 28.3 Q17.15 28.15 16.85 27.8 L16.8 27.75 16.85 27.5 16.95 27.25 17.0 27.2 17.2 27.1 17.6 27.5 17.95 27.6 Q18.7 27.65 19.05 27.0 19.3 26.55 19.1 26.1 18.9 25.5 18.25 25.4 L17.85 25.45 17.75 25.45 17.75 25.4 17.85 25.4 18.7 24.9 18.8 24.85 18.8 24.9 19.45 25.25 19.85 25.8" fill="#926a35" fill-rule="evenodd" stroke="none"/>
    <path d="M3.45 24.4 L3.4 24.4 3.45 24.35 3.45 24.3 Q3.5 23.1 4.35 22.15 5.45 20.8 7.15 20.65 L8.95 20.85 8.65 21.2 8.6 21.2 7.0 21.05 5.65 21.55 Q4.85 22.0 4.4 22.65 L3.85 23.85 3.75 24.55 3.75 24.6 3.6 24.5 3.5 24.35 3.45 24.35 3.45 24.4" fill="#ffe2b6" fill-rule="evenodd" stroke="none"/>
    <path d="M9.6 21.1 L10.4 21.7 10.95 22.3 11.25 22.85 11.35 23.0 11.4 23.1 11.3 23.2 11.2 23.45 11.05 23.6 10.65 22.75 9.75 21.75 7.5 23.25 7.4 23.3 7.1 23.3 6.2 24.05 6.15 24.05 6.1 24.1 6.05 24.1 6.1 24.0 6.15 24.0 6.15 23.95 6.2 23.95 6.3 23.85 6.35 23.85 6.35 23.8 6.4 23.8 6.45 23.75 9.15 21.45 9.5 21.1 9.6 21.1" fill="#d6b88b" fill-rule="evenodd" stroke="none"/>
    <path d="M18.2 14.85 L18.2 10.2 18.75 10.2 18.75 14.9 18.25 14.9 18.2 14.85" fill="#bf904d" fill-rule="evenodd" stroke="none"/>
    <path d="M18.75 14.9 L18.75 10.2 19.0 10.25 19.2 10.25 19.25 10.3 19.25 14.9 18.75 14.9" fill="#926a35" fill-rule="evenodd" stroke="none"/>
    <path d="M3.7 10.25 L3.75 10.3 3.75 14.9 3.25 14.9 3.25 10.25 3.7 10.25" fill="#926a35" fill-rule="evenodd" stroke="none"/>
    <path d="M3.25 14.9 L2.8 14.9 2.75 14.85 2.75 10.2 3.0 10.25 3.25 10.25 3.25 14.9" fill="#bf904d" fill-rule="evenodd" stroke="none"/>
    <path d="M11.35 26.6 L10.7 27.6 Q9.95 28.4 8.85 28.75 L8.15 28.95 8.05 28.95 8.15 28.8 8.3 28.7 10.8 26.5 10.8 26.55 10.3 27.3 10.25 27.35 10.35 27.35 10.55 27.2 11.25 26.5 11.35 26.5 11.35 26.6" fill="#926a35" fill-rule="evenodd" stroke="none"/>
    <path d="M3.7 19.35 L3.65 19.55 3.7 19.75 3.7 20.05 2.65 20.05 2.45 18.75 2.45 18.7 12.3 18.7 12.35 18.75 3.8 18.75 3.7 18.8 3.7 19.35" fill="#926a35" fill-rule="evenodd" stroke="none"/>
    <path d="M20.0 26.85 L20.1 26.8 20.4 26.25 20.45 26.2 20.4 27.2 Q19.95 28.6 18.45 28.9 L17.15 28.7 17.1 28.7 17.1 28.65 17.75 28.45 17.85 28.45 17.9 28.35 18.2 28.4 17.9 28.6 18.4 28.6 18.8 28.4 19.0 28.15 19.4 27.9 Q19.85 27.5 19.95 26.9 L20.0 26.85" fill="#a57839" fill-rule="evenodd" stroke="none"/>
    <path d="M16.75 24.55 L16.8 24.6 17.15 24.85 17.15 24.9 17.2 25.0 17.3 25.05 17.3 25.0 17.95 24.75 18.4 24.8 17.9 25.15 17.8 25.25 17.65 25.3 17.6 25.3 18.8 26.45 18.1 26.45 16.4 24.9 16.5 24.75 16.65 24.65 16.75 24.55" fill="#a57839" fill-rule="evenodd" stroke="none"/>
    <path d="M23.0 20.95 L23.0 20.5 25.1 20.45 25.1 20.9 25.05 21.0 24.5 21.0 24.5 21.6 23.8 21.6 23.5 21.6 23.5 21.55 23.8 21.6 23.9 21.55 24.0 21.15 24.0 21.1 23.95 21.1 23.5 21.0 23.05 21.0 23.0 20.95" fill="#684a1c" fill-rule="evenodd" stroke="none"/>
    <path d="M11.75 25.5 L11.65 25.7 11.6 25.95 11.35 26.05 8.3 28.7 8.15 28.8 8.05 28.95 7.5 28.95 7.5 28.9 11.7 25.45 11.75 25.5" fill="#d6b88b" fill-rule="evenodd" stroke="none"/>
    <path d="M20.05 22.45 L20.25 22.15 20.3 22.1 22.9 22.1 22.95 22.15 23.0 22.15 23.65 22.5 20.05 22.5 20.05 22.45" fill="#ba833b" fill-rule="evenodd" stroke="none"/>
    <path d="M11.7 25.45 L7.5 28.9 7.5 28.95 7.45 29.0 7.4 28.95 7.5 28.9 11.75 24.95 11.75 25.2 11.7 25.4 11.7 25.45" fill="#684a1c" fill-rule="evenodd" stroke="none"/>
    <path d="M23.0 19.95 L25.05 19.95 25.1 20.0 25.1 20.45 23.0 20.5 23.0 19.95" fill="#ba833b" fill-rule="evenodd" stroke="none"/>
    <path d="M16.35 26.4 L16.4 26.85 16.65 27.6 16.3 28.1 Q15.7 27.4 15.75 26.45 L15.75 26.35 15.8 26.4 16.0 26.45 16.25 26.4 16.35 26.4" fill="#ce9d46" fill-rule="evenodd" stroke="none"/>
    <path d="M7.0 26.25 L6.95 26.3 5.5 27.25 5.35 27.4 5.0 27.6 4.75 27.65 4.5 27.65 4.5 27.6 4.35 27.6 4.4 27.55 4.7 27.3 4.8 27.3 6.7 26.05 7.0 26.25" fill="#d6b88b" fill-rule="evenodd" stroke="none"/>
    <path d="M11.2 23.45 L11.3 23.2 11.4 23.1 11.65 23.85 11.75 24.95 11.25 25.4 11.2 25.35 11.25 25.0 11.2 24.1 11.05 23.6 11.2 23.45" fill="#bf904d" fill-rule="evenodd" stroke="none"/>
    <path d="M17.0 26.25 L17.05 26.3 Q16.95 26.7 17.2 27.1 L17.0 27.2 16.95 27.25 16.9 27.25 16.9 27.3 16.8 27.45 16.65 27.6 16.4 26.85 16.35 26.4 16.5 25.85 17.0 26.25" fill="#a57839" fill-rule="evenodd" stroke="none"/>
    <path d="M18.85 24.5 L18.8 24.5 18.6 24.65 18.45 24.8 17.95 24.75 18.0 24.65 18.1 24.15 18.7 24.25 19.55 24.65 19.65 24.75 19.5 25.15 19.45 25.25 18.8 24.9 18.8 24.85 18.9 24.75 18.95 24.6 18.85 24.5" fill="#ce9d46" fill-rule="evenodd" stroke="none"/>
    <path d="M2.85 20.65 L3.45 20.65 3.55 21.15 3.65 21.4 3.65 21.45 3.75 21.75 3.8 21.8 3.55 22.2 3.5 22.2 2.85 20.7 2.85 20.65" fill="#926a35" fill-rule="evenodd" stroke="none"/>
    <path d="M3.75 25.65 L3.85 25.65 4.1 26.4 4.6 27.2 4.35 27.45 3.95 26.85 3.45 25.65 3.45 25.6 3.5 25.6 3.55 25.55 3.6 25.55 3.75 25.65" fill="#d6b88b" fill-rule="evenodd" stroke="none"/>
    <path d="M5.95 28.65 L5.0 28.1 4.5 27.65 4.75 27.65 5.0 27.6 6.05 28.25 6.25 28.35 6.45 28.4 6.4 28.45 6.1 28.55 6.0 28.55 5.95 28.65" fill="#bf904d" fill-rule="evenodd" stroke="none"/>
    <path d="M18.0 24.65 L17.95 24.75 17.3 25.0 17.15 24.9 17.15 24.85 17.05 24.75 16.95 24.7 16.8 24.55 Q17.4 24.15 18.1 24.15 L18.0 24.65" fill="#d6b88b" fill-rule="evenodd" stroke="none"/>
    <path d="M23.0 21.8 L23.0 21.65 23.1 21.6 24.75 21.6 24.8 21.65 24.85 21.6 25.1 21.65 25.1 21.95 23.0 21.8" fill="#ba833b" fill-rule="evenodd" stroke="none"/>
    <path d="M16.85 27.8 Q17.15 28.15 17.55 28.3 L17.9 28.35 17.85 28.45 17.75 28.45 17.1 28.65 17.1 28.7 16.55 28.3 16.7 27.85 16.8 27.75 16.85 27.8" fill="#bf904d" fill-rule="evenodd" stroke="none"/>
    <path d="M15.05 23.65 L15.35 23.95 15.4 23.9 15.6 23.5 15.85 23.7 15.95 23.8 15.95 23.85 15.65 24.25 15.45 24.0 15.35 24.05 15.2 24.2 15.15 24.2 15.05 24.3 14.95 24.35 14.9 24.35 14.8 24.25 14.7 24.2 14.55 24.05 14.9 23.65 15.05 23.65" fill="#7c5a25" fill-rule="evenodd" stroke="none"/>
    <path d="M16.0 26.45 L15.8 26.4 15.75 26.35 16.0 25.45 16.05 25.45 16.5 25.85 16.35 26.4 16.25 26.4 16.0 26.45" fill="#d6b88b" fill-rule="evenodd" stroke="none"/>
    <path d="M16.75 24.55 L16.65 24.65 16.5 24.75 16.4 24.9 16.2 24.7 15.65 24.25 15.95 23.85 16.75 24.55" fill="#926a35" fill-rule="evenodd" stroke="none"/>
    <path d="M20.1 25.3 L20.45 26.2 20.4 26.25 20.1 26.8 20.0 26.85 20.0 26.6 19.85 25.85 19.85 25.8 19.9 25.75 20.0 25.6 20.1 25.3" fill="#ba833b" fill-rule="evenodd" stroke="none"/>
    <path d="M3.75 24.6 L3.75 25.15 3.85 25.65 3.75 25.65 3.6 25.55 3.55 25.55 3.5 25.6 3.45 25.6 3.4 24.4 3.45 24.4 3.45 24.35 3.5 24.35 3.6 24.5 3.75 24.6" fill="#fdd696" fill-rule="evenodd" stroke="none"/>
    <path d="M11.5 26.15 L11.45 26.4 11.35 26.5 11.25 26.5 10.55 27.2 10.35 27.35 10.25 27.35 10.3 27.3 10.8 26.55 10.8 26.5 11.35 26.05 11.6 25.95 11.5 26.15" fill="#a57839" fill-rule="evenodd" stroke="none"/>
    <path d="M20.1 25.3 L20.0 25.6 19.9 25.75 19.85 25.8 19.45 25.25 19.5 25.15 19.65 24.75 20.1 25.3" fill="#bf904d" fill-rule="evenodd" stroke="none"/>
    <path d="M7.1 28.65 L6.95 28.7 6.75 28.8 6.75 28.9 5.95 28.65 6.0 28.55 6.1 28.55 6.4 28.45 6.45 28.4 6.55 28.4 6.85 28.5 7.2 28.55 7.1 28.65" fill="#ba833b" fill-rule="evenodd" stroke="none"/>
    <path d="M7.2 28.55 L7.8 28.55 7.4 28.95 7.05 28.95 6.75 28.9 6.75 28.8 6.95 28.7 7.1 28.65 7.2 28.55" fill="#a57839" fill-rule="evenodd" stroke="none"/>
    <path d="M9.5 21.1 L9.15 21.45 9.0 21.35 8.9 21.3 8.75 21.25 8.65 21.2 8.95 20.85 9.5 21.1" fill="#926a35" fill-rule="evenodd" stroke="none"/>
    <path d="M23.5 21.55 L23.5 21.0 23.95 21.1 24.0 21.1 24.0 21.15 23.9 21.55 23.8 21.6 23.5 21.55" fill="#ba833b" fill-rule="evenodd" stroke="none"/>
    <path d="M16.9 27.3 L16.8 27.75 16.7 27.85 16.55 28.3 16.3 28.1 16.65 27.6 16.8 27.45 16.9 27.3" fill="#d6b88b" fill-rule="evenodd" stroke="none"/>
    <path d="M4.7 27.3 L4.4 27.55 4.35 27.45 4.6 27.2 4.65 27.2 4.7 27.3" fill="#7c5a25" fill-rule="evenodd" stroke="none"/>
    <path d="M15.2 24.2 L15.1 24.35 14.95 24.35 15.05 24.3 15.15 24.2 15.2 24.2" fill="#684a1c" fill-rule="evenodd" stroke="none"/>
    <path d="M25.05 21.6 L25.1 21.65 24.9 21.6 25.05 21.6 M24.8 21.65 L24.75 21.6 24.85 21.6 24.8 21.65" fill="#684a1c" fill-rule="evenodd" stroke="none"/>
    <path d="M18.3 25.95 L18.45 26.0 18.5 26.1 18.45 26.1 18.3 25.95" fill="#7c5a25" fill-rule="evenodd" stroke="none"/>
    <path d="M6.45 19.05 L6.6 18.75 11.25 18.75 11.5 18.95 11.55 19.05 11.65 19.15 11.9 19.55 11.95 19.6 12.05 19.9 12.1 19.95 12.15 20.05 10.4 20.05 8.35 19.75 6.35 19.95 6.4 19.75 6.4 19.7 6.35 19.4 6.4 19.15 6.4 19.1 6.45 19.05" fill="#ce9d46" fill-rule="evenodd" stroke="none"/>
    <path d="M12.65 22.85 L12.75 22.8 14.65 22.8 14.65 22.9 14.5 23.1 14.4 23.3 14.2 23.5 14.2 23.55 14.15 23.65 14.1 23.7 13.65 23.35 13.7 23.6 14.05 24.4 13.1 24.4 13.0 24.3 12.9 23.7 12.65 22.9 12.65 22.85" fill="#a57839" fill-rule="evenodd" stroke="none"/>
    <path d="M13.65 21.2 L13.65 20.65 14.8 20.65 14.85 20.95 14.8 21.0 14.8 21.35 14.55 22.2 13.45 22.2 13.6 21.4 13.6 21.35 13.65 21.2" fill="#a57839" fill-rule="evenodd" stroke="none"/>
    <path d="M14.8 21.0 L14.85 20.95 14.8 20.65 16.35 20.65 16.25 20.95 15.7 21.05 15.65 21.05 15.65 21.15 15.8 21.75 15.8 22.15 15.75 22.2 14.55 22.2 14.8 21.35 14.8 21.0" fill="#926a35" fill-rule="evenodd" stroke="none"/>
    <path d="M4.95 19.15 L4.9 19.3 4.9 19.45 5.0 20.05 3.7 20.05 3.7 19.75 3.65 19.55 3.7 19.35 3.7 18.8 3.8 18.75 5.0 18.75 4.95 18.9 4.95 19.15" fill="#a57839" fill-rule="evenodd" stroke="none"/>
    <path d="M15.05 20.05 L13.35 20.05 13.25 19.75 13.15 19.55 13.1 19.4 13.0 19.25 12.95 19.05 12.8 18.9 12.8 18.8 13.4 18.95 Q14.35 19.3 15.0 20.0 L15.05 20.05" fill="#a57839" fill-rule="evenodd" stroke="none"/>
    <path d="M14.65 22.8 L15.6 22.8 15.45 23.1 15.35 23.2 15.35 23.25 15.6 23.5 15.4 23.9 15.35 23.95 15.05 23.65 14.9 23.65 14.55 24.05 14.1 23.7 14.15 23.65 14.2 23.55 14.2 23.5 14.4 23.3 14.5 23.1 14.65 22.9 14.65 22.8" fill="#926a35" fill-rule="evenodd" stroke="none"/>
    <path d="M12.95 21.2 L12.85 21.5 12.85 21.8 12.65 22.2 12.35 22.2 12.25 22.1 12.2 22.0 11.95 21.65 12.05 21.6 12.05 21.5 12.1 21.4 12.15 21.15 12.15 20.85 12.2 20.75 12.2 20.65 12.95 20.65 12.95 21.2" fill="#bf904d" fill-rule="evenodd" stroke="none"/>
    <path d="M12.95 20.65 L13.65 20.65 13.65 21.2 13.6 21.35 13.6 21.4 13.45 22.2 12.65 22.2 12.85 21.8 12.85 21.5 12.95 21.2 12.95 20.65" fill="#ba833b" fill-rule="evenodd" stroke="none"/>
    <path d="M6.35 19.4 L6.4 19.7 6.4 19.75 6.35 19.95 6.0 20.05 5.65 20.05 5.65 19.6 5.6 19.45 5.6 19.3 5.65 19.15 5.6 19.0 5.65 18.9 5.7 18.75 6.6 18.75 6.45 19.05 6.4 19.1 6.4 19.15 6.35 19.4" fill="#bf904d" fill-rule="evenodd" stroke="none"/>
    <path d="M12.8 20.05 L12.15 20.05 12.1 19.95 12.05 19.9 11.95 19.6 11.9 19.55 11.65 19.15 11.55 19.05 11.5 18.95 11.25 18.75 12.15 18.75 12.15 18.8 12.4 19.2 12.45 19.3 12.5 19.35 12.75 19.9 12.8 20.05" fill="#bf904d" fill-rule="evenodd" stroke="none"/>
    <path d="M4.95 18.9 L5.0 18.75 5.7 18.75 5.65 18.9 5.6 19.0 5.65 19.15 5.6 19.3 5.6 19.45 5.65 19.6 5.65 20.05 5.0 20.05 4.9 19.45 4.9 19.3 4.95 19.15 4.95 18.9" fill="#ba833b" fill-rule="evenodd" stroke="none"/>
    <path d="M5.0 20.65 L4.65 20.9 4.0 21.55 3.8 21.8 3.75 21.75 3.65 21.45 3.65 21.4 3.55 21.15 3.45 20.65 5.0 20.65" fill="#a57839" fill-rule="evenodd" stroke="none"/>
    <path d="M12.8 18.9 L12.95 19.05 13.0 19.25 13.1 19.4 13.15 19.55 13.25 19.75 13.35 20.05 12.8 20.05 12.75 19.9 12.5 19.35 12.45 19.3 12.4 19.2 12.15 18.8 12.15 18.75 12.55 18.75 12.8 18.8 12.8 18.9" fill="#ba833b" fill-rule="evenodd" stroke="none"/>
    <path d="M10.9 20.65 L12.2 20.65 12.2 20.75 12.15 20.85 12.15 21.15 12.1 21.4 12.05 21.5 12.05 21.6 11.95 21.65 11.6 21.25 10.9 20.7 10.9 20.65" fill="#ce9d46" fill-rule="evenodd" stroke="none"/>
    <path d="M14.3 25.0 L14.25 25.05 13.05 25.65 13.0 25.65 12.95 25.6 13.05 25.05 13.05 25.0 14.3 25.0" fill="#926a35" fill-rule="evenodd" stroke="none"/>
    <path d="M15.8 22.8 L15.85 22.9 17.45 22.9 15.8 23.1 15.7 23.2 15.6 23.5 15.35 23.25 15.35 23.2 15.45 23.1 15.6 22.8 15.8 22.8" fill="#7c5a25" fill-rule="evenodd" stroke="none"/>
    <path d="M18.35 20.65 L16.25 20.95 16.35 20.65 18.35 20.65" fill="#7c5a25" fill-rule="evenodd" stroke="none"/>
    <path d="M13.95 10.55 L14.0 10.6 14.0 14.85 13.95 14.9 11.3 14.9 11.25 14.85 11.25 10.6 11.3 10.55 13.95 10.55 M12.35 11.65 L12.35 13.9 12.9 13.9 12.9 11.65 12.35 11.65" fill="#ffe2b6" fill-rule="evenodd" stroke="none"/>
    <path d="M9.0 10.55 L9.0 12.15 9.05 12.2 9.6 12.2 9.6 10.6 9.65 10.55 10.7 10.55 10.7 14.85 10.6 14.9 9.7 14.9 9.6 14.8 9.6 13.35 9.55 13.3 9.1 13.3 9.0 13.4 9.0 14.85 8.95 14.9 8.05 14.9 7.95 14.85 7.95 10.55 9.0 10.55" fill="#ffe2b6" fill-rule="evenodd" stroke="none"/>
    <path d="M7.4 10.6 L7.4 11.65 6.4 11.65 6.35 11.7 6.35 12.2 6.4 12.25 7.4 12.25 7.4 14.85 7.3 14.9 5.3 14.9 5.2 14.85 5.2 13.85 6.25 13.85 6.25 13.3 5.3 13.3 5.2 13.2 5.2 10.65 5.3 10.55 7.3 10.55 7.4 10.6" fill="#ffe2b6" fill-rule="evenodd" stroke="none"/>
    <path d="M15.7 11.65 L16.25 11.65 16.25 12.75 16.2 12.8 15.7 12.75 15.65 12.7 15.65 11.7 15.7 11.65" fill="#515352" fill-rule="evenodd" stroke="none"/>
    <path d="M18.95 24.6 L18.9 24.75 18.8 24.85 18.7 24.9 17.85 25.4 17.7 25.4 17.7 25.35 17.65 25.3 17.8 25.25 17.9 25.15 18.4 24.8 18.45 24.8 18.6 24.65 18.8 24.5 18.85 24.5 18.95 24.6" fill="#d6b88b" fill-rule="evenodd" stroke="none"/>
    <path d="M18.95 28.0 L19.2 27.85 18.8 28.4 18.4 28.6 17.9 28.6 18.7 28.1 18.95 28.0" fill="#d6b88b" fill-rule="evenodd" stroke="none"/>
    <path d="M17.75 25.4 L17.75 25.45 17.7 25.4 17.75 25.4" fill="#3b2a15" fill-rule="evenodd" stroke="none"/>
    <path d="M3.85 23.85 L4.4 22.65 Q4.85 22.0 5.65 21.55 L7.0 21.05 8.6 21.2 8.4 21.45 8.15 21.4 7.15 21.35 6.2 21.6 5.2 22.25 4.4 23.35 4.1 24.65 4.0 24.6 3.85 24.6 3.8 24.55 3.75 24.55 3.85 23.85" fill="#ce9d46" fill-rule="evenodd" stroke="none"/>
    <path d="M3.8 24.55 L3.85 24.6 4.0 24.6 4.1 24.65 4.1 24.85 4.15 25.0 4.15 25.15 4.35 26.0 3.95 26.0 3.75 25.15 3.75 24.55 3.8 24.55" fill="#bf904d" fill-rule="evenodd" stroke="none"/>
    <path d="M8.4 21.45 L8.6 21.2 8.65 21.2 8.75 21.25 8.9 21.3 9.0 21.35 9.15 21.45 8.9 21.65 8.4 21.45" fill="#7c5a25" fill-rule="evenodd" stroke="none"/>
    <path d="M4.4 23.35 L5.2 22.25 6.2 21.6 7.15 21.35 8.15 21.4 8.4 21.45 5.6 24.25 5.6 24.3 5.8 24.25 5.9 24.15 6.0 24.1 6.1 24.1 6.15 24.05 6.2 24.05 6.2 24.1 6.0 24.9 5.9 24.95 5.75 24.95 5.45 25.0 4.6 25.05 4.15 25.0 4.1 24.85 4.1 24.65 4.4 23.35" fill="#ba833b" fill-rule="evenodd" stroke="none"/>
    <path d="M6.2 24.05 L7.1 23.3 7.4 23.3 7.5 23.25 8.35 23.45 Q9.1 23.9 9.1 24.8 L9.0 25.4 9.0 25.45 8.8 25.75 8.55 26.0 Q8.45 26.1 8.3 26.15 L7.75 26.35 7.0 26.25 6.7 26.05 6.6 26.0 6.25 25.6 6.0 24.9 6.2 24.1 6.2 24.05 M6.7 24.2 Q6.45 24.6 6.55 24.95 L6.6 25.1 6.7 25.25 6.9 25.35 6.95 25.45 7.05 25.45 7.05 25.1 7.15 24.7 Q7.4 24.4 7.8 24.3 L8.05 24.25 8.25 24.15 8.2 24.05 8.15 24.0 8.0 23.9 7.95 23.9 7.3 23.8 Q6.9 23.85 6.7 24.2" fill="#3b2a15" fill-rule="evenodd" stroke="none"/>
    <path d="M7.5 23.25 L9.45 21.95 9.9 22.3 10.05 22.45 10.45 22.95 10.45 23.0 10.55 23.05 10.6 23.0 10.6 22.95 10.65 22.85 10.7 22.85 11.05 23.6 11.2 24.1 11.25 25.0 11.2 25.0 11.2 25.05 11.0 25.25 10.95 25.25 10.95 25.05 10.85 24.0 10.75 23.9 10.65 23.95 10.5 24.15 9.75 24.85 9.55 24.95 9.2 25.2 9.0 25.4 9.1 24.8 Q9.1 23.9 8.35 23.45 L7.5 23.25" fill="#a57839" fill-rule="evenodd" stroke="none"/>
    <path d="M8.9 21.65 L6.45 23.75 6.4 23.8 6.35 23.8 6.35 23.85 6.3 23.85 6.2 23.95 6.15 23.95 6.15 24.0 6.1 24.0 6.05 24.1 6.0 24.1 5.9 24.15 5.8 24.25 5.6 24.3 5.6 24.25 8.4 21.45 8.9 21.65" fill="#684a1c" fill-rule="evenodd" stroke="none"/>
    <path d="M9.45 21.95 L9.75 21.75 10.25 22.25 10.2 22.3 10.15 22.4 10.05 22.45 9.9 22.3 9.45 21.95" fill="#bf904d" fill-rule="evenodd" stroke="none"/>
    <path d="M10.2 22.3 L10.25 22.25 10.65 22.75 10.7 22.85 10.65 22.85 10.6 22.95 10.6 23.0 10.55 23.05 10.45 23.0 10.45 22.95 10.05 22.45 10.15 22.4 10.2 22.3" fill="#ba833b" fill-rule="evenodd" stroke="none"/>
    <path d="M17.3 25.0 L17.3 25.05 17.2 25.0 17.15 24.9 17.3 25.0" fill="#3b2a15" fill-rule="evenodd" stroke="none"/>
    <path d="M10.85 24.0 L10.95 25.05 10.95 25.25 11.0 25.25 11.2 25.05 11.2 25.0 11.25 25.0 11.2 25.35 11.25 25.4 7.8 28.55 7.2 28.55 6.85 28.5 6.55 28.4 6.75 28.3 6.9 28.2 6.95 28.15 6.9 28.1 6.8 28.1 5.8 27.7 5.35 27.4 5.5 27.25 6.95 26.3 7.0 26.25 7.75 26.35 8.3 26.15 Q8.45 26.1 8.55 26.0 L8.8 25.75 9.0 25.45 9.0 25.4 9.2 25.2 9.55 24.95 9.75 24.85 10.5 24.15 10.65 23.95 10.75 23.9 10.85 24.0" fill="#926a35" fill-rule="evenodd" stroke="none"/>
    <path d="M6.7 26.05 L4.8 27.3 4.7 27.3 4.65 27.2 4.7 27.1 4.9 26.9 5.0 26.85 6.25 25.6 6.6 26.0 6.7 26.05" fill="#684a1c" fill-rule="evenodd" stroke="none"/>
    <path d="M5.8 27.7 L6.8 28.1 6.9 28.1 6.95 28.15 6.9 28.2 6.75 28.3 6.55 28.4 6.45 28.4 6.25 28.35 6.05 28.25 5.0 27.6 5.35 27.4 5.8 27.7" fill="#a57839" fill-rule="evenodd" stroke="none"/>
    <path d="M4.4 26.05 L4.8 26.8 4.9 26.9 4.7 27.1 4.65 27.2 4.6 27.2 4.1 26.4 3.95 26.0 4.35 26.0 4.4 26.05" fill="#ba833b" fill-rule="evenodd" stroke="none"/>
    <path d="M12.9 13.9 L12.35 13.9 12.35 11.65 12.9 11.65 12.9 13.9" fill="#515352" fill-rule="evenodd" stroke="none"/>
    <path d="M5.75 24.95 L5.9 24.95 6.0 24.9 6.25 25.6 5.0 26.85 4.9 26.9 4.8 26.8 4.4 26.05 4.35 26.0 4.15 25.15 4.15 25.0 4.6 25.05 5.45 25.0 5.75 24.95" fill="#a57839" fill-rule="evenodd" stroke="none"/>
    <path d="M7.95 23.9 L8.0 23.9 7.95 24.0 7.15 24.6 6.8 24.8 6.7 24.9 6.55 24.95 Q6.45 24.6 6.7 24.2 6.9 23.85 7.3 23.8 L7.95 23.9" fill="#bf904d" fill-rule="evenodd" stroke="none"/>
    <path d="M7.85 24.2 L7.8 24.3 Q7.4 24.4 7.15 24.7 L7.05 24.8 6.6 25.1 6.55 24.95 6.7 24.9 6.8 24.8 7.15 24.6 7.95 24.0 8.0 23.9 8.15 24.0 7.85 24.2" fill="#a57839" fill-rule="evenodd" stroke="none"/>
    <path d="M7.1 24.9 L6.8 25.2 6.75 25.2 6.7 25.25 6.6 25.1 7.05 24.8 7.15 24.7 7.1 24.9" fill="#926a35" fill-rule="evenodd" stroke="none"/>
    <path d="M6.8 25.2 L7.1 24.9 7.05 25.1 7.05 25.45 6.95 25.45 6.9 25.35 6.7 25.25 6.75 25.2 6.8 25.2" fill="#684a1c" fill-rule="evenodd" stroke="none"/>
    <path d="M7.8 24.3 L7.85 24.2 8.15 24.0 8.2 24.05 8.25 24.15 8.05 24.25 7.8 24.3" fill="#7c5a25" fill-rule="evenodd" stroke="none"/>
  </g>
</svg>
