<?xml version="1.0" encoding="UTF-8" standalone="no"?>
<svg xmlns:ffdec="https://www.free-decompiler.com/flash" xmlns:xlink="http://www.w3.org/1999/xlink" ffdec:objectType="shape" height="12.2px" width="17.05px" xmlns="http://www.w3.org/2000/svg">
  <g transform="matrix(1.0, 0.0, 0.0, 1.0, 1.0, 1.0)">
    <path d="M15.05 5.0 L14.9 5.75 Q11.2 10.3 7.55 10.2 3.9 10.3 0.35 5.8 0.0 5.55 0.0 5.0 0.0 4.75 0.15 4.45 L0.3 4.25 Q1.45 2.8 3.2 1.6 5.5 0.0 7.55 0.0 9.4 0.0 11.8 1.65 13.55 2.85 14.8 4.4 L15.05 5.0" fill="#332b29" fill-rule="evenodd" stroke="none"/>
    <path d="M15.05 5.0 L14.9 5.75 Q11.2 10.3 7.55 10.2 3.9 10.3 0.35 5.8 0.0 5.55 0.0 5.0 0.0 4.75 0.15 4.45 L0.3 4.25 Q1.45 2.8 3.2 1.6 5.5 0.0 7.55 0.0 9.4 0.0 11.8 1.65 13.55 2.85 14.8 4.4 L15.05 5.0 Z" fill="none" stroke="#332b29" stroke-linecap="butt" stroke-linejoin="miter-clip" stroke-miterlimit="3.0" stroke-width="2.0"/>
    <path d="M8.65 3.6 Q8.15 3.15 7.55 3.15 6.95 3.15 6.45 3.6 6.0 4.1 6.0 4.75 6.0 5.3 6.45 5.8 6.95 6.2 7.55 6.2 8.15 6.2 8.65 5.8 L9.1 4.75 Q9.1 4.1 8.65 3.6 M11.2 3.9 L11.0 5.25 10.2 6.7 Q9.05 7.95 7.55 7.95 6.0 7.95 4.9 6.7 4.3 6.0 4.05 5.25 L3.85 3.9 Q3.85 3.05 4.15 2.25 L4.0 2.45 Q2.55 3.4 1.25 5.1 4.4 9.1 7.55 9.1 9.15 9.1 10.75 8.1 L13.1 6.1 13.95 5.2 13.9 5.1 Q12.45 3.25 10.9 2.25 L11.2 3.9 M11.05 1.0 L11.05 1.05 Q12.9 2.1 14.8 4.4 L15.0 4.85 15.05 5.2 15.05 5.35 14.9 5.75 Q11.2 10.3 7.55 10.2 3.9 10.3 0.35 5.8 0.0 5.55 0.0 5.2 L0.2 4.75 0.25 4.5 0.3 4.4 Q1.95 2.3 3.7 1.25 L3.8 1.15 Q5.65 0.0 7.55 0.0 9.15 0.0 10.75 0.85 L10.85 0.95 11.05 1.0" fill="#ffffff" fill-rule="evenodd" stroke="none"/>
  </g>
</svg>
