<?xml version="1.0" encoding="UTF-8" standalone="no"?>
<svg xmlns:ffdec="https://www.free-decompiler.com/flash" xmlns:xlink="http://www.w3.org/1999/xlink" ffdec:objectType="shape" height="79.5px" width="104.35px" xmlns="http://www.w3.org/2000/svg">
  <g transform="matrix(1.0, 0.0, 0.0, 1.0, 3.4, 5.9)">
    <path d="M82.3 7.2 L85.2 10.6 87.5 13.6 87.55 13.7 Q91.15 18.85 94.25 25.0 L94.3 25.2 Q96.85 32.1 90.5 39.1 L90.45 39.1 90.15 39.35 90.3 39.3 Q86.2 44.1 81.6 45.05 L80.2 48.35 79.95 48.65 Q78.5 51.15 76.35 53.35 L76.2 53.4 72.45 56.2 72.5 57.45 72.5 66.2 Q72.5 70.6 68.15 70.6 L57.6 70.6 55.7 70.3 55.6 70.3 Q52.95 69.6 52.6 66.65 L48.55 69.25 47.85 69.45 47.05 69.25 44.25 67.5 Q43.6 69.75 41.35 70.3 L39.35 70.6 28.25 70.6 26.7 70.45 26.6 70.4 Q23.95 69.6 23.95 66.2 L23.95 57.45 23.95 57.15 Q21.35 55.55 19.0 53.35 L18.9 53.25 16.25 50.15 15.45 48.95 14.55 47.15 13.75 45.15 13.75 45.2 13.5 44.55 Q9.95 43.1 6.75 39.3 L6.85 39.35 6.55 39.1 6.45 39.1 Q0.15 32.1 2.65 25.2 L2.75 25.0 Q5.85 18.85 9.5 13.7 L9.5 13.6 11.85 10.6 14.7 7.2 17.35 4.4 17.5 4.25 Q21.1 1.4 22.65 2.9 23.8 3.4 23.8 5.4 L23.8 14.35 23.8 14.65 23.75 15.15 Q28.85 9.5 35.7 5.7 L35.6 5.8 Q35.85 5.55 39.55 4.0 43.3 2.35 47.6 2.45 L48.15 2.45 Q52.15 2.4 55.7 4.0 59.4 5.55 59.65 5.8 61.2 6.7 62.75 7.7 67.25 10.65 72.95 16.95 L73.25 15.15 73.25 14.65 73.15 14.35 73.15 5.4 Q73.15 3.4 74.3 2.9 75.9 1.4 79.55 4.25 L79.65 4.4 82.3 7.2" fill="#000000" fill-opacity="0.47058824" fill-rule="evenodd" stroke="none"/>
    <path d="M82.3 7.2 L79.65 4.4 79.55 4.25 Q75.9 1.4 74.3 2.9 73.15 3.4 73.15 5.4 L73.15 14.35 73.25 14.65 73.25 15.15 72.95 16.95 Q67.25 10.65 62.75 7.7 61.2 6.7 59.65 5.8 59.4 5.55 55.7 4.0 52.15 2.4 48.15 2.45 L47.6 2.45 Q43.3 2.35 39.55 4.0 35.85 5.55 35.6 5.8 L35.7 5.7 Q28.85 9.5 23.75 15.15 L23.8 14.65 23.8 14.35 23.8 5.4 Q23.8 3.4 22.65 2.9 21.1 1.4 17.5 4.25 L17.35 4.4 14.7 7.2 11.85 10.6 9.5 13.6 9.5 13.7 Q5.85 18.85 2.75 25.0 L2.65 25.2 Q0.15 32.1 6.45 39.1 L6.55 39.1 6.85 39.35 6.75 39.3 Q9.95 43.1 13.5 44.55 L13.75 45.2 13.75 45.15 14.55 47.15 15.45 48.95 16.25 50.15 18.9 53.25 19.0 53.35 Q21.35 55.55 23.95 57.15 L23.95 57.45 23.95 66.2 Q23.95 69.6 26.6 70.4 L26.7 70.45 28.25 70.6 39.35 70.6 41.35 70.3 Q43.6 69.75 44.25 67.5 L47.05 69.25 47.85 69.45 48.55 69.25 52.6 66.65 Q52.95 69.6 55.6 70.3 L55.7 70.3 57.6 70.6 68.15 70.6 Q72.5 70.6 72.5 66.2 L72.5 57.45 72.45 56.2 76.2 53.4 76.35 53.35 Q78.5 51.15 79.95 48.65 L80.2 48.35 81.6 45.05 Q86.2 44.1 90.3 39.3 L90.15 39.35 90.45 39.1 90.5 39.1 Q96.85 32.1 94.3 25.2 L94.25 25.0 Q91.15 18.85 87.55 13.7 L87.5 13.6 85.2 10.6 82.3 7.2 Z" fill="none" stroke="#000000" stroke-linecap="butt" stroke-linejoin="miter-clip" stroke-miterlimit="3.0" stroke-opacity="0.3019608" stroke-width="6.0"/>
    <path d="M11.55 42.15 Q8.0 40.7 4.8 36.9 L4.9 36.95 4.6 36.7 4.5 36.7 Q-1.8 29.7 0.7 22.8 L0.8 22.6 Q3.9 16.45 7.55 11.3 L7.55 11.2 9.9 8.2 12.75 4.8 15.4 2.0 15.55 1.85 Q19.15 -1.0 20.7 0.5 21.85 1.0 21.85 3.0 L21.85 11.95 21.85 12.25 21.8 12.75 Q26.9 7.1 33.75 3.3 L33.65 3.4 Q33.9 3.15 37.6 1.6 41.35 -0.05 45.65 0.05 L46.2 0.05 Q50.2 0.0 53.75 1.6 L57.7 3.4 60.8 5.3 Q65.3 8.25 71.0 14.55 L71.3 12.75 71.3 12.25 71.2 11.95 71.2 3.0 Q71.2 1.0 72.35 0.5 73.95 -1.0 77.6 1.85 L77.7 2.0 80.35 4.8 83.25 8.2 85.55 11.2 85.6 11.3 Q89.2 16.45 92.3 22.6 L92.35 22.8 Q94.9 29.7 88.55 36.7 L88.5 36.7 88.2 36.95 88.35 36.9 Q84.25 41.7 79.65 42.65 L78.25 45.95 78.0 46.25 Q76.55 48.75 74.4 50.95 L74.25 51.0 70.5 53.8 70.55 55.05 70.55 63.8 Q70.55 68.2 66.2 68.2 L55.65 68.2 53.75 67.9 53.65 67.9 Q51.0 67.2 50.65 64.25 L46.6 66.85 45.9 67.05 45.1 66.85 42.3 65.1 Q41.65 67.35 39.4 67.9 L37.4 68.2 26.3 68.2 24.75 68.05 24.65 68.0 Q22.0 67.2 22.0 63.8 L22.0 55.05 22.0 54.75 Q19.4 53.15 17.05 50.95 L16.95 50.85 Q15.45 49.35 14.3 47.75 L13.5 46.55 12.6 44.75 11.8 42.75 11.55 42.15" fill="#000000" fill-rule="evenodd" stroke="none"/>
    <path d="M11.55 42.15 L11.8 42.75 11.8 42.8 11.55 42.15" fill="#000000" fill-opacity="0.5529412" fill-rule="evenodd" stroke="none"/>
    <path d="M11.8 42.75 L12.6 44.75 13.5 46.55 14.3 47.75 Q15.45 49.35 16.95 50.85 L17.05 50.95 Q19.4 53.15 22.0 54.75 L22.0 55.05 22.0 63.8 Q22.0 67.2 24.65 68.0 L24.75 68.05 26.3 68.2 37.4 68.2 39.4 67.9 Q41.65 67.35 42.3 65.1 L45.1 66.85 45.9 67.05 46.6 66.85 50.65 64.25 Q51.0 67.2 53.65 67.9 L53.75 67.9 55.65 68.2 66.2 68.2 Q70.55 68.2 70.55 63.8 L70.55 55.05 70.5 53.8 74.25 51.0 74.4 50.95 Q76.55 48.75 78.0 46.25 L78.25 45.95 79.65 42.65 Q84.25 41.7 88.35 36.9 L88.2 36.95 88.5 36.7 88.55 36.7 Q94.9 29.7 92.35 22.8 L92.3 22.6 Q89.2 16.45 85.6 11.3 L85.55 11.2 83.25 8.2 80.35 4.8 77.7 2.0 77.6 1.85 Q73.95 -1.0 72.35 0.5 71.2 1.0 71.2 3.0 L71.2 11.95 71.3 12.25 71.3 12.75 71.0 14.55 Q65.3 8.25 60.8 5.3 L57.7 3.4 53.75 1.6 Q50.2 0.0 46.2 0.05 L45.65 0.05 Q41.35 -0.05 37.6 1.6 33.9 3.15 33.65 3.4 L33.75 3.3 Q26.9 7.1 21.8 12.75 L21.85 12.25 21.85 11.95 21.85 3.0 Q21.85 1.0 20.7 0.5 19.15 -1.0 15.55 1.85 L15.4 2.0 12.75 4.8 9.9 8.2 7.55 11.2 7.55 11.3 Q3.9 16.45 0.8 22.6 L0.7 22.8 Q-1.8 29.7 4.5 36.7 L4.6 36.7 4.9 36.95 4.8 36.9 Q8.0 40.7 11.55 42.15 L11.8 42.8 11.8 42.75 Z" fill="none" stroke="#181512" stroke-linecap="butt" stroke-linejoin="miter-clip" stroke-miterlimit="3.0" stroke-opacity="0.3137255" stroke-width="4.0"/>
    <path d="M82.05 9.05 Q82.75 12.25 85.85 19.85 88.95 27.4 84.55 34.75 81.85 39.3 78.75 40.45 76.85 41.05 74.85 40.5 L73.0 39.7 72.4 39.5 Q67.65 37.6 64.5 30.7 L64.2 30.3 63.5 27.7 Q63.0 25.9 64.7 23.45 L65.85 21.95 66.3 21.6 65.85 23.45 Q64.7 29.65 68.9 31.45 70.75 31.45 71.95 30.65 74.4 29.05 75.65 26.4 L76.35 31.7 78.45 29.5 Q81.4 25.9 81.4 23.15 77.75 6.05 73.1 1.7 74.05 1.0 76.65 3.0 L79.25 5.75 82.05 9.05" fill="url(#gradient0)" fill-rule="evenodd" stroke="none"/>
    <path d="M74.85 40.5 Q76.85 41.05 78.75 40.45 81.85 39.3 84.55 34.75 88.95 27.4 85.85 19.85 82.75 12.25 82.05 9.05 L84.35 12.1 Q87.95 17.2 90.95 23.25 93.1 29.4 87.45 35.7 L87.15 35.95 Q83.1 40.8 78.5 41.35 L77.35 41.45 74.85 40.5" fill="url(#gradient1)" fill-rule="evenodd" stroke="none"/>
    <path d="M73.1 1.7 Q77.75 6.05 81.4 23.15 81.4 25.9 78.45 29.5 L76.35 31.7 75.65 26.4 Q74.4 29.05 71.95 30.65 70.75 31.45 68.9 31.45 64.7 29.65 65.85 23.45 L66.3 21.6 69.65 18.4 70.6 17.5 71.2 16.9 Q72.7 15.2 72.7 12.75 L72.6 11.95 72.6 3.0 Q72.6 2.0 73.1 1.7" fill="url(#gradient2)" fill-rule="evenodd" stroke="none"/>
    <path d="M74.85 40.5 L77.35 41.45 78.5 41.35 Q77.95 43.4 76.95 45.25 L76.85 45.25 Q75.5 47.75 73.35 49.85 L68.65 53.25 65.7 55.1 68.3 52.8 Q74.15 47.25 72.1 45.25 73.0 41.7 63.7 34.9 60.9 27.5 64.15 23.45 L64.7 23.45 Q63.0 25.9 63.5 27.7 L64.2 30.3 64.5 30.7 Q67.65 37.6 72.4 39.5 L73.0 39.7 74.85 40.5 M26.3 21.15 L26.7 21.15 27.3 21.45 Q30.95 23.75 31.2 29.2 30.3 33.5 29.05 35.55 21.9 39.7 20.6 44.45 19.05 46.95 24.05 52.95 L26.7 55.8 23.55 53.95 22.75 53.5 Q20.25 52.0 17.95 49.85 L15.45 46.9 14.7 45.8 13.85 44.1 13.15 42.3 12.75 41.0 15.65 41.45 18.15 40.5 20.05 39.7 20.6 39.5 Q25.35 37.6 28.5 30.7 L28.8 30.3 29.55 27.7 Q30.2 25.3 27.15 21.95 L26.7 21.6 26.3 21.15" fill="#9d9177" fill-rule="evenodd" stroke="none"/>
    <path d="M66.3 21.6 L65.85 21.95 64.7 23.45 64.15 23.45 Q60.9 27.5 63.7 34.9 73.0 41.7 72.1 45.25 74.15 47.25 68.3 52.8 L65.7 55.1 65.55 55.15 Q60.1 56.9 51.95 61.7 49.0 63.45 45.8 65.6 L41.05 62.75 40.55 62.45 Q32.1 57.5 27.25 55.95 L26.7 55.8 24.05 52.95 Q19.05 46.95 20.6 44.45 21.9 39.7 29.05 35.55 30.3 33.5 31.2 29.2 30.95 23.75 27.3 21.45 L26.7 21.15 26.3 21.15 24.4 19.35 Q29.65 19.85 32.35 25.7 33.75 32.8 38.95 35.4 41.75 36.1 44.05 33.25 44.85 32.25 45.8 32.15 L45.85 32.15 Q47.0 32.1 47.85 33.25 50.2 36.1 53.0 35.4 58.15 32.8 59.6 25.7 61.9 19.15 69.65 18.4 L66.3 21.6 M69.8 47.05 Q70.1 45.1 69.4 43.25 68.4 40.55 66.15 39.3 63.9 38.05 57.85 40.0 53.4 41.35 48.1 44.8 46.3 45.6 44.65 44.8 39.1 41.3 34.65 40.0 28.6 38.05 26.35 39.3 24.15 40.55 23.2 43.25 22.35 45.4 23.0 47.75 L23.2 48.65 Q23.9 50.85 25.7 52.15 L26.65 52.65 Q32.55 54.9 39.4 57.05 L41.05 59.0 Q42.1 60.0 43.5 60.8 44.85 61.45 46.3 61.35 47.65 61.45 49.1 60.8 50.75 59.8 51.95 58.35 L52.9 57.05 65.95 52.65 66.85 52.15 Q68.6 50.85 69.4 48.65 L69.8 47.05" fill="url(#gradient3)" fill-rule="evenodd" stroke="none"/>
    <path d="M71.2 16.9 L70.6 17.5 69.65 18.4 Q61.9 19.15 59.6 25.7 58.15 32.8 53.0 35.4 50.2 36.1 47.85 33.25 47.0 32.1 45.85 32.15 L45.8 32.15 Q44.85 32.25 44.05 33.25 41.75 36.1 38.95 35.4 33.75 32.8 32.35 25.7 29.65 19.85 24.4 19.35 L22.4 17.5 Q21.55 16.7 21.05 15.75 L22.05 14.55 Q27.3 8.55 34.4 4.55 L38.15 2.85 Q41.6 1.35 45.65 1.5 L46.15 1.5 Q49.9 1.45 53.15 2.85 L56.85 4.55 59.95 6.45 Q64.85 9.7 71.2 16.9" fill="url(#gradient4)" fill-rule="evenodd" stroke="none"/>
    <path d="M23.0 47.75 Q22.35 45.4 23.2 43.25 24.15 40.55 26.35 39.3 28.6 38.05 34.65 40.0 39.1 41.3 44.65 44.8 46.3 45.6 48.1 44.8 53.4 41.35 57.85 40.0 63.9 38.05 66.15 39.3 68.4 40.55 69.4 43.25 70.1 45.1 69.8 47.05 L69.55 46.25 Q68.5 43.6 66.3 41.45 64.0 39.3 57.8 41.6 51.6 43.9 48.25 47.85 46.45 48.65 44.8 47.85 40.75 43.4 34.15 41.3 27.5 39.15 25.35 41.35 23.15 43.6 23.15 45.3 L23.0 47.75" fill="#776955" fill-rule="evenodd" stroke="none"/>
    <path d="M69.8 47.05 L69.4 48.65 Q68.6 50.85 66.85 52.15 L65.95 52.65 52.9 57.05 51.95 58.35 Q50.75 59.8 49.1 60.8 47.65 61.45 46.3 61.35 44.85 61.45 43.5 60.8 42.1 60.0 41.05 59.0 L39.4 57.05 Q32.55 54.9 26.65 52.65 L25.7 52.15 Q23.9 50.85 23.2 48.65 L23.0 47.75 23.15 45.3 Q23.15 43.6 25.35 41.35 27.5 39.15 34.15 41.3 40.75 43.4 44.8 47.85 46.45 48.65 48.25 47.85 51.6 43.9 57.8 41.6 64.0 39.3 66.3 41.45 68.5 43.6 69.55 46.25 L69.8 47.05 M62.85 44.25 L62.9 44.0 Q63.0 43.4 60.55 44.6 56.7 46.45 53.85 48.7 L53.5 48.9 53.85 49.3 Q54.55 51.85 57.3 52.25 61.9 52.45 62.7 48.4 L62.7 48.1 Q62.35 46.2 62.85 44.25 M39.15 49.3 L39.55 48.9 39.15 48.7 Q36.3 46.45 32.5 44.6 30.05 43.4 30.1 44.0 L30.2 44.25 Q30.7 46.2 30.3 48.1 L30.4 48.4 Q31.1 52.45 35.7 52.25 38.45 51.85 39.15 49.3 M48.25 55.45 L48.6 55.15 48.9 54.55 48.75 54.1 48.65 53.9 46.5 54.25 44.35 53.9 44.3 54.1 44.15 54.55 44.4 55.15 44.8 55.45 Q45.15 56.25 46.35 56.55 L46.5 56.55 46.65 56.55 46.65 56.45 Q47.85 56.25 48.25 55.45 M45.0 59.05 L48.0 59.05 Q48.3 59.05 48.5 58.85 L48.65 58.4 48.5 57.9 48.0 57.75 45.0 57.75 44.5 57.9 Q44.35 58.1 44.35 58.4 44.35 58.7 44.5 58.85 L45.0 59.05" fill="url(#gradient5)" fill-rule="evenodd" stroke="none"/>
    <path d="M53.85 49.3 L53.5 48.9 53.85 48.7 Q56.7 46.45 60.55 44.6 63.0 43.4 62.9 44.0 L62.85 44.25 61.7 45.7 Q61.9 47.25 61.35 48.35 60.7 49.65 59.0 50.35 56.15 51.6 53.85 49.3 M56.35 48.4 L57.0 48.5 58.3 48.4 58.6 48.35 Q59.4 48.1 59.6 47.5 L60.1 46.4 Q57.8 46.4 57.3 47.15 L56.55 48.1 56.35 48.4 M30.2 44.25 L30.1 44.0 Q30.05 43.4 32.5 44.6 36.3 46.45 39.15 48.7 L39.55 48.9 39.15 49.3 Q36.85 51.6 34.0 50.35 32.35 49.65 31.7 48.35 31.1 47.25 31.35 45.7 30.3 44.65 30.2 44.25 M32.9 46.4 L33.4 47.5 Q33.65 48.1 34.4 48.35 L34.7 48.4 36.0 48.5 36.65 48.4 36.4 48.1 35.55 47.1 Q34.9 46.3 32.9 46.4 M48.25 55.45 L48.3 55.25 Q48.1 55.45 47.8 55.45 L45.05 55.45 44.8 55.45 44.4 55.15 44.15 54.55 44.3 54.1 44.35 53.9 46.5 54.25 48.65 53.9 48.75 54.1 48.9 54.55 48.6 55.15 48.25 55.45" fill="#000000" fill-rule="evenodd" stroke="none"/>
    <path d="M56.35 48.4 L56.55 48.1 57.3 47.15 Q57.8 46.4 60.1 46.4 L59.6 47.5 Q59.4 48.1 58.6 48.35 L58.3 48.4 57.0 48.5 56.35 48.4 M32.9 46.4 Q34.9 46.3 35.55 47.1 L36.4 48.1 36.65 48.4 36.0 48.5 34.7 48.4 34.4 48.35 Q33.65 48.1 33.4 47.5 L32.9 46.4" fill="#fff6e9" fill-rule="evenodd" stroke="none"/>
    <path d="M53.85 49.3 Q56.15 51.6 59.0 50.35 60.7 49.65 61.35 48.35 61.9 47.25 61.7 45.7 L62.85 44.25 Q62.35 46.2 62.7 48.1 L62.7 48.4 Q61.9 52.45 57.3 52.25 54.55 51.85 53.85 49.3 M30.2 44.25 Q30.3 44.65 31.35 45.7 31.1 47.25 31.7 48.35 32.35 49.65 34.0 50.35 36.85 51.6 39.15 49.3 38.45 51.85 35.7 52.25 31.1 52.45 30.4 48.4 L30.3 48.1 Q30.7 46.2 30.2 44.25" fill="#cec8ad" fill-rule="evenodd" stroke="none"/>
    <path d="M24.4 19.35 L26.3 21.15 26.7 21.6 Q28.9 29.35 24.15 31.45 22.25 31.45 21.05 30.65 18.6 29.05 17.35 26.4 L16.65 31.7 Q14.55 29.65 13.4 27.85 11.6 25.25 11.6 23.15 15.3 6.05 19.9 1.7 20.4 2.0 20.4 3.0 L20.4 11.95 20.3 12.75 Q20.3 14.4 21.05 15.75 21.55 16.7 22.4 17.5 L24.4 19.35" fill="url(#gradient6)" fill-rule="evenodd" stroke="none"/>
    <path d="M26.7 21.6 L27.15 21.95 Q30.2 25.3 29.55 27.7 L28.8 30.3 28.5 30.7 Q25.35 37.6 20.6 39.5 L20.05 39.7 18.15 40.5 Q15.15 41.35 12.4 39.35 10.3 37.85 8.45 34.75 4.05 27.4 7.15 19.85 10.25 12.25 10.95 9.05 L13.75 5.75 16.35 3.0 Q18.95 1.0 19.9 1.7 15.3 6.05 11.6 23.15 11.6 25.25 13.4 27.85 14.55 29.65 16.65 31.7 L17.35 26.4 Q18.6 29.05 21.05 30.65 22.25 31.45 24.15 31.45 28.9 29.35 26.7 21.6" fill="url(#gradient7)" fill-rule="evenodd" stroke="none"/>
    <path d="M18.15 40.5 L15.65 41.45 12.75 41.0 Q9.1 39.85 5.85 35.95 L5.55 35.7 Q-0.1 29.4 2.05 23.25 5.05 17.2 8.65 12.1 L10.95 9.05 Q10.25 12.25 7.15 19.85 4.05 27.4 8.45 34.75 10.3 37.85 12.4 39.35 15.15 41.35 18.15 40.5" fill="url(#gradient8)" fill-rule="evenodd" stroke="none"/>
    <path d="M26.7 55.8 L27.25 55.95 Q32.1 57.5 40.55 62.45 L37.1 62.45 30.15 62.35 27.85 56.75 27.35 59.9 27.35 61.0 27.35 62.45 27.35 63.1 27.35 63.3 24.85 63.3 24.7 63.0 24.75 56.95 23.4 55.6 23.4 55.05 Q23.4 54.45 23.55 53.95 L26.7 55.8 M51.95 61.7 Q60.1 56.9 65.55 55.15 L65.7 55.1 68.65 53.25 Q68.95 53.7 69.05 54.4 L67.8 56.35 67.65 63.3 65.65 63.3 65.65 63.1 65.65 62.45 65.65 59.9 65.55 60.0 65.35 56.5 63.15 62.45 54.95 62.45 51.95 62.45 51.95 61.7 M27.25 55.95 L27.35 61.0 27.25 55.95 M65.55 55.15 L65.55 60.0 65.55 55.15" fill="#2f2b1e" fill-rule="evenodd" stroke="none"/>
    <path d="M27.35 62.45 L27.35 61.0 27.35 59.9 27.85 56.75 30.15 62.35 27.35 62.45" fill="#776f4d" fill-rule="evenodd" stroke="none"/>
    <path d="M23.4 55.6 L24.75 56.95 24.7 63.0 24.85 63.3 23.4 63.3 23.4 55.6 M69.05 54.4 L69.1 55.05 69.1 63.3 67.75 63.3 67.65 63.3 67.8 56.35 69.05 54.4" fill="#6c6146" fill-rule="evenodd" stroke="none"/>
    <path d="M24.85 63.3 L27.35 63.3 Q27.5 66.65 30.9 66.75 L26.3 66.75 26.35 66.7 Q24.55 65.65 24.85 63.3 M65.85 66.75 L62.2 66.75 Q65.45 66.65 65.65 63.4 L65.65 63.3 67.65 63.3 67.75 63.3 Q67.6 65.85 65.85 66.75" fill="#584d41" fill-rule="evenodd" stroke="none"/>
    <path d="M24.85 63.3 Q24.55 65.65 26.35 66.7 L26.3 66.75 25.05 66.6 Q23.4 66.05 23.4 63.8 L23.4 63.3 24.85 63.3 M69.1 63.3 L69.1 63.8 Q69.1 66.75 66.15 66.75 L65.85 66.75 Q67.6 65.85 67.75 63.3 L69.1 63.3" fill="#806f5e" fill-rule="evenodd" stroke="none"/>
    <path d="M27.35 62.45 L30.15 62.35 37.1 62.45 30.75 63.2 Q32.9 66.0 38.95 66.55 L37.35 66.75 30.9 66.75 Q27.5 66.65 27.35 63.3 L27.35 63.1 27.35 62.45 M62.2 66.75 L55.65 66.75 54.05 66.55 Q60.05 66.15 62.7 63.15 L54.95 62.45 63.15 62.45 65.55 62.45 65.65 62.45 65.65 63.1 65.65 63.3 65.65 63.4 Q65.45 66.65 62.2 66.75 M65.65 63.3 L65.55 62.45 65.65 63.3 M45.0 59.05 L44.5 58.85 Q44.35 58.7 44.35 58.4 44.35 58.1 44.5 57.9 L45.0 57.75 48.0 57.75 48.5 57.9 48.65 58.4 48.5 58.85 Q48.3 59.05 48.0 59.05 L45.0 59.05" fill="#c2b9ab" fill-rule="evenodd" stroke="none"/>
    <path d="M40.55 62.45 L41.05 62.75 41.05 63.1 Q41.05 65.9 38.95 66.55 32.9 66.0 30.75 63.2 L37.1 62.45 40.55 62.45 M54.05 66.55 Q51.95 65.9 51.95 63.1 L51.95 62.45 54.95 62.45 62.7 63.15 Q60.05 66.15 54.05 66.55" fill="#93836c" fill-rule="evenodd" stroke="none"/>
    <path d="M63.15 62.45 L65.35 56.5 65.55 60.0 65.55 62.45 63.15 62.45" fill="#8b815a" fill-rule="evenodd" stroke="none"/>
    <path d="M65.55 60.0 L65.65 59.9 65.65 62.45 65.55 62.45 65.55 60.0" fill="#46412d" fill-rule="evenodd" stroke="none"/>
    <path d="M44.8 55.45 L45.05 55.45 47.8 55.45 Q48.1 55.45 48.3 55.25 L48.25 55.45 Q47.85 56.25 46.65 56.45 L46.65 56.55 46.5 56.55 46.35 56.55 Q45.15 56.25 44.8 55.45" fill="#80725e" fill-rule="evenodd" stroke="none"/>
    <path d="M74.85 40.5 L77.35 41.45 78.5 41.35 Q83.1 40.8 87.15 35.95 L87.45 35.7 Q93.1 29.4 90.95 23.25 87.95 17.2 84.35 12.1 L82.05 9.05 79.25 5.75 76.65 3.0 Q74.05 1.0 73.1 1.7 72.6 2.0 72.6 3.0 L72.6 11.95 72.7 12.75 Q72.7 15.2 71.2 16.9 L70.6 17.5 69.65 18.4 66.3 21.6 65.85 21.95 64.7 23.45 Q63.0 25.9 63.5 27.7 L64.2 30.3 64.5 30.7 Q67.65 37.6 72.4 39.5 L73.0 39.7 74.85 40.5 M21.05 15.75 L22.05 14.55 Q27.3 8.55 34.4 4.55 L38.15 2.85 Q41.6 1.35 45.65 1.5 L46.15 1.5 Q49.9 1.45 53.15 2.85 L56.85 4.55 59.95 6.45 Q64.85 9.7 71.2 16.9 M24.4 19.35 L26.3 21.15 26.7 21.6 27.15 21.95 Q30.2 25.3 29.55 27.7 L28.8 30.3 28.5 30.7 Q25.35 37.6 20.6 39.5 L20.05 39.7 18.15 40.5 15.65 41.45 12.75 41.0 13.15 42.3 13.85 44.1 14.7 45.8 15.45 46.9 17.95 49.85 Q20.25 52.0 22.75 53.5 L23.55 53.95 26.7 55.8 27.25 55.95 Q32.1 57.5 40.55 62.45 L41.05 62.75 45.8 65.6 Q49.0 63.45 51.95 61.7 60.1 56.9 65.55 55.15 L65.7 55.1 68.65 53.25 73.35 49.85 Q75.5 47.75 76.85 45.25 L76.95 45.25 Q77.95 43.4 78.5 41.35 M23.0 47.75 Q22.35 45.4 23.2 43.25 24.15 40.55 26.35 39.3 28.6 38.05 34.65 40.0 39.1 41.3 44.65 44.8 46.3 45.6 48.1 44.8 53.4 41.35 57.85 40.0 63.9 38.05 66.15 39.3 68.4 40.55 69.4 43.25 70.1 45.1 69.8 47.05 L69.4 48.65 Q68.6 50.85 66.85 52.15 L65.95 52.65 52.9 57.05 51.95 58.35 Q50.75 59.8 49.1 60.8 47.65 61.45 46.3 61.35 44.85 61.45 43.5 60.8 42.1 60.0 41.05 59.0 L39.4 57.05 Q32.55 54.9 26.65 52.65 L25.7 52.15 Q23.9 50.85 23.2 48.65 L23.0 47.75 M19.9 1.7 Q20.4 2.0 20.4 3.0 L20.4 11.95 20.3 12.75 Q20.3 14.4 21.05 15.75 21.55 16.7 22.4 17.5 L24.4 19.35 M10.95 9.05 L8.65 12.1 Q5.05 17.2 2.05 23.25 -0.1 29.4 5.55 35.7 L5.85 35.95 Q9.1 39.85 12.75 41.0 M10.95 9.05 L13.75 5.75 16.35 3.0 Q18.95 1.0 19.9 1.7 M27.35 59.9 L27.35 61.0 27.35 62.45 27.35 63.1 27.35 63.3 Q27.5 66.65 30.9 66.75 L37.35 66.75 38.95 66.55 Q41.05 65.9 41.05 63.1 L41.05 62.75 M27.35 61.0 L27.25 55.95 M62.2 66.75 L55.65 66.75 54.05 66.55 Q51.95 65.9 51.95 63.1 L51.95 62.45 M65.55 60.0 L65.55 55.15 M65.55 60.0 L65.55 62.45 65.65 63.3 65.65 63.4 Q65.45 66.65 62.2 66.75 M65.65 62.45 L65.65 59.9" fill="none" stroke="#181512" stroke-linecap="butt" stroke-linejoin="miter-clip" stroke-miterlimit="3.0" stroke-opacity="0.3137255" stroke-width="1.0"/>
  </g>
  <defs>
    <linearGradient gradientTransform="matrix(0.0244, -0.0074, 0.007, 0.0233, 88.1, 25.25)" gradientUnits="userSpaceOnUse" id="gradient0" spreadMethod="pad" x1="-819.2" x2="819.2">
      <stop offset="0.2196078431372549" stop-color="#10424e"/>
      <stop offset="0.596078431372549" stop-color="#57a4b2"/>
      <stop offset="1.0" stop-color="#9acdd1"/>
    </linearGradient>
    <linearGradient gradientTransform="matrix(0.016, -0.0048, 0.007, 0.0233, 87.15, 25.55)" gradientUnits="userSpaceOnUse" id="gradient1" spreadMethod="pad" x1="-819.2" x2="819.2">
      <stop offset="0.0" stop-color="#145666"/>
      <stop offset="0.5411764705882353" stop-color="#5dabb8"/>
      <stop offset="1.0" stop-color="#9acdd1"/>
    </linearGradient>
    <linearGradient gradientTransform="matrix(0.0169, 0.0162, -0.0168, 0.0176, 76.5, 26.75)" gradientUnits="userSpaceOnUse" id="gradient2" spreadMethod="pad" x1="-819.2" x2="819.2">
      <stop offset="0.0" stop-color="#d9fbe6"/>
      <stop offset="0.27450980392156865" stop-color="#8de4ed"/>
      <stop offset="0.5411764705882353" stop-color="#2b7180"/>
    </linearGradient>
    <linearGradient gradientTransform="matrix(8.0E-4, -0.0446, 0.0312, 6.0E-4, 44.05, 43.75)" gradientUnits="userSpaceOnUse" id="gradient3" spreadMethod="pad" x1="-819.2" x2="819.2">
      <stop offset="0.1568627450980392" stop-color="#fffff6"/>
      <stop offset="0.4" stop-color="#e3e3c9"/>
      <stop offset="0.8784313725490196" stop-color="#806f55"/>
    </linearGradient>
    <radialGradient cx="0" cy="0" gradientTransform="matrix(0.0516, 0.0, 0.0, 0.0516, 41.1, 11.8)" gradientUnits="userSpaceOnUse" id="gradient4" r="819.2" spreadMethod="pad">
      <stop offset="0.1568627450980392" stop-color="#fffff6"/>
      <stop offset="0.4" stop-color="#cfc9af"/>
    </radialGradient>
    <linearGradient gradientTransform="matrix(1.0E-4, -0.0144, 0.0129, 1.0E-4, 45.85, 51.8)" gradientUnits="userSpaceOnUse" id="gradient5" spreadMethod="pad" x1="-819.2" x2="819.2">
      <stop offset="0.4" stop-color="#9f9671"/>
      <stop offset="0.8784313725490196" stop-color="#806f55"/>
    </linearGradient>
    <linearGradient gradientTransform="matrix(-0.0169, 0.0162, 0.0168, 0.0176, 16.5, 26.75)" gradientUnits="userSpaceOnUse" id="gradient6" spreadMethod="pad" x1="-819.2" x2="819.2">
      <stop offset="0.0" stop-color="#d9fbe6"/>
      <stop offset="0.27450980392156865" stop-color="#8de4ed"/>
      <stop offset="0.5411764705882353" stop-color="#2b7180"/>
    </linearGradient>
    <linearGradient gradientTransform="matrix(-0.0244, -0.0074, -0.007, 0.0233, 4.9, 25.25)" gradientUnits="userSpaceOnUse" id="gradient7" spreadMethod="pad" x1="-819.2" x2="819.2">
      <stop offset="0.2196078431372549" stop-color="#10424e"/>
      <stop offset="0.596078431372549" stop-color="#57a4b2"/>
      <stop offset="1.0" stop-color="#9acdd1"/>
    </linearGradient>
    <linearGradient gradientTransform="matrix(-0.016, -0.0048, -0.007, 0.0233, 5.85, 25.55)" gradientUnits="userSpaceOnUse" id="gradient8" spreadMethod="pad" x1="-819.2" x2="819.2">
      <stop offset="0.0" stop-color="#145666"/>
      <stop offset="0.5411764705882353" stop-color="#5dabb8"/>
      <stop offset="1.0" stop-color="#9acdd1"/>
    </linearGradient>
  </defs>
</svg>
