<?xml version="1.0" encoding="UTF-8" standalone="no"?>
<svg xmlns:ffdec="https://www.free-decompiler.com/flash" xmlns:xlink="http://www.w3.org/1999/xlink" ffdec:objectType="shape" height="12.95px" width="10.95px" xmlns="http://www.w3.org/2000/svg">
  <g transform="matrix(1.0, 0.0, 0.0, 1.0, -4.55, -0.3)">
    <path d="M14.5 2.65 Q14.6 5.35 13.75 7.5 L13.35 8.45 12.75 9.5 11.7 10.8 10.0 12.25 8.35 10.8 8.2 10.6 Q7.3 9.65 6.7 8.45 L6.25 7.45 Q5.65 5.8 5.55 3.95 L5.55 2.65 6.25 2.25 Q7.95 1.35 10.0 1.3 L10.15 1.3 11.75 1.5 12.0 1.6 13.75 2.25 14.5 2.65" fill="#2b1509" fill-rule="evenodd" stroke="none"/>
    <path d="M14.5 2.65 L13.75 2.25 12.0 1.6 11.75 1.5 10.15 1.3 10.0 1.3 Q7.95 1.35 6.25 2.25 L5.55 2.65 5.55 3.95 Q5.65 5.8 6.25 7.45 L6.7 8.45 Q7.3 9.65 8.2 10.6 L8.35 10.8 10.0 12.25 11.7 10.8 12.75 9.5 13.35 8.45 13.75 7.5 Q14.6 5.35 14.5 2.65 Z" fill="none" stroke="#2b1509" stroke-linecap="butt" stroke-linejoin="round" stroke-width="2.0"/>
    <path d="M6.45 7.9 L6.25 7.5 Q5.65 5.9 5.55 3.95 L5.5 2.75 5.55 2.7 6.25 2.3 Q7.95 1.45 10.0 1.35 L10.1 1.35 12.0 1.65 13.75 2.3 14.5 2.75 14.0 4.0 14.0 3.25 13.95 3.2 13.75 3.05 13.7 3.0 13.7 3.05 Q12.95 2.55 12.0 2.3 L10.1 2.05 9.85 2.05 8.0 2.3 Q7.05 2.55 6.25 3.05 L6.05 3.2 6.0 3.25 6.0 3.3 Q5.95 4.65 6.25 5.9 L7.0 8.05 6.45 7.9" fill="#d9e9ea" fill-rule="evenodd" stroke="none"/>
    <path d="M7.0 8.05 L6.25 5.9 Q5.95 4.65 6.0 3.3 L6.0 3.25 6.05 3.2 6.25 3.05 Q7.05 2.55 8.0 2.3 L9.85 2.05 10.1 2.05 12.0 2.3 Q12.95 2.55 13.7 3.05 L13.7 3.0 13.75 3.05 13.95 3.2 14.0 3.25 14.0 4.0 13.75 4.55 13.75 3.7 13.75 3.35 13.55 3.25 Q12.85 2.8 12.0 2.6 L11.9 2.55 11.75 2.5 10.1 2.3 9.85 2.3 8.25 2.5 8.15 2.55 8.0 2.6 Q7.05 2.85 6.25 3.35 L6.25 3.75 Q6.3 6.15 7.35 8.1 L7.15 8.05 7.0 8.05" fill="#689aa3" fill-rule="evenodd" stroke="none"/>
    <path d="M12.0 2.95 L12.0 2.6 Q12.85 2.8 13.55 3.25 L13.75 3.35 13.75 3.7 13.55 3.6 Q12.85 3.2 12.0 2.95 M11.75 2.5 L11.75 2.9 10.1 2.65 10.1 2.3 11.75 2.5 M6.25 3.75 L6.25 3.35 Q7.05 2.85 8.0 2.6 L8.0 2.95 6.25 3.75 M8.25 2.5 L9.85 2.3 9.85 2.65 8.25 2.9 8.25 2.5 M13.75 4.6 L13.7 5.0 Q13.4 6.9 12.45 8.45 L12.15 9.0 12.0 9.15 12.0 6.85 13.75 4.6 M11.75 9.45 L10.1 11.0 10.1 9.0 10.35 8.9 10.45 8.6 10.45 8.45 10.35 8.3 10.1 8.2 10.1 7.9 10.15 7.9 Q11.05 7.65 11.75 7.1 L11.75 9.45 M9.85 11.0 L9.75 10.85 8.3 9.45 8.3 8.2 9.85 8.0 9.85 8.2 9.9 8.2 9.75 8.3 9.65 8.45 9.6 8.6 9.75 8.9 9.9 8.95 9.85 9.0 9.85 11.0 M8.0 9.15 L7.35 8.1 8.0 8.15 8.0 9.15" fill="#58382b" fill-rule="evenodd" stroke="none"/>
    <path d="M11.75 2.9 L11.75 4.2 11.8 4.2 11.6 4.3 11.55 4.45 11.5 4.6 11.6 4.9 11.75 5.0 11.75 7.1 Q11.05 7.65 10.15 7.9 L10.1 7.9 10.1 2.65 11.75 2.9 M12.0 4.15 L12.0 2.95 Q12.85 3.2 13.55 3.6 L13.75 3.7 13.75 4.55 13.75 4.6 12.0 6.85 12.0 5.0 12.2 4.9 12.35 4.6 12.3 4.45 12.2 4.3 12.0 4.2 12.0 4.15 M7.35 8.1 Q6.3 6.15 6.25 3.75 L8.0 2.95 8.0 4.2 7.85 4.3 7.8 4.45 7.75 4.6 7.85 4.9 8.0 5.0 8.0 8.15 7.35 8.1 M8.25 2.9 L9.85 2.65 9.85 8.0 8.3 8.2 8.3 5.0 8.45 4.9 8.6 4.6 8.55 4.45 8.45 4.3 8.3 4.2 8.25 2.9" fill="#a1664c" fill-rule="evenodd" stroke="none"/>
    <path d="M12.0 2.6 L12.0 2.95 12.0 4.15 11.85 4.15 11.8 4.2 11.75 4.2 11.75 2.9 11.75 2.5 11.9 2.55 12.0 2.6 M11.75 5.0 L12.0 5.0 12.0 6.85 12.0 9.15 11.8 9.4 11.75 9.45 11.75 7.1 11.75 5.0 M8.0 2.6 L8.15 2.55 8.25 2.5 8.25 2.9 8.3 4.2 8.25 4.15 8.15 4.15 8.0 4.2 8.0 2.95 8.0 2.6 M9.85 2.3 L10.1 2.3 10.1 2.65 10.1 7.9 10.1 8.2 9.9 8.2 9.85 8.2 9.85 8.0 9.85 2.65 9.85 2.3 M10.1 11.0 L10.0 11.1 9.85 11.0 9.85 9.0 9.9 8.95 10.0 9.0 10.1 9.0 10.1 11.0 M8.3 9.45 L8.2 9.4 8.2 9.35 8.0 9.15 8.0 8.15 8.0 5.0 8.3 5.0 8.3 8.2 8.3 9.45" fill="#492c25" fill-rule="evenodd" stroke="none"/>
    <path d="M11.8 4.2 L11.85 4.15 12.0 4.15 12.0 4.2 12.2 4.3 12.3 4.45 12.2 4.6 11.95 4.75 11.9 4.75 11.6 4.6 11.55 4.45 11.6 4.3 11.8 4.2 M7.8 4.45 L7.85 4.3 8.0 4.2 8.15 4.15 8.25 4.15 8.3 4.2 8.45 4.3 8.55 4.45 8.45 4.6 8.2 4.75 8.15 4.75 7.85 4.6 7.8 4.45 M10.45 8.45 L10.35 8.6 10.05 8.75 10.0 8.75 9.75 8.6 9.65 8.45 9.75 8.3 9.9 8.2 10.1 8.2 10.35 8.3 10.45 8.45" fill="#ffcc33" fill-rule="evenodd" stroke="none"/>
    <path d="M11.55 4.45 L11.6 4.6 11.9 4.75 11.95 4.75 12.2 4.6 12.3 4.45 12.35 4.6 12.2 4.9 12.0 5.0 11.75 5.0 11.6 4.9 11.5 4.6 11.55 4.45 M8.0 5.0 L7.85 4.9 7.75 4.6 7.8 4.45 7.85 4.6 8.15 4.75 8.2 4.75 8.45 4.6 8.55 4.45 8.6 4.6 8.45 4.9 8.3 5.0 8.0 5.0 M10.45 8.45 L10.45 8.6 10.35 8.9 10.1 9.0 10.0 9.0 9.9 8.95 9.75 8.9 9.6 8.6 9.65 8.45 9.75 8.6 10.0 8.75 10.05 8.75 10.35 8.6 10.45 8.45" fill="#d7aa31" fill-rule="evenodd" stroke="none"/>
    <path d="M13.75 4.55 L14.0 4.0 13.75 6.0 12.8 8.45 11.9 9.7 10.65 10.85 10.05 11.3 10.0 11.35 9.9 11.3 8.15 9.7 7.0 8.05 7.15 8.05 7.35 8.1 8.0 9.15 8.2 9.35 8.2 9.4 8.3 9.45 9.75 10.85 9.85 11.0 10.0 11.1 10.1 11.0 11.75 9.45 11.8 9.4 12.0 9.15 12.15 9.0 12.45 8.45 Q13.4 6.9 13.7 5.0 L13.75 4.6 13.75 4.55" fill="#477074" fill-rule="evenodd" stroke="none"/>
    <path d="M6.45 7.9 L7.0 8.05 8.15 9.7 9.9 11.3 10.0 11.35 10.05 11.3 10.65 10.85 11.9 9.7 12.8 8.45 13.75 6.0 14.0 4.0 14.5 2.75 Q14.55 5.45 13.75 7.55 L12.7 9.55 11.7 10.85 10.0 12.3 8.15 10.65 Q7.25 9.65 6.7 8.45 L6.45 7.9" fill="#83b7be" fill-rule="evenodd" stroke="none"/>
  </g>
</svg>
