<?xml version="1.0" encoding="UTF-8" standalone="no"?>
<svg xmlns:ffdec="https://www.free-decompiler.com/flash" xmlns:xlink="http://www.w3.org/1999/xlink" ffdec:objectType="shape" height="19.75px" width="14.1px" xmlns="http://www.w3.org/2000/svg">
  <g transform="matrix(1.0, 0.0, 0.0, 1.0, 0.0, 0.0)">
    <path d="M12.0 6.45 Q12.0 8.5 10.5 9.95 9.1 11.4 7.0 11.4 4.9 11.4 3.5 9.95 2.05 8.5 2.05 6.45 2.05 4.4 3.5 2.9 4.9 1.45 7.0 1.45 9.1 1.45 10.5 2.9 12.0 4.4 12.0 6.45 M13.4 6.45 Q13.4 9.05 11.5 10.95 9.6 12.9 7.0 12.9 4.3 12.9 2.4 10.95 L1.7 10.15 Q0.55 8.5 0.55 6.45 0.55 4.35 1.7 2.7 L2.4 1.85 Q4.3 0.0 7.0 0.0 9.6 0.0 11.5 1.85 13.4 3.8 13.4 6.45 M10.9 2.5 Q9.35 0.8 7.0 0.8 4.65 0.8 3.0 2.5 2.1 3.4 1.7 4.6 1.4 5.45 1.4 6.45 1.4 7.4 1.7 8.3 2.1 9.45 3.0 10.35 4.65 12.0 7.0 12.0 9.35 12.0 10.9 10.35 12.6 8.75 12.6 6.45 12.6 4.1 10.9 2.5 M7.8 3.0 L6.6 3.0 5.15 4.25 5.15 5.65 6.2 4.85 6.2 8.45 5.15 8.45 5.15 9.7 8.9 9.7 8.9 8.45 7.8 8.45 7.8 3.0" fill="#ee9f00" fill-rule="evenodd" stroke="none"/>
    <path d="M9.6 19.75 L5.9 13.25 8.2 13.25 8.8 13.05 Q10.05 12.8 11.1 11.95 L14.1 17.15 10.6 16.2 9.6 19.75 M6.8 15.8 L4.45 19.75 3.5 16.2 0.0 17.15 3.0 12.05 Q4.0 12.8 5.2 13.15 L6.8 15.8" fill="#4a11d9" fill-rule="evenodd" stroke="none"/>
  </g>
</svg>
