<?xml version="1.0" encoding="UTF-8" standalone="no"?>
<svg xmlns:ffdec="https://www.free-decompiler.com/flash" xmlns:xlink="http://www.w3.org/1999/xlink" ffdec:objectType="shape" height="30.4px" width="25.45px" xmlns="http://www.w3.org/2000/svg">
  <g transform="matrix(1.0, 0.0, 0.0, 1.0, -0.85, 0.7)">
    <path d="M24.05 0.75 L24.3 1.0 24.4 1.35 Q23.9 4.65 22.75 7.7 21.6 10.65 19.8 13.4 L19.1 14.35 24.75 23.6 24.95 23.8 Q25.5 26.15 25.2 27.25 24.75 28.75 23.0 28.65 L22.85 28.65 17.15 28.4 Q15.45 28.15 14.95 26.75 L14.9 26.75 13.7 23.8 13.65 23.55 13.7 23.25 13.6 23.1 13.25 22.75 12.75 21.5 12.75 21.0 13.05 20.65 12.75 20.6 12.5 20.45 12.3 20.2 12.1 19.6 12.1 26.15 Q12.1 27.45 11.75 27.95 11.25 28.7 10.1 28.7 L3.7 28.55 3.45 28.55 2.4 27.95 Q1.8 27.35 1.85 26.15 L2.5 12.9 2.6 12.55 2.7 12.4 2.9 12.25 2.6 12.0 2.5 11.55 2.8 6.0 Q2.8 5.65 2.95 5.45 L3.4 5.3 3.65 5.2 3.8 2.05 4.0 1.7 4.45 1.45 11.4 0.45 11.85 0.55 12.1 0.8 12.1 1.25 11.95 4.3 11.85 4.75 11.55 4.9 Q11.45 5.0 11.3 5.05 L11.3 5.2 11.25 10.6 11.5 10.6 11.65 10.5 13.0 9.6 14.45 7.55 14.65 7.05 14.65 7.1 15.7 4.5 15.95 4.25 15.95 3.7 16.75 0.8 16.9 0.45 Q17.1 0.3 17.35 0.3 L17.75 0.4 23.65 0.55 24.05 0.75" fill="#000000" fill-rule="evenodd" stroke="none"/>
    <path d="M24.05 0.75 L23.65 0.55 17.75 0.4 17.35 0.3 Q17.1 0.3 16.9 0.45 L16.75 0.8 15.95 3.7 15.95 4.25 15.7 4.5 14.65 7.1 14.65 7.05 14.45 7.55 13.0 9.6 11.65 10.5 11.5 10.6 11.25 10.6 11.3 5.2 11.3 5.05 Q11.45 5.0 11.55 4.9 L11.85 4.75 11.95 4.3 12.1 1.25 12.1 0.8 11.85 0.55 11.4 0.45 4.45 1.45 4.0 1.7 3.8 2.05 3.65 5.2 3.4 5.3 2.95 5.45 Q2.8 5.65 2.8 6.0 L2.5 11.55 2.6 12.0 2.9 12.25 2.7 12.4 2.6 12.55 2.5 12.9 1.85 26.15 Q1.8 27.35 2.4 27.95 L3.45 28.55 3.7 28.55 10.1 28.7 Q11.25 28.7 11.75 27.95 12.1 27.45 12.1 26.15 L12.1 19.6 12.3 20.2 12.5 20.45 12.75 20.6 13.05 20.65 12.75 21.0 12.75 21.5 13.25 22.75 13.6 23.1 13.7 23.25 13.65 23.55 13.7 23.8 14.9 26.75 14.95 26.75 Q15.45 28.15 17.15 28.4 L22.85 28.65 23.0 28.65 Q24.75 28.75 25.2 27.25 25.5 26.15 24.95 23.8 L24.75 23.6 19.1 14.35 19.8 13.4 Q21.6 10.65 22.75 7.7 23.9 4.65 24.4 1.35 L24.3 1.0 24.05 0.75 Z" fill="none" stroke="#2b1309" stroke-linecap="round" stroke-linejoin="bevel" stroke-width="2.0"/>
    <path d="M19.2 12.95 Q21.0 10.3 22.1 7.35 23.3 4.4 23.65 1.25 L22.9 1.25 22.3 1.25 17.75 1.1 17.45 1.05 16.8 3.35 16.65 3.9 17.55 3.65 17.4 3.85 16.4 4.75 15.25 7.35 15.05 7.85 13.55 10.0 Q12.7 10.95 11.85 11.15 L11.55 11.2 10.85 11.2 10.55 11.1 10.55 11.0 10.65 5.15 9.75 5.3 9.6 5.3 9.05 5.4 11.25 4.25 11.45 1.15 11.35 1.15 4.55 2.15 4.35 4.6 4.3 5.25 5.0 5.6 4.3 5.75 4.1 5.8 3.55 5.95 3.3 10.35 3.25 11.6 4.45 11.8 4.0 12.25 3.2 12.9 2.6 25.9 2.6 26.25 Q2.55 26.95 2.95 27.4 L3.7 27.75 10.1 27.95 Q11.55 28.0 11.35 26.25 L11.4 18.7 12.3 18.1 12.75 19.35 13.0 19.85 14.9 20.3 14.95 20.3 14.95 20.35 13.5 21.2 13.75 21.95 13.95 22.5 14.95 22.5 14.35 23.55 15.25 25.8 15.5 26.45 Q16.0 27.5 17.25 27.6 L23.05 27.85 23.15 27.9 Q25.35 28.1 24.25 23.95 L18.2 14.2 19.2 12.95 M23.7 0.5 Q23.9 0.5 24.05 0.65 L24.35 0.95 24.4 1.3 Q23.95 4.6 22.8 7.65 21.65 10.65 19.75 13.35 L19.75 13.4 19.1 14.3 24.8 23.55 24.9 23.75 Q25.55 26.1 25.2 27.25 24.75 28.8 23.05 28.65 L22.9 28.6 17.25 28.3 17.2 28.3 Q15.5 28.15 14.9 26.75 L13.7 23.8 13.65 23.5 13.7 23.25 13.75 23.2 13.6 23.1 13.35 22.75 12.8 21.45 12.8 20.95 13.1 20.65 12.8 20.55 12.5 20.4 12.3 20.15 12.15 19.65 12.1 26.2 Q12.2 27.45 11.7 28.0 11.2 28.7 10.1 28.65 L3.7 28.5 3.5 28.5 2.45 27.9 Q1.8 27.3 1.85 26.2 L2.5 12.85 2.6 12.55 2.75 12.35 2.9 12.25 2.65 12.05 2.55 11.55 2.8 5.9 3.0 5.45 3.4 5.3 3.65 5.25 3.65 5.15 3.9 2.1 Q3.9 1.85 4.05 1.65 L4.5 1.45 11.35 0.45 11.8 0.5 12.1 0.8 12.2 1.2 12.0 4.35 11.85 4.7 11.6 4.95 11.3 5.05 11.3 5.2 11.25 10.55 11.45 10.55 11.65 10.5 11.7 10.5 13.05 9.55 14.45 7.5 14.4 7.5 14.65 7.0 14.65 7.05 15.75 4.5 16.0 4.15 16.0 3.7 16.75 0.8 17.0 0.5 17.35 0.3 17.75 0.35 17.85 0.4 23.7 0.5" fill="#7e2601" fill-rule="evenodd" stroke="none"/>
    <path d="M22.5 2.95 L22.9 1.25 23.65 1.25 Q23.3 4.4 22.1 7.35 21.0 10.3 19.2 12.95 L15.2 14.65 15.15 14.65 17.8 12.15 Q19.65 10.0 20.9 7.35 21.9 5.35 22.5 2.95 M16.8 3.35 L17.8 3.35 17.55 3.7 17.55 3.65 16.65 3.9 16.8 3.35 M11.35 1.15 L11.45 1.15 11.25 4.25 9.05 5.4 8.25 5.5 9.6 4.35 9.55 3.2 9.6 3.15 11.35 1.15 M9.6 5.3 L9.75 5.3 10.65 5.15 10.55 11.0 9.7 10.75 9.6 5.3 M5.25 5.25 L5.55 5.55 5.15 5.55 5.0 5.6 4.3 5.25 4.35 4.6 5.25 5.25 M4.35 10.8 L5.35 11.15 5.4 11.2 4.0 12.25 4.45 11.8 3.25 11.6 3.3 10.35 3.35 10.35 4.35 10.8" fill="#f9b700" fill-rule="evenodd" stroke="none"/>
    <path d="M22.5 2.95 Q21.9 5.35 20.9 7.35 19.65 10.0 17.8 12.15 L15.15 14.65 15.2 14.65 Q8.9 17.1 3.8 17.5 L4.15 12.75 6.05 10.7 5.35 11.15 4.35 10.8 5.15 5.8 5.85 5.65 6.1 5.75 6.0 5.65 5.85 5.65 5.55 5.55 5.25 5.25 5.55 3.6 9.6 3.15 9.55 3.2 9.6 4.35 8.25 5.5 9.05 5.4 9.6 5.3 9.7 10.75 10.55 11.0 10.55 11.1 10.85 11.2 11.55 11.2 11.85 11.15 13.55 10.8 14.8 9.6 18.15 3.75 19.7 3.1 22.5 2.95" fill="#ffd800" fill-rule="evenodd" stroke="none"/>
    <path d="M22.9 1.25 L22.5 2.95 19.7 3.1 18.15 3.75 14.8 9.6 13.55 10.8 11.85 11.15 Q12.7 10.95 13.55 10.0 L15.05 7.85 15.25 7.35 16.4 4.75 17.4 3.85 17.55 3.65 17.55 3.7 17.8 3.35 16.8 3.35 17.45 1.05 17.75 1.1 22.3 1.25 22.9 1.25 M9.6 3.15 L5.55 3.6 5.25 5.25 4.35 4.6 4.55 2.15 11.35 1.15 9.6 3.15 M5.55 5.55 L5.85 5.65 6.0 5.65 6.1 5.75 5.85 5.65 5.15 5.8 4.35 10.8 3.35 10.35 3.3 10.35 3.55 5.95 4.1 5.8 4.3 5.75 5.0 5.6 5.15 5.55 5.55 5.55 M5.35 11.15 L6.05 10.7 4.15 12.75 3.8 17.5 3.05 26.2 2.65 25.9 2.6 25.9 3.2 12.9 4.0 12.25 5.4 11.2 5.35 11.15 M16.55 25.35 L15.25 25.8 14.35 23.55 14.95 22.5 15.15 22.05 14.85 23.1 15.55 25.0 16.55 25.35 M10.75 18.35 L12.8 17.7 13.55 19.55 12.75 19.35 12.3 18.1 10.75 18.35 M15.3 20.05 L14.1 21.15 14.45 22.0 13.75 21.95 13.5 21.2 14.95 20.35 14.95 20.3 15.3 20.05" fill="#feeba3" fill-rule="evenodd" stroke="none"/>
    <path d="M3.8 17.5 Q8.9 17.1 15.2 14.65 16.3 15.05 17.8 17.45 L20.05 21.65 Q20.65 22.65 20.25 24.25 L17.8 25.0 16.55 25.35 15.55 25.0 14.85 23.1 15.15 22.05 14.45 22.0 14.1 21.15 15.3 20.05 13.55 19.55 12.8 17.7 10.75 18.35 9.8 18.5 9.95 26.55 4.35 27.3 3.05 26.2 3.8 17.5" fill="url(#gradient0)" fill-rule="evenodd" stroke="none"/>
    <path d="M15.2 14.65 L19.2 12.95 18.2 14.2 24.25 23.95 Q25.35 28.1 23.15 27.9 L23.05 27.85 17.25 27.6 Q16.0 27.5 15.5 26.45 L15.25 25.8 16.55 25.35 17.8 25.0 20.25 24.25 Q20.65 22.65 20.05 21.65 L17.8 17.45 Q16.3 15.05 15.2 14.65 M10.75 18.35 L12.3 18.1 11.4 18.7 11.35 26.25 Q11.55 28.0 10.1 27.95 L3.7 27.75 2.95 27.4 Q2.55 26.95 2.6 26.25 L2.6 25.9 2.65 25.9 3.05 26.2 4.35 27.3 9.95 26.55 9.8 18.5 10.75 18.35 M12.75 19.35 L13.55 19.55 15.3 20.05 14.95 20.3 14.9 20.3 13.0 19.85 12.75 19.35 M14.45 22.0 L15.15 22.05 14.95 22.5 13.95 22.5 13.75 21.95 14.45 22.0" fill="url(#gradient1)" fill-rule="evenodd" stroke="none"/>
  </g>
  <defs>
    <linearGradient gradientTransform="matrix(-0.0025, -0.0168, 0.0107, -0.0016, 11.1, 17.5)" gradientUnits="userSpaceOnUse" id="gradient0" spreadMethod="pad" x1="-819.2" x2="819.2">
      <stop offset="0.0" stop-color="#ffd800"/>
      <stop offset="1.0" stop-color="#f59900"/>
    </linearGradient>
    <linearGradient gradientTransform="matrix(-0.0057, -0.0144, 0.0051, -0.002, 15.8, 14.8)" gradientUnits="userSpaceOnUse" id="gradient1" spreadMethod="pad" x1="-819.2" x2="819.2">
      <stop offset="0.0" stop-color="#f59900"/>
      <stop offset="1.0" stop-color="#f9b700"/>
    </linearGradient>
  </defs>
</svg>
