<?xml version="1.0" encoding="UTF-8" standalone="no"?>
<svg xmlns:ffdec="https://www.free-decompiler.com/flash" xmlns:xlink="http://www.w3.org/1999/xlink" ffdec:objectType="shape" height="12.25px" width="14.2px" xmlns="http://www.w3.org/2000/svg">
  <g transform="matrix(1.0, 0.0, 0.0, 1.0, -3.5, -0.75)">
    <path d="M11.3 3.35 L11.7 5.05 Q9.25 5.55 9.2 7.1 9.2 8.25 10.6 8.3 L10.6 6.9 12.3 6.9 12.3 9.55 8.75 9.4 Q6.65 8.45 7.35 6.3 8.4 3.9 11.3 3.35 M15.6 5.4 L16.1 5.2 16.5 6.65 15.8 6.8 Q15.8 8.85 14.15 10.35 12.5 11.8 10.15 11.8 8.35 11.8 6.9 10.9 L6.15 10.35 Q4.5 8.85 4.5 6.8 4.5 4.7 6.15 3.25 L6.9 2.7 Q7.6 2.25 8.4 2.05 L10.15 1.8 Q12.3 1.8 13.85 3.0 L14.45 2.25 15.55 3.4 14.9 4.05 15.6 5.4 M14.55 5.8 L14.05 4.8 13.45 5.35 12.65 4.5 13.15 3.9 Q11.9 2.85 10.2 2.85 L8.4 3.2 Q7.65 3.45 7.0 4.0 L6.9 4.1 Q5.7 5.25 5.7 6.8 5.7 8.4 6.9 9.5 L7.0 9.6 Q8.35 10.75 10.2 10.75 12.05 10.75 13.35 9.6 14.6 8.5 14.65 7.0 L14.05 7.15 13.8 6.1 14.55 5.8" fill="#2b1509" fill-rule="evenodd" stroke="none"/>
    <path d="M15.6 5.4 L14.9 4.05 15.55 3.4 14.45 2.25 13.85 3.0 Q12.3 1.8 10.15 1.8 L8.4 2.05 Q7.6 2.25 6.9 2.7 L6.15 3.25 Q4.5 4.7 4.5 6.8 4.5 8.85 6.15 10.35 L6.9 10.9 Q8.35 11.8 10.15 11.8 12.5 11.8 14.15 10.35 15.8 8.85 15.8 6.8 L16.5 6.65 16.1 5.2 15.6 5.4 M11.3 3.35 Q8.4 3.9 7.35 6.3 6.65 8.45 8.75 9.4 L12.3 9.55 12.3 6.9 10.6 6.9 10.6 8.3 Q9.2 8.25 9.2 7.1 9.25 5.55 11.7 5.05 L11.3 3.35 M14.55 5.8 L14.05 4.8 13.45 5.35 12.65 4.5 13.15 3.9 Q11.9 2.85 10.2 2.85 L8.4 3.2 Q7.65 3.45 7.0 4.0 L6.9 4.1 Q5.7 5.25 5.7 6.8 5.7 8.4 6.9 9.5 L7.0 9.6 Q8.35 10.75 10.2 10.75 12.05 10.75 13.35 9.6 14.6 8.5 14.65 7.0 L14.05 7.15 13.8 6.1 14.55 5.8 Z" fill="none" stroke="#2b1509" stroke-linecap="butt" stroke-linejoin="miter-clip" stroke-miterlimit="3.0" stroke-width="2.0"/>
    <path d="M15.6 5.4 L16.1 5.2 16.5 6.65 15.8 6.8 Q15.8 8.85 14.15 10.35 12.5 11.8 10.15 11.8 7.85 11.8 6.15 10.35 4.5 8.85 4.5 6.8 4.5 4.7 6.15 3.25 7.2 2.4 8.4 2.05 L10.15 1.8 Q12.3 1.8 13.85 3.0 L14.45 2.25 15.55 3.4 14.9 4.05 15.6 5.4 M11.3 3.35 L11.7 5.05 Q9.25 5.55 9.2 7.1 9.2 8.25 10.6 8.3 L10.6 6.9 12.3 6.9 12.3 9.55 8.75 9.4 Q6.65 8.45 7.35 6.3 8.4 3.9 11.3 3.35 M14.55 5.8 L14.05 4.8 13.45 5.35 12.65 4.5 13.15 3.9 Q11.9 2.85 10.2 2.85 L8.4 3.2 Q7.65 3.45 7.0 4.0 5.7 5.15 5.7 6.8 5.7 8.45 7.0 9.6 8.35 10.75 10.2 10.75 12.05 10.75 13.35 9.6 14.6 8.5 14.65 7.0 L14.05 7.15 13.8 6.1 14.55 5.8" fill="#54bcbc" fill-rule="evenodd" stroke="none"/>
    <path d="M11.3 3.35 Q8.4 3.9 7.35 6.3 6.65 8.45 8.75 9.4 L12.3 9.55 12.3 6.9 10.6 6.9 10.6 8.3 Q9.2 8.25 9.2 7.1 9.25 5.55 11.7 5.05 L11.3 3.35 M14.55 5.8 L13.8 6.1 14.05 7.15 14.65 7.0 Q14.6 8.5 13.35 9.6 12.05 10.75 10.2 10.75 8.35 10.75 7.0 9.6 5.7 8.45 5.7 6.8 5.7 5.15 7.0 4.0 7.65 3.45 8.4 3.2 L10.2 2.85 Q11.9 2.85 13.15 3.9 L12.65 4.5 13.45 5.35 14.05 4.8 14.55 5.8" fill="#1d3638" fill-rule="evenodd" stroke="none"/>
  </g>
</svg>
