<?xml version="1.0" encoding="UTF-8" standalone="no"?>
<svg xmlns:ffdec="https://www.free-decompiler.com/flash" xmlns:xlink="http://www.w3.org/1999/xlink" ffdec:objectType="shape" height="35.95px" width="25.4px" xmlns="http://www.w3.org/2000/svg">
  <g transform="matrix(1.0, 0.0, 0.0, 1.0, 1.7, 2.05)">
    <path d="M4.0 -0.05 Q5.0 -1.05 6.25 -1.05 7.95 -1.15 9.05 0.4 L9.9 1.8 10.2 3.65 10.2 4.0 14.15 4.6 14.25 4.25 Q14.4 2.9 15.2 1.9 16.25 0.7 17.55 0.55 L18.0 0.5 Q19.65 0.4 20.8 1.9 L21.15 2.45 21.6 3.45 Q21.95 4.15 21.95 5.15 L21.95 5.55 21.85 6.0 22.1 6.15 22.25 6.3 22.25 6.4 22.55 6.7 22.7 7.1 22.7 31.25 22.55 31.45 22.3 31.1 22.4 31.6 22.1 31.75 21.8 31.05 21.8 31.95 21.25 32.35 21.0 32.05 21.0 32.6 20.65 32.9 1.4 27.65 1.4 26.85 -0.05 26.35 0.1 26.2 0.25 26.0 -0.7 25.65 Q-0.05 25.45 0.25 24.85 1.05 24.05 1.25 22.55 L1.4 21.7 1.4 5.25 Q1.4 4.55 1.8 4.15 L1.9 4.1 2.05 4.1 2.4 3.9 2.4 3.65 Q2.4 1.75 3.5 0.4 L4.0 -0.05 M20.85 5.15 L20.65 3.8 20.0 2.5 19.5 1.95 Q18.85 1.45 18.0 1.45 L17.8 1.5 17.55 1.5 Q16.95 1.6 16.5 1.95 L15.7 2.9 Q15.2 3.75 15.2 4.75 L20.85 5.7 20.85 5.15 M9.1 3.8 L9.1 3.5 8.95 2.3 8.3 1.0 Q7.5 0.0 6.25 -0.05 5.15 -0.05 4.3 1.0 L4.0 1.45 Q3.5 2.2 3.45 3.2 L3.6 3.15 3.75 3.05 4.35 3.05 9.1 3.8" fill="#000000" fill-rule="evenodd" stroke="none"/>
    <path d="M4.0 -0.05 L3.5 0.4 Q2.4 1.75 2.4 3.65 L2.4 3.9 2.05 4.1 1.9 4.1 1.8 4.15 Q1.4 4.55 1.4 5.25 L1.4 21.7 1.25 22.55 Q1.05 24.05 0.25 24.85 -0.05 25.45 -0.7 25.65 L0.25 26.0 0.1 26.2 -0.05 26.35 1.4 26.85 1.4 27.65 20.65 32.9 21.0 32.6 21.0 32.05 21.25 32.35 21.8 31.95 21.8 31.05 22.1 31.75 22.4 31.6 22.3 31.1 22.55 31.45 22.7 31.25 22.7 7.1 22.55 6.7 22.25 6.4 22.25 6.3 22.1 6.15 21.85 6.0 21.95 5.55 21.95 5.15 Q21.95 4.15 21.6 3.45 L21.15 2.45 20.8 1.9 Q19.65 0.4 18.0 0.5 L17.55 0.55 Q16.25 0.7 15.2 1.9 14.4 2.9 14.25 4.25 L14.15 4.6 10.2 4.0 10.2 3.65 9.9 1.8 9.05 0.4 Q7.95 -1.15 6.25 -1.05 5.0 -1.05 4.0 -0.05 M20.85 5.15 L20.65 3.8 20.0 2.5 19.5 1.95 Q18.85 1.45 18.0 1.45 L17.8 1.5 17.55 1.5 Q16.95 1.6 16.5 1.95 L15.7 2.9 Q15.2 3.75 15.2 4.75 L20.85 5.7 20.85 5.15 M9.1 3.8 L4.35 3.05 3.75 3.05 3.6 3.15 3.45 3.2 Q3.5 2.2 4.0 1.45 L4.3 1.0 Q5.15 -0.05 6.25 -0.05 7.5 0.0 8.3 1.0 L8.95 2.3 9.1 3.5 9.1 3.8 Z" fill="none" stroke="#2b1309" stroke-linecap="round" stroke-linejoin="bevel" stroke-width="2.0"/>
    <path d="M2.45 3.9 L2.45 3.7 Q2.45 1.8 3.55 0.45 L4.0 -0.05 Q5.0 -1.0 6.3 -1.0 7.95 -1.1 9.1 0.45 L9.95 1.85 9.3 0.95 Q8.1 -0.55 6.5 -0.55 5.15 -0.55 4.0 0.65 L3.7 0.95 Q2.65 2.3 2.65 4.2 L2.65 4.65 2.95 6.05 Q2.5 5.2 2.45 4.15 L2.45 3.9 M14.15 4.65 L14.25 4.3 Q14.4 2.95 15.25 1.95 16.3 0.75 17.6 0.6 L18.05 0.5 Q19.7 0.45 20.85 1.95 L20.9 2.0 21.65 3.45 21.05 2.45 20.7 2.0 Q19.6 0.95 18.25 1.05 L17.6 1.1 Q16.6 1.25 15.85 2.0 L15.45 2.45 Q14.75 3.25 14.55 4.35 L14.4 5.1 14.4 6.5 14.6 7.45 14.25 6.2 14.15 6.05 14.15 4.65 M0.25 26.0 L-0.65 25.7 Q-0.05 25.5 0.3 24.9 1.05 24.05 1.3 22.6 L1.35 22.1 1.45 21.8 1.45 12.85 21.05 16.55 21.05 25.5 21.0 25.4 20.75 26.9 Q20.4 29.4 18.8 31.3 L0.25 26.0 M10.55 12.1 L10.9 12.0 11.3 12.1 11.2 11.85 10.9 11.7 10.7 11.7 Q10.45 11.7 10.45 11.8 L10.4 11.7 10.4 11.35 11.05 11.35 11.65 11.65 11.8 12.15 11.8 13.35 11.3 13.35 11.3 13.15 11.2 13.2 11.05 13.3 10.75 13.3 10.4 13.05 10.25 12.6 10.3 12.25 10.55 12.1 M13.05 12.25 L12.9 12.3 12.9 13.6 12.35 13.5 12.35 11.65 12.9 11.7 12.9 11.95 13.05 11.85 13.1 11.8 13.4 11.8 13.55 11.85 13.85 12.0 14.0 12.6 14.0 13.85 13.5 13.75 13.5 12.85 13.4 12.6 13.4 12.4 13.35 12.3 13.2 12.25 13.05 12.25 M14.75 12.1 L15.1 12.1 15.4 12.15 15.55 12.3 15.6 12.25 16.15 12.4 16.15 14.0 16.05 14.45 15.85 14.75 15.55 14.8 15.15 14.8 14.6 14.6 14.6 14.15 14.85 14.2 15.1 14.35 15.3 14.35 15.45 14.3 15.55 14.15 15.55 13.9 15.4 14.0 15.1 14.0 14.6 13.7 14.4 12.9 14.45 12.55 14.6 12.25 14.75 12.1 M4.5 10.25 L4.5 10.7 4.4 10.7 4.1 10.5 3.85 10.4 3.65 10.4 3.55 10.5 3.55 10.65 3.8 10.7 3.95 10.8 4.1 10.85 4.4 11.2 4.5 11.25 4.55 11.4 4.35 11.85 3.7 11.95 3.25 11.8 2.95 11.65 2.95 11.2 3.05 11.25 3.1 11.35 3.25 11.35 3.5 11.5 3.7 11.55 3.85 11.55 3.95 11.4 3.95 11.35 3.8 11.25 3.65 11.25 3.5 11.2 3.1 10.85 3.05 10.5 3.25 10.05 3.85 9.95 4.5 10.25 M4.8 11.2 Q4.8 10.7 5.0 10.5 5.3 10.25 5.7 10.35 6.05 10.4 6.3 10.7 L6.5 11.25 6.5 11.55 5.3 11.35 5.45 11.7 5.85 11.95 6.15 11.95 6.35 11.8 6.45 11.85 6.45 12.3 6.15 12.4 5.0 11.95 4.8 11.25 4.8 11.2 M7.45 10.7 L7.45 10.95 7.65 10.8 7.95 10.8 Q8.25 10.85 8.4 11.2 L8.5 11.25 8.65 11.85 8.55 12.25 8.35 12.55 8.1 12.7 7.8 12.75 7.6 12.7 7.45 12.55 7.45 13.3 6.9 13.2 6.9 10.65 7.45 10.7 M5.45 10.8 Q5.3 10.85 5.3 11.05 L5.9 11.2 5.85 10.85 Q5.85 10.7 5.6 10.7 5.45 10.7 5.45 10.8 M7.45 11.25 L7.45 12.15 7.5 12.25 7.6 12.25 7.95 12.15 8.05 11.8 7.95 11.35 7.9 11.25 7.65 11.2 7.5 11.2 7.45 11.25 M9.45 10.55 L9.45 11.2 10.0 11.25 10.0 11.65 9.45 11.5 9.45 12.4 9.55 12.55 9.65 12.6 9.8 12.7 10.0 12.7 10.0 13.05 9.85 13.15 9.65 13.05 9.1 12.85 9.0 12.3 9.0 11.4 8.8 11.35 8.8 11.05 9.0 11.05 9.0 10.5 9.45 10.55 M6.0 16.0 L5.25 15.95 4.55 16.0 3.55 16.25 3.55 18.3 3.7 18.3 Q4.1 18.0 4.65 17.85 L5.55 17.75 Q6.2 17.9 6.6 18.3 7.0 18.65 7.0 19.35 L6.65 20.4 5.7 21.45 3.35 23.3 3.35 24.8 9.45 26.4 9.45 24.5 5.85 23.65 7.45 22.45 8.7 21.0 9.0 19.35 Q9.0 18.0 8.25 17.1 7.45 16.25 6.0 16.0 M18.2 14.0 L18.2 14.5 17.8 14.6 17.5 14.6 16.75 14.15 Q16.45 13.85 16.45 13.35 L16.65 12.7 Q16.95 12.45 17.4 12.55 17.8 12.6 18.05 12.9 L18.25 13.5 18.25 13.75 16.95 13.5 17.1 13.9 17.6 14.15 17.8 14.15 18.2 14.0 M16.95 13.2 L17.75 13.35 17.65 13.05 17.35 12.9 17.1 12.9 16.95 13.2 M15.55 13.5 L15.55 12.7 15.45 12.6 15.3 12.6 15.0 12.7 14.95 13.05 15.0 13.35 15.25 13.6 15.4 13.6 15.55 13.5 M11.15 12.9 L11.3 12.85 11.3 12.45 10.85 12.45 10.75 12.7 10.75 12.75 10.9 12.9 11.15 12.9 M12.45 18.45 L11.6 18.35 11.6 19.95 13.5 20.35 13.5 25.7 11.6 25.2 11.6 26.9 17.95 28.6 17.95 26.7 15.85 26.15 15.85 17.6 13.7 17.3 13.55 18.0 13.05 18.35 12.45 18.45" fill="#ececec" fill-rule="evenodd" stroke="none"/>
    <path d="M9.95 1.85 L10.25 3.7 9.15 3.55 8.95 2.3 8.35 1.05 Q7.5 0.05 6.3 -0.05 5.15 -0.05 4.35 1.05 L4.0 1.5 Q3.55 2.25 3.5 3.25 L3.5 4.3 3.85 5.5 3.85 5.6 4.0 5.9 4.25 6.2 4.35 6.35 4.7 6.7 4.0 7.45 3.55 7.0 3.25 6.55 2.95 6.05 2.65 4.65 2.65 4.2 Q2.65 2.3 3.7 0.95 L4.0 0.65 Q5.15 -0.55 6.5 -0.55 8.1 -0.55 9.3 0.95 L9.95 1.85 M21.65 3.45 L21.95 5.2 21.95 5.6 21.8 5.5 20.9 5.35 20.9 5.2 20.7 3.85 20.0 2.55 19.55 2.0 Q18.85 1.5 18.05 1.5 L17.6 1.55 Q16.95 1.65 16.5 2.0 L15.75 2.95 Q15.25 3.75 15.25 4.8 L15.15 5.2 15.3 6.2 15.6 7.15 15.75 7.45 16.3 8.15 Q16.9 8.7 17.6 8.85 L17.25 9.8 16.2 9.35 15.75 9.05 15.25 8.55 14.6 7.45 14.4 6.5 14.4 5.1 14.55 4.35 Q14.75 3.25 15.45 2.45 L15.85 2.0 Q16.6 1.25 17.6 1.1 L18.25 1.05 Q19.6 0.95 20.7 2.0 L21.05 2.45 21.65 3.45 M22.7 15.65 L22.7 31.3 22.55 31.45 22.35 31.15 22.4 31.6 22.1 31.75 21.8 31.1 21.8 32.0 21.3 32.4 21.05 32.05 21.05 32.6 20.7 32.9 20.7 30.55 20.7 29.35 21.05 25.5 21.05 16.55 22.7 15.65" fill="#555555" fill-rule="evenodd" stroke="none"/>
    <path d="M10.25 3.7 L10.25 4.0 9.15 3.85 9.15 3.55 10.25 3.7 M21.95 5.6 L21.9 6.05 21.45 5.9 21.3 5.8 21.05 5.75 20.9 5.75 20.9 5.35 21.8 5.5 21.95 5.6 M17.25 9.8 L17.6 8.85 18.05 8.9 18.25 8.9 18.25 9.45 18.05 9.9 17.25 9.8 M5.15 7.0 L5.0 7.3 4.95 7.55 4.85 7.6 4.5 7.85 4.0 7.45 4.7 6.7 5.15 7.0" fill="#808080" fill-rule="evenodd" stroke="none"/>
    <path d="M10.25 4.0 L14.15 4.65 14.15 6.05 3.55 4.2 3.55 4.3 3.5 4.3 3.5 3.25 Q3.55 3.15 3.65 3.15 L3.8 3.1 4.4 3.1 9.15 3.85 10.25 4.0 M21.9 6.05 L22.1 6.2 22.25 6.35 20.55 7.3 20.45 7.3 20.4 7.25 19.85 6.85 15.3 6.2 15.15 5.2 15.25 4.8 20.9 5.75 21.05 5.75 21.3 5.8 21.45 5.9 21.9 6.05 M22.55 6.7 L22.65 6.95 22.7 7.15 22.7 7.4 21.0 8.25 20.85 7.75 20.85 7.7 22.55 6.7 M2.05 4.15 L2.45 3.9 2.45 4.15 2.05 4.15" fill="#df898b" fill-rule="evenodd" stroke="none"/>
    <path d="M22.25 6.35 L22.25 6.4 22.55 6.7 20.85 7.7 20.55 7.3 22.25 6.35 M22.7 7.4 L22.7 15.65 21.05 16.55 21.05 8.55 21.0 8.25 22.7 7.4 M16.2 9.35 L17.25 9.8 18.05 9.9 18.05 10.05 17.8 10.2 17.65 10.35 17.2 10.5 16.65 10.35 16.3 9.8 16.2 9.45 16.2 9.35 M17.6 8.85 Q16.9 8.7 16.3 8.15 L16.35 8.05 16.3 8.0 16.45 7.75 17.05 7.4 17.2 7.4 Q17.75 7.4 18.05 7.75 L18.25 8.55 18.25 8.9 18.05 8.9 17.6 8.85 M3.85 5.5 L4.0 5.5 4.2 5.4 4.85 5.8 5.1 6.2 5.15 6.65 5.15 7.0 4.7 6.7 4.35 6.35 4.25 6.2 4.0 5.9 3.85 5.6 3.85 5.5 M4.5 7.85 L4.2 7.9 Q3.8 7.9 3.55 7.6 3.25 7.3 3.25 6.85 L3.25 6.55 3.55 7.0 4.0 7.45 4.5 7.85" fill="#530506" fill-rule="evenodd" stroke="none"/>
    <path d="M1.45 12.85 L1.45 5.25 Q1.45 4.6 1.85 4.2 L1.9 4.15 2.05 4.15 2.45 4.15 Q2.5 5.2 2.95 6.05 L3.25 6.55 3.25 6.85 Q3.25 7.3 3.55 7.6 3.8 7.9 4.2 7.9 L4.5 7.85 4.85 7.6 4.95 7.55 5.0 7.3 5.15 7.0 5.15 6.65 5.1 6.2 4.85 5.8 4.2 5.4 4.0 5.5 3.85 5.5 3.5 4.3 3.55 4.3 3.55 4.2 14.15 6.05 14.25 6.2 14.6 7.45 15.25 8.55 15.75 9.05 16.2 9.35 16.2 9.45 16.3 9.8 16.65 10.35 17.2 10.5 17.65 10.35 17.8 10.2 18.05 10.05 18.05 9.9 18.25 9.45 18.25 8.9 18.25 8.55 18.05 7.75 Q17.75 7.4 17.2 7.4 L17.05 7.4 16.45 7.75 16.3 8.0 16.35 8.05 16.3 8.15 15.75 7.45 15.6 7.15 15.3 6.2 19.85 6.85 20.4 7.25 20.45 7.3 20.55 7.3 20.85 7.7 20.85 7.75 21.0 8.25 21.05 8.55 21.05 16.55 1.45 12.85 M14.75 12.1 L14.6 12.25 14.45 12.55 14.4 12.9 14.6 13.7 15.1 14.0 15.4 14.0 15.55 13.9 15.55 14.15 15.45 14.3 15.3 14.35 15.1 14.35 14.85 14.2 14.6 14.15 14.6 14.6 15.15 14.8 15.55 14.8 15.85 14.75 16.05 14.45 16.15 14.0 16.15 12.4 15.6 12.25 15.55 12.3 15.4 12.15 15.1 12.1 14.75 12.1 M13.05 12.25 L13.2 12.25 13.35 12.3 13.4 12.4 13.4 12.6 13.5 12.85 13.5 13.75 14.0 13.85 14.0 12.6 13.85 12.0 13.55 11.85 13.4 11.8 13.1 11.8 13.05 11.85 12.9 11.95 12.9 11.7 12.35 11.65 12.35 13.5 12.9 13.6 12.9 12.3 13.05 12.25 M10.55 12.1 L10.3 12.25 10.25 12.6 10.4 13.05 10.75 13.3 11.05 13.3 11.2 13.2 11.3 13.15 11.3 13.35 11.8 13.35 11.8 12.15 11.65 11.65 11.05 11.35 10.4 11.35 10.4 11.7 10.45 11.8 Q10.45 11.7 10.7 11.7 L10.9 11.7 11.2 11.85 11.3 12.1 10.9 12.0 10.55 12.1 M9.45 10.55 L9.0 10.5 9.0 11.05 8.8 11.05 8.8 11.35 9.0 11.4 9.0 12.3 9.1 12.85 9.65 13.05 9.85 13.15 10.0 13.05 10.0 12.7 9.8 12.7 9.65 12.6 9.55 12.55 9.45 12.4 9.45 11.5 10.0 11.65 10.0 11.25 9.45 11.2 9.45 10.55 M7.45 11.25 L7.5 11.2 7.65 11.2 7.9 11.25 7.95 11.35 8.05 11.8 7.95 12.15 7.6 12.25 7.5 12.25 7.45 12.15 7.45 11.25 M5.45 10.8 Q5.45 10.7 5.6 10.7 5.85 10.7 5.85 10.85 L5.9 11.2 5.3 11.05 Q5.3 10.85 5.45 10.8 M7.45 10.7 L6.9 10.65 6.9 13.2 7.45 13.3 7.45 12.55 7.6 12.7 7.8 12.75 8.1 12.7 8.35 12.55 8.55 12.25 8.65 11.85 8.5 11.25 8.4 11.2 Q8.25 10.85 7.95 10.8 L7.65 10.8 7.45 10.95 7.45 10.7 M4.8 11.2 L4.8 11.25 5.0 11.95 6.15 12.4 6.45 12.3 6.45 11.85 6.35 11.8 6.15 11.95 5.85 11.95 5.45 11.7 5.3 11.35 6.5 11.55 6.5 11.25 6.3 10.7 Q6.05 10.4 5.7 10.35 5.3 10.25 5.0 10.5 4.8 10.7 4.8 11.2 M4.5 10.25 L3.85 9.95 3.25 10.05 3.05 10.5 3.1 10.85 3.5 11.2 3.65 11.25 3.8 11.25 3.95 11.35 3.95 11.4 3.85 11.55 3.7 11.55 3.5 11.5 3.25 11.35 3.1 11.35 3.05 11.25 2.95 11.2 2.95 11.65 3.25 11.8 3.7 11.95 4.35 11.85 4.55 11.4 4.5 11.25 4.4 11.2 4.1 10.85 3.95 10.8 3.8 10.7 3.55 10.65 3.55 10.5 3.65 10.4 3.85 10.4 4.1 10.5 4.4 10.7 4.5 10.7 4.5 10.25 M11.15 12.9 L10.9 12.9 10.75 12.75 10.75 12.7 10.85 12.45 11.3 12.45 11.3 12.85 11.15 12.9 M15.55 13.5 L15.4 13.6 15.25 13.6 15.0 13.35 14.95 13.05 15.0 12.7 15.3 12.6 15.45 12.6 15.55 12.7 15.55 13.5 M16.95 13.2 L17.1 12.9 17.35 12.9 17.65 13.05 17.75 13.35 16.95 13.2 M18.2 14.0 L17.8 14.15 17.6 14.15 17.1 13.9 16.95 13.5 18.25 13.75 18.25 13.5 18.05 12.9 Q17.8 12.6 17.4 12.55 16.95 12.45 16.65 12.7 L16.45 13.35 Q16.45 13.85 16.75 14.15 L17.5 14.6 17.8 14.6 18.2 14.5 18.2 14.0" fill="#ca3e40" fill-rule="evenodd" stroke="none"/>
    <path d="M6.0 16.0 Q7.45 16.25 8.25 17.1 9.0 18.0 9.0 19.35 L8.7 21.0 7.45 22.45 5.85 23.65 9.45 24.5 9.45 26.4 3.35 24.8 3.35 23.3 5.7 21.45 6.65 20.4 7.0 19.35 Q7.0 18.65 6.6 18.3 6.2 17.9 5.55 17.75 L4.65 17.85 Q4.1 18.0 3.7 18.3 L3.55 18.3 3.55 16.25 4.55 16.0 5.25 15.95 6.0 16.0 M12.45 18.45 L13.05 18.35 13.55 18.0 13.7 17.3 15.85 17.6 15.85 26.15 17.95 26.7 17.95 28.6 11.6 26.9 11.6 25.2 13.5 25.7 13.5 20.35 11.6 19.95 11.6 18.35 12.45 18.45" fill="#3c3c3c" fill-rule="evenodd" stroke="none"/>
    <path d="M20.7 32.9 L1.45 27.7 1.45 27.25 20.05 32.45 20.7 30.55 20.7 32.9 M1.45 26.85 L-0.05 26.4 0.1 26.25 19.3 31.7 Q20.85 29.65 21.0 25.4 L21.05 25.5 20.7 29.35 Q20.3 31.0 19.7 32.05 L1.45 26.85" fill="#d5d5d5" fill-rule="evenodd" stroke="none"/>
    <path d="M1.45 27.25 L1.45 26.85 19.7 32.05 Q20.3 31.0 20.7 29.35 L20.7 30.55 20.05 32.45 1.45 27.25 M0.1 26.25 L0.25 26.0 18.8 31.3 Q20.4 29.4 20.75 26.9 L21.0 25.4 Q20.85 29.65 19.3 31.7 L0.1 26.25" fill="#888888" fill-rule="evenodd" stroke="none"/>
  </g>
</svg>
