<?xml version="1.0" encoding="UTF-8" standalone="no"?>
<svg xmlns:ffdec="https://www.free-decompiler.com/flash" xmlns:xlink="http://www.w3.org/1999/xlink" ffdec:objectType="shape" height="113.15px" width="133.85px" xmlns="http://www.w3.org/2000/svg">
  <g transform="matrix(1.0, 0.0, 0.0, 1.0, 7.95, -35.65)">
    <path d="M19.4 138.3 Q3.6 129.2 4.35 117.55 4.6 113.15 7.15 109.4 7.3 110.45 8.35 111.1 9.6 111.8 12.25 112.4 13.3 112.65 14.05 113.2 L23.05 103.95 90.05 106.95 107.05 113.25 Q107.7 112.9 108.5 112.7 L111.9 111.7 Q116.05 117.1 115.7 123.3 114.95 134.95 98.1 142.4 81.25 149.85 58.2 148.65 35.15 147.45 19.4 138.3" fill="url(#gradient0)" fill-rule="evenodd" stroke="none"/>
    <path d="M89.3 96.4 Q85.6 95.05 83.7 95.7 81.15 93.4 78.45 92.85 L74.5 91.85 72.3 91.9 71.45 91.6 65.7 91.15 Q64.6 90.25 62.6 90.7 60.5 91.1 59.55 89.8 L58.15 89.8 57.0 89.8 Q56.0 90.85 54.15 90.45 52.1 90.05 51.05 90.95 L45.25 91.35 44.45 91.7 42.25 91.6 38.25 92.6 Q35.6 93.15 33.05 95.45 31.1 94.8 27.4 96.2 27.1 96.45 27.45 97.15 27.75 97.85 27.4 98.6 27.0 99.3 25.25 99.5 L23.0 99.8 Q20.85 100.05 19.5 101.5 21.25 103.6 19.75 105.4 L18.25 106.95 Q17.8 107.45 17.85 108.0 17.8 109.05 18.75 109.6 19.7 110.15 21.75 110.6 23.75 111.0 24.25 113.0 L24.35 114.25 24.7 115.55 Q24.9 116.1 25.65 116.5 27.55 117.5 29.6 116.95 L31.25 117.15 Q33.15 117.95 34.25 119.8 34.5 120.35 35.05 120.7 37.2 121.9 39.65 121.6 L42.3 120.75 Q44.5 119.95 46.45 121.05 L48.25 122.4 Q49.9 123.8 52.3 123.85 L53.2 123.85 Q53.9 123.25 54.9 123.05 L56.3 122.65 57.7 122.7 58.25 122.6 60.5 122.4 61.85 122.8 Q63.15 123.1 63.95 123.95 L64.05 124.1 64.5 124.1 Q66.85 124.0 68.45 122.6 69.25 121.85 70.3 121.3 72.2 120.2 74.45 121.0 75.8 121.6 77.1 121.85 79.5 122.15 81.7 121.0 L82.5 120.1 Q83.55 118.2 85.5 117.35 L87.15 117.25 Q89.15 117.75 91.05 116.75 L92.05 115.75 92.35 114.45 92.5 113.25 Q93.0 111.25 95.0 110.85 97.0 110.4 98.0 109.85 98.9 109.3 98.9 108.25 98.9 107.7 98.45 107.2 L97.0 105.65 Q95.45 103.85 97.25 101.7 95.9 100.3 93.7 100.05 L91.5 99.75 Q89.75 99.55 89.35 98.85 88.95 98.05 89.25 97.4 89.6 96.7 89.3 96.4 M99.6 95.9 Q100.0 96.3 99.6 97.2 99.15 98.05 99.7 99.05 100.2 100.0 102.5 100.2 L105.4 100.65 106.05 100.75 Q108.45 101.2 110.05 102.8 107.65 105.6 109.65 107.95 L111.6 110.0 Q112.2 110.6 112.2 111.3 112.2 112.7 111.0 113.45 L110.45 113.7 107.05 114.75 106.05 115.05 Q104.3 115.8 103.8 117.9 L103.65 119.45 103.2 121.2 Q102.9 121.95 101.9 122.5 100.7 123.1 99.5 123.3 L96.8 123.15 95.85 123.05 94.65 123.3 Q92.1 124.35 90.7 126.85 L89.7 128.0 Q88.05 128.85 86.3 129.1 L83.65 129.1 80.2 128.05 77.4 127.6 Q76.0 127.7 74.75 128.45 73.4 129.1 72.35 130.1 70.65 131.6 68.25 131.95 L67.15 132.05 66.6 132.1 66.5 131.9 Q65.4 130.75 63.7 130.4 L61.9 129.9 60.3 129.9 59.0 130.1 58.6 130.15 58.3 130.25 56.8 130.15 56.45 130.2 54.65 130.7 Q53.35 131.0 52.4 131.7 L52.4 131.75 51.2 131.75 Q48.1 131.65 45.95 129.85 44.9 128.8 43.55 128.1 41.95 127.15 40.2 127.3 L38.15 127.75 34.75 128.8 34.7 128.8 Q31.5 129.2 28.65 127.65 L27.6 126.5 Q26.2 124.05 23.7 123.0 L22.2 122.7 21.6 122.8 20.8 122.95 Q18.55 123.25 16.4 122.15 L15.85 121.8 Q15.3 121.4 15.15 120.9 L14.7 119.15 Q14.45 118.2 14.55 117.6 13.85 114.95 11.25 114.4 8.6 113.8 7.35 113.1 6.3 112.45 6.15 111.4 L6.15 111.0 6.15 110.75 Q6.25 110.2 6.7 109.7 L8.65 107.65 Q10.65 105.3 8.35 102.5 10.1 100.65 12.95 100.3 L15.85 99.9 Q18.15 99.65 18.65 98.7 19.15 97.75 18.75 96.85 18.3 95.95 18.7 95.6 23.5 93.8 26.05 94.65 29.4 91.65 32.9 90.9 L38.05 89.6 40.95 89.7 42.05 89.25 49.6 88.7 Q51.0 87.55 53.7 88.1 56.1 88.55 57.35 87.2 L58.9 87.2 60.75 87.2 Q62.0 88.95 64.7 88.4 67.35 87.85 68.75 89.0 L76.3 89.6 77.4 90.0 80.25 89.95 85.45 91.25 Q88.95 91.95 92.25 94.95 94.8 94.1 99.6 95.9" fill="#473f38" fill-rule="evenodd" stroke="none"/>
    <path d="M89.3 96.4 Q89.6 96.7 89.25 97.4 88.95 98.05 89.35 98.85 89.75 99.55 91.5 99.75 L93.7 100.05 Q95.9 100.3 97.25 101.7 95.45 103.85 97.0 105.65 L98.45 107.2 Q98.9 107.7 98.9 108.25 98.9 109.3 98.0 109.85 97.0 110.4 95.0 110.85 93.0 111.25 92.5 113.25 L92.35 114.45 92.05 115.75 91.05 116.75 Q89.15 117.75 87.15 117.25 L85.5 117.35 Q83.55 118.2 82.5 120.1 L81.7 121.0 Q79.5 122.15 77.1 121.85 75.8 121.6 74.45 121.0 72.2 120.2 70.3 121.3 69.25 121.85 68.45 122.6 66.85 124.0 64.5 124.1 L64.05 124.1 63.95 123.95 Q63.15 123.1 61.85 122.8 L60.5 122.4 58.25 122.6 57.7 122.7 56.3 122.65 54.9 123.05 Q53.9 123.25 53.2 123.85 L52.3 123.85 Q49.9 123.8 48.25 122.4 L46.45 121.05 Q44.5 119.95 42.3 120.75 L39.65 121.6 Q37.2 121.9 35.05 120.7 34.5 120.35 34.25 119.8 33.15 117.95 31.25 117.15 L29.6 116.95 Q27.55 117.5 25.65 116.5 24.9 116.1 24.7 115.55 L24.35 114.25 24.25 113.0 Q23.75 111.0 21.75 110.6 19.7 110.15 18.75 109.6 17.8 109.05 17.85 108.0 17.8 107.45 18.25 106.95 L19.75 105.4 Q21.25 103.6 19.5 101.5 20.85 100.05 23.0 99.8 L25.25 99.5 Q27.0 99.3 27.4 98.6 27.75 97.85 27.45 97.15 27.1 96.45 27.4 96.2 31.1 94.8 33.05 95.45 35.6 93.15 38.25 92.6 L42.25 91.6 44.45 91.7 45.25 91.35 51.05 90.95 Q52.1 90.05 54.15 90.45 56.0 90.85 57.0 89.8 L58.15 89.8 59.55 89.8 Q60.5 91.1 62.6 90.7 64.6 90.25 65.7 91.15 L71.45 91.6 72.3 91.9 74.5 91.85 78.45 92.85 Q81.15 93.4 83.7 95.7 85.6 95.05 89.3 96.4 M82.2 97.3 L82.25 96.6 Q79.45 95.55 78.0 96.05 76.05 94.3 74.05 93.9 L71.05 93.15 69.4 93.2 68.8 92.95 64.45 92.6 Q63.65 91.95 62.1 92.25 60.55 92.55 59.8 91.6 L58.75 91.6 57.9 91.6 Q57.15 92.35 55.75 92.1 54.2 91.75 53.4 92.45 L49.05 92.75 48.45 93.0 46.8 92.95 43.8 93.7 Q41.75 94.15 39.85 95.85 38.4 95.35 35.65 96.4 35.4 96.6 35.65 97.15 L35.6 98.2 Q35.3 98.75 33.95 98.9 L32.3 99.1 Q30.65 99.3 29.65 100.4 31.0 102.0 29.85 103.35 L28.75 104.55 Q28.4 104.9 28.4 105.3 28.35 106.1 29.1 106.5 L31.35 107.25 Q32.85 107.6 33.25 109.1 L33.3 110.0 33.55 111.0 34.3 111.7 Q35.75 112.45 37.3 112.05 L38.5 112.2 Q39.95 112.8 40.75 114.2 L41.35 114.85 Q43.0 115.75 44.8 115.55 L46.8 114.9 Q48.5 114.25 49.95 115.1 L51.3 116.1 Q52.55 117.15 54.35 117.2 L55.0 117.2 Q55.55 116.8 56.3 116.6 L57.35 116.3 58.45 116.35 58.8 116.25 60.5 116.15 61.55 116.45 Q62.5 116.65 63.15 117.3 L63.2 117.4 63.55 117.4 Q65.3 117.35 66.55 116.3 L67.9 115.3 71.05 115.1 73.05 115.7 Q74.85 115.9 76.5 115.05 L77.1 114.4 Q77.9 112.95 79.35 112.35 L80.6 112.25 Q82.1 112.65 83.55 111.9 L84.3 111.15 84.55 110.15 84.6 109.25 Q85.0 107.75 86.5 107.45 L88.75 106.7 Q89.45 106.25 89.45 105.45 L89.1 104.7 88.0 103.55 Q86.85 102.15 88.2 100.55 87.15 99.5 85.55 99.3 L83.9 99.05 Q82.55 98.95 82.25 98.4 81.95 97.85 82.2 97.3" fill="#827564" fill-rule="evenodd" stroke="none"/>
    <path d="M82.2 97.3 Q81.95 97.85 82.25 98.4 82.55 98.95 83.9 99.05 L85.55 99.3 Q87.15 99.5 88.2 100.55 86.85 102.15 88.0 103.55 L89.1 104.7 89.45 105.45 Q89.45 106.25 88.75 106.7 L86.5 107.45 Q85.0 107.75 84.6 109.25 L84.55 110.15 84.3 111.15 83.55 111.9 Q82.1 112.65 80.6 112.25 L79.35 112.35 Q77.9 112.95 77.1 114.4 L76.5 115.05 Q74.85 115.9 73.05 115.7 L71.05 115.1 67.9 115.3 66.55 116.3 Q65.3 117.35 63.55 117.4 L63.2 117.4 63.15 117.3 Q62.5 116.65 61.55 116.45 L60.5 116.15 58.8 116.25 58.45 116.35 57.35 116.3 56.3 116.6 Q55.55 116.8 55.0 117.2 L54.35 117.2 Q52.55 117.15 51.3 116.1 L49.95 115.1 Q48.5 114.25 46.8 114.9 L44.8 115.55 Q43.0 115.75 41.35 114.85 L40.75 114.2 Q39.95 112.8 38.5 112.2 L37.3 112.05 Q35.75 112.45 34.3 111.7 L33.55 111.0 33.3 110.0 33.25 109.1 Q32.85 107.6 31.35 107.25 L29.1 106.5 Q28.35 106.1 28.4 105.3 28.4 104.9 28.75 104.55 L29.85 103.35 Q31.0 102.0 29.65 100.4 30.65 99.3 32.3 99.1 L33.95 98.9 Q35.3 98.75 35.6 98.2 L35.65 97.15 Q35.4 96.6 35.65 96.4 38.4 95.35 39.85 95.85 41.75 94.15 43.8 93.7 L46.8 92.95 48.45 93.0 49.05 92.75 53.4 92.45 Q54.2 91.75 55.75 92.1 57.15 92.35 57.9 91.6 L58.75 91.6 59.8 91.6 Q60.55 92.55 62.1 92.25 63.65 91.95 64.45 92.6 L68.8 92.95 69.4 93.2 71.05 93.15 74.05 93.9 Q76.05 94.3 78.0 96.05 79.45 95.55 82.25 96.6 L82.2 97.3 M60.25 93.25 L59.1 93.25 58.8 93.25 58.5 93.25 58.4 93.25 58.0 93.25 57.95 93.25 49.95 94.05 Q46.0 94.75 42.7 96.2 37.9 98.3 36.5 101.05 L36.45 101.15 Q35.95 102.2 35.95 103.4 35.9 107.55 42.7 110.5 L46.5 111.9 46.6 111.95 Q51.95 113.45 58.8 113.5 L59.1 113.5 61.15 113.45 62.65 113.4 67.2 112.9 71.35 112.0 75.5 110.5 Q82.3 107.55 82.3 103.4 82.3 102.15 81.7 101.05 80.3 98.3 75.5 96.2 69.45 93.55 61.9 93.3 L60.25 93.25" fill="#574f42" fill-rule="evenodd" stroke="none"/>
    <path d="M36.5 101.05 Q37.9 98.3 42.7 96.2 46.0 94.75 49.95 94.05 L57.95 93.25 58.0 93.25 58.4 93.25 58.5 93.25 58.8 93.25 59.1 93.25 60.25 93.25 59.1 97.4 59.1 97.5 49.25 101.0 36.5 101.05 M81.7 101.05 Q82.3 102.15 82.3 103.4 82.3 107.55 75.5 110.5 L71.35 112.0 64.2 106.15 68.65 101.0 68.7 101.0 81.7 101.05" fill="#a29780" fill-rule="evenodd" stroke="none"/>
    <path d="M36.5 101.05 L49.25 101.0 53.55 106.2 46.75 111.8 46.6 111.95 46.5 111.9 42.7 110.5 Q35.9 107.55 35.95 103.4 35.95 102.2 36.45 101.15 L36.5 101.05 M59.1 97.4 L60.25 93.25 61.9 93.3 Q69.45 93.55 75.5 96.2 80.3 98.3 81.7 101.05 L68.7 101.0 59.1 97.4" fill="#c8bda6" fill-rule="evenodd" stroke="none"/>
    <path d="M49.25 101.0 L59.1 97.5 59.1 97.4 68.7 101.0 68.65 101.0 64.2 106.15 64.2 106.2 58.8 106.2 53.55 106.2 49.25 101.0" fill="#e7ded3" fill-rule="evenodd" stroke="none"/>
    <path d="M71.35 112.0 L67.2 112.9 62.65 113.4 61.15 113.45 59.1 113.5 58.8 113.5 Q51.95 113.45 46.6 111.95 L46.75 111.8 53.55 106.2 58.8 106.2 64.2 106.2 64.2 106.15 71.35 112.0" fill="#d0c8b7" fill-rule="evenodd" stroke="none"/>
    <path d="M36.5 101.05 L49.25 101.0 59.1 97.5 59.1 97.4 60.25 93.25 M36.45 101.15 L36.5 101.05 M64.2 106.2 L64.2 106.15 68.65 101.0 68.7 101.0 59.1 97.4 M71.35 112.0 L64.2 106.15 M53.55 106.2 L58.8 106.2 M46.6 111.95 L46.75 111.8 53.55 106.2 49.25 101.0 M81.7 101.05 L68.7 101.0" ffdec:has-small-stroke="true" ffdec:original-stroke-width="0.25" fill="none" stroke="#000000" stroke-linecap="round" stroke-linejoin="bevel" stroke-opacity="0.21176471" stroke-width="1.0"/>
    <path d="M19.4 138.3 Q3.6 129.2 4.35 117.55 4.6 113.15 7.15 109.4 7.3 110.45 8.35 111.1 9.6 111.8 12.25 112.4 13.3 112.65 14.05 113.2 L23.05 103.95 90.05 106.95 107.05 113.25 Q107.7 112.9 108.5 112.7 L111.9 111.7 Q116.05 117.1 115.7 123.3 114.95 134.95 98.1 142.4 81.25 149.85 58.2 148.65 35.15 147.45 19.4 138.3" fill="url(#gradient1)" fill-rule="evenodd" stroke="none"/>
    <path d="M89.3 96.4 Q85.6 95.05 83.7 95.7 81.15 93.4 78.45 92.85 L74.5 91.85 72.3 91.9 71.45 91.6 65.7 91.15 Q64.6 90.25 62.6 90.7 60.5 91.1 59.55 89.8 L58.15 89.8 57.0 89.8 Q56.0 90.85 54.15 90.45 52.1 90.05 51.05 90.95 L45.25 91.35 44.45 91.7 42.25 91.6 38.25 92.6 Q35.6 93.15 33.05 95.45 31.1 94.8 27.4 96.2 27.1 96.45 27.45 97.15 27.75 97.85 27.4 98.6 27.0 99.3 25.25 99.5 L23.0 99.8 Q20.85 100.05 19.5 101.5 21.25 103.6 19.75 105.4 L18.25 106.95 Q17.8 107.45 17.85 108.0 17.8 109.05 18.75 109.6 19.7 110.15 21.75 110.6 23.75 111.0 24.25 113.0 L24.35 114.25 24.7 115.55 Q24.9 116.1 25.65 116.5 27.55 117.5 29.6 116.95 L31.25 117.15 Q33.15 117.95 34.25 119.8 34.5 120.35 35.05 120.7 37.2 121.9 39.65 121.6 L42.3 120.75 Q44.5 119.95 46.45 121.05 L48.25 122.4 Q49.9 123.8 52.3 123.85 L53.2 123.85 Q53.9 123.25 54.9 123.05 L56.3 122.65 57.7 122.7 58.25 122.6 60.5 122.4 61.85 122.8 Q63.15 123.1 63.95 123.95 L64.05 124.1 64.5 124.1 Q66.85 124.0 68.45 122.6 69.25 121.85 70.3 121.3 72.2 120.2 74.45 121.0 75.8 121.6 77.1 121.85 79.5 122.15 81.7 121.0 L82.5 120.1 Q83.55 118.2 85.5 117.35 L87.15 117.25 Q89.15 117.75 91.05 116.75 L92.05 115.75 92.35 114.45 92.5 113.25 Q93.0 111.25 95.0 110.85 97.0 110.4 98.0 109.85 98.9 109.3 98.9 108.25 98.9 107.7 98.45 107.2 L97.0 105.65 Q95.45 103.85 97.25 101.7 95.9 100.3 93.7 100.05 L91.5 99.75 Q89.75 99.55 89.35 98.85 88.95 98.05 89.25 97.4 89.6 96.7 89.3 96.4 M99.6 95.9 Q100.0 96.3 99.6 97.2 99.15 98.05 99.7 99.05 100.2 100.0 102.5 100.2 L105.4 100.65 106.05 100.75 Q108.45 101.2 110.05 102.8 107.65 105.6 109.65 107.95 L111.6 110.0 Q112.2 110.6 112.2 111.3 112.2 112.7 111.0 113.45 L110.45 113.7 107.05 114.75 106.05 115.05 Q104.3 115.8 103.8 117.9 L103.65 119.45 103.2 121.2 Q102.9 121.95 101.9 122.5 100.7 123.1 99.5 123.3 L96.8 123.15 95.85 123.05 94.65 123.3 Q92.1 124.35 90.7 126.85 L89.7 128.0 Q88.05 128.85 86.3 129.1 L83.65 129.1 80.2 128.05 77.4 127.6 Q76.0 127.7 74.75 128.45 73.4 129.1 72.35 130.1 70.65 131.6 68.25 131.95 L67.15 132.05 66.6 132.1 66.5 131.9 Q65.4 130.75 63.7 130.4 L61.9 129.9 60.3 129.9 59.0 130.1 58.6 130.15 58.3 130.25 56.8 130.15 56.45 130.2 54.65 130.7 Q53.35 131.0 52.4 131.7 L52.4 131.75 51.2 131.75 Q48.1 131.65 45.95 129.85 44.9 128.8 43.55 128.1 41.95 127.15 40.2 127.3 L38.15 127.75 34.75 128.8 34.7 128.8 Q31.5 129.2 28.65 127.65 L27.6 126.5 Q26.2 124.05 23.7 123.0 L22.2 122.7 21.6 122.8 20.8 122.95 Q18.55 123.25 16.4 122.15 L15.85 121.8 Q15.3 121.4 15.15 120.9 L14.7 119.15 Q14.45 118.2 14.55 117.6 13.85 114.95 11.25 114.4 8.6 113.8 7.35 113.1 6.3 112.45 6.15 111.4 L6.15 111.0 6.15 110.75 Q6.25 110.2 6.7 109.7 L8.65 107.65 Q10.65 105.3 8.35 102.5 10.1 100.65 12.95 100.3 L15.85 99.9 Q18.15 99.65 18.65 98.7 19.15 97.75 18.75 96.85 18.3 95.95 18.7 95.6 23.5 93.8 26.05 94.65 29.4 91.65 32.9 90.9 L38.05 89.6 40.95 89.7 42.05 89.25 49.6 88.7 Q51.0 87.55 53.7 88.1 56.1 88.55 57.35 87.2 L58.9 87.2 60.75 87.2 Q62.0 88.95 64.7 88.4 67.35 87.85 68.75 89.0 L76.3 89.6 77.4 90.0 80.25 89.95 85.45 91.25 Q88.95 91.95 92.25 94.95 94.8 94.1 99.6 95.9" fill="#473f38" fill-rule="evenodd" stroke="none"/>
    <path d="M89.3 96.4 Q89.6 96.7 89.25 97.4 88.95 98.05 89.35 98.85 89.75 99.55 91.5 99.75 L93.7 100.05 Q95.9 100.3 97.25 101.7 95.45 103.85 97.0 105.65 L98.45 107.2 Q98.9 107.7 98.9 108.25 98.9 109.3 98.0 109.85 97.0 110.4 95.0 110.85 93.0 111.25 92.5 113.25 L92.35 114.45 92.05 115.75 91.05 116.75 Q89.15 117.75 87.15 117.25 L85.5 117.35 Q83.55 118.2 82.5 120.1 L81.7 121.0 Q79.5 122.15 77.1 121.85 75.8 121.6 74.45 121.0 72.2 120.2 70.3 121.3 69.25 121.85 68.45 122.6 66.85 124.0 64.5 124.1 L64.05 124.1 63.95 123.95 Q63.15 123.1 61.85 122.8 L60.5 122.4 58.25 122.6 57.7 122.7 56.3 122.65 54.9 123.05 Q53.9 123.25 53.2 123.85 L52.3 123.85 Q49.9 123.8 48.25 122.4 L46.45 121.05 Q44.5 119.95 42.3 120.75 L39.65 121.6 Q37.2 121.9 35.05 120.7 34.5 120.35 34.25 119.8 33.15 117.95 31.25 117.15 L29.6 116.95 Q27.55 117.5 25.65 116.5 24.9 116.1 24.7 115.55 L24.35 114.25 24.25 113.0 Q23.75 111.0 21.75 110.6 19.7 110.15 18.75 109.6 17.8 109.05 17.85 108.0 17.8 107.45 18.25 106.95 L19.75 105.4 Q21.25 103.6 19.5 101.5 20.85 100.05 23.0 99.8 L25.25 99.5 Q27.0 99.3 27.4 98.6 27.75 97.85 27.45 97.15 27.1 96.45 27.4 96.2 31.1 94.8 33.05 95.45 35.6 93.15 38.25 92.6 L42.25 91.6 44.45 91.7 45.25 91.35 51.05 90.95 Q52.1 90.05 54.15 90.45 56.0 90.85 57.0 89.8 L58.15 89.8 59.55 89.8 Q60.5 91.1 62.6 90.7 64.6 90.25 65.7 91.15 L71.45 91.6 72.3 91.9 74.5 91.85 78.45 92.85 Q81.15 93.4 83.7 95.7 85.6 95.05 89.3 96.4 M82.2 97.3 L82.25 96.6 Q79.45 95.55 78.0 96.05 76.05 94.3 74.05 93.9 L71.05 93.15 69.4 93.2 68.8 92.95 64.45 92.6 Q63.65 91.95 62.1 92.25 60.55 92.55 59.8 91.6 L58.75 91.6 57.9 91.6 Q57.15 92.35 55.75 92.1 54.2 91.75 53.4 92.45 L49.05 92.75 48.45 93.0 46.8 92.95 43.8 93.7 Q41.75 94.15 39.85 95.85 38.4 95.35 35.65 96.4 35.4 96.6 35.65 97.15 L35.6 98.2 Q35.3 98.75 33.95 98.9 L32.3 99.1 Q30.65 99.3 29.65 100.4 31.0 102.0 29.85 103.35 L28.75 104.55 Q28.4 104.9 28.4 105.3 28.35 106.1 29.1 106.5 L31.35 107.25 Q32.85 107.6 33.25 109.1 L33.3 110.0 33.55 111.0 34.3 111.7 Q35.75 112.45 37.3 112.05 L38.5 112.2 Q39.95 112.8 40.75 114.2 L41.35 114.85 Q43.0 115.75 44.8 115.55 L46.8 114.9 Q48.5 114.25 49.95 115.1 L51.3 116.1 Q52.55 117.15 54.35 117.2 L55.0 117.2 Q55.55 116.8 56.3 116.6 L57.35 116.3 58.45 116.35 58.8 116.25 60.5 116.15 61.55 116.45 Q62.5 116.65 63.15 117.3 L63.2 117.4 63.55 117.4 Q65.3 117.35 66.55 116.3 L67.9 115.3 71.05 115.1 73.05 115.7 Q74.85 115.9 76.5 115.05 L77.1 114.4 Q77.9 112.95 79.35 112.35 L80.6 112.25 Q82.1 112.65 83.55 111.9 L84.3 111.15 84.55 110.15 84.6 109.25 Q85.0 107.75 86.5 107.45 L88.75 106.7 Q89.45 106.25 89.45 105.45 L89.1 104.7 88.0 103.55 Q86.85 102.15 88.2 100.55 87.15 99.5 85.55 99.3 L83.9 99.05 Q82.55 98.95 82.25 98.4 81.95 97.85 82.2 97.3" fill="#827564" fill-rule="evenodd" stroke="none"/>
    <path d="M82.2 97.3 Q81.95 97.85 82.25 98.4 82.55 98.95 83.9 99.05 L85.55 99.3 Q87.15 99.5 88.2 100.55 86.85 102.15 88.0 103.55 L89.1 104.7 89.45 105.45 Q89.45 106.25 88.75 106.7 L86.5 107.45 Q85.0 107.75 84.6 109.25 L84.55 110.15 84.3 111.15 83.55 111.9 Q82.1 112.65 80.6 112.25 L79.35 112.35 Q77.9 112.95 77.1 114.4 L76.5 115.05 Q74.85 115.9 73.05 115.7 L71.05 115.1 67.9 115.3 66.55 116.3 Q65.3 117.35 63.55 117.4 L63.2 117.4 63.15 117.3 Q62.5 116.65 61.55 116.45 L60.5 116.15 58.8 116.25 58.45 116.35 57.35 116.3 56.3 116.6 Q55.55 116.8 55.0 117.2 L54.35 117.2 Q52.55 117.15 51.3 116.1 L49.95 115.1 Q48.5 114.25 46.8 114.9 L44.8 115.55 Q43.0 115.75 41.35 114.85 L40.75 114.2 Q39.95 112.8 38.5 112.2 L37.3 112.05 Q35.75 112.45 34.3 111.7 L33.55 111.0 33.3 110.0 33.25 109.1 Q32.85 107.6 31.35 107.25 L29.1 106.5 Q28.35 106.1 28.4 105.3 28.4 104.9 28.75 104.55 L29.85 103.35 Q31.0 102.0 29.65 100.4 30.65 99.3 32.3 99.1 L33.95 98.9 Q35.3 98.75 35.6 98.2 L35.65 97.15 Q35.4 96.6 35.65 96.4 38.4 95.35 39.85 95.85 41.75 94.15 43.8 93.7 L46.8 92.95 48.45 93.0 49.05 92.75 53.4 92.45 Q54.2 91.75 55.75 92.1 57.15 92.35 57.9 91.6 L58.75 91.6 59.8 91.6 Q60.55 92.55 62.1 92.25 63.65 91.95 64.45 92.6 L68.8 92.95 69.4 93.2 71.05 93.15 74.05 93.9 Q76.05 94.3 78.0 96.05 79.45 95.55 82.25 96.6 L82.2 97.3 M60.25 93.25 L59.1 93.25 58.8 93.25 58.5 93.25 58.4 93.25 58.0 93.25 57.95 93.25 49.95 94.05 Q46.0 94.75 42.7 96.2 37.9 98.3 36.5 101.05 L36.45 101.15 Q35.95 102.2 35.95 103.4 35.9 107.55 42.7 110.5 L46.5 111.9 46.6 111.95 Q51.95 113.45 58.8 113.5 L59.1 113.5 61.15 113.45 62.65 113.4 67.2 112.9 71.35 112.0 75.5 110.5 Q82.3 107.55 82.3 103.4 82.3 102.15 81.7 101.05 80.3 98.3 75.5 96.2 69.45 93.55 61.9 93.3 L60.25 93.25" fill="#574f42" fill-rule="evenodd" stroke="none"/>
    <path d="M36.5 101.05 Q37.9 98.3 42.7 96.2 46.0 94.75 49.95 94.05 L57.95 93.25 58.0 93.25 58.4 93.25 58.5 93.25 58.8 93.25 59.1 93.25 60.25 93.25 59.1 97.4 59.1 97.5 49.25 101.0 36.5 101.05 M81.7 101.05 Q82.3 102.15 82.3 103.4 82.3 107.55 75.5 110.5 L71.35 112.0 64.2 106.15 68.65 101.0 68.7 101.0 81.7 101.05" fill="#a29780" fill-rule="evenodd" stroke="none"/>
    <path d="M36.5 101.05 L49.25 101.0 53.55 106.2 46.75 111.8 46.6 111.95 46.5 111.9 42.7 110.5 Q35.9 107.55 35.95 103.4 35.95 102.2 36.45 101.15 L36.5 101.05 M59.1 97.4 L60.25 93.25 61.9 93.3 Q69.45 93.55 75.5 96.2 80.3 98.3 81.7 101.05 L68.7 101.0 59.1 97.4" fill="#c8bda6" fill-rule="evenodd" stroke="none"/>
    <path d="M49.25 101.0 L59.1 97.5 59.1 97.4 68.7 101.0 68.65 101.0 64.2 106.15 64.2 106.2 58.8 106.2 53.55 106.2 49.25 101.0" fill="#e7ded3" fill-rule="evenodd" stroke="none"/>
    <path d="M71.35 112.0 L67.2 112.9 62.65 113.4 61.15 113.45 59.1 113.5 58.8 113.5 Q51.95 113.45 46.6 111.95 L46.75 111.8 53.55 106.2 58.8 106.2 64.2 106.2 64.2 106.15 71.35 112.0" fill="#d0c8b7" fill-rule="evenodd" stroke="none"/>
    <path d="M36.5 101.05 L49.25 101.0 59.1 97.5 59.1 97.4 60.25 93.25 M36.45 101.15 L36.5 101.05 M64.2 106.2 L64.2 106.15 68.65 101.0 68.7 101.0 59.1 97.4 M71.35 112.0 L64.2 106.15 M53.55 106.2 L58.8 106.2 M46.6 111.95 L46.75 111.8 53.55 106.2 49.25 101.0 M81.7 101.05 L68.7 101.0" ffdec:has-small-stroke="true" ffdec:original-stroke-width="0.25" fill="none" stroke="#000000" stroke-linecap="round" stroke-linejoin="bevel" stroke-opacity="0.21176471" stroke-width="1.0"/>
    <path d="M87.35 41.3 L88.5 42.9 Q86.95 42.75 86.5 41.3 86.05 39.8 86.5 37.6 86.9 35.35 90.05 36.05 93.15 36.8 93.55 38.6 L94.1 40.85 Q94.5 42.95 93.65 45.05 L91.7 48.0 Q98.1 50.1 103.1 63.65 95.95 51.4 90.55 50.55 L90.5 50.55 Q88.45 50.0 87.05 50.85 L85.3 52.05 84.35 52.65 Q83.65 52.95 82.35 55.05 81.05 57.1 80.85 60.25 80.1 69.95 86.2 73.15 L86.5 73.15 86.4 73.3 Q88.05 74.1 90.25 74.5 91.55 74.65 92.6 73.8 98.35 68.55 92.6 63.0 90.05 60.5 87.65 62.7 87.65 66.4 90.65 70.5 86.2 66.65 84.35 59.8 87.1 55.4 91.15 57.25 99.15 60.7 98.3 71.0 98.05 74.2 96.6 76.85 L95.8 77.5 95.05 77.8 112.1 84.0 Q119.9 86.25 119.75 82.3 L122.2 84.8 Q123.45 81.75 122.4 78.85 125.7 81.2 125.9 85.1 124.65 88.55 121.15 88.35 L107.3 86.35 Q115.65 93.4 121.45 99.3 84.05 76.85 58.6 83.1 29.85 75.85 -3.45 100.2 2.25 93.1 10.6 86.15 L-3.25 88.1 Q-6.7 88.3 -7.95 84.9 -7.8 80.9 -4.45 78.6 -5.5 81.5 -4.25 84.55 L-1.85 82.05 Q-2.0 86.05 5.85 83.85 L22.9 77.6 22.15 77.3 21.3 76.6 Q19.9 74.0 19.7 70.8 18.85 60.5 26.85 57.05 30.85 55.2 33.55 59.6 31.7 66.4 27.25 70.3 30.3 66.2 30.35 62.5 27.95 60.3 25.35 62.75 19.6 68.35 25.35 73.55 26.4 74.45 27.7 74.25 29.85 73.9 31.5 73.05 L31.4 72.9 31.75 72.95 Q37.85 69.8 37.1 60.05 36.85 56.95 35.6 54.8 34.35 52.75 33.7 52.45 L32.7 51.75 30.95 50.65 Q29.5 49.8 27.4 50.35 21.95 51.2 14.75 63.45 19.8 49.85 26.2 47.7 L24.3 44.8 Q23.4 42.7 23.8 40.55 L24.35 38.4 Q24.75 36.55 27.9 35.85 30.95 35.1 31.4 37.35 31.85 39.6 31.4 41.15 30.95 42.6 29.45 42.7 L30.6 41.15 30.45 39.9 29.95 38.9 28.6 39.0 Q26.5 39.6 26.85 41.95 34.6 51.8 46.35 59.45 51.65 62.45 53.5 58.65 55.25 54.85 54.95 51.25 54.65 47.75 50.9 49.75 49.6 51.15 50.25 53.05 48.5 51.3 49.35 48.8 50.25 46.3 53.6 46.5 56.9 46.65 57.7 50.2 58.9 55.8 57.6 61.85 56.7 65.6 58.9 67.75 L59.05 67.8 59.05 67.95 Q61.2 65.8 60.35 62.05 59.0 56.0 60.25 50.4 61.05 46.9 64.35 46.75 67.7 46.5 68.55 49.0 69.45 51.5 67.7 53.3 68.3 51.4 67.05 50.0 63.3 47.95 63.0 51.5 62.7 55.05 64.4 58.85 66.25 62.6 71.6 59.65 83.3 52.0 91.05 42.25 91.45 39.85 89.35 39.25 L88.0 39.05 87.5 40.2 87.35 41.3 M39.05 76.15 Q32.1 75.45 17.6 83.6 31.85 78.3 46.2 77.85 L39.05 76.15 M62.2 70.45 Q61.25 75.5 59.05 79.75 L59.05 79.9 59.0 79.8 Q56.65 75.45 55.7 70.2 L56.05 67.45 Q53.15 69.9 49.55 68.7 L47.4 68.05 44.25 72.7 Q53.8 74.15 59.05 80.45 L59.05 80.35 Q64.35 74.35 73.7 72.9 L70.5 68.25 68.4 68.9 Q64.8 70.15 61.85 67.65 L62.2 70.45 M79.2 71.9 Q76.85 68.65 76.85 62.7 L73.55 65.55 Q76.0 70.95 79.2 71.9 M41.15 62.5 Q41.1 68.45 38.7 71.7 41.9 70.75 44.3 65.35 L41.15 62.5 M71.8 78.1 Q86.05 78.55 100.4 83.85 85.85 75.75 78.9 76.4 L71.8 78.1" fill="#c9bda5" fill-rule="evenodd" stroke="none"/>
    <path d="M87.35 41.3 L88.5 42.9 Q86.95 42.75 86.5 41.3 86.05 39.8 86.5 37.6 86.9 35.35 90.05 36.05 93.15 36.8 93.55 38.6 L94.1 40.85 Q94.5 42.95 93.65 45.05 L91.7 48.0 Q98.1 50.1 103.1 63.65 95.95 51.4 90.55 50.55 L90.5 50.55 Q88.45 50.0 87.05 50.85 L85.3 52.05 84.35 52.65 Q83.65 52.95 82.35 55.05 81.05 57.1 80.85 60.25 80.1 69.95 86.2 73.15 L86.5 73.15 86.4 73.3 Q88.05 74.1 90.25 74.5 91.55 74.65 92.6 73.8 98.35 68.55 92.6 63.0 90.05 60.5 87.65 62.7 87.65 66.4 90.65 70.5 86.2 66.65 84.35 59.8 87.1 55.4 91.15 57.25 99.15 60.7 98.3 71.0 98.05 74.2 96.6 76.85 L95.8 77.5 95.05 77.8 112.1 84.0 Q119.9 86.25 119.75 82.3 L122.2 84.8 Q123.45 81.75 122.4 78.85 125.7 81.2 125.9 85.1 124.65 88.55 121.15 88.35 L107.3 86.35 Q115.65 93.4 121.45 99.3 84.05 76.85 58.6 83.1 29.85 75.85 -3.45 100.2 2.25 93.1 10.6 86.15 L-3.25 88.1 Q-6.7 88.3 -7.95 84.9 -7.8 80.9 -4.45 78.6 -5.5 81.5 -4.25 84.55 L-1.85 82.05 Q-2.0 86.05 5.85 83.85 L22.9 77.6 22.15 77.3 21.3 76.6 Q19.9 74.0 19.7 70.8 18.85 60.5 26.85 57.05 30.85 55.2 33.55 59.6 31.7 66.4 27.25 70.3 30.3 66.2 30.35 62.5 27.95 60.3 25.35 62.75 19.6 68.35 25.35 73.55 26.4 74.45 27.7 74.25 29.85 73.9 31.5 73.05 L31.4 72.9 31.75 72.95 Q37.85 69.8 37.1 60.05 36.85 56.95 35.6 54.8 34.35 52.75 33.7 52.45 L32.7 51.75 30.95 50.65 Q29.5 49.8 27.4 50.35 21.95 51.2 14.75 63.45 19.8 49.85 26.2 47.7 L24.3 44.8 Q23.4 42.7 23.8 40.55 L24.35 38.4 Q24.75 36.55 27.9 35.85 30.95 35.1 31.4 37.35 31.85 39.6 31.4 41.15 30.95 42.6 29.45 42.7 L30.6 41.15 30.45 39.9 29.95 38.9 28.6 39.0 Q26.5 39.6 26.85 41.95 34.6 51.8 46.35 59.45 51.65 62.45 53.5 58.65 55.25 54.85 54.95 51.25 54.65 47.75 50.9 49.75 49.6 51.15 50.25 53.05 48.5 51.3 49.35 48.8 50.25 46.3 53.6 46.5 56.9 46.65 57.7 50.2 58.9 55.8 57.6 61.85 56.7 65.6 58.9 67.75 L59.05 67.8 59.05 67.95 Q61.2 65.8 60.35 62.05 59.0 56.0 60.25 50.4 61.05 46.9 64.35 46.75 67.7 46.5 68.55 49.0 69.45 51.5 67.7 53.3 68.3 51.4 67.05 50.0 63.3 47.95 63.0 51.5 62.7 55.05 64.4 58.85 66.25 62.6 71.6 59.65 83.3 52.0 91.05 42.25 91.45 39.85 89.35 39.25 L88.0 39.05 87.5 40.2 87.35 41.3 M39.05 76.15 Q32.1 75.45 17.6 83.6 31.85 78.3 46.2 77.85 L39.05 76.15 M62.2 70.45 Q61.25 75.5 59.05 79.75 L59.05 79.9 59.0 79.8 Q56.65 75.45 55.7 70.2 L56.05 67.45 Q53.15 69.9 49.55 68.7 L47.4 68.05 44.25 72.7 Q53.8 74.15 59.05 80.45 L59.05 80.35 Q64.35 74.35 73.7 72.9 L70.5 68.25 68.4 68.9 Q64.8 70.15 61.85 67.65 L62.2 70.45 M79.2 71.9 Q76.85 68.65 76.85 62.7 L73.55 65.55 Q76.0 70.95 79.2 71.9 M41.15 62.5 Q41.1 68.45 38.7 71.7 41.9 70.75 44.3 65.35 L41.15 62.5 M71.8 78.1 Q86.05 78.55 100.4 83.85 85.85 75.75 78.9 76.4 L71.8 78.1" fill="#c9bda5" fill-rule="evenodd" stroke="none"/>
  </g>
  <defs>
    <radialGradient cx="0" cy="0" gradientTransform="matrix(4.0E-4, -0.0232, 0.0597, -4.0E-4, 60.0, 120.4)" gradientUnits="userSpaceOnUse" id="gradient0" r="819.2" spreadMethod="pad">
      <stop offset="0.23529411764705882" stop-color="#342c21"/>
      <stop offset="0.8549019607843137" stop-color="#a9a18d" stop-opacity="0.36078432"/>
      <stop offset="1.0" stop-color="#ebe3cb" stop-opacity="0.0"/>
    </radialGradient>
    <radialGradient cx="0" cy="0" gradientTransform="matrix(4.0E-4, -0.0232, 0.0597, -4.0E-4, 60.0, 120.4)" gradientUnits="userSpaceOnUse" id="gradient1" r="819.2" spreadMethod="pad">
      <stop offset="0.23529411764705882" stop-color="#342c21"/>
      <stop offset="0.8549019607843137" stop-color="#a9a18d" stop-opacity="0.36078432"/>
      <stop offset="1.0" stop-color="#ebe3cb" stop-opacity="0.0"/>
    </radialGradient>
  </defs>
</svg>
