<?xml version="1.0" encoding="UTF-8" standalone="no"?>
<svg xmlns:ffdec="https://www.free-decompiler.com/flash" xmlns:xlink="http://www.w3.org/1999/xlink" ffdec:objectType="shape" height="16.95px" width="9.0px" xmlns="http://www.w3.org/2000/svg">
  <g transform="matrix(1.0, 0.0, 0.0, 1.0, 9.0, 8.45)">
    <path d="M-6.8 -0.15 L-8.65 -3.35 Q-9.65 -5.45 -7.65 -7.05 -5.6 -8.8 -4.05 -8.4 -2.5 -8.1 -1.55 -5.65 L-1.6 -5.65 Q-1.15 -4.55 -2.0 -3.7 L-2.0 -3.75 Q-3.75 -1.95 -4.7 -2.4 -5.8 -2.75 -5.8 -5.3 L-5.75 -5.6 -5.5 -5.8 -5.05 -5.95 -4.7 -5.9 -4.4 -5.65 -4.45 -5.25 -4.7 -5.0 -4.85 -4.95 Q-4.8 -3.6 -4.4 -3.35 -3.85 -3.2 -2.65 -4.4 L-2.65 -4.45 Q-2.3 -4.8 -2.45 -5.25 L-2.45 -5.3 Q-3.15 -7.15 -4.25 -7.4 -5.45 -7.65 -7.1 -6.25 -8.45 -5.2 -7.8 -3.8 L-6.15 -0.95 -0.15 -0.85 0.0 -0.8 0.0 0.85 -5.95 1.0 -7.55 3.9 Q-8.2 5.2 -6.85 6.35 -5.2 7.65 -4.05 7.45 -2.95 7.15 -2.25 5.3 L-2.2 5.3 Q-2.05 4.8 -2.4 4.45 -3.6 3.2 -4.15 3.4 -4.55 3.6 -4.65 5.0 L-4.55 5.05 Q-4.35 5.05 -4.25 5.25 L-4.15 5.65 -4.35 5.95 -4.7 6.05 -5.2 5.9 -5.5 5.7 -5.6 5.4 Q-5.55 2.75 -4.5 2.45 -3.55 1.9 -1.75 3.75 -0.9 4.55 -1.35 5.7 L-1.35 5.65 Q-2.25 8.1 -3.8 8.45 -5.35 8.8 -7.4 7.15 -9.4 5.45 -8.4 3.45 -7.65 1.75 -6.55 0.2 L-6.4 0.05 -6.45 0.05 -6.65 0.0 -6.8 -0.15" fill="#b38e64" fill-rule="evenodd" stroke="none"/>
  </g>
</svg>
