<?xml version="1.0" encoding="UTF-8" standalone="no"?>
<svg xmlns:ffdec="https://www.free-decompiler.com/flash" xmlns:xlink="http://www.w3.org/1999/xlink" ffdec:objectType="shape" height="18.75px" width="15.45px" xmlns="http://www.w3.org/2000/svg">
  <g transform="matrix(1.0, 0.0, 0.0, 1.0, -2.55, -2.3)">
    <path d="M18.0 7.05 L14.7 7.95 Q16.4 10.25 16.45 13.1 16.4 16.55 13.95 19.05 11.9 21.05 9.05 21.05 6.2 21.05 4.2 19.05 2.55 17.4 2.55 15.05 2.55 12.7 4.2 11.1 5.55 9.75 7.45 9.75 9.4 9.75 10.75 11.1 11.85 12.2 11.85 13.85 11.85 15.4 10.75 16.5 9.8 17.4 8.5 17.45 7.2 17.4 6.25 16.5 5.45 15.7 5.5 14.65 5.45 13.5 6.25 12.75 L7.1 13.6 Q6.65 14.05 6.65 14.65 6.65 15.2 7.1 15.65 7.7 16.25 8.5 16.25 9.3 16.25 9.9 15.65 10.65 14.9 10.65 13.85 10.65 12.7 9.9 11.95 8.9 10.95 7.45 10.95 6.1 10.95 5.05 11.95 3.75 13.25 3.75 15.05 3.75 16.9 5.05 18.2 6.7 19.85 9.05 19.9 11.4 19.85 13.1 18.2 15.2 16.05 15.2 13.1 15.2 10.25 13.75 8.7 L12.65 11.35 Q10.7 6.7 8.35 2.3 L8.5 2.4 8.6 2.45 8.55 2.45 Q12.25 4.85 18.0 7.05" fill="#ffffff" fill-rule="evenodd" stroke="none"/>
  </g>
</svg>
