<?xml version="1.0" encoding="UTF-8" standalone="no"?>
<svg xmlns:ffdec="https://www.free-decompiler.com/flash" xmlns:xlink="http://www.w3.org/1999/xlink" ffdec:objectType="shape" height="18.65px" width="15.0px" xmlns="http://www.w3.org/2000/svg">
  <g transform="matrix(1.0, 0.0, 0.0, 1.0, -2.7, -2.45)">
    <path d="M17.7 6.7 L14.45 7.75 Q16.3 9.95 16.5 12.75 16.6 16.2 14.3 18.85 12.35 20.95 9.5 21.1 6.65 21.25 4.55 19.35 2.8 17.8 2.7 15.45 2.55 13.1 4.15 11.45 5.4 10.05 7.3 9.95 9.25 9.85 10.7 11.1 11.85 12.1 11.9 13.75 12.0 15.3 10.95 16.45 10.05 17.4 8.75 17.55 7.45 17.55 6.45 16.7 5.6 15.95 5.6 14.9 5.5 13.75 6.25 12.95 L7.15 13.75 Q6.75 14.25 6.75 14.85 6.8 15.4 7.25 15.8 7.9 16.4 8.7 16.35 9.5 16.3 10.05 15.65 10.8 14.85 10.7 13.8 10.65 12.65 9.85 11.95 8.8 11.05 7.35 11.15 6.0 11.2 5.0 12.2 3.8 13.6 3.9 15.4 4.0 17.25 5.35 18.45 7.1 20.05 9.45 19.95 11.8 19.8 13.4 18.05 15.4 15.8 15.25 12.85 15.1 10.05 13.55 8.55 L12.6 11.25 Q10.4 6.7 7.8 2.45 L7.95 2.55 8.05 2.6 8.0 2.6 Q11.85 4.8 17.7 6.7" fill="#ffffff" fill-rule="evenodd" stroke="none"/>
  </g>
</svg>
