<?xml version="1.0" encoding="UTF-8" standalone="no"?>
<svg xmlns:ffdec="https://www.free-decompiler.com/flash" xmlns:xlink="http://www.w3.org/1999/xlink" ffdec:objectType="shape" height="18.3px" width="13.55px" xmlns="http://www.w3.org/2000/svg">
  <g transform="matrix(1.0, 0.0, 0.0, 1.0, -3.3, -3.1)">
    <path d="M15.4 12.2 Q14.8 9.4 13.05 8.2 L12.55 11.0 Q9.65 6.9 6.45 3.1 L6.6 3.15 6.7 3.15 6.65 3.2 Q10.8 4.7 16.85 5.65 L13.8 7.25 Q16.0 9.15 16.65 11.95 17.3 15.3 15.45 18.25 13.85 20.65 11.05 21.25 8.25 21.85 5.9 20.3 3.95 19.05 3.45 16.75 2.95 14.45 4.2 12.55 5.3 10.9 7.15 10.5 9.05 10.1 10.6 11.15 11.95 12.0 12.3 13.6 12.6 15.15 11.75 16.4 11.05 17.5 9.75 17.85 8.5 18.05 7.35 17.35 6.45 16.75 6.25 15.7 6.0 14.6 6.55 13.7 L7.6 14.35 Q7.25 14.9 7.35 15.5 L8.05 16.35 Q8.75 16.8 9.5 16.65 10.3 16.5 10.8 15.75 11.3 14.9 11.1 13.85 10.85 12.75 10.0 12.15 8.8 11.4 7.4 11.7 6.05 12.0 5.25 13.15 4.2 14.75 4.6 16.5 5.0 18.3 6.55 19.25 8.5 20.55 10.8 20.15 13.1 19.6 14.4 17.6 16.0 15.05 15.4 12.2" fill="#ffffff" fill-rule="evenodd" stroke="none"/>
  </g>
</svg>
