<?xml version="1.0" encoding="UTF-8" standalone="no"?>
<svg xmlns:ffdec="https://www.free-decompiler.com/flash" xmlns:xlink="http://www.w3.org/1999/xlink" ffdec:objectType="shape" height="19.2px" width="19.8px" xmlns="http://www.w3.org/2000/svg">
  <g transform="matrix(1.0, 0.0, 0.0, 1.0, -2.2, -2.9)">
    <path d="M10.15 9.4 Q12.9 11.15 14.05 13.1 L17.7 2.9 18.75 3.2 22.0 3.2 15.1 14.7 17.0 17.05 14.4 16.95 13.35 17.05 13.55 17.05 12.5 17.55 12.0 17.9 11.2 20.75 13.2 22.1 6.8 22.1 8.85 20.7 10.4 20.75 11.35 18.0 Q6.05 14.85 6.15 13.8 6.25 12.75 6.9 11.15 L5.9 10.55 3.4 11.2 5.3 9.45 Q2.6 7.8 3.05 7.65 L2.2 7.6 5.3 7.6 Q5.5 6.85 6.05 6.3 L6.35 6.05 Q7.05 5.45 7.95 5.45 L8.25 5.45 Q8.95 5.55 9.45 6.05 L9.7 6.35 Q10.45 7.15 10.4 8.35 L10.15 9.4" fill="#b4ac8d" fill-rule="evenodd" stroke="none"/>
  </g>
</svg>
