<?xml version="1.0" encoding="UTF-8" standalone="no"?>
<svg xmlns:ffdec="https://www.free-decompiler.com/flash" xmlns:xlink="http://www.w3.org/1999/xlink" ffdec:objectType="shape" height="20.0px" width="14.6px" xmlns="http://www.w3.org/2000/svg">
  <g transform="matrix(1.0, 0.0, 0.0, 1.0, 0.0, 0.0)">
    <path d="M14.2 5.65 Q14.6 6.05 14.6 6.6 14.6 7.15 14.2 7.55 L13.3 7.95 Q12.75 7.9 12.35 7.55 L9.3 4.5 9.15 14.7 Q8.6 19.45 5.4 19.9 2.2 20.35 1.15 18.9 0.0 17.45 0.0 15.85 0.0 14.25 1.2 13.1 2.4 11.9 4.0 11.9 5.4 11.9 6.5 12.9 L6.65 1.3 Q6.65 0.75 7.05 0.4 7.4 0.0 8.0 0.0 8.5 0.0 8.9 0.4 L14.2 5.65" fill="#ffffff" fill-rule="evenodd" stroke="none"/>
  </g>
</svg>
