<?xml version="1.0" encoding="UTF-8" standalone="no"?>
<svg xmlns:ffdec="https://www.free-decompiler.com/flash" xmlns:xlink="http://www.w3.org/1999/xlink" ffdec:objectType="shape" height="12.4px" width="10.2px" xmlns="http://www.w3.org/2000/svg">
  <g transform="matrix(1.0, 0.0, 0.0, 1.0, -1.7, -1.55)">
    <path d="M5.5 1.55 L5.6 1.6 5.7 1.65 5.65 1.65 Q8.1 3.2 11.9 4.65 L9.7 5.25 Q10.85 6.8 10.9 8.65 10.85 10.95 9.2 12.6 7.85 13.95 6.0 13.95 4.1 13.95 2.75 12.6 1.7 11.5 1.7 9.95 1.7 8.4 2.75 7.35 3.65 6.45 4.9 6.45 6.2 6.45 7.1 7.35 7.85 8.1 7.85 9.15 7.85 10.2 7.1 10.9 6.5 11.5 5.6 11.55 4.75 11.5 4.15 10.9 3.6 10.4 3.65 9.7 3.6 8.95 4.15 8.45 L4.7 9.0 Q4.4 9.3 4.4 9.7 4.4 10.05 4.7 10.35 5.1 10.75 5.6 10.75 6.15 10.75 6.55 10.35 7.05 9.85 7.05 9.15 7.05 8.4 6.55 7.9 5.9 7.25 4.9 7.25 4.05 7.25 3.35 7.9 2.5 8.75 2.5 9.95 2.5 11.2 3.35 12.05 4.45 13.15 6.0 13.15 7.55 13.15 8.65 12.05 10.05 10.6 10.05 8.65 10.05 6.8 9.1 5.75 L8.35 7.5 5.5 1.55" fill="#ffffff" fill-rule="evenodd" stroke="none"/>
  </g>
</svg>
