<?xml version="1.0" encoding="UTF-8" standalone="no"?>
<svg xmlns:ffdec="https://www.free-decompiler.com/flash" xmlns:xlink="http://www.w3.org/1999/xlink" ffdec:objectType="shape" height="12.35px" width="9.85px" xmlns="http://www.w3.org/2000/svg">
  <g transform="matrix(1.0, 0.0, 0.0, 1.0, -1.8, -1.6)">
    <path d="M5.2 1.65 L5.25 1.7 Q7.75 3.1 11.65 4.3 L9.55 5.05 Q10.75 6.45 10.9 8.35 11.05 10.6 9.55 12.4 8.3 13.85 6.4 13.95 4.55 14.1 3.1 12.85 1.9 11.8 1.8 10.25 1.7 8.7 2.75 7.6 3.55 6.6 4.8 6.55 6.1 6.45 7.1 7.3 7.85 8.0 7.9 9.1 8.0 10.1 7.35 10.9 6.7 11.5 5.85 11.6 5.0 11.6 4.35 11.1 3.8 10.6 3.75 9.85 3.7 9.15 4.15 8.6 L4.75 9.1 Q4.5 9.4 4.55 9.8 L4.85 10.45 Q5.25 10.8 5.8 10.8 6.3 10.75 6.7 10.3 7.15 9.8 7.1 9.15 7.05 8.35 6.5 7.85 5.8 7.25 4.85 7.35 3.95 7.4 3.3 8.1 2.55 9.05 2.6 10.2 2.7 11.45 3.6 12.25 4.8 13.25 6.35 13.15 7.9 13.05 8.95 11.85 10.2 10.4 10.05 8.45 9.95 6.55 8.9 5.6 L8.35 7.4 5.05 1.6 5.2 1.65" fill="#ffffff" fill-rule="evenodd" stroke="none"/>
  </g>
</svg>
