<?xml version="1.0" encoding="UTF-8" standalone="no"?>
<svg xmlns:ffdec="https://www.free-decompiler.com/flash" xmlns:xlink="http://www.w3.org/1999/xlink" ffdec:objectType="shape" height="12.25px" width="9.25px" xmlns="http://www.w3.org/2000/svg">
  <g transform="matrix(1.0, 0.0, 0.0, 1.0, -2.05, -1.85)">
    <path d="M4.55 1.85 L4.65 1.9 4.75 1.9 4.7 1.95 Q7.35 3.1 11.3 3.95 L9.25 4.85 Q10.65 6.25 10.95 8.1 11.3 10.35 9.9 12.25 8.8 13.75 6.9 14.05 5.05 14.3 3.55 13.2 2.3 12.3 2.1 10.75 1.85 9.25 2.75 8.0 3.5 7.0 4.75 6.8 6.0 6.6 7.05 7.35 7.85 7.95 8.0 9.05 8.15 10.05 7.6 10.85 L6.15 11.75 Q5.3 11.8 4.65 11.3 4.0 10.9 3.95 10.2 3.75 9.45 4.25 8.85 L4.9 9.35 Q4.65 9.65 4.7 10.05 L5.1 10.7 6.05 10.95 6.95 10.4 7.2 9.15 Q7.1 8.4 6.55 8.0 5.8 7.45 4.85 7.6 3.95 7.75 3.35 8.5 2.65 9.45 2.85 10.6 3.0 11.8 4.0 12.55 5.25 13.45 6.75 13.3 8.3 13.0 9.25 11.7 10.45 10.1 10.15 8.2 9.85 6.35 8.75 5.45 L8.3 7.3 4.55 1.85" fill="#ffffff" fill-rule="evenodd" stroke="none"/>
  </g>
</svg>
